<svg xmlns="http://www.w3.org/2000/svg" xmlns:xlink="http://www.w3.org/1999/xlink" width="1400" height="69.283" viewBox="0 0 1400 69.283">
  <defs>
    <linearGradient id="linear-gradient" x1="-0.047" y1="0.5" x2="1.187" y2="-0.343" gradientUnits="objectBoundingBox">
      <stop offset="0" stop-color="#68a81e"/>
      <stop offset="1" stop-color="#018837"/>
    </linearGradient>
  </defs>
  <g id="Bg_Quick_Overview" data-name="Bg_Quick Overview" transform="translate(11577.034 5665)">
    <path id="Path_44415" data-name="Path 44415" d="M-4,95.573s138.64-.6,178.19-.6c29.939,0,54.68-29.024,81.92-48.059,8.426-5.888,18.686-16.036,29.016-16.036,42.511,0,1110.736-3.65,1110.736-3.65V96.357s-337.829-.185-434.113,0C646.138,96.965-4,95.6-4,95.6Z" transform="translate(-11573 -5692.23)" fill="url(#linear-gradient)"/>
    <path id="Path_44416" data-name="Path 44416" d="M1386.107,5.106c-.8-.009-488.544-.128-489.348-.128q-298.035,0-596.069.02A67.261,67.261,0,0,0,260.275,17.88c-3.505,2.544-6.711,5.429-10.035,8.176-9.657,7.982-19.36,15.919-28.93,23.986-4.4,3.712-8.808,7.388-13.962,10.24a64.231,64.231,0,0,1-25.886,8.008c-4.306.366-8.647.537-12.973.54-56.094.035-126.287-.006-182.381-.006V63.86l2.165.03c55.614,0,125.226-.009,180.84.005,17.883,0,33.228-5.57,46.293-16.688,11.961-10.18,24.268-20.024,36.261-30.173A68.437,68.437,0,0,1,297.971.007Q597.707-.005,897.443,0l488.664.1Z" transform="translate(-11563.141 -5665)" fill="url(#linear-gradient)"/>
  </g>
</svg>
