<svg xmlns="http://www.w3.org/2000/svg" xmlns:xlink="http://www.w3.org/1999/xlink" width="1400" height="68.843" viewBox="0 0 1400 68.843">
  <defs>
    <linearGradient id="linear-gradient" x1="0.5" x2="0.5" y2="1" gradientUnits="objectBoundingBox">
      <stop offset="0" stop-color="#1c0fd6"/>
      <stop offset="1" stop-color="#000196"/>
    </linearGradient>
    <linearGradient id="linear-gradient-2" x1="0.126" y1="-0.72" x2="0.853" y2="0.714" gradientUnits="objectBoundingBox">
      <stop offset="0" stop-color="#191ccf"/>
      <stop offset="1" stop-color="#191cd0"/>
    </linearGradient>
  </defs>
  <g id="Group_12329" data-name="Group 12329" transform="translate(19283 2709)">
    <path id="air_bp_-_Jio_aircraft_refuelling_Goa_2_" data-name="air bp - Jio aircraft refuelling Goa (2)" d="M0,93.573s133.7-.6,172.972-.6c9.308,0,21.864,1.86,30.146-4.11,3.81-2.746,10.4-2.33,17.086-5.868,8.406-4.446,16.953-14.916,25.013-21.286,5-3.952,9.908-6.241,12.98-9.772,11.956-13.742,31.031-23.494,47.94-23.494C348.352,28.444,1400,27.231,1400,27.231V94.667H0Z" transform="translate(-19283 -2735.231)" fill="url(#linear-gradient)"/>
    <path id="Path_44424" data-name="Path 44424" d="M1389.107,5.106c-.8-.009-491.544-.128-492.348-.128q-298.035,0-596.069.02A67.261,67.261,0,0,0,260.275,17.88c-3.505,2.544-6.711,5.429-10.035,8.176-9.657,7.982-19.36,15.919-28.93,23.986-4.4,3.712-8.808,7.388-13.962,10.24a64.231,64.231,0,0,1-25.886,8.008c-4.306.366-8.647.537-12.973.54-56.094.035-123.287-.006-179.381-.006V63.86l2.165.03c55.614,0,122.226-.009,177.84.005,17.883,0,33.228-5.57,46.293-16.688,11.961-10.18,24.268-20.024,36.261-30.173A68.437,68.437,0,0,1,297.971.007Q597.707-.005,897.443,0l491.665.1Z" transform="translate(-19272.107 -2709)" fill="url(#linear-gradient-2)"/>
  </g>
</svg>
