<svg xmlns="http://www.w3.org/2000/svg" width="1400.039" height="69.512" viewBox="0 0 1400.039 69.512">
  <g id="Group_12332" data-name="Group 12332" transform="translate(19283 2063.657)">
    <path id="air_bp_-_Jio_aircraft_refuelling_Goa_2_" data-name="air bp - Jio aircraft refuelling Goa (2)" d="M0,671.573H1400v6.094H1238.414c-14.329,0-27.484,1.1-40.283,14.749-9.739,10.387-21.537,16.213-32.061,26.565-5.824,5.731-18.336,17.66-25.057,17.66-3.649,0-20.861,4.057-47.985,4.057C873.8,740.7,0,738.6,0,738.6Z" transform="translate(-19283 -2735.231)" fill="#fff"/>
    <path id="Path_44425" data-name="Path 44425" d="M-13.793,63.75c.8.009,516.592.128,517.4.128q298.064,0,596.127-.02a67.273,67.273,0,0,0,40.42-12.882c3.505-2.544,6.712-5.429,10.036-8.176,9.658-7.982,19.362-15.919,28.933-23.986,4.4-3.712,8.809-7.388,13.964-10.24A64.242,64.242,0,0,1,1218.972.566c4.306-.366,8.648-.537,12.974-.54,56.1-.035,98.2-.024,154.3-.024V4.965h-2.066c-55.619,0-97.239.009-152.858-.005-17.885,0-33.232,5.57-46.3,16.688-11.962,10.18-24.271,20.024-36.265,30.173A71.184,71.184,0,0,1,1126.5,64.9a71.159,71.159,0,0,1-24.055,3.947q-299.766.012-599.531.006l-516.713-.1Z" transform="translate(-19269.207 -2063)" fill="#fff"/>
  </g>
</svg>
