<svg id="Group_11004" data-name="Group 11004" xmlns="http://www.w3.org/2000/svg" width="62.758" height="62.668" viewBox="0 0 62.758 62.668">
  <path id="Path_44181" data-name="Path 44181" d="M2257.23,13287.792l-2.742-6.355h61.32l-3.429,6.355,3.429,8.854h-61.32l3.655-7.883Z" transform="translate(-2253.724 -13257.277)" fill="#fff"/>
  <path id="Path_16218" data-name="Path 16218" d="M30.9,0h.49a1.489,1.489,0,0,0,.268.118Q45.183,3.125,58.712,6.128a2.161,2.161,0,0,1,1.829,2.7c-.415,2.371-.85,4.739-1.272,7.109-.411,2.309-.817,4.619-1.237,7,.982,0,1.917,0,2.852,0,1.623,0,2.289,1.069,1.574,2.523-.882,1.794-1.758,3.591-2.659,5.375a1,1,0,0,0-.016,1.016c.934,1.859,1.838,3.733,2.739,5.608A1.547,1.547,0,0,1,61,39.855c-1.8.006-3.6.015-5.392-.008-.446-.006-.623.1-.706.578-.828,4.764-1.693,9.521-2.531,14.283a2.259,2.259,0,0,1-1.652,1.922c-6.28,1.983-12.555,3.978-18.845,5.931a2.836,2.836,0,0,1-1.605-.018c-6.078-1.944-12.142-3.931-18.211-5.9A2.273,2.273,0,0,1,10.4,54.722C9.562,49.94,8.7,45.162,7.86,40.379c-.072-.409-.213-.536-.622-.531-1.736.021-3.474-.03-5.208.024A1.927,1.927,0,0,1,0,38.744v-.858c1.032-2.092,2.068-4.182,3.087-6.28a.651.651,0,0,0,0-.5C2.068,29.027,1.032,26.959,0,24.889v-.858a1.987,1.987,0,0,1,2.109-1.106c.861.056,1.729.012,2.616.012-.041-.3-.06-.506-.1-.706q-1.2-6.69-2.393-13.379A2.175,2.175,0,0,1,4.095,6.12c2.408-.543,4.814-1.1,7.222-1.641,1.611-.365,3.222-.736,4.837-1.085a.9.9,0,0,1,1.121.684.918.918,0,0,1-.68,1.078c-.135.045-.275.076-.415.108C12.36,6.127,8.542,7,4.716,7.843c-.6.132-.74.366-.629.961.583,3.13,1.125,6.267,1.684,9.4.279,1.564.563,3.127.847,4.7H8.45c-.018-.168-.025-.306-.049-.441-.679-3.838-1.367-7.675-2.037-11.515A1.426,1.426,0,0,1,7.622,9.083q11.46-2.6,22.923-5.182a2.3,2.3,0,0,1,.963-.039Q43.344,6.468,55.173,9.1a1.415,1.415,0,0,1,1.241,1.83c-.34,2.012-.706,4.02-1.062,6.029C55,18.931,54.654,20.9,54.3,22.9h1.843c.046-.2.091-.353.12-.513.809-4.541,1.6-9.084,2.436-13.62.119-.649-.14-.8-.688-.92Q44.892,4.95,31.776,2.04a3.168,3.168,0,0,0-1.317,0c-3.109.68-6.21,1.4-9.315,2.1-.8.181-1.3-.052-1.415-.642-.114-.608.222-.982,1.034-1.163,1.294-.288,2.589-.575,3.881-.874Q27.772.736,30.9,0M49.411,39.857h-.738c-1.287,0-2.575.008-3.862-.006a.9.9,0,0,1-.977-.88.93.93,0,0,1,.979-.95c.163-.009.327,0,.49,0H60.731c-.134-.295-.22-.5-.317-.695-.786-1.614-1.543-3.243-2.372-4.835a2.262,2.262,0,0,1,.022-2.31c.832-1.567,1.587-3.175,2.369-4.768.093-.189.162-.391.243-.59H2.071c.118.257.205.459.3.657.821,1.665,1.636,3.333,2.471,4.991a1.828,1.828,0,0,1,.007,1.754c-.674,1.351-1.329,2.711-1.989,4.069-.265.545-.524,1.093-.827,1.727H39.858c.2,0,.41-.012.613.007a.906.906,0,0,1,.884.914.889.889,0,0,1-.88.91c-.2.017-.408.007-.613.007H13.386c.016.159.019.24.033.319.67,3.757,1.348,7.512,2,11.271a.723.723,0,0,0,.564.67c4.91,1.586,9.813,3.191,14.723,4.775a1.466,1.466,0,0,0,.818.006c1.31-.389,2.608-.815,3.911-1.226,3.773-1.191,7.547-2.376,11.314-3.585a.9.9,0,0,0,.556-.508c.716-3.871,1.4-7.749,2.1-11.723M10.344,22.884H52.431l2.134-11.993c-.153-.046-.265-.087-.38-.113q-11.226-2.5-22.456-4.99a2.985,2.985,0,0,0-1.253.009Q21.848,7.727,13.23,9.7c-1.665.378-3.329.762-5.028,1.152l2.142,12.037m40.952,17c-.027.116-.048.194-.062.274-.727,4.057-1.459,8.112-2.172,12.172a1.572,1.572,0,0,1-1.17,1.34c-5.406,1.705-10.809,3.42-16.22,5.107a2,2,0,0,1-1.133,0q-7.862-2.525-15.709-5.1a1.506,1.506,0,0,1-1.1-1.261q-.6-3.467-1.228-6.931-.5-2.794-1-5.588H9.7a2.555,2.555,0,0,0,0,.4q1.24,6.991,2.482,13.982a.758.758,0,0,0,.6.662c5.955,1.927,11.9,3.873,17.861,5.8a1.646,1.646,0,0,0,.939,0c6.09-1.911,12.171-3.847,18.262-5.753a1.006,1.006,0,0,0,.789-.922c.626-3.619,1.277-7.233,1.918-10.849.194-1.1.381-2.2.578-3.333Z" fill="#178b49"/>
  <path id="Path_16219" data-name="Path 16219" d="M167.884,266.959a15.545,15.545,0,0,1-1.411-.692.98.98,0,0,0-1.167,0,8.267,8.267,0,0,1-1.084.563,1.317,1.317,0,0,1-1.439-.171,1.209,1.209,0,0,1-.512-1.349,2.338,2.338,0,0,0-.943-2.983,1.219,1.219,0,0,1-.409-1.437,1.2,1.2,0,0,1,1.138-.964A2.564,2.564,0,0,0,164.683,258a1.306,1.306,0,0,1,2.393-.01,2.8,2.8,0,0,0,2.679,1.963,1.305,1.305,0,0,1,.724,2.3,2.6,2.6,0,0,0-.984,3.1c.245.809-.5,1.581-1.61,1.6m-.342-2.244a2.451,2.451,0,0,1,1-3.128,2.428,2.428,0,0,1-2.663-1.89,2.358,2.358,0,0,1-2.609,1.855,6.106,6.106,0,0,1,1.052,1.435,5.893,5.893,0,0,1,.037,1.75,2.368,2.368,0,0,1,3.185-.023" transform="translate(-134.497 -215.085)" fill="#ffe600"/>
  <path id="Path_16220" data-name="Path 16220" d="M77.486,161.562a4.943,4.943,0,1,1-4.951,4.928,4.947,4.947,0,0,1,4.951-4.928m-.024,1.839a3.1,3.1,0,0,0-.006,6.207,3.1,3.1,0,1,0,.006-6.207" transform="translate(-60.654 -135.098)" fill="#178b49"/>
  <path id="Path_16221" data-name="Path 16221" d="M276.845,167.5c.667.76,1.314,1.493,1.956,2.231.463.532.486,1.089.072,1.458s-.971.289-1.441-.237c-.827-.925-1.644-1.859-2.6-2.944,0,.792.005,1.407,0,2.021a3.085,3.085,0,0,1-.064.727.817.817,0,0,1-.911.65.832.832,0,0,1-.845-.8,3.624,3.624,0,0,1-.015-.428q0-3.7,0-7.409c0-.964.269-1.225,1.24-1.229.612,0,1.225-.009,1.837,0a3.1,3.1,0,0,1,3.057,2.423,3,3,0,0,1-1.923,3.373c-.109.047-.214.1-.359.165m-1.971-4.12V165.7a12.2,12.2,0,0,0,1.358-.009,1.156,1.156,0,0,0-.119-2.31c-.4-.021-.8,0-1.239,0" transform="translate(-228.276 -135.069)" fill="#178b49"/>
  <path id="Path_16222" data-name="Path 16222" d="M230.605,169.852c.728,0,1.437-.006,2.146,0,.739.008,1.146.323,1.164.884.018.582-.411.942-1.168.95-.959.01-1.919.013-2.878,0-.844-.012-1.146-.311-1.149-1.153q-.012-3.765,0-7.531c0-.839.316-1.148,1.148-1.157q1.469-.015,2.939,0c.707.009,1.124.38,1.107.95-.016.546-.415.874-1.1.883-.729.009-1.458,0-2.222,0v2.173c.646,0,1.291,0,1.935,0,.714,0,1.137.345,1.141.907s-.423.919-1.127.93c-.612.01-1.224.011-1.836.018-.018,0-.035.018-.1.055Z" transform="translate(-191.252 -135.329)" fill="#178b49"/>
  <path id="Path_16223" data-name="Path 16223" d="M188.265,163.6v2.092c.611,0,1.214-.006,1.817,0,.724.01,1.125.347,1.123.927s-.387.9-1.128.909c-.588.006-1.176,0-1.845,0,0,1.046-.005,2.039,0,3.032a.932.932,0,0,1-.586.978c-.644.257-1.241-.2-1.251-.971-.015-1.123,0-2.246,0-3.37,0-1.409,0-2.819,0-4.228,0-.893.319-1.2,1.226-1.21s1.838-.009,2.757,0c.671.008,1.08.358,1.094.9.014.578-.392.925-1.109.932-.689.006-1.378,0-2.1,0" transform="translate(-155.86 -135.259)" fill="#178b49"/>
  <path id="Path_16224" data-name="Path 16224" d="M146.076,163.6c-.013.265-.027.427-.028.589,0,.468,0,.937,0,1.506.7,0,1.364-.015,2.029,0a.89.89,0,0,1,.935.8.843.843,0,0,1-.587.963,2.008,2.008,0,0,1-.664.064c-.546.008-1.093,0-1.712,0,0,.942,0,1.814,0,2.687a3.046,3.046,0,0,1-.063.728.9.9,0,0,1-1.747-.1,3.509,3.509,0,0,1-.026-.55q0-3.615,0-7.23c0-1.031.277-1.3,1.306-1.307.878,0,1.757-.007,2.635,0,.713.008,1.129.36,1.126.93s-.41.9-1.138.9c-.669.005-1.339,0-2.063,0" transform="translate(-120.586 -135.265)" fill="#178b49"/>
  <path id="Path_16225" data-name="Path 16225" d="M167.856,64.849c-.349-.171-.924-.42-1.464-.731a.869.869,0,0,0-1.005,0,10.742,10.742,0,0,1-1.136.6,1.326,1.326,0,0,1-1.443-.143,1.234,1.234,0,0,1-.529-1.4,2.289,2.289,0,0,0-.929-2.93,1.383,1.383,0,0,1,.741-2.43,2.521,2.521,0,0,0,2.582-1.889,1.311,1.311,0,0,1,2.422-.008,2.744,2.744,0,0,0,2.634,1.93,1.311,1.311,0,0,1,.73,2.333,2.559,2.559,0,0,0-.965,3.049c.249.845-.5,1.626-1.637,1.621M164.2,62.57a5.831,5.831,0,0,1,1.66-.543,6.178,6.178,0,0,1,1.692.522,2.264,2.264,0,0,1,.993-2.972,5.745,5.745,0,0,1-1.682-.534,6.2,6.2,0,0,1-1.075-1.466,2.357,2.357,0,0,1-2.577,1.953,2.306,2.306,0,0,1,.989,3.04" transform="translate(-134.499 -46.083)" fill="#ffe600"/>
  <path id="Path_16226" data-name="Path 16226" d="M179.925,277.383a2.368,2.368,0,0,0-3.185.023,5.894,5.894,0,0,0-.037-1.75,6.106,6.106,0,0,0-1.052-1.435,2.358,2.358,0,0,0,2.609-1.855,2.428,2.428,0,0,0,2.663,1.89,2.451,2.451,0,0,0-1,3.128" transform="translate(-146.879 -227.753)" fill="#ffe600"/>
  <path id="Path_16227" data-name="Path 16227" d="M176.3,75.157a2.305,2.305,0,0,0-.989-3.04,2.357,2.357,0,0,0,2.577-1.953,6.2,6.2,0,0,0,1.076,1.466,5.744,5.744,0,0,0,1.682.534,2.264,2.264,0,0,0-.993,2.972,6.179,6.179,0,0,0-1.692-.522,5.831,5.831,0,0,0-1.66.543" transform="translate(-146.597 -58.672)" fill="#ffe600"/>
  <rect id="Rectangle_4147" data-name="Rectangle 4147" width="62.758" height="62.668" fill="none"/>
</svg>
