<svg xmlns="http://www.w3.org/2000/svg" width="63.339" height="58.378" viewBox="0 0 63.339 58.378">
  <g id="Group_5068" data-name="Group 5068" transform="translate(0.2 0.45)">
    <path id="Path_629" data-name="Path 629" d="M1.6-258.618a2.028,2.028,0,0,0-1.338,1.129C0-256.961,0-256.876,0-244.663c0,8.383.037,12.4.135,12.63a2.792,2.792,0,0,0,1.117,1.215,60.429,60.429,0,0,0,9.659,0,2.442,2.442,0,0,0,1.264-2.234l.037-.381,5.278,2.013c2.909,1.092,5.634,2.111,6.063,2.246,1.338.417.442.528,18.484-2.087,1.89-.27,3.731-.577,4.1-.687a11.42,11.42,0,0,0,2.774-1.362c.528-.393,12.74-11.365,13.1-11.771a4.1,4.1,0,0,0,.442-4.038,4.263,4.263,0,0,0-1.8-1.8,4.436,4.436,0,0,0-2.688-.209,67.655,67.655,0,0,0-6.836,4.345L44.86-242.6l-1.289-.074-1.289-.061-.086-.736a5.591,5.591,0,0,0-4.517-4.848c-.368-.074-3.572-.381-7.119-.687l-6.444-.552-1.019-.417c-.565-.221-2.062-.97-3.351-1.657-3.154-1.694-4.173-2.074-6.456-2.357l-1.117-.147-.049-1.547c-.037-1.436-.061-1.583-.368-2.05-.614-.945-.7-.957-5.5-.982A46.39,46.39,0,0,0,1.6-258.618Zm8.567,1.853a15.261,15.261,0,0,1,.147,3.559v3.424l.307.295a1.011,1.011,0,0,0,.614.307,1.011,1.011,0,0,0,.614-.307c.282-.27.307-.38.307-1.534,0-1.436-.123-1.35,1.632-1.043a13.771,13.771,0,0,1,4.357,1.632,42,42,0,0,0,4.873,2.393c.761.27,1.571.368,7.487.884,3.645.307,6.91.651,7.266.749a3.756,3.756,0,0,1,2.59,3.105l.049.577-8.653.528c-4.75.295-8.837.5-9.07.454a2.382,2.382,0,0,1-.921-.5c-.835-.712-1.755-.466-1.755.454,0,.528.847,1.338,1.8,1.694.663.258.847.27,2.553.2,1.866-.074,6.652-.368,13.44-.81a40.359,40.359,0,0,1,5.56-.135,13.731,13.731,0,0,0,2.025.049c.11-.049,3.056-1.988,6.53-4.32,6.149-4.124,6.333-4.234,7-4.284a1.35,1.35,0,0,1,1.092.245,1.937,1.937,0,0,1,.81,2.479,80.13,80.13,0,0,1-6.174,5.818c-3.277,2.946-6.223,5.572-6.53,5.83a7.375,7.375,0,0,1-2.762,1.362c-.405.1-5.02.8-10.249,1.559-7.082,1.019-9.7,1.35-10.249,1.3-.7-.061-2.148-.589-11.415-4.124l-1.227-.479-.061-5.486-.061-5.486-.295-.233a.832.832,0,0,0-1.129,0l-.295.233-.061,6.922-.061,6.91H1.9l-.037-12.016c-.012-8.776.012-12.053.11-12.176A47.972,47.972,0,0,1,10.163-256.765Z" transform="translate(0 286.805)" fill="#178b49" stroke="#178b49" stroke-width="0.4"/>
    <path id="Path_630" data-name="Path 630" d="M24.087-110.76a4.286,4.286,0,0,0-1.448,1.006,3.315,3.315,0,0,0,.417,4.529,3.7,3.7,0,0,0,2.074.822,3.569,3.569,0,0,0,2.958-1.939,3.266,3.266,0,0,0-1.841-4.382A3.927,3.927,0,0,0,24.087-110.76Zm1.755,1.866a1.4,1.4,0,0,1,0,2.406,1.189,1.189,0,0,1-1.326.061,1.259,1.259,0,0,1-.736-1.264,1.079,1.079,0,0,1,.417-.957A1.322,1.322,0,0,1,25.842-108.895Z" transform="translate(-19.239 157.125)" fill="#178b49"/>
    <g id="reshot-icon-rupee-39XBSGM7DL" transform="translate(18.423 0)">
      <path id="Path_41321" data-name="Path 41321" d="M28.764,4.935A16.85,16.85,0,0,0,4.935,28.764,16.85,16.85,0,0,0,28.764,4.935Zm-.7,23.131A15.862,15.862,0,0,1,5.633,5.633,15.862,15.862,0,0,1,28.066,28.066Z" fill="#178b49" stroke="#178b49" stroke-width="0.9"/>
      <g id="Group_4156" data-name="Group 4156" transform="translate(2.638 2.638)" opacity="0">
        <path id="Path_41323" data-name="Path 41323" d="M241.3,41.077c.325-.012.655-.012.98,0h.018a.494.494,0,0,0,.018-.987c-.349-.013-.7-.013-1.052,0a.494.494,0,0,0,.036.987Z" transform="translate(-227.574 -40.081)" fill="#178b49"/>
        <path id="Path_41324" data-name="Path 41324" d="M41.077,242.268c-.006-.162-.009-.327-.009-.49s0-.328.009-.49a.494.494,0,1,0-.987-.036c-.006.175-.01.352-.01.526s0,.352.01.526a.494.494,0,0,0,.493.476H40.6A.494.494,0,0,0,41.077,242.268Z" transform="translate(-40.081 -227.566)" fill="#178b49"/>
        <path id="Path_41325" data-name="Path 41325" d="M242.27,456.779c-.325.012-.656.012-.981,0a.494.494,0,0,0-.036.987c.174.006.352.01.526.01s.352,0,.526-.01a.494.494,0,1,0-.036-.987Z" transform="translate(-227.568 -429.352)" fill="#178b49"/>
        <path id="Path_41326" data-name="Path 41326" d="M391.165,390.475c-.111.119-.225.238-.34.353s-.234.23-.353.34a.494.494,0,1,0,.672.723c.128-.119.255-.242.379-.365s.246-.251.365-.379a.494.494,0,1,0-.723-.672Z" transform="translate(-367.263 -367.266)" fill="#178b49"/>
        <path id="Path_41327" data-name="Path 41327" d="M390.829,96.962c.115.115.23.234.34.353a.494.494,0,1,0,.723-.672c-.119-.128-.241-.255-.365-.379s-.251-.246-.379-.365a.494.494,0,1,0-.672.723C390.6,96.733,390.714,96.847,390.829,96.962Z" transform="translate(-367.267 -92.102)" fill="#178b49"/>
        <path id="Path_41328" data-name="Path 41328" d="M96.644,95.9c-.128.119-.255.242-.379.365s-.247.251-.365.379a.494.494,0,1,0,.723.672c.11-.119.225-.237.34-.353s.234-.23.353-.34a.494.494,0,1,0-.672-.723Z" transform="translate(-92.102 -92.098)" fill="#178b49"/>
        <path id="Path_41329" data-name="Path 41329" d="M96.959,390.825c-.115-.115-.23-.234-.34-.353a.494.494,0,1,0-.723.672c.119.128.242.255.365.379s.251.247.379.365a.494.494,0,1,0,.672-.723C97.193,391.055,97.074,390.94,96.959,390.825Z" transform="translate(-92.098 -367.263)" fill="#178b49"/>
        <path id="Path_41330" data-name="Path 41330" d="M322.711,53.554c-.159-.073-.321-.143-.483-.21s-.326-.132-.49-.192a.494.494,0,1,0-.344.925c.152.057.306.117.456.179s.3.128.45.2a.494.494,0,0,0,.411-.9Z" transform="translate(-302.578 -52.261)" fill="#178b49"/>
        <path id="Path_41331" data-name="Path 41331" d="M53.442,163.558a.493.493,0,0,0,.635-.291c.056-.152.117-.305.179-.456s.128-.3.2-.449a.494.494,0,0,0-.9-.411c-.073.159-.143.321-.21.482s-.132.327-.192.49A.494.494,0,0,0,53.442,163.558Z" transform="translate(-52.262 -153.661)" fill="#178b49"/>
        <path id="Path_41332" data-name="Path 41332" d="M163.263,438.388c-.152-.057-.306-.117-.456-.179s-.3-.128-.45-.2a.494.494,0,0,0-.411.9c.158.073.321.143.483.21s.326.132.49.193a.494.494,0,0,0,.344-.925Z" transform="translate(-153.656 -411.779)" fill="#178b49"/>
        <path id="Path_41333" data-name="Path 41333" d="M439.022,321.1a.494.494,0,0,0-.635.29c-.057.153-.117.306-.179.456s-.128.3-.2.45a.494.494,0,1,0,.9.411c.073-.159.143-.321.21-.482s.132-.326.193-.49A.494.494,0,0,0,439.022,321.1Z" transform="translate(-411.779 -302.575)" fill="#178b49"/>
        <path id="Path_41334" data-name="Path 41334" d="M438.21,162.81c.062.151.123.3.179.456a.494.494,0,1,0,.925-.344c-.061-.164-.126-.328-.193-.49s-.138-.324-.21-.482a.494.494,0,1,0-.9.411C438.082,162.508,438.148,162.659,438.21,162.81Z" transform="translate(-411.781 -153.659)" fill="#178b49"/>
        <path id="Path_41335" data-name="Path 41335" d="M162.157,54.494a.492.492,0,0,0,.205-.045c.148-.068.3-.133.449-.2s.3-.122.456-.179a.494.494,0,1,0-.344-.925c-.164.061-.328.126-.49.192s-.324.137-.482.21a.494.494,0,0,0,.206.943Z" transform="translate(-153.661 -52.259)" fill="#178b49"/>
        <path id="Path_41336" data-name="Path 41336" d="M54.254,321.845c-.062-.151-.123-.3-.179-.456a.494.494,0,1,0-.925.344c.061.163.126.328.193.49s.138.324.21.482a.494.494,0,1,0,.9-.411C54.382,322.147,54.316,322,54.254,321.845Z" transform="translate(-52.26 -302.573)" fill="#178b49"/>
        <path id="Path_41337" data-name="Path 41337" d="M322.295,438.012c-.147.067-.3.133-.45.2s-.3.123-.457.179a.494.494,0,1,0,.344.925c.163-.061.328-.125.49-.193s.324-.138.483-.21a.494.494,0,0,0-.411-.9Z" transform="translate(-302.573 -411.779)" fill="#178b49"/>
        <path id="Path_41340" data-name="Path 41340" d="M457.765,241.258a.494.494,0,1,0-.987.036c.006.162.009.327.009.49s0,.328-.009.49a.494.494,0,0,0,.475.511h.018a.494.494,0,0,0,.493-.476c.006-.175.01-.352.01-.526S457.771,241.432,457.765,241.258Z" transform="translate(-429.352 -227.572)" fill="#178b49"/>
      </g>
      <g id="Group_11009" data-name="Group 11009" transform="translate(11.079 7.914)">
        <g id="Group_11857" data-name="Group 11857">
          <path id="Path_44184" data-name="Path 44184" d="M.875.726H11V2.6H8.09l.867,2.314H11l-.141,1.848-2.066.449L6.863,9.828,4.8,10.539l-1.623.415,6.338,7.357-2.48.1L.52,10.68V9.038H4.8l1.871-1.7.2-.888H.52V4.695H6.668L6.531,3.456,5.057,2.482H.715Z" fill="#fff"/>
          <path id="Path_41338" data-name="Path 41338" d="M178.726,138.878a.494.494,0,0,0-.081-.53l-5.881-6.616a5.8,5.8,0,0,0,4.793-4.17h1.828a.494.494,0,0,0,.494-.494v-2.11a.494.494,0,0,0-.494-.494h-1.828a5.63,5.63,0,0,0-.449-1.123h2.277a.494.494,0,0,0,.494-.494v-2.11a.494.494,0,0,0-.494-.494h-1.055a.494.494,0,0,0,0,.987h.562v1.123h-2.682a.494.494,0,0,0-.394.791,4.725,4.725,0,0,1,.869,1.912.494.494,0,0,0,.484.4h1.723v1.123h-1.723a.494.494,0,0,0-.484.4A4.8,4.8,0,0,1,172,130.8h-.288a.494.494,0,0,0-.369.822l5.835,6.565h-1.5l-6.348-7.141v-1.369H172a3.667,3.667,0,0,0,3.446-2.439.494.494,0,0,0-.465-.659h-5.653v-1.123h5.653a.494.494,0,0,0,.465-.659A3.667,3.667,0,0,0,172,122.353h-2.672V121.23h6.893a.494.494,0,1,0,0-.987h-7.387a.494.494,0,0,0-.494.494v2.11a.494.494,0,0,0,.494.494H172a2.674,2.674,0,0,1,2.172,1.123h-5.338a.494.494,0,0,0-.494.494v2.11a.494.494,0,0,0,.494.494h5.338A2.674,2.674,0,0,1,172,128.685h-3.166a.494.494,0,0,0-.494.494v2.05a.494.494,0,0,0,.125.328l6.62,7.447a.494.494,0,0,0,.369.166h2.823A.494.494,0,0,0,178.726,138.878Z" transform="translate(-168.338 -120.243)" fill="#178b49"/>
        </g>
      </g>
    </g>
  </g>
</svg>
