<svg id="Group_11010" data-name="Group 11010" xmlns="http://www.w3.org/2000/svg" width="54.493" height="62.778" viewBox="0 0 54.493 62.778">
  <path id="Path_41816" data-name="Path 41816" d="M135.745-511.455a17.877,17.877,0,0,0-7.019,2.786,17.287,17.287,0,0,0-6.995,10.737,21.228,21.228,0,0,0,.012,6.172,16.79,16.79,0,0,0,11.289,12.823,14.92,14.92,0,0,0,5.767.761,15.388,15.388,0,0,0,8.713-2.749,17.241,17.241,0,0,0,7.019-9.989,20.152,20.152,0,0,0,.245-6.614,16.909,16.909,0,0,0-13.339-13.805A21.6,21.6,0,0,0,135.745-511.455Zm5.436,1.951a15.131,15.131,0,0,1,11.523,10.97,10.32,10.32,0,0,1,.331,3.645,10.638,10.638,0,0,1-.319,3.632,15,15,0,0,1-10.86,10.86,16.89,16.89,0,0,1-6.136.233,14.7,14.7,0,0,1-7.755-3.914,14.874,14.874,0,0,1-2.16-19.045,15.3,15.3,0,0,1,10.124-6.491A18.817,18.817,0,0,1,141.181-509.5Z" transform="translate(-110.774 511.589)" fill="#178b49"/>
  <path id="Path_41817" data-name="Path 41817" d="M169.08-473.569a13.214,13.214,0,0,0-3.436,1.264,8.205,8.205,0,0,0-2.528,2.013.871.871,0,0,0,.466,1.092c.5.209.749.11,1.657-.626a12.61,12.61,0,0,1,3.657-1.828,12.711,12.711,0,0,1,4.418-.147,10.264,10.264,0,0,1,7.436,5.669,10.3,10.3,0,0,1,.221,8.43,11,11,0,0,1-4.258,4.872,10.329,10.329,0,0,1-14.431-4.356,8.654,8.654,0,0,1-.982-4.467,8.491,8.491,0,0,1,.859-4.283c.491-1.055.5-1.215.16-1.657a.839.839,0,0,0-1.374.049,10.736,10.736,0,0,0-1.276,3.166,15.34,15.34,0,0,0,.061,5.6,12.187,12.187,0,0,0,12.946,9.142,11.378,11.378,0,0,0,4.2-1.215,12.119,12.119,0,0,0,6.307-14.087,12.158,12.158,0,0,0-3.264-5.436,12.247,12.247,0,0,0-5.436-3.068A14.056,14.056,0,0,0,169.08-473.569Z" transform="translate(-144.047 478.415)" fill="#178b49"/>
  <g id="Group_11022" data-name="Group 11022" transform="translate(0 7.332)">
    <path id="Path_41819" data-name="Path 41819" d="M75.3-451.612a1,1,0,0,0-.025,1.264,11.71,11.71,0,0,0,2.614,1.068.994.994,0,0,0,.847-.908c0-.54-.344-.822-1.558-1.289C76-451.919,75.63-451.944,75.3-451.612Z" transform="translate(-70.022 451.838)" fill="#fff"/>
    <path id="Path_41820" data-name="Path 41820" d="M408.509-451.409c-1.215.479-1.509.724-1.509,1.264a1,1,0,0,0,.847.908,11.38,11.38,0,0,0,2.614-1.068.984.984,0,0,0-.024-1.264C410.1-451.9,409.687-451.863,408.509-451.409Z" transform="translate(-361.226 451.793)" fill="#fff"/>
    <path id="Path_41821" data-name="Path 41821" d="M34.265-379.718a.864.864,0,0,0,.049,1.3c.307.245.479.258,3.3.258,3.313,0,3.424-.025,3.571-.822a.635.635,0,0,0-.233-.7L40.634-380H37.579C34.548-380,34.523-380,34.265-379.718Z" transform="translate(-33.995 388.815)" fill="#fff"/>
    <path id="Path_41822" data-name="Path 41822" d="M419.462-379.681a.635.635,0,0,0-.233.7c.147.8.258.822,3.571.822,2.822,0,2.994-.012,3.3-.258a.853.853,0,0,0,.037-1.313c-.282-.258-.368-.27-3.326-.27h-3.031Z" transform="translate(-371.934 388.815)" fill="#fff"/>
    <path id="Path_41823" data-name="Path 41823" d="M76.561-313.51a6.687,6.687,0,0,0-1.252.626.926.926,0,0,0,.528,1.546,10.422,10.422,0,0,0,2.675-1.068.92.92,0,0,0-.65-1.5A6.742,6.742,0,0,0,76.561-313.51Z" transform="translate(-70.02 330.829)" fill="#fff"/>
    <path id="Path_41824" data-name="Path 41824" d="M407.308-313.718a.909.909,0,0,0-.049,1.227,10.419,10.419,0,0,0,2.675,1.068.924.924,0,0,0,.515-1.559,8.9,8.9,0,0,0-2.6-1.018A.9.9,0,0,0,407.308-313.718Z" transform="translate(-361.266 330.915)" fill="#fff"/>
  </g>
  <path id="Path_41825" data-name="Path 41825" d="M338.686-265.659c-1.3,1.239-6.393,6.823-6.467,7.093a.693.693,0,0,0,.16.65c.233.307.319.331,1.362.368l1.117.037.037,3.006.037,3.019.344.294a.734.734,0,0,0,1.117.037l.319-.245v-3.718c0-4.16.025-4.013-.9-4.209l-.454-.1,1.976-2.123c1.092-1.166,2.025-2.1,2.062-2.086s.982.994,2.086,2.147c1.767,1.878,1.963,2.123,1.681,2.123a1.419,1.419,0,0,0-1.1.552c-.037.11-.074,5.473-.074,11.915v11.707H336.71v-6.688c0-6.528,0-6.688-.245-6.933a.88.88,0,0,0-1.46.38c-.184.528-.184,13.94-.012,14.419.258.65.258.65,4.393.663h3.841l.294-.307.307-.294v-23.573h1.1c.945,0,1.141-.037,1.35-.245.43-.43.319-.9-.393-1.681-1.706-1.9-6.013-6.406-6.185-6.467A.868.868,0,0,0,338.686-265.659Z" transform="translate(-295.602 296.127)" fill="#178b49"/>
  <path id="Path_41826" data-name="Path 41826" d="M205.378-217.373c-1.166,1.153-5.964,6.332-6.111,6.59a.7.7,0,0,0,.147.994c.27.282.393.307,1.35.307h1.043v8.639c0,5.682.049,8.762.123,8.983.258.65.258.65,4.393.663h3.841l.294-.307.307-.294v-17.683h1.1c1.276,0,1.6-.184,1.6-.9,0-.368-.344-.785-3.35-3.964C206.237-218.453,206.385-218.367,205.378-217.373Zm3.031,3.9,1.963,2.086-.515.086c-.994.184-.933-.491-.933,9.437v8.823h-5.277v-8.872c0-8.737,0-8.884-.245-9.105a1.538,1.538,0,0,0-.687-.294l-.442-.074,1.988-2.123a23.4,23.4,0,0,1,2.086-2.086C206.409-215.569,207.329-214.624,208.409-213.47Z" transform="translate(-178.861 253.976)" fill="#178b49"/>
  <path id="Path_41827" data-name="Path 41827" d="M70.217-163.158c-4.319,4.589-4.123,4.356-4.037,4.81.123.65.454.81,1.608.81h1.019l.049,1.853.037,1.853.344.294a.74.74,0,0,0,1.153,0l.344-.294.037-2c.074-3.006-.086-3.546-1.019-3.546-.233,0-.429-.037-.429-.074,0-.074,3.878-4.184,4-4.246a28.515,28.515,0,0,1,2.086,2.111l2.012,2.147-.515.074c-.994.135-.957-.123-.957,6.258v5.633H70.794l-.012-1.448c0-1.657-.147-2.233-.614-2.405A.862.862,0,0,0,69-150.85a17.128,17.128,0,0,0-.049,4.553c.258.65.258.65,4.393.663h3.841l.295-.307.307-.294v-11.3h1.031c1.239,0,1.669-.233,1.669-.933,0-.368-.295-.736-3.08-3.694-3.73-3.988-3.583-3.841-4.086-3.841C72.941-166.005,72.684-165.76,70.217-163.158Z" transform="translate(-62.205 208.413)" fill="#178b49"/>
  <g id="Group_11858" data-name="Group 11858" transform="translate(23.298 10.2)">
    <path id="Path_44184" data-name="Path 44184" d="M.773.726H8V2.065H5.926l.619,1.653H8l-.1,1.32-1.476.321L5.05,7.226l-1.476.508-1.159.3,4.526,5.254-1.771.071L.52,7.835V6.662H3.574L4.911,5.445l.139-.634H.52V3.56H4.911l-.1-.885L3.76,1.98H.659Z" transform="translate(-0.148 -0.207)" fill="#fff"/>
    <path id="Path_41338" data-name="Path 41338" d="M175.757,133.551a.352.352,0,0,0-.058-.379l-4.2-4.725a4.139,4.139,0,0,0,3.423-2.978h1.306a.353.353,0,0,0,.353-.353V123.61a.352.352,0,0,0-.353-.353h-1.306a4.021,4.021,0,0,0-.321-.8h1.626a.353.353,0,0,0,.353-.353V120.6a.352.352,0,0,0-.353-.353h-.754a.353.353,0,0,0,0,.705h.4v.8H173.96a.352.352,0,0,0-.282.565,3.375,3.375,0,0,1,.621,1.365.353.353,0,0,0,.345.282h1.231v.8h-1.231a.353.353,0,0,0-.345.282,3.426,3.426,0,0,1-3.347,2.732h-.206a.353.353,0,0,0-.263.587l4.167,4.688h-1.073l-4.533-5.1v-.977h1.908a2.619,2.619,0,0,0,2.461-1.742.352.352,0,0,0-.332-.471h-4.037v-.8h4.037a.353.353,0,0,0,.332-.471,2.619,2.619,0,0,0-2.461-1.742h-1.908v-.8h4.923a.353.353,0,1,0,0-.705h-5.275a.353.353,0,0,0-.353.353V122.1a.353.353,0,0,0,.353.353h2.261a1.91,1.91,0,0,1,1.551.8h-3.812a.353.353,0,0,0-.353.353v1.507a.353.353,0,0,0,.353.353H172.5a1.91,1.91,0,0,1-1.551.8h-2.261a.353.353,0,0,0-.353.353v1.464a.353.353,0,0,0,.089.234l4.728,5.318a.353.353,0,0,0,.263.118h2.016A.353.353,0,0,0,175.757,133.551Z" transform="translate(-168.338 -120.243)" fill="#178b49"/>
  </g>
</svg>
