<svg xmlns="http://www.w3.org/2000/svg" width="22.579" height="22.579" viewBox="0 0 22.579 22.579"><defs><style>.a{fill:#080808;}</style></defs><path class="a" d="M10.742-511.827a11.468,11.468,0,0,0-5.961,2.375,13.019,13.019,0,0,0-2.623,2.923,15.4,15.4,0,0,0-1.016,2.08,13.722,13.722,0,0,0-.565,2.2,13.762,13.762,0,0,0,0,3.356A11.143,11.143,0,0,0,1.624-495.6a10.48,10.48,0,0,0,2.159,3.007,10.479,10.479,0,0,0,3.007,2.159,11.143,11.143,0,0,0,3.289,1.046,13.762,13.762,0,0,0,3.356,0,13.722,13.722,0,0,0,2.2-.565,15.4,15.4,0,0,0,2.08-1.016,12.216,12.216,0,0,0,3.638-3.638,15.4,15.4,0,0,0,1.016-2.08,11.956,11.956,0,0,0,.671-3.351c.035-.68,0-.843-.216-1.091a.835.835,0,0,0-1.439.384,2.882,2.882,0,0,0-.049.539,9.72,9.72,0,0,1-.287,2,9.627,9.627,0,0,1-6.928,6.928,9.827,9.827,0,0,1-4.751,0,9.618,9.618,0,0,1-7.126-8.045,11.737,11.737,0,0,1,0-2.49,9.623,9.623,0,0,1,7.126-8.045,9.605,9.605,0,0,1,2.022-.291c.631,0,.954-.15,1.117-.5a.826.826,0,0,0-.424-1.135A3.4,3.4,0,0,0,10.742-511.827Z" transform="translate(-0.475 511.865)"/><path class="a" d="M137.832-447.563a1.151,1.151,0,0,0-.243.093c-.062.031-2.424,2.367-5.254,5.192l-5.144,5.131-1.28-1.391c-2.371-2.583-2.495-2.711-2.707-2.8a.813.813,0,0,0-1.064.371.92.92,0,0,0-.009.777c.075.146,1.347,1.545,3.749,4.133.8.865.971,1,1.289,1,.371,0,.3.066,6.058-5.682,5.952-5.943,5.682-5.651,5.634-6.084A.872.872,0,0,0,137.832-447.563Z" transform="translate(-116.681 450.423)"/></svg>