<svg xmlns="http://www.w3.org/2000/svg" width="108" height="108" viewBox="0 0 108 108"><defs><style>.a{fill:#ffe041;}.b{fill:#178b49;}.c{fill:#fff;}</style></defs><g transform="translate(-91 -40)"><g transform="translate(91.005 12)"><g transform="translate(0 28)"><circle class="a" cx="54" cy="54" r="54" transform="translate(-0.005)"/></g></g><g transform="translate(121.075 581.996)"><path class="b" d="M298.289-511.8a.586.586,0,0,0-.245.556c0,.518.32.754,1.027.754a14.924,14.924,0,0,1,6.718,1.847,14.481,14.481,0,0,1,7.113,9.977,17.75,17.75,0,0,1-.047,5.286,14.478,14.478,0,0,1-9.478,10.825,14.763,14.763,0,0,1-6.36.65l-.311-.047.678-.481a3.2,3.2,0,0,0,.782-.707.776.776,0,0,0-.339-.914c-.358-.264-.509-.188-2.167.989-1.451,1.027-1.686,1.3-1.517,1.743.047.122.546.867,1.1,1.639,1.074,1.5,1.244,1.63,1.752,1.413a.853.853,0,0,0,.48-.707,3.371,3.371,0,0,0-.433-.754,3.415,3.415,0,0,1-.4-.66,10.087,10.087,0,0,1,1.065.066,16.026,16.026,0,0,0,8.084-1.621,14.23,14.23,0,0,0,4.127-3.005,15.258,15.258,0,0,0,4.381-8.093,15.893,15.893,0,0,0-6.689-16.243,16.343,16.343,0,0,0-7.17-2.619C299.109-512.053,298.581-512.025,298.289-511.8Z" transform="translate(-266.456 0)"/><path class="b" d="M241.143-455.582a10.916,10.916,0,0,0-5.8,2.921,10.6,10.6,0,0,0-1.4,13.473,14.7,14.7,0,0,0,2.911,2.911,10.235,10.235,0,0,0,5.841,1.734,10.03,10.03,0,0,0,7.2-2.855,10.528,10.528,0,0,0,1.376-13.84A10.691,10.691,0,0,0,245.1-455.4,15.081,15.081,0,0,0,241.143-455.582Zm3.081,1.555a9.128,9.128,0,0,1,7.245,6.727,11.058,11.058,0,0,1,0,4.381,9.21,9.21,0,0,1-2.44,4.277,8.982,8.982,0,0,1-12.691-.009,9.032,9.032,0,0,1-2.374-8.762A9.029,9.029,0,0,1,244.224-454.028Z" transform="translate(-210.346 -51.044)"/><path class="b" d="M14.488-191.723a23.2,23.2,0,0,0-4.2,1.658l-1.573.773-.462-.443a2.628,2.628,0,0,0-.839-.556,36.487,36.487,0,0,0-5.917,0A2.8,2.8,0,0,0,.045-188.84c-.16.556-.16,11.391,0,11.947A2.8,2.8,0,0,0,1.5-175.443a31.8,31.8,0,0,0,5.992-.038A2.429,2.429,0,0,0,9-177.5c.028-.217.085-.236,1.536-.49a21.058,21.058,0,0,1,2.5-.283l.989-.028.707.377c.386.207,1.234.754,1.884,1.206,3.627,2.572,5.059,3.166,6.689,2.789,1.385-.32,6.218-2.619,10.976-5.229,3.25-1.781,8.037-4.522,8.423-4.833a2.642,2.642,0,0,0,.3-3.7,2.348,2.348,0,0,0-2.12-.81c-.707.028-1.178.179-6.105,1.894-2.94,1.018-5.37,1.856-5.417,1.856a1.054,1.054,0,0,1-.254-.452c-.367-.867-.9-1.253-3.825-2.77-5.295-2.732-8.272-3.948-9.648-3.929A5.129,5.129,0,0,0,14.488-191.723Zm2.657,1.658A75.859,75.859,0,0,1,27.33-185.09a1.479,1.479,0,0,1-.2,2.355,1.185,1.185,0,0,1-.8.2c-.518-.009-.622-.057-3.081-1.489-2-1.168-2.591-1.47-2.779-1.432a.958.958,0,0,0-.66.754.775.775,0,0,0,.217.452,50.378,50.378,0,0,0,5.436,3.109,3.022,3.022,0,0,0,3.59-1.583.734.734,0,0,1,.386-.452c.122-.019,2.676-.9,5.672-1.941,5.53-1.922,5.954-2.035,6.491-1.79a1.081,1.081,0,0,1,.236,1.649c-.358.358-7.82,4.56-11.739,6.623a37.809,37.809,0,0,1-7.415,3.279c-.9.122-2.3-.546-4.777-2.289a16.533,16.533,0,0,0-3.175-1.941,8.875,8.875,0,0,0-4.089.056c-.82.132-1.526.245-1.573.245A37.01,37.01,0,0,1,9-183.507l.028-4.211,1.828-.914a22.548,22.548,0,0,1,3.919-1.639A4.127,4.127,0,0,1,17.145-190.065Zm-9.911,1.4.236.226V-177.3l-.236.226-.226.236H1.9l-.226-.236L1.44-177.3v-11.136l.236-.226L1.9-188.9H7.008Z" transform="translate(0 -289.936)"/><path class="b" d="M32.236-63.764a.734.734,0,0,0-.236.518.734.734,0,0,0,.236.518.734.734,0,0,0,.518.236.744.744,0,0,0,.518-1.272A.734.734,0,0,0,32.754-64,.734.734,0,0,0,32.236-63.764Z" transform="translate(-29.053 -405.788)"/><g transform="translate(29.748 -501.6)"><g transform="translate(0 0)"><path class="b" d="M173.972,131.068h-1.609a.351.351,0,0,1-.262-.118l-3.773-4.245a.35.35,0,0,1-.089-.233V125.3a.351.351,0,0,1,.35-.35h1.8a1.455,1.455,0,0,0,1.1-.5h-2.9a.351.351,0,0,1-.35-.35v-1.2a.351.351,0,0,1,.35-.35h2.9a1.455,1.455,0,0,0-1.1-.5h-1.8a.351.351,0,0,1-.35-.35v-1.2a.351.351,0,0,1,.35-.35h4.21a.35.35,0,0,1,0,.7h-3.86v.5h1.454a2.159,2.159,0,0,1,2.029,1.436.35.35,0,0,1-.33.468H168.94v.5h3.153a.35.35,0,0,1,.33.468,2.159,2.159,0,0,1-2.029,1.436H168.94v.685l3.58,4.027h.671l-3.224-3.627a.35.35,0,0,1,.262-.583h.164a2.665,2.665,0,0,0,2.6-2.125.352.352,0,0,1,.343-.28h.913v-.5h-.913a.352.352,0,0,1-.343-.28,2.625,2.625,0,0,0-.483-1.062.35.35,0,0,1,.28-.561h1.46v-.5H174a.35.35,0,1,1,0-.7h.6a.351.351,0,0,1,.35.35v1.2a.351.351,0,0,1-.35.35h-1.185a3.286,3.286,0,0,1,.2.5h.99a.351.351,0,0,1,.35.35v1.2a.351.351,0,0,1-.35.35h-.99a3.356,3.356,0,0,1-2.648,2.356l3.268,3.676a.35.35,0,0,1-.262.583Zm-5.382-5.976a.212.212,0,0,0-.212.212v1.168a.212.212,0,0,0,.054.141l3.773,4.245a.212.212,0,0,0,.159.071h1.609a.212.212,0,0,0,.159-.353l-3.438-3.868.129-.017a3.219,3.219,0,0,0,2.674-2.327l.014-.051H174.6a.213.213,0,0,0,.212-.212v-1.2a.213.213,0,0,0-.212-.212h-1.095l-.014-.051a3.153,3.153,0,0,0-.25-.626l-.054-.1H174.6a.213.213,0,0,0,.212-.212v-1.2a.213.213,0,0,0-.212-.212H174a.212.212,0,0,0,0,.425h.389v.778h-1.6a.212.212,0,0,0-.169.34,2.761,2.761,0,0,1,.508,1.118.213.213,0,0,0,.208.17h1.051v.778H173.34a.213.213,0,0,0-.208.17,2.8,2.8,0,0,1-2.739,2.236h-.164a.212.212,0,0,0-.159.353l3.428,3.857h-1.041l-3.656-4.113v-.875h1.592a2.021,2.021,0,0,0,1.9-1.344.212.212,0,0,0-.2-.283H168.8v-.778h3.291a.212.212,0,0,0,.2-.283,2.021,2.021,0,0,0-1.9-1.344H168.8v-.778h4a.212.212,0,1,0,0-.425h-4.21a.212.212,0,0,0-.212.212v1.2a.212.212,0,0,0,.212.212h1.8a1.594,1.594,0,0,1,1.295.669l.078.109h-3.177a.212.212,0,0,0-.212.212v1.2a.212.212,0,0,0,.212.212h3.177l-.078.109a1.594,1.594,0,0,1-1.295.669Z" transform="translate(-168.239 -120.143)"/><path class="c" d="M13.444,20.7H19.47v1.515H17.44l.759,1.219H19.47l-.539.91h-.9L17.058,26.2,15,26.942l3.486,4.094H17.058l-3.811-4.094.379-1.148h2.35l1.081-1.1-3.432-.174V23.26h3.063l-.228-1.046-2.6-.188h-.615Z" transform="translate(-13.005 -20.593)"/><path class="b" d="M174.259,130.864a.281.281,0,0,0-.046-.3l-3.352-3.771a3.3,3.3,0,0,0,2.732-2.377h1.042a.281.281,0,0,0,.281-.281v-1.2a.281.281,0,0,0-.281-.281h-1.042a3.207,3.207,0,0,0-.256-.64h1.3a.281.281,0,0,0,.281-.281v-1.2a.281.281,0,0,0-.281-.281h-.6a.281.281,0,1,0,0,.563h.32v.64h-1.529a.281.281,0,0,0-.225.451,2.693,2.693,0,0,1,.5,1.09.281.281,0,0,0,.276.225h.982v.64h-.982a.281.281,0,0,0-.276.225,2.734,2.734,0,0,1-2.671,2.181h-.164a.281.281,0,0,0-.21.468l3.326,3.742h-.856L168.9,126.4v-.78h1.523a2.09,2.09,0,0,0,1.964-1.39.281.281,0,0,0-.265-.376H168.9v-.64h3.222a.281.281,0,0,0,.265-.376,2.09,2.09,0,0,0-1.964-1.39H168.9v-.64h3.929a.281.281,0,1,0,0-.563h-4.21a.281.281,0,0,0-.281.281v1.2a.281.281,0,0,0,.281.281h1.8a1.524,1.524,0,0,1,1.238.64H168.62a.281.281,0,0,0-.281.281v1.2a.281.281,0,0,0,.281.281h3.043a1.524,1.524,0,0,1-1.238.64h-1.8a.281.281,0,0,0-.281.281V126.5a.281.281,0,0,0,.071.187l3.773,4.245a.282.282,0,0,0,.21.094H174A.281.281,0,0,0,174.259,130.864Z" transform="translate(-168.271 -120.174)"/></g></g></g></g></svg>