<svg xmlns="http://www.w3.org/2000/svg" width="108" height="108" viewBox="0 0 108 108"><defs><style>.a{fill:#ffe041;}.b{fill:#018837;}.c{fill:#fff;stroke:#3b8641;}.d{stroke:none;}.e{fill:none;}</style></defs><g transform="translate(0.005 -28)"><g transform="translate(0 28)"><circle class="a" cx="54" cy="54" r="54" transform="translate(-0.005)"/><g transform="translate(-697.837 -780.457)"><g transform="translate(722.832 1270.056)"><path class="b" d="M27.4-458.531c-1.846.182-2.814.422-3.1.741a.66.66,0,0,0-.137.9c.216.456.581.5,1.914.262a20.72,20.72,0,0,1,5.993-.023,18,18,0,0,1,10.4,5.742c1.31,1.481,1.265,1.322.763,2.5-.672,1.561-.6,1.493-.923.923a13,13,0,0,0-2.131-2.45,15.378,15.378,0,0,0-16.042-3.806,14.881,14.881,0,0,0-6.039,3.862,11.49,11.49,0,0,0-2.074,2.393c-.33.57-.262.638-.934-.934l-.433-.991.33-.49a24.845,24.845,0,0,1,3.749-3.635c.5-.353,1.322-.855,1.823-1.128,1.151-.6,1.424-.855,1.424-1.265a1.006,1.006,0,0,0-.82-.889,11.226,11.226,0,0,0-2.883,1.538,20.323,20.323,0,0,0-3.589,3.111l-.957,1.037-.376-.33a2.885,2.885,0,0,0-2.837-.353,10.577,10.577,0,0,0-1.686,1.333,15.636,15.636,0,0,1-1.777,1.436,6,6,0,0,0-2.791,6.164c.137.809.365,1.344,1.732,4.1l1.561,3.156-.137.547c-.513,1.914-.57,2.039-.968,2.119-.786.148-.8.194-3.714,8.6C1.231-420.02,0-416.363,0-416.238a1.04,1.04,0,0,0,.832.775.944.944,0,0,0,.524-.205c.182-.137.968-2.29,2.871-7.77,1.447-4.17,2.666-7.622,2.712-7.668.08-.08,3.031.9,6.711,2.2.194.08.365.194.365.251s-1.185,3.521-2.621,7.668-2.621,7.645-2.621,7.771a.832.832,0,0,0,1.242.672c.3-.159.49-.649,2.575-6.677l2.256-6.506.581.558a20.062,20.062,0,0,0,9.981,5.287,15.194,15.194,0,0,0,3.76.251,14.923,14.923,0,0,0,3.737-.251c2.472-.535,4.261-1.231,4.466-1.72a.832.832,0,0,0-.741-1.151,7.642,7.642,0,0,0-1.242.387,21.977,21.977,0,0,1-2.4.706,12.307,12.307,0,0,1-3.76.319,15.12,15.12,0,0,1-5.811-.854,18.471,18.471,0,0,1-7.383-4.82l-.536-.615.171-.479a1.643,1.643,0,0,0-.114-1.652c-.3-.422-.3-.433-.1-.923.1-.273.216-.5.262-.5a8.015,8.015,0,0,1,.684.934,15.839,15.839,0,0,0,9.81,6.437,20.643,20.643,0,0,0,5.925,0,16.048,16.048,0,0,0,8.283-4.557,20.919,20.919,0,0,0,1.527-1.88,8.015,8.015,0,0,1,.684-.934c.046,0,.16.228.262.5.194.49.194.5-.1.923a1.643,1.643,0,0,0-.114,1.652l.171.479-.547.615a17.546,17.546,0,0,1-1.447,1.379c-1.789,1.527-1.869,1.663-1.413,2.245.5.638,1.082.376,3.076-1.424l.98-.889,2.256,6.494c2.085,6.016,2.279,6.506,2.575,6.665a.832.832,0,0,0,1.242-.672c0-.125-1.174-3.612-2.621-7.771s-2.621-7.6-2.621-7.668.216-.194.49-.285c3.737-1.322,6.517-2.233,6.586-2.165.046.057,1.265,3.5,2.712,7.668,1.891,5.48,2.689,7.634,2.871,7.77a.944.944,0,0,0,.524.205,1.04,1.04,0,0,0,.832-.775c0-.125-1.231-3.783-2.746-8.124-2.917-8.409-2.928-8.454-3.714-8.6-.4-.08-.456-.205-.968-2.119l-.137-.547,1.561-3.156a40.489,40.489,0,0,0,1.686-3.737,7.175,7.175,0,0,0-.068-2.962,6.142,6.142,0,0,0-2.678-3.566,14.437,14.437,0,0,1-1.777-1.436,10.578,10.578,0,0,0-1.686-1.333,2.885,2.885,0,0,0-2.837.353l-.376.319-1.105-1.174a19.131,19.131,0,0,0-8.295-5.309A20.6,20.6,0,0,0,27.4-458.531Zm4.238,5.879a13.745,13.745,0,0,1,7.178,3.714l.82.809-.513.342a3.623,3.623,0,0,0-1.322,4.273,2.771,2.771,0,0,1,.194.592c-.023,0-.57-.125-1.219-.273a35.953,35.953,0,0,0-16.179.216l-.308.08.228-.6a3.6,3.6,0,0,0-1.287-4.261l-.547-.365.889-.843A13.67,13.67,0,0,1,31.64-452.652ZM12.328-450.1a11.827,11.827,0,0,1,1.344,2.7c1.094,2.564,1.436,3.11,1.983,3.11.422,0,.809-.387,1.322-1.344a8.855,8.855,0,0,1,.57-.968c.125-.137.672.171,1.071.592a1.333,1.333,0,0,1,.387,1c.046.638-.057.9-2.655,7.44-1.481,3.726-2.712,6.791-2.723,6.813s-1.174-.376-2.552-.855a11.792,11.792,0,0,1-2.529-1.037c0-.08.182-.775.4-1.538s.4-1.447.4-1.538S8.6-437.4,7.691-439.253c-1.789-3.657-1.96-4.159-1.766-5.321a5.44,5.44,0,0,1,.33-1.128,5.148,5.148,0,0,1,1.88-1.994,12.813,12.813,0,0,0,1.607-1.287c.57-.524,1.151-1.048,1.31-1.151A1.113,1.113,0,0,1,12.328-450.1Zm34.853-.1a15.262,15.262,0,0,1,1.333,1.139,12.769,12.769,0,0,0,1.7,1.367,4.917,4.917,0,0,1,1.971,2.245,4.952,4.952,0,0,1,.08,2.814c-.1.251-.866,1.869-1.72,3.612s-1.55,3.213-1.55,3.3.182.775.4,1.538.4,1.458.4,1.538a10.579,10.579,0,0,1-2.529,1.037c-1.39.479-2.529.866-2.552.855s-1.242-3.088-2.723-6.813c-2.643-6.643-2.826-7.2-2.621-7.873.16-.547,1.208-1.39,1.424-1.162a8.855,8.855,0,0,1,.57.968c.513.957.9,1.344,1.322,1.344.547,0,.889-.547,1.983-3.11a11.826,11.826,0,0,1,1.344-2.7A1.119,1.119,0,0,1,47.181-450.2Zm-15.712,7.964a16.194,16.194,0,0,1,2.108.239,2.537,2.537,0,0,1,1.265,1.458,4.365,4.365,0,0,1,.137,1.105,17.794,17.794,0,0,1-.672,4.068,3.8,3.8,0,0,1-1.527,1.6c-.467.239-.581.251-3.612.251s-3.145-.011-3.612-.251a3.8,3.8,0,0,1-1.527-1.6,17.794,17.794,0,0,1-.672-4.068,2.787,2.787,0,0,1,.649-2.005c.479-.547.832-.661,2.541-.786A30.859,30.859,0,0,1,31.469-442.238Zm-9.48.706c0,.023-.08.285-.182.6a9.074,9.074,0,0,0,.057,3.7,15.524,15.524,0,0,1,.194,1.561c-.023.034-4.307-.547-4.364-.592-.034-.023,1.766-4.512,1.834-4.592A16.2,16.2,0,0,1,21.99-441.532Zm15.666.319a6.277,6.277,0,0,1,1.06.33,46.369,46.369,0,0,1,1.926,4.626c-.046.046-4.341.627-4.364.592-.023-.011.068-.7.182-1.5a9.443,9.443,0,0,0,.057-3.771c-.205-.684-.205-.638.034-.57C36.653-441.486,37.155-441.349,37.656-441.213Zm-17.683,7.007,2.905.41.706.672.706.684L25-429.112c.387,1.834.672,3.35.627,3.373a10.09,10.09,0,0,1-2.37-.843,14.391,14.391,0,0,1-6.426-6.255l-.285-.57.228-.6a3.386,3.386,0,0,1,.262-.592C17.056-434.6,18.378-434.422,19.973-434.205Zm21.591.194.228.6-.285.57a14.391,14.391,0,0,1-6.426,6.255,10.09,10.09,0,0,1-2.37.843c-.046-.023.239-1.538.627-3.373l.706-3.327.706-.684.706-.672,2.746-.4c1.515-.205,2.848-.387,2.951-.4C41.279-434.6,41.416-434.422,41.564-434.012ZM32.1-431.505c-.034.148-.33,1.538-.649,3.11a15.084,15.084,0,0,1-.775,2.985,3.752,3.752,0,0,1-1.5.148,3.752,3.752,0,0,1-1.5-.148,15.083,15.083,0,0,1-.775-2.985c-.319-1.572-.615-2.962-.649-3.11l-.057-.251h5.97Z" transform="translate(0 0)"/><path class="b" d="M234.811-301.655a2.625,2.625,0,0,0-1.493,1.344,2.428,2.428,0,0,0,.513,2.962,2.462,2.462,0,0,0,3.623,0,2.487,2.487,0,0,0,.387-3.19A2.648,2.648,0,0,0,234.811-301.655Zm1.208,1.675a.865.865,0,0,1,.251,1.413.9.9,0,0,1-1.538-.592.906.906,0,0,1,.513-.809A.684.684,0,0,1,236.019-299.98Z" transform="translate(-206.475 -138.943)"/></g><g class="c" transform="translate(749 829)"><circle class="d" cx="3" cy="3" r="3"/><circle class="e" cx="3" cy="3" r="2.5"/></g></g></g></g></svg>