<svg xmlns="http://www.w3.org/2000/svg" width="108" height="108" viewBox="0 0 108 108"><defs><style>.a{fill:#ffe041;}.b{fill:#fff;}.c{fill:#018837;}</style></defs><g transform="translate(0.005 -28)"><g transform="translate(0 28)"><circle class="a" cx="54" cy="54" r="54" transform="translate(-0.005)"/><g transform="translate(-1014.479 -780.561)"><path class="b" d="M16.562,3239l.239,14.994s4.819-5.051,4.106-8.6S16.562,3239,16.562,3239Z" transform="translate(1052 -2411)"/><path class="b" d="M16.562,3239l.274,14.994s5.532-5.051,4.714-8.6S16.562,3239,16.562,3239Z" transform="translate(1084.196 4081.987) rotate(180)"/><g transform="translate(1002.734 1306.234)"><path class="c" d="M89.1-495.564a9.884,9.884,0,0,0-7.327,5.959,9.565,9.565,0,0,0-.365,1.095l-.071.3-.517-.071a13.347,13.347,0,0,0-1.632-.071,6.719,6.719,0,0,0-4.7,1.915,7.241,7.241,0,0,0,.01,10.641,6.983,6.983,0,0,0,2.686,1.6c.882.314.912.314,3.344.355l2.453.041.253-.263a.749.749,0,0,0,.01-1.125c-.243-.253-.253-.253-2.26-.253-2.24,0-2.919-.091-3.831-.507a5.654,5.654,0,0,1-2.878-7.459,5.688,5.688,0,0,1,6.963-3.081c.76.264.9.253,1.236-.081a1.264,1.264,0,0,0,.355-.821,8.83,8.83,0,0,1,1.034-2.767,8.843,8.843,0,0,1,3.74-3.253,7.054,7.054,0,0,1,3.192-.618,7.054,7.054,0,0,1,3.192.618,8.843,8.843,0,0,1,3.74,3.253,8.83,8.83,0,0,1,1.034,2.767,1.264,1.264,0,0,0,.355.821c.334.334.476.345,1.236.081a5.68,5.68,0,0,1,5.787,1.378,5.641,5.641,0,0,1-1.5,9.06c-1.095.527-1.662.608-4.034.608-2.007,0-2.017,0-2.26.253a.79.79,0,0,0-.253.557.79.79,0,0,0,.253.557c.243.253.253.253,2.321.253,2.929,0,3.973-.233,5.453-1.206a7.247,7.247,0,0,0,1-11.381,6.692,6.692,0,0,0-4.723-1.946,13.457,13.457,0,0,0-1.632.071l-.517.071-.071-.3a9.567,9.567,0,0,0-.365-1.095,9.865,9.865,0,0,0-6.679-5.807A11.736,11.736,0,0,0,89.1-495.564Z" transform="translate(-25.542)"/><path class="c" d="M63.5-347.612a28.05,28.05,0,0,0-2.057,2.26,10.539,10.539,0,0,0-.172,12.456,26.3,26.3,0,0,0,1.824,2.047l1.348,1.378-.02,5.25-.03,5.25-.659-.79A16.642,16.642,0,0,0,61.38-322c-.233-.182-.345-.476-.74-1.915a11.782,11.782,0,0,0-2.2-4.926,10.649,10.649,0,0,0-9.81-3.932,39.786,39.786,0,0,0-4.652,1.236c-.355.294-.334.557.193,2.544a13.913,13.913,0,0,0,1.51,4.054,10.3,10.3,0,0,0,4.419,4.074,10.137,10.137,0,0,0,3.638,1.054,12.8,12.8,0,0,0,4.692-.557c2.067-.547,1.794-.608,3.152.7A15.065,15.065,0,0,1,64.2-316.3a3.88,3.88,0,0,0,.659.943c.537.294.892.02,1.6-1.186a14.458,14.458,0,0,1,2.5-3.162c1.348-1.287,1.064-1.216,3.1-.679,3.507.932,5.686.8,8.341-.5,3.03-1.48,4.743-3.75,5.838-7.753.588-2.149.638-2.544.345-2.828a27.26,27.26,0,0,0-4.814-1.338,12.135,12.135,0,0,0-3.871.2,10.579,10.579,0,0,0-6.6,4.875,13.3,13.3,0,0,0-1.439,3.8c-.4,1.439-.507,1.733-.74,1.915a17.74,17.74,0,0,0-2.351,2.23l-.659.78-.03-5.24-.02-5.24,1.348-1.378a24,24,0,0,0,1.814-2.037,10.522,10.522,0,0,0-.172-12.486c-.355-.456-1.277-1.47-2.047-2.24C65.759-348.838,65.546-349,65.252-349S64.745-348.838,63.5-347.612ZM64.441-339l-.01,7.175-.831-.861a8.485,8.485,0,0,1-2.635-6.334,8.53,8.53,0,0,1,1.682-5.27,22.943,22.943,0,0,1,1.763-1.875C64.431-346.162,64.441-342.939,64.441-339Zm3.365-5.341a8.966,8.966,0,0,1,1.054,8.817,8.618,8.618,0,0,1-1.956,2.838l-.831.861-.01-7.2V-346.2l.618.6A14.587,14.587,0,0,1,67.806-344.338ZM51.722-331.112a9.105,9.105,0,0,1,6.588,5.159,15.052,15.052,0,0,1,.73,2.453c-.03.03-12.131-6.932-12.263-7.054-.051-.041.172-.162.507-.253A9.3,9.3,0,0,1,51.722-331.112Zm30.475.051a13.3,13.3,0,0,1,1.328.334c.3.132.264.152-5.858,3.7-3.4,1.956-6.182,3.547-6.2,3.537a14.118,14.118,0,0,1,.78-2.564,9.315,9.315,0,0,1,4.773-4.561A9.139,9.139,0,0,1,82.2-331.061Zm-27.81,6.79c2.067,1.2,3.77,2.209,3.77,2.24a10.5,10.5,0,0,1-2.615.6,8.944,8.944,0,0,1-6.2-1.784,8.918,8.918,0,0,1-3.243-4.855c-.122-.446-.243-.892-.264-.983a9.282,9.282,0,0,1,2.361,1.216C49.523-327.078,52.31-325.467,54.387-324.271Zm30.06-3.942a8.851,8.851,0,0,1-2.5,4.317,8.98,8.98,0,0,1-6.983,2.473,10.589,10.589,0,0,1-2.615-.608c0-.03,2.331-1.409,5.189-3.051s5.615-3.243,6.152-3.557.983-.557.993-.547A7.492,7.492,0,0,1,84.447-328.214Z" transform="translate(0 -131.808)"/><path class="c" d="M304.253-327.747a.79.79,0,0,0-.253.557.79.79,0,0,0,.253.557l.243.253h4.682l.243-.253a.79.79,0,0,0,.253-.557.79.79,0,0,0-.253-.557l-.243-.253H304.5Z" transform="translate(-233.884 -150.679)"/><path class="c" d="M376.253-327.747a.79.79,0,0,0-.253.557.79.79,0,0,0,.253.557c.213.223.334.253.963.253s.75-.03.963-.253a.79.79,0,0,0,.253-.557.79.79,0,0,0-.253-.557c-.213-.223-.334-.253-.963-.253S376.466-327.97,376.253-327.747Z" transform="translate(-298.587 -150.679)"/></g></g></g></g></svg>