<svg xmlns="http://www.w3.org/2000/svg" xmlns:xlink="http://www.w3.org/1999/xlink" width="457" height="531" viewBox="0 0 457 531">
  <defs>
    <clipPath id="clip-path">
      <rect id="Rectangle_2155" data-name="Rectangle 2155" width="457" height="531" rx="20" transform="translate(1203 912)" fill="#129048" opacity="0.05"/>
    </clipPath>
  </defs>
  <g id="Mask_Group_27" data-name="Mask Group 27" transform="translate(-1203 -912)" clip-path="url(#clip-path)">
    <g id="Group_4499" data-name="Group 4499" transform="translate(998.432 668.16)" opacity="0.4">
      <path id="Path_47" data-name="Path 47" d="M345.886,223c-12.53-29.614-27.914-52.213-33.994-61.349-6.106,9.136-21.5,31.735-33.994,61.349,12.255,13.205,24.357,28.738,33.994,46.371,9.595-17.633,21.724-33.166,33.994-46.371" transform="translate(218.609 255.62)" fill="none" stroke="#a3c854" stroke-width="1" fill-rule="evenodd"/>
      <path id="Path_48" data-name="Path 48" d="M277.9,283.951c12.5,29.6,27.882,52.2,33.994,61.339,6.08-9.141,21.47-31.725,34-61.339-12.276-13.226-24.4-28.764-34-46.387A234.782,234.782,0,0,1,277.9,283.951" transform="translate(218.609 580.344)" fill="none" stroke="#a3c854" stroke-width="1" fill-rule="evenodd"/>
      <path id="Path_49" data-name="Path 49" d="M329.624,210.577c-21.84-23.565-44.022-39.515-52.862-46.017-2.613,10.661-9.337,37.166-10.957,69.292a234.822,234.822,0,0,1,47.759,31.915,234.646,234.646,0,0,1,16.06-55.19" transform="translate(166.882 268.047)" fill="none" stroke="#a3c854" stroke-width="1" fill-rule="evenodd"/>
      <path id="Path_50" data-name="Path 50" d="M290.779,291.107c21.808,23.555,44.022,39.5,52.863,46.017,2.58-10.682,9.326-37.182,10.946-69.261a235.859,235.859,0,0,1-47.764-31.973c-3.03,19.861-9.083,38.623-16.044,55.216" transform="translate(273.716 573.187)" fill="none" stroke="#a3c854" stroke-width="1" fill-rule="evenodd"/>
      <path id="Path_51" data-name="Path 51" d="M318.824,198.085c-28.59-14.646-54.884-22.066-65.413-25.165,1.193,10.936,3.916,38.153,13.385,68.881a232.5,232.5,0,0,1,55.781,13.648c-3.964-19.686-4.666-39.4-3.753-57.364" transform="translate(113.863 303.81)" fill="none" stroke="#a3c854" stroke-width="1" fill-rule="evenodd"/>
      <path id="Path_52" data-name="Path 52" d="M305.928,288.509c28.574,14.63,54.863,22.03,65.408,25.112-1.172-10.914-3.932-38.132-13.385-68.854a232.452,232.452,0,0,1-55.8-13.7,232.98,232.98,0,0,1,3.774,57.443" transform="translate(322.376 552.542)" fill="none" stroke="#a3c854" stroke-width="1" fill-rule="evenodd"/>
      <path id="Path_53" data-name="Path 53" d="M335.864,240.544a235.91,235.91,0,0,1-23.117-52.625c-31.878-4.006-59.122-1.958-70.078-1.24,4.85,9.833,16.72,34.469,36.069,60.114a233.358,233.358,0,0,1,57.127-6.249" transform="translate(67.911 357.691)" fill="none" stroke="#a3c854" stroke-width="1" fill-rule="evenodd"/>
      <path id="Path_54" data-name="Path 54" d="M308.34,228.781a231.418,231.418,0,0,1,23.154,52.62c31.862,3.99,59.138,1.937,70.089,1.261-4.871-9.885-16.7-34.517-36.1-60.161a233.382,233.382,0,0,1-57.143,6.28" transform="translate(348.838 515.908)" fill="none" stroke="#a3c854" stroke-width="1" fill-rule="evenodd"/>
      <path id="Path_55" data-name="Path 55" d="M303.2,197.127c-31.287,7.157-56.188,18.4-66.247,22.827,7.943,7.579,27.518,26.674,54.472,44.138,15.073-9.743,32.5-19.016,51.532-25.428-15.675-12.572-28.88-27.207-39.758-41.536" transform="translate(43.45 407.362)" fill="none" stroke="#a3c854" stroke-width="1" fill-rule="evenodd"/>
      <path id="Path_56" data-name="Path 56" d="M363.139,209.815a232.094,232.094,0,0,1-51.5,25.439,233.333,233.333,0,0,1,39.742,41.516c31.314-7.157,56.23-18.383,66.242-22.811-7.927-7.579-27.482-26.722-54.483-44.143" transform="translate(362.947 461.639)" fill="none" stroke="#a3c854" stroke-width="1" fill-rule="evenodd"/>
      <path id="Path_57" data-name="Path 57" d="M342.946,235.258a231.874,231.874,0,0,1-51.527-25.444c-26.959,17.433-46.524,36.57-54.467,44.149,10.054,4.428,34.939,15.654,66.236,22.811,10.878-14.34,24.083-28.97,39.758-41.515" transform="translate(43.455 461.635)" fill="none" stroke="#a3c854" stroke-width="1" fill-rule="evenodd"/>
      <path id="Path_58" data-name="Path 58" d="M311.638,238.658c19.011,6.418,36.417,15.686,51.5,25.434,27-17.464,46.572-36.565,54.483-44.138-10.012-4.428-34.923-15.67-66.242-22.827a234.476,234.476,0,0,1-39.742,41.531" transform="translate(362.947 407.362)" fill="none" stroke="#a3c854" stroke-width="1" fill-rule="evenodd"/>
      <path id="Path_59" data-name="Path 59" d="M278.738,222.5c-19.349,25.65-31.219,50.292-36.069,60.167,10.957.681,38.2,2.729,70.078-1.261a235.8,235.8,0,0,1,23.117-52.625,233.081,233.081,0,0,1-57.127-6.281" transform="translate(67.911 515.903)" fill="none" stroke="#a3c854" stroke-width="1" fill-rule="evenodd"/>
      <path id="Path_60" data-name="Path 60" d="M365.484,246.8c19.4-25.655,31.219-50.287,36.1-60.156-10.957-.681-38.232-2.723-70.094,1.277a230.976,230.976,0,0,1-23.143,52.625,233.417,233.417,0,0,1,57.142,6.254" transform="translate(348.843 357.69)" fill="none" stroke="#a3c854" stroke-width="1" fill-rule="evenodd"/>
      <path id="Path_61" data-name="Path 61" d="M322.573,231.066a233.416,233.416,0,0,1-55.781,13.7c-9.468,30.722-12.192,57.935-13.379,68.86,10.524-3.088,36.818-10.487,65.408-25.122a232.84,232.84,0,0,1,3.753-57.433" transform="translate(113.867 552.547)" fill="none" stroke="#a3c854" stroke-width="1" fill-rule="evenodd"/>
      <path id="Path_62" data-name="Path 62" d="M302.154,255.449a232,232,0,0,1,55.8-13.648c9.453-30.727,12.213-57.945,13.385-68.881-10.545,3.072-36.834,10.487-65.413,25.128a232.335,232.335,0,0,1-3.768,57.4" transform="translate(322.376 303.81)" fill="none" stroke="#a3c854" stroke-width="1" fill-rule="evenodd"/>
      <path id="Path_63" data-name="Path 63" d="M265.8,267.864c1.62,32.073,8.344,58.584,10.957,69.261,8.84-6.518,31.028-22.463,52.862-46.017a235.009,235.009,0,0,1-16.06-55.216C298.5,249.133,281.8,259.631,265.8,267.864" transform="translate(166.882 573.187)" fill="none" stroke="#a3c854" stroke-width="1" fill-rule="evenodd"/>
      <path id="Path_64" data-name="Path 64" d="M354.588,233.815c-1.62-32.089-8.36-58.594-10.941-69.255-8.84,6.5-31.065,22.452-52.868,46.022a234.9,234.9,0,0,1,16.05,55.185c15.063-13.242,31.762-23.729,47.759-31.952" transform="translate(273.716 268.047)" fill="none" stroke="#a3c854" stroke-width="1" fill-rule="evenodd"/>
      <path id="Path_65" data-name="Path 65" d="M307.486,267.3a161.2,161.2,0,0,1,17.422-47.648,232.675,232.675,0,0,0-33.994-46.371,234.466,234.466,0,0,0-16.061,55.19A160.637,160.637,0,0,1,307.486,267.3" transform="translate(205.592 305.35)" fill="none" stroke="#a3c854" stroke-width="1" fill-rule="evenodd"/>
      <path id="Path_66" data-name="Path 66" d="M301.744,228.536a161.162,161.162,0,0,1-17.406,47.643c9.595,17.628,21.739,33.166,33.994,46.392a235.8,235.8,0,0,0,16.049-55.222,160.936,160.936,0,0,1-32.638-38.813" transform="translate(246.162 541.724)" fill="none" stroke="#a3c854" stroke-width="1" fill-rule="evenodd"/>
      <path id="Path_67" data-name="Path 67" d="M269.848,235.048a161,161,0,0,1,43.927,25.291,161.426,161.426,0,0,1,.084-50.735c-15.068-13.237-31.767-23.708-47.764-31.915-.918,17.95-.211,37.673,3.753,57.359" transform="translate(166.591 324.211)" fill="none" stroke="#a3c854" stroke-width="1" fill-rule="evenodd"/>
      <path id="Path_68" data-name="Path 68" d="M337.805,251.531a160.914,160.914,0,0,1-43.89-25.249A162.083,162.083,0,0,1,293.82,277a235.557,235.557,0,0,0,47.754,31.968,232.615,232.615,0,0,0-3.768-57.433" transform="translate(286.725 532.082)" fill="none" stroke="#a3c854" stroke-width="1" fill-rule="evenodd"/>
      <path id="Path_69" data-name="Path 69" d="M329.008,247.315a160.4,160.4,0,0,1-17.28-47.7,232.251,232.251,0,0,0-55.781-13.648c5.294,17.163,12.7,35.456,23.122,52.625a161.112,161.112,0,0,1,49.938,8.719" transform="translate(124.712 359.639)" fill="none" stroke="#a3c854" stroke-width="1" fill-rule="evenodd"/>
      <path id="Path_70" data-name="Path 70" d="M298.884,222.035A160.807,160.807,0,0,1,316.143,269.7a232.665,232.665,0,0,0,55.8,13.7,231.412,231.412,0,0,0-23.149-52.62,160.686,160.686,0,0,1-49.907-8.74" transform="translate(308.387 513.914)" fill="none" stroke="#a3c854" stroke-width="1" fill-rule="evenodd"/>
      <path id="Path_71" data-name="Path 71" d="M289.26,243.77a160.328,160.328,0,0,1,49.9-8.883,160.875,160.875,0,0,1-32.522-38.9,233.456,233.456,0,0,0-57.132,6.254c10.878,14.334,24.083,28.965,39.758,41.531" transform="translate(97.141 402.251)" fill="none" stroke="#a3c854" stroke-width="1" fill-rule="evenodd"/>
      <path id="Path_72" data-name="Path 72" d="M352.076,214.635a161.386,161.386,0,0,1-49.891,8.872,160.116,160.116,0,0,1,32.485,38.918,232.932,232.932,0,0,0,57.148-6.275,233.361,233.361,0,0,0-39.742-41.515" transform="translate(322.509 482.258)" fill="none" stroke="#a3c854" stroke-width="1" fill-rule="evenodd"/>
      <path id="Path_73" data-name="Path 73" d="M342.631,230.43A161.429,161.429,0,0,1,298.8,205c-19.032,6.418-36.459,15.686-51.532,25.434A231.9,231.9,0,0,0,298.8,255.869a160.5,160.5,0,0,1,43.827-25.439" transform="translate(87.601 441.024)" fill="none" stroke="#a3c854" stroke-width="1" fill-rule="evenodd"/>
      <path id="Path_74" data-name="Path 74" d="M303.328,230.43a160.054,160.054,0,0,1,43.859,25.439,232.227,232.227,0,0,0,51.5-25.439c-15.079-9.748-32.49-19.016-51.5-25.434a160.981,160.981,0,0,1-43.859,25.434" transform="translate(327.398 441.024)" fill="none" stroke="#a3c854" stroke-width="1" fill-rule="evenodd"/>
      <path id="Path_75" data-name="Path 75" d="M306.63,262.431a160.44,160.44,0,0,1,32.522-38.924,160.734,160.734,0,0,1-49.891-8.872c-15.675,12.551-28.88,27.175-39.758,41.515,17.549,4.022,37.071,6.74,57.127,6.28" transform="translate(97.145 482.258)" fill="none" stroke="#a3c854" stroke-width="1" fill-rule="evenodd"/>
      <path id="Path_76" data-name="Path 76" d="M334.67,195.985a160.225,160.225,0,0,1-32.485,38.9,160.624,160.624,0,0,1,49.891,8.888,234.282,234.282,0,0,0,39.737-41.536,233.141,233.141,0,0,0-57.143-6.249" transform="translate(322.509 402.25)" fill="none" stroke="#a3c854" stroke-width="1" fill-rule="evenodd"/>
      <path id="Path_77" data-name="Path 77" d="M329.008,222.035a160.828,160.828,0,0,1-49.938,8.74c-10.419,17.163-17.829,35.451-23.122,52.62a233.181,233.181,0,0,0,55.781-13.7,160.272,160.272,0,0,1,17.28-47.664" transform="translate(124.712 513.914)" fill="none" stroke="#a3c854" stroke-width="1" fill-rule="evenodd"/>
      <path id="Path_78" data-name="Path 78" d="M298.884,247.315a160.971,160.971,0,0,1,49.907-8.719,231.648,231.648,0,0,0,23.149-52.625,231.982,231.982,0,0,0-55.8,13.648,160.939,160.939,0,0,1-17.259,47.7" transform="translate(308.387 359.639)" fill="none" stroke="#a3c854" stroke-width="1" fill-rule="evenodd"/>
      <path id="Path_79" data-name="Path 79" d="M307.486,228.536a160.552,160.552,0,0,1-32.632,38.813,235.022,235.022,0,0,0,16.061,55.222,234.061,234.061,0,0,0,33.994-46.392,161.329,161.329,0,0,1-17.422-47.643" transform="translate(205.592 541.724)" fill="none" stroke="#a3c854" stroke-width="1" fill-rule="evenodd"/>
      <path id="Path_80" data-name="Path 80" d="M313.775,226.282a161.253,161.253,0,0,1-43.927,25.249,232.843,232.843,0,0,0-3.753,57.438A235.828,235.828,0,0,0,313.854,277a161.462,161.462,0,0,1-.079-50.715" transform="translate(166.591 532.082)" fill="none" stroke="#a3c854" stroke-width="1" fill-rule="evenodd"/>
      <path id="Path_81" data-name="Path 81" d="M301.744,267.3a160.616,160.616,0,0,1,32.638-38.829,234.724,234.724,0,0,0-16.049-55.19c-12.255,13.194-24.4,28.732-33.994,46.371A161.036,161.036,0,0,1,301.744,267.3" transform="translate(246.162 305.35)" fill="none" stroke="#a3c854" stroke-width="1" fill-rule="evenodd"/>
      <path id="Path_82" data-name="Path 82" d="M293.919,260.369a160.675,160.675,0,0,1,43.89-25.291,232.538,232.538,0,0,0,3.768-57.4,235.427,235.427,0,0,0-47.759,31.957,161.857,161.857,0,0,1,.1,50.73" transform="translate(286.72 324.18)" fill="none" stroke="#a3c854" stroke-width="1" fill-rule="evenodd"/>
      <path id="Path_83" data-name="Path 83" d="M348.249,242.252A136.727,136.727,0,0,0,315.474,203a137.505,137.505,0,0,0,17.554,48.033,137.241,137.241,0,0,0-44.2-25.629,136.2,136.2,0,0,0,32.9,39.135,136.412,136.412,0,0,0-50.324-8.951A136.819,136.819,0,0,0,315.7,281.091,136.993,136.993,0,0,0,265.34,289.9a137.1,137.1,0,0,0,50.356,8.8A137.017,137.017,0,0,0,271.4,324.211a136.425,136.425,0,0,0,50.324-8.956,136.213,136.213,0,0,0-32.9,39.14,137.745,137.745,0,0,0,44.2-25.634,137.469,137.469,0,0,0-17.554,48.049,137.063,137.063,0,0,0,32.775-39.235,137.929,137.929,0,0,0-.058,51.131,137.834,137.834,0,0,0,17.417-48.075,137.927,137.927,0,0,0,17.406,48.075,137.376,137.376,0,0,0-.074-51.131,137.721,137.721,0,0,0,32.8,39.235,137.435,137.435,0,0,0-17.58-48.049,138.182,138.182,0,0,0,44.212,25.634,136.569,136.569,0,0,0-32.886-39.14,136.333,136.333,0,0,0,50.313,8.956,138.081,138.081,0,0,0-44.3-25.539,136.3,136.3,0,0,0,50.329-8.772,136.733,136.733,0,0,0-50.329-8.809,137.35,137.35,0,0,0,44.3-25.508,136.592,136.592,0,0,0-50.345,8.951A136.173,136.173,0,0,0,442.374,225.4a138,138,0,0,0-44.212,25.639A137.6,137.6,0,0,0,415.742,203a137.38,137.38,0,0,0-32.8,39.256,137.511,137.511,0,0,0,.074-51.158,137.522,137.522,0,0,0-17.406,48.086,137.43,137.43,0,0,0-17.417-48.086,138.064,138.064,0,0,0,.058,51.158" transform="translate(164.893 381.555)" fill="none" stroke="#a3c854" stroke-width="1" fill-rule="evenodd"/>
      <g id="Group_4231" data-name="Group 4231" transform="translate(386.401 525.001)">
        <path id="Path_84" data-name="Path 84" d="M309.209,273.728a138.064,138.064,0,0,1-.058-51.158,160.79,160.79,0,0,0-32.638-38.834,161.59,161.59,0,0,0-.079,50.736,136.717,136.717,0,0,1,32.776,39.256" transform="translate(-182.468 -174.922)" fill="none" stroke="#a3c854" stroke-width="1" fill-rule="evenodd"/>
        <path id="Path_85" data-name="Path 85" d="M287.621,218.848a137.386,137.386,0,0,1,.084,51.131A161.02,161.02,0,0,0,320.333,308.8a161.919,161.919,0,0,0,.095-50.715,137.735,137.735,0,0,1-32.807-39.235" transform="translate(-126.194 -24.72)" fill="none" stroke="#a3c854" stroke-width="1" fill-rule="evenodd"/>
        <path id="Path_86" data-name="Path 86" d="M310.443,213.848a160.855,160.855,0,0,0-43.927-25.291,160.7,160.7,0,0,0,17.28,47.7A137.243,137.243,0,0,1,328,261.881a137.541,137.541,0,0,1-17.554-48.033" transform="translate(-216.477 -154.299)" fill="none" stroke="#a3c854" stroke-width="1" fill-rule="evenodd"/>
        <path id="Path_87" data-name="Path 87" d="M308.091,265.227a161.059,161.059,0,0,0,43.89,25.249,160.8,160.8,0,0,0-17.264-47.664,137.987,137.987,0,0,1-44.212-25.634,137.625,137.625,0,0,1,17.585,48.049" transform="translate(-113.853 -31.864)" fill="none" stroke="#a3c854" stroke-width="1" fill-rule="evenodd"/>
        <path id="Path_88" data-name="Path 88" d="M343.174,243.8a135.985,135.985,0,0,1-32.907-39.135,161.111,161.111,0,0,0-49.938-8.719,160.715,160.715,0,0,0,32.516,38.9,136.638,136.638,0,0,1,50.329,8.957" transform="translate(-242.948 -122.707)" fill="none" stroke="#a3c854" stroke-width="1" fill-rule="evenodd"/>
        <path id="Path_89" data-name="Path 89" d="M292.652,214.619a136.5,136.5,0,0,1,32.886,39.14,160.751,160.751,0,0,0,49.912,8.74,159.919,159.919,0,0,0-32.485-38.924,136.329,136.329,0,0,1-50.313-8.956" transform="translate(-104.673 -42.811)" fill="none" stroke="#a3c854" stroke-width="1" fill-rule="evenodd"/>
        <path id="Path_90" data-name="Path 90" d="M351.228,228.821a136.686,136.686,0,0,1-44.3-25.508,160.157,160.157,0,0,0-49.9,8.888,161.39,161.39,0,0,0,43.832,25.428,137,137,0,0,1,50.361-8.809" transform="translate(-257.035 -91.176)" fill="none" stroke="#a3c854" stroke-width="1" fill-rule="evenodd"/>
        <path id="Path_91" data-name="Path 91" d="M293.792,218.591a138.189,138.189,0,0,1,44.291,25.534,161.241,161.241,0,0,0,49.9-8.867,160.127,160.127,0,0,0-43.859-25.444,136.181,136.181,0,0,1-50.329,8.777" transform="translate(-99.796 -63.366)" fill="none" stroke="#a3c854" stroke-width="1" fill-rule="evenodd"/>
        <path id="Path_92" data-name="Path 92" d="M300.863,209.815a160.494,160.494,0,0,0-43.827,25.439,160.734,160.734,0,0,0,49.891,8.872,137.056,137.056,0,0,1,44.291-25.513,137.1,137.1,0,0,1-50.355-8.8" transform="translate(-257.031 -63.361)" fill="none" stroke="#a3c854" stroke-width="1" fill-rule="evenodd"/>
        <path id="Path_93" data-name="Path 93" d="M344.126,237.629A160.965,160.965,0,0,0,387.984,212.2a160.438,160.438,0,0,0-49.891-8.883,137.406,137.406,0,0,1-44.3,25.508,136.852,136.852,0,0,1,50.335,8.809" transform="translate(-99.8 -91.176)" fill="none" stroke="#a3c854" stroke-width="1" fill-rule="evenodd"/>
        <path id="Path_94" data-name="Path 94" d="M343.174,214.619a136.429,136.429,0,0,1-50.329,8.956A160.434,160.434,0,0,0,260.328,262.5a160.83,160.83,0,0,0,49.938-8.74,136,136,0,0,1,32.907-39.14" transform="translate(-242.948 -42.811)" fill="none" stroke="#a3c854" stroke-width="1" fill-rule="evenodd"/>
        <path id="Path_95" data-name="Path 95" d="M292.646,243.8a136.815,136.815,0,0,1,50.345-8.957,160.335,160.335,0,0,0,32.485-38.9,161.006,161.006,0,0,0-49.912,8.719A136.106,136.106,0,0,1,292.646,243.8" transform="translate(-104.698 -122.707)" fill="none" stroke="#a3c854" stroke-width="1" fill-rule="evenodd"/>
        <path id="Path_96" data-name="Path 96" d="M281.037,267.507a161.343,161.343,0,0,0,17.422,47.643,161.3,161.3,0,0,0,17.412-47.643,137.785,137.785,0,0,1-17.412-48.081,137.676,137.676,0,0,1-17.422,48.081" transform="translate(-154.359 -22.247)" fill="none" stroke="#a3c854" stroke-width="1" fill-rule="evenodd"/>
        <path id="Path_97" data-name="Path 97" d="M309.209,218.848a137.052,137.052,0,0,1-32.776,39.235,161.46,161.46,0,0,0,.079,50.715,160.813,160.813,0,0,0,32.638-38.818,137.929,137.929,0,0,1,.058-51.131" transform="translate(-182.468 -24.72)" fill="none" stroke="#a3c854" stroke-width="1" fill-rule="evenodd"/>
        <path id="Path_98" data-name="Path 98" d="M283.8,242.812a160.268,160.268,0,0,0-17.28,47.664,161.25,161.25,0,0,0,43.927-25.249,137.7,137.7,0,0,1,17.549-48.049,137.574,137.574,0,0,1-44.2,25.634" transform="translate(-216.477 -31.864)" fill="none" stroke="#a3c854" stroke-width="1" fill-rule="evenodd"/>
        <path id="Path_99" data-name="Path 99" d="M315.865,229.714a161.01,161.01,0,0,0-17.406-47.648,161.214,161.214,0,0,0-17.422,47.648A137.577,137.577,0,0,1,298.459,277.8a137.569,137.569,0,0,1,17.406-48.086" transform="translate(-154.359 -182.066)" fill="none" stroke="#a3c854" stroke-width="1" fill-rule="evenodd"/>
        <path id="Path_100" data-name="Path 100" d="M287.621,273.728a137.4,137.4,0,0,1,32.807-39.256,162.05,162.05,0,0,0-.095-50.736,160.493,160.493,0,0,0-32.628,38.834,137.521,137.521,0,0,1-.084,51.158" transform="translate(-126.194 -174.922)" fill="none" stroke="#a3c854" stroke-width="1" fill-rule="evenodd"/>
        <path id="Path_101" data-name="Path 101" d="M334.724,236.253a160.932,160.932,0,0,0,17.258-47.7,160.668,160.668,0,0,0-43.89,25.291,137.857,137.857,0,0,1-17.585,48.044,137.761,137.761,0,0,1,44.217-25.64" transform="translate(-113.853 -154.299)" fill="none" stroke="#a3c854" stroke-width="1" fill-rule="evenodd"/>
      </g>
    </g>
  </g>
</svg>
