<svg xmlns="http://www.w3.org/2000/svg" xmlns:xlink="http://www.w3.org/1999/xlink" width="475" height="767" viewBox="0 0 475 767">
  <defs>
    <clipPath id="clip-path">
      <rect id="Rectangle_2156" data-name="Rectangle 2156" width="475" height="767" rx="20" fill="#129048" opacity="0.05"/>
    </clipPath>
  </defs>
  <g id="Mask_Group_28" data-name="Mask Group 28" clip-path="url(#clip-path)">
    <g id="Group_4501" data-name="Group 4501" transform="translate(-260 -203.794)" opacity="0.4">
      <path id="Path_41608" data-name="Path 41608" d="M277.9,208.026c12.53,29.614,27.914,52.213,33.994,61.349,6.106-9.136,21.5-31.735,33.994-61.349-12.255-13.205-24.357-28.738-33.994-46.371-9.595,17.633-21.724,33.166-33.994,46.371" transform="translate(-61.824 238.983)" fill="none" stroke="#a3c854" stroke-width="1" fill-rule="evenodd"/>
      <path id="Path_41609" data-name="Path 41609" d="M345.891,298.9c-12.5-29.6-27.882-52.2-33.994-61.339-6.08,9.141-21.47,31.725-34,61.339,12.276,13.226,24.4,28.764,34,46.387A234.781,234.781,0,0,1,345.891,298.9" transform="translate(-61.83 -237.564)" fill="none" stroke="#a3c854" stroke-width="1" fill-rule="evenodd"/>
      <path id="Path_41610" data-name="Path 41610" d="M265.8,219.75c21.84,23.565,44.022,39.515,52.862,46.017,2.613-10.661,9.337-37.166,10.957-69.292a234.822,234.822,0,0,1-47.759-31.915,234.646,234.646,0,0,1-16.06,55.19" transform="translate(18.257 227.259)" fill="none" stroke="#a3c854" stroke-width="1" fill-rule="evenodd"/>
      <path id="Path_41611" data-name="Path 41611" d="M354.588,281.908c-21.808-23.555-44.022-39.5-52.863-46.017-2.58,10.682-9.326,37.182-10.946,69.261a235.859,235.859,0,0,1,47.764,31.973c3.03-19.861,9.083-38.623,16.044-55.216" transform="translate(-138.514 -220.569)" fill="none" stroke="#a3c854" stroke-width="1" fill-rule="evenodd"/>
      <path id="Path_41612" data-name="Path 41612" d="M257.164,230.285c28.59,14.646,54.884,22.066,65.413,25.165-1.193-10.936-3.916-38.153-13.385-68.881a232.5,232.5,0,0,1-55.781-13.648c3.964,19.686,4.666,39.4,3.753,57.364" transform="translate(90.717 193.455)" fill="none" stroke="#a3c854" stroke-width="1" fill-rule="evenodd"/>
      <path id="Path_41613" data-name="Path 41613" d="M367.562,256.177c-28.574-14.63-54.863-22.03-65.408-25.112,1.172,10.914,3.932,38.132,13.385,68.854a232.453,232.453,0,0,1,55.8,13.7,232.98,232.98,0,0,1-3.774-57.443" transform="translate(-215.297 -171.594)" fill="none" stroke="#a3c854" stroke-width="1" fill-rule="evenodd"/>
      <path id="Path_41614" data-name="Path 41614" d="M242.669,191.764a235.91,235.91,0,0,1,23.117,52.625c31.878,4.006,59.122,1.958,70.078,1.24-4.85-9.833-16.72-34.469-36.069-60.114a233.358,233.358,0,0,1-57.127,6.249" transform="translate(134.124 135.634)" fill="none" stroke="#a3c854" stroke-width="1" fill-rule="evenodd"/>
      <path id="Path_41615" data-name="Path 41615" d="M401.583,277.513a231.418,231.418,0,0,1-23.154-52.62c-31.862-3.99-59.138-1.937-70.089-1.261,4.871,9.885,16.7,34.517,36.1,60.161a233.382,233.382,0,0,1,57.143-6.28" transform="translate(-278.194 -96.569)" fill="none" stroke="#a3c854" stroke-width="1" fill-rule="evenodd"/>
      <path id="Path_41616" data-name="Path 41616" d="M276.709,264.092c31.287-7.157,56.188-18.4,66.247-22.827-7.943-7.579-27.518-26.674-54.472-44.138-15.073,9.743-32.5,19.016-51.532,25.428,15.675,12.572,28.88,27.207,39.758,41.536" transform="translate(157.211 57.052)" fill="none" stroke="#a3c854" stroke-width="1" fill-rule="evenodd"/>
      <path id="Path_41617" data-name="Path 41617" d="M366.121,276.769a232.093,232.093,0,0,1,51.5-25.439,233.333,233.333,0,0,1-39.742-41.516c-31.314,7.157-56.23,18.383-66.242,22.811,7.927,7.579,27.482,26.722,54.483,44.143" transform="translate(-311.638 -22.59)" fill="none" stroke="#a3c854" stroke-width="1" fill-rule="evenodd"/>
      <path id="Path_41618" data-name="Path 41618" d="M236.952,251.329a231.874,231.874,0,0,1,51.527,25.444c26.959-17.432,46.524-36.57,54.467-44.149-10.054-4.428-34.939-15.654-66.236-22.811-10.878,14.34-24.083,28.97-39.758,41.515" transform="translate(157.215 -22.589)" fill="none" stroke="#a3c854" stroke-width="1" fill-rule="evenodd"/>
      <path id="Path_41619" data-name="Path 41619" d="M417.621,222.561c-19.011-6.418-36.417-15.686-51.5-25.434-27,17.464-46.572,36.565-54.483,44.138,10.012,4.428,34.923,15.67,66.242,22.827a234.476,234.476,0,0,1,39.742-41.531" transform="translate(-311.638 57.052)" fill="none" stroke="#a3c854" stroke-width="1" fill-rule="evenodd"/>
      <path id="Path_41620" data-name="Path 41620" d="M299.8,283.8c19.349-25.65,31.219-50.292,36.069-60.167-10.957-.681-38.2-2.729-70.078,1.261a235.8,235.8,0,0,1-23.117,52.625A233.079,233.079,0,0,1,299.8,283.8" transform="translate(134.124 -96.569)" fill="none" stroke="#a3c854" stroke-width="1" fill-rule="evenodd"/>
      <path id="Path_41621" data-name="Path 41621" d="M344.436,185.515c-19.4,25.655-31.219,50.287-36.1,60.156,10.957.681,38.232,2.723,70.094-1.277a230.976,230.976,0,0,1,23.143-52.625,233.417,233.417,0,0,1-57.142-6.254" transform="translate(-278.195 135.629)" fill="none" stroke="#a3c854" stroke-width="1" fill-rule="evenodd"/>
      <path id="Path_41622" data-name="Path 41622" d="M253.412,313.622a233.416,233.416,0,0,1,55.781-13.7c9.468-30.722,12.192-57.935,13.379-68.86-10.524,3.088-36.818,10.487-65.408,25.122a232.84,232.84,0,0,1-3.753,57.433" transform="translate(90.716 -171.601)" fill="none" stroke="#a3c854" stroke-width="1" fill-rule="evenodd"/>
      <path id="Path_41623" data-name="Path 41623" d="M371.335,172.92a232,232,0,0,1-55.8,13.648c-9.453,30.727-12.213,57.945-13.385,68.881,10.545-3.072,36.834-10.487,65.413-25.128a232.335,232.335,0,0,1,3.768-57.4" transform="translate(-215.297 193.455)" fill="none" stroke="#a3c854" stroke-width="1" fill-rule="evenodd"/>
      <path id="Path_41624" data-name="Path 41624" d="M329.624,305.152c-1.62-32.073-8.344-58.584-10.957-69.261-8.84,6.518-31.028,22.463-52.862,46.017a235.009,235.009,0,0,1,16.06,55.216c15.063-13.242,31.762-23.74,47.759-31.973" transform="translate(18.257 -220.569)" fill="none" stroke="#a3c854" stroke-width="1" fill-rule="evenodd"/>
      <path id="Path_41625" data-name="Path 41625" d="M290.779,196.512c1.62,32.089,8.36,58.594,10.941,69.255,8.84-6.5,31.065-22.452,52.868-46.022a234.9,234.9,0,0,1-16.05-55.185c-15.063,13.242-31.762,23.729-47.759,31.952" transform="translate(-138.514 227.259)" fill="none" stroke="#a3c854" stroke-width="1" fill-rule="evenodd"/>
      <path id="Path_41626" data-name="Path 41626" d="M292.276,173.28a161.2,161.2,0,0,1-17.422,47.648A232.675,232.675,0,0,0,308.848,267.3a234.466,234.466,0,0,0,16.061-55.19,160.637,160.637,0,0,1-32.632-38.829" transform="translate(-24.787 179.705)" fill="none" stroke="#a3c854" stroke-width="1" fill-rule="evenodd"/>
      <path id="Path_41627" data-name="Path 41627" d="M316.976,322.571a161.162,161.162,0,0,1,17.406-47.643c-9.595-17.628-21.739-33.166-33.994-46.392a235.8,235.8,0,0,0-16.049,55.222,160.936,160.936,0,0,1,32.638,38.813" transform="translate(-84.314 -167.197)" fill="none" stroke="#a3c854" stroke-width="1" fill-rule="evenodd"/>
      <path id="Path_41628" data-name="Path 41628" d="M309.748,202.98a161,161,0,0,1-43.927-25.291,161.426,161.426,0,0,1-.084,50.735c15.068,13.237,31.767,23.708,47.764,31.915.918-17.95.211-37.673-3.753-57.359" transform="translate(34.38 163.395)" fill="none" stroke="#a3c854" stroke-width="1" fill-rule="evenodd"/>
      <path id="Path_41629" data-name="Path 41629" d="M297.945,283.715a160.913,160.913,0,0,1,43.89,25.249,162.082,162.082,0,0,1,.095-50.715,235.557,235.557,0,0,0-47.754-31.968,232.615,232.615,0,0,0,3.768,57.433" transform="translate(-141.907 -141.694)" fill="none" stroke="#a3c854" stroke-width="1" fill-rule="evenodd"/>
      <path id="Path_41630" data-name="Path 41630" d="M255.947,185.971a160.4,160.4,0,0,1,17.28,47.7,232.251,232.251,0,0,0,55.781,13.648c-5.294-17.163-12.7-35.456-23.122-52.625a161.112,161.112,0,0,1-49.938-8.719" transform="translate(70.901 132.708)" fill="none" stroke="#a3c854" stroke-width="1" fill-rule="evenodd"/>
      <path id="Path_41631" data-name="Path 41631" d="M371.939,283.395a160.807,160.807,0,0,1-17.259-47.664,232.665,232.665,0,0,0-55.8-13.7,231.412,231.412,0,0,0,23.149,52.62,160.687,160.687,0,0,1,49.907,8.74" transform="translate(-198.643 -93.71)" fill="none" stroke="#a3c854" stroke-width="1" fill-rule="evenodd"/>
      <path id="Path_41632" data-name="Path 41632" d="M299.4,195.932a160.328,160.328,0,0,1-49.9,8.883,160.875,160.875,0,0,1,32.522,38.9,233.456,233.456,0,0,0,57.132-6.254c-10.878-14.334-24.083-28.965-39.758-41.531" transform="translate(94.769 83.68)" fill="none" stroke="#a3c854" stroke-width="1" fill-rule="evenodd"/>
      <path id="Path_41633" data-name="Path 41633" d="M341.927,262.477a161.387,161.387,0,0,1,49.891-8.872,160.116,160.116,0,0,1-32.485-38.918,232.932,232.932,0,0,0-57.148,6.275,233.36,233.36,0,0,0,39.742,41.515" transform="translate(-235.944 -33.737)" fill="none" stroke="#a3c854" stroke-width="1" fill-rule="evenodd"/>
      <path id="Path_41634" data-name="Path 41634" d="M247.272,230.435A161.429,161.429,0,0,1,291.1,255.869c19.032-6.418,36.459-15.686,51.532-25.434A231.9,231.9,0,0,0,291.1,205a160.5,160.5,0,0,1-43.827,25.439" transform="translate(103.063 23.744)" fill="none" stroke="#a3c854" stroke-width="1" fill-rule="evenodd"/>
      <path id="Path_41635" data-name="Path 41635" d="M398.688,230.435A160.054,160.054,0,0,1,354.829,205a232.227,232.227,0,0,0-51.5,25.439c15.079,9.748,32.49,19.016,51.5,25.434a160.981,160.981,0,0,1,43.859-25.434" transform="translate(-248.846 23.744)" fill="none" stroke="#a3c854" stroke-width="1" fill-rule="evenodd"/>
      <path id="Path_41636" data-name="Path 41636" d="M282.025,214.686A160.44,160.44,0,0,1,249.5,253.609a160.734,160.734,0,0,1,49.891,8.872c15.675-12.551,28.88-27.175,39.758-41.515-17.549-4.022-37.071-6.74-57.127-6.28" transform="translate(94.768 -33.741)" fill="none" stroke="#a3c854" stroke-width="1" fill-rule="evenodd"/>
      <path id="Path_41637" data-name="Path 41637" d="M359.328,243.717a160.225,160.225,0,0,1,32.485-38.9,160.624,160.624,0,0,1-49.891-8.888,234.282,234.282,0,0,0-39.737,41.536,233.141,233.141,0,0,0,57.143,6.249" transform="translate(-235.938 83.681)" fill="none" stroke="#a3c854" stroke-width="1" fill-rule="evenodd"/>
      <path id="Path_41638" data-name="Path 41638" d="M255.947,283.395a160.828,160.828,0,0,1,49.938-8.74c10.419-17.163,17.829-35.451,23.122-52.62a233.181,233.181,0,0,0-55.781,13.7,160.272,160.272,0,0,1-17.28,47.664" transform="translate(70.901 -93.71)" fill="none" stroke="#a3c854" stroke-width="1" fill-rule="evenodd"/>
      <path id="Path_41639" data-name="Path 41639" d="M371.939,185.971a160.971,160.971,0,0,1-49.907,8.719,231.648,231.648,0,0,0-23.149,52.625,231.982,231.982,0,0,0,55.8-13.648,160.939,160.939,0,0,1,17.259-47.7" transform="translate(-198.643 132.708)" fill="none" stroke="#a3c854" stroke-width="1" fill-rule="evenodd"/>
      <path id="Path_41640" data-name="Path 41640" d="M292.276,322.571a160.552,160.552,0,0,1,32.632-38.813,235.022,235.022,0,0,0-16.061-55.222,234.061,234.061,0,0,0-33.994,46.392,161.329,161.329,0,0,1,17.422,47.643" transform="translate(-24.787 -167.197)" fill="none" stroke="#a3c854" stroke-width="1" fill-rule="evenodd"/>
      <path id="Path_41641" data-name="Path 41641" d="M265.816,308.969a161.253,161.253,0,0,1,43.927-25.249,232.843,232.843,0,0,0,3.753-57.438,235.828,235.828,0,0,0-47.759,31.973,161.462,161.462,0,0,1,.079,50.715" transform="translate(34.385 -141.7)" fill="none" stroke="#a3c854" stroke-width="1" fill-rule="evenodd"/>
      <path id="Path_41642" data-name="Path 41642" d="M316.976,173.28a160.616,160.616,0,0,1-32.638,38.829,234.724,234.724,0,0,0,16.049,55.19c12.255-13.194,24.4-28.732,33.994-46.371a161.036,161.036,0,0,1-17.406-47.648" transform="translate(-84.314 179.705)" fill="none" stroke="#a3c854" stroke-width="1" fill-rule="evenodd"/>
      <path id="Path_41643" data-name="Path 41643" d="M341.834,177.682a160.675,160.675,0,0,1-43.89,25.291,232.537,232.537,0,0,0-3.768,57.4,235.426,235.426,0,0,0,47.759-31.957,161.857,161.857,0,0,1-.1-50.73" transform="translate(-141.905 163.402)" fill="none" stroke="#a3c854" stroke-width="1" fill-rule="evenodd"/>
      <path id="Path_41644" data-name="Path 41644" d="M382.924,337.548A136.727,136.727,0,0,0,415.7,376.8a137.505,137.505,0,0,0-17.554-48.033,137.241,137.241,0,0,0,44.2,25.629,136.2,136.2,0,0,0-32.9-39.135,136.412,136.412,0,0,0,50.324,8.951,136.819,136.819,0,0,0-44.291-25.508,136.993,136.993,0,0,0,50.356-8.809,137.1,137.1,0,0,0-50.356-8.8,137.017,137.017,0,0,0,44.291-25.513,136.425,136.425,0,0,0-50.324,8.956,136.213,136.213,0,0,0,32.9-39.14,137.745,137.745,0,0,0-44.2,25.634A137.469,137.469,0,0,0,415.7,202.99a137.063,137.063,0,0,0-32.775,39.235,137.929,137.929,0,0,0,.058-51.131,137.834,137.834,0,0,0-17.417,48.075,137.927,137.927,0,0,0-17.406-48.075,137.376,137.376,0,0,0,.074,51.131,137.721,137.721,0,0,0-32.8-39.235,137.435,137.435,0,0,0,17.58,48.049A138.182,138.182,0,0,0,288.8,225.4a136.569,136.569,0,0,0,32.886,39.14,136.333,136.333,0,0,0-50.313-8.956,138.081,138.081,0,0,0,44.3,25.539A136.3,136.3,0,0,0,265.34,289.9a136.733,136.733,0,0,0,50.329,8.809,137.35,137.35,0,0,0-44.3,25.508,136.592,136.592,0,0,0,50.345-8.951A136.173,136.173,0,0,0,288.8,354.4a138,138,0,0,0,44.212-25.639,137.6,137.6,0,0,0-17.58,48.044,137.38,137.38,0,0,0,32.8-39.256,137.511,137.511,0,0,0-.074,51.158,137.522,137.522,0,0,0,17.406-48.086,137.43,137.43,0,0,0,17.417,48.086,138.064,138.064,0,0,0-.058-51.158" transform="translate(-115.498 -35.72)" fill="none" stroke="#a3c854" stroke-width="1" fill-rule="evenodd"/>
      <g id="Group_4500" data-name="Group 4500" transform="translate(105.983 107.731)">
        <path id="Path_41645" data-name="Path 41645" d="M274.466,183.736a138.064,138.064,0,0,1,.058,51.158,160.79,160.79,0,0,0,32.638,38.834,161.59,161.59,0,0,0,.079-50.736,136.717,136.717,0,0,1-32.776-39.256" transform="translate(-113.024 10.361)" fill="none" stroke="#a3c854" stroke-width="1" fill-rule="evenodd"/>
        <path id="Path_41646" data-name="Path 41646" d="M322.383,308.8a137.386,137.386,0,0,1-.084-51.131,161.02,161.02,0,0,0-32.628-38.818,161.919,161.919,0,0,0-.095,50.715A137.735,137.735,0,0,1,322.383,308.8" transform="translate(-195.625 -210.024)" fill="none" stroke="#a3c854" stroke-width="1" fill-rule="evenodd"/>
        <path id="Path_41647" data-name="Path 41647" d="M284.07,236.59A160.855,160.855,0,0,0,328,261.881a160.7,160.7,0,0,0-17.28-47.7,137.243,137.243,0,0,1-44.2-25.629A137.541,137.541,0,0,1,284.07,236.59" transform="translate(-89.852 -3.237)" fill="none" stroke="#a3c854" stroke-width="1" fill-rule="evenodd"/>
        <path id="Path_41648" data-name="Path 41648" d="M334.4,242.427a161.059,161.059,0,0,0-43.89-25.249,160.8,160.8,0,0,0,17.264,47.664,137.987,137.987,0,0,1,44.212,25.634A137.625,137.625,0,0,1,334.4,242.427" transform="translate(-240.451 -182.888)" fill="none" stroke="#a3c854" stroke-width="1" fill-rule="evenodd"/>
        <path id="Path_41649" data-name="Path 41649" d="M260.328,195.942a135.985,135.985,0,0,1,32.907,39.135,161.111,161.111,0,0,0,49.938,8.719,160.715,160.715,0,0,0-32.516-38.9,136.638,136.638,0,0,1-50.329-8.957" transform="translate(-72.37 -24.129)" fill="none" stroke="#a3c854" stroke-width="1" fill-rule="evenodd"/>
        <path id="Path_41650" data-name="Path 41650" d="M375.45,262.5a136.5,136.5,0,0,1-32.886-39.14,160.751,160.751,0,0,0-49.912-8.74,159.919,159.919,0,0,0,32.485,38.924A136.329,136.329,0,0,1,375.45,262.5" transform="translate(-275.246 -141.405)" fill="none" stroke="#a3c854" stroke-width="1" fill-rule="evenodd"/>
        <path id="Path_41651" data-name="Path 41651" d="M257.035,212.122a136.686,136.686,0,0,1,44.3,25.508,160.157,160.157,0,0,0,49.9-8.888A161.39,161.39,0,0,0,307.4,203.313a137,137,0,0,1-50.361,8.809" transform="translate(-63.044 -56.864)" fill="none" stroke="#a3c854" stroke-width="1" fill-rule="evenodd"/>
        <path id="Path_41652" data-name="Path 41652" d="M387.98,235.348a138.189,138.189,0,0,1-44.291-25.534,161.241,161.241,0,0,0-49.9,8.867,160.127,160.127,0,0,0,43.859,25.444,136.181,136.181,0,0,1,50.329-8.777" transform="translate(-293.792 -97.671)" fill="none" stroke="#a3c854" stroke-width="1" fill-rule="evenodd"/>
        <path id="Path_41653" data-name="Path 41653" d="M307.391,244.126a160.494,160.494,0,0,0,43.827-25.439,160.734,160.734,0,0,0-49.891-8.872,137.056,137.056,0,0,1-44.291,25.513,137.1,137.1,0,0,1,50.355,8.8" transform="translate(-63.04 -97.678)" fill="none" stroke="#a3c854" stroke-width="1" fill-rule="evenodd"/>
        <path id="Path_41654" data-name="Path 41654" d="M337.649,203.313a160.965,160.965,0,0,0-43.858,25.434,160.438,160.438,0,0,0,49.891,8.883,137.406,137.406,0,0,1,44.3-25.508,136.852,136.852,0,0,1-50.335-8.809" transform="translate(-293.791 -56.864)" fill="none" stroke="#a3c854" stroke-width="1" fill-rule="evenodd"/>
        <path id="Path_41655" data-name="Path 41655" d="M260.328,262.5a136.429,136.429,0,0,1,50.329-8.956,160.434,160.434,0,0,0,32.516-38.924,160.83,160.83,0,0,0-49.938,8.74,136,136,0,0,1-32.907,39.14" transform="translate(-72.37 -141.405)" fill="none" stroke="#a3c854" stroke-width="1" fill-rule="evenodd"/>
        <path id="Path_41656" data-name="Path 41656" d="M375.476,195.942a136.815,136.815,0,0,1-50.345,8.957,160.335,160.335,0,0,0-32.485,38.9,161.006,161.006,0,0,0,49.912-8.719,136.106,136.106,0,0,1,32.917-39.135" transform="translate(-275.24 -24.129)" fill="none" stroke="#a3c854" stroke-width="1" fill-rule="evenodd"/>
        <path id="Path_41657" data-name="Path 41657" d="M315.871,267.069a161.343,161.343,0,0,0-17.422-47.643,161.3,161.3,0,0,0-17.412,47.643,137.785,137.785,0,0,1,17.412,48.081,137.677,137.677,0,0,1,17.422-48.081" transform="translate(-154.365 -219.426)" fill="none" stroke="#a3c854" stroke-width="1" fill-rule="evenodd"/>
        <path id="Path_41658" data-name="Path 41658" d="M274.466,308.8a137.052,137.052,0,0,1,32.776-39.235,161.46,161.46,0,0,0-.079-50.715,160.813,160.813,0,0,0-32.638,38.818,137.929,137.929,0,0,1-.058,51.131" transform="translate(-113.024 -210.024)" fill="none" stroke="#a3c854" stroke-width="1" fill-rule="evenodd"/>
        <path id="Path_41659" data-name="Path 41659" d="M310.712,264.842a160.268,160.268,0,0,0,17.28-47.664,161.25,161.25,0,0,0-43.927,25.249,137.7,137.7,0,0,1-17.549,48.049,137.574,137.574,0,0,1,44.2-25.634" transform="translate(-89.847 -182.888)" fill="none" stroke="#a3c854" stroke-width="1" fill-rule="evenodd"/>
        <path id="Path_41660" data-name="Path 41660" d="M281.037,230.152A161.01,161.01,0,0,0,298.443,277.8a161.214,161.214,0,0,0,17.422-47.648,137.577,137.577,0,0,1-17.422-48.086,137.569,137.569,0,0,1-17.406,48.086" transform="translate(-154.359 15.102)" fill="none" stroke="#a3c854" stroke-width="1" fill-rule="evenodd"/>
        <path id="Path_41661" data-name="Path 41661" d="M322.383,183.736a137.4,137.4,0,0,1-32.807,39.256,162.05,162.05,0,0,0,.095,50.736A160.494,160.494,0,0,0,322.3,234.894a137.521,137.521,0,0,1,.084-51.158" transform="translate(-195.625 10.361)" fill="none" stroke="#a3c854" stroke-width="1" fill-rule="evenodd"/>
        <path id="Path_41662" data-name="Path 41662" d="M307.764,214.2a160.932,160.932,0,0,0-17.258,47.7A160.668,160.668,0,0,0,334.4,236.6a137.857,137.857,0,0,1,17.585-48.044,137.761,137.761,0,0,1-44.217,25.64" transform="translate(-240.451 -3.248)" fill="none" stroke="#a3c854" stroke-width="1" fill-rule="evenodd"/>
      </g>
    </g>
  </g>
</svg>
