<svg xmlns="http://www.w3.org/2000/svg" xmlns:xlink="http://www.w3.org/1999/xlink" width="172" height="279" viewBox="0 0 172 279">
  <defs>
    <clipPath id="clip-path">
      <rect id="Rectangle_2159" data-name="Rectangle 2159" width="172" height="279" rx="20" fill="#129048" opacity="0.05"/>
    </clipPath>
  </defs>
  <g id="Mask_Group_30" data-name="Mask Group 30" clip-path="url(#clip-path)">
    <g id="Group_4519" data-name="Group 4519" transform="translate(84.766 168.375)" opacity="0.4">
      <path id="Path_41663" data-name="Path 41663" d="M302.592,183.938a132.331,132.331,0,0,0-12.348-22.283A130.789,130.789,0,0,0,277.9,183.938a84.9,84.9,0,0,1,12.347,16.843,84.076,84.076,0,0,1,12.348-16.843" transform="translate(-199.403 -161.655)" fill="none" stroke="#a3c854" stroke-width="1" fill-rule="evenodd"/>
      <path id="Path_41664" data-name="Path 41664" d="M277.9,254.413a130.812,130.812,0,0,0,12.347,22.28,132.293,132.293,0,0,0,12.349-22.28,84.376,84.376,0,0,1-12.349-16.849A85.28,85.28,0,0,1,277.9,254.413" transform="translate(-199.403 -92.045)" fill="none" stroke="#a3c854" stroke-width="1" fill-rule="evenodd"/>
      <path id="Path_41665" data-name="Path 41665" d="M288.985,181.275a130.592,130.592,0,0,0-19.2-16.714,130.889,130.889,0,0,0-3.98,25.168,85.294,85.294,0,0,1,17.347,11.592,85.228,85.228,0,0,1,5.833-20.046" transform="translate(-210.491 -158.991)" fill="none" stroke="#a3c854" stroke-width="1" fill-rule="evenodd"/>
      <path id="Path_41666" data-name="Path 41666" d="M290.779,255.947a130.579,130.579,0,0,0,19.2,16.715,132.146,132.146,0,0,0,3.976-25.157,85.669,85.669,0,0,1-17.349-11.613,85.664,85.664,0,0,1-5.828,20.056" transform="translate(-187.59 -93.579)" fill="none" stroke="#a3c854" stroke-width="1" fill-rule="evenodd"/>
      <path id="Path_41667" data-name="Path 41667" d="M277.171,182.06a131.863,131.863,0,0,0-23.759-9.14,130.509,130.509,0,0,0,4.862,25.019,84.449,84.449,0,0,1,20.261,4.957,84.439,84.439,0,0,1-1.363-20.836" transform="translate(-221.857 -151.325)" fill="none" stroke="#a3c854" stroke-width="1" fill-rule="evenodd"/>
      <path id="Path_41668" data-name="Path 41668" d="M303.525,251.93a131,131,0,0,0,23.758,9.121,130.384,130.384,0,0,0-4.862-25.009,84.43,84.43,0,0,1-20.267-4.977,84.624,84.624,0,0,1,1.371,20.865" transform="translate(-177.159 -98.005)" fill="none" stroke="#a3c854" stroke-width="1" fill-rule="evenodd"/>
      <path id="Path_41669" data-name="Path 41669" d="M276.52,205.5a85.689,85.689,0,0,1-8.4-19.115,130.074,130.074,0,0,0-25.454-.451,131.794,131.794,0,0,0,13.1,21.835,84.762,84.762,0,0,1,20.75-2.27" transform="translate(-231.708 -139.775)" fill="none" stroke="#a3c854" stroke-width="1" fill-rule="evenodd"/>
      <path id="Path_41670" data-name="Path 41670" d="M308.34,224.782a84.056,84.056,0,0,1,8.41,19.113,132.051,132.051,0,0,0,25.458.458A130.433,130.433,0,0,0,329.1,222.5a84.769,84.769,0,0,1-20.756,2.281" transform="translate(-171.486 -105.858)" fill="none" stroke="#a3c854" stroke-width="1" fill-rule="evenodd"/>
      <path id="Path_41671" data-name="Path 41671" d="M261.014,197.127a130.533,130.533,0,0,0-24.062,8.291,132.12,132.12,0,0,0,19.785,16.032,84.65,84.65,0,0,1,18.718-9.236,85.764,85.764,0,0,1-14.441-15.087" transform="translate(-236.951 -129.127)" fill="none" stroke="#a3c854" stroke-width="1" fill-rule="evenodd"/>
      <path id="Path_41672" data-name="Path 41672" d="M330.344,209.815a84.3,84.3,0,0,1-18.706,9.24,84.753,84.753,0,0,1,14.435,15.079,129.847,129.847,0,0,0,24.061-8.285,129.977,129.977,0,0,0-19.789-16.034" transform="translate(-168.462 -117.491)" fill="none" stroke="#a3c854" stroke-width="1" fill-rule="evenodd"/>
      <path id="Path_41673" data-name="Path 41673" d="M275.452,219.056a84.224,84.224,0,0,1-18.716-9.242,131.185,131.185,0,0,0-19.784,16.036,130.413,130.413,0,0,0,24.059,8.285,85.272,85.272,0,0,1,14.441-15.079" transform="translate(-236.95 -117.492)" fill="none" stroke="#a3c854" stroke-width="1" fill-rule="evenodd"/>
      <path id="Path_41674" data-name="Path 41674" d="M311.638,212.212a84.809,84.809,0,0,1,18.706,9.238,130.78,130.78,0,0,0,19.789-16.032,129.681,129.681,0,0,0-24.061-8.291,85.168,85.168,0,0,1-14.435,15.085" transform="translate(-168.462 -129.127)" fill="none" stroke="#a3c854" stroke-width="1" fill-rule="evenodd"/>
      <path id="Path_41675" data-name="Path 41675" d="M255.77,222.5a131.175,131.175,0,0,0-13.1,21.854,131.849,131.849,0,0,0,25.454-.458,85.65,85.65,0,0,1,8.4-19.115,84.66,84.66,0,0,1-20.75-2.281" transform="translate(-231.708 -105.859)" fill="none" stroke="#a3c854" stroke-width="1" fill-rule="evenodd"/>
      <path id="Path_41676" data-name="Path 41676" d="M329.1,207.775a131.058,131.058,0,0,0,13.111-21.85,131.747,131.747,0,0,0-25.46.464,83.9,83.9,0,0,1-8.406,19.115,84.782,84.782,0,0,1,20.755,2.272" transform="translate(-171.485 -139.775)" fill="none" stroke="#a3c854" stroke-width="1" fill-rule="evenodd"/>
      <path id="Path_41677" data-name="Path 41677" d="M278.533,231.066a84.781,84.781,0,0,1-20.261,4.975,130.28,130.28,0,0,0-4.86,25.011,131.488,131.488,0,0,0,23.757-9.125,84.572,84.572,0,0,1,1.363-20.861" transform="translate(-221.856 -98.004)" fill="none" stroke="#a3c854" stroke-width="1" fill-rule="evenodd"/>
      <path id="Path_41678" data-name="Path 41678" d="M302.154,202.9a84.266,84.266,0,0,1,20.267-4.957,130.361,130.361,0,0,0,4.862-25.019,130.612,130.612,0,0,0-23.759,9.127,84.389,84.389,0,0,1-1.369,20.849" transform="translate(-177.159 -151.325)" fill="none" stroke="#a3c854" stroke-width="1" fill-rule="evenodd"/>
      <path id="Path_41679" data-name="Path 41679" d="M265.8,247.5a131.089,131.089,0,0,0,3.98,25.157,131.1,131.1,0,0,0,19.2-16.715,85.36,85.36,0,0,1-5.833-20.056A85.681,85.681,0,0,1,265.8,247.5" transform="translate(-210.491 -93.579)" fill="none" stroke="#a3c854" stroke-width="1" fill-rule="evenodd"/>
      <path id="Path_41680" data-name="Path 41680" d="M313.956,189.715a131.973,131.973,0,0,0-3.974-25.155,129.8,129.8,0,0,0-19.2,16.716,85.325,85.325,0,0,1,5.83,20.044,85.475,85.475,0,0,1,17.347-11.606" transform="translate(-187.59 -158.991)" fill="none" stroke="#a3c854" stroke-width="1" fill-rule="evenodd"/>
      <path id="Path_41681" data-name="Path 41681" d="M286.707,207.43a58.551,58.551,0,0,1,6.328-17.307,84.513,84.513,0,0,0-12.347-16.843,85.162,85.162,0,0,0-5.834,20.046,58.347,58.347,0,0,1,11.853,14.1" transform="translate(-202.193 -150.995)" fill="none" stroke="#a3c854" stroke-width="1" fill-rule="evenodd"/>
      <path id="Path_41682" data-name="Path 41682" d="M290.66,228.536a58.538,58.538,0,0,1-6.322,17.305,84.625,84.625,0,0,0,12.348,16.851,85.649,85.649,0,0,0,5.829-20.058,58.455,58.455,0,0,1-11.855-14.1" transform="translate(-193.496 -100.324)" fill="none" stroke="#a3c854" stroke-width="1" fill-rule="evenodd"/>
      <path id="Path_41683" data-name="Path 41683" d="M267.23,198.523a58.48,58.48,0,0,1,15.955,9.186,58.633,58.633,0,0,1,.031-18.428,85.3,85.3,0,0,0-17.349-11.592,84.336,84.336,0,0,0,1.363,20.834" transform="translate(-210.554 -146.952)" fill="none" stroke="#a3c854" stroke-width="1" fill-rule="evenodd"/>
      <path id="Path_41684" data-name="Path 41684" d="M309.8,235.453a58.448,58.448,0,0,1-15.942-9.171,58.871,58.871,0,0,1-.035,18.421,85.56,85.56,0,0,0,17.345,11.611,84.491,84.491,0,0,0-1.369-20.861" transform="translate(-184.801 -102.391)" fill="none" stroke="#a3c854" stroke-width="1" fill-rule="evenodd"/>
      <path id="Path_41685" data-name="Path 41685" d="M282.484,208.253a58.261,58.261,0,0,1-6.276-17.324,84.359,84.359,0,0,0-20.261-4.957,85.558,85.558,0,0,0,8.4,19.115,58.519,58.519,0,0,1,18.139,3.167" transform="translate(-219.531 -139.357)" fill="none" stroke="#a3c854" stroke-width="1" fill-rule="evenodd"/>
      <path id="Path_41686" data-name="Path 41686" d="M298.884,222.035a58.41,58.41,0,0,1,6.269,17.313,84.508,84.508,0,0,0,20.267,4.975,84.053,84.053,0,0,0-8.408-19.113,58.365,58.365,0,0,1-18.127-3.174" transform="translate(-180.157 -106.286)" fill="none" stroke="#a3c854" stroke-width="1" fill-rule="evenodd"/>
      <path id="Path_41687" data-name="Path 41687" d="M263.943,213.308a58.235,58.235,0,0,1,18.123-3.226,58.434,58.434,0,0,1-11.813-14.13,84.8,84.8,0,0,0-20.752,2.272,85.632,85.632,0,0,0,14.441,15.085" transform="translate(-225.442 -130.222)" fill="none" stroke="#a3c854" stroke-width="1" fill-rule="evenodd"/>
      <path id="Path_41688" data-name="Path 41688" d="M320.307,214.635a58.62,58.62,0,0,1-18.121,3.223,58.157,58.157,0,0,1,11.8,14.136,84.606,84.606,0,0,0,20.757-2.279,84.763,84.763,0,0,0-14.435-15.079" transform="translate(-177.13 -113.071)" fill="none" stroke="#a3c854" stroke-width="1" fill-rule="evenodd"/>
      <path id="Path_41689" data-name="Path 41689" d="M281.909,214.234A58.635,58.635,0,0,1,265.99,205a84.652,84.652,0,0,0-18.718,9.238,84.232,84.232,0,0,0,18.718,9.24,58.3,58.3,0,0,1,15.919-9.24" transform="translate(-227.486 -121.911)" fill="none" stroke="#a3c854" stroke-width="1" fill-rule="evenodd"/>
      <path id="Path_41690" data-name="Path 41690" d="M303.328,214.234a58.136,58.136,0,0,1,15.93,9.24,84.35,84.35,0,0,0,18.706-9.24A84.772,84.772,0,0,0,319.259,205a58.473,58.473,0,0,1-15.93,9.238" transform="translate(-176.082 -121.911)" fill="none" stroke="#a3c854" stroke-width="1" fill-rule="evenodd"/>
      <path id="Path_41691" data-name="Path 41691" d="M270.253,232a58.275,58.275,0,0,1,11.813-14.138,58.383,58.383,0,0,1-18.122-3.223A85.327,85.327,0,0,0,249.5,229.714,84.842,84.842,0,0,0,270.253,232" transform="translate(-225.441 -113.071)" fill="none" stroke="#a3c854" stroke-width="1" fill-rule="evenodd"/>
      <path id="Path_41692" data-name="Path 41692" d="M313.984,195.951a58.2,58.2,0,0,1-11.8,14.128,58.342,58.342,0,0,1,18.121,3.228,85.1,85.1,0,0,0,14.433-15.087,84.682,84.682,0,0,0-20.755-2.27" transform="translate(-177.13 -130.222)" fill="none" stroke="#a3c854" stroke-width="1" fill-rule="evenodd"/>
      <path id="Path_41693" data-name="Path 41693" d="M282.484,222.035a58.417,58.417,0,0,1-18.139,3.174,85.469,85.469,0,0,0-8.4,19.113,84.7,84.7,0,0,0,20.261-4.975,58.213,58.213,0,0,1,6.276-17.313" transform="translate(-219.531 -106.286)" fill="none" stroke="#a3c854" stroke-width="1" fill-rule="evenodd"/>
      <path id="Path_41694" data-name="Path 41694" d="M298.884,208.253a58.468,58.468,0,0,1,18.127-3.167,84.139,84.139,0,0,0,8.408-19.115,84.261,84.261,0,0,0-20.267,4.957,58.458,58.458,0,0,1-6.269,17.324" transform="translate(-180.157 -139.357)" fill="none" stroke="#a3c854" stroke-width="1" fill-rule="evenodd"/>
      <path id="Path_41695" data-name="Path 41695" d="M286.707,228.536a58.316,58.316,0,0,1-11.853,14.1,85.363,85.363,0,0,0,5.834,20.058,85.016,85.016,0,0,0,12.347-16.851,58.6,58.6,0,0,1-6.328-17.305" transform="translate(-202.193 -100.324)" fill="none" stroke="#a3c854" stroke-width="1" fill-rule="evenodd"/>
      <path id="Path_41696" data-name="Path 41696" d="M283.186,226.282a58.57,58.57,0,0,1-15.955,9.171,84.575,84.575,0,0,0-1.363,20.863A85.659,85.659,0,0,0,283.214,244.7a58.646,58.646,0,0,1-.029-18.421" transform="translate(-210.554 -102.391)" fill="none" stroke="#a3c854" stroke-width="1" fill-rule="evenodd"/>
      <path id="Path_41697" data-name="Path 41697" d="M290.66,207.43a58.34,58.34,0,0,1,11.855-14.1,85.258,85.258,0,0,0-5.829-20.046,84.126,84.126,0,0,0-12.348,16.843,58.493,58.493,0,0,1,6.322,17.307" transform="translate(-193.496 -150.995)" fill="none" stroke="#a3c854" stroke-width="1" fill-rule="evenodd"/>
      <path id="Path_41698" data-name="Path 41698" d="M293.855,207.716A58.36,58.36,0,0,1,309.8,198.53a84.464,84.464,0,0,0,1.369-20.848,85.512,85.512,0,0,0-17.347,11.607,58.79,58.79,0,0,1,.036,18.426" transform="translate(-184.802 -146.958)" fill="none" stroke="#a3c854" stroke-width="1" fill-rule="evenodd"/>
      <path id="Path_41699" data-name="Path 41699" d="M295.455,209.676a49.662,49.662,0,0,0-11.9-14.259,49.945,49.945,0,0,0,6.376,17.447,49.849,49.849,0,0,0-16.055-9.309,49.469,49.469,0,0,0,11.951,14.215,49.548,49.548,0,0,0-18.279-3.251,49.7,49.7,0,0,0,16.088,9.265,49.758,49.758,0,0,0-18.29,3.2,49.8,49.8,0,0,0,18.29,3.2,49.767,49.767,0,0,0-16.088,9.267,49.552,49.552,0,0,0,18.279-3.253,49.476,49.476,0,0,0-11.951,14.217,50.032,50.032,0,0,0,16.055-9.311,49.932,49.932,0,0,0-6.376,17.453,49.784,49.784,0,0,0,11.9-14.251,50.1,50.1,0,0,0-.021,18.572,50.064,50.064,0,0,0,6.326-17.462,50.1,50.1,0,0,0,6.322,17.462,49.9,49.9,0,0,0-.027-18.572,50.023,50.023,0,0,0,11.914,14.251,49.92,49.92,0,0,0-6.386-17.453,50.191,50.191,0,0,0,16.059,9.311A49.6,49.6,0,0,0,317.7,236.192a49.519,49.519,0,0,0,18.275,3.253,50.154,50.154,0,0,0-16.09-9.276,49.506,49.506,0,0,0,18.281-3.186,49.664,49.664,0,0,0-18.281-3.2,49.889,49.889,0,0,0,16.09-9.265,49.613,49.613,0,0,0-18.286,3.251,49.46,49.46,0,0,0,11.956-14.215,50.125,50.125,0,0,0-16.059,9.313,49.978,49.978,0,0,0,6.386-17.451,49.9,49.9,0,0,0-11.914,14.259,49.948,49.948,0,0,0,.027-18.582,49.951,49.951,0,0,0-6.322,17.466,49.917,49.917,0,0,0-6.326-17.466,50.148,50.148,0,0,0,.021,18.582" transform="translate(-210.918 -134.659)" fill="none" stroke="#a3c854" stroke-width="1" fill-rule="evenodd"/>
      <g id="Group_4518" data-name="Group 4518" transform="translate(38.501 39.128)">
        <path id="Path_41700" data-name="Path 41700" d="M287.085,216.423a50.148,50.148,0,0,1-.021-18.582,58.4,58.4,0,0,0-11.855-14.105,58.693,58.693,0,0,0-.029,18.428,49.659,49.659,0,0,1,11.9,14.259" transform="translate(-241.05 -180.535)" fill="none" stroke="#a3c854" stroke-width="1" fill-rule="evenodd"/>
        <path id="Path_41701" data-name="Path 41701" d="M287.621,218.848a49.9,49.9,0,0,1,.031,18.572,58.486,58.486,0,0,0,11.851,14.1,58.812,58.812,0,0,0,.034-18.421,50.028,50.028,0,0,1-11.916-14.251" transform="translate(-228.987 -148.336)" fill="none" stroke="#a3c854" stroke-width="1" fill-rule="evenodd"/>
        <path id="Path_41702" data-name="Path 41702" d="M282.471,197.743a58.426,58.426,0,0,0-15.955-9.186,58.37,58.37,0,0,0,6.276,17.324,49.851,49.851,0,0,1,16.055,9.309,49.958,49.958,0,0,1-6.376-17.447" transform="translate(-248.341 -176.114)" fill="none" stroke="#a3c854" stroke-width="1" fill-rule="evenodd"/>
        <path id="Path_41703" data-name="Path 41703" d="M296.894,234.63a58.5,58.5,0,0,0,15.942,9.171,58.406,58.406,0,0,0-6.271-17.313,50.12,50.12,0,0,1-16.059-9.311,49.988,49.988,0,0,1,6.387,17.452" transform="translate(-226.342 -149.868)" fill="none" stroke="#a3c854" stroke-width="1" fill-rule="evenodd"/>
        <path id="Path_41704" data-name="Path 41704" d="M290.419,213.324a49.393,49.393,0,0,1-11.953-14.215,58.519,58.519,0,0,0-18.139-3.167,58.376,58.376,0,0,0,11.811,14.128,49.63,49.63,0,0,1,18.281,3.253" transform="translate(-254.015 -169.342)" fill="none" stroke="#a3c854" stroke-width="1" fill-rule="evenodd"/>
        <path id="Path_41705" data-name="Path 41705" d="M292.652,214.619A49.58,49.58,0,0,1,304.6,228.836a58.388,58.388,0,0,0,18.129,3.175,58.086,58.086,0,0,0-11.8-14.138,49.517,49.517,0,0,1-18.275-3.253" transform="translate(-224.374 -152.215)" fill="none" stroke="#a3c854" stroke-width="1" fill-rule="evenodd"/>
        <path id="Path_41706" data-name="Path 41706" d="M291.248,212.578a49.647,49.647,0,0,1-16.089-9.265,58.173,58.173,0,0,0-18.123,3.228,58.62,58.62,0,0,0,15.921,9.236,49.761,49.761,0,0,1,18.292-3.2" transform="translate(-257.035 -162.582)" fill="none" stroke="#a3c854" stroke-width="1" fill-rule="evenodd"/>
        <path id="Path_41707" data-name="Path 41707" d="M293.792,213a50.194,50.194,0,0,1,16.088,9.275A58.566,58.566,0,0,0,328,219.056a58.161,58.161,0,0,0-15.93-9.242A49.464,49.464,0,0,1,293.792,213" transform="translate(-223.328 -156.621)" fill="none" stroke="#a3c854" stroke-width="1" fill-rule="evenodd"/>
        <path id="Path_41708" data-name="Path 41708" d="M272.955,209.815a58.3,58.3,0,0,0-15.919,9.24,58.382,58.382,0,0,0,18.122,3.223,49.782,49.782,0,0,1,16.088-9.267,49.8,49.8,0,0,1-18.29-3.2" transform="translate(-257.034 -156.62)" fill="none" stroke="#a3c854" stroke-width="1" fill-rule="evenodd"/>
        <path id="Path_41709" data-name="Path 41709" d="M312.074,215.777A58.466,58.466,0,0,0,328,206.539a58.275,58.275,0,0,0-18.122-3.226,49.908,49.908,0,0,1-16.092,9.265,49.708,49.708,0,0,1,18.283,3.2" transform="translate(-223.329 -162.582)" fill="none" stroke="#a3c854" stroke-width="1" fill-rule="evenodd"/>
        <path id="Path_41710" data-name="Path 41710" d="M290.419,214.619a49.554,49.554,0,0,1-18.281,3.253,58.273,58.273,0,0,0-11.811,14.138,58.417,58.417,0,0,0,18.139-3.175,49.4,49.4,0,0,1,11.953-14.217" transform="translate(-254.015 -152.215)" fill="none" stroke="#a3c854" stroke-width="1" fill-rule="evenodd"/>
        <path id="Path_41711" data-name="Path 41711" d="M292.646,213.324a49.694,49.694,0,0,1,18.286-3.253,58.237,58.237,0,0,0,11.8-14.128,58.481,58.481,0,0,0-18.129,3.167,49.437,49.437,0,0,1-11.956,14.215" transform="translate(-224.379 -169.342)" fill="none" stroke="#a3c854" stroke-width="1" fill-rule="evenodd"/>
        <path id="Path_41712" data-name="Path 41712" d="M281.037,236.89a58.6,58.6,0,0,0,6.328,17.3,58.587,58.587,0,0,0,6.324-17.3,50.047,50.047,0,0,1-6.324-17.464,50.006,50.006,0,0,1-6.328,17.464" transform="translate(-235.025 -147.806)" fill="none" stroke="#a3c854" stroke-width="1" fill-rule="evenodd"/>
        <path id="Path_41713" data-name="Path 41713" d="M287.085,218.848a49.78,49.78,0,0,1-11.9,14.251,58.646,58.646,0,0,0,.029,18.421,58.411,58.411,0,0,0,11.855-14.1,50.1,50.1,0,0,1,.021-18.572" transform="translate(-241.05 -148.336)" fill="none" stroke="#a3c854" stroke-width="1" fill-rule="evenodd"/>
        <path id="Path_41714" data-name="Path 41714" d="M272.792,226.489a58.213,58.213,0,0,0-6.276,17.313,58.57,58.57,0,0,0,15.955-9.171,50.015,50.015,0,0,1,6.374-17.452,49.97,49.97,0,0,1-16.053,9.311" transform="translate(-248.341 -149.868)" fill="none" stroke="#a3c854" stroke-width="1" fill-rule="evenodd"/>
        <path id="Path_41715" data-name="Path 41715" d="M293.688,199.373a58.483,58.483,0,0,0-6.322-17.307,58.557,58.557,0,0,0-6.328,17.307,49.971,49.971,0,0,1,6.328,17.466,49.969,49.969,0,0,1,6.322-17.466" transform="translate(-235.025 -182.066)" fill="none" stroke="#a3c854" stroke-width="1" fill-rule="evenodd"/>
        <path id="Path_41716" data-name="Path 41716" d="M287.621,216.423a49.9,49.9,0,0,1,11.916-14.259,58.86,58.86,0,0,0-.034-18.428,58.3,58.3,0,0,0-11.851,14.105,49.951,49.951,0,0,1-.031,18.582" transform="translate(-228.987 -180.535)" fill="none" stroke="#a3c854" stroke-width="1" fill-rule="evenodd"/>
        <path id="Path_41717" data-name="Path 41717" d="M306.567,205.881a58.454,58.454,0,0,0,6.269-17.324,58.358,58.358,0,0,0-15.942,9.186,50.072,50.072,0,0,1-6.387,17.451,50.038,50.038,0,0,1,16.061-9.313" transform="translate(-226.342 -176.114)" fill="none" stroke="#a3c854" stroke-width="1" fill-rule="evenodd"/>
      </g>
    </g>
  </g>
</svg>
