<svg xmlns="http://www.w3.org/2000/svg" xmlns:xlink="http://www.w3.org/1999/xlink" width="172" height="279" viewBox="0 0 172 279">
  <defs>
    <clipPath id="clip-path">
      <rect id="Rectangle_2156" data-name="Rectangle 2156" width="172" height="279" rx="20" fill="#129048" opacity="0.05"/>
    </clipPath>
  </defs>
  <g id="Mask_Group_28" data-name="Mask Group 28" clip-path="url(#clip-path)">
    <g id="Group_4501" data-name="Group 4501" transform="translate(-94.438 -74.022)" opacity="0.4">
      <path id="Path_41608" data-name="Path 41608" d="M277.9,178.5a132.331,132.331,0,0,0,12.348,22.283A130.789,130.789,0,0,0,302.592,178.5a84.9,84.9,0,0,1-12.347-16.843A84.076,84.076,0,0,1,277.9,178.5" transform="translate(-199.415 -16.134)" fill="none" stroke="#a3c854" stroke-width="1" fill-rule="evenodd"/>
      <path id="Path_41609" data-name="Path 41609" d="M302.594,259.844a130.814,130.814,0,0,0-12.347-22.28,132.293,132.293,0,0,0-12.349,22.28,84.376,84.376,0,0,1,12.349,16.849,85.28,85.28,0,0,1,12.347-16.849" transform="translate(-199.417 -237.564)" fill="none" stroke="#a3c854" stroke-width="1" fill-rule="evenodd"/>
      <path id="Path_41610" data-name="Path 41610" d="M265.8,184.606a130.592,130.592,0,0,0,19.2,16.714,130.889,130.889,0,0,0,3.98-25.168,85.294,85.294,0,0,1-17.347-11.592,85.228,85.228,0,0,1-5.833,20.046" transform="translate(-162.627 -22.243)" fill="none" stroke="#a3c854" stroke-width="1" fill-rule="evenodd"/>
      <path id="Path_41611" data-name="Path 41611" d="M313.956,252.605a130.579,130.579,0,0,0-19.2-16.715,132.146,132.146,0,0,0-3.976,25.157,85.669,85.669,0,0,1,17.349,11.613,85.664,85.664,0,0,1,5.828-20.056" transform="translate(-235.473 -230.326)" fill="none" stroke="#a3c854" stroke-width="1" fill-rule="evenodd"/>
      <path id="Path_41612" data-name="Path 41612" d="M254.774,193.756a131.862,131.862,0,0,0,23.759,9.14,130.509,130.509,0,0,0-4.862-25.019,84.45,84.45,0,0,1-20.261-4.957,84.438,84.438,0,0,1,1.363,20.836" transform="translate(-128.416 -39.844)" fill="none" stroke="#a3c854" stroke-width="1" fill-rule="evenodd"/>
      <path id="Path_41613" data-name="Path 41613" d="M325.912,240.186a131,131,0,0,0-23.758-9.121,130.384,130.384,0,0,0,4.862,25.009,84.43,84.43,0,0,1,20.267,4.977,84.624,84.624,0,0,1-1.371-20.865" transform="translate(-270.606 -209.464)" fill="none" stroke="#a3c854" stroke-width="1" fill-rule="evenodd"/>
      <path id="Path_41614" data-name="Path 41614" d="M242.669,187.785a85.689,85.689,0,0,1,8.4,19.115,130.074,130.074,0,0,0,25.454.451,131.794,131.794,0,0,0-13.1-21.835,84.762,84.762,0,0,1-20.75,2.27" transform="translate(-105.81 -68.867)" fill="none" stroke="#a3c854" stroke-width="1" fill-rule="evenodd"/>
      <path id="Path_41615" data-name="Path 41615" d="M342.208,242.483a84.056,84.056,0,0,1-8.41-19.113,132.051,132.051,0,0,0-25.458-.458,130.433,130.433,0,0,0,13.112,21.852,84.769,84.769,0,0,1,20.756-2.281" transform="translate(-297.39 -176.76)" fill="none" stroke="#a3c854" stroke-width="1" fill-rule="evenodd"/>
      <path id="Path_41616" data-name="Path 41616" d="M251.392,221.45a130.533,130.533,0,0,0,24.062-8.291,132.12,132.12,0,0,0-19.785-16.032,84.65,84.65,0,0,1-18.718,9.236,85.764,85.764,0,0,1,14.441,15.087" transform="translate(-93.783 -104.803)" fill="none" stroke="#a3c854" stroke-width="1" fill-rule="evenodd"/>
      <path id="Path_41617" data-name="Path 41617" d="M331.427,234.134a84.3,84.3,0,0,1,18.706-9.24A84.753,84.753,0,0,1,335.7,209.815a129.847,129.847,0,0,0-24.061,8.285,129.977,129.977,0,0,0,19.789,16.034" transform="translate(-311.638 -141.811)" fill="none" stroke="#a3c854" stroke-width="1" fill-rule="evenodd"/>
      <path id="Path_41618" data-name="Path 41618" d="M236.952,224.893a84.224,84.224,0,0,1,18.716,9.242A131.185,131.185,0,0,0,275.452,218.1a130.413,130.413,0,0,0-24.059-8.285,85.272,85.272,0,0,1-14.441,15.079" transform="translate(-93.782 -141.81)" fill="none" stroke="#a3c854" stroke-width="1" fill-rule="evenodd"/>
      <path id="Path_41619" data-name="Path 41619" d="M350.134,206.365a84.809,84.809,0,0,1-18.706-9.238,130.78,130.78,0,0,0-19.789,16.032A129.681,129.681,0,0,0,335.7,221.45a85.168,85.168,0,0,1,14.435-15.085" transform="translate(-311.638 -104.803)" fill="none" stroke="#a3c854" stroke-width="1" fill-rule="evenodd"/>
      <path id="Path_41620" data-name="Path 41620" d="M263.419,244.765a131.175,131.175,0,0,0,13.1-21.854,131.849,131.849,0,0,0-25.454.458,85.65,85.65,0,0,1-8.4,19.115,84.66,84.66,0,0,1,20.75,2.281" transform="translate(-105.81 -176.759)" fill="none" stroke="#a3c854" stroke-width="1" fill-rule="evenodd"/>
      <path id="Path_41621" data-name="Path 41621" d="M321.452,185.515a131.058,131.058,0,0,0-13.111,21.85,131.747,131.747,0,0,0,25.46-.464,83.9,83.9,0,0,1,8.406-19.115,84.782,84.782,0,0,1-20.755-2.272" transform="translate(-297.391 -68.869)" fill="none" stroke="#a3c854" stroke-width="1" fill-rule="evenodd"/>
      <path id="Path_41622" data-name="Path 41622" d="M253.412,261.052a84.781,84.781,0,0,1,20.261-4.975,130.28,130.28,0,0,0,4.86-25.011,131.488,131.488,0,0,0-23.757,9.125,84.572,84.572,0,0,1-1.363,20.861" transform="translate(-128.417 -209.467)" fill="none" stroke="#a3c854" stroke-width="1" fill-rule="evenodd"/>
      <path id="Path_41623" data-name="Path 41623" d="M327.282,172.92a84.266,84.266,0,0,1-20.267,4.957,130.361,130.361,0,0,0-4.862,25.019,130.612,130.612,0,0,0,23.759-9.127,84.389,84.389,0,0,1,1.369-20.849" transform="translate(-270.606 -39.844)" fill="none" stroke="#a3c854" stroke-width="1" fill-rule="evenodd"/>
      <path id="Path_41624" data-name="Path 41624" d="M288.985,261.048a131.089,131.089,0,0,0-3.98-25.157,131.1,131.1,0,0,0-19.2,16.715,85.36,85.36,0,0,1,5.833,20.056,85.681,85.681,0,0,1,17.347-11.613" transform="translate(-162.627 -230.326)" fill="none" stroke="#a3c854" stroke-width="1" fill-rule="evenodd"/>
      <path id="Path_41625" data-name="Path 41625" d="M290.779,176.166a131.973,131.973,0,0,0,3.974,25.155,129.8,129.8,0,0,0,19.2-16.716,85.325,85.325,0,0,1-5.83-20.044,85.475,85.475,0,0,1-17.347,11.606" transform="translate(-235.473 -22.243)" fill="none" stroke="#a3c854" stroke-width="1" fill-rule="evenodd"/>
      <path id="Path_41626" data-name="Path 41626" d="M281.182,173.28a58.551,58.551,0,0,1-6.328,17.307A84.513,84.513,0,0,0,287.2,207.43a85.162,85.162,0,0,0,5.834-20.046,58.347,58.347,0,0,1-11.853-14.1" transform="translate(-184.024 -45.068)" fill="none" stroke="#a3c854" stroke-width="1" fill-rule="evenodd"/>
      <path id="Path_41627" data-name="Path 41627" d="M296.193,262.691a58.538,58.538,0,0,1,6.322-17.305,84.625,84.625,0,0,0-12.348-16.851,85.649,85.649,0,0,0-5.829,20.058,58.455,58.455,0,0,1,11.855,14.1" transform="translate(-211.685 -206.256)" fill="none" stroke="#a3c854" stroke-width="1" fill-rule="evenodd"/>
      <path id="Path_41628" data-name="Path 41628" d="M281.723,186.875a58.48,58.48,0,0,1-15.955-9.186,58.633,58.633,0,0,1-.031,18.428,85.3,85.3,0,0,0,17.349,11.592,84.336,84.336,0,0,0-1.363-20.834" transform="translate(-156.728 -53.8)" fill="none" stroke="#a3c854" stroke-width="1" fill-rule="evenodd"/>
      <path id="Path_41629" data-name="Path 41629" d="M295.318,247.143a58.448,58.448,0,0,1,15.942,9.171,58.871,58.871,0,0,1,.035-18.421,85.56,85.56,0,0,0-17.345-11.611,84.491,84.491,0,0,0,1.369,20.861" transform="translate(-238.642 -195.558)" fill="none" stroke="#a3c854" stroke-width="1" fill-rule="evenodd"/>
      <path id="Path_41630" data-name="Path 41630" d="M255.947,185.971a58.261,58.261,0,0,1,6.276,17.324,84.359,84.359,0,0,0,20.261,4.957,85.558,85.558,0,0,0-8.4-19.115,58.519,58.519,0,0,1-18.139-3.167" transform="translate(-137.228 -70.22)" fill="none" stroke="#a3c854" stroke-width="1" fill-rule="evenodd"/>
      <path id="Path_41631" data-name="Path 41631" d="M325.419,244.322a58.41,58.41,0,0,1-6.269-17.313,84.508,84.508,0,0,0-20.267-4.975,84.053,84.053,0,0,0,8.408,19.113,58.365,58.365,0,0,1,18.127,3.174" transform="translate(-262.474 -175.425)" fill="none" stroke="#a3c854" stroke-width="1" fill-rule="evenodd"/>
      <path id="Path_41632" data-name="Path 41632" d="M267.625,195.932a58.235,58.235,0,0,1-18.123,3.226,58.434,58.434,0,0,1,11.813,14.13,84.8,84.8,0,0,0,20.752-2.272,85.632,85.632,0,0,0-14.441-15.085" transform="translate(-124.455 -94.371)" fill="none" stroke="#a3c854" stroke-width="1" fill-rule="evenodd"/>
      <path id="Path_41633" data-name="Path 41633" d="M316.62,232.012a58.62,58.62,0,0,1,18.121-3.223,58.157,58.157,0,0,1-11.8-14.136,84.606,84.606,0,0,0-20.757,2.279,84.763,84.763,0,0,0,14.435,15.079" transform="translate(-278.125 -148.929)" fill="none" stroke="#a3c854" stroke-width="1" fill-rule="evenodd"/>
      <path id="Path_41634" data-name="Path 41634" d="M247.272,214.236a58.635,58.635,0,0,1,15.919,9.238,84.652,84.652,0,0,0,18.718-9.238A84.232,84.232,0,0,0,263.191,205a58.3,58.3,0,0,1-15.919,9.24" transform="translate(-120.022 -121.912)" fill="none" stroke="#a3c854" stroke-width="1" fill-rule="evenodd"/>
      <path id="Path_41635" data-name="Path 41635" d="M337.965,214.236a58.136,58.136,0,0,1-15.93-9.24,84.35,84.35,0,0,0-18.706,9.24,84.772,84.772,0,0,0,18.706,9.238,58.473,58.473,0,0,1,15.93-9.238" transform="translate(-283.539 -121.912)" fill="none" stroke="#a3c854" stroke-width="1" fill-rule="evenodd"/>
      <path id="Path_41636" data-name="Path 41636" d="M261.316,214.653A58.275,58.275,0,0,1,249.5,228.791a58.383,58.383,0,0,1,18.122,3.223,85.327,85.327,0,0,0,14.441-15.079,84.842,84.842,0,0,0-20.75-2.281" transform="translate(-124.456 -148.93)" fill="none" stroke="#a3c854" stroke-width="1" fill-rule="evenodd"/>
      <path id="Path_41637" data-name="Path 41637" d="M322.941,213.289a58.2,58.2,0,0,1,11.8-14.128,58.342,58.342,0,0,1-18.121-3.228,85.1,85.1,0,0,0-14.433,15.087,84.682,84.682,0,0,0,20.755,2.27" transform="translate(-278.123 -94.37)" fill="none" stroke="#a3c854" stroke-width="1" fill-rule="evenodd"/>
      <path id="Path_41638" data-name="Path 41638" d="M255.947,244.322a58.417,58.417,0,0,1,18.139-3.174,85.469,85.469,0,0,0,8.4-19.113,84.7,84.7,0,0,0-20.261,4.975,58.213,58.213,0,0,1-6.276,17.313" transform="translate(-137.228 -175.425)" fill="none" stroke="#a3c854" stroke-width="1" fill-rule="evenodd"/>
      <path id="Path_41639" data-name="Path 41639" d="M325.419,185.971a58.468,58.468,0,0,1-18.127,3.167,84.139,84.139,0,0,0-8.408,19.115,84.261,84.261,0,0,0,20.267-4.957,58.458,58.458,0,0,1,6.269-17.324" transform="translate(-262.474 -70.22)" fill="none" stroke="#a3c854" stroke-width="1" fill-rule="evenodd"/>
      <path id="Path_41640" data-name="Path 41640" d="M281.182,262.691a58.316,58.316,0,0,1,11.853-14.1,85.363,85.363,0,0,0-5.834-20.058,85.016,85.016,0,0,0-12.347,16.851,58.6,58.6,0,0,1,6.328,17.305" transform="translate(-184.024 -206.256)" fill="none" stroke="#a3c854" stroke-width="1" fill-rule="evenodd"/>
      <path id="Path_41641" data-name="Path 41641" d="M265.766,256.316a58.57,58.57,0,0,1,15.955-9.171,84.575,84.575,0,0,0,1.363-20.863A85.659,85.659,0,0,0,265.737,237.9a58.646,58.646,0,0,1,.029,18.421" transform="translate(-156.726 -195.56)" fill="none" stroke="#a3c854" stroke-width="1" fill-rule="evenodd"/>
      <path id="Path_41642" data-name="Path 41642" d="M296.193,173.28a58.34,58.34,0,0,1-11.855,14.1,85.258,85.258,0,0,0,5.829,20.046,84.126,84.126,0,0,0,12.348-16.843,58.493,58.493,0,0,1-6.322-17.307" transform="translate(-211.685 -45.068)" fill="none" stroke="#a3c854" stroke-width="1" fill-rule="evenodd"/>
      <path id="Path_41643" data-name="Path 41643" d="M311.259,177.682a58.36,58.36,0,0,1-15.942,9.186,84.464,84.464,0,0,0-1.369,20.848A85.512,85.512,0,0,0,311.3,196.109a58.79,58.79,0,0,1-.036-18.426" transform="translate(-238.641 -53.793)" fill="none" stroke="#a3c854" stroke-width="1" fill-rule="evenodd"/>
      <path id="Path_41644" data-name="Path 41644" d="M308.049,244.289a49.662,49.662,0,0,0,11.9,14.259,49.945,49.945,0,0,0-6.376-17.447,49.849,49.849,0,0,0,16.055,9.309A49.469,49.469,0,0,0,317.682,236.2a49.548,49.548,0,0,0,18.279,3.251,49.7,49.7,0,0,0-16.088-9.265,49.758,49.758,0,0,0,18.29-3.2,49.8,49.8,0,0,0-18.29-3.2,49.767,49.767,0,0,0,16.088-9.267,49.552,49.552,0,0,0-18.279,3.253,49.476,49.476,0,0,0,11.951-14.217,50.032,50.032,0,0,0-16.055,9.311,49.932,49.932,0,0,0,6.376-17.453,49.784,49.784,0,0,0-11.9,14.251,50.1,50.1,0,0,0,.021-18.572,50.064,50.064,0,0,0-6.326,17.462,50.1,50.1,0,0,0-6.322-17.462,49.9,49.9,0,0,0,.027,18.572,50.023,50.023,0,0,0-11.914-14.251,49.92,49.92,0,0,0,6.386,17.453,50.191,50.191,0,0,0-16.059-9.311,49.6,49.6,0,0,0,11.945,14.217,49.519,49.519,0,0,0-18.275-3.253,50.154,50.154,0,0,0,16.09,9.276,49.506,49.506,0,0,0-18.281,3.186,49.664,49.664,0,0,0,18.281,3.2,49.889,49.889,0,0,0-16.09,9.265,49.613,49.613,0,0,0,18.286-3.251,49.46,49.46,0,0,0-11.956,14.215A50.125,50.125,0,0,0,289.92,241.1a49.978,49.978,0,0,0-6.386,17.451,49.9,49.9,0,0,0,11.914-14.259,49.948,49.948,0,0,0-.027,18.582,49.951,49.951,0,0,0,6.322-17.466,49.917,49.917,0,0,0,6.326,17.466,50.148,50.148,0,0,0-.021-18.582" transform="translate(-210.914 -134.659)" fill="none" stroke="#a3c854" stroke-width="1" fill-rule="evenodd"/>
      <g id="Group_4500" data-name="Group 4500" transform="translate(38.496 39.13)">
        <path id="Path_41645" data-name="Path 41645" d="M274.466,183.736a50.148,50.148,0,0,1,.021,18.582,58.4,58.4,0,0,0,11.855,14.105,58.693,58.693,0,0,0,.029-18.428,49.659,49.659,0,0,1-11.9-14.259" transform="translate(-215.826 -113.236)" fill="none" stroke="#a3c854" stroke-width="1" fill-rule="evenodd"/>
        <path id="Path_41646" data-name="Path 41646" d="M300.247,251.52a49.9,49.9,0,0,1-.031-18.572,58.486,58.486,0,0,0-11.851-14.1,58.812,58.812,0,0,0-.034,18.421,50.028,50.028,0,0,1,11.916,14.251" transform="translate(-254.206 -215.643)" fill="none" stroke="#a3c854" stroke-width="1" fill-rule="evenodd"/>
        <path id="Path_41647" data-name="Path 41647" d="M272.892,206a58.426,58.426,0,0,0,15.955,9.186,58.37,58.37,0,0,0-6.276-17.324,49.851,49.851,0,0,1-16.055-9.309A49.958,49.958,0,0,1,272.892,206" transform="translate(-202.348 -121.245)" fill="none" stroke="#a3c854" stroke-width="1" fill-rule="evenodd"/>
        <path id="Path_41648" data-name="Path 41648" d="M306.448,226.349a58.5,58.5,0,0,0-15.942-9.171,58.406,58.406,0,0,0,6.271,17.313,50.12,50.12,0,0,1,16.059,9.311,49.988,49.988,0,0,1-6.387-17.452" transform="translate(-272.325 -204.723)" fill="none" stroke="#a3c854" stroke-width="1" fill-rule="evenodd"/>
        <path id="Path_41649" data-name="Path 41649" d="M260.328,195.942a49.393,49.393,0,0,1,11.953,14.215,58.519,58.519,0,0,0,18.139,3.167A58.376,58.376,0,0,0,278.609,199.2a49.63,49.63,0,0,1-18.281-3.253" transform="translate(-192.057 -133.536)" fill="none" stroke="#a3c854" stroke-width="1" fill-rule="evenodd"/>
        <path id="Path_41650" data-name="Path 41650" d="M322.726,232.01a49.58,49.58,0,0,1-11.945-14.217,58.388,58.388,0,0,0-18.129-3.175,58.086,58.086,0,0,0,11.8,14.138,49.517,49.517,0,0,1,18.275,3.253" transform="translate(-286.33 -188.026)" fill="none" stroke="#a3c854" stroke-width="1" fill-rule="evenodd"/>
        <path id="Path_41651" data-name="Path 41651" d="M257.035,206.512a49.647,49.647,0,0,1,16.089,9.265,58.173,58.173,0,0,0,18.123-3.228,58.62,58.62,0,0,0-15.921-9.236,49.761,49.761,0,0,1-18.292,3.2" transform="translate(-186.573 -150.12)" fill="none" stroke="#a3c854" stroke-width="1" fill-rule="evenodd"/>
        <path id="Path_41652" data-name="Path 41652" d="M328,219.089a50.194,50.194,0,0,1-16.088-9.275,58.566,58.566,0,0,0-18.123,3.221,58.161,58.161,0,0,0,15.93,9.242A49.464,49.464,0,0,1,328,219.089" transform="translate(-293.792 -169.081)" fill="none" stroke="#a3c854" stroke-width="1" fill-rule="evenodd"/>
        <path id="Path_41653" data-name="Path 41653" d="M275.326,222.277a58.3,58.3,0,0,0,15.919-9.24,58.382,58.382,0,0,0-18.122-3.223,49.782,49.782,0,0,1-16.088,9.267,49.8,49.8,0,0,1,18.29,3.2" transform="translate(-186.572 -169.084)" fill="none" stroke="#a3c854" stroke-width="1" fill-rule="evenodd"/>
        <path id="Path_41654" data-name="Path 41654" d="M309.721,203.313a58.466,58.466,0,0,0-15.93,9.238,58.275,58.275,0,0,0,18.122,3.226A49.908,49.908,0,0,1,328,206.512a49.708,49.708,0,0,1-18.283-3.2" transform="translate(-293.791 -150.12)" fill="none" stroke="#a3c854" stroke-width="1" fill-rule="evenodd"/>
        <path id="Path_41655" data-name="Path 41655" d="M260.328,232.01a49.554,49.554,0,0,1,18.281-3.253,58.273,58.273,0,0,0,11.811-14.138,58.417,58.417,0,0,0-18.139,3.175,49.4,49.4,0,0,1-11.953,14.217" transform="translate(-192.057 -188.026)" fill="none" stroke="#a3c854" stroke-width="1" fill-rule="evenodd"/>
        <path id="Path_41656" data-name="Path 41656" d="M322.732,195.942a49.694,49.694,0,0,1-18.286,3.253,58.237,58.237,0,0,0-11.8,14.128,58.481,58.481,0,0,0,18.129-3.167,49.437,49.437,0,0,1,11.956-14.215" transform="translate(-286.324 -133.536)" fill="none" stroke="#a3c854" stroke-width="1" fill-rule="evenodd"/>
        <path id="Path_41657" data-name="Path 41657" d="M293.689,236.731a58.6,58.6,0,0,0-6.328-17.3,58.587,58.587,0,0,0-6.324,17.3,50.047,50.047,0,0,1,6.324,17.464,50.006,50.006,0,0,1,6.328-17.464" transform="translate(-235.027 -219.426)" fill="none" stroke="#a3c854" stroke-width="1" fill-rule="evenodd"/>
        <path id="Path_41658" data-name="Path 41658" d="M274.466,251.52a49.78,49.78,0,0,1,11.9-14.251,58.646,58.646,0,0,0-.029-18.421,58.411,58.411,0,0,0-11.855,14.1,50.1,50.1,0,0,1-.021,18.572" transform="translate(-215.826 -215.643)" fill="none" stroke="#a3c854" stroke-width="1" fill-rule="evenodd"/>
        <path id="Path_41659" data-name="Path 41659" d="M282.569,234.491a58.213,58.213,0,0,0,6.276-17.313,58.57,58.57,0,0,0-15.955,9.171,50.015,50.015,0,0,1-6.374,17.452,49.97,49.97,0,0,1,16.053-9.311" transform="translate(-202.346 -204.723)" fill="none" stroke="#a3c854" stroke-width="1" fill-rule="evenodd"/>
        <path id="Path_41660" data-name="Path 41660" d="M281.037,199.532a58.483,58.483,0,0,0,6.322,17.307,58.557,58.557,0,0,0,6.328-17.307,49.971,49.971,0,0,1-6.328-17.466,49.969,49.969,0,0,1-6.322,17.466" transform="translate(-235.025 -110.45)" fill="none" stroke="#a3c854" stroke-width="1" fill-rule="evenodd"/>
        <path id="Path_41661" data-name="Path 41661" d="M300.247,183.736a49.9,49.9,0,0,1-11.916,14.259,58.86,58.86,0,0,0,.034,18.428,58.3,58.3,0,0,0,11.851-14.105,49.951,49.951,0,0,1,.031-18.582" transform="translate(-254.206 -113.236)" fill="none" stroke="#a3c854" stroke-width="1" fill-rule="evenodd"/>
        <path id="Path_41662" data-name="Path 41662" d="M296.775,197.87a58.454,58.454,0,0,0-6.269,17.324,58.358,58.358,0,0,0,15.942-9.186,50.072,50.072,0,0,1,6.387-17.451,50.038,50.038,0,0,1-16.061,9.313" transform="translate(-272.325 -121.249)" fill="none" stroke="#a3c854" stroke-width="1" fill-rule="evenodd"/>
      </g>
    </g>
  </g>
</svg>
