<svg xmlns="http://www.w3.org/2000/svg" xmlns:xlink="http://www.w3.org/1999/xlink" width="202" height="202" viewBox="0 0 202 202">
  <defs>
    <filter id="Rectangle_4" x="0" y="0" width="202" height="202" filterUnits="userSpaceOnUse">
      <feOffset dx="3" dy="21" input="SourceAlpha"/>
      <feGaussianBlur stdDeviation="15" result="blur"/>
      <feFlood flood-color="#129048" flood-opacity="0.149"/>
      <feComposite operator="in" in2="blur"/>
      <feComposite in="SourceGraphic"/>
    </filter>
  </defs>
  <g id="Group_4475" data-name="Group 4475" transform="translate(42 24)">
    <g transform="matrix(1, 0, 0, 1, -42, -24)" filter="url(#Rectangle_4)">
      <rect id="Rectangle_4-2" data-name="Rectangle 4" width="112" height="112" rx="15" transform="translate(42 24)" fill="#fff"/>
    </g>
    <g id="Group_4417" data-name="Group 4417" transform="translate(-404.5 -1759.5)">
      <rect id="Rectangle_333" data-name="Rectangle 333" width="85" height="85" transform="translate(418 1773)" fill="none"/>
      <g id="_x33__food_x2C__pocket_x2C__purchase_x2C__shop_x2C__shopping_x2C__commerce_x2C__supermarket_1_" transform="translate(362.89 1779.873)">
        <g id="Group_4418" data-name="Group 4418" transform="translate(74.809 18.388)" opacity="0.3">
          <path id="Path_41535" data-name="Path 41535" d="M96.474,132.022h40.04l-4.449,3.337H92.025Z" transform="translate(-92.025 -132.022)" fill="#a3c854"/>
        </g>
        <g id="Group_4419" data-name="Group 4419" transform="translate(85.932 13.939)">
          <rect id="Rectangle_349" data-name="Rectangle 349" width="11.122" height="7.264" transform="translate(0)" fill="#fff"/>
        </g>
        <g id="Group_4420" data-name="Group 4420" transform="translate(74.809 2.817)">
          <path id="Path_41536" data-name="Path 41536" d="M92.025,20.04l2.526,17.8,3.985,1.1S94.806,23.933,92.025,20.04Z" transform="translate(-92.025 -20.04)" fill="#a0d468"/>
        </g>
        <g id="Group_4421" data-name="Group 4421" transform="translate(77.036 2.817)">
          <path id="Path_41537" data-name="Path 41537" d="M109.151,20.04l-1.109,4.576,4.284,14.448,2.943-1.228A94.65,94.65,0,0,0,109.151,20.04Z" transform="translate(-108.042 -20.04)" fill="#a0d468"/>
        </g>
        <g id="Group_4422" data-name="Group 4422" transform="translate(98.288 0.593)">
          <path id="Path_41538" data-name="Path 41538" d="M275.617,4.6c-3.752-1.365-7.645-.134-8.695,2.753l-6.049,16.71,3.076,1.008,3.476-1.008,3.179,1.1,5.792-.461,3-12.407A5.84,5.84,0,0,0,275.617,4.6Z" transform="translate(-260.874 -4.046)" fill="#f8d848"/>
        </g>
        <g id="Group_4423" data-name="Group 4423" transform="translate(72.585 20.612)">
          <path id="Path_41539" data-name="Path 41539" d="M118.293,149.131a11.2,11.2,0,0,0-3.337-1.112c-1.112,0-2.225,1.112-3.337,1.112s-2.225-1.112-3.337-1.112-2.225,1.112-3.337,1.112-2.225-1.112-3.337-1.112-2.225,1.112-3.337,1.112-2.225-1.112-3.337-1.112-2.225,1.112-3.337,1.112-2.225-1.112-3.337-1.112-2.225,1.112-3.337,1.112-2.225-1.112-3.337-1.112a11.2,11.2,0,0,0-3.337,1.112L76.028,198.07h44.489Z" transform="translate(-76.028 -148.019)" fill="#fff"/>
        </g>
        <g id="Group_4424" data-name="Group 4424" transform="translate(77.201 19.5)" opacity="0.2">
          <path id="Path_41540" data-name="Path 41540" d="M109.357,141.133l3.945,1.093.04.135,2.943-1.228c-.078-.323-.16-.633-.239-.95a8.556,8.556,0,0,1-2.541.95c-1.112,0-2.225-1.112-3.337-1.112a3.763,3.763,0,0,0-.945.163Z" transform="translate(-109.223 -140.021)"/>
        </g>
        <g id="Group_4425" data-name="Group 4425" transform="translate(74.809 2.817)" opacity="0.3">
          <path id="Path_41541" data-name="Path 41541" d="M95.362,36.724c.049,0,.1.013.146.017l-1.952-13.75a16.448,16.448,0,0,0-1.531-2.95l2.526,17.8-.135-.949A3.757,3.757,0,0,1,95.362,36.724Z" transform="translate(-92.025 -20.041)" fill="#129048"/>
        </g>
        <g id="Group_4427" data-name="Group 4427" transform="translate(98.288 19.5)" opacity="0.2">
          <path id="Path_41543" data-name="Path 41543" d="M267.426,141.133l3.179,1.1,5.792-.461.243-1.009a8.01,8.01,0,0,0-2.542-.747c-1.112,0-2.225,1.112-3.337,1.112s-2.225-1.112-3.337-1.112-2.225,1.112-3.337,1.112c-.946,0-1.892-.8-2.839-1.04l-.376,1.04,3.076,1.008Z" transform="translate(-260.874 -140.021)"/>
        </g>
        <g id="Group_4429" data-name="Group 4429" transform="translate(108.842 0.595)" opacity="0.1">
          <g id="Group_4428" data-name="Group 4428">
            <path id="Path_41544" data-name="Path 41544" d="M340.964,4.615a8.767,8.767,0,0,0-4.189-.478,9.241,9.241,0,0,1,1.965.478,5.84,5.84,0,0,1,3.78,7.7L339.93,23.024a10.6,10.6,0,0,1,2.057.687l-.243,1.009,3-12.407A5.84,5.84,0,0,0,340.964,4.615Z" transform="translate(-336.775 -4.06)"/>
          </g>
        </g>
        <g id="Group_4430" data-name="Group 4430" transform="translate(98.664 0.597)" opacity="0.4">
          <path id="Path_41545" data-name="Path 41545" d="M265.5,23.884l5.974-16.5a5.34,5.34,0,0,1,4.505-3.232c-3.061-.4-5.863.85-6.73,3.232l-5.672,15.67A17.558,17.558,0,0,1,265.5,23.884Z" transform="translate(-263.58 -4.077)" fill="#fff" opacity="0.9"/>
        </g>
        <g id="Group_4431" data-name="Group 4431" transform="translate(114.85 18.388)">
          <path id="Path_41546" data-name="Path 41546" d="M384.428,132.022l3.337,48.939L382.2,184.3l-2.225-48.939Z" transform="translate(-379.979 -132.022)" fill="#fff"/>
        </g>
        <g id="Group_4432" data-name="Group 4432" transform="translate(72.585 20.612)" opacity="0.5">
          <path id="Path_41547" data-name="Path 41547" d="M82.595,148.266a2.623,2.623,0,0,0-1.006-.247,11.2,11.2,0,0,0-3.337,1.112L76.028,198.07h2.224l2.225-48.939A17.434,17.434,0,0,1,82.595,148.266Z" transform="translate(-76.028 -148.019)" fill="#a3c854" opacity="0.54"/>
        </g>
        <g id="Group_4433" data-name="Group 4433" transform="translate(117.074 63.99)" opacity="0.2">
          <path id="Path_41548" data-name="Path 41548" d="M399.314,459.973l-3.337,6.673,5.561-3.337Z" transform="translate(-395.977 -459.973)" fill="#129048"/>
        </g>
        <g id="Group_4434" data-name="Group 4434" transform="translate(84.819 36.184)">
          <circle id="Ellipse_151" data-name="Ellipse 151" cx="10.01" cy="10.01" r="10.01" fill="#fff"/>
        </g>
        <g id="Group_4435" data-name="Group 4435" transform="translate(93.717 36.184)" opacity="0.2">
          <path id="Path_41549" data-name="Path 41549" d="M229.115,260a10.16,10.16,0,0,0-1.112.065,10.007,10.007,0,0,1,0,19.89,10.165,10.165,0,0,0,1.112.065,10.01,10.01,0,0,0,0-20.021Z" transform="translate(-228.003 -260.001)" fill="#fff"/>
        </g>
        <g id="Group_4436" data-name="Group 4436" transform="translate(84.819 36.184)" opacity="0.3">
          <path id="Path_41550" data-name="Path 41550" d="M166.239,270.012a10.009,10.009,0,0,1,8.9-9.946,10.159,10.159,0,0,0-1.112-.065,10.01,10.01,0,0,0,0,20.021,10.166,10.166,0,0,0,1.112-.065A10.009,10.009,0,0,1,166.239,270.012Z" transform="translate(-164.014 -260.001)" fill="#fff"/>
        </g>
        <g id="Group_4437" data-name="Group 4437" transform="translate(85.932 11.715)" opacity="0.2">
          <path id="Path_41551" data-name="Path 41551" d="M182.023,84.03h-8.9l-1.112,1.112v1.112h11.122V85.142Z" transform="translate(-172.013 -84.03)" fill="#a3c854"/>
        </g>
        <g id="Group_4438" data-name="Group 4438" transform="translate(89.268 16.163)">
          <circle id="Ellipse_152" data-name="Ellipse 152" cx="2.225" cy="2.225" r="2.225" fill="#129048"/>
        </g>
        <g id="Group_4439" data-name="Group 4439" transform="translate(77.036 6.055)" opacity="0.2">
          <path id="Path_41552" data-name="Path 41552" d="M112.029,57.822a2,2,0,0,0,.461.061,2.132,2.132,0,0,0,.6-.1l-4.718-14.459-.324,1.338.173.585C109.864,49.727,111.4,55.422,112.029,57.822Z" transform="translate(-108.043 -43.325)"/>
        </g>
        <g id="Group_4440" data-name="Group 4440" transform="translate(85.932 13.939)" opacity="0.3">
          <path id="Path_41553" data-name="Path 41553" d="M173.125,100.027h-1.112v5.854c.37.164.741.37,1.112.533Z" transform="translate(-172.013 -100.027)" fill="#fff"/>
        </g>
        <g id="Group_4469" data-name="Group 4469" transform="translate(85.931 13.939)">
          <g id="Group_4426" data-name="Group 4426" transform="translate(0 5.561)" opacity="0.2">
            <path id="Path_41542" data-name="Path 41542" d="M183.134,140.314a6.105,6.105,0,0,1-2.225.82c-1.112,0-2.225-1.112-3.337-1.112s-2.225,1.112-3.337,1.112a6.105,6.105,0,0,1-2.225-.82v1.41h11.122Z" transform="translate(-172.012 -140.021)" fill="#a3c854"/>
          </g>
          <g id="Group_4441" data-name="Group 4441" transform="translate(10.01)" opacity="0.2">
            <path id="Path_41554" data-name="Path 41554" d="M244,100.027v6.387c.371-.164.742-.369,1.112-.533v-5.854Z" transform="translate(-244.001 -100.027)" fill="#a3c854"/>
          </g>
        </g>
        <g id="_x33__food_x2C__pocket_x2C__purchase_x2C__shop_x2C__shopping_x2C__commerce_x2C__supermarket" transform="translate(72.029 0.035)">
          <g id="Group_4442" data-name="Group 4442" transform="translate(0 20.021)">
            <path id="Path_41555" data-name="Path 41555" d="M117.074,195.183H72.585a.558.558,0,0,1-.556-.581l2.224-48.939a.556.556,0,0,1,.307-.472,11.161,11.161,0,0,1,3.585-1.171,4.377,4.377,0,0,1,1.917.615,3.561,3.561,0,0,0,1.419.5,3.563,3.563,0,0,0,1.42-.5,3.3,3.3,0,0,1,3.834,0,3.563,3.563,0,0,0,1.42.5,3.563,3.563,0,0,0,1.42-.5,3.3,3.3,0,0,1,3.834,0,2.275,2.275,0,0,0,2.84,0,3.3,3.3,0,0,1,3.834,0,2.275,2.275,0,0,0,2.839,0,3.3,3.3,0,0,1,3.834,0,2.274,2.274,0,0,0,2.839,0,4.378,4.378,0,0,1,1.917-.615,11.162,11.162,0,0,1,3.585,1.171.555.555,0,0,1,.306.472l2.224,48.939a.557.557,0,0,1-.555.581Zm-43.907-1.112h43.325l-2.183-48.026a9.225,9.225,0,0,0-2.8-.913,3.561,3.561,0,0,0-1.42.5,3.3,3.3,0,0,1-3.834,0,2.274,2.274,0,0,0-2.839,0,3.3,3.3,0,0,1-3.834,0,2.274,2.274,0,0,0-2.839,0,3.3,3.3,0,0,1-3.835,0,2.274,2.274,0,0,0-2.839,0,3.3,3.3,0,0,1-3.834,0,3.565,3.565,0,0,0-1.42-.5,3.562,3.562,0,0,0-1.42.5,3.3,3.3,0,0,1-3.834,0,3.565,3.565,0,0,0-1.42-.5,9.217,9.217,0,0,0-2.8.912Z" transform="translate(-72.029 -144.02)" fill="#a3c854"/>
          </g>
          <g id="Group_4443" data-name="Group 4443" transform="translate(2.224 67.848)">
            <path id="Path_41556" data-name="Path 41556" d="M128.622,489.081H88.582a.556.556,0,0,1,0-1.112h40.04a.556.556,0,0,1,0,1.112Z" transform="translate(-88.026 -487.969)" fill="#a3c854"/>
          </g>
          <g id="Group_4447" data-name="Group 4447" transform="translate(26.479 0)">
            <g id="Group_4444" data-name="Group 4444">
              <path id="Path_41557" data-name="Path 41557" d="M263.014,18.944a.556.556,0,0,1-.522-.746l5.272-14.485A5.517,5.517,0,0,1,271.452.4a8.953,8.953,0,0,1,5.719.226,6.406,6.406,0,0,1,4.112,8.411l-2.343,9.483a.556.556,0,1,1-1.08-.267l2.36-9.54a5.291,5.291,0,0,0-3.43-7.043,7.854,7.854,0,0,0-5-.21,4.433,4.433,0,0,0-2.979,2.631l-5.272,14.485A.556.556,0,0,1,263.014,18.944Z" transform="translate(-262.458 -0.035)" fill="#a3c854"/>
            </g>
            <g id="Group_4445" data-name="Group 4445" transform="translate(6.85 7.283)">
              <path id="Path_41558" data-name="Path 41558" d="M320.425,56.641a.554.554,0,0,1-.469-.258,8.527,8.527,0,0,0-7.52-2.734.556.556,0,0,1-.331-1.061,9.532,9.532,0,0,1,8.789,3.2.556.556,0,0,1-.469.854Z" transform="translate(-311.717 -52.41)" fill="#129048"/>
            </g>
            <g id="Group_4446" data-name="Group 4446" transform="translate(4.568 13.555)">
              <path id="Path_41559" data-name="Path 41559" d="M304.013,101.751a.555.555,0,0,1-.469-.258,8.515,8.515,0,0,0-7.518-2.734.56.56,0,0,1-.694-.367.555.555,0,0,1,.363-.694,9.522,9.522,0,0,1,8.788,3.2.556.556,0,0,1-.469.854Z" transform="translate(-295.306 -97.52)" fill="#129048"/>
            </g>
          </g>
          <g id="Group_4448" data-name="Group 4448" transform="translate(2.224 2.225)">
            <path id="Path_41560" data-name="Path 41560" d="M90.8,32.718a.556.556,0,0,1-.55-.478L88.03,16.67a.556.556,0,1,1,1.1-.158l2.224,15.571a.556.556,0,0,1-.472.629A.546.546,0,0,1,90.8,32.718Z" transform="translate(-88.024 -16.034)" fill="#129048"/>
          </g>
          <g id="Group_4449" data-name="Group 4449" transform="translate(2.225 2.225)">
            <path id="Path_41561" data-name="Path 41561" d="M94.144,32.723a.556.556,0,0,1-.54-.427c-.028-.116-2.787-11.617-5.473-15.377a.556.556,0,0,1,.9-.646c2.811,3.936,5.535,15.285,5.65,15.766a.556.556,0,0,1-.541.685Z" transform="translate(-88.027 -16.04)" fill="#129048"/>
          </g>
          <g id="Group_4450" data-name="Group 4450" transform="translate(5.561 2.226)">
            <path id="Path_41562" data-name="Path 41562" d="M118.139,32.726a.556.556,0,0,1-.54-.426c-2.49-10.311-5.468-15.366-5.5-15.416a.556.556,0,0,1,.954-.571c.125.209,3.09,5.229,5.625,15.727a.556.556,0,0,1-.41.671A.545.545,0,0,1,118.139,32.726Z" transform="translate(-112.022 -16.042)" fill="#129048"/>
          </g>
          <g id="Group_4451" data-name="Group 4451" transform="translate(5.005 2.225)">
            <path id="Path_41563" data-name="Path 41563" d="M108.579,19.374a.557.557,0,0,1-.54-.691l.556-2.225a.556.556,0,0,1,1.079.269l-.556,2.224A.555.555,0,0,1,108.579,19.374Z" transform="translate(-108.022 -16.037)" fill="#129048"/>
          </g>
          <g id="Group_4453" data-name="Group 4453" transform="translate(16.683 15.572)">
            <path id="Path_41565" data-name="Path 41565" d="M197.014,115.361a.556.556,0,0,1-.556-.556,1.668,1.668,0,0,0-3.337,0,.556.556,0,1,1-1.112,0,2.781,2.781,0,0,1,5.561,0A.556.556,0,0,1,197.014,115.361Z" transform="translate(-192.009 -112.024)" fill="#a3c854"/>
          </g>
          <g id="Group_4470" data-name="Group 4470" transform="translate(13.347 11.123)">
            <g id="Group_4452" data-name="Group 4452" transform="translate(0 2.225)">
              <path id="Path_41564" data-name="Path 41564" d="M179.691,101.587a.556.556,0,0,1-.556-.556V97.138h-10.01v3.893a.556.556,0,1,1-1.112,0V96.582a.556.556,0,0,1,.556-.556h11.122a.556.556,0,0,1,.556.556v4.449A.556.556,0,0,1,179.691,101.587Z" transform="translate(-168.013 -96.026)" fill="#a3c854"/>
            </g>
            <g id="Group_4454" data-name="Group 4454" transform="translate(0 0.001)">
              <path id="Path_41566" data-name="Path 41566" d="M168.57,82.255a.556.556,0,0,1-.393-.949l1.112-1.112a.556.556,0,1,1,.786.786l-1.112,1.112A.555.555,0,0,1,168.57,82.255Z" transform="translate(-168.013 -80.03)" fill="#a3c854"/>
            </g>
            <g id="Group_4455" data-name="Group 4455" transform="translate(1.112)">
              <path id="Path_41567" data-name="Path 41567" d="M185.466,81.141h-8.9a.556.556,0,1,1,0-1.112h8.9a.556.556,0,0,1,0,1.112Z" transform="translate(-176.012 -80.029)" fill="#a3c854"/>
            </g>
            <g id="Group_4456" data-name="Group 4456" transform="translate(10.01 0.001)">
              <path id="Path_41568" data-name="Path 41568" d="M241.67,82.255a.555.555,0,0,1-.393-.163l-1.112-1.112a.556.556,0,1,1,.786-.786l1.112,1.112a.556.556,0,0,1-.393.949Z" transform="translate(-240.001 -80.03)" fill="#a3c854"/>
            </g>
          </g>
          <g id="Group_4468" data-name="Group 4468" transform="translate(12.235 32.256)">
            <g id="Group_4457" data-name="Group 4457" transform="translate(0 3.337)">
              <path id="Path_41569" data-name="Path 41569" d="M163.934,274.608a.558.558,0,0,1-.369-.14,10.571,10.571,0,0,1,9.355-18.207.556.556,0,0,1-.244,1.085,9.574,9.574,0,0,0-2.094-.231,9.453,9.453,0,0,0-6.278,16.521.556.556,0,0,1-.369.972Z" transform="translate(-160.015 -256.001)" fill="#129048"/>
            </g>
            <g id="Group_4458" data-name="Group 4458" transform="translate(7.784 5.887)">
              <path id="Path_41570" data-name="Path 41570" d="M218.776,292.927a10.627,10.627,0,0,1-2.349-.263.556.556,0,1,1,.247-1.084,9.456,9.456,0,0,0,8.407-16.265.556.556,0,1,1,.741-.829,10.566,10.566,0,0,1-7.045,18.441Z" transform="translate(-215.994 -274.344)" fill="#129048"/>
            </g>
            <g id="Group_4459" data-name="Group 4459" transform="translate(7.785 11.123)">
              <path id="Path_41571" data-name="Path 41571" d="M221.011,317.558a.555.555,0,0,1-.393-.163l-4.449-4.449a.556.556,0,0,1,.786-.786l4.449,4.449a.556.556,0,0,1-.393.949Z" transform="translate(-216.005 -311.996)" fill="#129048"/>
            </g>
            <g id="Group_4460" data-name="Group 4460" transform="translate(7.786)">
              <path id="Path_41572" data-name="Path 41572" d="M216.563,244.242a.556.556,0,0,1-.393-.949l11.122-11.123a.556.556,0,0,1,.786.786l-11.122,11.123A.555.555,0,0,1,216.563,244.242Z" transform="translate(-216.007 -232.007)" fill="#129048"/>
            </g>
            <g id="Group_4461" data-name="Group 4461" transform="translate(2.224 15.572)">
              <path id="Path_41573" data-name="Path 41573" d="M176.569,355.115a.556.556,0,0,1-.393-.949l10.01-10.01a.556.556,0,0,1,.786.786l-10.01,10.01A.554.554,0,0,1,176.569,355.115Z" transform="translate(-176.012 -343.992)" fill="#129048"/>
            </g>
          </g>
          <g id="Group_4462" data-name="Group 4462" transform="translate(42.265 17.797)">
            <path id="Path_41574" data-name="Path 41574" d="M376.536,132.47a.556.556,0,0,1-.333-1l4.449-3.337a.556.556,0,1,1,.667.89l-4.449,3.337A.555.555,0,0,1,376.536,132.47Z" transform="translate(-375.98 -128.021)" fill="#a3c854"/>
          </g>
          <g id="Group_4463" data-name="Group 4463" transform="translate(45.602 63.399)">
            <path id="Path_41575" data-name="Path 41575" d="M400.533,461.537a.569.569,0,0,1-.249-.059.556.556,0,0,1-.249-.746l2.225-4.449a.556.556,0,0,1,.995.5l-2.225,4.449A.557.557,0,0,1,400.533,461.537Z" transform="translate(-399.976 -455.976)" fill="#a3c854"/>
          </g>
          <g id="Group_4464" data-name="Group 4464" transform="translate(47.826 63.398)">
            <path id="Path_41576" data-name="Path 41576" d="M417.27,458.193a.556.556,0,0,1-.463-.247l-.741-1.111a.556.556,0,0,1,.925-.617l.741,1.111a.556.556,0,0,1-.463.864Z" transform="translate(-415.974 -455.97)" fill="#a3c854"/>
          </g>
          <g id="Group_4465" data-name="Group 4465" transform="translate(46.714 17.797)">
            <path id="Path_41577" data-name="Path 41577" d="M411.866,178.074a.557.557,0,0,1-.554-.518l-3.337-48.939a.557.557,0,0,1,.517-.593.567.567,0,0,1,.593.517l3.337,48.939a.558.558,0,0,1-.517.593Z" transform="translate(-407.974 -128.022)" fill="#a3c854"/>
          </g>
          <g id="Group_4466" data-name="Group 4466" transform="translate(44.489 66.736)">
            <path id="Path_41578" data-name="Path 41578" d="M392.532,484.419a.556.556,0,0,1-.286-1.033l5.561-3.337a.556.556,0,1,1,.571.954l-5.561,3.337A.557.557,0,0,1,392.532,484.419Z" transform="translate(-391.975 -479.97)" fill="#a3c854"/>
          </g>
          <g id="Group_4467" data-name="Group 4467" transform="translate(44.489 17.797)">
            <path id="Path_41579" data-name="Path 41579" d="M394.758,129.133h-2.224a.556.556,0,0,1,0-1.112h2.224a.556.556,0,1,1,0,1.112Z" transform="translate(-391.978 -128.021)" fill="#a3c854"/>
          </g>
        </g>
      </g>
    </g>
  </g>
</svg>
