<svg xmlns="http://www.w3.org/2000/svg" xmlns:xlink="http://www.w3.org/1999/xlink" width="208" height="137" viewBox="0 0 208 137">
  <defs>
    <clipPath id="clip-path">
      <path id="Rectangle_362" data-name="Rectangle 362" d="M0,0H208a0,0,0,0,1,0,0V122a15,15,0,0,1-15,15H0a0,0,0,0,1,0,0V0A0,0,0,0,1,0,0Z" transform="translate(0.04 -0.466)" fill="#fff" stroke="#707070" stroke-width="1"/>
    </clipPath>
  </defs>
  <g id="Mask_Group_26" data-name="Mask Group 26" transform="translate(-0.04 0.466)" clip-path="url(#clip-path)">
    <path id="Path_41607" data-name="Path 41607" d="M12752.52,11209.729s18.944-79.475,0-79.723c-16.72-.22-38.5,13.853-74.151,40.453-11.04,8.238-41.314,5.846-64.913,8.915-29.925,3.893-22.054,24.274-27.293,32.928-19.067,31.5,195.614-6.584,166.357-2.573Z" transform="translate(-12544.626 -11074.677)" fill="#129048" opacity="0.05"/>
  </g>
</svg>
