<svg xmlns="http://www.w3.org/2000/svg" xmlns:xlink="http://www.w3.org/1999/xlink" width="202" height="202" viewBox="0 0 202 202">
  <defs>
    <filter id="Rectangle_4" x="0" y="0" width="202" height="202" filterUnits="userSpaceOnUse">
      <feOffset dx="3" dy="21" input="SourceAlpha"/>
      <feGaussianBlur stdDeviation="15" result="blur"/>
      <feFlood flood-color="#129048" flood-opacity="0.149"/>
      <feComposite operator="in" in2="blur"/>
      <feComposite in="SourceGraphic"/>
    </filter>
  </defs>
  <g id="Group_4475" data-name="Group 4475" transform="translate(42 24)">
    <g transform="matrix(1, 0, 0, 1, -42, -24)" filter="url(#Rectangle_4)">
      <rect id="Rectangle_4-2" data-name="Rectangle 4" width="112" height="112" rx="15" transform="translate(42 24)" fill="#fff"/>
    </g>
    <g id="Group_4417" data-name="Group 4417" transform="translate(-404.5 -1759.5)">
      <rect id="Rectangle_333" data-name="Rectangle 333" width="85" height="85" transform="translate(418 1773)" fill="none"/>
      <g id="reshot-icon-low-carbon-power-2MHCBUNS9X" transform="translate(421.993 1775.717)">
        <path id="Path_41589" data-name="Path 41589" d="M183.582,55.336c-1.135-.375-2.308-.7-2.966-3.538-.606,2.612-1.578,3.08-2.966,3.538,2.264.748,2.606,1.987,2.966,3.538C181.236,56.2,182.263,55.772,183.582,55.336Z" transform="translate(-124.912 -33.856)" fill="#f8d848"/>
        <path id="Path_41590" data-name="Path 41590" d="M177.981,57.155c-.329-1.417-.546-2.354-2.462-2.987a.763.763,0,0,1,0-1.448c1.154-.381,1.916-.633,2.462-2.987a.763.763,0,0,1,1.485,0c.559,2.407,1.394,2.635,2.462,2.987a.763.763,0,0,1,0,1.448c-1.112.367-1.916.633-2.462,2.987A.762.762,0,0,1,177.981,57.155Zm-.436-3.693a3.957,3.957,0,0,1,1.193,1.262,3.769,3.769,0,0,1,1.128-1.272,3.889,3.889,0,0,1-1.14-1.319A3.783,3.783,0,0,1,177.545,53.462Z" transform="translate(-123.019 -31.964)" fill="#129048"/>
        <path id="Path_41591" data-name="Path 41591" d="M34.848,50.8,33.7,52.5,18.245,75.266a2.325,2.325,0,0,1-4.153-1.952L21.8,46.669a.86.86,0,0,0-.826-1.1H7.385a2.328,2.328,0,0,1-2.233-2.978L15.115,8.507a2.327,2.327,0,0,1,2.227-1.668H32.234A2.319,2.319,0,0,1,34.467,9.8L28.1,31.947a.86.86,0,0,0,.826,1.1h4.135A14.378,14.378,0,0,0,34.848,50.8Z" transform="translate(-1.788 -1.783)" fill="#fff"/>
        <path id="Path_41592" data-name="Path 41592" d="M93.851,116.028,92.7,117.722a16.363,16.363,0,0,1-2.966-19.453h2.33A14.378,14.378,0,0,0,93.851,116.028Z" transform="translate(-60.791 -67.007)" fill="#fff"/>
        <path id="Path_41593" data-name="Path 41593" d="M120.761,98.129a14.379,14.379,0,0,1-21.7,1.576c-.054-.054-.106-.109-.158-.163a14.376,14.376,0,1,1,21.855-1.413Z" transform="translate(-65.846 -50.521)" fill="#f8d848" opacity="0.98"/>
        <path id="Path_41594" data-name="Path 41594" d="M177.935,155.3l2.555,2.555-2.938,2.938L175,158.237A14.453,14.453,0,0,0,177.935,155.3Z" transform="translate(-123.019 -107.692)" fill="#eee"/>
        <path id="Path_41595" data-name="Path 41595" d="M182.488,166.216l3.422-3.422a.788.788,0,0,1,1.114,0L201,176.775a3.207,3.207,0,0,1,0,4.536h0a3.207,3.207,0,0,1-4.536,0L182.488,167.33A.788.788,0,0,1,182.488,166.216Z" transform="translate(-128.199 -112.874)" fill="#fff"/>
        <circle id="Ellipse_153" data-name="Ellipse 153" cx="10.389" cy="10.389" r="10.389" transform="translate(32.996 28.628)" fill="#eee"/>
        <path id="Path_41596" data-name="Path 41596" d="M138.707,108.9a4.237,4.237,0,1,1-8.475,0c0-2.34,4.237-7.407,4.237-7.407S138.707,106.563,138.707,108.9Z" transform="translate(-91.085 -69.309)" fill="#129048"/>
        <path id="Path_41597" data-name="Path 41597" d="M23.4,76.862a.717.717,0,0,1-.489-.888l.239-.826a.717.717,0,0,1,1.377.4l-.239.826A.716.716,0,0,1,23.4,76.862Zm1.036-3.579a.716.716,0,0,1-.489-.887l5.722-19.781a3.009,3.009,0,0,0-2.891-3.846H13.906a.717.717,0,0,1-.688-.917l9.645-33a.717.717,0,0,1,1.375.4L14.862,47.337H26.774a4.444,4.444,0,0,1,4.268,5.677l-5.722,19.78A.716.716,0,0,1,24.432,73.283Z" transform="translate(-7.589 -7.132)" fill="#129048"/>
        <path id="Path_41598" data-name="Path 41598" d="M207.164,186.8l-.608-.608a.716.716,0,1,1,1.013-1.013l.608.608a.716.716,0,0,1-1.013,1.013Zm-2.635-2.635-9.876-9.876a.716.716,0,0,1,1.013-1.013l9.876,9.876a.716.716,0,0,1-1.013,1.013Z" transform="translate(-136.892 -120.367)" fill="#129048"/>
        <path id="Path_41599" data-name="Path 41599" d="M52.335,176.333a.718.718,0,0,0,.4-1.379.729.729,0,0,0-.886.49A.717.717,0,0,0,52.335,176.333Z" transform="translate(-35.146 -121.694)" fill="#129048"/>
        <path id="Path_41600" data-name="Path 41600" d="M131.969,112.013v1.355a.717.717,0,0,0,1.433,0v-1.355a4.957,4.957,0,0,0,4.239-4.9c0-2.19-3-6.185-4.4-7.867a.715.715,0,0,0-1.1,0c-1.4,1.679-4.4,5.679-4.4,7.867A4.957,4.957,0,0,0,131.969,112.013Zm1.433-10.224a28.216,28.216,0,0,1,1.955,3l-1.955,2.226Zm0,7.4,2.615-2.978a3.411,3.411,0,0,1-2.615,4.353Zm-1.433-7.4v3.437l-1.516-1.19C130.911,103.288,131.443,102.51,131.969,101.795Zm-2.222,3.517,2.222,1.742v3.51a3.526,3.526,0,0,1-2.8-3.446A4.625,4.625,0,0,1,129.748,105.312Z" transform="translate(-89.303 -67.523)" fill="#a3c854"/>
        <path id="Path_41601" data-name="Path 41601" d="M129.123,76.117a.715.715,0,0,0,.685-.917.728.728,0,0,0-.889-.487.717.717,0,0,0,.2,1.4Z" transform="translate(-89.782 -50.183)" fill="#129048"/>
        <path id="Path_41602" data-name="Path 41602" d="M106.27,97.683a11.1,11.1,0,1,0,11.106-11.1A11.1,11.1,0,0,0,106.27,97.683Zm11.106-9.67a9.672,9.672,0,1,1-9.673,9.67A9.665,9.665,0,0,1,117.376,88.013Z" transform="translate(-73.991 -58.669)" fill="#a3c854"/>
        <path id="Path_41603" data-name="Path 41603" d="M206.057,202.2a.716.716,0,0,0,0-1.011.729.729,0,0,0-1.012,0,.715.715,0,1,0,1.012,1.011Z" transform="translate(-144.305 -140.285)" fill="#129048"/>
        <path id="Path_41604" data-name="Path 41604" d="M73.311,63.395,59.33,49.413a1.481,1.481,0,0,0-1.823-.227L55.851,47.53A15.1,15.1,0,0,0,42.093,23.976a.711.711,0,0,0-.653.774.722.722,0,0,0,.774.653,13.655,13.655,0,1,1-5.191,1.519.716.716,0,0,0-.668-1.267,15.1,15.1,0,0,0-5.459,4.89H27.14A.147.147,0,0,1,27,30.4a.121.121,0,0,1,.006-.04L33.368,8.218a3.04,3.04,0,0,0-2.92-3.878H15.555a3.055,3.055,0,0,0-2.918,2.187L2.674,40.609A3.053,3.053,0,0,0,5.6,44.5H19.186a.144.144,0,0,1,.135.183L17.5,51a.709.709,0,0,0,.487.886.72.72,0,0,0,.889-.487v-.006L20.7,45.086a1.582,1.582,0,0,0-1.513-2.015H5.6a1.614,1.614,0,0,1-1.547-2.058L14.016,6.925a1.611,1.611,0,0,1,1.531-1.152h14.9A1.6,1.6,0,0,1,31.99,7.822c-6.817,23.713-6.426,22.244-6.426,22.58a1.583,1.583,0,0,0,1.576,1.576h2.889a15.088,15.088,0,0,0,2.118,17.11L15.865,73.079a1.608,1.608,0,0,1-2.875-1.347L17.281,56.9a.716.716,0,0,0-.49-.889.727.727,0,0,0-.886.49L11.614,71.331a3.042,3.042,0,0,0,5.434,2.554L33.172,50.129A15.092,15.092,0,0,0,51.9,51.481l1.656,1.654a1.5,1.5,0,0,0,.226,1.827l4.93,4.93a.736.736,0,0,0,1.015,0,.72.72,0,0,0,0-1.012h0c-.034-.034-4.95-4.933-4.95-4.981a.069.069,0,0,1,.017-.049c.037-.037,3.422-3.438,3.474-3.445a.079.079,0,0,1,.052.02L72.3,64.406a2.491,2.491,0,0,1-3.523,3.523l-5-5a.729.729,0,0,0-1.012,0,.708.708,0,0,0,0,1.012l5,5a3.924,3.924,0,0,0,5.549-5.549ZM54.532,52.085l-1.479-1.476a15.806,15.806,0,0,0,1.926-1.923l1.476,1.476Z" transform="translate(0)" fill="#a3c854"/>
      </g>
    </g>
  </g>
</svg>
