<svg xmlns="http://www.w3.org/2000/svg" width="69" height="69" viewBox="0 0 69 69"><defs><style>.a{fill:none;}.b{fill:#e8c113;}.c{fill:#018837;}</style></defs><g transform="translate(-418 -3070.848)"><circle class="a" cx="34.5" cy="34.5" r="34.5" transform="translate(418 3070.848)"/><g transform="translate(438 3089.848)"><ellipse class="b" cx="3" cy="3.5" rx="3" ry="3.5" transform="translate(22)"/><path class="c" d="M40.314-495.862a3.925,3.925,0,0,0-2.6,2.029,3.755,3.755,0,0,0,0,3.469,3.966,3.966,0,0,0,1.572,1.638l.409.211v1.192a5.3,5.3,0,0,0,.084,1.391,1.11,1.11,0,0,0,.687.554l.193.042-.012,8.358c-.018,8.334-.018,8.359-.145,8.521a.85.85,0,0,1-.807.415.85.85,0,0,1-.807-.415c-.114-.145-.132-.283-.163-1.228a3.075,3.075,0,0,0-.379-1.849,3.262,3.262,0,0,0-1.15-1.03,1.437,1.437,0,0,1-.331-.181c0-.012.114-.247.247-.524a11.532,11.532,0,0,0,1.072-3.728,11.174,11.174,0,0,0-2.752-8.509,11.163,11.163,0,0,0-9.394-3.637,11.061,11.061,0,0,0-8.027,4.806,11.022,11.022,0,0,0,0,12.417A11.077,11.077,0,0,0,29.933-467.4a11.121,11.121,0,0,0,5.956-3.9c.428-.536.446-.548.626-.5a1.95,1.95,0,0,1,.855.56c.343.452.367.548.4,1.7.036,1.012.048,1.1.2,1.391a1.718,1.718,0,0,0,.837.873,1.369,1.369,0,0,0,.891.2,1.369,1.369,0,0,0,.891-.2,1.753,1.753,0,0,0,.843-.873l.163-.307.018-8.437.012-8.443.211-.036a1,1,0,0,0,.7-.674l.072-.265h.939v.331c0,.4.175.632.482.632a.469.469,0,0,0,.331-.151c.151-.144.151-.157.151-1.295s0-1.15-.151-1.295a.442.442,0,0,0-.662,0c-.126.12-.151.2-.151.482v.331h-.964v-1.234l.4-.211a4.526,4.526,0,0,0,1.451-1.4,3.812,3.812,0,0,0-.6-4.691A3.824,3.824,0,0,0,40.314-495.862Zm1.524.964a2.921,2.921,0,0,1,2.156,2.415,2.894,2.894,0,0,1-2.156,3.186,2.908,2.908,0,0,1-3.493-2.108A2.9,2.9,0,0,1,41.838-494.9Zm-15.145,6.986c0,.4.175.632.482.632a.469.469,0,0,0,.331-.151c.126-.12.151-.2.151-.482v-.337l.319.036a10.127,10.127,0,0,1,5.625,2.282l.373.307-.2.211a1.139,1.139,0,0,0-.247.349.493.493,0,0,0,.584.584,1.141,1.141,0,0,0,.349-.247l.211-.2.307.373a10.2,10.2,0,0,1,2.282,5.625l.036.319H36.96c-.277,0-.361.024-.482.151a.443.443,0,0,0,0,.662c.12.126.2.151.482.151.181,0,.331.024.331.054s-.042.367-.09.747a10.1,10.1,0,0,1-2.222,5.143l-.3.367-.259-.235a.915.915,0,0,0-.373-.235.55.55,0,0,0-.548.548.927.927,0,0,0,.241.379l.241.259-.385.307a10.1,10.1,0,0,1-5.137,2.21c-.379.048-.711.09-.747.09s-.054-.151-.054-.331c0-.4-.175-.632-.482-.632s-.482.229-.482.632c0,.223-.024.331-.072.331a15.835,15.835,0,0,1-1.969-.325,10.279,10.279,0,0,1-3.914-1.993l-.361-.3.241-.259c.283-.307.313-.548.084-.771s-.464-.2-.777.09l-.259.241-.3-.379a10.129,10.129,0,0,1-2.216-5.143c-.048-.379-.09-.711-.09-.747s.151-.054.331-.054c.4,0,.632-.175.632-.482s-.229-.482-.632-.482c-.181,0-.331-.024-.331-.054s.042-.367.09-.747a10.1,10.1,0,0,1,2.2-5.125l.325-.4.217.211a1.058,1.058,0,0,0,.4.247c.163.03.223.006.385-.151s.181-.223.151-.385a1.105,1.105,0,0,0-.247-.4l-.2-.211.379-.313a10.176,10.176,0,0,1,5.083-2.216C26.759-488.28,26.693-488.3,26.693-487.913Zm14.935.632v.964h-.964v-1.927h.964Z" transform="translate(-16.1 495.949)"/><path class="c" d="M424.019-456.4a8.629,8.629,0,0,0-.915.7.491.491,0,0,0,.4.741c.241,0,.331-.1,1.018-1.072.524-.747.62-.982.416-.976A8.446,8.446,0,0,0,424.019-456.4Z" transform="translate(-398.521 459.347)"/><path class="c" d="M79.115-327.868a8.157,8.157,0,0,0-3.4,1.24,8.053,8.053,0,0,0-2.632,2.963,7.707,7.707,0,0,0,1.277,8.738,7.529,7.529,0,0,0,5.239,2.409,7.493,7.493,0,0,0,5.787-2.258,7.164,7.164,0,0,0,1.891-3.053,7.681,7.681,0,0,0-4.926-9.689A8.3,8.3,0,0,0,79.115-327.868Zm1.716.982a6.79,6.79,0,0,1,3.884,1.927,6.727,6.727,0,0,1,.259,9.256,7.141,7.141,0,0,1-2.915,1.9,6.782,6.782,0,0,1-6.317-1.15,6.753,6.753,0,0,1-1.15-9.334A6.8,6.8,0,0,1,80.831-326.887Z" transform="translate(-68.883 338.025)"/><path class="c" d="M109.408-295.6a5.93,5.93,0,0,0-4.769,4.336,4.088,4.088,0,0,0-.138,1.409,4.059,4.059,0,0,0,.169,1.506,7.91,7.91,0,0,0,.41,1.048,5.75,5.75,0,0,0,4.872,3.21,5.169,5.169,0,0,0,2.168-.3,5.822,5.822,0,0,0,2.06-1.241,5.87,5.87,0,0,0,1.65-2.686,3.882,3.882,0,0,0,.169-1.506,3.909,3.909,0,0,0-.163-1.536,5.787,5.787,0,0,0-1.614-2.68,5.67,5.67,0,0,0-2.463-1.391,4.319,4.319,0,0,0-1.355-.175C109.938-295.615,109.492-295.609,109.408-295.6Zm1.307,2.041a6.157,6.157,0,0,0,.084,1.216,1.124,1.124,0,0,0,.795.349,7.062,7.062,0,0,0,.915-.819l.783-.777.349.349.343.343-.777.777a6.14,6.14,0,0,0-.819.921,1.128,1.128,0,0,0,.349.795,6.151,6.151,0,0,0,1.216.084l1.084.012v.9l-1.084.012a6.15,6.15,0,0,0-1.216.084,1.125,1.125,0,0,0-.349.795,7.068,7.068,0,0,0,.819.915l.777.783-.349.349-.343.343-.777-.777a6.136,6.136,0,0,0-.921-.819,1.128,1.128,0,0,0-.795.349,6.158,6.158,0,0,0-.084,1.216l-.012,1.084-.325.018c-.644.036-.608.108-.608-1.15a3.641,3.641,0,0,0-.084-1.2,1.17,1.17,0,0,0-.777-.319,6.136,6.136,0,0,0-.921.819l-.777.777-.343-.343-.349-.349.777-.783a7.066,7.066,0,0,0,.819-.915,1.125,1.125,0,0,0-.349-.795,6.15,6.15,0,0,0-1.216-.084l-1.084-.012v-.9l1.084-.012a6.151,6.151,0,0,0,1.216-.084,1.128,1.128,0,0,0,.349-.795,6.139,6.139,0,0,0-.819-.921l-.777-.777.343-.343.349-.349.783.777a7.062,7.062,0,0,0,.915.819,1.037,1.037,0,0,0,.795-.367,5.808,5.808,0,0,0,.066-1.192,7.424,7.424,0,0,1,.042-1.084,1.611,1.611,0,0,1,.47-.024l.422.018Zm-1.909-.319v.554l-.391-.385c-.217-.211-.367-.4-.343-.428a3.229,3.229,0,0,1,.693-.289A1.734,1.734,0,0,1,108.806-293.874Zm3.276-.428a1.331,1.331,0,0,1,.361.169,1.554,1.554,0,0,1-.355.428l-.391.385v-.554a2.463,2.463,0,0,1,.03-.554A3.557,3.557,0,0,1,112.082-294.3Zm-5.685,2.613.385.391h-.554c-.554,0-.56,0-.524-.138a4.025,4.025,0,0,1,.283-.644A4.687,4.687,0,0,1,106.4-291.688Zm8.3.006a3.574,3.574,0,0,1,.126.355,2.459,2.459,0,0,1-.554.03h-.554l.385-.391a1.553,1.553,0,0,1,.428-.355A1.329,1.329,0,0,1,114.7-291.682Zm-8.3,3.667a1.554,1.554,0,0,1-.428.355,3.5,3.5,0,0,1-.3-.717,2.458,2.458,0,0,1,.554-.03h.554Zm8.395-.259a4.351,4.351,0,0,1-.277.65,4.68,4.68,0,0,1-.41-.391l-.385-.391h.554C114.828-288.406,114.834-288.406,114.792-288.274Zm-5.986,2.463c0,.614.036.6-.536.349l-.271-.12.385-.385c.217-.217.4-.391.4-.391A3.8,3.8,0,0,1,108.806-285.811Zm3.637.241a3.5,3.5,0,0,1-.717.3,2.463,2.463,0,0,1-.03-.554v-.554l.391.385A1.554,1.554,0,0,1,112.443-285.57Z" transform="translate(-99.177 307.674)"/><path class="c" d="M176.947-223.9a1.92,1.92,0,0,0-.891.921,1.319,1.319,0,0,0,.379,1.439,1.333,1.333,0,0,0,2.035-.03,1.326,1.326,0,0,0-.048-1.957A1.366,1.366,0,0,0,176.947-223.9Zm.813,1.036a.475.475,0,0,1-.331.813.469.469,0,0,1-.331-.151.469.469,0,0,1-.151-.331.469.469,0,0,1,.151-.331.469.469,0,0,1,.331-.151A.469.469,0,0,1,177.76-222.869Z" transform="translate(-166.354 240.36)"/></g></g></svg>