<svg xmlns="http://www.w3.org/2000/svg" width="69" height="69" viewBox="0 0 69 69"><defs><style>.a,.c{fill:none;}.b{fill:#e8c113;stroke-width:0.8px;}.b,.c{stroke:#018837;stroke-linecap:round;stroke-linejoin:round;stroke-miterlimit:2;fill-rule:evenodd;}</style></defs><g transform="translate(-418 -3070.848)"><circle class="a" cx="34.5" cy="34.5" r="34.5" transform="translate(418 3070.848)"/><g transform="translate(430.656 3083.606)"><g transform="translate(11.526 23.644)"><path class="b" d="M19.75,35.006c.307,1.867.688,2.293-.167,4.8a4.621,4.621,0,0,0,.069,3.1l-.069.011c-1.46,0-2.645-1.778-2.645-3.968s1.185-3.968,2.645-3.968Z" transform="translate(-16.937 -34.981)"/><path class="b" d="M23.423,34.981c1.381.109,2.479,1.834,2.479,3.942,0,2.159-1.152,3.918-2.577,3.957a4.619,4.619,0,0,1-.069-3.1C24.111,37.274,23.73,36.848,23.423,34.981Z" transform="translate(-19.027 -34.981)"/></g><g transform="translate(4.344 7.241)"><path class="c" d="M26.5,27H8.36s1.391,12.323,1.853,16.42a1.472,1.472,0,0,0,1.463,1.307H23.182a1.472,1.472,0,0,0,1.464-1.307C25.108,39.323,26.5,27,26.5,27Z" transform="translate(-6.809 -15.838)"/><path class="c" d="M27.238,22.5a1.473,1.473,0,0,0-1.473-1.473H7.473A1.473,1.473,0,0,0,6,22.5v.979a1.473,1.473,0,0,0,1.473,1.473H25.765a1.473,1.473,0,0,0,1.473-1.473Z" transform="translate(-6 -13.785)"/><path class="c" d="M25.65,19.648H11.07V18.491a1.473,1.473,0,0,1,1.473-1.473H24.177a1.473,1.473,0,0,1,1.473,1.473Z" transform="translate(-7.74 -12.41)"/><path class="c" d="M36.92,45.072l9.835.97a3.08,3.08,0,0,0,3.36-2.693c.466-3.884-.431-10.338-11.2-11.4a22.658,22.658,0,0,0-3.412-.1" transform="translate(-16.13 -17.496)"/><path class="c" d="M47.05,33.708a12.717,12.717,0,0,1,1.157,6.073" transform="translate(-20.097 -18.142)"/><path class="c" d="M38.662,32.2s1.48,1.752,1.458,6.547" transform="translate(-17.216 -17.625)"/><path class="c" d="M22,14.608,22.657,10l5.253.657" transform="translate(-11.493 -10)"/></g></g></g></svg>