<svg xmlns="http://www.w3.org/2000/svg" xmlns:xlink="http://www.w3.org/1999/xlink" width="19.409" height="19.409" viewBox="0 0 19.409 19.409"><defs><style>.a{fill:none;}.b{clip-path:url(#a);}.c{fill:#5f5f5f;}.d{fill:#fff;}</style><clipPath id="a"><rect class="a" width="19.409" height="19.409"/></clipPath></defs><g class="b"><path class="c" d="M0,9.552a.7.7,0,0,1,.757-.431c.308.02.619,0,.928.008.152.006.193-.053.205-.191A7.424,7.424,0,0,1,3.032,5.565,7.756,7.756,0,0,1,8.623,1.928c.05-.008.1-.018.149-.025.343-.045.343-.045.343-.4,0-.291,0-.581,0-.872a.583.583,0,1,1,1.161,0c0,.4,0,.808,0,1.218.327.051.645.092.96.152A7.845,7.845,0,0,1,17.4,8.225c.046.248.084.5.106.749.011.128.062.155.178.153.347-.006.695,0,1.042,0,.416,0,.676.221.679.573s-.259.583-.687.583c-.341,0-.682,0-1.023,0-.121,0-.175.024-.188.162a7.849,7.849,0,0,1-6.748,7.038c-.038,0-.075.014-.112.019-.372.056-.372.056-.372.427,0,.234-.016.469,0,.7a.707.707,0,0,1-.425.782h-.3a.7.7,0,0,1-.441-.754c.017-.321,0-.644.006-.966,0-.121-.04-.165-.16-.175-.2-.016-.4-.042-.6-.077a7.852,7.852,0,0,1-6.429-6.632c-.023-.172-.047-.344-.071-.524-.382,0-.742-.016-1.1,0A.7.7,0,0,1,0,9.855ZM9.69,16.4A6.7,6.7,0,1,0,3,9.685,6.708,6.708,0,0,0,9.69,16.4" transform="translate(0 0.001)"/><path class="d" d="M72.532,79.372a6.7,6.7,0,1,1,6.7-6.7,6.709,6.709,0,0,1-6.7,6.7m-3.873-6.706A3.88,3.88,0,1,0,72.55,68.8a3.881,3.881,0,0,0-3.891,3.87" transform="translate(-62.842 -62.97)"/><path class="c" d="M127.639,131.7a3.88,3.88,0,1,1,3.873,3.888,3.878,3.878,0,0,1-3.873-3.888" transform="translate(-121.822 -122.005)"/></g></svg>