<svg xmlns="http://www.w3.org/2000/svg" width="31.113" height="28.894" viewBox="0 0 31.113 28.894"><defs><style>.a{fill:#018837;}.b{fill:#e8c113;}</style></defs><g transform="translate(-437 -3090.848)"><g transform="translate(436.838 3584.548)"><path class="a" d="M10.537-493.657a1.67,1.67,0,0,0-1.186.967,1.834,1.834,0,0,0,.024,1.222,1.808,1.808,0,0,0,1.429.973c.1,0,.109.061.109.632v.626l-1.137.036a10.581,10.581,0,0,0-1.745.164,9.745,9.745,0,0,0-7.661,11.6A9.779,9.779,0,0,0,5.49-470.8l.5.249v2.615H3.83a24.274,24.274,0,0,0-2.463.067,1.647,1.647,0,0,0-1,.754,1.092,1.092,0,0,0-.182.754,1.143,1.143,0,0,0,.164.742,1.7,1.7,0,0,0,.772.705,4.465,4.465,0,0,0,1.544.1l1.332.006.152-.176a.42.42,0,0,0-.024-.6c-.085-.091-.231-.1-1.228-.1-1.3,0-1.544-.049-1.709-.322a.577.577,0,0,1-.024-.657c.195-.383-.833-.359,14.557-.359s14.362-.024,14.557.359a.577.577,0,0,1-.024.657.557.557,0,0,1-.347.255c-.158.049-4.031.067-12.343.067-12.039,0-12.118,0-12.24.122a.47.47,0,0,0-.006.614l.116.146H30.1l.31-.164a1.552,1.552,0,0,0,.353-2.542c-.456-.4-.426-.4-2.986-.413l-2.329-.018v-2.609l.486-.243a9.716,9.716,0,0,0,5.047-11.036,9.668,9.668,0,0,0-4.627-6.111c-.778-.45-1.046-.541-1.259-.42a.538.538,0,0,0-.219.249c-.1.3.024.438.736.8a8.934,8.934,0,0,1,4.591,6.1,10.654,10.654,0,0,1,0,3.46,8.931,8.931,0,0,1-3.6,5.5,9.717,9.717,0,0,1-1.113.663,3.566,3.566,0,0,1-.043-.778c0-.918-.079-1.216-.432-1.617a1.8,1.8,0,0,0-2.986.474c-.122.28-.14.42-.158,1.569l-.024,1.265H9.589l-.024-1.265c-.018-1.149-.036-1.289-.158-1.569a1.8,1.8,0,0,0-2.986-.474c-.353.4-.432.7-.432,1.617a4.43,4.43,0,0,1-.036.778,5.057,5.057,0,0,1-.511-.28,8.927,8.927,0,0,1-4.208-5.88,10.841,10.841,0,0,1,0-3.49,9.205,9.205,0,0,1,.839-2.329,8.456,8.456,0,0,1,1.739-2.28,8.792,8.792,0,0,1,4.293-2.292c.584-.134.638-.134,7.236-.152,5.728-.018,6.749-.012,7.357.073.389.049.772.109.845.128.1.03.182-.012.322-.146.219-.219.231-.377.049-.584s-.949-.347-2.311-.383l-1.082-.036v-.626c0-.572.012-.632.109-.632a1.829,1.829,0,0,0,1.429-.967,1.853,1.853,0,0,0,.024-1.228,1.926,1.926,0,0,0-.821-.857l-.286-.14L15.9-493.7C13.109-493.7,10.7-493.682,10.537-493.657Zm10.282.93a.66.66,0,0,1,.036,1.234c-.31.128-9.966.128-10.276,0a.659.659,0,0,1,.036-1.234C10.914-492.831,20.521-492.831,20.819-492.727Zm-1.21,2.87v.638H11.826V-490.5h7.783ZM8.227-473.537a1.179,1.179,0,0,1,.268.261l.14.2.018,2.566.018,2.572H6.9v-2.572c0-2.432.006-2.578.122-2.761A.881.881,0,0,1,8.227-473.537Zm15.931,0a.834.834,0,0,1,.255.268c.116.182.122.328.122,2.761v2.572H22.771v-2.39c0-1.307.018-2.487.036-2.609A.907.907,0,0,1,24.158-473.537Zm-2.3,4.688v.912H9.577v-1.824H21.859Z" transform="translate(0)"/><path class="b" d="M133.261-334.854a.456.456,0,0,0-.195.176,28.327,28.327,0,0,0-.067,3v2.882l.14.128c.134.128.195.134,1.265.134,1.3,0,1.392-.03,1.392-.42s-.122-.456-1.07-.48l-.815-.024V-332c0-1.4-.018-2.59-.036-2.645a.722.722,0,0,0-.432-.268A.763.763,0,0,0,133.261-334.854Z" transform="translate(-124.761 -149.135)"/><path class="b" d="M202.676-334.856l-.176.152v2.919c0,2.785.006,2.925.116,3.046a.509.509,0,0,0,.62.043c.1-.079.116-.188.146-1.174l.03-1.082.79-.03a2.3,2.3,0,0,0,1.137-.195,2.16,2.16,0,0,0,.973-.949,1.638,1.638,0,0,0,.14-.863,1.408,1.408,0,0,0-.176-.9,2.17,2.17,0,0,0-1-.918c-.316-.146-.407-.158-1.38-.176C202.859-335.008,202.853-335.008,202.676-334.856Zm2.3.918a.988.988,0,0,1,.578.912.914.914,0,0,1-.45.924c-.219.17-.261.176-.979.195l-.748.024v-1.064a6.356,6.356,0,0,1,.049-1.1,2.81,2.81,0,0,1,.681-.024A2.351,2.351,0,0,1,204.981-333.938Z" transform="translate(-190.035 -149.054)"/><path class="b" d="M282.964-334.763a3.2,3.2,0,0,0-2.675,3.594,3.156,3.156,0,0,0,3.125,2.73,2.44,2.44,0,0,0,1.988-.821,3.563,3.563,0,0,0,.857-2.2c0-.559-.134-.626-1.277-.626a3.569,3.569,0,0,0-.991.073.41.41,0,0,0-.158.681c.122.152.146.158.79.158h.663v.152a2.011,2.011,0,0,1-1.186,1.569,2.426,2.426,0,0,1-1.441-.018,2.186,2.186,0,0,1-1.471-2.159,1.944,1.944,0,0,1,.626-1.544,2.209,2.209,0,0,1,2.706-.432c.426.219.517.225.73.055a.427.427,0,0,0,.024-.651,3.368,3.368,0,0,0-1.326-.553A2.341,2.341,0,0,0,282.964-334.763Z" transform="translate(-263.063 -149.226)"/></g></g></svg>