<svg xmlns="http://www.w3.org/2000/svg" width="69" height="69" viewBox="0 0 69 69"><defs><style>.a{fill:none;}.b,.d{opacity:0;}.c,.d{fill:#018837;}.e{fill:#e8c113;}</style></defs><g transform="translate(-418 -3070.848)"><circle class="a" cx="34.5" cy="34.5" r="34.5" transform="translate(418 3070.848)"/><g transform="translate(335.618 3029.199)"><g transform="translate(110.089 72.156)"><g class="b" transform="translate(0 0)"><path class="c" d="M133.306,163.023c0-.717.444-.755,1.161-.755h7.959c.718,0,.687.037.687.755v12.729c0,.717.03.876-.687.876h-8.26c-.717,0-.86-.158-.86-.876Z" transform="translate(-133.306 -162.268)"/></g><g transform="translate(3.219 4.372)"><path class="d" d="M168.132,207.561a1.866,1.866,0,0,1-1.926,1.712,1.91,1.91,0,0,1-2.069-1.712c0-1.6,2.069-3.425,2.069-3.425S168.132,205.965,168.132,207.561Z" transform="translate(-164.136 -204.136)"/></g><g class="b" transform="translate(3.22 4.372)"><path class="c" d="M165.188,207.561a5,5,0,0,1,1.525-2.882c-.288-.334-.507-.543-.507-.543s-2.069,1.829-2.069,3.425a1.91,1.91,0,0,0,2.069,1.712,1.991,1.991,0,0,0,.491-.066A1.757,1.757,0,0,1,165.188,207.561Z" transform="translate(-164.137 -204.136)"/></g></g><g transform="translate(107.382 61.649)"><g transform="translate(1.306 2.452)"><path class="c" d="M123.217,87.929h-2.8a.525.525,0,0,1-.525-.525V85.652a.525.525,0,0,1,.525-.525h2.8a.525.525,0,0,1,.525.525V87.4A.525.525,0,0,1,123.217,87.929Zm-2.277-1.051h1.751v-.7h-1.751Z" transform="translate(-119.89 -85.127)"/></g><g transform="translate(7.8 14.354)"><path class="e" d="M161.7,205.294a2.421,2.421,0,0,1-2.595-2.238c0-1.781,2.017-3.615,2.247-3.819a.526.526,0,0,1,.71.013c.085.081,2.09,2.005,2.09,3.806A2.377,2.377,0,0,1,161.7,205.294Zm-.014-4.92a4.861,4.861,0,0,0-1.53,2.682c0,.819.9,1.187,1.544,1.187.488,0,1.4-.348,1.4-1.187A4.952,4.952,0,0,0,161.686,200.375Z" transform="translate(-159.105 -199.106)"/></g><g class="b"><rect class="c" width="2.452" height="1.53" transform="translate(14.615 12.258)"/><g transform="translate(14.615 15.06)"><rect class="c" width="2.452" height="1.53"/></g><g transform="translate(14.615 17.862)"><rect class="c" width="2.452" height="1.53"/></g><g transform="translate(14.615 20.664)"><rect class="c" width="2.452" height="1.53"/></g></g><g transform="translate(0)"><path class="c" d="M112.015,65.151h-2.795a1.753,1.753,0,1,1,0-3.5h2.795a1.753,1.753,0,1,1,0,3.5ZM109.221,62.7a.705.705,0,1,0,0,1.4h2.795a.705.705,0,1,0,0-1.4Z" transform="translate(-107.382 -61.649)"/></g><g transform="translate(0.431 0.175)"><path class="c" d="M129.892,92.047H112.03a.525.525,0,0,1-.525-.525V69.12a.526.526,0,0,1,.1-.3l.754-1.064a.525.525,0,0,1,.429-.221h3.425a.526.526,0,0,1,.462.274l.422.776h1.417V65.7a.525.525,0,0,1,.2-.411l2.312-1.842a.525.525,0,0,1,.327-.115h8.545a.525.525,0,0,1,.525.525V86.619a.525.525,0,0,1-1.051,0V64.379h-7.836l-1.97,1.57v3.158a.525.525,0,0,1-.525.525H116.78a.526.526,0,0,1-.462-.274l-.422-.776h-2.841l-.5.706V91h16.811V89.508a.525.525,0,1,1,1.051,0v2.014A.525.525,0,0,1,129.892,92.047Zm-2.649-23.839h-4.969a1.488,1.488,0,1,1,0-2.977h4.969a1.488,1.488,0,0,1,0,2.977Zm-4.969-1.926a.438.438,0,0,0,0,.875h4.969a.438.438,0,1,0,0-.875Z" transform="translate(-111.505 -63.328)"/></g><g transform="translate(4.58 9.982)"><path class="c" d="M137.918,172.647h-8.156c-1.488,0-1.488-1.11-1.488-1.773V162.71a.525.525,0,1,1,1.051,0v8.165c0,.722,0,.722.438.722h8.156a.6.6,0,0,0,.131-.011,2.836,2.836,0,0,0,.031-.57v-12.29c0-.108,0-.206.005-.294,0-.046,0-.1,0-.142h-8.129a2.141,2.141,0,0,0-.619.055.858.858,0,0,0-.016.174v1.325a.525.525,0,1,1-1.051,0v-1.325c0-1.28,1.1-1.28,1.686-1.28h8.055a.975.975,0,0,1,1.121,1.223c0,.08,0,.168,0,.265v12.288a1.746,1.746,0,0,1-.336,1.322A1.173,1.173,0,0,1,137.918,172.647Z" transform="translate(-128.273 -157.237)"/></g></g></g></g></svg>