<svg xmlns="http://www.w3.org/2000/svg" width="26" height="26" viewBox="0 0 26 26"><defs><style>.a{fill:#018837;stroke:#418950;}.b{fill:#fff;}.c{stroke:none;}.d{fill:none;}</style></defs><g transform="translate(-0.085 26) rotate(-90)"><g class="a" transform="translate(0 0.085)"><circle class="c" cx="13" cy="13" r="13"/><circle class="d" cx="13" cy="13" r="12.5"/></g><path class="b" d="M.216,10.234a.823.823,0,0,1,0-1.112L3.873,5.232.216,1.341A.821.821,0,0,1,.216.23a.707.707,0,0,1,1.044,0L5.44,4.676a.821.821,0,0,1,0,1.111l-4.18,4.446a.707.707,0,0,1-1.044,0Z" transform="translate(18.463 10.428) rotate(90)"/></g></svg>