<svg xmlns="http://www.w3.org/2000/svg" width="32.125" height="28.895" viewBox="0 0 32.125 28.895"><defs><style>.a{fill:#018837;}.b{fill:#e8c113;}</style></defs><g transform="translate(-436.5 -3090.848)"><g transform="translate(436.134 3576.699)"><path class="a" d="M4.842-485.792a2.877,2.877,0,0,0-2.011,1.426c-.371.735-.352-.082-.352,13.535v12.492H1.725c-.88,0-1.131.075-1.288.377a.686.686,0,0,0,.478.968c.258.05,30.77.05,31.028,0a.686.686,0,0,0,.478-.968c-.2-.39.038-.377-6.221-.377H20.513l.013-5.391.019-5.385.729.006a2.132,2.132,0,0,1,1.068.163,1.767,1.767,0,0,1,.911.9c.126.289.138.44.17,1.759a5.688,5.688,0,0,0,.195,1.954,3.547,3.547,0,0,0,3.638,2.457,3.6,3.6,0,0,0,3.142-2.407l.138-.371.019-5.95c.019-6.648.031-6.441-.415-7.37a5.469,5.469,0,0,0-.5-.817c-.383-.478-5.435-6.221-5.492-6.24a1.312,1.312,0,0,0-.714.166.9.9,0,0,0-.213.621c.032.113-.021.143,1.939,2.374,2.023,2.306,2.1,2.413,1.759,2.419a2.551,2.551,0,0,0-1.081.622,2.517,2.517,0,0,0-.6.811,1.737,1.737,0,0,0-.239,1.137,2.3,2.3,0,0,0,.145,1.012,2.811,2.811,0,0,0,1.734,1.6,2.945,2.945,0,0,0,2.086-.22,1.116,1.116,0,0,1,.239-.119c.025,0,.031,2.168.025,4.819l-.019,4.826-.151.377a2.458,2.458,0,0,1-1.081,1.15A2.226,2.226,0,0,1,25-464.516c-.176-.383-.182-.408-.22-1.9-.044-1.6-.069-1.766-.4-2.413a3.653,3.653,0,0,0-1.3-1.269,3.846,3.846,0,0,0-1.86-.371h-.71v-6.522c0-6.371,0-6.535-.126-6.893a2.809,2.809,0,0,0-2.293-1.916C17.553-485.873,5.376-485.867,4.842-485.792Zm13.509,1.464a1.475,1.475,0,0,1,.754.836c.069.195.082,2.451.088,12.693v12.46H3.8v-12.309c0-7.791.025-12.422.063-12.63a1.442,1.442,0,0,1,.767-1.037l.327-.163H18.031Zm10.091,6.365a1.373,1.373,0,0,1,.088,2.136,1.288,1.288,0,0,1-1.772-.057,1.344,1.344,0,0,1,.415-2.243,1.747,1.747,0,0,1,.578-.05A.962.962,0,0,1,28.443-477.963Z"/><path class="a" d="M74.4-432.881a.784.784,0,0,0-.27.226c-.132.17-.132.176-.132,4.336v4.172l.182.2.182.207,6.133.019c6.818.019,6.491.038,6.667-.39.138-.327.138-8.1.006-8.426-.182-.434.195-.408-6.554-.4C77.274-432.937,74.471-432.912,74.4-432.881Zm11.474,4.524v3.267H75.32v-6.535H85.876Z" transform="translate(-69.007 -49.587)"/><path class="b" d="M202.744-334.8l-.244.211v4.043c0,3.858.008,4.052.16,4.22a.706.706,0,0,0,.859.059c.143-.109.16-.261.2-1.626l.042-1.5,1.1-.042a3.182,3.182,0,0,0,1.575-.27,2.992,2.992,0,0,0,1.348-1.314,2.269,2.269,0,0,0,.194-1.2,1.95,1.95,0,0,0-.244-1.247,3.007,3.007,0,0,0-1.39-1.272c-.438-.2-.564-.219-1.912-.244C203-335.013,202.989-335.013,202.744-334.8Zm3.193,1.272a1.369,1.369,0,0,1,.8,1.264,1.266,1.266,0,0,1-.623,1.28c-.3.236-.362.244-1.356.27l-1.036.034v-1.474a8.805,8.805,0,0,1,.067-1.525,3.894,3.894,0,0,1,.943-.034A3.258,3.258,0,0,1,205.937-333.53Z" transform="translate(-193.194 -135.506)"/></g></g></svg>