<svg xmlns="http://www.w3.org/2000/svg" width="69" height="69" viewBox="0 0 69 69"><defs><style>.a{fill:none;}.b{fill:#018837;}.c{fill:#e8c113;}</style></defs><g transform="translate(-418 -3070.848)"><circle class="a" cx="34.5" cy="34.5" r="34.5" transform="translate(418 3070.848)"/><g transform="translate(438.2 3605.218)"><path class="b" d="M3.427-511.917a1.469,1.469,0,0,0-.384.265c-.356.345-.35.249-.35,5.389v4.649H1.534c-1.294,0-1.48.04-1.633.333a32.678,32.678,0,0,0,0,5.152c.153.294.339.333,1.627.333H2.687l.017,2.7a16,16,0,0,0,.09,2.8c.068.079.068.124,0,.305a4.869,4.869,0,0,0-.073,1.147c0,.887.006.949.147,1.248a1.738,1.738,0,0,0,1.288,1.005l.26.034.028,1.073c.034,1.248.1,1.48.559,1.909s.6.463,2.378.463c1.514,0,1.559-.006,1.825-.13a1.9,1.9,0,0,0,.881-.943,3.41,3.41,0,0,0,.119-1.327v-1.017H18.34v1.017a3.41,3.41,0,0,0,.119,1.327,1.9,1.9,0,0,0,.881.943c.265.124.311.13,1.825.13,1.779,0,1.909-.023,2.378-.463s.525-.661.559-1.909l.028-1.073.26-.034a1.738,1.738,0,0,0,1.288-1.005c.141-.3.147-.362.147-1.248a4.869,4.869,0,0,0-.073-1.147c-.068-.181-.068-.226,0-.305a16,16,0,0,0,.09-2.8l.017-2.7h1.158c1.288,0,1.474-.04,1.627-.333a32.678,32.678,0,0,0,0-5.152c-.153-.294-.339-.333-1.633-.333H25.853v-4.649c0-5.141.006-5.044-.35-5.389-.4-.384.5-.356-11.241-.356C4.89-512,3.6-511.991,3.427-511.917Zm21.24,8.14v7.106l-.249.158a1.475,1.475,0,0,1-.282.152c-.017,0-.034-1.9-.034-4.225,0-4.722.006-4.655-.4-5.327a2.849,2.849,0,0,0-1.068-1.068c-.695-.412-.271-.4-8.366-.4s-7.671-.017-8.366.4a2.849,2.849,0,0,0-1.068,1.068c-.4.672-.4.6-.4,5.327,0,2.327-.017,4.225-.034,4.225a1.32,1.32,0,0,1-.282-.158l-.249-.152v-14.207H24.666ZM21.9-506.071a1.875,1.875,0,0,1,.9.9l.147.311.017,5.1.017,5.1h-.316a1.5,1.5,0,0,0-.5.079,5.55,5.55,0,0,0-.83.734l-.65.655-.028,1.006-.028,1H7.917l-.028-1L7.861-493.2l-.65-.655a5.55,5.55,0,0,0-.83-.734,1.5,1.5,0,0,0-.5-.079H5.568l.017-5.1.017-5.1.147-.311a1.8,1.8,0,0,1,1.288-1.017c.141-.023,3.474-.04,7.406-.034l7.146.006ZM2.692-498.7v1.723H.941v-3.446H2.692Zm24.912,0v1.723H25.853v-3.446H27.6Zm-23.16,5.66v1.881H3.878v-4.124l.282.181.282.186Zm20.223-.181v2.062H24.1v-3.773l.271-.175a3.119,3.119,0,0,1,.282-.175C24.661-495.287,24.666-494.361,24.666-493.225Zm-18.319.153.412.407v1.508l-.576-.017-.582-.017-.017-1.147-.011-1.141h.181C5.906-493.479,6.008-493.412,6.347-493.073Zm16.613.734-.017,1.147-.576.017-.582.017v-1.5l.407-.407c.345-.345.441-.412.593-.412h.186Zm1.4,2.389c.271.13.311.282.311,1.118,0,.8-.034.9-.322,1.051-.175.09-19.969.09-20.144,0-.288-.147-.322-.254-.322-1.051a4.106,4.106,0,0,1,.062-.887c.153-.333-.5-.316,10.32-.316C23.09-490.034,24.192-490.022,24.356-489.949Zm-15.28,4.288c0,1.457.045,1.418-1.729,1.418-1.808,0-1.734.051-1.762-1.344l-.023-.943H9.075Zm13.885.073c-.028,1.4.045,1.344-1.762,1.344-1.774,0-1.729.039-1.729-1.418v-.87h3.514Z" transform="translate(0 -2.362)"/><path class="b" d="M113.65-388.893a1.057,1.057,0,0,0-.565.582,21.371,21.371,0,0,0-.085,3.627v3.418l.13.141a8.942,8.942,0,0,0,1.536.751l1.412.61h10l1.412-.61a9.393,9.393,0,0,0,1.542-.751l.124-.141V-384.7c0-3.214-.011-3.446-.107-3.655a1.057,1.057,0,0,0-.582-.565c-.186-.073-1.039-.085-7.4-.085C114.2-389,113.864-388.994,113.65-388.893Zm14.365,4.028L128-381.86l-1.073.463-1.073.469-.915.006h-.915l.153-.271.158-.266.932-.028a6.7,6.7,0,0,0,1.022-.079.582.582,0,0,0,.271-.514.483.483,0,0,0-.164-.373l-.164-.164h-3.949l-.147.141a.543.543,0,0,0-.141.582c.068.254.328.407.712.407h.3l-.153.282-.153.282h-4.451l.153-.277.147-.282.949-.017c.909-.017.96-.023,1.09-.147a.533.533,0,0,0,.153-.6c-.119-.367-.124-.367-2.26-.367a17.477,17.477,0,0,0-2.039.057.637.637,0,0,0-.254.593c.057.3.265.441.678.469l.362.023-.153.266c-.153.254-.158.26-.463.271-.271.011-.418-.034-1.378-.452l-1.073-.469-.034-2.966c-.017-1.627-.023-2.977-.011-3.005s3.146-.04,6.971-.04h6.942Z" transform="translate(-106.805 -118.421)"/><path class="c" d="M164.4-204.618a.636.636,0,0,0-.271.192.537.537,0,0,0,.232.876c.282.119,9.366.119,9.648,0a.533.533,0,0,0,.209-.893l-.164-.186-4.768-.006C166.661-204.641,164.464-204.635,164.4-204.618Z" transform="translate(-154.908 -292.369)"/><path class="c" d="M164.288-173.972a.613.613,0,0,0-.288.475.741.741,0,0,0,.277.52c.073.04,1.729.057,4.92.057s4.847-.017,4.92-.057a.761.761,0,0,0,.277-.508.613.613,0,0,0-.311-.5C173.857-174.085,164.475-174.074,164.288-173.972Z" transform="translate(-154.925 -321.225)"/><path class="c" d="M174.83-112.931a.558.558,0,0,0-.153.966c.147.113.243.119,1.356.136.661.011,1.282,0,1.39-.017a.574.574,0,0,0,0-1.124A16.337,16.337,0,0,0,174.83-112.931Z" transform="translate(-164.794 -378.826)"/><path class="c" d="M277.316-112.618a.649.649,0,0,0-.266.169.569.569,0,0,0,.2.915,8.325,8.325,0,0,0,1.367.062c1.022,0,1.22-.017,1.39-.1a.5.5,0,0,0,.288-.638c-.119-.4-.2-.418-1.616-.424C278-112.641,277.384-112.635,277.316-112.618Z" transform="translate(-261.445 -379.173)"/></g></g></svg>