<svg xmlns="http://www.w3.org/2000/svg" width="69" height="69" viewBox="0 0 69 69"><defs><style>.a{fill:none;}.b{fill:#e8c113;stroke:#e8c113;}.b,.c{stroke-width:0.2px;}.c{fill:#018837;stroke:#018837;}</style></defs><g transform="translate(-418 -3070.848)"><circle class="a" cx="34.5" cy="34.5" r="34.5" transform="translate(418 3070.848)"/><g transform="translate(377.012 3546.848)"><path class="b" d="M250.133-454.867c-.133.133-.133.22-.133,13.127s0,12.993.133,13.127a.347.347,0,0,0,.533,0c.133-.133.133-.22.133-13.127s0-12.993-.133-13.127A.461.461,0,0,0,250.4-455,.461.461,0,0,0,250.133-454.867Z" transform="translate(-175.484 0)"/><path class="c" d="M91.311-454.751a3.37,3.37,0,0,0-2.605,2.192,3.611,3.611,0,0,0,.007,2.126,3.215,3.215,0,0,0,3.058,2.166,3.012,3.012,0,0,0,2.239-.88,3.243,3.243,0,0,0,.493-4.178,3.913,3.913,0,0,0-.546-.646A3.535,3.535,0,0,0,91.311-454.751Zm1.513,1.019a2.6,2.6,0,0,1,1.206,1.186,1.879,1.879,0,0,1,.18,1.046,1.767,1.767,0,0,1-.187,1.039,3.007,3.007,0,0,1-1.226,1.206,2.851,2.851,0,0,1-1.839.053,2.451,2.451,0,0,1-1-3.931A2.387,2.387,0,0,1,92.824-453.731Z" transform="translate(-24.792 -0.202)"/><path class="c" d="M63.3-344.024a2.008,2.008,0,0,0-1.246,1.306c-.04.14-.067,1.546-.067,3.425,0,3.765-.06,3.458.866,4.318a4.88,4.88,0,0,1,.733.8c.133.233.187.673.526,4.171.406,4.178.406,4.165.806,4.5.346.286.58.32,2.239.293l1.539-.02.267-.18c.506-.333.506-.32.92-4.584.2-2.106.406-3.925.446-4.031a5.551,5.551,0,0,1,.793-.933,6.036,6.036,0,0,0,.786-.92c.047-.127.073-1.319.073-3.5v-3.312l-.16-.333a2.039,2.039,0,0,0-1.126-1A65.238,65.238,0,0,0,63.3-344.024Zm7.4.88a1.962,1.962,0,0,1,.34.36l.147.22v6.41l-.673.666a3.173,3.173,0,0,0-1.019,1.466c-.02.107-.193,1.759-.373,3.665-.406,4.245-.386,4.085-.54,4.238-.113.113-.24.127-1.559.127-1.439,0-1.439,0-1.6-.167a.522.522,0,0,1-.167-.286c0-.073-.167-1.819-.366-3.878-.433-4.464-.34-4.131-1.4-5.157l-.7-.68v-3.132c0-3.112,0-3.132.153-3.425a.964.964,0,0,1,.413-.446l.267-.153,3.445.02C70.438-343.285,70.511-343.285,70.7-343.145Z" transform="translate(0 -103.486)"/><g transform="translate(1)"><path class="c" d="M318.072-454.762a3.288,3.288,0,0,0-1.826,1.039,3.245,3.245,0,0,0-.813,2.625,3.223,3.223,0,0,0,3.265,2.8,3.25,3.25,0,0,0,2.819-4.831,3.727,3.727,0,0,0-1.359-1.313A3.3,3.3,0,0,0,318.072-454.762Zm1.466.92a2.44,2.44,0,0,1,1.439,1.473,2.633,2.633,0,0,1-.093,1.886,2.6,2.6,0,0,1-1.166,1.166,1.8,1.8,0,0,1-1.046.187,1.879,1.879,0,0,1-1.046-.18,2.469,2.469,0,0,1-.78-3.885A2.449,2.449,0,0,1,319.538-453.843Z" transform="translate(-236.526 -0.171)"/><path class="c" d="M283.116-343.952a2.219,2.219,0,0,0-1.079.919c-.14.26-.147.367-.187,2.705l-.04,2.432L281-334.137c-.826,3.851-.833,3.925-.586,4.085a11.068,11.068,0,0,0,1.426.053h1.346v2.012c0,1.812.013,2.046.127,2.285a1.286,1.286,0,0,0,.793.7,23.592,23.592,0,0,0,3.565-.007,1.437,1.437,0,0,0,.82-.706,10.22,10.22,0,0,0,.093-2.252V-330h1.366c1.279,0,1.373-.007,1.5-.133a.446.446,0,0,0,.133-.22c0-.04-.426-1.786-.946-3.878l-.94-3.8-.04-2.365c-.04-2.272-.047-2.379-.187-2.639a2.142,2.142,0,0,0-1.106-.926A32.135,32.135,0,0,0,283.116-343.952Zm5.244.866a1.816,1.816,0,0,1,.32.32c.133.173.14.293.18,2.492l.033,2.312.88,3.552c.486,1.959.88,3.565.88,3.585s-.586.027-1.3.027c-1.213,0-1.306.007-1.433.133s-.133.22-.133,2.392v2.266l-.173.133c-.167.133-.26.14-1.739.14h-1.559l-.16-.167-.167-.16v-2.245c0-2-.013-2.259-.113-2.372s-.233-.12-1.433-.12H281.11l.04-.187c.02-.1.36-1.679.753-3.512l.706-3.332.027-2.266c.013-1.246.04-2.332.053-2.412a1.3,1.3,0,0,1,.6-.66,12.111,12.111,0,0,1,2.545-.073C288.087-343.226,288.187-343.219,288.36-343.086Z" transform="translate(-203.743 -103.545)"/></g></g></g></svg>