<svg xmlns="http://www.w3.org/2000/svg" width="69" height="69" viewBox="0 0 69 69"><defs><style>.a{fill:none;}.b{fill:#018837;}.c{fill:#e8c113;}</style></defs><g transform="translate(-418 -3070.848)"><circle class="a" cx="34.5" cy="34.5" r="34.5" transform="translate(418 3070.848)"/><g transform="translate(385.62 3602.754)"><path class="b" d="M65.855-511.837a13.5,13.5,0,0,0-1.187,1.619c-5.462,8.083-7.812,11.609-8.048,12.047a10.74,10.74,0,0,0-.144,9.736,10.785,10.785,0,0,0,6.988,5.681,10.745,10.745,0,0,0,12.571-6.314,10.376,10.376,0,0,0,.8-4.494l-.029-1.031.334-.363a5.1,5.1,0,0,0,.893-5.588c-.225-.484-4.125-6.3-4.338-6.47a.5.5,0,0,0-.565-.046,7.1,7.1,0,0,0-.956,1.273c-.444.657-.812,1.193-.824,1.181s-1.072-1.584-2.356-3.5-2.42-3.555-2.518-3.647A.5.5,0,0,0,65.855-511.837Zm2.518,4.891c1.2,1.792,2.212,3.3,2.23,3.347a7.752,7.752,0,0,1-.812,1.331c-1.216,1.8-1.452,2.362-1.509,3.635a4.919,4.919,0,0,0,1.5,3.86A5.035,5.035,0,0,0,73.4-493.3a4.939,4.939,0,0,0,2.23-.5c.052-.023.069.109.069.565a9.571,9.571,0,0,1-4.309,8.066,9.541,9.541,0,0,1-10.18.236,9.927,9.927,0,0,1-4.137-5.053,9.937,9.937,0,0,1-.035-6.234c.374-1.118.714-1.665,4.978-7.991,2.253-3.341,4.108-6.055,4.125-6.032S67.163-508.743,68.372-506.946Zm6.741,4.044c.9,1.331,1.705,2.569,1.8,2.76a4.171,4.171,0,0,1,.311,2.633,4.133,4.133,0,0,1-2.852,2.915,4.5,4.5,0,0,1-2.16-.052,3.974,3.974,0,0,1-2.673-4.69c.133-.57.5-1.181,2.155-3.641a14.522,14.522,0,0,1,1.734-2.408C73.46-505.344,74.22-504.226,75.113-502.9Z" transform="translate(0 0)"/><path class="c" d="M99.159-268.991a6.208,6.208,0,0,0-.876,1.342,9.957,9.957,0,0,0-.68,2.028,10.215,10.215,0,0,0,0,2.9,7.964,7.964,0,0,0,4.211,5.617,4.28,4.28,0,0,0,1.44.524.569.569,0,0,0,.53-.657c-.052-.265-.225-.409-.726-.588a6.525,6.525,0,0,1-2.327-1.458,6.519,6.519,0,0,1-2.068-4.874A6.612,6.612,0,0,1,99.833-268c.288-.438.305-.668.063-.91A.6.6,0,0,0,99.159-268.991Z" transform="translate(-39.693 -228.835)"/><path class="c" d="M218.218-63.776a.552.552,0,0,0-.156.887.409.409,0,0,0,.4.179.55.55,0,0,0,.311-1.025A.45.45,0,0,0,218.218-63.776Z" transform="translate(-153.163 -422.239)"/><path class="c" d="M312.74-308.3c-.518.259-.737,1.607-.415,2.552a2.8,2.8,0,0,0,.53.962,1.756,1.756,0,0,0,1.037.76.609.609,0,0,0,.588-.732,1.857,1.857,0,0,0-.415-.513,1.952,1.952,0,0,1-.582-2.143c.121-.386.121-.421.035-.6A.554.554,0,0,0,312.74-308.3Z" transform="translate(-242 -191.808)"/><path class="c" d="M358.323-244.5a.648.648,0,0,0-.276.2.581.581,0,0,0,.432.974.552.552,0,0,0,.576-.593.413.413,0,0,0-.179-.409.784.784,0,0,0-.225-.15.663.663,0,0,1-.127-.023A.608.608,0,0,0,358.323-244.5Z" transform="translate(-285.088 -251.992)"/></g></g></svg>