<svg id="facebook-4" xmlns="http://www.w3.org/2000/svg" width="58.582" height="58.582" viewBox="0 0 58.582 58.582">
  <g id="Group_518" data-name="Group 518" transform="translate(28.147 42.945)">
    <g id="Group_517" data-name="Group 517">
      <path id="Path_528" data-name="Path 528" d="M247.144,375.333A1.144,1.144,0,0,0,246,376.477v.018a1.144,1.144,0,0,0,2.288,0v-.018A1.144,1.144,0,0,0,247.144,375.333Z" transform="translate(-246 -375.333)" fill="#a3c854"/>
    </g>
  </g>
  <g id="Group_520" data-name="Group 520" transform="translate(0 0)">
    <g id="Group_519" data-name="Group 519">
      <path id="Path_529" data-name="Path 529" d="M47.369,0H11.213A11.226,11.226,0,0,0,0,11.213V47.369A11.226,11.226,0,0,0,11.213,58.582H29.291a1.144,1.144,0,0,0,1.144-1.144V48.57a1.144,1.144,0,1,0-2.288,0v7.723H11.213a8.935,8.935,0,0,1-8.925-8.925V11.213a8.935,8.935,0,0,1,8.925-8.925H47.369a8.935,8.935,0,0,1,8.925,8.925V47.369a8.935,8.935,0,0,1-8.925,8.925H40.046V36.1H46.68a1.144,1.144,0,0,0,1.138-1.03l.823-8.176A1.144,1.144,0,0,0,47.5,25.635H40.046V21.342c0-.777.247-1.066.913-1.066h6.492A1.144,1.144,0,0,0,48.6,19.132v-7.97a1.144,1.144,0,0,0-1.144-1.144H38.926c-4.831,0-7.393,2.122-8.692,3.9a12.042,12.042,0,0,0-2.087,6.96v4.806H22.54A1.144,1.144,0,0,0,21.4,26.83v8.124A1.144,1.144,0,0,0,22.54,36.1h5.606V39.36a1.144,1.144,0,1,0,2.288,0V34.955a1.144,1.144,0,0,0-1.144-1.144H23.684V27.974h5.606a1.144,1.144,0,0,0,1.144-1.144V20.88c0-2.578.827-8.574,8.491-8.574h7.382v5.682H40.959a3.074,3.074,0,0,0-3.2,3.354v5.437A1.144,1.144,0,0,0,38.9,27.923h7.336l-.592,5.887H38.9a1.144,1.144,0,0,0-1.144,1.144V57.438A1.144,1.144,0,0,0,38.9,58.582h8.467A11.226,11.226,0,0,0,58.582,47.369V11.213A11.226,11.226,0,0,0,47.369,0Z" transform="translate(0 0)" fill="#4a9953"/>
    </g>
  </g>
  <g id="Group_522" data-name="Group 522" transform="translate(5.492 11.728)">
    <g id="Group_521" data-name="Group 521">
      <path id="Path_530" data-name="Path 530" d="M49.144,102.5A1.144,1.144,0,0,0,48,103.644V113.2a1.144,1.144,0,1,0,2.288,0v-9.554A1.144,1.144,0,0,0,49.144,102.5Z" transform="translate(-48 -102.5)" fill="#a3c854"/>
    </g>
  </g>
  <g id="Group_524" data-name="Group 524" transform="translate(5.492 26.245)">
    <g id="Group_523" data-name="Group 523">
      <path id="Path_531" data-name="Path 531" d="M49.144,229.382A1.144,1.144,0,0,0,48,230.526v.013a1.144,1.144,0,0,0,2.288,0v-.013A1.144,1.144,0,0,0,49.144,229.382Z" transform="translate(-48 -229.382)" fill="#a3c854"/>
    </g>
  </g>
</svg>
