<svg id="Faqs" xmlns="http://www.w3.org/2000/svg" width="67.461" height="67.461" viewBox="0 0 67.461 67.461">
  <g id="Group_491" data-name="Group 491" transform="translate(0 22.926)">
    <g id="Group_490" data-name="Group 490">
      <path id="Path_517" data-name="Path 517" d="M45.589,193.105a1.318,1.318,0,0,0-1.318,1.318v9.091a6.6,6.6,0,0,1-6.588,6.588H23.457a1.318,1.318,0,0,0-1.318,1.317l0,2.62-3.145-3.145a1.318,1.318,0,0,0-1.208-.792H9.223a6.6,6.6,0,0,1-6.588-6.588V183.223a6.6,6.6,0,0,1,6.588-6.588H22.531a1.318,1.318,0,0,0,0-2.635H9.223A9.234,9.234,0,0,0,0,183.223v20.291a9.234,9.234,0,0,0,9.223,9.223H17.11l5.412,5.411a1.318,1.318,0,0,0,2.249-.931l0-4.481H37.683a9.234,9.234,0,0,0,9.223-9.223v-9.091A1.318,1.318,0,0,0,45.589,193.105Z" transform="translate(0 -174)" fill="#a3c854"/>
    </g>
  </g>
  <g id="Group_493" data-name="Group 493" transform="translate(25.825)">
    <g id="Group_492" data-name="Group 492">
      <path id="Path_518" data-name="Path 518" d="M218.485,0h-3.335a19.151,19.151,0,1,0,0,38.3h3.335a19.187,19.187,0,0,0,4.861-.623l4.926,4.923a1.318,1.318,0,0,0,2.249-.932V34.047a19.334,19.334,0,0,0,5.034-6.206,18.944,18.944,0,0,0,2.081-8.69A19.172,19.172,0,0,0,218.485,0Zm9.925,32.352a1.318,1.318,0,0,0-.525,1.052V38.49l-3.224-3.223a1.317,1.317,0,0,0-1.318-.327,16.52,16.52,0,0,1-4.858.726h-3.335a16.516,16.516,0,1,1,0-33.031h3.335a16.516,16.516,0,0,1,9.925,29.716Z" transform="translate(-196)" fill="#4a9953"/>
    </g>
  </g>
  <g id="Group_495" data-name="Group 495" transform="translate(41.433 9.231)">
    <g id="Group_494" data-name="Group 494">
      <path id="Path_519" data-name="Path 519" d="M325.605,75.249a5.591,5.591,0,0,0-5.172-5.172,5.535,5.535,0,0,0-4.2,1.486,5.6,5.6,0,0,0-1.773,4.078,1.318,1.318,0,0,0,2.635,0,2.944,2.944,0,0,1,3.155-2.936,2.944,2.944,0,0,1,.435,5.808,2.493,2.493,0,0,0-1.964,2.444v3.166a1.318,1.318,0,1,0,2.635,0v-3.06A5.55,5.55,0,0,0,325.605,75.249Z" transform="translate(-314.462 -70.063)" fill="#4a9953"/>
    </g>
  </g>
  <g id="Group_497" data-name="Group 497" transform="translate(45.694 27.186)">
    <g id="Group_496" data-name="Group 496">
      <path id="Path_520" data-name="Path 520" d="M349.049,206.716a1.318,1.318,0,1,0,.386.932A1.327,1.327,0,0,0,349.049,206.716Z" transform="translate(-346.8 -206.33)" fill="#4a9953"/>
    </g>
  </g>
  <g id="Group_499" data-name="Group 499" transform="translate(7.115 40.845)">
    <g id="Group_498" data-name="Group 498">
      <path id="Path_521" data-name="Path 521" d="M83.119,310h-27.8a1.318,1.318,0,0,0,0,2.635h27.8a1.318,1.318,0,1,0,0-2.635Z" transform="translate(-54 -310)" fill="#a3c854"/>
    </g>
  </g>
  <g id="Group_501" data-name="Group 501" transform="translate(34.916 48.224)">
    <g id="Group_500" data-name="Group 500">
      <path id="Path_522" data-name="Path 522" d="M267.249,366.386a1.317,1.317,0,1,0,.386.932A1.327,1.327,0,0,0,267.249,366.386Z" transform="translate(-265 -366)" fill="#a3c854"/>
    </g>
  </g>
  <g id="Group_503" data-name="Group 503" transform="translate(7.115 48.224)">
    <g id="Group_502" data-name="Group 502">
      <path id="Path_523" data-name="Path 523" d="M77.936,366H55.318a1.318,1.318,0,0,0,0,2.635H77.936a1.318,1.318,0,1,0,0-2.635Z" transform="translate(-54 -366)" fill="#a3c854"/>
    </g>
  </g>
  <g id="Group_505" data-name="Group 505" transform="translate(7.115 33.467)">
    <g id="Group_504" data-name="Group 504">
      <path id="Path_524" data-name="Path 524" d="M74.555,254H55.318a1.318,1.318,0,1,0,0,2.635H74.555a1.318,1.318,0,0,0,0-2.635Z" transform="translate(-54 -254)" fill="#a3c854"/>
    </g>
  </g>
</svg>
