<svg xmlns="http://www.w3.org/2000/svg" width="60.072" height="66.635" viewBox="0 0 60.072 66.635">
  <g id="rating" transform="translate(-25.19 0.001)">
    <path id="Path_631" data-name="Path 631" d="M130.252,307.932h-2.719c-4.083,0-6.62-1.2-6.62-3.133V288.584a13.749,13.749,0,0,0,5.832-7.614.977.977,0,1,0-1.84-.654,12.272,12.272,0,0,1-4.128,6.024,3.118,3.118,0,0,0-2.976-2.2h-2.742a3.116,3.116,0,0,0-3.113,3.113v9.183a.977.977,0,1,0,1.953,0v-9.183a1.161,1.161,0,0,1,1.16-1.16H117.8a1.161,1.161,0,0,1,1.16,1.16v19.521a1.161,1.161,0,0,1-1.16,1.16h-2.742a1.161,1.161,0,0,1-1.16-1.16v-5.816a.977.977,0,1,0-1.953,0v5.816a3.116,3.116,0,0,0,3.113,3.113H117.8a3.117,3.117,0,0,0,2.814-1.784c1.217.985,3.315,1.784,6.919,1.784h2.719a.977.977,0,0,0,0-1.953Z" transform="translate(-75.462 -243.253)" fill="#a3c854"/>
    <path id="Path_632" data-name="Path 632" d="M246.308,213.944a2.913,2.913,0,0,0,.233-1.144v-2.209a2.933,2.933,0,0,0-2.93-2.93H234.1a4.1,4.1,0,0,1-3.981-4.883l.722-3.872a6.417,6.417,0,0,0-3.454-6.914,2.688,2.688,0,0,0-3.654,1.526l-2.026,6.015a.977.977,0,1,0,1.851.624l2.027-6.015a.677.677,0,0,1,.385-.414.666.666,0,0,1,.556.018,4.457,4.457,0,0,1,2.4,4.8l-.722,3.872a6.087,6.087,0,0,0,4.255,6.969,4.024,4.024,0,0,0,.66,5.347,4.026,4.026,0,0,0,0,6.15,4.026,4.026,0,0,0-.084,6.006,3.693,3.693,0,0,0-.864,4.563H230.2a.977.977,0,1,0,0,1.953h12.039a2.759,2.759,0,0,0,2.755-2.755v-1.89a2.736,2.736,0,0,0-.245-1.13,3.2,3.2,0,0,0,1.791-2.873V223.09a3.18,3.18,0,0,0-.316-1.387,3.206,3.206,0,0,0,2.265-3.06v-1.668a3.2,3.2,0,0,0-2.181-3.031Zm-1.72-3.353V212.8a.978.978,0,0,1-.977.977h-7.848a2.081,2.081,0,1,1,0-4.162h7.848A.977.977,0,0,1,244.588,210.591Zm-1.247,11.254a1.249,1.249,0,0,1,1.247,1.247v1.668a1.249,1.249,0,0,1-1.247,1.247h-7.578a2.081,2.081,0,0,1,0-4.162h7.578Zm-.3,8.807a.8.8,0,0,1-.8.8h-6.81a1.748,1.748,0,0,1,0-3.5h6.81a.8.8,0,0,1,.8.8Zm3.495-12.008a1.249,1.249,0,0,1-1.247,1.247h-9.566a2.081,2.081,0,1,1,0-4.162h9.566a1.249,1.249,0,0,1,1.247,1.247Z" transform="translate(-170.888 -166.775)" fill="#a3c854"/>
    <path id="Path_633" data-name="Path 633" d="M168.143,14.884l-1.071,6.242a1.742,1.742,0,0,0,2.5,1.819L175.182,20l5.6,2.947a1.752,1.752,0,0,0,2.5-1.819l-1.071-6.242,4.535-4.42A1.755,1.755,0,0,0,185.8,7.52l-6.267-.911L176.729.93a1.752,1.752,0,0,0-3.095,0l-2.8,5.679-6.267.911a1.748,1.748,0,0,0-.957,2.944Zm3.088-6.359a1.726,1.726,0,0,0,1.3-.944l2.652-5.373,2.652,5.373a1.726,1.726,0,0,0,1.3.944l5.929.862-4.29,4.182a1.725,1.725,0,0,0-.5,1.528l1.014,5.9-5.3-2.788a1.726,1.726,0,0,0-1.606,0L169.076,21l1.013-5.905a1.725,1.725,0,0,0-.5-1.528L165.3,9.386Z" transform="translate(-119.962)" fill="#4a9953"/>
    <path id="Path_634" data-name="Path 634" d="M377.888,63.8a1.45,1.45,0,0,0-1.178-.993l-3.856-.56-1.725-3.494a1.482,1.482,0,0,0-2.617,0l-1.724,3.494-3.856.561a1.48,1.48,0,0,0-.809,2.489l2.791,2.72-.659,3.841a1.485,1.485,0,0,0,2.117,1.538l3.449-1.813L373.27,73.4a1.491,1.491,0,0,0,2.117-1.538l-.659-3.841,2.791-2.72a1.45,1.45,0,0,0,.369-1.5Zm-4.709,3a1.458,1.458,0,0,0-.42,1.292l.533,3.11L370.5,69.729a1.459,1.459,0,0,0-1.358,0L366.349,71.2l.534-3.11a1.459,1.459,0,0,0-.42-1.291l-2.26-2.2,3.123-.454a1.459,1.459,0,0,0,1.1-.8l1.4-2.83,1.4,2.829a1.459,1.459,0,0,0,1.1.8l3.123.454Z" transform="translate(-292.699 -50.416)" fill="#4a9953"/>
    <path id="Path_635" data-name="Path 635" d="M37.436,73.561a1.509,1.509,0,0,0,1.437-1.707l-.659-3.841L41,65.293a1.488,1.488,0,0,0-.8-2.493l-3.856-.561L34.615,58.75a1.482,1.482,0,0,0-2.617,0l-1.725,3.494-3.856.56a1.48,1.48,0,0,0-.809,2.489l2.791,2.72-.659,3.84a1.485,1.485,0,0,0,2.117,1.538l3.449-1.813,3.449,1.813a1.459,1.459,0,0,0,.681.17Zm-4.129-4a1.46,1.46,0,0,0-.679.168L29.835,71.2l.534-3.11a1.459,1.459,0,0,0-.42-1.291l-2.26-2.2,3.123-.454a1.459,1.459,0,0,0,1.1-.8l1.4-2.83,1.4,2.83a1.459,1.459,0,0,0,1.1.8l3.123.454-2.26,2.2a1.459,1.459,0,0,0-.42,1.292l.533,3.11L34,69.732a1.457,1.457,0,0,0-.688-.17Z" transform="translate(0 -50.416)" fill="#4a9953"/>
  </g>
</svg>
