<svg id="linkedin-4" xmlns="http://www.w3.org/2000/svg" width="57.945" height="57.945" viewBox="0 0 57.945 57.945">
  <g id="Group_526" data-name="Group 526">
    <g id="Group_525" data-name="Group 525">
      <path id="Path_532" data-name="Path 532" d="M50.475,0H7.469A7.478,7.478,0,0,0,0,7.469V50.475a7.478,7.478,0,0,0,7.469,7.469H50.475a7.478,7.478,0,0,0,7.469-7.469V7.469A7.478,7.478,0,0,0,50.475,0Zm5.206,50.475a5.212,5.212,0,0,1-5.206,5.206H7.469a5.212,5.212,0,0,1-5.206-5.206V7.469A5.212,5.212,0,0,1,7.469,2.263H50.475a5.212,5.212,0,0,1,5.206,5.206Z" fill="#4a9953"/>
    </g>
  </g>
  <g id="Group_528" data-name="Group 528" transform="translate(22.354 21.016)">
    <g id="Group_527" data-name="Group 527">
      <path id="Path_533" data-name="Path 533" d="M221.847,188.471h0a8.34,8.34,0,0,0-6.6-2.771,10.321,10.321,0,0,0-5.17,1.228,10.713,10.713,0,0,0-2.047,1.553V187.4a1.132,1.132,0,0,0-1.132-1.132h-8.24a1.132,1.132,0,0,0-1.132,1.132v25.183a1.132,1.132,0,0,0,1.132,1.132h8.179a1.132,1.132,0,0,0,1.132-1.132V198.3a3.478,3.478,0,0,1,3.179-3.565l.288-.016a2.543,2.543,0,0,1,1.9.71,2.935,2.935,0,0,1,.9,2.129v15.023a1.132,1.132,0,0,0,1.132,1.132h7.71a1.132,1.132,0,0,0,1.132-1.132V196.577C224.2,192.991,223.41,190.264,221.847,188.471Zm.091,22.981h-5.447V197.56a5.208,5.208,0,0,0-1.6-3.773,4.78,4.78,0,0,0-3.577-1.326l-.288.016A5.741,5.741,0,0,0,205.7,198.3v13.149h-5.915v-22.92h5.976V191.5a1.132,1.132,0,0,0,2.044.67,11.625,11.625,0,0,1,3.388-3.28,8.106,8.106,0,0,1,4.048-.93,6.1,6.1,0,0,1,4.9,1.995h0c1.193,1.37,1.8,3.6,1.8,6.62Z" transform="translate(-197.524 -185.699)" fill="#4a9953"/>
    </g>
  </g>
  <g id="Group_530" data-name="Group 530" transform="translate(9.402 21.585)">
    <g id="Group_529" data-name="Group 529">
      <path id="Path_534" data-name="Path 534" d="M92.445,190.729h-8.24a1.132,1.132,0,0,0-1.132,1.132v9.424a1.132,1.132,0,0,0,2.263,0v-8.292h5.976v22.92H85.337V210.9a1.132,1.132,0,0,0-2.263,0v6.139a1.132,1.132,0,0,0,1.132,1.132h8.24a1.132,1.132,0,0,0,1.132-1.132V191.861A1.132,1.132,0,0,0,92.445,190.729Z" transform="translate(-83.074 -190.729)" fill="#4a9953"/>
    </g>
  </g>
  <g id="Group_532" data-name="Group 532" transform="translate(9.401 36.102)">
    <g id="Group_531" data-name="Group 531">
      <path id="Path_535" data-name="Path 535" d="M85,319.332a1.131,1.131,0,1,0,.332.8A1.143,1.143,0,0,0,85,319.332Z" transform="translate(-83.069 -319)" fill="#4a9953"/>
    </g>
  </g>
  <g id="Group_534" data-name="Group 534" transform="translate(8.912 8.913)">
    <g id="Group_533" data-name="Group 533">
      <path id="Path_536" data-name="Path 536" d="M84.491,78.753a5.741,5.741,0,1,0,5.741,5.741A5.747,5.747,0,0,0,84.491,78.753Zm0,9.218a3.477,3.477,0,1,1,3.478-3.477A3.481,3.481,0,0,1,84.491,87.971Z" transform="translate(-78.75 -78.753)" fill="#4a9953"/>
    </g>
  </g>
  <g id="Group_536" data-name="Group 536" transform="translate(33.628 5.432)">
    <g id="Group_535" data-name="Group 535">
      <path id="Path_537" data-name="Path 537" d="M307.491,48h-9.224a1.132,1.132,0,0,0,0,2.263h9.224a1.132,1.132,0,0,0,0-2.263Z" transform="translate(-297.136 -48)" fill="#a3c854"/>
    </g>
  </g>
  <g id="Group_538" data-name="Group 538" transform="translate(28.478 5.432)">
    <g id="Group_537" data-name="Group 537">
      <path id="Path_538" data-name="Path 538" d="M252.781,48h-.013a1.132,1.132,0,0,0,0,2.263h.013a1.132,1.132,0,1,0,0-2.263Z" transform="translate(-251.636 -48)" fill="#a3c854"/>
    </g>
  </g>
</svg>
