<svg xmlns="http://www.w3.org/2000/svg" width="78.112" height="56.317" viewBox="0 0 78.112 56.317">
  <path id="Path_639" data-name="Path 639" d="M.683,99.723l6.047,3.491a1.488,1.488,0,0,0,1.8-.24l4.517,2.608a4.825,4.825,0,0,0,4.19,6.261,4.831,4.831,0,0,0,5.574,5.984,4.826,4.826,0,0,0,7.216,4.642,4.827,4.827,0,0,0,7.231,3.912,16.234,16.234,0,0,0,1.411-.844l2.7,1.556a4.975,4.975,0,0,0,3.8.477,4.749,4.749,0,0,0,3.5-4.766,4.892,4.892,0,0,0,6.607-1.864,4.776,4.776,0,0,0,.588-2.563,4.749,4.749,0,0,0,3.047.1,4.824,4.824,0,0,0,3.1-6.344,4.817,4.817,0,0,0,3.262-2.323q.017-.03.032-.06a5.093,5.093,0,0,0,.061-4.344l4.216-2.434a1.488,1.488,0,0,0,1.8.24l6.046-3.491a1.37,1.37,0,0,0,.684-1.184V72.8a1.368,1.368,0,0,0-2.05-1.184L58.87,81.546a1.489,1.489,0,0,0-.693,1.679L53.62,85.857a1.485,1.485,0,0,0-.7.946,5.005,5.005,0,0,1-4.958-.019l-5.05-2.914a7.393,7.393,0,0,0-7.372,0l-6.917,3.993a7.786,7.786,0,0,1-3.43-1.063,1.485,1.485,0,0,0-.7-.946l-4.557-2.631a1.489,1.489,0,0,0-.693-1.679l-5.215-3.011a1.144,1.144,0,0,0-1.144,1.982L17.4,83.128l-10.221,17.7L2.288,98.007V74.4l5.871,3.39A1.144,1.144,0,0,0,9.3,75.81L2.05,71.621A1.368,1.368,0,0,0,0,72.8V98.54a1.37,1.37,0,0,0,.683,1.183ZM15.452,108.3a2.541,2.541,0,0,1,.929-3.467l3.274-1.89a2.54,2.54,0,1,1,2.538,4.4l-3.274,1.89a2.541,2.541,0,0,1-3.467-.929Zm5.793,7.231a2.538,2.538,0,0,1-.612-4.649l1.948-1.124a2.539,2.539,0,1,1,2.535,4.4l-1.945,1.123a2.521,2.521,0,0,1-1.926.254Zm4.172,4.023a2.541,2.541,0,0,1,.929-3.467l1.755-1.013a2.54,2.54,0,1,1,2.538,4.4l-1.755,1.013a2.541,2.541,0,0,1-3.468-.928Zm11.694,4.266-1,.575a2.54,2.54,0,1,1-2.538-4.4l1-.575a2.54,2.54,0,1,1,2.538,4.4ZM59.28,85.232l5.052,8.75a1.144,1.144,0,1,0,1.982-1.144l-5.606-9.71L75.822,74.4V98.007l-4.893,2.825-1.893-3.279A1.145,1.145,0,0,0,67.054,98.7l1.339,2.32-3.822,2.206L55.458,87.438Zm-32.9,4.549a4.826,4.826,0,0,0,6.472,6.789l7.131-4.116a.3.3,0,0,1,.3,0l3.571,2.062A1.145,1.145,0,1,0,45,92.534l-3.571-2.062a2.6,2.6,0,0,0-2.589,0L31.7,94.588a2.54,2.54,0,0,1-2.538-4.4l7.518-4.341a5.1,5.1,0,0,1,5.084,0l5.047,2.914a7.3,7.3,0,0,0,6.888.21l7.435,12.879L49.763,95.286a1.144,1.144,0,0,0-1.144,1.982l13.545,7.82a2.848,2.848,0,0,1,1.109,3.61,2.541,2.541,0,0,1-3.449.9c-.175-.117,1.368.79-8.167-4.715a1.144,1.144,0,1,0-1.144,1.982l8.279,4.78a2.6,2.6,0,0,1,.992,3.335,2.5,2.5,0,0,1-3.53,1.06l-2.789-1.61h0l-5.489-3.169a1.144,1.144,0,0,0-1.144,1.982l5.489,3.169a2.55,2.55,0,0,1,.953,3.424,2.606,2.606,0,0,1-3.563.931l-5.417-3.127a1.144,1.144,0,0,0-1.144,1.982l1.972,1.139a2.55,2.55,0,0,1,.953,3.424,2.606,2.606,0,0,1-3.563.93l-2.341-1.351a4.825,4.825,0,0,0-5.975-6.67A4.835,4.835,0,0,0,28.64,112.5a4.817,4.817,0,0,0-3.419-5.165,4.825,4.825,0,0,0-6.711-6.372l-1.538.888L24.4,88.983a10.108,10.108,0,0,0,1.973.8ZM13.539,103.224l-3.822-2.206,9.114-15.786,3.822,2.206Z" transform="translate(0 -71.434)" fill="#a3c854"/>
</svg>
