<svg xmlns="http://www.w3.org/2000/svg" width="46.374" height="62.704" viewBox="0 0 46.374 62.704">
  <g id="business-report" transform="translate(-66.669)">
    <g id="Group_612" data-name="Group 612" transform="translate(66.67)">
      <path id="Path_640" data-name="Path 640" d="M112.125,0H67.588a.918.918,0,0,0-.919.918v43.63a.919.919,0,0,0,1.837,0V1.837h42.7V7.611a.919.919,0,0,0,1.837,0V.918A.918.918,0,0,0,112.125,0Z" transform="translate(-66.67)" fill="#a3c854"/>
      <path id="Path_641" data-name="Path 641" d="M112.125,89.65a.918.918,0,0,0-.919.919v48.968h-42.7V127.506a.919.919,0,0,0-1.837,0v12.95a.918.918,0,0,0,.919.919h44.536a.918.918,0,0,0,.918-.919V90.568a.918.918,0,0,0-.917-.918Z" transform="translate(-66.67 -78.671)" fill="#a3c854"/>
      <path id="Path_642" data-name="Path 642" d="M99,105.09a7.1,7.1,0,1,0,7.1-7.1,7.1,7.1,0,0,0-7.1,7.1Zm7.1,5.267a5.266,5.266,0,0,1-.918-10.452v5.185a.918.918,0,0,0,.918.918h5.185a5.275,5.275,0,0,1-5.185,4.349Zm5.185-6.186h-4.267V99.9a5.279,5.279,0,0,1,4.267,4.272Z" transform="translate(-95.037 -85.986)" fill="#4a9953"/>
      <path id="Path_643" data-name="Path 643" d="M103.955,432.35a.918.918,0,0,0-.919.918v3.959a.918.918,0,0,0,.919.918h5.938a.918.918,0,0,0,.919-.918v-3.959a.918.918,0,0,0-.919-.918Zm5.02,3.959h-4.1v-2.122h4.1Z" transform="translate(-98.582 -379.402)" fill="#4a9953"/>
      <path id="Path_644" data-name="Path 644" d="M184.768,395.6h5.938a.918.918,0,0,0,.918-.918v-9.9a.918.918,0,0,0-.918-.919h-5.938a.918.918,0,0,0-.918.919v9.9A.918.918,0,0,0,184.768,395.6Zm.919-9.9h4.1v8.06h-4.1Z" transform="translate(-169.499 -336.852)" fill="#4a9953"/>
      <path id="Path_645" data-name="Path 645" d="M265.582,323.252a.918.918,0,0,0-.918.919v17.32a.918.918,0,0,0,.918.919h5.938a.918.918,0,0,0,.919-.919v-17.32a.918.918,0,0,0-.919-.919Zm5.02,17.32h-4.1V325.089h4.1Z" transform="translate(-240.416 -283.665)" fill="#4a9953"/>
      <path id="Path_646" data-name="Path 646" d="M352.336,287.926a.918.918,0,0,0,.918-.919v-3.239a.918.918,0,0,0-.918-.919H346.4a.918.918,0,0,0-.919.919v22.267a.919.919,0,0,0,.919.919h5.937a.919.919,0,0,0,.919-.919V291.294a.919.919,0,0,0-1.837,0v13.823h-4.1v-20.43h4.1v2.321a.919.919,0,0,0,.917.918Z" transform="translate(-311.335 -248.21)" fill="#4a9953"/>
      <path id="Path_647" data-name="Path 647" d="M188.4,32.325H168.606a.918.918,0,0,0-.919.918V37.2a.918.918,0,0,0,.919.919H188.4a.918.918,0,0,0,.918-.919V33.243a.919.919,0,0,0-.918-.918Zm-.919,3.959H169.524V34.162h17.957v2.122Z" transform="translate(-155.316 -28.366)" fill="#a3c854"/>
      <path id="Path_648" data-name="Path 648" d="M267.728,97.986H249.419a.919.919,0,1,0,0,1.837h18.309a.919.919,0,0,0,0-1.837Z" transform="translate(-226.232 -85.986)" fill="#a3c854"/>
      <path id="Path_649" data-name="Path 649" d="M267.728,131.658H249.419a.919.919,0,0,0,0,1.837h18.309a.919.919,0,0,0,0-1.837Z" transform="translate(-226.232 -115.534)" fill="#a3c854"/>
      <path id="Path_650" data-name="Path 650" d="M268.646,166.249a.918.918,0,0,0-.918-.918H249.419a.919.919,0,0,0,0,1.837h18.309a.919.919,0,0,0,.918-.919Z" transform="translate(-226.232 -145.083)" fill="#a3c854"/>
      <path id="Path_651" data-name="Path 651" d="M261.224,199.921a.918.918,0,0,0-.918-.919H249.419a.919.919,0,0,0,0,1.837h10.887A.918.918,0,0,0,261.224,199.921Z" transform="translate(-226.232 -174.631)" fill="#a3c854"/>
      <path id="Path_652" data-name="Path 652" d="M129.747,248.5h-16.7a.919.919,0,1,0,0,1.837h16.7a.919.919,0,0,0,0-1.837Z" transform="translate(-106.561 -218.067)" fill="#a3c854"/>
      <path id="Path_653" data-name="Path 653" d="M130.666,283.091a.918.918,0,0,0-.919-.919h-16.7a.919.919,0,0,0,0,1.837h16.7a.918.918,0,0,0,.919-.918Z" transform="translate(-106.561 -247.615)" fill="#a3c854"/>
      <path id="Path_654" data-name="Path 654" d="M123.243,316.763a.918.918,0,0,0-.918-.919h-9.278a.919.919,0,0,0,0,1.837h9.278a.919.919,0,0,0,.918-.918Z" transform="translate(-106.561 -277.164)" fill="#a3c854"/>
    </g>
  </g>
</svg>
