<svg xmlns="http://www.w3.org/2000/svg" width="42.127" height="48.649" viewBox="0 0 42.127 48.649">
  <g id="callback" transform="translate(-6.448 -3.169)">
    <path id="Path_636" data-name="Path 636" d="M120.4,136.949a3.406,3.406,0,0,0-4.649-1.187c-.92.507-1.447.8-1.755.972a9.971,9.971,0,0,1-6.253-5.283,9.355,9.355,0,0,1-.637-6.66l1.674-1.07a3.42,3.42,0,0,0,1.185-4.668l-3.908-6.612a3.407,3.407,0,0,0-4.668-1.2l-1.443.833c-3.57,2.089-5.747,6.011-6.132,11.045A28.268,28.268,0,0,0,109,149.067a16.081,16.081,0,0,0,6.761,1.615,11.5,11.5,0,0,0,5.872-1.55l1.48-.9a3.416,3.416,0,0,0,1.2-4.675ZM102.487,113.1a1.279,1.279,0,0,1,1.718.435l3.908,6.612a1.26,1.26,0,0,1-.443,1.723l-.032.02-1.049.671-5.132-8.865Zm7.426,34.008A26.126,26.126,0,0,1,95.97,123.285a12.032,12.032,0,0,1,3.7-8.361l5.368,9.272a11.57,11.57,0,0,0,.755,8.172,12,12,0,0,0,7.67,6.447l5.345,9.233a12.14,12.14,0,0,1-8.9-.937Zm12.677-1.5a1.25,1.25,0,0,1-.578.77l-.01.006-1.228.744-5.122-8.847,1.158-.64.028-.016a1.231,1.231,0,0,1,1.709.419l3.907,6.612a1.25,1.25,0,0,1,.136.956Z" transform="translate(-83.684 -98.865)" fill="#a3c854"/>
    <path id="Path_637" data-name="Path 637" d="M269.356,67.833h-6.6a1.079,1.079,0,0,0,0,2.157h6.6a9.932,9.932,0,1,1,0,19.864h-7.371a1.079,1.079,0,0,0,0,2.157h7.371a12.089,12.089,0,0,0,0-24.178Z" transform="translate(-232.87 -60.544)" fill="#4a9953"/>
    <path id="Path_638" data-name="Path 638" d="M64.4,39.983a1.079,1.079,0,0,0,.293-1.5l-1.614-2.4H73.722a1.079,1.079,0,0,0,0-2.157H63.079l1.614-2.4a1.079,1.079,0,1,0-1.791-1.2L60.159,34.4a1.1,1.1,0,0,0,0,1.2L62.9,39.689a1.078,1.078,0,0,0,1.5.293Z" transform="translate(-53.533 -26.638)" fill="#4a9953"/>
    <circle id="Ellipse_44" data-name="Ellipse 44" cx="1.077" cy="1.077" r="1.077" transform="translate(23.948 7.291)" fill="#4a9953"/>
  </g>
</svg>
