<svg xmlns="http://www.w3.org/2000/svg" width="65.672" height="47.458" viewBox="0 0 65.672 47.458">
  <g id="youtube-5" transform="translate(0 -71.001)">
    <g id="Group_540" data-name="Group 540" transform="translate(31.781 71.001)">
      <g id="Group_539" data-name="Group 539">
        <path id="Path_539" data-name="Path 539" d="M249.157,71h-.1a1.283,1.283,0,0,0-1.283,1.279v0a1.283,1.283,0,0,0,1.279,1.283h.1a1.283,1.283,0,0,0,1.283-1.279v0A1.283,1.283,0,0,0,249.157,71Z" transform="translate(-247.778 -71.001)" fill="#a3c854"/>
      </g>
    </g>
    <g id="Group_542" data-name="Group 542" transform="translate(0 71.047)">
      <g id="Group_541" data-name="Group 541">
        <path id="Path_540" data-name="Path 540" d="M64.311,79.277A9.253,9.253,0,0,0,57.828,72.7c-3.255-.886-12.329-1.213-19.368-1.33a1.283,1.283,0,1,0-.043,2.565c9.743.163,16.4.6,18.738,1.241A6.682,6.682,0,0,1,61.83,79.93c1.261,4.782,1.276,15.007,1.276,15.109s-.015,10.327-1.276,15.11a6.682,6.682,0,0,1-4.676,4.759c-4.7,1.28-24.123,1.3-24.318,1.3s-19.618-.015-24.319-1.3a6.682,6.682,0,0,1-4.675-4.759C2.581,105.367,2.565,95.142,2.565,95.04s.015-10.327,1.276-15.11a6.682,6.682,0,0,1,4.676-4.759c2.392-.651,9.243-1.1,19.291-1.25a1.283,1.283,0,1,0-.04-2.565c-7.256.111-16.6.434-19.925,1.339a9.253,9.253,0,0,0-6.483,6.581C.016,84.38,0,94.607,0,95.04S.016,105.7,1.361,110.8a9.253,9.253,0,0,0,6.483,6.581c5.029,1.369,24.18,1.385,24.992,1.385s19.963-.016,24.992-1.385a9.253,9.253,0,0,0,6.483-6.581c1.345-5.1,1.361-15.33,1.361-15.763S65.656,84.38,64.311,79.277Z" transform="translate(0 -71.357)" fill="#4a9953"/>
      </g>
    </g>
    <g id="Group_544" data-name="Group 544" transform="translate(6.157 91.334)">
      <g id="Group_543" data-name="Group 543">
        <path id="Path_541" data-name="Path 541" d="M49.283,229.521A1.283,1.283,0,0,0,48,230.8v10.454a1.283,1.283,0,1,0,2.565,0V230.8A1.283,1.283,0,0,0,49.283,229.521Z" transform="translate(-48 -229.521)" fill="#a3c854"/>
      </g>
    </g>
    <g id="Group_546" data-name="Group 546" transform="translate(6.157 85.497)">
      <g id="Group_545" data-name="Group 545">
        <path id="Path_542" data-name="Path 542" d="M49.283,184.021A1.283,1.283,0,0,0,48,185.3v.015a1.283,1.283,0,1,0,2.565,0V185.3A1.283,1.283,0,0,0,49.283,184.021Z" transform="translate(-48 -184.021)" fill="#a3c854"/>
      </g>
    </g>
    <g id="Group_548" data-name="Group 548" transform="translate(25.407 84.407)">
      <g id="Group_547" data-name="Group 547">
        <path id="Path_543" data-name="Path 543" d="M215.916,184.929l-15.9-9.235a1.283,1.283,0,0,0-1.927,1.109v18.47a1.283,1.283,0,0,0,1.927,1.109l15.9-9.235a1.283,1.283,0,0,0,0-2.218Zm-15.266,8.116V179.031l12.068,7.007Z" transform="translate(-198.084 -175.52)" fill="#4a9953"/>
      </g>
    </g>
  </g>
</svg>
