<svg xmlns="http://www.w3.org/2000/svg" width="799.02" height="92.093" viewBox="0 0 799.02 92.093"><defs><style>.a{fill:#018837;}.b{fill:none;stroke:#018837;stroke-dasharray:7;}</style></defs><g transform="translate(-325.881 -1869.939)"><path class="a" d="M40.887,39.7,16.358,47.827,31.15,52l6.216,15.334s2.391-26.244,3.52-27.628" transform="translate(1026.41 1883.348) rotate(34)"/><path class="a" d="M24.529,27.628,0,19.5l13.831-1.061L21.009,0s2.391,26.244,3.52,27.628" transform="matrix(0.875, -0.485, 0.485, 0.875, 519.576, 1881.831)"/><path class="b" d="M-24180.018,4685.2s149.383-31.21,176.631-15.521,8.145,27.562-7.186,25.064-38.465-41.506,7.186-42.741c10.545-.285,44.246,4.034,44.246,4.034l14.822,3.041,127.344,26.124s176.934,43.942,233.5,40.159,4.047-53.763-17.6-45.08-17.289,35.043,17.6,38.826,170.744-26.452,202.264-33.9" transform="translate(24506 -2765)"/></g></svg>