<svg xmlns="http://www.w3.org/2000/svg" width="3223.938" height="190.091" viewBox="0 0 3223.938 190.091">
  <g id="Group_11024" data-name="Group 11024" transform="translate(276.199 -0.617)">
    <g id="Group_5019" data-name="Group 5019" transform="translate(-26.199 0.617)">
      <g id="Group_5018" data-name="Group 5018">
        <g id="Group_5017" data-name="Group 5017">
          <path id="Path_41990" data-name="Path 41990" d="M10591.873-4832.919v-12.825H8916.915s-47.3-1.508-87.795,23.145-107.147,96.495-107.147,96.495-32.573,33.249-84.231,34.107-1269.806,1.023-1269.806,1.023v11.586s1143.411,3.043,1269.806,0,52.052-3.091,84.231-28.469,107.147-97.462,107.147-97.462,39.574-28.6,87.795-28.568,34.541,0,34.541,0Z" transform="translate(-7617.936 4845.763)" fill="#fee815"/>
          <path id="Path_41991" data-name="Path 41991" d="M10591.873-4832.918v-11.8l-1640.417-1.023h-34.541s-47.921-2.833-87.795,29.281-62.267,60.361-107.147,97.517a121.9,121.9,0,0,1-71.291,27.95c-15.073.687-37.245-.386-60.439,0-51.659.858-1222.307.021-1222.307.021v11.586l1269.806,1.023s50.107,2.877,84.231-24.049,107.147-97.792,107.147-97.792l87.795-32.659h34.541Z" transform="translate(-7617.936 4857.01)" fill="#7cc445"/>
          <path id="Path_41992" data-name="Path 41992" d="M10321.873-4832.942l270-11.8H8916.915s-47.921,1.258-87.795,33.371-62.267,60.361-107.147,97.517c-29.01,20.955-52.129,21.964-71.291,22.837-15.073.687-37.245-.386-60.439,0-51.659.858-1222.307.021-1222.307.021v11.586l1269.806,1.023s54.2,3.9,88.321-23.026,103.058-92.678,103.058-92.678,39.574-38.831,87.795-38.8,34.541,0,34.541,0Z" transform="translate(-7617.936 4868.283)" fill="#129048"/>
        </g>
      </g>
    </g>
  </g>
</svg>
