<svg xmlns="http://www.w3.org/2000/svg" width="1749" height="191.942" viewBox="0 0 1749 191.942">
  <g id="Group_11168" data-name="Group 11168" transform="translate(218.115 -2392.058)">
    <g id="Group_1" data-name="Group 1" transform="translate(-204.115 -3517)">
      <g id="Group_5022" data-name="Group 5022" transform="translate(-7750 9814.816)">
        <g id="Group_5021" data-name="Group 5021">
          <g id="Group_5020" data-name="Group 5020" transform="translate(-701 940)">
            <path id="Path_41993" data-name="Path 41993" d="M10186-4833.2v-12.541H8894.13s-46.254-1.475-85.851,22.632-104.775,94.358-104.775,94.358-31.852,32.513-82.366,33.352-183.2,1-183.2,1v11.33s59.606,2.976,183.2,0,50.9-3.023,82.366-27.839,104.775-95.3,104.775-95.3,38.7-27.971,85.851-27.936,33.776,0,33.776,0Z" fill="#fee815"/>
            <path id="Path_41994" data-name="Path 41994" d="M10186-4833.2v-11.541l-1258.09-1h-33.78s-46.859-2.77-85.851,28.632-60.888,59.024-104.775,95.358a119.214,119.214,0,0,1-69.715,27.331c-14.736.671-36.418-.376-59.1,0-50.515.839-136.755.021-136.755.021v11.33l183.2,1s49,2.813,82.366-23.516,104.775-95.626,104.775-95.626l85.851-31.936H8927.9Z" transform="translate(0 11)" fill="#7cc445"/>
            <path id="Path_41995" data-name="Path 41995" d="M10186-4833.2v-11.541H8894.13s-46.859,1.23-85.851,32.632-60.888,59.024-104.775,95.358c-28.367,20.491-50.975,21.478-69.712,22.331-14.739.671-36.421-.377-59.1,0-50.515.839-136.755.021-136.755.021v11.33l183.2,1s53,3.813,86.366-22.516,100.775-90.626,100.775-90.626,38.7-37.971,85.851-37.936,33.776,0,33.776,0Z" transform="translate(0 22)" fill="#129048"/>
          </g>
        </g>
      </g>
    </g>
    <path id="Path_41996" data-name="Path 41996" d="M0,30.6l210.447.1s11,6.514,71.943-36c28.4-19.808,122.029-98.636,122.029-98.636s99.2-15.261,196.418-8.617c89.408,6.111,304.37-12.822,417.6.094,68.083,7.767,178.463-14.226,232.315-3.162,35.082,7.208,473.526-6.709,497.932,3.162.269,99.814,0,99.01,0,99.01V49H0Z" transform="translate(-218.115 2535)" fill="#129048"/>
  </g>
</svg>
