<svg xmlns="http://www.w3.org/2000/svg" width="62.979" height="63.045" viewBox="0 0 62.979 63.045">
  <g id="smart-home" transform="translate(0.35 0.382)">
    <path id="Path_41256" data-name="Path 41256" d="M30.369-511.659a5.921,5.921,0,0,0-1.048.475c-.244.158-2.827,2.73-5.74,5.728l-5.289,5.435-.061-3.083a30.221,30.221,0,0,0-.171-3.3c-.256-.536-.573-.573-4.7-.573-4.241,0-4.436.024-4.728.67-.11.231-.146,2.376-.146,8.348v8.031l-3.595,3.693C.646-481.888.5-481.668.5-479.925a3.142,3.142,0,0,0,.4,1.852,4.183,4.183,0,0,0,2.084,2.035,3.24,3.24,0,0,0,1.718.317,4.014,4.014,0,0,0,3.108-1.292l.67-.634v3.3c0,3.558.037,3.814.622,4.119a1.163,1.163,0,0,0,1.146.024c.658-.292.67-.427.682-5.423v-4.606L21.2-490.71c5.642-5.764,10.346-10.48,10.431-10.48s4.777,4.716,10.431,10.48l10.273,10.48v11.723l.012,11.735H10.919v-2.5c0-2.693-.061-3.01-.622-3.3a1.205,1.205,0,0,0-1.67.5,12.815,12.815,0,0,0-.146,2.791v2.486l-1.072.049a3.883,3.883,0,0,0-1.767.378,3.4,3.4,0,0,0-1.974,3.254,3.4,3.4,0,0,0,1.986,3.254l.695.341H56.923l.695-.341a3.4,3.4,0,0,0,1.986-3.254,3.4,3.4,0,0,0-1.974-3.254,3.883,3.883,0,0,0-1.767-.378L54.79-456.8v-20.851l.67.634a4.014,4.014,0,0,0,3.108,1.292,3.142,3.142,0,0,0,1.852-.4,4.112,4.112,0,0,0,2.023-2.084,3.375,3.375,0,0,0,.329-1.73c0-1.913.951-.817-14.611-16.817-7.568-7.787-13.965-14.27-14.209-14.429A4.551,4.551,0,0,0,30.369-511.659Zm1.962,2.364c.475.171,27.553,27.992,27.846,28.626a1.591,1.591,0,0,1-.024,1.6,1.8,1.8,0,0,1-2.4.756c-.207-.11-5.715-5.667-12.223-12.333C30.685-505.846,32.27-504.3,31.636-504.3s.926-1.523-14.014,13.771c-6.459,6.6-11.906,12.1-12.113,12.211A1.8,1.8,0,0,1,3.1-480.73c.3-.561,27.419-28.418,27.8-28.552A2.32,2.32,0,0,1,32.331-509.295Zm-16.549,8.311v3.571l-2.437,2.486-2.425,2.5v-12.113h4.875Zm40.775,46.8a1.323,1.323,0,0,1,.67,1.072,1.323,1.323,0,0,1-.67,1.072c-.463.207-49.379.207-49.842,0a1.215,1.215,0,0,1-.049-2.12C7.081-454.4,56.07-454.42,56.557-454.188Z" transform="translate(-0.5 511.833)" fill="#178b49" stroke="#ffe600" stroke-width="0.7"/>
    <path id="Path_41258" data-name="Path 41258" d="M66.807-148.708a1.221,1.221,0,0,0,.6,2.267,1.289,1.289,0,0,0,1.219-1.206A1.227,1.227,0,0,0,66.807-148.708Z" transform="translate(-57.917 193.094)" fill="#178b49" stroke="#707070" stroke-width="0.1"/>
    <g id="oil" transform="translate(21.918 23.524)">
      <path id="Path_41249" data-name="Path 41249" d="M283.623-509.972c-.34.433-.909,1.164-1.266,1.619a8.642,8.642,0,0,0-1.755,2.915,3.661,3.661,0,0,0,0,1.717,3.742,3.742,0,0,0,3.659,2.851,3.629,3.629,0,0,0,2.537-.994,3.812,3.812,0,0,0,1.084-1.755,2.842,2.842,0,0,0,.1-.99,2.412,2.412,0,0,0-.119-1c-.272-.816-.676-1.428-2.3-3.506-.671-.854-1.241-1.572-1.266-1.6S284.091-510.571,283.623-509.972Z" transform="translate(-268.85 510.716)" fill="none" stroke="#178b49" stroke-width="1.4"/>
      <path id="Path_41250" data-name="Path 41250" d="M59.8-449.73c-1.368,1.742-2.656,3.412-2.86,3.705A10.428,10.428,0,0,0,55.2-442.6,6.1,6.1,0,0,0,55-440.9a7.291,7.291,0,0,0,4.568,6.71,7.238,7.238,0,0,0,6.1-.293A7.3,7.3,0,0,0,69.6-441.24a6.572,6.572,0,0,0-.646-2.6l-.178-.387-.633-.025a4.546,4.546,0,0,1-1.84-.4,5.356,5.356,0,0,1-2.12-1.763,5,5,0,0,1-.863-3.285,5.493,5.493,0,0,1,.314-1.288l.064-.144-.62-.79c-.336-.433-.654-.833-.705-.884l-.089-.093Z" transform="translate(-55 457.101)" fill="#fff" stroke="#178b49" stroke-width="1.4"/>
    </g>
  </g>
</svg>
