<svg xmlns="http://www.w3.org/2000/svg" width="36.599" height="60.409" viewBox="0 0 36.599 60.409">
  <g id="fossil-fuel" transform="translate(-100.837)">
    <g id="Group_465" data-name="Group 465" transform="translate(110.336)">
      <path id="XMLID_69_" d="M189.906,22.629a8.674,8.674,0,0,1-8.611-8.99c0-5.813,5.269-7.682,8.23-13.64.143.2,5.508,6.028,1.94,11.423,2.846.377,4.18-2.3,4.993-4.584a10.867,10.867,0,0,1,2.438,6.8A8.99,8.99,0,0,1,189.906,22.629Z" transform="translate(-181.295)" fill="#f6e84e"/>
    </g>
    <g id="Group_466" data-name="Group 466" transform="translate(100.837 15.152)">
      <path id="Path_515" data-name="Path 515" d="M136.255,166.513h-3.771l-5.39-24.793h1.487a1.181,1.181,0,0,0,1.181-1.181v-4.722a1.181,1.181,0,0,0-1.181-1.181h-6.106a3.525,3.525,0,0,0,.2-1.181c0-1.629-2.038-4.028-2.663-4.724a1.181,1.181,0,0,0-1.757,0c-.625.7-2.663,3.095-2.663,4.724a3.525,3.525,0,0,0,.2,1.181h-6.106a1.181,1.181,0,0,0-1.181,1.181v4.722a1.181,1.181,0,0,0,1.181,1.181h1.487l-5.39,24.793h-3.771a1.181,1.181,0,0,0-1.181,1.181v4.722a1.181,1.181,0,0,0,1.181,1.181h34.238a1.181,1.181,0,0,0,1.181-1.181v-4.722A1.181,1.181,0,0,0,136.255,166.513Zm-7.928-8.009,1.536,7.063-8.027-3.905Zm-9.19,1.845-7.467-3.633,7.467-7.743,7.467,7.744Zm1.64-13.077,4.169-4.324,2.427,11.164Zm-1.64-1.7-3.715-3.852h7.429Zm-1.64,1.7-6.6,6.84,2.427-11.163Zm-7.55,11.231,6.492,3.158-8.028,3.906Zm9.191,4.471,7.271,3.537H111.865Zm-1.181-29.518a6.13,6.13,0,0,1,1.181-2.075,6.14,6.14,0,0,1,1.181,2.074,1.181,1.181,0,0,1-2.361,0ZM110.872,137H127.4v2.361H110.872Zm24.2,34.238H103.2v-2.361h31.877Z" transform="translate(-100.837 -128.339)" fill="#4a9953"/>
    </g>
  </g>
</svg>
