<svg xmlns="http://www.w3.org/2000/svg" width="50.647" height="58.935" viewBox="0 0 50.647 58.935">
  <g id="headphone-2" transform="translate(-4 10)">
    <g id="Group_455" data-name="Group 455" transform="translate(0 0)">
      <g id="jerrycan" transform="translate(-32.001 -10)">
        <path id="Path_504" data-name="Path 504" d="M136,204.232h32.23V172h-27.2L136,177.033Z" transform="translate(-88.489 -152.203)" fill="#f6e84e" fill-rule="evenodd"/>
        <g id="Group_456" data-name="Group 456" transform="translate(36.001 0)">
          <path id="Path_505" data-name="Path 505" d="M83.2,2.878H63.167a6.913,6.913,0,0,0-5.649,2.179l-.816.816-1.34-1.34a3.457,3.457,0,0,0-4.884,0l-.591.591L46.451,1.686A5.718,5.718,0,0,0,42.381,0H37.152A1.151,1.151,0,0,0,36,1.151V9.209a1.151,1.151,0,0,0,1.151,1.151h3.422L42.612,12.4l-.273.273a3.457,3.457,0,0,0,0,4.884l1.34,1.34-.816.816a6.631,6.631,0,0,0-2.258,5.166v30.6a3.457,3.457,0,0,0,3.453,3.453H83.2a3.457,3.457,0,0,0,3.453-3.453V6.331A3.457,3.457,0,0,0,83.2,2.878ZM41.864,8.395a1.151,1.151,0,0,0-.814-.337H38.3V2.3h4.078a3.43,3.43,0,0,1,2.441,1.012L48.26,6.751l-4.02,4.02Zm2.1,7.533a1.163,1.163,0,0,1,0-1.628L52.106,6.16a1.152,1.152,0,0,1,1.628,0l1.34,1.34-9.767,9.767ZM84.346,55.482A1.152,1.152,0,0,1,83.2,56.633H44.059a1.152,1.152,0,0,1-1.151-1.151v-30.6a4.363,4.363,0,0,1,1.584-3.539L59.146,6.685a4.707,4.707,0,0,1,4.021-1.5H83.2a1.152,1.152,0,0,1,1.151,1.151Z" transform="translate(-36.001 0)" fill="#4a9953"/>
          <path id="Path_506" data-name="Path 506" d="M205.725,227.911a3.453,3.453,0,0,0-4.883-4.883l-1.29,1.29H193.2l-1.29-1.29a3.453,3.453,0,0,0-4.883,4.883l1.29,1.29v6.349l-1.29,1.29a3.453,3.453,0,0,0,4.883,4.883l1.29-1.29h6.349l1.29,1.29a3.453,3.453,0,1,0,4.883-4.883l-1.29-1.29V229.2Zm-3.256,8.93,1.628,1.628a1.151,1.151,0,0,1-1.628,1.628l-1.628-1.628a1.151,1.151,0,0,0-.814-.337h-7.3a1.151,1.151,0,0,0-.814.337l-1.628,1.628a1.151,1.151,0,1,1-1.628-1.628l1.628-1.628a1.151,1.151,0,0,0,.337-.814v-7.3a1.151,1.151,0,0,0-.337-.814l-1.628-1.628a1.151,1.151,0,0,1,1.628-1.628l1.628,1.628a1.151,1.151,0,0,0,.814.337h7.3a1.151,1.151,0,0,0,.814-.337l1.628-1.628a1.151,1.151,0,0,1,1.628,1.628l-1.628,1.628a1.151,1.151,0,0,0-.337.814v7.3A1.151,1.151,0,0,0,202.469,236.841Z" transform="translate(-168.751 -196.462)" fill="#4a9953"/>
          <path id="Path_507" data-name="Path 507" d="M281.1,73.5H269.591a3.453,3.453,0,0,0,0,6.906H281.1A3.453,3.453,0,0,0,281.1,73.5Zm0,4.6H269.591a1.151,1.151,0,0,1,0-2.3H281.1A1.151,1.151,0,0,1,281.1,78.106Z" transform="translate(-239.663 -65.041)" fill="#4a9953"/>
        </g>
      </g>
    </g>
  </g>
</svg>
