<svg xmlns="http://www.w3.org/2000/svg" width="63.512" height="64.027" viewBox="0 0 63.512 64.027">
  <g id="reshot-icon-earth-B6EWAVC5R8" transform="translate(1 0.724)">
    <path id="path3" d="M72.148,41.574A30.551,30.551,0,1,1,51.037,12.5" transform="translate(-11 -9.846)" fill="none" stroke="#178b49" stroke-linecap="round" stroke-linejoin="round" stroke-miterlimit="2" stroke-width="2" fill-rule="evenodd"/>
    <path id="path5" d="M50.767,39A24.328,24.328,0,0,1,39,50.767" transform="translate(1.765 2.92)" fill="none" stroke="#178b49" stroke-linecap="round" stroke-linejoin="round" stroke-miterlimit="2" stroke-width="2" fill-rule="evenodd"/>
    <path id="path7" d="M14.172,20.9l3.525.5a4.93,4.93,0,0,1,3.714,2.676l3.369,6.739c.041.082.084.162.13.242l5.112,8.946a4.926,4.926,0,0,0,2.723,2.23l2.692.9a4.287,4.287,0,0,1,2.481,5.987.005.005,0,0,0,0,0,3.426,3.426,0,0,1-2.723,1.875l-8.221.823a3.134,3.134,0,0,0-2.3,4.857h0a1.483,1.483,0,0,1,.224.54c.188.938.8,3.994,1.4,7.106" transform="translate(-9.554 -5.331)" fill="none" stroke="#178b49" stroke-linecap="round" stroke-linejoin="round" stroke-miterlimit="2" stroke-width="2" fill-rule="evenodd"/>
    <path id="path9" d="M53.758,40.074a16.435,16.435,0,0,1-3.887-2.707c-.127-.127-.642-2.874-1.185-4.368" transform="translate(6.181 0.184)" fill="none" stroke="#178b49" stroke-linecap="round" stroke-linejoin="round" stroke-miterlimit="2" stroke-width="2" fill-rule="evenodd"/>
    <g id="oil" transform="translate(36.4 0)">
      <path id="Path_41249" data-name="Path 41249" d="M284.649-509.727c-.452.576-1.208,1.547-1.682,2.151a11.486,11.486,0,0,0-2.332,3.872,4.866,4.866,0,0,0,0,2.281,4.972,4.972,0,0,0,4.861,3.788,4.821,4.821,0,0,0,3.37-1.321,5.066,5.066,0,0,0,1.439-2.331,3.776,3.776,0,0,0,.13-1.315,3.2,3.2,0,0,0-.158-1.327c-.361-1.084-.9-1.9-3.06-4.657-.892-1.135-1.648-2.089-1.682-2.123C285.484-510.76,285.27-510.523,284.649-509.727Z" transform="translate(-265.023 510.716)" fill="none" stroke="#178b49" stroke-width="1.4"/>
      <path id="Path_41250" data-name="Path 41250" d="M61.379-448.689c-1.818,2.314-3.528,4.533-3.8,4.923a13.853,13.853,0,0,0-2.32,4.556,8.1,8.1,0,0,0-.26,2.247,9.687,9.687,0,0,0,6.068,8.914,9.614,9.614,0,0,0,8.106-.39,9.693,9.693,0,0,0,5.227-8.97,8.731,8.731,0,0,0-.858-3.449l-.237-.514-.841-.034a6.038,6.038,0,0,1-2.444-.536,7.116,7.116,0,0,1-2.817-2.343,6.646,6.646,0,0,1-1.146-4.364,7.3,7.3,0,0,1,.418-1.711l.085-.192-.824-1.05c-.446-.576-.869-1.107-.937-1.174l-.119-.124Z" transform="translate(-55 458.48)" fill="#fff" stroke="#178b49" stroke-width="1.4"/>
    </g>
  </g>
</svg>
