<svg xmlns="http://www.w3.org/2000/svg" width="98.034" height="74.856" viewBox="0 0 98.034 74.856">
  <g id="Group_11034" data-name="Group 11034" transform="translate(-20.001 -15)">
    <g id="Group_1" data-name="Group 1" transform="translate(-97.742 -116.998)">
      <g id="Group_18" data-name="Group 18" transform="translate(117.743 145.585)">
        <g id="Group_17" data-name="Group 17" transform="translate(54.616 0)">
          <g id="Group_16" data-name="Group 16">
            <g id="Group_15" data-name="Group 15">
              <g id="Group_14" data-name="Group 14">
                <g id="Group_13" data-name="Group 13">
                  <path id="Path_47" data-name="Path 47" d="M283.8,166.981a31.627,31.627,0,0,0-2.951-5.326,31.259,31.259,0,0,0-2.951,5.326,20.29,20.29,0,0,1,2.951,4.025,20.093,20.093,0,0,1,2.951-4.025" transform="translate(-259.137 -161.655)" fill="#018837" fill-rule="evenodd"/>
                  <path id="Path_48" data-name="Path 48" d="M277.9,241.591a31.264,31.264,0,0,0,2.951,5.325,31.615,31.615,0,0,0,2.951-5.325,20.166,20.166,0,0,1-2.951-4.027,20.381,20.381,0,0,1-2.951,4.027" transform="translate(-259.137 -202.786)" fill="#018837" fill-rule="evenodd"/>
                  <path id="Path_49" data-name="Path 49" d="M271.345,168.555a31.211,31.211,0,0,0-4.589-3.995,31.279,31.279,0,0,0-.951,6.015,20.383,20.383,0,0,1,4.146,2.77,20.368,20.368,0,0,1,1.394-4.791" transform="translate(-252.585 -163.229)" fill="#018837" fill-rule="evenodd"/>
                  <path id="Path_50" data-name="Path 50" d="M290.779,240.684a31.206,31.206,0,0,0,4.589,3.995,31.584,31.584,0,0,0,.95-6.012,20.475,20.475,0,0,1-4.146-2.775,20.471,20.471,0,0,1-1.393,4.793" transform="translate(-266.118 -201.88)" fill="#018837" fill-rule="evenodd"/>
                  <path id="Path_51" data-name="Path 51" d="M259.089,175.1a31.514,31.514,0,0,0-5.678-2.184,31.191,31.191,0,0,0,1.162,5.979,20.183,20.183,0,0,1,4.842,1.185,20.179,20.179,0,0,1-.326-4.98" transform="translate(-245.87 -167.759)" fill="#018837" fill-rule="evenodd"/>
                  <path id="Path_52" data-name="Path 52" d="M302.482,236.052a31.308,31.308,0,0,0,5.678,2.18A31.166,31.166,0,0,0,307,232.254a20.178,20.178,0,0,1-4.844-1.189,20.227,20.227,0,0,1,.328,4.987" transform="translate(-272.281 -199.265)" fill="#018837" fill-rule="evenodd"/>
                  <path id="Path_53" data-name="Path 53" d="M250.759,190.292a20.48,20.48,0,0,1-2.007-4.568,31.085,31.085,0,0,0-6.083-.108,31.5,31.5,0,0,0,3.131,5.218,20.258,20.258,0,0,1,4.959-.542" transform="translate(-240.049 -174.584)" fill="#018837" fill-rule="evenodd"/>
                  <path id="Path_54" data-name="Path 54" d="M308.34,223.046a20.09,20.09,0,0,1,2.01,4.568,31.559,31.559,0,0,0,6.084.109A31.173,31.173,0,0,0,313.3,222.5a20.259,20.259,0,0,1-4.96.545" transform="translate(-275.633 -194.624)" fill="#018837" fill-rule="evenodd"/>
                  <path id="Path_55" data-name="Path 55" d="M242.7,197.127a31.2,31.2,0,0,0-5.751,1.982,31.574,31.574,0,0,0,4.729,3.832,20.23,20.23,0,0,1,4.473-2.207,20.5,20.5,0,0,1-3.451-3.606" transform="translate(-236.951 -180.875)" fill="#018837" fill-rule="evenodd"/>
                  <path id="Path_56" data-name="Path 56" d="M316.109,209.815a20.149,20.149,0,0,1-4.471,2.208,20.255,20.255,0,0,1,3.45,3.6,31.035,31.035,0,0,0,5.75-1.98,31.064,31.064,0,0,0-4.73-3.832" transform="translate(-277.42 -187.75)" fill="#018837" fill-rule="evenodd"/>
                  <path id="Path_57" data-name="Path 57" d="M246.153,212.023a20.128,20.128,0,0,1-4.473-2.209,31.351,31.351,0,0,0-4.728,3.832,31.17,31.17,0,0,0,5.75,1.98,20.379,20.379,0,0,1,3.451-3.6" transform="translate(-236.952 -187.75)" fill="#018837" fill-rule="evenodd"/>
                  <path id="Path_58" data-name="Path 58" d="M311.638,200.732a20.268,20.268,0,0,1,4.471,2.208,31.256,31.256,0,0,0,4.73-3.832,30.994,30.994,0,0,0-5.75-1.982,20.355,20.355,0,0,1-3.45,3.605" transform="translate(-277.42 -180.875)" fill="#018837" fill-rule="evenodd"/>
                  <path id="Path_59" data-name="Path 59" d="M245.8,222.5a31.351,31.351,0,0,0-3.131,5.223,31.511,31.511,0,0,0,6.083-.109,20.471,20.471,0,0,1,2.007-4.568,20.233,20.233,0,0,1-4.959-.545" transform="translate(-240.049 -194.624)" fill="#018837" fill-rule="evenodd"/>
                  <path id="Path_60" data-name="Path 60" d="M313.3,190.835a31.324,31.324,0,0,0,3.133-5.222,31.486,31.486,0,0,0-6.085.111,20.049,20.049,0,0,1-2.009,4.568,20.264,20.264,0,0,1,4.96.543" transform="translate(-275.633 -174.584)" fill="#018837" fill-rule="evenodd"/>
                  <path id="Path_61" data-name="Path 61" d="M259.416,231.066a20.264,20.264,0,0,1-4.842,1.189,31.135,31.135,0,0,0-1.161,5.978,31.427,31.427,0,0,0,5.678-2.181,20.213,20.213,0,0,1,.326-4.986" transform="translate(-245.87 -199.265)" fill="#018837" fill-rule="evenodd"/>
                  <path id="Path_62" data-name="Path 62" d="M302.154,180.084A20.139,20.139,0,0,1,307,178.9a31.16,31.16,0,0,0,1.162-5.979,31.215,31.215,0,0,0-5.678,2.181,20.172,20.172,0,0,1-.327,4.983" transform="translate(-272.281 -167.759)" fill="#018837" fill-rule="evenodd"/>
                  <path id="Path_63" data-name="Path 63" d="M265.8,238.667a31.327,31.327,0,0,0,.951,6.012,31.334,31.334,0,0,0,4.589-3.995,20.4,20.4,0,0,1-1.394-4.793,20.476,20.476,0,0,1-4.146,2.775" transform="translate(-252.585 -201.88)" fill="#018837" fill-rule="evenodd"/>
                  <path id="Path_64" data-name="Path 64" d="M296.318,170.572a31.54,31.54,0,0,0-.95-6.012,31.022,31.022,0,0,0-4.589,4,20.392,20.392,0,0,1,1.393,4.79,20.428,20.428,0,0,1,4.146-2.774" transform="translate(-266.118 -163.229)" fill="#018837" fill-rule="evenodd"/>
                  <path id="Path_65" data-name="Path 65" d="M277.687,181.442a13.992,13.992,0,0,1,1.512-4.136,20.2,20.2,0,0,0-2.951-4.025,20.354,20.354,0,0,0-1.394,4.791,13.945,13.945,0,0,1,2.833,3.371" transform="translate(-257.489 -167.954)" fill="#73be1e" fill-rule="evenodd"/>
                  <path id="Path_66" data-name="Path 66" d="M285.849,228.536a13.991,13.991,0,0,1-1.511,4.136,20.226,20.226,0,0,0,2.951,4.027,20.468,20.468,0,0,0,1.393-4.794,13.971,13.971,0,0,1-2.833-3.369" transform="translate(-262.628 -197.894)" fill="#73be1e" fill-rule="evenodd"/>
                  <path id="Path_67" data-name="Path 67" d="M266.094,182.668a13.976,13.976,0,0,1,3.813,2.2,14.012,14.012,0,0,1,.007-4.4,20.386,20.386,0,0,0-4.146-2.77,20.157,20.157,0,0,0,.326,4.979" transform="translate(-252.549 -170.343)" fill="#73be1e" fill-rule="evenodd"/>
                  <path id="Path_68" data-name="Path 68" d="M297.638,228.474a13.968,13.968,0,0,1-3.81-2.192,14.07,14.07,0,0,1-.008,4.4,20.449,20.449,0,0,0,4.145,2.775,20.192,20.192,0,0,0-.327-4.986" transform="translate(-267.765 -196.673)" fill="#73be1e" fill-rule="evenodd"/>
                  <path id="Path_69" data-name="Path 69" d="M262.289,191.3a13.923,13.923,0,0,1-1.5-4.14,20.161,20.161,0,0,0-4.842-1.185,20.447,20.447,0,0,0,2.007,4.568,13.985,13.985,0,0,1,4.335.757" transform="translate(-247.244 -174.831)" fill="#73be1e" fill-rule="evenodd"/>
                  <path id="Path_70" data-name="Path 70" d="M298.884,222.035a13.959,13.959,0,0,1,1.5,4.138,20.2,20.2,0,0,0,4.844,1.189,20.087,20.087,0,0,0-2.009-4.568,13.95,13.95,0,0,1-4.332-.759" transform="translate(-270.509 -194.372)" fill="#73be1e" fill-rule="evenodd"/>
                  <path id="Path_71" data-name="Path 71" d="M252.953,200.085a13.918,13.918,0,0,1,4.331-.771,13.965,13.965,0,0,1-2.823-3.377,20.267,20.267,0,0,0-4.96.543,20.464,20.464,0,0,0,3.451,3.605" transform="translate(-243.752 -180.228)" fill="#73be1e" fill-rule="evenodd"/>
                  <path id="Path_72" data-name="Path 72" d="M306.516,214.635a14.009,14.009,0,0,1-4.331.77,13.9,13.9,0,0,1,2.82,3.378,20.22,20.22,0,0,0,4.961-.545,20.256,20.256,0,0,0-3.45-3.6" transform="translate(-272.298 -190.362)" fill="#73be1e" fill-rule="evenodd"/>
                  <path id="Path_73" data-name="Path 73" d="M255.55,207.2a14.013,14.013,0,0,1-3.8-2.208,20.23,20.23,0,0,0-4.473,2.208,20.132,20.132,0,0,0,4.473,2.208,13.932,13.932,0,0,1,3.8-2.208" transform="translate(-242.543 -185.139)" fill="#73be1e" fill-rule="evenodd"/>
                  <path id="Path_74" data-name="Path 74" d="M303.328,207.2a13.894,13.894,0,0,1,3.807,2.208,20.16,20.16,0,0,0,4.471-2.208A20.259,20.259,0,0,0,307.135,205a13.973,13.973,0,0,1-3.807,2.208" transform="translate(-272.917 -185.139)" fill="#73be1e" fill-rule="evenodd"/>
                  <path id="Path_75" data-name="Path 75" d="M254.462,218.784a13.928,13.928,0,0,1,2.823-3.379,13.952,13.952,0,0,1-4.331-.77,20.4,20.4,0,0,0-3.451,3.6,20.276,20.276,0,0,0,4.959.545" transform="translate(-243.752 -190.362)" fill="#73be1e" fill-rule="evenodd"/>
                  <path id="Path_76" data-name="Path 76" d="M305,195.937a13.909,13.909,0,0,1-2.82,3.377,13.943,13.943,0,0,1,4.331.772,20.337,20.337,0,0,0,3.449-3.606,20.238,20.238,0,0,0-4.96-.542" transform="translate(-272.298 -180.228)" fill="#73be1e" fill-rule="evenodd"/>
                  <path id="Path_77" data-name="Path 77" d="M262.289,222.035a13.962,13.962,0,0,1-4.335.759,20.425,20.425,0,0,0-2.007,4.568,20.241,20.241,0,0,0,4.842-1.189,13.911,13.911,0,0,1,1.5-4.138" transform="translate(-247.244 -194.372)" fill="#73be1e" fill-rule="evenodd"/>
                  <path id="Path_78" data-name="Path 78" d="M298.884,191.3a13.973,13.973,0,0,1,4.332-.757,20.108,20.108,0,0,0,2.009-4.568,20.139,20.139,0,0,0-4.844,1.185,13.971,13.971,0,0,1-1.5,4.14" transform="translate(-270.509 -174.831)" fill="#73be1e" fill-rule="evenodd"/>
                  <path id="Path_79" data-name="Path 79" d="M277.687,228.536a13.938,13.938,0,0,1-2.833,3.369,20.4,20.4,0,0,0,1.394,4.794,20.318,20.318,0,0,0,2.951-4.027,14,14,0,0,1-1.512-4.136" transform="translate(-257.489 -197.894)" fill="#73be1e" fill-rule="evenodd"/>
                  <path id="Path_80" data-name="Path 80" d="M269.907,226.282a14,14,0,0,1-3.813,2.192,20.212,20.212,0,0,0-.326,4.986,20.471,20.471,0,0,0,4.146-2.775,14.016,14.016,0,0,1-.007-4.4" transform="translate(-252.549 -196.673)" fill="#73be1e" fill-rule="evenodd"/>
                  <path id="Path_81" data-name="Path 81" d="M285.849,181.442a13.943,13.943,0,0,1,2.833-3.371,20.374,20.374,0,0,0-1.393-4.791,20.105,20.105,0,0,0-2.951,4.025,13.979,13.979,0,0,1,1.511,4.136" transform="translate(-262.628 -167.954)" fill="#73be1e" fill-rule="evenodd"/>
                  <path id="Path_82" data-name="Path 82" d="M293.828,184.86a13.947,13.947,0,0,1,3.81-2.2,20.189,20.189,0,0,0,.327-4.982,20.436,20.436,0,0,0-4.146,2.774,14.051,14.051,0,0,1,.009,4.4" transform="translate(-267.765 -170.339)" fill="#73be1e" fill-rule="evenodd"/>
                  <path id="Path_83" data-name="Path 83" d="M272.537,195.535a11.869,11.869,0,0,0-2.845-3.408,11.937,11.937,0,0,0,1.524,4.17,11.914,11.914,0,0,0-3.837-2.225,11.823,11.823,0,0,0,2.856,3.4,11.842,11.842,0,0,0-4.368-.777,11.876,11.876,0,0,0,3.845,2.214,11.892,11.892,0,0,0-4.371.765,11.9,11.9,0,0,0,4.371.764,11.894,11.894,0,0,0-3.845,2.215,11.843,11.843,0,0,0,4.368-.777,11.825,11.825,0,0,0-2.856,3.4,11.958,11.958,0,0,0,3.837-2.225,11.933,11.933,0,0,0-1.524,4.171,11.9,11.9,0,0,0,2.845-3.406,11.974,11.974,0,0,0-.005,4.439,11.966,11.966,0,0,0,1.512-4.173,11.973,11.973,0,0,0,1.511,4.173,11.926,11.926,0,0,0-.006-4.439,11.955,11.955,0,0,0,2.847,3.406,11.93,11.93,0,0,0-1.526-4.171,12,12,0,0,0,3.838,2.225,11.856,11.856,0,0,0-2.855-3.4,11.835,11.835,0,0,0,4.368.777,11.986,11.986,0,0,0-3.845-2.217,11.832,11.832,0,0,0,4.369-.761,11.87,11.87,0,0,0-4.369-.765,11.923,11.923,0,0,0,3.845-2.214,11.858,11.858,0,0,0-4.37.777,11.821,11.821,0,0,0,2.857-3.4,11.98,11.98,0,0,0-3.838,2.226,11.945,11.945,0,0,0,1.526-4.171,11.925,11.925,0,0,0-2.847,3.408,11.937,11.937,0,0,0,.006-4.441,11.938,11.938,0,0,0-1.511,4.174,11.93,11.93,0,0,0-1.512-4.174,11.985,11.985,0,0,0,.005,4.441" transform="translate(-252.333 -177.606)" fill="#fff" fill-rule="evenodd"/>
                  <path id="Path_84" data-name="Path 84" d="M277.482,191.548a11.986,11.986,0,0,1-.005-4.441,13.958,13.958,0,0,0-2.833-3.371,14.027,14.027,0,0,0-.007,4.4,11.868,11.868,0,0,1,2.845,3.408" transform="translate(-257.278 -173.62)" fill="#ffe001" fill-rule="evenodd"/>
                  <path id="Path_85" data-name="Path 85" d="M287.621,218.848a11.926,11.926,0,0,1,.007,4.439,13.977,13.977,0,0,0,2.832,3.37,14.056,14.056,0,0,0,.008-4.4,11.956,11.956,0,0,1-2.848-3.406" transform="translate(-264.406 -192.645)" fill="#ffe001" fill-rule="evenodd"/>
                  <path id="Path_86" data-name="Path 86" d="M270.329,190.752a13.964,13.964,0,0,0-3.813-2.2,13.95,13.95,0,0,0,1.5,4.14,11.914,11.914,0,0,1,3.837,2.225,11.939,11.939,0,0,1-1.524-4.17" transform="translate(-252.971 -176.232)" fill="#ffe001" fill-rule="evenodd"/>
                  <path id="Path_87" data-name="Path 87" d="M292.033,221.349a13.981,13.981,0,0,0,3.81,2.192,13.959,13.959,0,0,0-1.5-4.138,11.978,11.978,0,0,1-3.838-2.225,11.947,11.947,0,0,1,1.527,4.171" transform="translate(-265.97 -191.74)" fill="#ffe001" fill-rule="evenodd"/>
                  <path id="Path_88" data-name="Path 88" d="M267.52,200.1a11.8,11.8,0,0,1-2.857-3.4,13.986,13.986,0,0,0-4.335-.757,13.95,13.95,0,0,0,2.823,3.377,11.862,11.862,0,0,1,4.369.777" transform="translate(-249.618 -180.233)" fill="#ffe001" fill-rule="evenodd"/>
                  <path id="Path_89" data-name="Path 89" d="M292.652,214.619a11.849,11.849,0,0,1,2.855,3.4,13.954,13.954,0,0,0,4.333.759,13.883,13.883,0,0,0-2.82-3.379,11.835,11.835,0,0,1-4.368-.777" transform="translate(-267.132 -190.353)" fill="#ffe001" fill-rule="evenodd"/>
                  <path id="Path_90" data-name="Path 90" d="M265.212,205.527a11.865,11.865,0,0,1-3.845-2.214,13.9,13.9,0,0,0-4.331.772,14.01,14.01,0,0,0,3.8,2.207,11.892,11.892,0,0,1,4.372-.765" transform="translate(-247.833 -184.227)" fill="#ffe001" fill-rule="evenodd"/>
                  <path id="Path_91" data-name="Path 91" d="M293.792,210.576a12,12,0,0,1,3.845,2.217,14,14,0,0,0,4.331-.77,13.9,13.9,0,0,0-3.807-2.209,11.822,11.822,0,0,1-4.369.762" transform="translate(-267.75 -187.75)" fill="#ffe001" fill-rule="evenodd"/>
                  <path id="Path_92" data-name="Path 92" d="M260.841,209.815a13.931,13.931,0,0,0-3.8,2.208,13.953,13.953,0,0,0,4.331.77,11.9,11.9,0,0,1,3.845-2.215,11.9,11.9,0,0,1-4.371-.764" transform="translate(-247.834 -187.75)" fill="#ffe001" fill-rule="evenodd"/>
                  <path id="Path_93" data-name="Path 93" d="M298.16,206.292a13.974,13.974,0,0,0,3.807-2.208,13.927,13.927,0,0,0-4.331-.771,11.928,11.928,0,0,1-3.846,2.214,11.879,11.879,0,0,1,4.369.765" transform="translate(-267.75 -184.227)" fill="#ffe001" fill-rule="evenodd"/>
                  <path id="Path_94" data-name="Path 94" d="M267.52,214.619a11.843,11.843,0,0,1-4.369.777,13.926,13.926,0,0,0-2.823,3.379,13.961,13.961,0,0,0,4.335-.759,11.806,11.806,0,0,1,2.857-3.4" transform="translate(-249.618 -190.353)" fill="#ffe001" fill-rule="evenodd"/>
                  <path id="Path_95" data-name="Path 95" d="M292.646,200.1a11.877,11.877,0,0,1,4.37-.777,13.917,13.917,0,0,0,2.82-3.377,13.977,13.977,0,0,0-4.333.757,11.815,11.815,0,0,1-2.857,3.4" transform="translate(-267.129 -180.233)" fill="#ffe001" fill-rule="evenodd"/>
                  <path id="Path_96" data-name="Path 96" d="M281.037,223.6a14.005,14.005,0,0,0,1.512,4.136,14,14,0,0,0,1.511-4.136,11.961,11.961,0,0,1-1.511-4.174,11.952,11.952,0,0,1-1.512,4.174" transform="translate(-260.839 -192.958)" fill="#ffe001" fill-rule="evenodd"/>
                  <path id="Path_97" data-name="Path 97" d="M277.482,218.848a11.9,11.9,0,0,1-2.845,3.406,14.016,14.016,0,0,0,.007,4.4,13.96,13.96,0,0,0,2.833-3.37,11.974,11.974,0,0,1,.005-4.439" transform="translate(-257.278 -192.645)" fill="#ffe001" fill-rule="evenodd"/>
                  <path id="Path_98" data-name="Path 98" d="M268.016,219.4a13.913,13.913,0,0,0-1.5,4.138,14,14,0,0,0,3.813-2.192,11.953,11.953,0,0,1,1.523-4.171,11.942,11.942,0,0,1-3.837,2.225" transform="translate(-252.971 -191.74)" fill="#ffe001" fill-rule="evenodd"/>
                  <path id="Path_99" data-name="Path 99" d="M284.06,186.2a13.978,13.978,0,0,0-1.511-4.136,13.994,13.994,0,0,0-1.512,4.136,11.943,11.943,0,0,1,1.512,4.174,11.942,11.942,0,0,1,1.511-4.174" transform="translate(-260.839 -172.715)" fill="#ffe001" fill-rule="evenodd"/>
                  <path id="Path_100" data-name="Path 100" d="M287.621,191.548a11.927,11.927,0,0,1,2.848-3.408,14.067,14.067,0,0,0-.008-4.4,13.932,13.932,0,0,0-2.832,3.371,11.938,11.938,0,0,1-.007,4.441" transform="translate(-264.406 -173.62)" fill="#ffe001" fill-rule="evenodd"/>
                  <path id="Path_101" data-name="Path 101" d="M294.344,192.7a13.97,13.97,0,0,0,1.5-4.14,13.948,13.948,0,0,0-3.81,2.2,11.967,11.967,0,0,1-1.527,4.171,11.959,11.959,0,0,1,3.838-2.226" transform="translate(-265.97 -176.232)" fill="#ffe001" fill-rule="evenodd"/>
                </g>
              </g>
            </g>
          </g>
        </g>
        <path id="Path_102" data-name="Path 102" d="M138.414,164.561a20.733,20.733,0,1,0,20.671,20.733,20.7,20.7,0,0,0-20.671-20.733" transform="translate(-117.743 -163.23)" fill="#018837"/>
        <path id="Path_103" data-name="Path 103" d="M154.76,201.952a2.711,2.711,0,1,1,2.569-2.7,2.563,2.563,0,0,1-2.569,2.7m.048-8.9c-3.9,0-6.494,2.481-6.494,6.18,0,3.794,2.5,6.228,6.423,6.228,3.9,0,6.471-2.434,6.471-6.2,0-3.722-2.545-6.2-6.4-6.2m-10.053-5.416a2.129,2.129,0,0,0-2.4,2.148,2.17,2.17,0,0,0,2.474,2.171,2.134,2.134,0,0,0,2.4-2.171c0-1.337-.952-2.148-2.474-2.148m.262,5.535h-.476c-1.166,0-2.046.548-2.046,2.219v7.635c0,1.695.857,2.22,2.094,2.22h.476c1.166,0,2-.573,2-2.22v-7.635c0-1.718-.809-2.219-2.046-2.219m-6.228-3.6h-.69c-1.308,0-2.022.74-2.022,2.219v7.134c0,1.837-.619,2.482-2.07,2.482A3.5,3.5,0,0,1,131.2,200a2.386,2.386,0,0,0-1.57,2.386c0,1.909,1.784,3.078,5.091,3.078,4.02,0,6.137-2.028,6.137-6.466v-7.206c0-1.479-.713-2.219-2.069-2.219" transform="translate(-124.184 -175.733)" fill="#fff"/>
        <path id="Path_104" data-name="Path 104" d="M221.672,164.561v41.467h.72V164.561Z" transform="translate(-174.057 -163.23)" fill="#018837"/>
      </g>
      <g id="Group_19" data-name="Group 19" transform="translate(200.042 131.998)">
        <path id="Path_105" data-name="Path 105" d="M303.188,138.715c0,1.258-.445,2.991-2.223,2.991-2.148,0-2.148-2.408-2.148-2.914,0-.491,0-3.068,2.208-3.068C303.035,135.724,303.188,137.948,303.188,138.715ZM298.847,132h-1.44v9.263l-.032,1.38h1.393l.032-1.165a2.472,2.472,0,0,0,.753.782,3.043,3.043,0,0,0,1.716.491,3.258,3.258,0,0,0,2.7-1.319,4.444,4.444,0,0,0,.734-2.808,4.052,4.052,0,0,0-.9-2.9,3.152,3.152,0,0,0-2.441-.982,2.573,2.573,0,0,0-2.515,1.319Z" transform="translate(-297.375 -131.998)" fill="#018837"/>
        <path id="Path_106" data-name="Path 106" d="M317.113,142.358c0-.69,0-3.129,2.3-3.129,1.7,0,2.117,1.442,2.117,2.822a4.311,4.311,0,0,1-.629,2.408,1.964,1.964,0,0,1-1.625.752C317.252,145.211,317.113,143.294,317.113,142.358Zm-1.379,6.58h1.426v-3.819a2.662,2.662,0,0,0,2.362,1.15c1.841,0,3.51-1.257,3.51-4.126,0-2.853-1.577-3.988-3.233-3.988a2.993,2.993,0,0,0-2.624,1.4l-.031-1.272h-1.456c.031.736.047.92.047,1.257Z" transform="translate(-307.298 -135.334)" fill="#018837"/>
      </g>
    </g>
    <path id="Path_41997" data-name="Path 41997" d="M-30.536.592h.022l1.354-4.17h1.267l-2,5.545a3.827,3.827,0,0,1-.736,1.348,2.254,2.254,0,0,1-.931.639,3.948,3.948,0,0,1-1.126.19V3.115a1.735,1.735,0,0,0,.969-.276,1.688,1.688,0,0,0,.558-.829l-2.08-5.589h1.311Zm8.643-1.365A3.36,3.36,0,0,1-22.229.759a2.494,2.494,0,0,1-.959,1.04,2.735,2.735,0,0,1-1.435.374,2.746,2.746,0,0,1-1.457-.379A2.494,2.494,0,0,1-27.033.749a3.381,3.381,0,0,1-.33-1.522,3.394,3.394,0,0,1,.336-1.538,2.5,2.5,0,0,1,.953-1.045,2.748,2.748,0,0,1,1.451-.374,2.718,2.718,0,0,1,1.451.379A2.5,2.5,0,0,1-22.224-2.3,3.415,3.415,0,0,1-21.893-.773ZM-24.623,1.22A1.323,1.323,0,0,0-23.8.965a1.561,1.561,0,0,0,.509-.709,2.874,2.874,0,0,0,.173-1.029,3,3,0,0,0-.157-.986,1.614,1.614,0,0,0-.5-.736,1.308,1.308,0,0,0-.861-.282,1.288,1.288,0,0,0-.8.255,1.6,1.6,0,0,0-.514.7,2.817,2.817,0,0,0-.179,1.045,2.907,2.907,0,0,0,.173,1.04,1.509,1.509,0,0,0,.514.7A1.349,1.349,0,0,0-24.623,1.22Zm5.134-1.581A1.962,1.962,0,0,0-19.207.814a1.04,1.04,0,0,0,.888.374,1.14,1.14,0,0,0,.931-.379,1.811,1.811,0,0,0,.314-1.17V-3.578h1.235v5.6H-17.03v-.8h-.022a1.717,1.717,0,0,1-.666.7,1.891,1.891,0,0,1-.969.249q-2.036,0-2.036-2.2V-3.578h1.235ZM-6.178,2.021H-7.369V1.209h-.022a1.587,1.587,0,0,1-.688.715,2.138,2.138,0,0,1-1.034.249,2.183,2.183,0,0,1-1.327-.4A2.449,2.449,0,0,1-11.263.694a3.936,3.936,0,0,1-.276-1.5,3.8,3.8,0,0,1,.276-1.468,2.437,2.437,0,0,1,.818-1.061,2.162,2.162,0,0,1,1.311-.4,2.063,2.063,0,0,1,1.013.26,1.584,1.584,0,0,1,.688.715h.022V-5.712h1.235Zm-2.686-.8A1.261,1.261,0,0,0-7.754.678,2.535,2.535,0,0,0-7.38-.784a2.558,2.558,0,0,0-.368-1.435,1.246,1.246,0,0,0-1.116-.558,1.242,1.242,0,0,0-.8.26,1.564,1.564,0,0,0-.487.709,3,3,0,0,0-.162,1.024A3,3,0,0,0-10.158.2a1.653,1.653,0,0,0,.487.736A1.2,1.2,0,0,0-8.864,1.22ZM.158-.47H-3.86A1.943,1.943,0,0,0-3.449.77a1.368,1.368,0,0,0,1.1.46,1.524,1.524,0,0,0,.85-.217A.98.98,0,0,0-1.066.44H.05A2.183,2.183,0,0,1-.79,1.729a2.687,2.687,0,0,1-1.6.444A2.751,2.751,0,0,1-3.833,1.8,2.377,2.377,0,0,1-4.764.77a3.53,3.53,0,0,1-.32-1.543,3.386,3.386,0,0,1,.325-1.495,2.6,2.6,0,0,1,.931-1.067,2.52,2.52,0,0,1,1.408-.4,2.454,2.454,0,0,1,1.4.39A2.43,2.43,0,0,1-.14-2.268a3.864,3.864,0,0,1,.3,1.56ZM-1.066-1.3a1.785,1.785,0,0,0-.406-1.078,1.218,1.218,0,0,0-.959-.4,1.282,1.282,0,0,0-.969.39A1.848,1.848,0,0,0-3.86-1.3Zm5.524-.8a.683.683,0,0,0-.314-.569,1.462,1.462,0,0,0-.8-.19,1.367,1.367,0,0,0-.726.168.563.563,0,0,0-.271.514.551.551,0,0,0,.271.482,2.683,2.683,0,0,0,.866.309l.65.152a2.879,2.879,0,0,1,1.224.563A1.32,1.32,0,0,1,5.8.386a1.548,1.548,0,0,1-.336,1.029,1.889,1.889,0,0,1-.872.579,3.7,3.7,0,0,1-1.175.179,3.009,3.009,0,0,1-1.755-.455A1.6,1.6,0,0,1,.981.386h1.17a.827.827,0,0,0,.374.682,1.6,1.6,0,0,0,.915.238,1.536,1.536,0,0,0,.8-.2.646.646,0,0,0,.336-.59.648.648,0,0,0-.271-.542,2.256,2.256,0,0,0-.856-.336L2.8-.513a2.817,2.817,0,0,1-1.278-.558,1.283,1.283,0,0,1-.4-1,1.417,1.417,0,0,1,.3-.921,1.792,1.792,0,0,1,.812-.552A3.441,3.441,0,0,1,3.4-3.73a2.665,2.665,0,0,1,1.6.422,1.541,1.541,0,0,1,.634,1.2ZM11.888-.47H7.87A1.943,1.943,0,0,0,8.281.77a1.368,1.368,0,0,0,1.1.46,1.524,1.524,0,0,0,.85-.217A.98.98,0,0,0,10.664.44H11.78a2.183,2.183,0,0,1-.839,1.289,2.687,2.687,0,0,1-1.6.444A2.751,2.751,0,0,1,7.9,1.8,2.377,2.377,0,0,1,6.965.77a3.53,3.53,0,0,1-.32-1.543,3.386,3.386,0,0,1,.325-1.495A2.6,2.6,0,0,1,7.9-3.335a2.52,2.52,0,0,1,1.408-.4,2.454,2.454,0,0,1,1.4.39,2.43,2.43,0,0,1,.877,1.072,3.864,3.864,0,0,1,.3,1.56ZM10.664-1.3a1.785,1.785,0,0,0-.406-1.078,1.218,1.218,0,0,0-.959-.4,1.282,1.282,0,0,0-.969.39A1.848,1.848,0,0,0,7.87-1.3ZM16.22-2.539a2.057,2.057,0,0,0-.444-.043,1.41,1.41,0,0,0-1.175.5,2.065,2.065,0,0,0-.4,1.321V2.021H12.982v-5.6h1.181v1.007h.022a1.717,1.717,0,0,1,.612-.845,1.647,1.647,0,0,1,1-.314,1.946,1.946,0,0,1,.422.043Zm1.549-1.04L19.09.635h.022l1.321-4.213h1.235l-1.906,5.6H18.408l-1.939-5.6ZM27.463-.47H23.444A1.943,1.943,0,0,0,23.856.77a1.368,1.368,0,0,0,1.1.46,1.524,1.524,0,0,0,.85-.217A.98.98,0,0,0,26.239.44h1.116a2.183,2.183,0,0,1-.839,1.289,2.687,2.687,0,0,1-1.6.444A2.751,2.751,0,0,1,23.471,1.8,2.377,2.377,0,0,1,22.54.77a3.53,3.53,0,0,1-.32-1.543,3.386,3.386,0,0,1,.325-1.495,2.6,2.6,0,0,1,.931-1.067,2.52,2.52,0,0,1,1.408-.4,2.454,2.454,0,0,1,1.4.39,2.43,2.43,0,0,1,.877,1.072,3.864,3.864,0,0,1,.3,1.56ZM26.239-1.3a1.785,1.785,0,0,0-.406-1.078,1.218,1.218,0,0,0-.959-.4,1.282,1.282,0,0,0-.969.39,1.848,1.848,0,0,0-.46,1.083Zm9.932-1.44a1.933,1.933,0,0,1,.7-.731,1.93,1.93,0,0,1,1-.255,1.831,1.831,0,0,1,1.419.542,2.19,2.19,0,0,1,.5,1.538V2.021H38.553V-1.2a2.09,2.09,0,0,0-.26-1.175.9.9,0,0,0-.791-.374q-1.126,0-1.126,1.549V2.021H35.142V-1.2a2.126,2.126,0,0,0-.255-1.175.9.9,0,0,0-.8-.374q-1.126,0-1.126,1.549V2.021H31.73v-5.6h1.159v.8h.022a2,2,0,0,1,.682-.7,1.784,1.784,0,0,1,.942-.249A1.563,1.563,0,0,1,36.17-2.744ZM46.427-.773A3.36,3.36,0,0,1,46.091.759a2.494,2.494,0,0,1-.959,1.04,2.735,2.735,0,0,1-1.435.374,2.746,2.746,0,0,1-1.457-.379A2.494,2.494,0,0,1,41.288.749a3.381,3.381,0,0,1-.33-1.522,3.394,3.394,0,0,1,.336-1.538,2.5,2.5,0,0,1,.953-1.045A2.748,2.748,0,0,1,43.7-3.73a2.718,2.718,0,0,1,1.451.379A2.5,2.5,0,0,1,46.1-2.3,3.415,3.415,0,0,1,46.427-.773ZM43.7,1.22a1.323,1.323,0,0,0,.823-.255A1.561,1.561,0,0,0,45.03.256,2.874,2.874,0,0,0,45.2-.773a3,3,0,0,0-.157-.986,1.614,1.614,0,0,0-.5-.736,1.308,1.308,0,0,0-.861-.282,1.288,1.288,0,0,0-.8.255,1.6,1.6,0,0,0-.514.7,2.817,2.817,0,0,0-.179,1.045,2.907,2.907,0,0,0,.173,1.04,1.509,1.509,0,0,0,.514.7A1.349,1.349,0,0,0,43.7,1.22Zm7.148-3.758a2.057,2.057,0,0,0-.444-.043,1.41,1.41,0,0,0-1.175.5,2.065,2.065,0,0,0-.4,1.321V2.021H47.608v-5.6h1.181v1.007h.022a1.717,1.717,0,0,1,.612-.845,1.647,1.647,0,0,1,1-.314,1.946,1.946,0,0,1,.422.043ZM56.435-.47H52.417A1.943,1.943,0,0,0,52.828.77a1.368,1.368,0,0,0,1.1.46,1.524,1.524,0,0,0,.85-.217A.98.98,0,0,0,55.211.44h1.116a2.183,2.183,0,0,1-.839,1.289,2.687,2.687,0,0,1-1.6.444A2.751,2.751,0,0,1,52.444,1.8,2.377,2.377,0,0,1,51.512.77a3.529,3.529,0,0,1-.32-1.543,3.386,3.386,0,0,1,.325-1.495,2.6,2.6,0,0,1,.931-1.067,2.52,2.52,0,0,1,1.408-.4,2.454,2.454,0,0,1,1.4.39,2.43,2.43,0,0,1,.877,1.072,3.864,3.864,0,0,1,.3,1.56ZM55.211-1.3A1.785,1.785,0,0,0,54.8-2.382a1.218,1.218,0,0,0-.959-.4,1.282,1.282,0,0,0-.969.39,1.848,1.848,0,0,0-.46,1.083Z" transform="translate(57.244 85.712)" fill="#018837"/>
  </g>
</svg>
