<svg xmlns="http://www.w3.org/2000/svg" xmlns:xlink="http://www.w3.org/1999/xlink" width="72" height="58.3" viewBox="0 0 72 58.3">
  <defs>
    <clipPath id="clip-path">
      <rect id="Rectangle_271" data-name="Rectangle 271" width="6" height="3" fill="#fff"/>
    </clipPath>
  </defs>
  <g id="airport" transform="translate(0 464.125)">
    <rect id="Rectangle_270" data-name="Rectangle 270" width="72" height="58.3" transform="translate(0 -464.125)" fill="none"/>
    <g id="trucks-_1_" transform="translate(-15.479 -224.987)">
      <g id="Group_4126" data-name="Group 4126" transform="translate(56.459 -228.098)">
        <path id="Path_41295" data-name="Path 41295" d="M350.647-227.753a2.346,2.346,0,0,0-.808.677c-.395.489-.395.639-.395,7.05v6.542l-.508.282A3.868,3.868,0,0,0,347-210.156a4.27,4.27,0,0,0,1.09,2.688l.658.677-.038,2.538-.038,2.538-.6.489-.6.508v1.993c0,2.294.207,2.688,1.579,2.876l.771.113v.827a3.245,3.245,0,0,0,2.406,3.252,11.029,11.029,0,0,0,4.08-.019,3.171,3.171,0,0,0,2.35-3.177v-.94h7.708v.94a2.913,2.913,0,0,0,1.128,2.5,4.661,4.661,0,0,0,3.29.884,4.661,4.661,0,0,0,3.29-.884,2.913,2.913,0,0,0,1.128-2.5v-.94h.677a1.6,1.6,0,0,0,1.222-.545c.526-.545.545-.62.545-2.369,0-1.767-.019-1.824-.564-2.388-.545-.526-.564-.62-.583-2.275a21.99,21.99,0,0,0-.15-2.613c-.132-.808-.113-.9.376-1.26a4.13,4.13,0,0,0,1.3-2.764,4.389,4.389,0,0,0-.357-1.485c-.32-.714-1.354-1.786-1.711-1.786-.094,0-.188-2.952-.226-6.561-.056-6.336-.075-6.6-.451-7.106-.752-1.015-.432-1-12.765-.978C356.212-227.922,350.854-227.847,350.647-227.753Zm23.049,7.8c0,5.922-.019,6.11-.357,6.11-.395,0-.489-.188-.677-1.5a3.957,3.957,0,0,0-2.707-3.365,62.936,62.936,0,0,0-7.52-.207c-6.881,0-6.881,0-7.858.451a3.55,3.55,0,0,0-1.448,1.184,7.7,7.7,0,0,0-.959,2.914c-.075.357-.226.526-.47.526-.376,0-.376-.15-.376-6.11v-6.11H373.7Zm-3.7,3.553c.545.508.564.526,1.034,3.44l.357,2.124h-8.817c-8.253,0-8.8-.019-8.8-.338,0-.47.7-4.4.846-4.794.338-.827.752-.865,8.009-.884H369.5ZM351.7-211a2.627,2.627,0,0,1-1.053,1.579,6.7,6.7,0,0,1-1.072.846c-.3,0-.752-1.278-.62-1.786a1.832,1.832,0,0,1,1.955-1.41h.921Zm23.744-.395a1.824,1.824,0,0,1,.432,2.237c-.169.32-.376.583-.451.583a8.155,8.155,0,0,1-1.053-.846A2.627,2.627,0,0,1,373.32-211l-.132-.771h.884A2.129,2.129,0,0,1,375.444-211.4Zm-2.914,3.027a3.516,3.516,0,0,1,1.372,1.26c.526.827.545.94.545,3.177v2.312H350.534l.075-2.406c.056-2.256.094-2.463.564-3.177a3.759,3.759,0,0,1,1.316-1.166c.79-.395.978-.395,10-.395S371.722-208.765,372.53-208.37Zm-20.642,9.663v1.053l-1.26-.056-1.278-.056-.056-.733c-.094-1.147,0-1.241,1.372-1.241h1.222Zm19.364,0v1.034H353.768v-2.068h17.484Zm4.474-.056-.056,1-1.26.056-1.278.056v-2.087h2.651Z" transform="translate(-347 227.927)" fill="#a3c854"/>
        <path id="Path_41296" data-name="Path 41296" d="M407.188-117.655a6.246,6.246,0,0,0-.188,1.711c0,1.617.207,2.068.9,2.068.827,0,.978-.3.978-2.068a4.3,4.3,0,0,0-.226-1.842A1.072,1.072,0,0,0,407.188-117.655Z" transform="translate(-395.719 138.679)" fill="#129048"/>
        <path id="Path_41297" data-name="Path 41297" d="M424.3-117.5a3.082,3.082,0,0,0-.3,1.654c0,1.391.338,2.068,1.015,2.068.771,0,1.053-.545,1.053-2.106,0-1.128-.075-1.466-.338-1.711A.909.909,0,0,0,424.3-117.5Z" transform="translate(-409.524 138.583)" fill="#129048"/>
        <path id="Path_41298" data-name="Path 41298" d="M442.3-117.666c-.226.207-.3.677-.3,1.767,0,1.6.226,2.068,1.015,2.068.714,0,.865-.357.865-2.068a4.3,4.3,0,0,0-.226-1.842A1.034,1.034,0,0,0,442.3-117.666Z" transform="translate(-424.14 138.633)" fill="#129048"/>
        <path id="Path_41299" data-name="Path 41299" d="M378.486-108.53c-.282.432-.282.508,0,.94.564.846,2.557.545,2.557-.395,0-.733-.376-1.015-1.316-1.015C378.938-109,378.75-108.925,378.486-108.53Z" transform="translate(-372.395 131.358)" fill="#a3c854"/>
        <path id="Path_41300" data-name="Path 41300" d="M466.274-108.729c-.752.733-.038,1.636,1.222,1.542.658-.038.865-.15,1.09-.564.263-.451.263-.526-.056-.884A1.986,1.986,0,0,0,466.274-108.729Z" transform="translate(-443.601 131.389)" fill="#129048"/>
      </g>
      <g id="Group_4125" data-name="Group 4125" transform="translate(15.479 -228.069)">
        <path id="Path_41283" data-name="Path 41283" d="M3.591-227.569a2.84,2.84,0,0,0-.846.752c-.376.508-.395.771-.451,6.975l-.056,6.448-.771.62A3.97,3.97,0,0,0,0-209.878a4.13,4.13,0,0,0,1.3,2.764c.489.357.508.451.376,1.26a22,22,0,0,0-.15,2.613c-.019,1.654-.038,1.748-.583,2.275-.545.564-.564.62-.564,2.388,0,1.748.019,1.824.545,2.369a1.6,1.6,0,0,0,1.222.545H2.82v.94a2.913,2.913,0,0,0,1.128,2.5,4.661,4.661,0,0,0,3.29.884,4.661,4.661,0,0,0,3.29-.884,2.913,2.913,0,0,0,1.128-2.5v-.94h7.708v.94a3.171,3.171,0,0,0,2.35,3.177,11.029,11.029,0,0,0,4.08.019,3.245,3.245,0,0,0,2.406-3.252v-.827l.771-.113c1.372-.188,1.579-.583,1.579-2.876v-1.993l-.6-.508-.6-.489-.038-2.538-.038-2.538.658-.7a3.6,3.6,0,0,0-.658-5.584l-.7-.451v-13.1l-.545-.6-.545-.62-11.731-.038C6.693-227.794,3.948-227.757,3.591-227.569ZM26.7-219.823c0,5.96,0,6.11-.376,6.11-.244,0-.395-.169-.47-.526a7.7,7.7,0,0,0-.959-2.914,3.55,3.55,0,0,0-1.448-1.184c-.978-.451-.978-.451-7.858-.451a62.929,62.929,0,0,0-7.52.207,3.956,3.956,0,0,0-2.707,3.365c-.188,1.316-.282,1.5-.677,1.5-.338,0-.357-.188-.357-6.11v-6.11H26.7Zm-3.967,3.384a1.548,1.548,0,0,1,.677.6c.15.395.846,4.324.846,4.794,0,.32-.545.338-8.8.338H6.636l.357-2.124c.47-2.914.489-2.933,1.034-3.44l.489-.451H15.36C21-216.721,22.3-216.665,22.729-216.439ZM4.7-210.874a2.627,2.627,0,0,1-1.053,1.579,8.154,8.154,0,0,1-1.053.846c-.32.019-.752-1.184-.639-1.8a1.8,1.8,0,0,1,1.993-1.391h.884Zm23.782-.32a1.718,1.718,0,0,1,.414,2.106c-.169.357-.376.639-.451.639a6.705,6.705,0,0,1-1.072-.846,2.627,2.627,0,0,1-1.053-1.579l-.132-.771h.921A1.608,1.608,0,0,1,28.482-211.194Zm-2.952,2.952a3.739,3.739,0,0,1,1.316,1.166c.47.714.508.921.564,3.177l.075,2.406H3.572v-2.256c0-1.9.056-2.388.376-3.008a3.7,3.7,0,0,1,1.9-1.673c.263-.113,4.362-.188,9.644-.188C24.5-208.637,24.722-208.637,25.53-208.242ZM4.888-198.579v1.053l-1.26-.056-1.278-.056-.056-1-.056-.978H4.888Zm19.364,0v1.034H6.768v-2.068H24.252Zm4.418,0v.94l-1.26.056-1.278.056v-2.106l1.278.056,1.26.056Z" transform="translate(0 227.77)" fill="#a3c854"/>
        <path id="Path_41284" data-name="Path 41284" d="M60.226-117.741a7.636,7.636,0,0,0,0,3.685,1.034,1.034,0,0,0,1.354-.075,4.977,4.977,0,0,0,0-3.534A1.034,1.034,0,0,0,60.226-117.741Z" transform="translate(-48.72 138.604)" fill="#129048"/>
        <path id="Path_41285" data-name="Path 41285" d="M77.217-117.662c-.47.526-.451,3.064.019,3.478.959.865,1.73.075,1.73-1.748,0-1.391-.338-2.068-1.015-2.068A1.113,1.113,0,0,0,77.217-117.662Z" transform="translate(-62.422 138.637)" fill="#129048"/>
        <path id="Path_41286" data-name="Path 41286" d="M95.226-117.787a7.636,7.636,0,0,0,0,3.685,1.034,1.034,0,0,0,1.354-.075,6.006,6.006,0,0,0,.113-3.478A1.072,1.072,0,0,0,95.226-117.787Z" transform="translate(-77.14 138.649)" fill="#129048"/>
        <path id="Path_41287" data-name="Path 41287" d="M31.332-108.729c-.32.357-.32.432-.056.884.526.978,2.613.7,2.613-.357C33.889-109.123,32.046-109.518,31.332-108.729Z" transform="translate(-25.241 131.452)" fill="#129048"/>
        <path id="Path_41288" data-name="Path 41288" d="M119.237-108.643c-.47.9.019,1.523,1.222,1.523.677,0,.9-.094,1.147-.47.282-.432.282-.508,0-.94-.263-.395-.451-.47-1.241-.47C119.632-109,119.388-108.925,119.237-108.643Z" transform="translate(-96.677 131.329)" fill="#a3c854"/>
        <g id="Mask_Group_17" data-name="Mask Group 17" transform="translate(4.3 31.931)" clip-path="url(#clip-path)">
          <circle id="Ellipse_109" data-name="Ellipse 109" cx="3" cy="3" r="3" transform="translate(0 -3)" fill="#fff"/>
        </g>
      </g>
      <path id="Path_41301" data-name="Path 41301" d="M1.785.89,2.768.442,26.129.477l.691.359.536,1.211.14,12.5L29.445,36.7H0l.1-3.229L.683,14.925l.457-.265L1.332,1.934Z" transform="translate(36.964 -228.338)" fill="#fff"/>
      <path id="Path_41289" data-name="Path 41289" d="M177.346-227.811c-1.053.564-1.09.79-1.09,7.764v6.373l-.658.414a3.569,3.569,0,0,0-1.6,2.97,3.342,3.342,0,0,0,1.015,2.67l.6.658-.075,2.67c-.056,2.087-.132,2.688-.32,2.688-.6,0-.846.79-.846,2.651a13.935,13.935,0,0,0,.113,2.143,2.208,2.208,0,0,0,1.636.846c.414,0,.47.094.564,1.034a3.46,3.46,0,0,0,1.6,2.764,4.376,4.376,0,0,0,2.388.489c2.688.113,3.929-.395,4.625-1.918a4.7,4.7,0,0,0,.357-1.579v-.79h7.52v.79a4.7,4.7,0,0,0,.357,1.579c.7,1.523,1.936,2.03,4.625,1.918a4.375,4.375,0,0,0,2.388-.489,3.46,3.46,0,0,0,1.6-2.764c.094-.94.15-1.034.564-1.034a2.208,2.208,0,0,0,1.636-.846,13.933,13.933,0,0,0,.113-2.143c0-1.861-.244-2.651-.846-2.651-.188,0-.263-.6-.32-2.67l-.075-2.688.6-.658a3.343,3.343,0,0,0,1.015-2.67,3.569,3.569,0,0,0-1.6-2.97l-.658-.414v-6.373c0-7.012-.038-7.219-1.128-7.783C200.64-228.243,178.117-228.243,177.346-227.811Zm23.312,7.727.038,6.072h-.451c-.414,0-.47-.113-.583-1a4.322,4.322,0,0,0-2.444-3.722c-.7-.32-1.335-.357-7.8-.357s-7.106.038-7.8.357a4.322,4.322,0,0,0-2.444,3.722c-.113.884-.169,1-.583,1h-.451v-5.978c0-3.29.056-6.054.132-6.11.056-.075,5.114-.113,11.224-.094l11.111.056Zm-3.948,3.365c.62.432.752.79,1.072,2.839.169,1.015.338,2.068.395,2.35l.113.526H180.542l.113-.526c.056-.282.226-1.335.395-2.35.526-3.365-.075-3.14,8.366-3.14C195.319-217.02,196.353-216.982,196.71-216.719Zm-18.1,5.565a1.657,1.657,0,0,1-.526,1.09,8.2,8.2,0,0,0-.959.827l-.564.526-.338-.414a2.055,2.055,0,0,1-.338-1.128,1.78,1.78,0,0,1,2.012-1.692h.846Zm23.763-.3a1.274,1.274,0,0,1,.583,1.2,2.055,2.055,0,0,1-.338,1.128l-.338.414-.564-.526a8.2,8.2,0,0,0-.959-.827,1.657,1.657,0,0,1-.526-1.09l-.132-.79h.846A1.875,1.875,0,0,1,202.369-211.455Zm-3.008,2.9a3.793,3.793,0,0,1,1.9,2.218,15.515,15.515,0,0,1,.188,2.613v1.936H177.384v-1.936a15.515,15.515,0,0,1,.188-2.613,3.839,3.839,0,0,1,1.861-2.218c.639-.338,1.184-.357,9.945-.376C198.214-208.936,198.684-208.917,199.361-208.56ZM178.7-198.878v1.034h-2.444v-2.068H178.7Zm19.364,0v1.034h-17.3v-2.068h17.3Zm4.512,0v1.034h-2.444v-2.068h2.444Z" transform="translate(-138.127 0)" fill="#a3c854"/>
      <path id="Path_41290" data-name="Path 41290" d="M233.3-117.586a3.082,3.082,0,0,0-.3,1.654c0,1.41.338,2.068,1.034,2.068s1.034-.658,1.034-2.068S234.73-118,234.034-118A1.018,1.018,0,0,0,233.3-117.586Z" transform="translate(-186.035 -89.432)" fill="#129048"/>
      <path id="Path_41291" data-name="Path 41291" d="M251.226-117.714a4.3,4.3,0,0,0-.226,1.842c0,1.748.15,2.068.94,2.068s.94-.32.94-2.068a4.3,4.3,0,0,0-.226-1.842A1.312,1.312,0,0,0,251.226-117.714Z" transform="translate(-200.651 -89.493)" fill="#129048"/>
      <path id="Path_41292" data-name="Path 41292" d="M268.3-117.586a3.082,3.082,0,0,0-.3,1.654c0,1.41.338,2.068,1.034,2.068s1.034-.658,1.034-2.068S269.73-118,269.034-118A1.018,1.018,0,0,0,268.3-117.586Z" transform="translate(-214.455 -89.432)" fill="#129048"/>
      <path id="Path_41293" data-name="Path 41293" d="M205.259-108.774a1.034,1.034,0,0,0,.075,1.354,2.259,2.259,0,0,0,2.106.075,1.156,1.156,0,0,0,.226-.714c0-.7-.338-.94-1.316-.94A2.046,2.046,0,0,0,205.259-108.774Z" transform="translate(-163.332 -96.74)" fill="#129048"/>
      <path id="Path_41294" data-name="Path 41294" d="M293.226-108.774a1.156,1.156,0,0,0-.226.714c0,.7.338.94,1.241.94s1.391-.357,1.391-1.015c0-.62-.357-.865-1.316-.865A2.045,2.045,0,0,0,293.226-108.774Z" transform="translate(-234.755 -96.74)" fill="#129048"/>
      <g id="Mask_Group_18" data-name="Mask Group 18" transform="translate(39.979 -196.138)" clip-path="url(#clip-path)">
        <circle id="Ellipse_110" data-name="Ellipse 110" cx="3" cy="3" r="3" transform="translate(0 -3)" fill="#fff"/>
      </g>
      <g id="Mask_Group_19" data-name="Mask Group 19" transform="translate(56.679 -196.138)" clip-path="url(#clip-path)">
        <circle id="Ellipse_111" data-name="Ellipse 111" cx="3" cy="3" r="3" transform="translate(0 -3)" fill="#fff"/>
      </g>
      <g id="Mask_Group_20" data-name="Mask Group 20" transform="translate(77.179 -196.138)" clip-path="url(#clip-path)">
        <circle id="Ellipse_112" data-name="Ellipse 112" cx="3" cy="3" r="3" transform="translate(0 -3)" fill="#fff"/>
      </g>
    </g>
  </g>
</svg>
