<svg xmlns="http://www.w3.org/2000/svg" width="42.757" height="58.935" viewBox="0 0 42.757 58.935">
  <g id="oil-tank" transform="translate(-70)">
    <g id="Group_460" data-name="Group 460" transform="translate(73.467 21.956)">
      <g id="Group_459" data-name="Group 459" transform="translate(0)">
        <g id="XMLID_91_">
          <path id="Path_508" data-name="Path 508" d="M100,190h35.823v19.645H100Z" transform="translate(-100 -190)" fill="#f6e84e"/>
        </g>
      </g>
    </g>
    <g id="Group_461" data-name="Group 461" transform="translate(70)">
      <path id="Path_509" data-name="Path 509" d="M112.757,353.467A3.471,3.471,0,0,0,109.29,350H73.467a3.466,3.466,0,0,0-1.156,6.735v5.02a3.466,3.466,0,0,0,1.156,6.735H109.29a3.466,3.466,0,0,0,1.156-6.735v-5.02A3.472,3.472,0,0,0,112.757,353.467Zm-39.29-1.156H109.29a1.156,1.156,0,1,1,0,2.311H73.467a1.156,1.156,0,1,1,0-2.311Zm1.156,4.622h33.512v4.622H74.622Zm34.668,9.245H73.467a1.156,1.156,0,0,1,0-2.311H109.29a1.156,1.156,0,0,1,0,2.311Z" transform="translate(-70 -309.554)" fill="#4a9953"/>
      <path id="Path_510" data-name="Path 510" d="M110.446,16.377v-5.02a3.466,3.466,0,0,0-1.156-6.735H88.49V1.156A1.156,1.156,0,0,0,87.334,0H80.4a1.156,1.156,0,0,0-1.156,1.156V4.622H73.467a3.466,3.466,0,0,0-1.156,6.735v5.02a3.466,3.466,0,0,0,1.156,6.735H109.29a3.466,3.466,0,0,0,1.156-6.735Zm-35.823-.2V11.556h33.512v4.622ZM81.556,2.311h4.622V4.622H81.556ZM73.467,6.934H109.29a1.156,1.156,0,0,1,0,2.311H73.467a1.156,1.156,0,0,1,0-2.311ZM109.29,20.8H73.467a1.156,1.156,0,0,1,0-2.311H109.29a1.156,1.156,0,1,1,0,2.311Z" transform="translate(-70)" fill="#4a9953"/>
      <path id="Path_511" data-name="Path 511" d="M221.361,227.657c0-2.471-3.5-6.491-4.2-7.272a1.156,1.156,0,0,0-1.72,0c-.7.781-4.2,4.8-4.2,7.272a5.056,5.056,0,1,0,10.111,0Zm-7.8,0c0-.949,1.429-3.079,2.745-4.713,1.316,1.633,2.745,3.763,2.745,4.713a2.745,2.745,0,1,1-5.489,0Z" transform="translate(-194.927 -194.578)" fill="#4a9953"/>
    </g>
  </g>
</svg>
