<svg xmlns="http://www.w3.org/2000/svg" width="62.618" height="53.291" viewBox="0 0 62.618 53.291">
  <g id="Group_4129" data-name="Group 4129" transform="translate(0.7 0.7)">
    <path id="Path_41302" data-name="Path 41302" d="M40.94,27H8.36s2.5,22.134,3.328,29.494a2.644,2.644,0,0,0,2.628,2.348H34.983a2.645,2.645,0,0,0,2.629-2.348C38.442,49.134,40.94,27,40.94,27Z" transform="translate(-5.576 -6.951)" fill="none" stroke="#178b49" stroke-linecap="round" stroke-linejoin="round" stroke-miterlimit="2" stroke-width="1.4" fill-rule="evenodd"/>
    <path id="Path_41303" data-name="Path 41303" d="M44.147,23.668A2.645,2.645,0,0,0,41.5,21.023H8.645A2.645,2.645,0,0,0,6,23.668v1.758a2.645,2.645,0,0,0,2.645,2.645H41.5a2.645,2.645,0,0,0,2.645-2.645Z" transform="translate(-6 -8.023)" fill="none" stroke="#178b49" stroke-linecap="round" stroke-linejoin="round" stroke-miterlimit="2" stroke-width="1.4" fill-rule="evenodd"/>
    <path id="Path_41304" data-name="Path 41304" d="M37.258,21.741H11.07V19.663a2.645,2.645,0,0,1,2.645-2.645h20.9a2.645,2.645,0,0,1,2.645,2.645Z" transform="translate(-5.091 -8.741)" fill="none" stroke="#178b49" stroke-linecap="round" stroke-linejoin="round" stroke-miterlimit="2" stroke-width="1.4" fill-rule="evenodd"/>
    <path id="Path_41305" data-name="Path 41305" d="M21.989,35.026c.552,3.353,1.236,4.118-.3,8.615a8.3,8.3,0,0,0,.124,5.575l-.124.019c-2.623,0-4.752-3.194-4.752-7.127s2.129-7.127,4.752-7.127Z" transform="translate(-4.038 -5.52)" fill="#fff" stroke="#178b49" stroke-linecap="round" stroke-linejoin="round" stroke-miterlimit="2" stroke-width="1.2" fill-rule="evenodd"/>
    <path id="Path_41306" data-name="Path 41306" d="M23.744,34.981c2.48.2,4.452,3.3,4.452,7.081,0,3.878-2.07,7.037-4.629,7.108a8.3,8.3,0,0,1-.124-5.574c1.537-4.5.853-5.262.3-8.615Z" transform="translate(-2.948 -5.52)" fill="#fff" stroke="#178b49" stroke-linecap="round" stroke-linejoin="round" stroke-miterlimit="2" stroke-width="1.2" fill-rule="evenodd"/>
    <path id="Path_41307" data-name="Path 41307" d="M38.05,55.617l17.666,1.742a5.532,5.532,0,0,0,6.036-4.836c.836-6.977-.775-18.569-20.123-20.476a40.7,40.7,0,0,0-6.129-.171" transform="translate(-0.71 -6.086)" fill="none" stroke="#178b49" stroke-linecap="round" stroke-linejoin="round" stroke-miterlimit="2" stroke-width="1.4" fill-rule="evenodd"/>
    <path id="Path_41308" data-name="Path 41308" d="M47.05,33.708c.775,1.435,2.106,4.8,2.078,10.908" transform="translate(1.362 -5.748)" fill="none" stroke="#178b49" stroke-linecap="round" stroke-linejoin="round" stroke-miterlimit="2" stroke-width="1.4" fill-rule="evenodd"/>
    <path id="Path_41309" data-name="Path 41309" d="M38.662,32.2s2.658,3.148,2.618,11.759" transform="translate(-0.143 -6.018)" fill="none" stroke="#178b49" stroke-linecap="round" stroke-linejoin="round" stroke-miterlimit="2" stroke-width="1.4" fill-rule="evenodd"/>
    <path id="Path_41310" data-name="Path 41310" d="M22,18.277,23.179,10l9.435,1.179" transform="translate(-3.13 -10)" fill="none" stroke="#178b49" stroke-linecap="round" stroke-linejoin="round" stroke-miterlimit="2" stroke-width="1.4" fill-rule="evenodd"/>
  </g>
</svg>
