<svg xmlns="http://www.w3.org/2000/svg" width="42.757" height="57.651" viewBox="0 0 42.757 57.651">
  <g id="petrol" transform="translate(-66.138)">
    <path id="Path_512" data-name="Path 512" d="M106.658,51.088V36.707a1.126,1.126,0,0,0,0-2.252V23.2a1.126,1.126,0,0,0,0-2.252V6.563A3.382,3.382,0,0,0,105.532,0H69.5a3.382,3.382,0,0,0-1.126,6.563V20.944a1.126,1.126,0,0,0,0,2.252v11.26a1.126,1.126,0,0,0,0,2.252V51.088A3.382,3.382,0,0,0,69.5,57.651h36.032A3.382,3.382,0,0,0,106.658,51.088ZM69.5,2.252h36.032a1.126,1.126,0,0,1,0,2.252H69.5A1.126,1.126,0,0,1,69.5,2.252Zm10.626,32.2h-9.5V23.2h9.5a1.126,1.126,0,0,0,0-2.252h-9.5V6.756h33.78V20.944h-9.5a1.126,1.126,0,0,0,0,2.252h9.5v11.26h-9.5a1.126,1.126,0,0,0,0,2.252h9.5V50.9H70.626V36.707h9.5A1.126,1.126,0,0,0,80.126,34.455ZM105.532,55.4H69.5a1.126,1.126,0,0,1,0-2.252h36.032A1.126,1.126,0,0,1,105.532,55.4Z" fill="#4a9953"/>
    <path id="Path_513" data-name="Path 513" d="M167.261,178.972a11.282,11.282,0,0,0,11.26-11.26c-.636-14.939-21.886-14.935-22.52,0A11.282,11.282,0,0,0,167.261,178.972Z" transform="translate(-79.745 -138.887)" fill="#f6e84e" fill-rule="evenodd"/>
    <g id="Group_464" data-name="Group 464" transform="translate(81.936 22.096)">
      <path id="Path_514" data-name="Path 514" d="M212.04,209.72a5.5,5.5,0,0,1-3.934-1.634c-2.878-2.924-1.536-6.644.386-9.149,2.794-3.608,4.275-3.6,7.062,0a9.439,9.439,0,0,1,2.064,5.152A5.685,5.685,0,0,1,212.04,209.72Zm-.021-2.252a3.27,3.27,0,0,0,2.332-.978,3.422,3.422,0,0,0,1.016-2.4c0-2.151-2.418-5.034-3.343-5.577-.925.543-3.343,3.426-3.343,5.577a3.422,3.422,0,0,0,1.016,2.4A3.261,3.261,0,0,0,212.019,207.468Z" transform="translate(-206.443 -196.235)" fill="#4a9953"/>
    </g>
  </g>
</svg>
