<svg id="petroleum" xmlns="http://www.w3.org/2000/svg" width="69.86" height="69.86" viewBox="0 0 69.86 69.86">
  <g id="Group_570" data-name="Group 570">
    <path id="Path_572" data-name="Path 572" d="M199.863,177.32H179.9a1.109,1.109,0,0,1-1.109-1.109v-4.436a1.109,1.109,0,0,1,1.109-1.109h19.96a1.109,1.109,0,0,1,1.109,1.109v4.436A1.109,1.109,0,0,1,199.863,177.32ZM181.012,175.1h17.742v-2.218H181.012Z" transform="translate(-154.398 -147.38)" fill="#4a9953"/>
    <path id="Path_573" data-name="Path 573" d="M224.973,116.74a5.544,5.544,0,1,1,5.544-5.544A5.551,5.551,0,0,1,224.973,116.74Zm0-8.871A3.327,3.327,0,1,0,228.3,111.2,3.331,3.331,0,0,0,224.973,107.869Z" transform="translate(-189.489 -91.235)" fill="#4a9953"/>
    <path id="Path_574" data-name="Path 574" d="M152.927,408.9a1.109,1.109,0,0,1-.437-2.128l24.684-10.579a1.109,1.109,0,0,1,.874,2.038l-24.684,10.579A1.1,1.1,0,0,1,152.927,408.9Z" transform="translate(-131.103 -342.051)" fill="#4a9953"/>
    <path id="Path_575" data-name="Path 575" d="M196.937,408.892a1.093,1.093,0,0,1-.437-.09l-24.684-10.579a1.109,1.109,0,1,1,.874-2.038l24.684,10.579a1.109,1.109,0,0,1-.437,2.128Z" transform="translate(-147.792 -342.048)" fill="#4a9953"/>
    <path id="Path_576" data-name="Path 576" d="M176.983,323.869a1.108,1.108,0,0,1-.477-2.109l18.552-8.839a1.11,1.11,0,0,1,.954,2l-18.552,8.837A1.11,1.11,0,0,1,176.983,323.869Z" transform="translate(-151.877 -270.132)" fill="#4a9953"/>
    <path id="Path_577" data-name="Path 577" d="M211.7,323.869a1.094,1.094,0,0,1-.477-.109l-18.551-8.836a1.11,1.11,0,0,1,.954-2l18.552,8.839a1.108,1.108,0,0,1-.478,2.109Z" transform="translate(-165.836 -270.132)" fill="#4a9953"/>
    <path id="Path_578" data-name="Path 578" d="M197.7,245.17a1.109,1.109,0,0,1-.59-2.049l13.063-8.173a1.109,1.109,0,0,1,1.177,1.88L198.285,245A1.1,1.1,0,0,1,197.7,245.17Z" transform="translate(-169.764 -202.744)" fill="#4a9953"/>
    <path id="Path_579" data-name="Path 579" d="M225.72,245.176a1.1,1.1,0,0,1-.587-.169l-13.063-8.173a1.109,1.109,0,1,1,1.177-1.88l13.063,8.173a1.108,1.108,0,0,1-.59,2.048Z" transform="translate(-182.685 -202.749)" fill="#4a9953"/>
    <path id="Path_580" data-name="Path 580" d="M3.271,33.267a1.107,1.107,0,0,1-1.025-.687,30.28,30.28,0,0,1,0-22.889A29.413,29.413,0,0,1,8.373.336,1.112,1.112,0,0,1,9.169,0h0a1.108,1.108,0,0,1,.8.336l5.246,5.4a1.111,1.111,0,0,1,0,1.547,19.589,19.589,0,0,0-4.084,6.229,20.141,20.141,0,0,0,0,15.251,1.11,1.11,0,0,1-.582,1.439l-6.83,2.975A1.1,1.1,0,0,1,3.271,33.267ZM9.186,2.717A27.187,27.187,0,0,0,4.3,10.532,28.092,28.092,0,0,0,3.888,30.68l4.8-2.091a22.388,22.388,0,0,1,.389-15.925,21.833,21.833,0,0,1,3.812-6.139Z" fill="#4a9953"/>
    <path id="Path_581" data-name="Path 581" d="M132.994,110.359a1.014,1.014,0,0,1-.153-.011l-14.615-2.018a1.109,1.109,0,0,1,.3-2.2l14.615,2.018a1.109,1.109,0,0,1-.15,2.208Z" transform="translate(-101.268 -91.641)" fill="#4a9953"/>
    <path id="Path_582" data-name="Path 582" d="M101.963,53.011a1.107,1.107,0,0,1-1.062-.794L97.574,40.982a1.109,1.109,0,1,1,2.127-.63l3.327,11.235a1.109,1.109,0,0,1-.749,1.378A1.125,1.125,0,0,1,101.963,53.011Z" transform="translate(-84.221 -34.16)" fill="#4a9953"/>
    <path id="Path_583" data-name="Path 583" d="M67.006,135.568a1.109,1.109,0,0,1-.921-1.725L73.726,122.4a1.109,1.109,0,1,1,1.844,1.233l-7.64,11.439A1.11,1.11,0,0,1,67.006,135.568Z" transform="translate(-56.906 -105.277)" fill="#4a9953"/>
    <path id="Path_584" data-name="Path 584" d="M74.646,94.661a1.108,1.108,0,0,1-.577-.162l-7.641-4.655a1.109,1.109,0,1,1,1.156-1.893l7.641,4.655a1.108,1.108,0,0,1-.579,2.055Z" transform="translate(-56.905 -75.81)" fill="#4a9953"/>
    <path id="Path_585" data-name="Path 585" d="M55.414,127.518a1.109,1.109,0,0,1-.383-2.149l9.224-3.392a1.109,1.109,0,0,1,.766,2.081L55.8,127.45A1.13,1.13,0,0,1,55.414,127.518Z" transform="translate(-46.895 -105.275)" fill="#4a9953"/>
    <path id="Path_586" data-name="Path 586" d="M127.163,143.155a1.038,1.038,0,0,1-.154-.011L111.562,141a1.109,1.109,0,1,1,.3-2.2l15.447,2.14a1.109,1.109,0,0,1-.15,2.208Z" transform="translate(-95.513 -119.858)" fill="#4a9953"/>
    <path id="Path_587" data-name="Path 587" d="M300.281,139.094a.981.981,0,0,1-.151-.011l-24.64-3.394a1.109,1.109,0,1,1,.3-2.2l23.379,3.221V134.36l-22.507-3.106a1.109,1.109,0,1,1,.3-2.2l23.464,3.238a1.111,1.111,0,0,1,.958,1.1v4.592a1.106,1.106,0,0,1-1.109,1.108Z" transform="translate(-237.074 -111.438)" fill="#4a9953"/>
    <path id="Path_588" data-name="Path 588" d="M460.655,138.918a1.109,1.109,0,0,1-1.109-1.109V108.978a1.109,1.109,0,1,0-2.218,0v28.831a1.109,1.109,0,0,1-2.218,0V108.978a3.327,3.327,0,0,1,6.653,0v28.831A1.109,1.109,0,0,1,460.655,138.918Z" transform="translate(-393.013 -91.235)" fill="#4a9953"/>
    <path id="Path_589" data-name="Path 589" d="M454.746,345.4h-6.653a1.109,1.109,0,0,1-1.109-1.109v-9.98a1.109,1.109,0,0,1,1.109-1.109h6.653a1.109,1.109,0,0,1,1.109,1.109v9.98A1.109,1.109,0,0,1,454.746,345.4Zm-5.544-2.218h4.436v-7.762H449.2Z" transform="translate(-385.995 -287.741)" fill="#4a9953"/>
    <path id="Path_590" data-name="Path 590" d="M41.744,225.983a1.109,1.109,0,0,1-1.109-1.109v-7.019a1.109,1.109,0,0,1,2.218,0v7.019A1.109,1.109,0,0,1,41.744,225.983Z" transform="translate(-35.091 -187.172)" fill="#4a9953"/>
    <path id="Path_591" data-name="Path 591" d="M20.69,277.061a4.436,4.436,0,1,1,4.436-4.436A4.44,4.44,0,0,1,20.69,277.061Zm0-6.653a2.218,2.218,0,1,0,2.218,2.218A2.22,2.22,0,0,0,20.69,270.408Z" transform="translate(-14.036 -231.597)" fill="#4a9953"/>
    <path id="Path_592" data-name="Path 592" d="M41.744,343.566a1.109,1.109,0,0,1-1.109-1.109v-24.4a1.109,1.109,0,1,1,2.218,0v24.4A1.109,1.109,0,0,1,41.744,343.566Z" transform="translate(-35.091 -273.705)" fill="#4a9953"/>
    <path id="Path_593" data-name="Path 593" d="M472.474,427.783a1.109,1.109,0,0,1-1.109-1.109V415.585a1.109,1.109,0,0,1,2.218,0v11.089A1.109,1.109,0,0,1,472.474,427.783Z" transform="translate(-407.049 -357.922)" fill="#4a9953"/>
    <path id="Path_594" data-name="Path 594" d="M464.342,474.694a1.109,1.109,0,0,1-.5-2.1l2.218-1.109a1.109,1.109,0,1,1,.992,1.984l-2.218,1.109A1.1,1.1,0,0,1,464.342,474.694Z" transform="translate(-400.025 -407.051)" fill="#4a9953"/>
    <path id="Path_595" data-name="Path 595" d="M464.342,450.313a1.109,1.109,0,0,1-.5-2.1l2.218-1.109a1.109,1.109,0,1,1,.992,1.984l-2.218,1.109A1.1,1.1,0,0,1,464.342,450.313Z" transform="translate(-400.025 -385.997)" fill="#4a9953"/>
    <path id="Path_596" data-name="Path 596" d="M464.342,425.924a1.109,1.109,0,0,1-.5-2.1l2.218-1.109a1.109,1.109,0,1,1,.992,1.984l-2.218,1.109A1.1,1.1,0,0,1,464.342,425.924Z" transform="translate(-400.025 -364.935)" fill="#4a9953"/>
    <path id="Path_597" data-name="Path 597" d="M253.046,481.8a1.1,1.1,0,0,1-1.109-1.109,1.141,1.141,0,0,1,.322-.787,1.113,1.113,0,1,1,.787,1.9Z" transform="translate(-217.561 -414.155)" fill="#4a9953"/>
    <path id="Path_598" data-name="Path 598" d="M285.553,481.8a1.1,1.1,0,0,1-1.109-1.109,1.141,1.141,0,0,1,.322-.787,1.113,1.113,0,1,1,.787,1.9Z" transform="translate(-245.633 -414.155)" fill="#4a9953"/>
    <path id="Path_599" data-name="Path 599" d="M220.538,481.8a1.1,1.1,0,0,1-1.109-1.109,1.1,1.1,0,0,1,.333-.787,1.1,1.1,0,0,1,1.885.787,1.1,1.1,0,0,1-1.109,1.109Z" transform="translate(-189.489 -414.155)" fill="#4a9953"/>
    <path id="Path_600" data-name="Path 600" d="M119.323,245.312h-4.436a1.109,1.109,0,0,1-1.076-1.377l9.98-39.92a1.109,1.109,0,0,1,2.152.537l-9.636,38.543h2.149l9.77-39.08a1.109,1.109,0,0,1,2.152.537l-9.98,39.92A1.11,1.11,0,0,1,119.323,245.312Z" transform="translate(-98.254 -175.452)" fill="#4a9953"/>
    <path id="Path_601" data-name="Path 601" d="M299.968,245.308h-4.436a1.109,1.109,0,0,1-1.076-.84l-9.98-39.92a1.109,1.109,0,0,1,2.152-.537l9.769,39.08h2.149l-9.635-38.543a1.109,1.109,0,0,1,2.152-.537l9.98,39.92a1.109,1.109,0,0,1-1.077,1.377Z" transform="translate(-245.632 -175.448)" fill="#4a9953"/>
    <path id="Path_602" data-name="Path 602" d="M253.046,140.465a1.112,1.112,0,1,1,.787-1.9,1.141,1.141,0,0,1,.322.787,1.166,1.166,0,0,1-.322.787A1.145,1.145,0,0,1,253.046,140.465Z" transform="translate(-217.561 -119.396)" fill="#4a9953"/>
  </g>
</svg>
