<svg xmlns="http://www.w3.org/2000/svg" width="47.864" height="60.409" viewBox="0 0 47.864 60.409">
  <g id="petrol-2" transform="translate(-53.336)">
    <g id="Group_568" data-name="Group 568" transform="translate(53.336)">
      <path id="Path_560" data-name="Path 560" d="M140.178,36h-18.46a.882.882,0,1,0,0,1.764h5.109V53.836H115.6V37.764h2.358a.882.882,0,1,0,0-1.764h-2.718a1.406,1.406,0,0,0-1.4,1.4V54.2a1.406,1.406,0,0,0,1.4,1.4h24.937a1.406,1.406,0,0,0,1.4-1.4V37.4A1.406,1.406,0,0,0,140.178,36Zm-.36,17.836H128.591V37.764h11.227Z" transform="translate(-106.722 -31.766)" fill="#4a9953"/>
      <path id="Path_561" data-name="Path 561" d="M149.661,64.866a1.585,1.585,0,0,0-1.583-1.583H142.97a1.585,1.585,0,0,0-1.583,1.583v2.956a1.585,1.585,0,0,0,1.583,1.583h5.108a1.585,1.585,0,0,0,1.583-1.583ZM147.9,67.642h-4.746V65.047H147.9Z" transform="translate(-131.032 -55.841)" fill="#4a9953"/>
      <path id="Path_562" data-name="Path 562" d="M148.78,128.828h-6.51a.882.882,0,1,0,0,1.764h6.51a.882.882,0,1,0,0-1.764Z" transform="translate(-131.033 -113.677)" fill="#4a9953"/>
      <path id="Path_563" data-name="Path 563" d="M148.78,156.7h-6.51a.882.882,0,1,0,0,1.764h6.51a.882.882,0,1,0,0-1.764Z" transform="translate(-131.033 -138.267)" fill="#4a9953"/>
      <path id="Path_564" data-name="Path 564" d="M253.429,69.406h5.108a1.585,1.585,0,0,0,1.583-1.583V64.866a1.585,1.585,0,0,0-1.583-1.583h-5.108a1.585,1.585,0,0,0-1.583,1.583v2.956A1.585,1.585,0,0,0,253.429,69.406Zm.181-4.359h4.746v2.595H253.61Z" transform="translate(-228.5 -55.841)" fill="#4a9953"/>
      <path id="Path_565" data-name="Path 565" d="M252.728,130.592h6.51a.882.882,0,1,0,0-1.764h-6.51a.882.882,0,1,0,0,1.764Z" transform="translate(-228.5 -113.677)" fill="#4a9953"/>
      <path id="Path_566" data-name="Path 566" d="M259.239,156.7h-6.51a.882.882,0,1,0,0,1.764h6.51a.882.882,0,0,0,0-1.764Z" transform="translate(-228.501 -138.267)" fill="#4a9953"/>
      <circle id="Ellipse_43" data-name="Ellipse 43" cx="10.5" cy="10.5" r="10.5" transform="translate(10.1 29.441)" fill="#f8d848"/>
      <path id="Path_567" data-name="Path 567" d="M143.246,239.647A11.8,11.8,0,0,0,133.425,258a.882.882,0,0,0,1.467-.98,10.04,10.04,0,1,1,2.391,2.508.882.882,0,0,0-1.049,1.418,11.8,11.8,0,1,0,7.012-21.3Z" transform="translate(-122.344 -211.463)" fill="none"/>
      <path id="Path_569" data-name="Path 569" d="M100.786,14.141,97.568,9.717a2.169,2.169,0,0,0-1.406-.862V6.535L98.535,3.8a1.418,1.418,0,0,0-.068-1.924L97.182.59A1.414,1.414,0,0,0,95.313.476L92.424,2.731c-.1.074-.186.153-.274.234A4.542,4.542,0,0,0,87.9,0H60.751a4.539,4.539,0,0,0-4.534,4.534V24.528a3.344,3.344,0,0,0,.825,2.2l1.575,1.8a.153.153,0,0,1,.038.1V54.018H55.484a2.151,2.151,0,0,0-2.148,2.148v2.095a2.151,2.151,0,0,0,2.148,2.148H93.163a2.151,2.151,0,0,0,2.149-2.148V56.166a2.151,2.151,0,0,0-2.149-2.148h-3.17V43.808h2.3a6.557,6.557,0,0,0,6.55-6.55V24.395h.2a2.165,2.165,0,0,0,2.162-2.162v-6.82a2.147,2.147,0,0,0-.414-1.272ZM99.36,15.179a.4.4,0,0,1,.076.234v4.716L96.864,17.6a.547.547,0,0,1-.163-.388v-5.69ZM93.51,4.122l2.644-2.064.834.834L94.614,5.628a.882.882,0,0,0-.216.578v2.62h-1.57a2.157,2.157,0,0,0-.4.038V6.334A2.789,2.789,0,0,1,93.51,4.122Zm.038,52.044v2.095a.385.385,0,0,1-.384.384H55.484a.385.385,0,0,1-.384-.384V56.166a.385.385,0,0,1,.384-.384H93.163a.385.385,0,0,1,.384.384ZM60.419,54.018V28.632a1.918,1.918,0,0,0-.473-1.261l-1.575-1.8a1.58,1.58,0,0,1-.39-1.04V4.534a2.773,2.773,0,0,1,2.77-2.77H87.9a2.773,2.773,0,0,1,2.77,2.77V24.528a1.581,1.581,0,0,1-.39,1.04l-1.575,1.8a1.917,1.917,0,0,0-.473,1.261V54.018Zm36.657-16.76a4.791,4.791,0,0,1-4.786,4.786h-2.3V40.279h2.3a3.025,3.025,0,0,0,3.022-3.022V31.184a.882.882,0,1,0-1.764,0v6.073a1.259,1.259,0,0,1-1.258,1.258h-2.3V28.632a.153.153,0,0,1,.038-.1l1.575-1.8a3.345,3.345,0,0,0,.825-2.2v-.171a2.157,2.157,0,0,0,.4.038h.719v3.03a.882.882,0,0,0,1.764,0v-3.03h1.764V37.257Zm1.962-14.627H92.828a.4.4,0,0,1-.4-.4V10.988a.4.4,0,0,1,.4-.4h2.109v6.624a2.321,2.321,0,0,0,.69,1.646l3.7,3.639A.4.4,0,0,1,99.038,22.631Z" transform="translate(-53.336)" fill="#4a9953"/>
      <path id="Path_570" data-name="Path 570" d="M191.968,286.785a.882.882,0,0,0,.882-.882v-1.568a5.316,5.316,0,0,0,4.426-5.234c0-2.01-2.237-5.463-4.115-8a1.483,1.483,0,0,0-2.387,0c-3.4,4.606-4.115,6.9-4.115,8a5.316,5.316,0,0,0,4.426,5.234V285.9A.882.882,0,0,0,191.968,286.785Zm.882-4.251v-1.655l2.528-2.528a2.706,2.706,0,0,1,.135.75A3.55,3.55,0,0,1,192.85,282.534Zm1.774-5.924-1.774,1.774V273.7A30.536,30.536,0,0,1,194.624,276.61Zm-3.538-2.906v4.682l-1.775-1.775A30.541,30.541,0,0,1,191.086,273.7Zm-2.662,5.4a2.7,2.7,0,0,1,.134-.747l2.528,2.528v1.652A3.55,3.55,0,0,1,188.424,279.1Z" transform="translate(-170.98 -238.682)" fill="#4a9953"/>
    </g>
  </g>
</svg>
