<svg xmlns="http://www.w3.org/2000/svg" width="22" height="22" viewBox="0 0 22 22"><defs><style>.a{fill:none;}.b{fill:#fff;}</style></defs><g transform="translate(-0.24 -0.24)"><rect class="a" width="22" height="22" transform="translate(0.24 0.24)"/><g transform="translate(4.215 4.684)"><path class="b" d="M17.2,22.833l5.573-5.62a.89.89,0,0,0,0-1.311L17.2,10.282a.983.983,0,0,0-1.264-.094.89.89,0,0,0-.094,1.4l4.028,4.028H9.937a.937.937,0,0,0,0,1.873h9.928l-4.028,4.028a.89.89,0,0,0,.094,1.4.983.983,0,0,0,1.264-.094Z" transform="translate(-9 -10.001)"/></g></g></svg>