<svg xmlns="http://www.w3.org/2000/svg" width="21.418" height="24.346" viewBox="0 0 21.418 24.346"><defs><style>.a{fill:#129048;}.b{fill:#fff;}.c{fill:none;}</style></defs><g transform="translate(-2286 0)"><path class="a" d="M.6,24.346a.885.885,0,0,1-.6-.964c.021-.719.005-1.44.006-2.16a2.014,2.014,0,0,1,.011-.237.318.318,0,0,1,.329-.309.322.322,0,0,1,.359.3,1.778,1.778,0,0,1,.015.26q0,1.056,0,2.113v.268H2.689v-.258q0-1.4,0-2.8a1.4,1.4,0,0,1,.007-.213.345.345,0,0,1,.373-.321.335.335,0,0,1,.327.343c.011.2,0,.4,0,.593,0,.878,0,1.755,0,2.652H18.018V23.36q0-1.4,0-2.8a1.239,1.239,0,0,1,.009-.237.332.332,0,0,1,.324-.294.32.32,0,0,1,.353.254,1.07,1.07,0,0,1,.025.282c0,1.012,0,2.024,0,3.054h1.937a.753.753,0,0,0,.028-.148c0-.957.017-1.915-.011-2.872a3.942,3.942,0,0,0-2.636-3.577c-.761-.263-1.534-.494-2.305-.724a.329.329,0,0,0-.275.089c-.525.581-1.037,1.174-1.554,1.762a1.675,1.675,0,0,1-1.965.526,4.257,4.257,0,0,0-1.26-.379,3.986,3.986,0,0,0-1.256.395,1.489,1.489,0,0,1-1.45-.087,2.385,2.385,0,0,1-.415-.385q-.8-.9-1.6-1.821a.275.275,0,0,0-.345-.094c-.75.246-1.511.462-2.256.722a3.9,3.9,0,0,0-2.35,2.237c-.025.058-.045.118-.071.176a.362.362,0,0,1-.472.242.36.36,0,0,1-.188-.5,4.743,4.743,0,0,1,1.392-2,5.269,5.269,0,0,1,1.922-1c1.261-.387,2.517-.788,3.779-1.172a2.226,2.226,0,0,1,.578-.069c.221-.006.236-.173.281-.319.05-.162-.037-.216-.185-.252q-1.324-.321-2.644-.659a2.1,2.1,0,0,1-1.676-2.129c0-.4.006-.807-.006-1.21a.97.97,0,0,0-.11-.291,2.509,2.509,0,0,1-.261-.69,14.439,14.439,0,0,1,0-1.755A2.419,2.419,0,0,1,3.6,6.987a1.2,1.2,0,0,0,.136-.375,6.509,6.509,0,0,1,.721-3.157A6.1,6.1,0,0,1,9.043.141a8.692,8.692,0,0,1,3.766.138,6.193,6.193,0,0,1,4.068,3.5.36.36,0,0,1-.145.527c-.2.094-.389.012-.508-.247a5.57,5.57,0,0,0-2.275-2.538A5.387,5.387,0,0,0,11.29.759,9.57,9.57,0,0,0,8.464.98,5.615,5.615,0,0,0,4.539,5.459C4.473,5.967,4.484,6.484,4.446,7c-.013.176.058.249.214.306a6.416,6.416,0,0,0,2.923.312,12.523,12.523,0,0,0,5.225-1.995c.323-.2.63-.423.941-.641s.512-.168.667.186A3.161,3.161,0,0,0,16.68,7q0-.6,0-1.2c0-.063-.01-.126-.008-.189a.331.331,0,0,1,.308-.357.324.324,0,0,1,.382.3c.036.313.051.63.056.946a.307.307,0,0,0,.17.3.934.934,0,0,1,.479.822c.01.6.009,1.2,0,1.8a.939.939,0,0,1-.477.824.316.316,0,0,0-.172.324c.009.332.005.665,0,1a2.1,2.1,0,0,1-1.683,2.171c-.786.21-1.573.415-2.363.61-.175.043-.252.116-.2.29s.08.345.337.3a.887.887,0,0,1,.394.038c1.4.432,2.811.855,4.207,1.312a4.7,4.7,0,0,1,3.3,4.6c.005.831-.013,1.662.007,2.492a.887.887,0,0,1-.6.964ZM5.883,8.33a4.837,4.837,0,0,0,5.242,5.421.291.291,0,0,0-.046-.053,1.008,1.008,0,0,1-.444-1.135,1.028,1.028,0,0,1,.91-.788c.35-.061.7-.118,1.051-.178a.915.915,0,0,1,.91.278.5.5,0,0,0,.592.167.658.658,0,0,1,.163-.032.464.464,0,0,0,.4-.244,4.005,4.005,0,0,0,.785-1.809c.092-.79.079-1.591.12-2.387a.3.3,0,0,0-.184-.315,3.549,3.549,0,0,1-1.3-1.19c-.063-.1-.122-.2-.185-.3-2.447,1.612-5,2.825-8.019,2.561m3.086,5.91A1.487,1.487,0,0,1,8.619,15.4l2.091,1.98L12.8,15.4a1.506,1.506,0,0,1-.356-1.159,5.683,5.683,0,0,1-3.477,0M6.576,16.011c.583.659,1.13,1.3,1.709,1.914a.678.678,0,0,0,.53.18A10.8,10.8,0,0,0,10,17.747c-.017-.045-.019-.063-.029-.073-.687-.653-1.372-1.307-2.065-1.953a.28.28,0,0,0-.228-.051c-.356.1-.708.217-1.105.342m.841-2.518c-.016-.045-.016-.064-.026-.071a5.667,5.667,0,0,1-2.024-2.884.179.179,0,0,0-.124-.107c-.257-.01-.515,0-.759,0,0,.522-.037,1.013.01,1.5a1.143,1.143,0,0,0,.8,1c.688.224,1.4.378,2.119.567M11.4,17.737c.346.111.664.224.988.315a.79.79,0,0,0,.83-.216c.546-.59,1.074-1.2,1.633-1.823-.373-.116-.712-.213-1.044-.329a.3.3,0,0,0-.354.083c-.632.609-1.271,1.209-1.907,1.813-.044.042-.083.09-.145.159M16.272,7.669V9.708c.255,0,.514.009.772,0a.287.287,0,0,0,.307-.273c.011-.571,0-1.142,0-1.736-.367.218-.7-.006-1.083-.027M4.061,7.844c0,.531,0,1.035,0,1.54a.277.277,0,0,0,.266.307c.279.017.559,0,.813,0,0-.469.005-.918-.006-1.366A.243.243,0,0,0,5,8.154c-.3-.111-.61-.2-.941-.31M16.686,11.5a1.972,1.972,0,0,1-1.6,1.089.511.511,0,0,0-.237.088c-.263.237-.514.486-.822.78.671-.189,1.3-.324,1.889-.543a1.294,1.294,0,0,0,.772-1.414m-4.98,1.647c.368-.066.781-.129,1.187-.218a.292.292,0,0,0,.229-.361.3.3,0,0,0-.354-.275q-.607.085-1.207.211a.3.3,0,0,0-.237.377c.031.183.159.26.381.265m4.405-2.72L15.6,11.677a1.258,1.258,0,0,0,.513-1.247" transform="translate(2286 -0.001)"/><path class="a" d="M73.983,336c-.411,0-.823,0-1.234,0a.638.638,0,0,1-.71-.7q-.007-.522,0-1.044a.637.637,0,0,1,.692-.694q1.269,0,2.539,0a.644.644,0,0,1,.7.688q.013.533,0,1.068a.634.634,0,0,1-.685.68c-.435.006-.87,0-1.3,0m-1.212-.73h2.477v-.985H72.771Z" transform="translate(2218.247 -313.727)"/><path class="b" d="M98.4,99.563c3.019.264,5.571-.949,8.019-2.561.062.1.122.2.185.3a3.549,3.549,0,0,0,1.3,1.19.3.3,0,0,1,.184.315c-.041.8-.029,1.6-.12,2.387a4.006,4.006,0,0,1-.785,1.809.464.464,0,0,1-.4.244.656.656,0,0,0-.163.032.5.5,0,0,1-.592-.167.915.915,0,0,0-.91-.278c-.35.06-.7.117-1.051.178a1.028,1.028,0,0,0-.91.788,1.008,1.008,0,0,0,.444,1.136.288.288,0,0,1,.046.053A4.837,4.837,0,0,1,98.4,99.563" transform="translate(2193.488 -91.234)"/><rect class="c" width="21.418" height="24.346" transform="translate(2286)"/></g></svg>