<svg xmlns="http://www.w3.org/2000/svg" width="76" height="76" viewBox="0 0 76 76">
  <g id="Group_3755" data-name="Group 3755" transform="translate(-1336 -703)">
    <rect id="Rectangle_198" data-name="Rectangle 198" width="76" height="76" transform="translate(1336 703)" fill="none"/>
    <g id="callback" transform="translate(1339.344 704.831)">
      <path id="Path_636" data-name="Path 636" d="M129.862,146.263a4.618,4.618,0,0,0-6.3-1.609c-1.247.687-1.962,1.085-2.379,1.318a13.518,13.518,0,0,1-8.477-7.162,12.683,12.683,0,0,1-.864-9.029l2.269-1.451A4.637,4.637,0,0,0,115.715,122l-5.3-8.964a4.619,4.619,0,0,0-6.329-1.627l-1.956,1.129c-4.84,2.832-7.791,8.149-8.313,14.974a38.324,38.324,0,0,0,20.588,35.179,21.8,21.8,0,0,0,9.166,2.19,15.591,15.591,0,0,0,7.961-2.1l2.006-1.22a4.631,4.631,0,0,0,1.627-6.338ZM105.577,113.93a1.734,1.734,0,0,1,2.329.59l5.3,8.964a1.708,1.708,0,0,1-.6,2.336l-.043.027-1.422.91-6.958-12.019Zm10.068,46.106a35.42,35.42,0,0,1-18.9-32.3,16.312,16.312,0,0,1,5.016-11.335l7.278,12.57a15.686,15.686,0,0,0,1.024,11.079,16.269,16.269,0,0,0,10.4,8.74L127.7,161.31a16.458,16.458,0,0,1-12.061-1.27ZM132.831,158a1.7,1.7,0,0,1-.784,1.044l-.014.008-1.665,1.009-6.944-11.994L125,147.2l.038-.022a1.669,1.669,0,0,1,2.317.568l5.3,8.964a1.7,1.7,0,0,1,.184,1.3Z" transform="translate(-82.379 -95.759)" fill="#a3c854"/>
      <path id="Path_637" data-name="Path 637" d="M272.35,67.833H263.4a1.463,1.463,0,0,0,0,2.924h8.948a13.465,13.465,0,1,1,0,26.93h-9.993a1.463,1.463,0,0,0,0,2.924h9.993a16.389,16.389,0,1,0,0-32.779Z" transform="translate(-225.179 -59.079)" fill="#4a9953"/>
      <path id="Path_638" data-name="Path 638" d="M65.972,43.6a1.463,1.463,0,0,0,.4-2.034l-2.188-3.254H78.61a1.463,1.463,0,0,0,0-2.924H64.181l2.188-3.254a1.463,1.463,0,1,0-2.428-1.627l-3.719,5.523a1.491,1.491,0,0,0,0,1.627L63.938,43.2a1.461,1.461,0,0,0,2.034.4Z" transform="translate(-53.533 -26.638)" fill="#4a9953"/>
      <circle id="Ellipse_44" data-name="Ellipse 44" cx="1.46" cy="1.46" r="1.46" transform="translate(30.173 8.757)" fill="#4a9953"/>
    </g>
  </g>
</svg>
