<svg xmlns="http://www.w3.org/2000/svg" width="21.347" height="27.498" viewBox="0 0 21.347 27.498">
  <g id="callback" transform="translate(0 0)">
    <circle id="Ellipse_44" data-name="Ellipse 44" cx="0.742" cy="0.742" r="0.742" transform="translate(3.609 9.113)" fill="#4a9953"/>
    <path id="Path_675" data-name="Path 675" d="M3.545,1.693,5.144.551,9.126,6.928l-2.06,1.4Z" transform="translate(1.548 0.241)" fill="#129048"/>
    <path id="Path_676" data-name="Path 676" d="M3.307,1.347,5.243.486,8.75,6.515,7,7.888Z" transform="translate(11.501 17.453)" fill="#129048"/>
    <path id="Path_636" data-name="Path 636" d="M112.124,128.8a2.346,2.346,0,0,0-3.2-.818c-.634.349-1,.551-1.209.67a6.869,6.869,0,0,1-4.308-3.639,6.444,6.444,0,0,1-.439-4.588l1.153-.737a2.356,2.356,0,0,0,.816-3.216l-2.692-4.555a2.347,2.347,0,0,0-3.216-.827l-.994.574c-2.459,1.439-3.959,4.141-4.224,7.609a19.473,19.473,0,0,0,10.461,17.875,11.077,11.077,0,0,0,4.658,1.113,7.922,7.922,0,0,0,4.045-1.068l1.02-.62a2.353,2.353,0,0,0,.827-3.221Zm-12.34-16.429a.881.881,0,0,1,1.184.3l2.692,4.555a.868.868,0,0,1-.305,1.187l-.022.014-.723.462-3.535-6.107ZM104.9,135.8a18,18,0,0,1-9.605-16.411,8.289,8.289,0,0,1,2.549-5.76l3.7,6.387a7.97,7.97,0,0,0,.52,5.63,8.267,8.267,0,0,0,5.284,4.441l3.682,6.36a8.363,8.363,0,0,1-6.128-.645Zm8.733-1.033a.861.861,0,0,1-.4.53l-.007,0-.846.513-3.528-6.095.8-.441.019-.011a.848.848,0,0,1,1.177.289l2.691,4.555a.861.861,0,0,1,.094.659Z" transform="translate(-93.8 -110.766)" fill="#a3c854"/>
  </g>
</svg>
