<svg xmlns="http://www.w3.org/2000/svg" width="12.421" height="12.421" viewBox="0 0 12.421 12.421"><defs><style>.a{fill:#fff;}</style></defs><path class="a" d="M6.123-511.844a6.31,6.31,0,0,0-3.279,1.307A7.164,7.164,0,0,0,1.4-508.929a8.474,8.474,0,0,0-.559,1.144,7.548,7.548,0,0,0-.311,1.212,7.57,7.57,0,0,0,0,1.846,6.129,6.129,0,0,0,.576,1.81,5.765,5.765,0,0,0,1.188,1.654,5.765,5.765,0,0,0,1.654,1.188,6.129,6.129,0,0,0,1.81.576,7.563,7.563,0,0,0,1.846,0,7.538,7.538,0,0,0,1.212-.311,8.469,8.469,0,0,0,1.144-.559,6.72,6.72,0,0,0,2-2,8.474,8.474,0,0,0,.559-1.144,6.576,6.576,0,0,0,.369-1.844c.019-.374,0-.464-.119-.6a.459.459,0,0,0-.792.211,1.584,1.584,0,0,0-.027.3,5.346,5.346,0,0,1-.158,1.1,5.3,5.3,0,0,1-3.811,3.811,5.407,5.407,0,0,1-2.613,0,5.291,5.291,0,0,1-3.92-4.425,6.457,6.457,0,0,1,0-1.37,5.294,5.294,0,0,1,3.92-4.425,5.284,5.284,0,0,1,1.112-.16c.347,0,.525-.083.615-.277a.454.454,0,0,0-.233-.624A1.869,1.869,0,0,0,6.123-511.844Z" transform="translate(-0.475 511.865)"/><path class="a" d="M130.731-447.573a.632.632,0,0,0-.134.051c-.034.017-1.333,1.3-2.89,2.856l-2.83,2.822-.7-.765c-1.3-1.421-1.372-1.491-1.489-1.542a.447.447,0,0,0-.585.2.506.506,0,0,0,0,.427c.041.08.741.85,2.062,2.273.442.476.534.549.709.549.2,0,.165.036,3.332-3.126,3.274-3.269,3.126-3.109,3.1-3.347A.48.48,0,0,0,130.731-447.573Z" transform="translate(-119.096 449.146)"/></svg>