<svg xmlns="http://www.w3.org/2000/svg" width="65.681" height="47.354" viewBox="0 0 65.681 47.354">
  <g id="deal" transform="translate(0 -71.434)">
    <path id="Path_42053" data-name="Path 42053" d="M15.521,81.647l4.556,2.905L11.755,99.439l-4.8-2.719Z" fill="#ffe600"/>
    <path id="Path_42052" data-name="Path 42052" d="M45.264,84.914l5.467-3.267,7.868,14-4.686,3.209Z" fill="#ffe600"/>
    <circle id="Ellipse_45" data-name="Ellipse 45" cx="1.261" cy="1.261" r="1.261" transform="translate(16.557 98.608)" fill="#ffe600" opacity="0"/>
    <circle id="Ellipse_46" data-name="Ellipse 46" cx="1.261" cy="1.261" r="1.261" transform="translate(19.08 104.494)" fill="#ffe600" opacity="0"/>
    <circle id="Ellipse_48" data-name="Ellipse 48" cx="1.261" cy="1.261" r="1.261" transform="translate(23.284 108.698)" fill="#ffe600" opacity="0"/>
    <circle id="Ellipse_49" data-name="Ellipse 49" cx="1.261" cy="1.261" r="1.261" transform="translate(29.17 112.062)" fill="#ffe600" opacity="0"/>
    <path id="Path_44185" data-name="Path 44185" d="M12.025,101.546l1.1-2.892,4.155-1.715,2.844,1.119v2.092l.461,1.4,1.9,2.313.59,3.1,3.5.3.893,2.569v1.879l2.251-1.06,2.529.657.82,2.846-.82,1.8L29.113,117.5l-2.967-1.547.43-3.526-2.525,1.724-2.557-.648-1.367-2.854v-.819H17.283l-1.866-2.569v-2.247l-3.392-1.644Z" fill="#fff" opacity="0"/>
    <path id="Path_639" data-name="Path 639" d="M.574,95.221l5.085,2.935a1.251,1.251,0,0,0,1.514-.2l3.8,2.193a4.057,4.057,0,0,0,3.523,5.265,4.062,4.062,0,0,0,4.687,5.032,4.058,4.058,0,0,0,6.068,3.9,4.059,4.059,0,0,0,6.08,3.289,13.648,13.648,0,0,0,1.186-.71l2.27,1.308a4.183,4.183,0,0,0,3.2.4,3.993,3.993,0,0,0,2.943-4.008,4.113,4.113,0,0,0,5.556-1.567,4.016,4.016,0,0,0,.494-2.155,3.993,3.993,0,0,0,2.562.084,4.056,4.056,0,0,0,2.607-5.334,4.05,4.05,0,0,0,2.743-1.953q.014-.025.027-.05a4.5,4.5,0,0,0,.309-2.911l-.055-.215-.2-.526,3.545-2.047a1.251,1.251,0,0,0,1.514.2l5.084-2.935a1.152,1.152,0,0,0,.575-1V72.583a1.15,1.15,0,0,0-1.724-1L49.5,79.937a1.252,1.252,0,0,0-.583,1.412l-3.832,2.213a1.249,1.249,0,0,0-.589.8,4.208,4.208,0,0,1-4.169-.016l-4.246-2.45a6.216,6.216,0,0,0-6.2,0l-5.816,3.358a6.547,6.547,0,0,1-2.884-.894,1.249,1.249,0,0,0-.589-.8l-3.832-2.212a1.252,1.252,0,0,0-.583-1.412L11.8,77.4a.962.962,0,0,0-.962,1.667l3.8,2.2L6.036,96.15,1.924,93.778V73.928l4.937,2.85a.962.962,0,0,0,.959-1.665l-6.1-3.522A1.15,1.15,0,0,0,0,72.583V94.226a1.152,1.152,0,0,0,.574.995Zm12.419,7.212a2.137,2.137,0,0,1,.781-2.915l2.753-1.589a2.136,2.136,0,1,1,2.134,3.7l-2.753,1.589a2.137,2.137,0,0,1-2.915-.781Zm4.871,6.08a2.134,2.134,0,0,1-.515-3.909l1.638-.945a2.135,2.135,0,1,1,2.132,3.7l-1.635.944a2.12,2.12,0,0,1-1.619.214Zm3.508,3.383a2.137,2.137,0,0,1,.781-2.915l1.476-.852a2.136,2.136,0,1,1,2.134,3.7l-1.476.852a2.137,2.137,0,0,1-2.916-.78Zm9.833,3.587-.841.483a2.136,2.136,0,0,1-2.134-3.7l.841-.483a2.136,2.136,0,1,1,2.134,3.7ZM49.846,83.036l4.248,7.357a.962.962,0,1,0,1.667-.962l-4.714-8.165,12.709-7.339v19.85l-4.114,2.375L58.049,93.4a.963.963,0,0,0-1.667.964l1.126,1.951-3.214,1.855L46.632,84.891ZM22.182,86.861a4.058,4.058,0,0,0,5.442,5.709l6-3.461a.252.252,0,0,1,.252,0l3,1.734a.963.963,0,1,0,.964-1.667l-3-1.734a2.186,2.186,0,0,0-2.177,0l-6,3.461a2.136,2.136,0,0,1-2.134-3.7l6.322-3.65a4.288,4.288,0,0,1,4.275,0L39.361,86a6.138,6.138,0,0,0,5.792.177L51.4,97.009,41.843,91.49a.962.962,0,0,0-.962,1.667l11.389,6.575a2.4,2.4,0,0,1,.933,3.035,2.137,2.137,0,0,1-2.9.757c-.147-.1,1.15.664-6.867-3.965a.962.962,0,1,0-.962,1.667l6.961,4.019a2.186,2.186,0,0,1,.834,2.8,2.1,2.1,0,0,1-2.968.891l-2.345-1.354h0l-4.615-2.665a.962.962,0,0,0-.962,1.667l4.615,2.665a2.144,2.144,0,0,1,.8,2.879,2.191,2.191,0,0,1-3,.783l-4.555-2.629a.962.962,0,0,0-.962,1.667l1.658.958a2.144,2.144,0,0,1,.8,2.879,2.191,2.191,0,0,1-3,.782l-1.968-1.136a4.057,4.057,0,0,0-5.024-5.608,4.066,4.066,0,0,0-4.672-3.863,4.05,4.05,0,0,0-2.875-4.343,4.057,4.057,0,0,0-5.643-5.358l-1.293.747,6.246-10.82a8.5,8.5,0,0,0,1.659.673Zm-10.8,11.3L8.171,96.31l7.664-13.274,3.214,1.855Z" fill="#fff"/>
  </g>
</svg>
