<svg xmlns="http://www.w3.org/2000/svg" width="64.943" height="64.688" viewBox="0 0 64.943 64.688">
  <g id="Group_4055" data-name="Group 4055" transform="translate(-24.521 -25.015)">
    <g id="Group_4096" data-name="Group 4096" transform="translate(25.695 26.188)">
      <g id="Group_4057" data-name="Group 4057" transform="translate(18.875)">
        <path id="Path_41179" data-name="Path 41179" d="M116.6,29.749A12.393,12.393,0,0,0,102,42a12.376,12.376,0,0,0,1.375,5.667h4.32A12.421,12.421,0,0,1,116.6,29.749Z" transform="translate(-101.995 -29.549)" fill="#129048"/>
      </g>
      <g id="Group_4058" data-name="Group 4058" transform="translate(6.163 23.462)">
        <rect id="Rectangle_259" data-name="Rectangle 259" width="50.325" height="34.706" fill="#f4f4f4"/>
      </g>
      <g id="Group_4060" data-name="Group 4060" transform="translate(3.435 18.115)">
        <path id="Path_41181" data-name="Path 41181" d="M46.046,102.225a2.673,2.673,0,0,1,2.673-2.673H45a2.673,2.673,0,0,0-2.673,2.673,2.721,2.721,0,0,0,2.728,2.674h3.717A2.721,2.721,0,0,1,46.046,102.225Z" transform="translate(-42.329 -99.552)" fill="#129048"/>
      </g>
      <g id="Group_4061" data-name="Group 4061" transform="translate(25.491 3.819)">
        <path id="Path_41182" data-name="Path 41182" d="M136.555,53.3c-2.571,2.571-6.13,3.182-7.948,1.365s-1.207-5.376,1.365-7.948,6.129-3.182,7.947-1.364S139.128,50.729,136.555,53.3Z" transform="translate(-127.562 -44.307)" fill="#129048"/>
      </g>
      <g id="Group_4062" data-name="Group 4062" transform="translate(25.491 3.819)">
        <path id="Path_41183" data-name="Path 41183" d="M131.293,47.94c2.217-2.217,5.166-2.972,7.1-1.973a3.3,3.3,0,0,0-.476-.614c-1.818-1.818-5.375-1.206-7.947,1.364s-3.182,6.13-1.365,7.948a3.387,3.387,0,0,0,.845.609C128.263,53.348,128.984,50.249,131.293,47.94Z" transform="translate(-127.561 -44.307)" fill="#129048"/>
      </g>
      <g id="Group_4064" data-name="Group 4064" transform="translate(26.179 4.57)">
        <g id="Group_4063" data-name="Group 4063">
          <path id="Path_41184" data-name="Path 41184" d="M131.318,57.141a1.106,1.106,0,0,1-.033-2.211l.141,0c1.8-.054,2.617-.078,2.949-3.062.445-4.016,3.4-4.791,4.9-4.633a1.106,1.106,0,0,1-.212,2.2c-.367-.029-2.2-.029-2.5,2.676-.543,4.893-3.159,4.971-5.069,5.029l-.139,0Z" transform="translate(-130.219 -47.21)" fill="#bc715c"/>
        </g>
      </g>
      <g id="Group_4065" data-name="Group 4065" transform="translate(10.463 34.808)">
        <rect id="Rectangle_260" data-name="Rectangle 260" width="13.506" height="23.36" transform="translate(0 0)" fill="#129048"/>
      </g>
      <g id="Group_4068" data-name="Group 4068" transform="translate(6.163 23.462)">
        <rect id="Rectangle_263" data-name="Rectangle 263" width="2.319" height="34.706" fill="#f9f9f9"/>
      </g>
      <g id="Group_4069" data-name="Group 4069" transform="translate(20.245 45.159)">
        <path id="Path_41185" data-name="Path 41185" d="M108.673,206.02a.692.692,0,0,1-.692.692h0a.692.692,0,0,1-.692-.692v-1.272a.692.692,0,0,1,.692-.692h0a.692.692,0,0,1,.692.692Z" transform="translate(-107.289 -204.056)" fill="#f4f4f4"/>
      </g>
      <g id="Group_4071" data-name="Group 4071" transform="translate(35.984 40.25)">
        <g id="Group_4070" data-name="Group 4070" transform="translate(0 0)">
          <path id="Path_41186" data-name="Path 41186" d="M169.28,188.538a1.174,1.174,0,0,1-.827-2.007l1.112-1.1a1.174,1.174,0,1,1,1.654,1.666l-1.112,1.1A1.169,1.169,0,0,1,169.28,188.538Z" transform="translate(-168.107 -185.087)" fill="#f4f4f4"/>
        </g>
      </g>
      <g id="Group_4073" data-name="Group 4073" transform="translate(37.391 41.199)">
        <g id="Group_4072" data-name="Group 4072" transform="translate(0)">
          <path id="Path_41187" data-name="Path 41187" d="M174.718,194.431a1.173,1.173,0,0,1-.857-1.975l3.115-3.332a1.174,1.174,0,0,1,1.715,1.6l-3.115,3.332A1.173,1.173,0,0,1,174.718,194.431Z" transform="translate(-173.545 -188.752)" fill="#f4f4f4"/>
        </g>
      </g>
      <g id="Group_4083" data-name="Group 4083" transform="translate(0 58.168)">
        <rect id="Rectangle_264" data-name="Rectangle 264" width="2.744" height="4.173" fill="#ffe2a9"/>
      </g>
      <g id="Group_4084" data-name="Group 4084" transform="translate(10.463 34.808)">
        <rect id="Rectangle_265" data-name="Rectangle 265" width="1.997" height="23.36" transform="translate(0 0)" fill="#129048"/>
      </g>
    </g>
    <g id="Group_4118" data-name="Group 4118" transform="translate(24.521 25.015)">
      <g id="Group_4097" data-name="Group 4097" transform="translate(6.163 23.462)">
        <path id="Path_41206" data-name="Path 41206" d="M99.835,152.731H49.511a1.174,1.174,0,0,1-1.174-1.174V116.852a1.174,1.174,0,0,1,1.174-1.174H99.835a1.174,1.174,0,0,1,1.174,1.174v11.76a1.174,1.174,0,1,1-2.347,0V118.025H50.684v32.358H98.661V134.026a1.174,1.174,0,1,1,2.347,0v17.532A1.173,1.173,0,0,1,99.835,152.731Z" transform="translate(-48.337 -115.678)" fill="#a3c854"/>
      </g>
      <g id="Group_4098" data-name="Group 4098" transform="translate(0 58.168)">
        <path id="Path_41207" data-name="Path 41207" d="M88.291,256.311H34.565a1.174,1.174,0,1,1,0-2.347H87.117v-1.825H26.868v1.825H29.15a1.174,1.174,0,1,1,0,2.347H25.695a1.174,1.174,0,0,1-1.174-1.174v-4.173a1.174,1.174,0,0,1,1.174-1.174h62.6a1.174,1.174,0,0,1,1.174,1.174v4.173A1.173,1.173,0,0,1,88.291,256.311Z" transform="translate(-24.521 -249.791)" fill="#a3c854"/>
      </g>
      <g id="Group_4099" data-name="Group 4099" transform="translate(3.435 18.115)">
        <path id="Path_41208" data-name="Path 41208" d="M92.021,102.711H41.7a3.847,3.847,0,1,1-.055-7.694h50.38a3.847,3.847,0,1,1,0,7.694ZM41.64,97.364a1.5,1.5,0,0,0-1.5,1.5,1.548,1.548,0,0,0,1.555,1.5H92.021a1.5,1.5,0,1,0,0-3Z" transform="translate(-37.794 -95.017)" fill="#a3c854"/>
      </g>
      <g id="Group_4100" data-name="Group 4100" transform="translate(25.477 3.803)">
        <path id="Path_41209" data-name="Path 41209" d="M127.965,53.494a4.966,4.966,0,0,1-3.591-1.4c-2.31-2.312-1.711-6.532,1.365-9.608s7.3-3.675,9.606-1.364a5.218,5.218,0,0,1,1.291,4.719,9.287,9.287,0,0,1-2.655,4.888A8.783,8.783,0,0,1,127.965,53.494Zm3.808-11.419a6.57,6.57,0,0,0-4.373,2.067c-2.073,2.074-2.7,4.954-1.365,6.289s4.215.709,6.288-1.365h0a6.93,6.93,0,0,0,2-3.625,2.951,2.951,0,0,0-.637-2.663A2.634,2.634,0,0,0,131.773,42.074Z" transform="translate(-122.97 -39.712)" fill="#a3c854"/>
      </g>
      <g id="Group_4101" data-name="Group 4101" transform="translate(27.037 5.657)">
        <path id="Path_41210" data-name="Path 41210" d="M130.174,57.053a1.174,1.174,0,0,1-.035-2.347l.344-.009c1.85-.045,2.615-.063,2.953-3.1a5.294,5.294,0,0,1,1.925-3.832,4.646,4.646,0,0,1,3.376-.848,1.174,1.174,0,0,1-.377,2.317,2.351,2.351,0,0,0-1.6.417,3.105,3.105,0,0,0-.989,2.205c-.565,5.07-3.261,5.136-5.23,5.183l-.328.009Z" transform="translate(-129.001 -46.876)" fill="#a3c854"/>
      </g>
      <g id="Group_4102" data-name="Group 4102" transform="translate(18.85 0)">
        <path id="Path_41211" data-name="Path 41211" d="M122.056,45.478H99.909a1.173,1.173,0,0,1-1.044-.638,13.468,13.468,0,0,1-1.5-6.2,13.622,13.622,0,0,1,27.244,0,13.462,13.462,0,0,1-1.5,6.2A1.174,1.174,0,0,1,122.056,45.478ZM100.65,43.13h20.666a11.11,11.11,0,0,0,.941-4.494,11.274,11.274,0,0,0-22.549,0A11.106,11.106,0,0,0,100.65,43.13Z" transform="translate(-97.361 -25.015)" fill="#a3c854"/>
      </g>
      <g id="Group_4103" data-name="Group 4103" transform="translate(10.463 34.807)">
        <path id="Path_41212" data-name="Path 41212" d="M79.633,185.228H66.127a1.174,1.174,0,0,1-1.174-1.174v-23.36a1.174,1.174,0,0,1,1.174-1.174H79.633a1.174,1.174,0,0,1,1.174,1.174v23.36A1.174,1.174,0,0,1,79.633,185.228ZM67.3,182.88H78.459V161.867H67.3V182.88Z" transform="translate(-64.953 -159.52)" fill="#a3c854"/>
      </g>
      <g id="Group_4104" data-name="Group 4104" transform="translate(23.969 34.807)">
        <path id="Path_41213" data-name="Path 41213" d="M147.194,179.472H118.318a1.174,1.174,0,0,1-1.174-1.174V160.694a1.174,1.174,0,0,1,1.174-1.174h28.877a1.174,1.174,0,0,1,1.174,1.174V178.3A1.174,1.174,0,0,1,147.194,179.472Zm-27.7-2.347h26.529V161.867H119.491Z" transform="translate(-117.144 -159.52)" fill="#a3c854"/>
      </g>
      <g id="Group_4105" data-name="Group 4105" transform="translate(27.013 37.929)">
        <path id="Path_41214" data-name="Path 41214" d="M152.87,185.292H130.082a1.174,1.174,0,0,1-1.174-1.174V172.756a1.174,1.174,0,0,1,1.174-1.174H152.87a1.174,1.174,0,0,1,1.174,1.174v11.363A1.174,1.174,0,0,1,152.87,185.292Zm-21.614-2.347H151.7v-9.016H131.255Z" transform="translate(-128.908 -171.582)" fill="#a3c854"/>
      </g>
      <g id="Group_4106" data-name="Group 4106" transform="translate(21.419 46.332)">
        <path id="Path_41215" data-name="Path 41215" d="M108.673,206.02a.692.692,0,0,1-.692.692h0a.692.692,0,0,1-.692-.692v-1.272a.692.692,0,0,1,.692-.692h0a.692.692,0,0,1,.692.692Z" transform="translate(-107.289 -204.056)" fill="#a3c854"/>
      </g>
      <g id="Group_4107" data-name="Group 4107" transform="translate(37.157 41.424)">
        <path id="Path_41216" data-name="Path 41216" d="M169.28,188.538a1.174,1.174,0,0,1-.827-2.007l1.112-1.1a1.174,1.174,0,1,1,1.654,1.666l-1.112,1.1A1.169,1.169,0,0,1,169.28,188.538Z" transform="translate(-168.107 -185.087)" fill="#129048"/>
      </g>
      <g id="Group_4108" data-name="Group 4108" transform="translate(38.565 42.372)">
        <path id="Path_41217" data-name="Path 41217" d="M174.718,194.431a1.174,1.174,0,0,1-.857-1.975l3.115-3.332a1.174,1.174,0,1,1,1.714,1.6l-3.115,3.332A1.17,1.17,0,0,1,174.718,194.431Z" transform="translate(-173.545 -188.753)" fill="#129048"/>
      </g>
      <g id="Group_4109" data-name="Group 4109" transform="translate(6.163 23.462)">
        <path id="Path_41218" data-name="Path 41218" d="M52.3,125.442a3.973,3.973,0,0,1-3.968-3.968v-4.624a1.174,1.174,0,0,1,1.174-1.174H55.1a1.174,1.174,0,0,1,1.174,1.174v4.624A3.973,3.973,0,0,1,52.3,125.442Zm-1.621-7.418v3.45a1.621,1.621,0,0,0,3.242,0v-3.45Z" transform="translate(-48.337 -115.677)" fill="#a3c854"/>
      </g>
      <g id="Group_4110" data-name="Group 4110" transform="translate(11.752 23.462)">
        <path id="Path_41219" data-name="Path 41219" d="M73.9,125.442a3.973,3.973,0,0,1-3.968-3.968v-4.624a1.174,1.174,0,0,1,1.174-1.174H76.7a1.174,1.174,0,0,1,1.174,1.174v4.624A3.973,3.973,0,0,1,73.9,125.442Zm-1.621-7.418v3.45a1.621,1.621,0,0,0,3.242,0v-3.45Z" transform="translate(-69.935 -115.677)" fill="#a3c854"/>
      </g>
      <g id="Group_4111" data-name="Group 4111" transform="translate(17.342 23.462)">
        <path id="Path_41220" data-name="Path 41220" d="M95.5,125.442a3.973,3.973,0,0,1-3.969-3.968v-4.624a1.174,1.174,0,0,1,1.174-1.174H98.3a1.174,1.174,0,0,1,1.174,1.174v4.624A3.973,3.973,0,0,1,95.5,125.442Zm-1.622-7.418v3.45a1.621,1.621,0,0,0,3.242,0v-3.45Z" transform="translate(-91.535 -115.677)" fill="#a3c854"/>
      </g>
      <g id="Group_4112" data-name="Group 4112" transform="translate(22.931 23.462)">
        <path id="Path_41221" data-name="Path 41221" d="M117.1,125.442a3.973,3.973,0,0,1-3.968-3.968v-4.624a1.174,1.174,0,0,1,1.174-1.174H119.9a1.174,1.174,0,0,1,1.174,1.174v4.624A3.972,3.972,0,0,1,117.1,125.442Zm-1.621-7.418v3.45a1.621,1.621,0,0,0,3.242,0v-3.45Z" transform="translate(-113.133 -115.677)" fill="#a3c854"/>
      </g>
      <g id="Group_4113" data-name="Group 4113" transform="translate(28.521 23.462)">
        <path id="Path_41222" data-name="Path 41222" d="M138.7,125.442a3.973,3.973,0,0,1-3.968-3.968v-4.624a1.174,1.174,0,0,1,1.174-1.174H141.5a1.174,1.174,0,0,1,1.174,1.174v4.624A3.973,3.973,0,0,1,138.7,125.442Zm-1.62-7.418v3.45a1.621,1.621,0,0,0,3.242,0v-3.45Z" transform="translate(-134.733 -115.677)" fill="#a3c854"/>
      </g>
      <g id="Group_4114" data-name="Group 4114" transform="translate(34.11 23.462)">
        <path id="Path_41223" data-name="Path 41223" d="M160.3,125.442a3.973,3.973,0,0,1-3.969-3.968v-4.624a1.174,1.174,0,0,1,1.174-1.174H163.1a1.174,1.174,0,0,1,1.174,1.174v4.624A3.973,3.973,0,0,1,160.3,125.442Zm-1.622-7.418v3.45a1.621,1.621,0,0,0,3.242,0v-3.45Z" transform="translate(-156.333 -115.677)" fill="#a3c854"/>
      </g>
      <g id="Group_4115" data-name="Group 4115" transform="translate(39.7 23.462)">
        <path id="Path_41224" data-name="Path 41224" d="M181.9,125.442a3.973,3.973,0,0,1-3.968-3.968v-4.624a1.174,1.174,0,0,1,1.174-1.174h5.59a1.174,1.174,0,0,1,1.174,1.174v4.624A3.973,3.973,0,0,1,181.9,125.442Zm-1.621-7.418v3.45a1.622,1.622,0,0,0,3.243,0v-3.45Z" transform="translate(-177.932 -115.677)" fill="#a3c854"/>
      </g>
      <g id="Group_4116" data-name="Group 4116" transform="translate(45.29 23.462)">
        <path id="Path_41225" data-name="Path 41225" d="M203.5,125.442a3.973,3.973,0,0,1-3.968-3.968v-4.624a1.174,1.174,0,0,1,1.174-1.174H206.3a1.174,1.174,0,0,1,1.174,1.174v4.624A3.973,3.973,0,0,1,203.5,125.442Zm-1.621-7.418v3.45a1.62,1.62,0,1,0,3.241,0v-3.45Z" transform="translate(-199.534 -115.677)" fill="#a3c854"/>
      </g>
      <g id="Group_4117" data-name="Group 4117" transform="translate(50.878 23.462)">
        <path id="Path_41226" data-name="Path 41226" d="M225.1,125.442a3.973,3.973,0,0,1-3.969-3.968v-4.624a1.174,1.174,0,0,1,1.174-1.174h5.59a1.174,1.174,0,0,1,1.174,1.174v4.624A3.972,3.972,0,0,1,225.1,125.442Zm-1.622-7.418v3.45a1.621,1.621,0,0,0,3.243,0v-3.45Z" transform="translate(-221.128 -115.677)" fill="#a3c854"/>
      </g>
    </g>
  </g>
</svg>
