<svg xmlns="http://www.w3.org/2000/svg" width="69" height="69" viewBox="0 0 69 69"><defs><style>.a{fill:#f7fcf9;}.b{fill:#178b49;}.c{fill:#ffe041;}</style></defs><circle class="a" cx="34.5" cy="34.5" r="34.5"/><g transform="translate(20 20)"><path class="b" d="M19.7,0a4.7,4.7,0,0,1,.58.2A2.074,2.074,0,0,1,21.5,2.174c.008,2.256,0,4.512,0,6.769V14.42c1.565.45,1.817,1.637,1.681,3.012.439.062.842.094,1.234.177a5.709,5.709,0,0,1,4.427,4.805,1.9,1.9,0,0,0,.054.216v1.129a.882.882,0,0,0-.05.156,5.705,5.705,0,0,1-4.35,4.822c-.244.058-.49.106-.735.158H22.63a1.684,1.684,0,0,0-1.242,0H1.806a2.144,2.144,0,0,1-1.368-.849A6.833,6.833,0,0,1,0,27.089V20.937c.153-.177.322-.325.578-.223s.271.327.27.564q0,2.68,0,5.36a1.281,1.281,0,0,0,1.393,1.41H20.13a5.748,5.748,0,0,1,2.245-10.53,9.552,9.552,0,0,0-.113-1.428,1.2,1.2,0,0,0-1.254-.852q-3.611,0-7.222,0a1.929,1.929,0,0,1-2.169-1.69c-.072-.292-.142-.584-.221-.874a1.037,1.037,0,0,0-1.072-.821q-4.09,0-8.181,0A1.257,1.257,0,0,0,.848,13.16c0,1.946,0,3.893,0,5.839,0,.4-.252.639-.564.517A1.279,1.279,0,0,1,0,19.3V12.754a2.249,2.249,0,0,1,1.7-1.713V10.7q0-4.246,0-8.493A2.111,2.111,0,0,1,3.4.045.614.614,0,0,0,3.5,0ZM2.542,11h.369q3.695,0,7.39,0a1.882,1.882,0,0,1,1.917,1.472c.086.317.161.637.242.955a1.078,1.078,0,0,0,1.219.958h6.973v-.317q0-5.895,0-11.79A1.3,1.3,0,0,0,19.2.847H4A1.3,1.3,0,0,0,2.542,2.308q0,4.189,0,8.377V11M18.318,23.178a4.865,4.865,0,1,0,4.858-4.861,4.869,4.869,0,0,0-4.858,4.861"/><path class="c" d="M136.31,260.536c0-.573,0-1.146,0-1.718,0-.385.139-.52.529-.527.291,0,.582-.007.873,0a1.84,1.84,0,0,1,1.877,1.54,2.781,2.781,0,0,1-.2,1.946,1.758,1.758,0,0,1-1.6,1.018c-.31.007-.62.01-.929.011-.365,0-.54-.16-.545-.525-.007-.582,0-1.164,0-1.746m.859,1.392c.762.105,1.182-.038,1.443-.479a1.99,1.99,0,0,0-.093-1.957c-.364-.456-.861-.349-1.35-.341Z" transform="translate(-126.052 -238.851)"/><g transform="translate(6.544 19.322)"><path class="c" d="M87.817,259.764c0,.4,0,.768,0,1.133,0,.328-.163.518-.427.516s-.417-.189-.418-.523q0-1.791,0-3.581c0-.355.14-.511.484-.518a11.031,11.031,0,0,1,1.127.015,1.48,1.48,0,0,1-.073,2.956c-.215.009-.43,0-.693,0m.018-2.138v1.3c.155,0,.293,0,.432,0a2.276,2.276,0,0,0,.28-.012.657.657,0,0,0,.563-.609.63.63,0,0,0-.525-.636,7.483,7.483,0,0,0-.75-.038" transform="translate(-86.971 -256.785)"/><path class="c" d="M190.624,259.9c0,.5,0,.965,0,1.432,0,.3-.178.482-.439.471a.409.409,0,0,1-.4-.425q-.009-1.874,0-3.749a.4.4,0,0,1,.439-.416c.488-.008.977-.007,1.466,0a.419.419,0,0,1,.457.427.428.428,0,0,1-.471.416c-.337.007-.674,0-1.03,0v1c.291,0,.58,0,.868,0,.325.005.522.172.515.428s-.2.409-.505.415c-.289.006-.577,0-.9,0" transform="translate(-182.041 -257.179)"/></g><path class="b" d="M61.609,34.568v1.67H73.94v-1.67H72.584c-.423,0-.847.006-1.27,0a.42.42,0,1,1,0-.84c.931-.006,1.862-.009,2.793,0a.677.677,0,0,1,.69.679c.014.677.015,1.354,0,2.031a.687.687,0,0,1-.673.669c-.084.006-.169,0-.254,0H61.681c-.688,0-.925-.24-.926-.934,0-.555,0-1.11,0-1.665a.715.715,0,0,1,.788-.786q3.837,0,7.674,0c.334,0,.518.155.518.423s-.185.422-.519.423q-3.626,0-7.251,0Z" transform="translate(-56.183 -31.182)"/><path class="b" d="M67.887,102.074H61.458a1.174,1.174,0,0,1-.281-.013.419.419,0,0,1,.007-.822,1.3,1.3,0,0,1,.281-.011h12.8a1.382,1.382,0,0,1,.253.007.42.42,0,0,1-.007.832,1.419,1.419,0,0,1-.253.007H67.887" transform="translate(-56.265 -93.609)"/><path class="b" d="M67.822,123.724h6.373a1.645,1.645,0,0,1,.281.007.419.419,0,0,1,0,.831,1.549,1.549,0,0,1-.281.008H61.45c-.447,0-.659-.143-.649-.438s.21-.409.649-.409h6.373" transform="translate(-56.226 -114.412)"/><path class="b" d="M176.113,146.245c.742,0,1.484,0,2.225,0,.345,0,.547.165.54.432s-.2.413-.532.413q-2.254,0-4.507,0c-.345,0-.547-.165-.54-.433s.2-.412.531-.413c.761,0,1.521,0,2.282,0" transform="translate(-160.26 -135.24)"/><path class="b" d="M176.09,169.593c-.751,0-1.5,0-2.254,0-.343,0-.546-.168-.537-.436s.2-.409.534-.41q2.254,0,4.507,0c.343,0,.546.168.537.435s-.2.409-.535.41c-.751,0-1.5,0-2.254,0" transform="translate(-160.26 -156.048)"/><path class="b" d="M275.876,266.712c.232,0,.419,0,.606,0a.67.67,0,0,1,.647.417.644.644,0,0,1-.131.757c-.673.683-1.349,1.364-2.037,2.033a.685.685,0,0,1-.973.012c-.7-.678-1.393-1.372-2.078-2.071a.629.629,0,0,1-.111-.735.662.662,0,0,1,.622-.411c.2-.007.409,0,.64,0V265.56c0-.705,0-1.411,0-2.116a.755.755,0,0,1,.836-.841q.564-.008,1.129,0a.77.77,0,0,1,.849.864c0,.969,0,1.938,0,2.906v.339m-1.969-3.247v.313c0,.911-.023,1.823.007,2.733.023.7-.27,1.1-1.006,1.052-.013,0-.027.018-.021.013l1.552,1.548,1.54-1.555c-.832.015-.975-.429-.956-1.083.026-.9.007-1.8.007-2.7v-.317Z" transform="translate(-251.283 -242.84)"/></g></svg>