<svg xmlns="http://www.w3.org/2000/svg" width="76" height="76" viewBox="0 0 76 76">
  <g id="Group_3753" data-name="Group 3753" transform="translate(-482 -923)">
    <rect id="Rectangle_196" data-name="Rectangle 196" width="76" height="76" transform="translate(482 923)" fill="none"/>
    <g id="Faqs" transform="translate(486.4 927.4)">
      <g id="Group_491" data-name="Group 491" transform="translate(0 22.838)">
        <g id="Group_490" data-name="Group 490" transform="translate(0 0)">
          <path id="Path_517" data-name="Path 517" d="M45.414,193.032a1.313,1.313,0,0,0-1.313,1.313V203.4a6.575,6.575,0,0,1-6.563,6.563H23.367a1.313,1.313,0,0,0-1.313,1.312v2.61l-3.133-3.133a1.313,1.313,0,0,0-1.2-.789H9.188A6.575,6.575,0,0,1,2.625,203.4V183.188a6.575,6.575,0,0,1,6.563-6.563H22.445a1.313,1.313,0,0,0,0-2.625H9.188A9.2,9.2,0,0,0,0,183.188V203.4a9.2,9.2,0,0,0,9.188,9.188h7.857l5.391,5.39a1.313,1.313,0,0,0,2.24-.927v-4.464H37.538a9.2,9.2,0,0,0,9.188-9.188v-9.056A1.313,1.313,0,0,0,45.414,193.032Z" transform="translate(0 -174)" fill="#a3c854"/>
        </g>
      </g>
      <g id="Group_493" data-name="Group 493" transform="translate(25.725 0)">
        <g id="Group_492" data-name="Group 492" transform="translate(0)">
          <path id="Path_518" data-name="Path 518" d="M218.4,0h-3.322a19.077,19.077,0,1,0,0,38.154H218.4a19.113,19.113,0,0,0,4.842-.621l4.907,4.9a1.313,1.313,0,0,0,2.24-.928V33.916a19.259,19.259,0,0,0,5.015-6.182,18.872,18.872,0,0,0,2.073-8.657A19.1,19.1,0,0,0,218.4,0Zm9.887,32.228a1.313,1.313,0,0,0-.523,1.048v5.066l-3.212-3.211a1.312,1.312,0,0,0-1.313-.326,16.457,16.457,0,0,1-4.839.723h-3.322a16.452,16.452,0,1,1,0-32.9H218.4a16.453,16.453,0,0,1,9.887,29.6Z" transform="translate(-195.999 0)" fill="#4a9953"/>
        </g>
      </g>
      <g id="Group_495" data-name="Group 495" transform="translate(41.272 9.194)">
        <g id="Group_494" data-name="Group 494" transform="translate(0 0)">
          <path id="Path_519" data-name="Path 519" d="M325.562,75.229a5.57,5.57,0,0,0-5.152-5.152,5.514,5.514,0,0,0-4.184,1.48,5.579,5.579,0,0,0-1.766,4.062,1.313,1.313,0,0,0,2.625,0,2.932,2.932,0,1,1,3.576,2.861,2.483,2.483,0,0,0-1.956,2.435v3.154a1.313,1.313,0,1,0,2.625,0V81.021a5.529,5.529,0,0,0,4.233-5.792Z" transform="translate(-314.46 -70.062)" fill="#4a9953"/>
        </g>
      </g>
      <g id="Group_497" data-name="Group 497" transform="translate(45.517 27.082)">
        <g id="Group_496" data-name="Group 496" transform="translate(0 0)">
          <path id="Path_520" data-name="Path 520" d="M349.04,206.715a1.313,1.313,0,1,0,.384.928,1.313,1.313,0,0,0-.384-.928Z" transform="translate(-346.799 -206.33)" fill="#4a9953"/>
        </g>
      </g>
      <g id="Group_499" data-name="Group 499" transform="translate(7.125 40.688)">
        <g id="Group_498" data-name="Group 498" transform="translate(0 0)">
          <path id="Path_521" data-name="Path 521" d="M83.007,310H55.314a1.313,1.313,0,0,0,0,2.625H83.007a1.313,1.313,0,1,0,0-2.625Z" transform="translate(-54.037 -310)" fill="#a3c854"/>
        </g>
      </g>
      <g id="Group_501" data-name="Group 501" transform="translate(34.783 48.039)">
        <g id="Group_500" data-name="Group 500" transform="translate(0 0)">
          <path id="Path_522" data-name="Path 522" d="M267.24,366.384a1.312,1.312,0,1,0,.385.928,1.312,1.312,0,0,0-.385-.928Z" transform="translate(-265.001 -366)" fill="#a3c854"/>
        </g>
      </g>
      <g id="Group_503" data-name="Group 503" transform="translate(7.124 48.038)">
        <g id="Group_502" data-name="Group 502" transform="translate(0 0)">
          <path id="Path_523" data-name="Path 523" d="M77.844,366H55.313a1.313,1.313,0,0,0,0,2.625H77.844a1.313,1.313,0,1,0,0-2.625Z" transform="translate(-54.036 -366)" fill="#a3c854"/>
        </g>
      </g>
      <g id="Group_505" data-name="Group 505" transform="translate(7.052 33.338)">
        <g id="Group_504" data-name="Group 504" transform="translate(0 0)">
          <path id="Path_524" data-name="Path 524" d="M74.476,254H55.313a1.313,1.313,0,1,0,0,2.625H74.476a1.313,1.313,0,0,0,0-2.625Z" transform="translate(-53.964 -253.999)" fill="#a3c854"/>
        </g>
      </g>
    </g>
  </g>
</svg>
