<svg id="Group_3854" data-name="Group 3854" xmlns="http://www.w3.org/2000/svg" width="20.297" height="20.297" viewBox="0 0 20.297 20.297">
  <g id="facebook-4" transform="translate(0 0)">
    <g id="Group_518" data-name="Group 518" transform="translate(9.752 14.879)">
      <g id="Group_517" data-name="Group 517">
        <path id="Path_528" data-name="Path 528" d="M246.4,375.333a.4.4,0,0,0-.4.4v.006a.4.4,0,0,0,.793,0v-.006A.4.4,0,0,0,246.4,375.333Z" transform="translate(-246 -375.333)" fill="#fff"/>
      </g>
    </g>
    <g id="Group_520" data-name="Group 520" transform="translate(0 0)">
      <g id="Group_519" data-name="Group 519">
        <path id="Path_529" data-name="Path 529" d="M16.412,0H3.885A3.889,3.889,0,0,0,0,3.885V16.412A3.889,3.889,0,0,0,3.885,20.3h6.263a.4.4,0,0,0,.4-.4V16.828a.4.4,0,1,0-.793,0V19.5H3.885A3.1,3.1,0,0,1,.793,16.412V3.885A3.1,3.1,0,0,1,3.885.793H16.412A3.1,3.1,0,0,1,19.5,3.885V16.412A3.1,3.1,0,0,1,16.412,19.5H13.875v-7h2.3a.4.4,0,0,0,.394-.357l.285-2.833a.4.4,0,0,0-.394-.436H13.875V7.394c0-.269.086-.369.316-.369h2.249a.4.4,0,0,0,.4-.4V3.867a.4.4,0,0,0-.4-.4H13.487a3.5,3.5,0,0,0-3.011,1.352,4.172,4.172,0,0,0-.723,2.412V8.9H7.809a.4.4,0,0,0-.4.4v2.815a.4.4,0,0,0,.4.4H9.752v1.13a.4.4,0,1,0,.793,0V12.111a.4.4,0,0,0-.4-.4H8.206V9.692h1.942a.4.4,0,0,0,.4-.4V7.234a2.714,2.714,0,0,1,2.942-2.971h2.558V6.232H14.191a1.065,1.065,0,0,0-1.109,1.162V9.278a.4.4,0,0,0,.4.4H16.02l-.205,2.04H13.478a.4.4,0,0,0-.4.4V19.9a.4.4,0,0,0,.4.4h2.934A3.889,3.889,0,0,0,20.3,16.412V3.885A3.889,3.889,0,0,0,16.412,0Z" transform="translate(0 0)" fill="#fff"/>
      </g>
    </g>
    <g id="Group_522" data-name="Group 522" transform="translate(1.903 4.063)">
      <g id="Group_521" data-name="Group 521">
        <path id="Path_530" data-name="Path 530" d="M48.4,102.5a.4.4,0,0,0-.4.4v3.31a.4.4,0,1,0,.793,0V102.9A.4.4,0,0,0,48.4,102.5Z" transform="translate(-48 -102.5)" fill="#fff"/>
      </g>
    </g>
    <g id="Group_524" data-name="Group 524" transform="translate(1.903 9.093)">
      <g id="Group_523" data-name="Group 523">
        <path id="Path_531" data-name="Path 531" d="M48.4,229.382a.4.4,0,0,0-.4.4v0a.4.4,0,1,0,.793,0v0A.4.4,0,0,0,48.4,229.382Z" transform="translate(-48 -229.382)" fill="#fff"/>
      </g>
    </g>
  </g>
</svg>
