<svg xmlns="http://www.w3.org/2000/svg" width="44.868" height="64.365" viewBox="0 0 44.868 64.365">
  <g id="rating" transform="translate(-32.84 -2.269)">
    <path id="Path_631" data-name="Path 631" d="M130.252,307.932h-2.719c-4.083,0-6.62-1.2-6.62-3.133V288.584a13.749,13.749,0,0,0,5.832-7.614.977.977,0,1,0-1.84-.654,12.272,12.272,0,0,1-4.128,6.024,3.118,3.118,0,0,0-2.976-2.2h-2.742a3.116,3.116,0,0,0-3.113,3.113v9.183a.977.977,0,1,0,1.953,0v-9.183a1.161,1.161,0,0,1,1.16-1.16H117.8a1.161,1.161,0,0,1,1.16,1.16v19.521a1.161,1.161,0,0,1-1.16,1.16h-2.742a1.161,1.161,0,0,1-1.16-1.16v-5.816a.977.977,0,1,0-1.953,0v5.816a3.116,3.116,0,0,0,3.113,3.113H117.8a3.117,3.117,0,0,0,2.814-1.784c1.217.985,3.315,1.784,6.919,1.784h2.719a.977.977,0,0,0,0-1.953Z" transform="translate(-75.462 -243.253)" fill="#fff"/>
    <path id="Path_632" data-name="Path 632" d="M246.308,213.944a2.913,2.913,0,0,0,.233-1.144v-2.209a2.933,2.933,0,0,0-2.93-2.93H234.1a4.1,4.1,0,0,1-3.981-4.883l.722-3.872a6.417,6.417,0,0,0-3.454-6.914,2.688,2.688,0,0,0-3.654,1.526l-2.026,6.015a.977.977,0,1,0,1.851.624l2.027-6.015a.677.677,0,0,1,.385-.414.666.666,0,0,1,.556.018,4.457,4.457,0,0,1,2.4,4.8l-.722,3.872a6.087,6.087,0,0,0,4.255,6.969,4.024,4.024,0,0,0,.66,5.347,4.026,4.026,0,0,0,0,6.15,4.026,4.026,0,0,0-.084,6.006,3.693,3.693,0,0,0-.864,4.563H230.2a.977.977,0,1,0,0,1.953h12.039a2.759,2.759,0,0,0,2.755-2.755v-1.89a2.736,2.736,0,0,0-.245-1.13,3.2,3.2,0,0,0,1.791-2.873V223.09a3.18,3.18,0,0,0-.316-1.387,3.206,3.206,0,0,0,2.265-3.06v-1.668a3.2,3.2,0,0,0-2.181-3.031Zm-1.72-3.353V212.8a.978.978,0,0,1-.977.977h-7.848a2.081,2.081,0,1,1,0-4.162h7.848A.977.977,0,0,1,244.588,210.591Zm-1.247,11.254a1.249,1.249,0,0,1,1.247,1.247v1.668a1.249,1.249,0,0,1-1.247,1.247h-7.578a2.081,2.081,0,0,1,0-4.162h7.578Zm-.3,8.807a.8.8,0,0,1-.8.8h-6.81a1.748,1.748,0,0,1,0-3.5h6.81a.8.8,0,0,1,.8.8Zm3.495-12.008a1.249,1.249,0,0,1-1.247,1.247h-9.566a2.081,2.081,0,0,1-2.081-2.081c0-1.149,2.081-2.081,2.081-2.081h9.566a1.249,1.249,0,0,1,1.247,1.247Z" transform="translate(-170.888 -166.775)" fill="#fff"/>
    <g id="Group_11186" data-name="Group 11186">
      <path id="Path_635" data-name="Path 635" d="M33.332,68.333a1,1,0,0,0,.955-1.135l-.438-2.554L35.7,62.837a.989.989,0,0,0-.532-1.657l-2.564-.373-1.15-2.32a.985.985,0,0,0-1.74,0l-1.147,2.323-2.564.372a.984.984,0,0,0-.538,1.655l1.856,1.808L26.885,67.2a.987.987,0,0,0,1.407,1.023l2.293-1.205,2.293,1.205a.97.97,0,0,0,.453.113Zm-2.745-2.659a.971.971,0,0,0-.451.112l-1.857.978.355-2.068a.97.97,0,0,0-.279-.858l-1.5-1.463,2.076-.3a.97.97,0,0,0,.731-.532l.931-1.881.931,1.881a.97.97,0,0,0,.731.532l2.076.3-1.5,1.463a.97.97,0,0,0-.279.859l.354,2.068-1.857-.977a.969.969,0,0,0-.457-.113Z" transform="translate(13.061 -47.474)" fill="#fff" stroke="#ffe600" stroke-width="0.3"/>
      <path id="Path_635-2" data-name="Path 635" d="M33.332,68.333a1,1,0,0,0,.955-1.135l-.438-2.554L35.7,62.837a.989.989,0,0,0-.532-1.657l-2.564-.373-1.15-2.32a.985.985,0,0,0-1.74,0l-1.147,2.323-2.564.372a.984.984,0,0,0-.538,1.655l1.856,1.808L26.885,67.2a.987.987,0,0,0,1.407,1.023l2.293-1.205,2.293,1.205a.97.97,0,0,0,.453.113Zm-2.745-2.659a.971.971,0,0,0-.451.112l-1.857.978.355-2.068a.97.97,0,0,0-.279-.858l-1.5-1.463,2.076-.3a.97.97,0,0,0,.731-.532l.931-1.881.931,1.881a.97.97,0,0,0,.731.532l2.076.3-1.5,1.463a.97.97,0,0,0-.279.859l.354,2.068-1.857-.977a.969.969,0,0,0-.457-.113Z" transform="translate(36.061 -47.474)" fill="#fff" stroke="#ffe600" stroke-width="0.3"/>
      <path id="Path_635-3" data-name="Path 635" d="M30.528,64.763a.658.658,0,0,0,.626-.744l-.287-1.674,1.214-1.186a.649.649,0,0,0-.349-1.087l-1.681-.245L29.3,58.307a.646.646,0,0,0-1.141,0l-.752,1.523-1.681.244a.645.645,0,0,0-.353,1.085l1.217,1.186L26.3,64.018a.647.647,0,0,0,.923.67l1.5-.79,1.5.79a.636.636,0,0,0,.3.074Zm-1.8-1.744a.636.636,0,0,0-.3.073l-1.217.641.233-1.356a.636.636,0,0,0-.183-.563l-.985-.959,1.361-.2a.636.636,0,0,0,.479-.349l.61-1.234.61,1.234a.636.636,0,0,0,.479.349l1.361.2-.985.959a.636.636,0,0,0-.183.563l.232,1.356-1.217-.64a.635.635,0,0,0-.3-.074Z" transform="translate(7.756 -42.903)" fill="#fff" stroke="#ffe600" stroke-width="0.2"/>
      <path id="Path_635-4" data-name="Path 635" d="M30.528,64.763a.658.658,0,0,0,.626-.744l-.287-1.674,1.214-1.186a.649.649,0,0,0-.349-1.087l-1.681-.245L29.3,58.307a.646.646,0,0,0-1.141,0l-.752,1.523-1.681.244a.645.645,0,0,0-.353,1.085l1.217,1.186L26.3,64.018a.647.647,0,0,0,.923.67l1.5-.79,1.5.79a.636.636,0,0,0,.3.074Zm-1.8-1.744a.636.636,0,0,0-.3.073l-1.217.641.233-1.356a.636.636,0,0,0-.183-.563l-.985-.959,1.361-.2a.636.636,0,0,0,.479-.349l.61-1.234.61,1.234a.636.636,0,0,0,.479.349l1.361.2-.985.959a.636.636,0,0,0-.183.563l.232,1.356-1.217-.64a.635.635,0,0,0-.3-.074Z" transform="translate(45.34 -42.903)" fill="#fff" stroke="#ffe600" stroke-width="0.2"/>
      <path id="Path_44186" data-name="Path 44186" d="M49.85,13.72,46.061,9.932l.816-.944,5.277-.816,2.594-4.643L55.679,3l2.613,5.166,1.3.422,4.739.395-.356,1.188L60.326,13.72l-.41,1.19,1,5.085H59.379L55.474,17.59l-2.232.555L49.85,20.376l-.5-1.306.886-4.948Z" fill="#ffe600"/>
      <path id="Path_633" data-name="Path 633" d="M167.156,11.963,166.3,16.98a1.4,1.4,0,0,0,2.009,1.462l4.509-2.367,4.505,2.369a1.408,1.408,0,0,0,2.009-1.462l-.861-5.017,3.645-3.553a1.411,1.411,0,0,0-.764-2.368l-5.037-.732L174.057.747a1.408,1.408,0,0,0-2.488,0l-2.251,4.565-5.037.732a1.405,1.405,0,0,0-.769,2.366Zm2.482-5.111a1.387,1.387,0,0,0,1.045-.759l2.132-4.319,2.132,4.319a1.387,1.387,0,0,0,1.045.759l4.766.693-3.448,3.361a1.387,1.387,0,0,0-.4,1.228l.815,4.745-4.26-2.241a1.387,1.387,0,0,0-1.291,0l-4.265,2.241.814-4.746a1.386,1.386,0,0,0-.4-1.228l-3.447-3.361Z" transform="translate(-117.594 2.27)" fill="#fff"/>
    </g>
  </g>
</svg>
