<svg id="Fleet_Trans-Connect" data-name="Fleet Trans-Connect" xmlns="http://www.w3.org/2000/svg" width="48.322" height="67.303" viewBox="0 0 48.322 67.303">
  <path id="Path_41758" data-name="Path 41758" d="M5.854-511.857a2.454,2.454,0,0,0-.641.443c-.594.575-.585.415-.585,9v7.761H2.7c-2.16,0-2.471.066-2.725.556a54.555,54.555,0,0,0,0,8.6c.255.49.566.556,2.716.556H4.619l.028,4.508c.019,3.6.057,4.546.151,4.668.113.132.113.207,0,.509a8.128,8.128,0,0,0-.123,1.914c0,1.481.009,1.584.245,2.084a2.9,2.9,0,0,0,2.15,1.679l.434.057.047,1.792c.057,2.084.17,2.471.934,3.188.783.736,1,.773,3.97.773,2.527,0,2.6-.009,3.046-.217a3.172,3.172,0,0,0,1.471-1.575,5.693,5.693,0,0,0,.2-2.216v-1.7h13.58v1.7a5.693,5.693,0,0,0,.2,2.216,3.172,3.172,0,0,0,1.471,1.575c.443.207.519.217,3.046.217,2.971,0,3.188-.038,3.97-.773.764-.717.877-1.1.934-3.187l.047-1.792.434-.057A2.9,2.9,0,0,0,43-471.258c.236-.5.245-.6.245-2.084a8.128,8.128,0,0,0-.123-1.914c-.113-.3-.113-.377,0-.509.094-.122.132-1.066.151-4.668l.028-4.508h1.933c2.15,0,2.461-.066,2.716-.556a54.555,54.555,0,0,0,0-8.6c-.255-.49-.566-.556-2.725-.556H43.294v-7.761c0-8.582.009-8.421-.585-9-.66-.641.839-.594-18.767-.594C8.3-512,6.147-511.979,5.854-511.857Zm35.459,13.589V-486.4l-.415.264a2.465,2.465,0,0,1-.472.255c-.028,0-.057-3.169-.057-7.054,0-7.884.009-7.771-.66-8.893a4.756,4.756,0,0,0-1.782-1.782c-1.16-.688-.453-.66-13.967-.66s-12.807-.028-13.967.66a4.756,4.756,0,0,0-1.782,1.782c-.67,1.122-.66,1.009-.66,8.893,0,3.885-.028,7.054-.057,7.054a2.2,2.2,0,0,1-.472-.264l-.415-.255v-23.718h34.7ZM36.692-502.1a3.13,3.13,0,0,1,1.5,1.5l.245.519.028,8.506.028,8.516h-.528a2.5,2.5,0,0,0-.83.132,9.277,9.277,0,0,0-1.386,1.226L34.665-480.6l-.047,1.679-.047,1.669H13.352l-.047-1.669-.047-1.679L12.173-481.7a9.277,9.277,0,0,0-1.386-1.226,2.5,2.5,0,0,0-.83-.132H9.429l.028-8.516.028-8.506.245-.519a3,3,0,0,1,2.15-1.7c.236-.038,5.8-.066,12.363-.057l11.93.01ZM4.628-489.8v2.876H1.7v-5.753H4.628Zm41.589,0v2.876H43.294v-5.753h2.923ZM7.552-480.349v3.14H6.609v-6.884l.472.3.472.311Zm33.761-.3v3.442H40.37v-6.3l.453-.292a5.177,5.177,0,0,1,.472-.292C41.3-484.093,41.313-482.547,41.313-480.651ZM10.73-480.4l.688.679v2.518l-.962-.028-.971-.028-.028-1.914-.019-1.9h.3C9.994-481.075,10.164-480.962,10.73-480.4Zm27.735,1.226-.028,1.914-.962.028-.971.028v-2.509l.679-.679c.575-.575.736-.688.99-.688h.311Zm2.329,3.989c.453.217.519.472.519,1.867,0,1.33-.057,1.509-.538,1.754-.292.151-33.337.151-33.629,0-.481-.245-.538-.424-.538-1.754a6.853,6.853,0,0,1,.1-1.481c.255-.556-.83-.528,17.23-.528C38.682-475.323,40.521-475.3,40.794-475.181Zm-25.51,7.158c0,2.433.075,2.367-2.886,2.367-3.018,0-2.9.085-2.942-2.244l-.038-1.575h5.866Zm23.18.123c-.047,2.329.075,2.244-2.942,2.244-2.961,0-2.886.066-2.886-2.367v-1.452H38.5Z" transform="translate(0.2 531.074)" fill="#178b49"/>
  <path id="Path_41759" data-name="Path 41759" d="M114.085-388.821a1.764,1.764,0,0,0-.943.971c-.123.3-.141,1.122-.141,6.054v5.706l.217.236a14.923,14.923,0,0,0,2.565,1.254l2.358,1.018h16.692l2.358-1.018a15.68,15.68,0,0,0,2.575-1.254l.207-.236v-5.724c0-5.366-.019-5.753-.179-6.1a1.765,1.765,0,0,0-.971-.943c-.311-.123-1.735-.141-12.354-.141C115-389,114.443-388.991,114.085-388.821Zm23.982,6.724-.028,5.017-1.792.773-1.792.783-1.528.009H131.4l.255-.453.264-.443,1.556-.047a11.192,11.192,0,0,0,1.707-.132.971.971,0,0,0,.453-.858.806.806,0,0,0-.273-.622l-.273-.273h-6.592l-.245.236a.907.907,0,0,0-.236.971c.113.424.547.679,1.188.679h.5l-.255.471-.255.471h-7.431l.255-.462.245-.471,1.584-.028c1.518-.028,1.6-.038,1.82-.245a.889.889,0,0,0,.255-1.009c-.2-.613-.207-.613-3.772-.613a29.192,29.192,0,0,0-3.4.094,1.064,1.064,0,0,0-.424.99c.094.5.443.736,1.132.783l.6.038L119.8-376c-.255.424-.264.434-.773.453-.453.019-.7-.057-2.3-.754l-1.792-.783-.057-4.951c-.028-2.716-.038-4.97-.019-5.017s5.253-.066,11.637-.066h11.59Z" transform="translate(-102.325 419.666)" fill="#178b49"/>
  <path id="Path_41760" data-name="Path 41760" d="M164.673-204.606a1.061,1.061,0,0,0-.453.321.9.9,0,0,0,.387,1.462c.472.2,15.636.2,16.107,0a.89.89,0,0,0,.349-1.49l-.273-.311-7.959-.009C168.454-204.643,164.786-204.634,164.673-204.606Z" transform="translate(-148.499 252.69)" fill="#178b49"/>
  <path id="Path_41761" data-name="Path 41761" d="M164.481-173.917a1.023,1.023,0,0,0-.481.792,1.237,1.237,0,0,0,.462.868c.123.066,2.886.094,8.214.094s8.091-.028,8.214-.094a1.271,1.271,0,0,0,.462-.849,1.024,1.024,0,0,0-.519-.83C180.456-174.106,164.792-174.087,164.481-173.917Z" transform="translate(-148.515 224.99)" fill="#178b49"/>
  <path id="Path_41762" data-name="Path 41762" d="M175.077-112.882a.931.931,0,0,0-.255,1.613c.245.189.406.2,2.263.226,1.1.019,2.141,0,2.32-.028a.958.958,0,0,0,0-1.877A27.276,27.276,0,0,0,175.077-112.882Z" transform="translate(-157.989 169.698)" fill="#178b49"/>
  <path id="Path_41763" data-name="Path 41763" d="M277.6-112.606a1.084,1.084,0,0,0-.443.283.951.951,0,0,0,.339,1.528,13.9,13.9,0,0,0,2.282.1c1.707,0,2.037-.028,2.32-.17a.83.83,0,0,0,.481-1.066c-.2-.66-.33-.7-2.7-.707C278.737-112.643,277.709-112.634,277.6-112.606Z" transform="translate(-250.766 169.366)" fill="#178b49"/>
  <g id="reshot-icon-wifi-97FCHA2NWB" transform="translate(11.967 0)">
    <g id="Group_4683" data-name="Group 4683" transform="translate(0 0)">
      <path id="Path_41767" data-name="Path 41767" d="M1.287,9.889A.786.786,0,0,1,.721,8.556a16.841,16.841,0,0,1,23.929-.345.787.787,0,1,1-1.1,1.125,15.267,15.267,0,0,0-21.7.313A.789.789,0,0,1,1.287,9.889Z" transform="translate(-0.5 -3.392)" fill="#fff"/>
    </g>
    <g id="Group_4684" data-name="Group 4684" transform="translate(3.215 3.808)">
      <path id="Path_41768" data-name="Path 41768" d="M5.374,14.323a.786.786,0,0,1-.566-1.333,12.256,12.256,0,0,1,17.506-.159A.787.787,0,0,1,21.2,13.944a10.682,10.682,0,0,0-15.26.139A.789.789,0,0,1,5.374,14.323Z" transform="translate(-4.587 -9.233)" fill="#fff"/>
    </g>
    <g id="Group_4685" data-name="Group 4685" transform="translate(6.492 7.616)">
      <path id="Path_41769" data-name="Path 41769" d="M9.539,18.757a.786.786,0,0,1-.566-1.333,7.668,7.668,0,0,1,10.952-.1.787.787,0,1,1-1.112,1.112,6.1,6.1,0,0,0-8.708.08A.79.79,0,0,1,9.539,18.757Z" transform="translate(-8.752 -15.074)" fill="#fff"/>
    </g>
    <g id="Group_4686" data-name="Group 4686" transform="translate(9.046 11.492)">
      <path id="Path_41770" data-name="Path 41770" d="M15.147,27.293a3.147,3.147,0,1,1,3.147-3.147A3.15,3.15,0,0,1,15.147,27.293Zm0-4.72a1.573,1.573,0,1,0,1.573,1.573A1.575,1.575,0,0,0,15.147,22.573Z" transform="translate(-12 -21)" fill="#fff"/>
    </g>
  </g>
</svg>
