<svg xmlns="http://www.w3.org/2000/svg" width="66.436" height="58" viewBox="0 0 66.436 58">
  <g id="Group_4873" data-name="Group 4873" transform="translate(0 0)">
    <g id="XMLID_860_" transform="translate(20.168 21.296)">
      <path id="XMLID_853_" d="M1.109,11.43H-1V0H1.109Z" transform="translate(1 24.219)" fill="#ffe600"/>
      <path id="XMLID_852_" d="M49.351,62.7H47.242V29.321s0-.008,0-.012H32.6V27.2H47.23a2.1,2.1,0,0,1,2.121,2.121Z" transform="translate(-18.134 -27.2)" fill="#ffe600"/>
      <path id="XMLID_863_" d="M7.467,1.109H0V-1H7.467Z" transform="translate(11.875 4.2)" fill="#ffe600"/>
      <rect id="XMLID_862_" width="10.113" height="3.622" transform="translate(17.763 31.57)" fill="#ffe600"/>
      <path id="XMLID_861_" d="M48.769,32V59.127H25.3v1.067H49.836V32Z" transform="translate(-21.959 -25.154)" fill="#ffe600"/>
    </g>
    <path id="XMLID_857_" d="M1.4-.5A1.9,1.9,0,1,1-.5,1.4,1.9,1.9,0,0,1,1.4-.5Zm0,2.743A.844.844,0,1,0,.555,1.4.845.845,0,0,0,1.4,2.243Z" transform="translate(19.468 3.354)" fill="#fff"/>
    <path id="XMLID_864_" d="M2.022-.75A2.772,2.772,0,1,1-.75,2.022,2.775,2.775,0,0,1,2.022-.75Zm0,3.962a1.19,1.19,0,1,0-1.19-1.19A1.192,1.192,0,0,0,2.022,3.212Z" transform="translate(44.279 0.75)" fill="#fff"/>
    <path id="XMLID_859_" d="M1.4-.5A1.9,1.9,0,1,1-.5,1.4,1.9,1.9,0,0,1,1.4-.5Zm0,2.743A.844.844,0,1,0,.555,1.4.845.845,0,0,0,1.4,2.243Z" transform="translate(56.351 10.7)" fill="#fff"/>
    <path id="XMLID_858_" d="M2.479-.75A3.229,3.229,0,1,1-.75,2.479,3.233,3.233,0,0,1,2.479-.75Zm0,4.877A1.647,1.647,0,1,0,.832,2.479,1.649,1.649,0,0,0,2.479,4.127Z" transform="translate(32.372 9.644)" fill="#fff"/>
    <path id="XMLID_854_" d="M26.666,54.932A17.474,17.474,0,0,1,19.8,53.538a17.807,17.807,0,0,1-9.407-9.407,17.607,17.607,0,0,1,0-13.73A17.807,17.807,0,0,1,19.8,20.993a17.607,17.607,0,0,1,13.73,0A17.807,17.807,0,0,1,42.938,30.4,17.869,17.869,0,0,1,43,44.085l1.9,9.868-9.18-1.559A17.29,17.29,0,0,1,26.666,54.932Zm0-33.223a15.557,15.557,0,0,0,0,31.114A15.174,15.174,0,0,0,34.932,50.4l.345-.223,6.981,1.186-1.449-7.51.127-.3a15.615,15.615,0,0,0-14.27-21.847Z" transform="translate(-9 -9.104)" fill="#ffe600"/>
    <path id="XMLID_851_" d="M43.89,1.109H0V-1H43.89Z" transform="translate(12.847 56.891)" fill="#ffe600"/>
    <path id="XMLID_838_" d="M14.021,1.109H0V-1H14.021Z" transform="translate(40.274 12.033)" fill="#ffe600"/>
    <path id="XMLID_855_" d="M21.64,1.109H0V-1H21.64Z" transform="translate(44.796 17.678)" fill="#ffe600"/>
    <path id="XMLID_856_" d="M7.62,1.109H0V-1H7.62Z" transform="translate(34.754 17.678)" fill="#ffe600"/>
    <g id="Group_11860" data-name="Group 11860" transform="translate(12.229 20.537)">
      <g id="Group_11857" data-name="Group 11857">
        <path id="Path_44184" data-name="Path 44184" d="M.875.726H11V2.6H8.09l.867,2.314H11l-.141,1.848-2.066.449L6.863,9.828,4.8,10.539l-1.623.415,6.338,7.357-2.48.1L.52,10.68V9.038H4.8l1.871-1.7.2-.888H.52V4.695H6.668L6.531,3.456,5.057,2.482H.715Z" fill="#fff"/>
        <path id="Path_41338" data-name="Path 41338" d="M178.726,138.878a.494.494,0,0,0-.081-.53l-5.881-6.616a5.8,5.8,0,0,0,4.793-4.17h1.828a.494.494,0,0,0,.494-.494v-2.11a.494.494,0,0,0-.494-.494h-1.828a5.63,5.63,0,0,0-.449-1.123h2.277a.494.494,0,0,0,.494-.494v-2.11a.494.494,0,0,0-.494-.494h-1.055a.494.494,0,0,0,0,.987h.562v1.123h-2.682a.494.494,0,0,0-.394.791,4.725,4.725,0,0,1,.869,1.912.494.494,0,0,0,.484.4h1.723v1.123h-1.723a.494.494,0,0,0-.484.4A4.8,4.8,0,0,1,172,130.8h-.288a.494.494,0,0,0-.369.822l5.835,6.565h-1.5l-6.348-7.141v-1.369H172a3.667,3.667,0,0,0,3.446-2.439.494.494,0,0,0-.465-.659h-5.653v-1.123h5.653a.494.494,0,0,0,.465-.659A3.667,3.667,0,0,0,172,122.353h-2.672V121.23h6.893a.494.494,0,1,0,0-.987h-7.387a.494.494,0,0,0-.494.494v2.11a.494.494,0,0,0,.494.494H172a2.674,2.674,0,0,1,2.172,1.123h-5.338a.494.494,0,0,0-.494.494v2.11a.494.494,0,0,0,.494.494h5.338A2.674,2.674,0,0,1,172,128.685h-3.166a.494.494,0,0,0-.494.494v2.05a.494.494,0,0,0,.125.328l6.62,7.447a.494.494,0,0,0,.369.166h2.823A.494.494,0,0,0,178.726,138.878Z" transform="translate(-168.338 -120.243)" fill="#ffe600"/>
      </g>
    </g>
  </g>
</svg>
