<svg xmlns="http://www.w3.org/2000/svg" width="59.328" height="46.374" viewBox="0 0 59.328 46.374">
  <g id="Freight_Aggregators" data-name="Freight Aggregation" transform="translate(0 -55.901)">
    <path id="Path_41738" data-name="Path 41738" d="M51.8,298.813H49.382l-5.448,5.448v11.872h2.422V304.261Z" transform="translate(-38.843 -214.764)" fill="#f8d848"/>
    <rect id="Rectangle_2176" data-name="Rectangle 2176" width="2.422" height="3.632" transform="translate(0.908 58.489)" fill="#f8d848"/>
    <g id="Group_4566" data-name="Group 4566" transform="translate(37.331 75.357)">
      <rect id="Rectangle_2179" data-name="Rectangle 2179" width="10.844" height="2.298" transform="translate(0 0)" fill="#f8d848"/>
    </g>
    <rect id="Rectangle_2180" data-name="Rectangle 2180" width="3.615" height="2.58" transform="translate(40.961 72.777)" fill="#ffd359"/>
    <rect id="Rectangle_2181" data-name="Rectangle 2181" width="3.632" height="3.632" transform="translate(16.807 87.912)" fill="#129048"/>
    <rect id="Rectangle_2182" data-name="Rectangle 2182" width="24.597" height="15.084" transform="translate(30.455 79.646)" fill="#129048"/>
    <rect id="Rectangle_2183" data-name="Rectangle 2183" width="2.422" height="15.084" transform="translate(30.455 79.646)" fill="#129048"/>
    <circle id="Ellipse_154" data-name="Ellipse 154" cx="3.499" cy="3.499" r="3.499" transform="translate(15.124 56.805)" fill="#129048"/>
    <rect id="Rectangle_2185" data-name="Rectangle 2185" width="2.422" height="2.711" transform="translate(29.664 77.499)" fill="#f8d848"/>
    <rect id="Rectangle_2187" data-name="Rectangle 2187" width="2.422" height="2.711" transform="translate(29.664 94.164)" fill="#f8d848"/>
    <path id="Path_41739" data-name="Path 41739" d="M48.176,66.9a.908.908,0,0,0,.908-.908V63.031H58.42a.908.908,0,0,0,.908-.908V58.492a.908.908,0,0,0-.908-.908H42.377a.908.908,0,1,0,0,1.816H57.512v1.816H22.936a4.407,4.407,0,0,0,0-1.816H36.727a.908.908,0,1,0,0-1.816H22.084a4.4,4.4,0,0,0-6.921,0H.908A.908.908,0,0,0,0,58.492v3.632a.908.908,0,0,0,.908.908H15.163a4.452,4.452,0,0,0,.736.736v5.417H12.831a.908.908,0,0,0-.908.908v4.723a.908.908,0,0,0,1.816,0V71h9.768v29.458H13.739v-16.4s0-.008,0-.012,0-.008,0-.012V80.184a.908.908,0,0,0-1.816,0V83.14H10.54a.909.909,0,0,0-.642.266L4.45,88.852a.905.905,0,0,0-.268.644s0,.006,0,.009v2.5s0,.006,0,.009,0,.006,0,.009v2.5s0,.006,0,.009,0,.006,0,.009v2.5s0,.006,0,.009,0,.006,0,.009v3.393H.908a.908.908,0,1,0,0,1.816H58.42a.908.908,0,1,0,0-1.816h-33.1V70.092a.908.908,0,0,0-.908-.908H21.347V63.768a4.444,4.444,0,0,0,.737-.737H36.423v2.956a.908.908,0,0,0,.908.908h4.514V71.87H40.96a.908.908,0,0,0-.908.908V74.45H37.331a.908.908,0,0,0-.908.908v1.234H29.664a.908.908,0,0,0-.908.908V80.21a.908.908,0,0,0,.791.9V93.262a.907.907,0,0,0-.791.9v2.711a.908.908,0,0,0,.908.908h11.3a.908.908,0,1,0,0-1.816H30.572V95.07H54.935v.895H46.494a.908.908,0,1,0,0,1.816h9.349a.908.908,0,0,0,.908-.908V94.162a.908.908,0,0,0-.791-.9V81.109a.908.908,0,0,0,.791-.9V77.5a.908.908,0,0,0-.908-.908H49.084V75.357a.908.908,0,0,0-.908-.908H45.483V72.778a.908.908,0,0,0-.908-.908h-.913V66.9h4.514ZM11.923,90.4v.7H6v-.7Zm0,3.225H6v-.7h5.924v.7ZM6,95.444h5.924v.7H6Zm4.916-10.489h1.007v3.632H7.283ZM6,97.965h5.924v2.493H6ZM18.623,57.717a2.591,2.591,0,1,1-2.591,2.591A2.594,2.594,0,0,1,18.623,57.717Zm-16.807,3.5V59.4H14.311a4.407,4.407,0,0,0,0,1.816Zm17.715,7.969H17.715V64.62a4.408,4.408,0,0,0,1.816,0v4.564ZM54.144,81.118V93.254H31.363V81.118Zm.791-1.816H30.572v-.895H54.935Zm-7.667-2.711H38.239v-.326h9.029v.326Zm-3.6-2.142h-1.8v-.764h1.8ZM38.239,63.031h9.029V65.08H38.239Z" transform="translate(0 0)" fill="#a3c854"/>
    <path id="Path_41740" data-name="Path 41740" d="M127.667,213.108h6.054a.908.908,0,1,0,0-1.816h-6.054a.908.908,0,1,0,0,1.816Z" transform="translate(-112.071 -137.385)" fill="#129048"/>
    <path id="Path_41741" data-name="Path 41741" d="M127.667,236.272h6.054a.908.908,0,1,0,0-1.816h-6.054a.908.908,0,1,0,0,1.816Z" transform="translate(-112.071 -157.865)" fill="#129048"/>
    <path id="Path_41742" data-name="Path 41742" d="M127.667,259.436h6.054a.908.908,0,1,0,0-1.816h-6.054a.908.908,0,1,0,0,1.816Z" transform="translate(-112.071 -178.345)" fill="#129048"/>
    <path id="Path_41743" data-name="Path 41743" d="M138.116,324.3a.908.908,0,0,0-.908.908v3.632a.908.908,0,0,0,.908.908h3.632a.908.908,0,0,0,.908-.908v-3.632a.908.908,0,0,0-.908-.908Zm2.724,3.632h-1.816v-1.816h1.816Z" transform="translate(-121.309 -237.303)" fill="#a3c854"/>
    <g id="Group_4567" data-name="Group 4567" transform="translate(32.822 81.448)">
      <path id="Path_41744" data-name="Path 41744" d="M284.165,287.845a.908.908,0,0,0,.908-.908v-9.66a.908.908,0,0,0-1.816,0v9.66A.908.908,0,0,0,284.165,287.845Z" transform="translate(-283.257 -276.369)" fill="#a3c854"/>
      <path id="Path_41745" data-name="Path 41745" d="M315.359,287.845a.908.908,0,0,0,.908-.908v-9.66a.908.908,0,0,0-1.816,0v9.66A.908.908,0,0,0,315.359,287.845Z" transform="translate(-310.836 -276.369)" fill="#a3c854"/>
      <path id="Path_41746" data-name="Path 41746" d="M346.555,287.845a.908.908,0,0,0,.908-.908v-9.66a.908.908,0,0,0-1.816,0v9.66A.908.908,0,0,0,346.555,287.845Z" transform="translate(-338.418 -276.369)" fill="#a3c854"/>
      <path id="Path_41747" data-name="Path 41747" d="M377.749,287.845a.908.908,0,0,0,.908-.908v-9.66a.908.908,0,0,0-1.816,0v9.66A.908.908,0,0,0,377.749,287.845Z" transform="translate(-365.997 -276.369)" fill="#a3c854"/>
      <path id="Path_41748" data-name="Path 41748" d="M408.945,287.845a.908.908,0,0,0,.908-.908v-9.66a.908.908,0,0,0-1.816,0v9.66A.908.908,0,0,0,408.945,287.845Z" transform="translate(-393.578 -276.369)" fill="#a3c854"/>
      <path id="Path_41749" data-name="Path 41749" d="M440.139,287.845a.908.908,0,0,0,.908-.908v-9.66a.908.908,0,0,0-1.816,0v9.66A.908.908,0,0,0,440.139,287.845Z" transform="translate(-421.157 -276.369)" fill="#a3c854"/>
    </g>
    <circle id="Ellipse_155" data-name="Ellipse 155" cx="0.908" cy="0.908" r="0.908" transform="translate(17.715 59.399)" fill="#fff"/>
  </g>
</svg>
