<svg xmlns="http://www.w3.org/2000/svg" width="76" height="76" viewBox="0 0 76 76">
  <g id="Locate_a_Mobility_Station" data-name="Locate a Mobility Station" transform="translate(11690 891)">
    <rect id="Rectangle_200" data-name="Rectangle 200" width="76" height="76" transform="translate(-11690 -891)" fill="none"/>
    <g id="Locate_a_Mobility_Station-2" data-name="Locate a Mobility Station" transform="translate(-11675.7 -885.949)">
      <path id="Path_677" data-name="Path 677" d="M25.206.848A23.633,23.633,0,0,1,48.838,24.48c0,4.6-2.762,11.22-6.368,17.843-6.6,12.122-16.612,24.422-17.265,24.422S14.54,54.446,7.941,42.324C4.336,35.7,1.573,29.085,1.573,24.48A23.633,23.633,0,0,1,25.206.848ZM39.979,9.707A20.892,20.892,0,0,0,4.314,24.48c0,4.1,2.613,10.27,6.025,16.537,6.211,11.41,14.48,22.987,14.867,22.987s8.655-11.577,14.867-22.987C43.484,34.751,46.1,28.578,46.1,24.48A20.827,20.827,0,0,0,39.979,9.707Z" transform="translate(-1.573 -0.848)" fill="#a3c854"/>
      <path id="Path_678" data-name="Path 678" d="M20.543,1.242A18.576,18.576,0,1,1,7.408,6.683,18.518,18.518,0,0,1,20.543,1.242ZM32.225,8.136a16.521,16.521,0,1,0,4.839,11.682A16.469,16.469,0,0,0,32.225,8.136Z" transform="translate(3.089 3.815)" fill="#a3c854"/>
      <path id="Path_679" data-name="Path 679" d="M35.814,35.089a18.576,18.576,0,1,1,5.441-13.135,18.518,18.518,0,0,1-5.441,13.135ZM37.452,7.181A20.892,20.892,0,0,0,1.787,21.954c0,4.1,2.613,10.27,6.025,16.538,6.211,11.41,14.48,22.987,14.867,22.987S31.334,49.9,37.546,38.491c3.412-6.267,6.025-12.44,6.025-16.538A20.827,20.827,0,0,0,37.452,7.181Z" transform="translate(0.953 1.679)" fill="#f45a52" fill-rule="evenodd" opacity="0"/>
      <path id="Path_680" data-name="Path 680" d="M18.648,34.443A16.521,16.521,0,1,0,6.966,29.6,16.469,16.469,0,0,0,18.648,34.443Z" transform="translate(4.984 5.71)" fill="#129048" fill-rule="evenodd"/>
      <path id="Path_681" data-name="Path 681" d="M9.515,2.319l16.3,4.716,2.138-1.684a.683.683,0,0,1,.6-.122l2.37.545a.684.684,0,0,1,.445,1L29.5,10.4a2.425,2.425,0,0,1-1.12,1.106,2.627,2.627,0,0,1-.289.12L29.2,13.443a.683.683,0,0,1-.736,1.022h0l-2.4-.552a.68.68,0,0,1-.353-.206h0l-2.3-2.537-4.892-.9,2.217,3.625A.683.683,0,0,1,20,14.914h0L16.036,14a.68.68,0,0,1-.323-.175L9.686,8.566,3.808,7.58a.682.682,0,0,1-.247-.093A2.158,2.158,0,0,1,2.3,6.016a1.827,1.827,0,0,1,.444-1.468A4.649,4.649,0,0,1,3.965,3.52c1.6-.978,4.134-1.611,5.55-1.2ZM25.776,8.444,9.135,3.63A6.879,6.879,0,0,0,4.677,4.687a3.323,3.323,0,0,0-.862.707.557.557,0,0,0-.165.387c.024.135.175.291.491.469l5.96,1h0a.679.679,0,0,1,.337.16l6.069,5.3,2.213.509L16.553,9.673h0a.683.683,0,0,1,.706-1.027l6.592,1.218a.681.681,0,0,1,.417.218l2.312,2.548.605.139-.812-1.327a.684.684,0,0,1,.667-1.054,1.255,1.255,0,0,0,.737-.113.93.93,0,0,0,.434-.337h0a.689.689,0,0,1,.05-.126l1.5-2.9-1.22-.281-2.155,1.7h0a.682.682,0,0,1-.612.119Z" transform="translate(6.763 15.074)" fill="#212121" opacity="0"/>
      <path id="Path_682" data-name="Path 682" d="M15.29,8.429ZM24.513,7.2,7.872,2.386A6.879,6.879,0,0,0,3.414,3.442a3.323,3.323,0,0,0-.862.707.557.557,0,0,0-.165.387c.024.135.175.291.491.469l5.96,1h0a.679.679,0,0,1,.337.16l6.069,5.3,2.213.509L15.29,8.429A.683.683,0,0,1,16,7.4l6.592,1.218a.681.681,0,0,1,.417.218l2.312,2.548.605.139L25.111,10.2a.684.684,0,0,1,.667-1.054,1.255,1.255,0,0,0,.737-.113.929.929,0,0,0,.434-.337h0A.688.688,0,0,1,27,8.566l1.5-2.9-1.22-.281-2.155,1.7h0a.682.682,0,0,1-.612.119Z" transform="translate(8.025 16.319)" fill="#feca5f" fill-rule="evenodd" opacity="0"/>
      <g id="Group_3885" data-name="Group 3885" transform="translate(8.662 8.355)">
        <g id="Group_16" data-name="Group 16">
          <g id="Group_15" data-name="Group 15">
            <g id="Group_14" data-name="Group 14">
              <g id="Group_13" data-name="Group 13">
                <path id="Path_47" data-name="Path 47" d="M281.931,165.3a21.611,21.611,0,0,0-2.017-3.64,21.367,21.367,0,0,0-2.017,3.64,13.86,13.86,0,0,1,2.017,2.752,13.73,13.73,0,0,1,2.017-2.752" transform="translate(-265.074 -161.655)" fill="#018837" fill-rule="evenodd"/>
                <path id="Path_48" data-name="Path 48" d="M277.9,240.317a21.374,21.374,0,0,0,2.017,3.64,21.608,21.608,0,0,0,2.018-3.64,13.777,13.777,0,0,1-2.018-2.753,13.932,13.932,0,0,1-2.017,2.753" transform="translate(-265.074 -213.791)" fill="#018837" fill-rule="evenodd"/>
                <path id="Path_49" data-name="Path 49" d="M269.592,167.29a21.35,21.35,0,0,0-3.137-2.73,21.412,21.412,0,0,0-.65,4.112,13.937,13.937,0,0,1,2.834,1.894,13.911,13.911,0,0,1,.953-3.275" transform="translate(-256.769 -163.65)" fill="#018837" fill-rule="evenodd"/>
                <path id="Path_50" data-name="Path 50" d="M290.779,239.167a21.346,21.346,0,0,0,3.137,2.73,21.577,21.577,0,0,0,.649-4.11,14,14,0,0,1-2.834-1.9,13.991,13.991,0,0,1-.952,3.276" transform="translate(-273.922 -212.642)" fill="#018837" fill-rule="evenodd"/>
                <path id="Path_51" data-name="Path 51" d="M257.292,174.413a21.548,21.548,0,0,0-3.881-1.493,21.323,21.323,0,0,0,.794,4.087,13.8,13.8,0,0,1,3.31.81,13.8,13.8,0,0,1-.223-3.4" transform="translate(-248.256 -169.392)" fill="#018837" fill-rule="evenodd"/>
                <path id="Path_52" data-name="Path 52" d="M302.378,234.473a21.389,21.389,0,0,0,3.881,1.49,21.3,21.3,0,0,0-.794-4.086,13.8,13.8,0,0,1-3.311-.813,13.84,13.84,0,0,1,.224,3.408" transform="translate(-281.734 -209.328)" fill="#018837" fill-rule="evenodd"/>
                <path id="Path_53" data-name="Path 53" d="M248.2,188.781a14,14,0,0,1-1.372-3.123,21.246,21.246,0,0,0-4.158-.074,21.525,21.525,0,0,0,2.14,3.567,13.845,13.845,0,0,1,3.39-.371" transform="translate(-240.878 -178.043)" fill="#018837" fill-rule="evenodd"/>
                <path id="Path_54" data-name="Path 54" d="M308.34,222.874A13.731,13.731,0,0,1,309.714,226a21.571,21.571,0,0,0,4.159.075,21.3,21.3,0,0,0-2.142-3.57,13.848,13.848,0,0,1-3.391.373" transform="translate(-285.983 -203.446)" fill="#018837" fill-rule="evenodd"/>
                <path id="Path_55" data-name="Path 55" d="M240.882,197.127a21.32,21.32,0,0,0-3.931,1.354,21.572,21.572,0,0,0,3.232,2.619,13.831,13.831,0,0,1,3.058-1.509,14.014,14.014,0,0,1-2.359-2.465" transform="translate(-236.951 -186.018)" fill="#018837" fill-rule="evenodd"/>
                <path id="Path_56" data-name="Path 56" d="M314.694,209.815a13.771,13.771,0,0,1-3.056,1.51A13.833,13.833,0,0,1,314,213.788a21.205,21.205,0,0,0,3.931-1.354,21.233,21.233,0,0,0-3.233-2.619" transform="translate(-288.248 -194.733)" fill="#018837" fill-rule="evenodd"/>
                <path id="Path_57" data-name="Path 57" d="M243.241,211.324a13.751,13.751,0,0,1-3.057-1.51,21.429,21.429,0,0,0-3.232,2.62,21.306,21.306,0,0,0,3.93,1.354,13.935,13.935,0,0,1,2.359-2.464" transform="translate(-236.952 -194.732)" fill="#018837" fill-rule="evenodd"/>
                <path id="Path_58" data-name="Path 58" d="M311.638,199.591a13.849,13.849,0,0,1,3.056,1.509,21.364,21.364,0,0,0,3.233-2.619A21.179,21.179,0,0,0,314,197.127a13.9,13.9,0,0,1-2.358,2.464" transform="translate(-288.248 -186.018)" fill="#018837" fill-rule="evenodd"/>
                <path id="Path_59" data-name="Path 59" d="M244.809,222.5a21.433,21.433,0,0,0-2.14,3.57,21.532,21.532,0,0,0,4.158-.075,13.994,13.994,0,0,1,1.372-3.123,13.828,13.828,0,0,1-3.39-.373" transform="translate(-240.878 -203.445)" fill="#018837" fill-rule="evenodd"/>
                <path id="Path_60" data-name="Path 60" d="M311.732,189.152a21.42,21.42,0,0,0,2.142-3.57,21.529,21.529,0,0,0-4.159.076,13.7,13.7,0,0,1-1.373,3.123,13.848,13.848,0,0,1,3.391.371" transform="translate(-285.984 -178.043)" fill="#018837" fill-rule="evenodd"/>
                <path id="Path_61" data-name="Path 61" d="M257.516,231.066a13.845,13.845,0,0,1-3.31.813,21.3,21.3,0,0,0-.794,4.086,21.467,21.467,0,0,0,3.881-1.491,13.815,13.815,0,0,1,.223-3.408" transform="translate(-248.257 -209.328)" fill="#018837" fill-rule="evenodd"/>
                <path id="Path_62" data-name="Path 62" d="M302.154,177.817a13.769,13.769,0,0,1,3.311-.81,21.3,21.3,0,0,0,.794-4.087,21.342,21.342,0,0,0-3.882,1.491,13.8,13.8,0,0,1-.223,3.406" transform="translate(-281.734 -169.392)" fill="#018837" fill-rule="evenodd"/>
                <path id="Path_63" data-name="Path 63" d="M265.805,237.788a21.446,21.446,0,0,0,.65,4.11,21.429,21.429,0,0,0,3.137-2.73,13.936,13.936,0,0,1-.953-3.276,14,14,0,0,1-2.834,1.9" transform="translate(-256.769 -212.642)" fill="#018837" fill-rule="evenodd"/>
                <path id="Path_64" data-name="Path 64" d="M294.565,168.669a21.553,21.553,0,0,0-.649-4.109,21.207,21.207,0,0,0-3.137,2.731,13.929,13.929,0,0,1,.952,3.275,13.962,13.962,0,0,1,2.834-1.9" transform="translate(-273.922 -163.65)" fill="#018837" fill-rule="evenodd"/>
                <path id="Path_65" data-name="Path 65" d="M276.791,178.859a9.565,9.565,0,0,1,1.034-2.827,13.8,13.8,0,0,0-2.017-2.752,13.919,13.919,0,0,0-.953,3.275,9.539,9.539,0,0,1,1.937,2.3" transform="translate(-262.984 -169.639)" fill="#73be1e" fill-rule="evenodd"/>
                <path id="Path_66" data-name="Path 66" d="M285.371,228.536a9.563,9.563,0,0,1-1.033,2.827,13.825,13.825,0,0,0,2.017,2.753,14,14,0,0,0,.952-3.277,9.551,9.551,0,0,1-1.937-2.3" transform="translate(-269.498 -207.591)" fill="#73be1e" fill-rule="evenodd"/>
                <path id="Path_67" data-name="Path 67" d="M265.981,181.093a9.554,9.554,0,0,1,2.606,1.5,9.577,9.577,0,0,1,0-3.011,13.935,13.935,0,0,0-2.834-1.894,13.763,13.763,0,0,0,.223,3.4" transform="translate(-256.722 -172.668)" fill="#73be1e" fill-rule="evenodd"/>
                <path id="Path_68" data-name="Path 68" d="M296.43,227.78a9.546,9.546,0,0,1-2.6-1.5,9.62,9.62,0,0,1-.006,3.009,13.97,13.97,0,0,0,2.834,1.9,13.8,13.8,0,0,0-.224-3.408" transform="translate(-276.01 -206.043)" fill="#73be1e" fill-rule="evenodd"/>
                <path id="Path_69" data-name="Path 69" d="M260.282,189.611a9.516,9.516,0,0,1-1.025-2.83,13.779,13.779,0,0,0-3.31-.81,13.985,13.985,0,0,0,1.372,3.123,9.561,9.561,0,0,1,2.963.517" transform="translate(-249.998 -178.356)" fill="#73be1e" fill-rule="evenodd"/>
                <path id="Path_70" data-name="Path 70" d="M298.884,222.035a9.537,9.537,0,0,1,1.024,2.828,13.8,13.8,0,0,0,3.311.813,13.735,13.735,0,0,0-1.374-3.122,9.532,9.532,0,0,1-2.961-.519" transform="translate(-279.488 -203.126)" fill="#73be1e" fill-rule="evenodd"/>
                <path id="Path_71" data-name="Path 71" d="M251.861,198.771a9.514,9.514,0,0,1,2.961-.527,9.549,9.549,0,0,1-1.93-2.308,13.852,13.852,0,0,0-3.39.371,13.99,13.99,0,0,0,2.359,2.464" transform="translate(-245.571 -185.197)" fill="#73be1e" fill-rule="evenodd"/>
                <path id="Path_72" data-name="Path 72" d="M305.145,214.635a9.577,9.577,0,0,1-2.96.526,9.5,9.5,0,0,1,1.928,2.309,13.822,13.822,0,0,0,3.391-.372,13.84,13.84,0,0,0-2.358-2.463" transform="translate(-281.755 -198.043)" fill="#73be1e" fill-rule="evenodd"/>
                <path id="Path_73" data-name="Path 73" d="M252.93,206.505a9.578,9.578,0,0,1-2.6-1.509,13.825,13.825,0,0,0-3.058,1.509,13.755,13.755,0,0,0,3.058,1.51,9.524,9.524,0,0,1,2.6-1.51" transform="translate(-244.04 -191.423)" fill="#73be1e" fill-rule="evenodd"/>
                <path id="Path_74" data-name="Path 74" d="M303.328,206.505a9.5,9.5,0,0,1,2.6,1.51,13.777,13.777,0,0,0,3.056-1.51A13.847,13.847,0,0,0,305.93,205a9.55,9.55,0,0,1-2.6,1.509" transform="translate(-282.54 -191.423)" fill="#73be1e" fill-rule="evenodd"/>
                <path id="Path_75" data-name="Path 75" d="M252.893,217.471a9.52,9.52,0,0,1,1.93-2.31,9.539,9.539,0,0,1-2.96-.526A13.941,13.941,0,0,0,249.5,217.1a13.861,13.861,0,0,0,3.39.373" transform="translate(-245.572 -198.043)" fill="#73be1e" fill-rule="evenodd"/>
                <path id="Path_76" data-name="Path 76" d="M304.113,195.935a9.509,9.509,0,0,1-1.928,2.308,9.529,9.529,0,0,1,2.96.527,13.909,13.909,0,0,0,2.358-2.465,13.832,13.832,0,0,0-3.391-.371" transform="translate(-281.755 -185.197)" fill="#73be1e" fill-rule="evenodd"/>
                <path id="Path_77" data-name="Path 77" d="M260.282,222.035a9.543,9.543,0,0,1-2.963.519,13.97,13.97,0,0,0-1.372,3.122,13.838,13.838,0,0,0,3.31-.813,9.508,9.508,0,0,1,1.025-2.828" transform="translate(-249.998 -203.126)" fill="#73be1e" fill-rule="evenodd"/>
                <path id="Path_78" data-name="Path 78" d="M298.884,189.611a9.55,9.55,0,0,1,2.961-.517,13.749,13.749,0,0,0,1.374-3.123,13.764,13.764,0,0,0-3.311.81,9.545,9.545,0,0,1-1.024,2.83" transform="translate(-279.488 -178.356)" fill="#73be1e" fill-rule="evenodd"/>
                <path id="Path_79" data-name="Path 79" d="M276.791,228.536a9.538,9.538,0,0,1-1.937,2.3,13.952,13.952,0,0,0,.953,3.277,13.886,13.886,0,0,0,2.017-2.753,9.573,9.573,0,0,1-1.034-2.827" transform="translate(-262.984 -207.591)" fill="#73be1e" fill-rule="evenodd"/>
                <path id="Path_80" data-name="Path 80" d="M268.588,226.282a9.574,9.574,0,0,1-2.606,1.5,13.8,13.8,0,0,0-.223,3.408,14,14,0,0,0,2.834-1.9,9.577,9.577,0,0,1,0-3.009" transform="translate(-256.722 -206.043)" fill="#73be1e" fill-rule="evenodd"/>
                <path id="Path_81" data-name="Path 81" d="M285.371,178.859a9.529,9.529,0,0,1,1.937-2.3,13.933,13.933,0,0,0-.952-3.275,13.742,13.742,0,0,0-2.017,2.752,9.556,9.556,0,0,1,1.033,2.827" transform="translate(-269.498 -169.639)" fill="#73be1e" fill-rule="evenodd"/>
                <path id="Path_82" data-name="Path 82" d="M293.825,182.589a9.535,9.535,0,0,1,2.6-1.5,13.792,13.792,0,0,0,.223-3.406,13.972,13.972,0,0,0-2.834,1.9,9.6,9.6,0,0,1,.006,3.01" transform="translate(-276.009 -172.663)" fill="#73be1e" fill-rule="evenodd"/>
                <path id="Path_83" data-name="Path 83" d="M270.26,194.13a8.116,8.116,0,0,0-1.945-2.329,8.159,8.159,0,0,0,1.042,2.85,8.143,8.143,0,0,0-2.623-1.521,8.08,8.08,0,0,0,1.952,2.322,8.094,8.094,0,0,0-2.986-.531,8.119,8.119,0,0,0,2.628,1.514,8.129,8.129,0,0,0-2.988.523,8.139,8.139,0,0,0,2.988.522,8.13,8.13,0,0,0-2.628,1.514,8.094,8.094,0,0,0,2.986-.531,8.079,8.079,0,0,0-1.952,2.323,8.175,8.175,0,0,0,2.623-1.521,8.156,8.156,0,0,0-1.042,2.851,8.134,8.134,0,0,0,1.945-2.328,8.186,8.186,0,0,0,0,3.034,8.18,8.18,0,0,0,1.034-2.853,8.184,8.184,0,0,0,1.033,2.853,8.158,8.158,0,0,0,0-3.034,8.166,8.166,0,0,0,1.946,2.328,8.154,8.154,0,0,0-1.043-2.851,8.2,8.2,0,0,0,2.624,1.521,8.1,8.1,0,0,0-1.952-2.323,8.088,8.088,0,0,0,2.985.531,8.19,8.19,0,0,0-2.628-1.515,8.088,8.088,0,0,0,2.987-.52,8.113,8.113,0,0,0-2.987-.523,8.146,8.146,0,0,0,2.628-1.514,8.1,8.1,0,0,0-2.987.531,8.082,8.082,0,0,0,1.953-2.322,8.192,8.192,0,0,0-2.624,1.521,8.164,8.164,0,0,0,1.043-2.851,8.148,8.148,0,0,0-1.946,2.329,8.166,8.166,0,0,0,0-3.036,8.159,8.159,0,0,0-1.033,2.853,8.155,8.155,0,0,0-1.034-2.853,8.194,8.194,0,0,0,0,3.036" transform="translate(-256.449 -181.874)" fill="#fff" fill-rule="evenodd"/>
                <path id="Path_84" data-name="Path 84" d="M276.528,189.076a8.19,8.19,0,0,1,0-3.036,9.536,9.536,0,0,0-1.937-2.3,9.587,9.587,0,0,0,0,3.01,8.116,8.116,0,0,1,1.945,2.329" transform="translate(-262.717 -176.821)" fill="#ffe001" fill-rule="evenodd"/>
                <path id="Path_85" data-name="Path 85" d="M287.621,218.848a8.152,8.152,0,0,1,0,3.034,9.554,9.554,0,0,0,1.936,2.3,9.6,9.6,0,0,0,.006-3.009,8.172,8.172,0,0,1-1.947-2.328" transform="translate(-271.753 -200.937)" fill="#ffe001" fill-rule="evenodd"/>
                <path id="Path_86" data-name="Path 86" d="M269.122,190.058a9.543,9.543,0,0,0-2.606-1.5,9.536,9.536,0,0,0,1.025,2.83,8.14,8.14,0,0,1,2.623,1.521,8.163,8.163,0,0,1-1.042-2.85" transform="translate(-257.257 -180.132)" fill="#ffe001" fill-rule="evenodd"/>
                <path id="Path_87" data-name="Path 87" d="M291.55,220.029a9.559,9.559,0,0,0,2.6,1.5,9.532,9.532,0,0,0-1.025-2.828,8.2,8.2,0,0,1-2.623-1.521,8.165,8.165,0,0,1,1.044,2.851" transform="translate(-273.734 -199.79)" fill="#ffe001" fill-rule="evenodd"/>
                <path id="Path_88" data-name="Path 88" d="M265.244,198.782a8.068,8.068,0,0,1-1.953-2.322,9.561,9.561,0,0,0-2.963-.517,9.538,9.538,0,0,0,1.929,2.308,8.106,8.106,0,0,1,2.986.531" transform="translate(-253.007 -185.204)" fill="#ffe001" fill-rule="evenodd"/>
                <path id="Path_89" data-name="Path 89" d="M292.652,214.619a8.1,8.1,0,0,1,1.951,2.323,9.541,9.541,0,0,0,2.962.519,9.491,9.491,0,0,0-1.928-2.31,8.089,8.089,0,0,1-2.985-.532" transform="translate(-275.208 -198.032)" fill="#ffe001" fill-rule="evenodd"/>
                <path id="Path_90" data-name="Path 90" d="M262.624,204.827A8.108,8.108,0,0,1,260,203.313a9.5,9.5,0,0,0-2.961.527,9.568,9.568,0,0,0,2.6,1.509,8.127,8.127,0,0,1,2.988-.523" transform="translate(-250.745 -190.267)" fill="#ffe001" fill-rule="evenodd"/>
                <path id="Path_91" data-name="Path 91" d="M293.792,210.335a8.2,8.2,0,0,1,2.628,1.515,9.568,9.568,0,0,0,2.961-.526,9.5,9.5,0,0,0-2.6-1.51,8.081,8.081,0,0,1-2.986.521" transform="translate(-275.991 -194.732)" fill="#ffe001" fill-rule="evenodd"/>
                <path id="Path_92" data-name="Path 92" d="M259.637,209.815a9.521,9.521,0,0,0-2.6,1.51,9.539,9.539,0,0,0,2.96.526,8.129,8.129,0,0,1,2.628-1.514,8.137,8.137,0,0,1-2.988-.522" transform="translate(-250.746 -194.733)" fill="#ffe001" fill-rule="evenodd"/>
                <path id="Path_93" data-name="Path 93" d="M296.778,205.349a9.548,9.548,0,0,0,2.6-1.509,9.518,9.518,0,0,0-2.96-.527,8.152,8.152,0,0,1-2.629,1.514,8.122,8.122,0,0,1,2.987.523" transform="translate(-275.99 -190.267)" fill="#ffe001" fill-rule="evenodd"/>
                <path id="Path_94" data-name="Path 94" d="M265.244,214.619a8.1,8.1,0,0,1-2.986.532,9.522,9.522,0,0,0-1.929,2.31,9.545,9.545,0,0,0,2.963-.519,8.069,8.069,0,0,1,1.953-2.323" transform="translate(-253.007 -198.032)" fill="#ffe001" fill-rule="evenodd"/>
                <path id="Path_95" data-name="Path 95" d="M292.646,198.782a8.119,8.119,0,0,1,2.988-.531,9.514,9.514,0,0,0,1.928-2.308,9.556,9.556,0,0,0-2.962.517,8.078,8.078,0,0,1-1.953,2.322" transform="translate(-275.204 -185.204)" fill="#ffe001" fill-rule="evenodd"/>
                <path id="Path_96" data-name="Path 96" d="M281.037,222.279a9.575,9.575,0,0,0,1.034,2.827,9.57,9.57,0,0,0,1.033-2.827,8.178,8.178,0,0,1-1.033-2.853,8.173,8.173,0,0,1-1.034,2.853" transform="translate(-267.23 -201.334)" fill="#ffe001" fill-rule="evenodd"/>
                <path id="Path_97" data-name="Path 97" d="M276.528,218.848a8.133,8.133,0,0,1-1.945,2.328,9.581,9.581,0,0,0,0,3.009,9.538,9.538,0,0,0,1.937-2.3,8.182,8.182,0,0,1,0-3.034" transform="translate(-262.717 -200.937)" fill="#ffe001" fill-rule="evenodd"/>
                <path id="Path_98" data-name="Path 98" d="M267.541,218.7a9.509,9.509,0,0,0-1.025,2.828,9.567,9.567,0,0,0,2.606-1.5,8.17,8.17,0,0,1,1.041-2.851,8.162,8.162,0,0,1-2.623,1.521" transform="translate(-257.257 -199.79)" fill="#ffe001" fill-rule="evenodd"/>
                <path id="Path_99" data-name="Path 99" d="M283.1,184.893a9.555,9.555,0,0,0-1.033-2.827,9.567,9.567,0,0,0-1.034,2.827,8.163,8.163,0,0,1,1.034,2.853,8.164,8.164,0,0,1,1.033-2.853" transform="translate(-267.23 -175.674)" fill="#ffe001" fill-rule="evenodd"/>
                <path id="Path_100" data-name="Path 100" d="M287.621,189.076a8.154,8.154,0,0,1,1.947-2.329,9.611,9.611,0,0,0-.006-3.01,9.524,9.524,0,0,0-1.936,2.3,8.16,8.16,0,0,1,0,3.036" transform="translate(-271.753 -176.821)" fill="#ffe001" fill-rule="evenodd"/>
                <path id="Path_101" data-name="Path 101" d="M293.13,191.387a9.551,9.551,0,0,0,1.024-2.83,9.534,9.534,0,0,0-2.6,1.5,8.179,8.179,0,0,1-1.044,2.851,8.176,8.176,0,0,1,2.624-1.521" transform="translate(-273.734 -180.132)" fill="#ffe001" fill-rule="evenodd"/>
              </g>
            </g>
          </g>
        </g>
      </g>
    </g>
  </g>
</svg>
