<svg xmlns="http://www.w3.org/2000/svg" width="15.861" height="21.998" viewBox="0 0 15.861 21.998">
  <g id="Layer_x0020_1" transform="translate(0.15 0.15)">
    <circle id="Ellipse_791" data-name="Ellipse 791" cx="4" cy="4" r="4" transform="translate(3.967 4)" fill="#e8c113"/>
    <path id="Path_677" data-name="Path 677" d="M9.355.848a7.781,7.781,0,0,1,7.781,7.781c0,1.516-.909,3.694-2.1,5.875a40.879,40.879,0,0,1-5.685,8.041A40.878,40.878,0,0,1,3.67,14.5c-1.187-2.181-2.1-4.359-2.1-5.875A7.781,7.781,0,0,1,9.355.848Zm4.864,2.917A6.879,6.879,0,0,0,2.476,8.63c0,1.349.861,3.382,1.984,5.445a55.431,55.431,0,0,0,4.9,7.569,55.431,55.431,0,0,0,4.9-7.569c1.123-2.064,1.984-4.1,1.984-5.445a6.858,6.858,0,0,0-2.015-4.864Z" transform="translate(-1.573 -0.848)" fill="#129048" stroke="#178b49" stroke-width="0.3"/>
    <path id="Path_678" data-name="Path 678" d="M5.973,1.242A4.006,4.006,0,1,1,3.14,2.415,3.993,3.993,0,0,1,5.973,1.242ZM8.492,2.728A3.563,3.563,0,1,0,9.536,5.248,3.552,3.552,0,0,0,8.492,2.728Z" transform="translate(1.808 2.534)" fill="#129048" stroke="#178b49" stroke-width="0.5"/>
    <path id="Path_679" data-name="Path 679" d="M12.991,12.265a6.116,6.116,0,1,1,1.791-4.325,6.1,6.1,0,0,1-1.791,4.325Zm.539-9.189A6.879,6.879,0,0,0,1.787,7.941c0,1.349.861,3.382,1.984,5.445a55.432,55.432,0,0,0,4.9,7.569,55.43,55.43,0,0,0,4.9-7.569c1.123-2.064,1.984-4.1,1.984-5.445A6.858,6.858,0,0,0,13.53,3.076Z" transform="translate(-0.885 -0.159)" fill="#129048" fill-rule="evenodd" opacity="0"/>
  </g>
</svg>
