<svg xmlns="http://www.w3.org/2000/svg" width="18.067" height="24.346" viewBox="0 0 18.067 24.346"><defs><style>.a{fill:#178b49;}.b{fill:#fff;}</style></defs><g transform="translate(7980.874)"><path class="a" d="M59.78,0c.475.078.955.134,1.424.238a9.032,9.032,0,0,1,6.853,7.245,8.914,8.914,0,0,1-1.591,6.866c-.472.665-.941,1.333-1.414,2a.467.467,0,0,1-.511.22.413.413,0,0,1-.359-.389.789.789,0,0,1,.14-.433c.451-.66.915-1.312,1.381-1.962a8.08,8.08,0,1,0-13.063.03q3.175,4.477,6.333,8.966c.054.077.111.153.185.257.065-.087.121-.158.174-.232q1.2-1.7,2.4-3.4a.51.51,0,0,1,.513-.271.477.477,0,0,1,.284.79c-.457.657-.921,1.308-1.382,1.962l-1.064,1.509h6.027a1.958,1.958,0,0,1,.237.005.473.473,0,0,1,0,.939,2.032,2.032,0,0,1-.261.006H52.229c-.449,0-.678-.165-.673-.484s.227-.467.665-.467h6c-.04-.072-.064-.126-.1-.173-2.087-2.957-4.163-5.923-6.265-8.869a9.014,9.014,0,0,1,1.2-11.961A8.794,8.794,0,0,1,58.361.04,1.469,1.469,0,0,0,58.544,0Z" transform="translate(-8031)"/><path class="a" d="M129.289,74.857a4.279,4.279,0,1,1-4.28,4.278,4.285,4.285,0,0,1,4.28-4.278m3.328,4.285a3.328,3.328,0,1,0-3.329,3.322,3.334,3.334,0,0,0,3.329-3.322" transform="translate(-8101.126 -70.102)"/><path class="a" d="M253.23,274.455a.474.474,0,1,1-.473-.463.479.479,0,0,1,.473.463" transform="translate(-8220.315 -256.587)"/><path class="b" d="M146.635,93.161a3.328,3.328,0,1,1-3.316-3.334,3.335,3.335,0,0,1,3.316,3.334" transform="translate(-8115.145 -84.121)"/></g></svg>