<svg xmlns="http://www.w3.org/2000/svg" width="39.391" height="23.16" viewBox="0 0 39.391 23.16">
  <g id="logo-footer" transform="translate(-117.604 -132)">
    <g id="Group_18" data-name="Group 18" transform="translate(117.604 137.452)">
      <g id="Group_17" data-name="Group 17" transform="translate(21.965)">
        <g id="Group_16" data-name="Group 16" transform="translate(0)">
          <g id="Group_15" data-name="Group 15">
            <g id="Group_14" data-name="Group 14">
              <g id="Group_13" data-name="Group 13">
                <path id="Path_47" data-name="Path 47" d="M280.265,163.792a12.693,12.693,0,0,0-1.184-2.137,12.525,12.525,0,0,0-1.184,2.137,8.148,8.148,0,0,1,1.184,1.616,8.06,8.06,0,0,1,1.184-1.615" transform="translate(-270.368 -161.655)" fill="#018837"/>
                <path id="Path_48" data-name="Path 48" d="M277.9,239.18a12.547,12.547,0,0,0,1.184,2.136,12.682,12.682,0,0,0,1.184-2.136,8.089,8.089,0,0,1-1.184-1.616,8.18,8.18,0,0,1-1.184,1.616" transform="translate(-270.37 -223.608)" fill="#018837"/>
                <path id="Path_49" data-name="Path 49" d="M268.028,166.163a12.537,12.537,0,0,0-1.841-1.6,12.532,12.532,0,0,0-.382,2.414,8.186,8.186,0,0,1,1.664,1.112,8.166,8.166,0,0,1,.559-1.923" transform="translate(-260.499 -164.026)" fill="#018837"/>
                <path id="Path_50" data-name="Path 50" d="M290.778,237.814a12.517,12.517,0,0,0,1.841,1.6A12.7,12.7,0,0,0,293,237a8.208,8.208,0,0,1-1.664-1.114,8.223,8.223,0,0,1-.559,1.923" transform="translate(-280.881 -222.243)" fill="#018837"/>
                <path id="Path_51" data-name="Path 51" d="M255.689,173.8a12.631,12.631,0,0,0-2.278-.876,12.507,12.507,0,0,0,.466,2.4,8.107,8.107,0,0,1,1.943.475,8.093,8.093,0,0,1-.131-2" transform="translate(-250.384 -170.85)" fill="#018837"/>
                <path id="Path_52" data-name="Path 52" d="M302.286,233.069a12.568,12.568,0,0,0,2.278.876,12.506,12.506,0,0,0-.466-2.4,8.1,8.1,0,0,1-1.944-.477,8.117,8.117,0,0,1,.132,2" transform="translate(-290.166 -218.307)" fill="#018837"/>
                <path id="Path_53" data-name="Path 53" d="M245.915,187.433a8.214,8.214,0,0,1-.805-1.833,12.475,12.475,0,0,0-2.441-.043,12.632,12.632,0,0,0,1.256,2.094,8.123,8.123,0,0,1,1.99-.219" transform="translate(-241.617 -181.13)" fill="#018837"/>
                <path id="Path_54" data-name="Path 54" d="M308.34,222.72a8.059,8.059,0,0,1,.807,1.833,12.656,12.656,0,0,0,2.441.044,12.511,12.511,0,0,0-1.257-2.1,8.124,8.124,0,0,1-1.99.219" transform="translate(-295.214 -211.315)" fill="#018837"/>
                <path id="Path_55" data-name="Path 55" d="M239.259,197.127a12.508,12.508,0,0,0-2.308.8,12.671,12.671,0,0,0,1.9,1.538,8.116,8.116,0,0,1,1.8-.886,8.222,8.222,0,0,1-1.385-1.447" transform="translate(-236.95 -190.605)" fill="#018837"/>
                <path id="Path_56" data-name="Path 56" d="M313.432,209.815a8.083,8.083,0,0,1-1.794.886,8.122,8.122,0,0,1,1.384,1.446,12.453,12.453,0,0,0,2.307-.795,12.469,12.469,0,0,0-1.9-1.538" transform="translate(-297.906 -200.961)" fill="#018837"/>
                <path id="Path_57" data-name="Path 57" d="M240.642,210.7a8.067,8.067,0,0,1-1.795-.886,12.563,12.563,0,0,0-1.9,1.538,12.5,12.5,0,0,0,2.307.794,8.2,8.2,0,0,1,1.385-1.446" transform="translate(-236.948 -200.96)" fill="#018837"/>
                <path id="Path_58" data-name="Path 58" d="M311.638,198.573a8.135,8.135,0,0,1,1.794.886,12.539,12.539,0,0,0,1.9-1.538,12.426,12.426,0,0,0-2.307-.8,8.181,8.181,0,0,1-1.384,1.447" transform="translate(-297.906 -190.605)" fill="#018837"/>
                <path id="Path_59" data-name="Path 59" d="M243.925,222.5a12.578,12.578,0,0,0-1.256,2.1,12.636,12.636,0,0,0,2.441-.044,8.206,8.206,0,0,1,.805-1.833,8.127,8.127,0,0,1-1.99-.219" transform="translate(-241.617 -211.314)" fill="#018837"/>
                <path id="Path_60" data-name="Path 60" d="M310.331,187.651a12.539,12.539,0,0,0,1.257-2.1,12.626,12.626,0,0,0-2.442.045,8.056,8.056,0,0,1-.806,1.833,8.137,8.137,0,0,1,1.99.219" transform="translate(-295.214 -181.129)" fill="#018837"/>
                <path id="Path_61" data-name="Path 61" d="M255.822,231.064a8.13,8.13,0,0,1-1.943.477,12.492,12.492,0,0,0-.466,2.4,12.606,12.606,0,0,0,2.279-.876,8.107,8.107,0,0,1,.131-2" transform="translate(-250.385 -218.303)" fill="#018837"/>
                <path id="Path_62" data-name="Path 62" d="M302.154,175.8a8.087,8.087,0,0,1,1.944-.475,12.5,12.5,0,0,0,.466-2.4,12.54,12.54,0,0,0-2.278.876,8.1,8.1,0,0,1-.131,2" transform="translate(-290.166 -170.85)" fill="#018837"/>
                <path id="Path_63" data-name="Path 63" d="M265.8,237a12.559,12.559,0,0,0,.382,2.413,12.565,12.565,0,0,0,1.841-1.6,8.182,8.182,0,0,1-.559-1.923A8.218,8.218,0,0,1,265.8,237" transform="translate(-260.496 -222.243)" fill="#018837"/>
                <path id="Path_64" data-name="Path 64" d="M293,166.972a12.653,12.653,0,0,0-.381-2.412,12.455,12.455,0,0,0-1.841,1.6,8.2,8.2,0,0,1,.559,1.922A8.194,8.194,0,0,1,293,166.972" transform="translate(-280.882 -164.026)" fill="#018837"/>
                <path id="Path_65" data-name="Path 65" d="M275.991,176.555a5.622,5.622,0,0,1,.607-1.66,8.119,8.119,0,0,0-1.184-1.615,8.159,8.159,0,0,0-.56,1.923,5.594,5.594,0,0,1,1.137,1.351" transform="translate(-267.885 -171.143)" fill="#73be1e"/>
                <path id="Path_66" data-name="Path 66" d="M284.946,228.536a5.62,5.62,0,0,1-.606,1.66,8.108,8.108,0,0,0,1.184,1.616,8.227,8.227,0,0,0,.559-1.924,5.6,5.6,0,0,1-1.137-1.351" transform="translate(-275.626 -216.24)" fill="#73be1e"/>
                <path id="Path_67" data-name="Path 67" d="M265.877,179.687a5.6,5.6,0,0,1,1.53.881,5.632,5.632,0,0,1,0-1.767,8.181,8.181,0,0,0-1.664-1.112,8.091,8.091,0,0,0,.131,2" transform="translate(-260.44 -174.741)" fill="#73be1e"/>
                <path id="Path_68" data-name="Path 68" d="M295.352,227.162a5.607,5.607,0,0,1-1.529-.88,5.645,5.645,0,0,1,0,1.767,8.2,8.2,0,0,0,1.664,1.114,8.108,8.108,0,0,0-.131-2" transform="translate(-283.364 -214.4)" fill="#73be1e"/>
                <path id="Path_69" data-name="Path 69" d="M258.493,188.109a5.567,5.567,0,0,1-.6-1.661,8.087,8.087,0,0,0-1.943-.475,8.217,8.217,0,0,0,.806,1.833,5.608,5.608,0,0,1,1.74.3" transform="translate(-252.454 -181.502)" fill="#73be1e"/>
                <path id="Path_70" data-name="Path 70" d="M298.884,222.035a5.6,5.6,0,0,1,.6,1.66,8.1,8.1,0,0,0,1.944.477,8.056,8.056,0,0,0-.806-1.833,5.6,5.6,0,0,1-1.738-.3" transform="translate(-287.497 -210.934)" fill="#73be1e"/>
                <path id="Path_71" data-name="Path 71" d="M250.889,197.605a5.6,5.6,0,0,1,1.738-.309,5.607,5.607,0,0,1-1.132-1.355,8.137,8.137,0,0,0-1.99.219,8.194,8.194,0,0,0,1.385,1.447" transform="translate(-247.196 -189.635)" fill="#73be1e"/>
                <path id="Path_72" data-name="Path 72" d="M303.923,214.634a5.615,5.615,0,0,1-1.738.309,5.58,5.58,0,0,1,1.132,1.356,8.116,8.116,0,0,0,1.991-.219,8.128,8.128,0,0,0-1.384-1.446" transform="translate(-290.191 -204.894)" fill="#73be1e"/>
                <path id="Path_73" data-name="Path 73" d="M250.594,205.884a5.63,5.63,0,0,1-1.527-.884,8.118,8.118,0,0,0-1.795.886,8.072,8.072,0,0,0,1.795.886,5.6,5.6,0,0,1,1.527-.886" transform="translate(-245.374 -197.031)" fill="#73be1e"/>
                <path id="Path_74" data-name="Path 74" d="M303.328,205.884a5.574,5.574,0,0,1,1.528.886,8.1,8.1,0,0,0,1.794-.886,8.124,8.124,0,0,0-1.794-.884,5.606,5.606,0,0,1-1.528.886" transform="translate(-291.124 -197.031)" fill="#73be1e"/>
                <path id="Path_75" data-name="Path 75" d="M251.492,216.3a5.592,5.592,0,0,1,1.132-1.356,5.6,5.6,0,0,1-1.738-.309,8.175,8.175,0,0,0-1.385,1.446,8.13,8.13,0,0,0,1.99.219" transform="translate(-247.193 -204.896)" fill="#73be1e"/>
                <path id="Path_76" data-name="Path 76" d="M303.316,195.934a5.574,5.574,0,0,1-1.132,1.355,5.6,5.6,0,0,1,1.738.31,8.166,8.166,0,0,0,1.384-1.447,8.119,8.119,0,0,0-1.99-.219" transform="translate(-290.19 -189.63)" fill="#73be1e"/>
                <path id="Path_77" data-name="Path 77" d="M258.492,222.035a5.608,5.608,0,0,1-1.74.3,8.2,8.2,0,0,0-.805,1.833,8.114,8.114,0,0,0,1.943-.477,5.585,5.585,0,0,1,.6-1.66" transform="translate(-252.454 -210.934)" fill="#73be1e"/>
                <path id="Path_78" data-name="Path 78" d="M298.884,188.108a5.6,5.6,0,0,1,1.738-.3,8.065,8.065,0,0,0,.806-1.833,8.079,8.079,0,0,0-1.944.475,5.608,5.608,0,0,1-.6,1.662" transform="translate(-287.497 -181.5)" fill="#73be1e"/>
                <path id="Path_79" data-name="Path 79" d="M275.991,228.534a5.589,5.589,0,0,1-1.137,1.351,8.2,8.2,0,0,0,.56,1.924,8.155,8.155,0,0,0,1.184-1.616,5.614,5.614,0,0,1-.607-1.66" transform="translate(-267.885 -216.238)" fill="#73be1e"/>
                <path id="Path_80" data-name="Path 80" d="M267.408,226.282a5.609,5.609,0,0,1-1.53.88,8.1,8.1,0,0,0-.131,2,8.21,8.21,0,0,0,1.664-1.114,5.628,5.628,0,0,1,0-1.767" transform="translate(-260.442 -214.4)" fill="#73be1e"/>
                <path id="Path_81" data-name="Path 81" d="M284.946,176.558a5.591,5.591,0,0,1,1.137-1.351,8.184,8.184,0,0,0-.559-1.922,8.066,8.066,0,0,0-1.184,1.615,5.61,5.61,0,0,1,.606,1.66" transform="translate(-275.626 -171.145)" fill="#73be1e"/>
                <path id="Path_82" data-name="Path 82" d="M293.823,180.562a5.6,5.6,0,0,1,1.529-.881,8.081,8.081,0,0,0,.131-2,8.208,8.208,0,0,0-1.664,1.113,5.647,5.647,0,0,1,0,1.767" transform="translate(-283.363 -174.736)" fill="#73be1e"/>
                <path id="Path_83" data-name="Path 83" d="M268.23,192.876a4.762,4.762,0,0,0-1.142-1.367,4.793,4.793,0,0,0,.612,1.673,4.777,4.777,0,0,0-1.54-.893,4.741,4.741,0,0,0,1.147,1.363,4.754,4.754,0,0,0-1.753-.312,4.766,4.766,0,0,0,1.543.888,4.776,4.776,0,0,0-1.753.307,4.774,4.774,0,0,0,1.753.306,4.775,4.775,0,0,0-1.543.889,4.754,4.754,0,0,0,1.753-.312,4.741,4.741,0,0,0-1.147,1.364,4.8,4.8,0,0,0,1.54-.893,4.789,4.789,0,0,0-.612,1.674,4.77,4.77,0,0,0,1.142-1.367,4.8,4.8,0,0,0,0,1.781,4.8,4.8,0,0,0,.606-1.674,4.811,4.811,0,0,0,.606,1.674,4.781,4.781,0,0,0,0-1.781,4.8,4.8,0,0,0,1.143,1.367,4.778,4.778,0,0,0-.612-1.674,4.814,4.814,0,0,0,1.54.893,4.762,4.762,0,0,0-1.146-1.364,4.751,4.751,0,0,0,1.753.312,4.81,4.81,0,0,0-1.543-.889,4.751,4.751,0,0,0,1.753-.306,4.765,4.765,0,0,0-1.753-.307,4.785,4.785,0,0,0,1.543-.888,4.757,4.757,0,0,0-1.753.312,4.744,4.744,0,0,0,1.147-1.363,4.8,4.8,0,0,0-1.54.893,4.791,4.791,0,0,0,.612-1.674,4.784,4.784,0,0,0-1.142,1.367,4.788,4.788,0,0,0,0-1.782,4.8,4.8,0,0,0-.606,1.675,4.776,4.776,0,0,0-.606-1.675,4.817,4.817,0,0,0,0,1.782" transform="translate(-260.122 -185.682)" fill="#fff"/>
                <path id="Path_84" data-name="Path 84" d="M275.676,186.874a4.809,4.809,0,0,1,0-1.782,5.6,5.6,0,0,0-1.137-1.351,5.625,5.625,0,0,0,0,1.767,4.766,4.766,0,0,1,1.142,1.367" transform="translate(-267.568 -179.68)" fill="#ffe001"/>
                <path id="Path_85" data-name="Path 85" d="M287.621,218.846a4.791,4.791,0,0,1,0,1.781,5.605,5.605,0,0,0,1.137,1.351,5.644,5.644,0,0,0,0-1.767,4.8,4.8,0,0,1-1.143-1.367" transform="translate(-278.304 -208.331)" fill="#ffe001"/>
                <path id="Path_86" data-name="Path 86" d="M268.046,189.438a5.609,5.609,0,0,0-1.53-.881,5.6,5.6,0,0,0,.6,1.661,4.782,4.782,0,0,1,1.54.893,4.8,4.8,0,0,1-.612-1.673" transform="translate(-261.08 -183.611)" fill="#ffe001"/>
                <path id="Path_87" data-name="Path 87" d="M291.119,218.852a5.608,5.608,0,0,0,1.529.88,5.609,5.609,0,0,0-.6-1.66,4.811,4.811,0,0,1-1.54-.893,4.792,4.792,0,0,1,.613,1.674" transform="translate(-280.659 -206.971)" fill="#ffe001"/>
                <path id="Path_88" data-name="Path 88" d="M263.214,197.609a4.737,4.737,0,0,1-1.146-1.363,5.607,5.607,0,0,0-1.74-.3,5.6,5.6,0,0,0,1.132,1.355,4.762,4.762,0,0,1,1.753.312" transform="translate(-256.029 -189.638)" fill="#ffe001"/>
                <path id="Path_89" data-name="Path 89" d="M292.651,214.619a4.751,4.751,0,0,1,1.145,1.363,5.6,5.6,0,0,0,1.739.3,5.577,5.577,0,0,0-1.132-1.356,4.746,4.746,0,0,1-1.753-.312" transform="translate(-282.409 -204.882)" fill="#ffe001"/>
                <path id="Path_90" data-name="Path 90" d="M260.316,204.2a4.755,4.755,0,0,1-1.543-.888,5.579,5.579,0,0,0-1.738.309,5.62,5.62,0,0,0,1.527.886,4.772,4.772,0,0,1,1.753-.307" transform="translate(-253.342 -195.654)" fill="#ffe001"/>
                <path id="Path_91" data-name="Path 91" d="M293.792,210.12a4.819,4.819,0,0,1,1.543.889,5.618,5.618,0,0,0,1.738-.309,5.566,5.566,0,0,0-1.528-.886,4.742,4.742,0,0,1-1.753.306" transform="translate(-283.341 -200.96)" fill="#ffe001"/>
                <path id="Path_92" data-name="Path 92" d="M258.563,209.815a5.6,5.6,0,0,0-1.527.886,5.6,5.6,0,0,0,1.737.309,4.777,4.777,0,0,1,1.543-.889,4.777,4.777,0,0,1-1.753-.306" transform="translate(-253.343 -200.961)" fill="#ffe001"/>
                <path id="Path_93" data-name="Path 93" d="M295.545,204.509a5.608,5.608,0,0,0,1.528-.886,5.592,5.592,0,0,0-1.738-.309,4.785,4.785,0,0,1-1.543.888,4.765,4.765,0,0,1,1.753.307" transform="translate(-283.341 -195.655)" fill="#ffe001"/>
                <path id="Path_94" data-name="Path 94" d="M263.216,214.618a4.754,4.754,0,0,1-1.752.312,5.582,5.582,0,0,0-1.132,1.356,5.6,5.6,0,0,0,1.74-.3,4.738,4.738,0,0,1,1.146-1.363" transform="translate(-256.031 -204.881)" fill="#ffe001"/>
                <path id="Path_95" data-name="Path 95" d="M292.645,197.609a4.761,4.761,0,0,1,1.753-.312,5.6,5.6,0,0,0,1.132-1.355,5.607,5.607,0,0,0-1.738.3,4.743,4.743,0,0,1-1.147,1.363" transform="translate(-282.405 -189.638)" fill="#ffe001"/>
                <path id="Path_96" data-name="Path 96" d="M281.037,221.1a5.625,5.625,0,0,0,.607,1.66,5.614,5.614,0,0,0,.606-1.66,4.807,4.807,0,0,1-.606-1.675,4.79,4.79,0,0,1-.607,1.675" transform="translate(-272.931 -208.805)" fill="#ffe001"/>
                <path id="Path_97" data-name="Path 97" d="M275.677,218.848a4.775,4.775,0,0,1-1.142,1.367,5.628,5.628,0,0,0,0,1.767,5.6,5.6,0,0,0,1.137-1.351,4.8,4.8,0,0,1,0-1.781" transform="translate(-267.569 -208.333)" fill="#ffe001"/>
                <path id="Path_98" data-name="Path 98" d="M267.118,218.07a5.576,5.576,0,0,0-.6,1.66,5.616,5.616,0,0,0,1.53-.88,4.8,4.8,0,0,1,.611-1.674,4.8,4.8,0,0,1-1.54.893" transform="translate(-261.08 -206.97)" fill="#ffe001"/>
                <path id="Path_99" data-name="Path 99" d="M282.25,183.726a5.613,5.613,0,0,0-.606-1.66,5.612,5.612,0,0,0-.607,1.66,4.791,4.791,0,0,1,.607,1.676,4.792,4.792,0,0,1,.606-1.675" transform="translate(-272.931 -178.313)" fill="#ffe001"/>
                <path id="Path_100" data-name="Path 100" d="M287.621,186.871a4.781,4.781,0,0,1,1.143-1.368,5.647,5.647,0,0,0,0-1.767,5.581,5.581,0,0,0-1.137,1.351,4.794,4.794,0,0,1,0,1.782" transform="translate(-278.304 -179.677)" fill="#ffe001"/>
                <path id="Path_101" data-name="Path 101" d="M292.046,190.218a5.614,5.614,0,0,0,.6-1.661,5.6,5.6,0,0,0-1.529.881,4.8,4.8,0,0,1-.613,1.673,4.8,4.8,0,0,1,1.54-.893" transform="translate(-280.658 -183.611)" fill="#ffe001"/>
              </g>
            </g>
          </g>
        </g>
      </g>
      <path id="Path_102" data-name="Path 102" d="M125.95,164.561a8.32,8.32,0,1,0,8.295,8.32,8.32,8.32,0,0,0-8.295-8.32" transform="translate(-117.604 -164.027)" fill="#018837"/>
      <path id="Path_103" data-name="Path 103" d="M139.712,193.369a1.088,1.088,0,1,1,1.031-1.082,1.028,1.028,0,0,1-1.031,1.082m.019-3.571a2.4,2.4,0,0,0-2.606,2.48,2.589,2.589,0,1,0,2.606-2.48m-4.034-2.173a.855.855,0,0,0-.964.862c0,.536.382.871.992.871a.856.856,0,0,0,.964-.87c0-.536-.382-.862-.993-.862m.1,2.221h-.191c-.468,0-.821.219-.821.89V193.8c0,.68.344.891.84.891h.191c.468,0,.8-.23.8-.891v-3.064c0-.689-.325-.89-.821-.89m-2.5-1.446h-.277c-.525,0-.811.3-.811.891v2.863c0,.737-.248,1-.831,1a1.4,1.4,0,0,1-1.126-.565.958.958,0,0,0-.63.958c0,.767.716,1.235,2.043,1.235,1.613,0,2.463-.814,2.463-2.595v-2.892c0-.594-.286-.891-.83-.891" transform="translate(-127.392 -182.848)" fill="#fff"/>
      <path id="Path_104" data-name="Path 104" d="M221.672,164.561V181.2h.289V164.561Z" transform="translate(-202.515 -164.027)" fill="#018837"/>
    </g>
    <g id="Group_19" data-name="Group 19" transform="translate(150.679 132)">
      <path id="Path_105" data-name="Path 105" d="M299.708,134.694c0,.5-.179,1.2-.892,1.2-.862,0-.862-.966-.862-1.169s0-1.231.885-1.231C299.648,133.494,299.708,134.387,299.708,134.694ZM297.966,132h-.578v3.717l-.013.554h.559l.013-.467a.994.994,0,0,0,.3.314,1.223,1.223,0,0,0,.689.2,1.307,1.307,0,0,0,1.084-.529,1.784,1.784,0,0,0,.3-1.127,1.627,1.627,0,0,0-.363-1.163,1.265,1.265,0,0,0-.979-.394,1.032,1.032,0,0,0-1.009.529Z" transform="translate(-297.375 -132)" fill="#018837"/>
      <path id="Path_106" data-name="Path 106" d="M316.263,139.836c0-.277,0-1.256.923-1.256.683,0,.85.578.85,1.132a1.73,1.73,0,0,1-.252.966.788.788,0,0,1-.652.3C316.319,140.981,316.263,140.211,316.263,139.836Zm-.553,2.639h.572v-1.534a1.068,1.068,0,0,0,.949.462c.739,0,1.409-.5,1.409-1.656s-.633-1.6-1.3-1.6a1.2,1.2,0,0,0-1.053.56l-.012-.511h-.584c.012.3.019.369.019.5Z" transform="translate(-312.325 -137.018)" fill="#018837"/>
    </g>
  </g>
</svg>
