<svg xmlns="http://www.w3.org/2000/svg" width="16" height="16" viewBox="0 0 16 16"><defs><style>.a{fill:none;}.b{fill:#fff;}.c{fill:#178b49;}</style></defs><g transform="translate(0.211)"><g transform="translate(-0.211)"><rect class="a" width="16" height="16"/></g><g transform="translate(0.686 2.091)"><path class="b" d="M-21706.564,10457.078l-6.1,4.275-6.455-4.275Z" transform="translate(21720.102 -10455.857)"/><path class="c" d="M16.013,7H2.667A.667.667,0,0,0,2,7.667V17.676a.667.667,0,0,0,.667.667H16.013a.667.667,0,0,0,.667-.667V7.667A.667.667,0,0,0,16.013,7Zm-.667,10.009H3.335V10.236l5.839,3.436a.3.3,0,0,0,.334,0l5.839-3.536ZM9.507,12.138a.3.3,0,0,1-.334,0l-5.839-3.8H15.345Z" transform="translate(-2 -7)"/></g></g></svg>