<svg xmlns="http://www.w3.org/2000/svg" width="44.936" height="44.936" viewBox="0 0 44.936 44.936">
  <g id="Group_3910" data-name="Group 3910" transform="translate(-338.99 -1110.989)">
    <g id="Group_3884" data-name="Group 3884" transform="translate(338.99 1110.989)">
      <g id="Layer_x0020_1" transform="translate(8.495 3.05)">
        <path id="Path_677" data-name="Path 677" d="M15.433.848a13.86,13.86,0,0,1,13.86,13.86c0,2.7-1.62,6.58-3.735,10.465C21.688,32.282,15.816,39.5,15.433,39.5S9.178,32.282,5.308,25.173c-2.115-3.885-3.735-7.764-3.735-10.465A13.86,13.86,0,0,1,15.433.848Zm8.664,5.2A12.253,12.253,0,0,0,3.181,14.708c0,2.4,1.533,6.023,3.534,9.7,3.643,6.692,8.492,13.481,8.719,13.481s5.076-6.79,8.719-13.481c2-3.676,3.534-7.3,3.534-9.7A12.214,12.214,0,0,0,24.1,6.044Z" transform="translate(-1.573 -0.848)" fill="#129048"/>
        <path id="Path_678" data-name="Path 678" d="M12.862,1.242a10.894,10.894,0,1,1-7.7,3.191,10.86,10.86,0,0,1,7.7-3.191Zm6.851,4.043a9.689,9.689,0,1,0,2.838,6.851,9.659,9.659,0,0,0-2.838-6.851Z" transform="translate(0.998 1.724)" fill="#129048"/>
        <path id="Path_679" data-name="Path 679" d="M21.743,21.018a10.894,10.894,0,1,1,3.191-7.7,10.86,10.86,0,0,1-3.191,7.7ZM22.7,4.65A12.253,12.253,0,0,0,1.787,13.314c0,2.4,1.533,6.023,3.534,9.7,3.643,6.692,8.492,13.481,8.719,13.481s5.076-6.79,8.719-13.481c2-3.676,3.534-7.3,3.534-9.7A12.214,12.214,0,0,0,22.7,4.65Z" transform="translate(-0.18 0.546)" fill="#f45a52" fill-rule="evenodd" opacity="0"/>
        <path id="Path_680" data-name="Path 680" d="M11.816,20.78a9.689,9.689,0,1,0-6.851-2.838A9.659,9.659,0,0,0,11.816,20.78Z" transform="translate(2.044 2.769)" fill="#129048" fill-rule="evenodd"/>
        <path id="Path_681" data-name="Path 681" d="M6.522,2.267l9.561,2.766,1.254-.988a.4.4,0,0,1,.354-.071l1.39.32a.4.4,0,0,1,.261.586l-1.1,2.127a1.422,1.422,0,0,1-.657.648,1.541,1.541,0,0,1-.169.071l.652,1.066a.4.4,0,0,1-.432.6h0l-1.407-.324a.4.4,0,0,1-.207-.121h0l-1.35-1.488L11.8,6.928l1.3,2.126a.4.4,0,0,1-.432.6h0l-2.324-.535a.4.4,0,0,1-.19-.1L6.623,5.93,3.175,5.352A.4.4,0,0,1,3.03,5.3a1.266,1.266,0,0,1-.739-.863,1.071,1.071,0,0,1,.26-.861,2.726,2.726,0,0,1,.716-.6,4.91,4.91,0,0,1,3.255-.7Zm9.537,3.592L6.3,3.036a4.035,4.035,0,0,0-2.615.62,1.949,1.949,0,0,0-.506.414.326.326,0,0,0-.1.227c.014.079.1.171.288.275l3.5.586h0a.4.4,0,0,1,.2.094l3.56,3.108,1.3.3L10.649,6.58h0a.4.4,0,0,1,.414-.6l3.866.714a.4.4,0,0,1,.245.128L16.53,8.313l.355.082-.476-.778A.4.4,0,0,1,16.8,7a.736.736,0,0,0,.432-.067.545.545,0,0,0,.254-.2h0a.4.4,0,0,1,.029-.074l.881-1.7-.716-.165-1.264,1h0a.4.4,0,0,1-.359.07Z" transform="translate(3.024 7.934)" fill="#212121" opacity="0"/>
        <path id="Path_682" data-name="Path 682" d="M9.953,5.894Zm5.409-.721L5.6,2.349a4.035,4.035,0,0,0-2.615.62,1.949,1.949,0,0,0-.506.414.326.326,0,0,0-.1.227c.014.079.1.171.288.275l3.5.586h0a.4.4,0,0,1,.2.094l3.56,3.108,1.3.3L9.953,5.893a.4.4,0,0,1,.414-.6L14.233,6a.4.4,0,0,1,.245.128l1.356,1.494.355.082-.476-.778a.4.4,0,0,1,.391-.618.736.736,0,0,0,.432-.067.545.545,0,0,0,.254-.2h0a.4.4,0,0,1,.029-.074l.881-1.7-.716-.165-1.264,1h0a.4.4,0,0,1-.359.07Z" transform="translate(3.721 8.62)" fill="#feca5f" fill-rule="evenodd" opacity="0"/>
        <g id="Group_3885" data-name="Group 3885" transform="translate(5.08 4.9)">
          <g id="Group_16" data-name="Group 16">
            <g id="Group_15" data-name="Group 15">
              <g id="Group_14" data-name="Group 14">
                <g id="Group_13" data-name="Group 13">
                  <path id="Path_47" data-name="Path 47" d="M280.263,163.79a12.681,12.681,0,0,0-1.183-2.135,12.531,12.531,0,0,0-1.183,2.135,8.13,8.13,0,0,1,1.183,1.614,8.052,8.052,0,0,1,1.183-1.614" transform="translate(-270.376 -161.655)" fill="#018837" fill-rule="evenodd"/>
                  <path id="Path_48" data-name="Path 48" d="M277.9,239.178a12.531,12.531,0,0,0,1.183,2.135,12.673,12.673,0,0,0,1.183-2.135,8.084,8.084,0,0,1-1.183-1.614,8.172,8.172,0,0,1-1.183,1.614" transform="translate(-270.376 -223.622)" fill="#018837" fill-rule="evenodd"/>
                  <path id="Path_49" data-name="Path 49" d="M268.026,166.161a12.517,12.517,0,0,0-1.84-1.6,12.547,12.547,0,0,0-.381,2.411,8.173,8.173,0,0,1,1.662,1.111,8.163,8.163,0,0,1,.559-1.921" transform="translate(-260.505 -164.026)" fill="#018837" fill-rule="evenodd"/>
                  <path id="Path_50" data-name="Path 50" d="M290.779,237.813a12.512,12.512,0,0,0,1.84,1.6A12.659,12.659,0,0,0,293,237a8.211,8.211,0,0,1-1.662-1.113,8.2,8.2,0,0,1-.558,1.922" transform="translate(-280.892 -222.256)" fill="#018837" fill-rule="evenodd"/>
                  <path id="Path_51" data-name="Path 51" d="M255.687,173.8a12.637,12.637,0,0,0-2.276-.876,12.507,12.507,0,0,0,.466,2.4,8.094,8.094,0,0,1,1.941.475,8.09,8.09,0,0,1-.131-2" transform="translate(-250.388 -170.851)" fill="#018837" fill-rule="evenodd"/>
                  <path id="Path_52" data-name="Path 52" d="M302.285,233.064a12.552,12.552,0,0,0,2.276.874,12.488,12.488,0,0,0-.466-2.4,8.092,8.092,0,0,1-1.942-.477,8.112,8.112,0,0,1,.131,2" transform="translate(-290.178 -218.316)" fill="#018837" fill-rule="evenodd"/>
                  <path id="Path_53" data-name="Path 53" d="M245.912,187.431a8.21,8.21,0,0,1-.8-1.831,12.464,12.464,0,0,0-2.439-.043,12.621,12.621,0,0,0,1.255,2.092,8.121,8.121,0,0,1,1.988-.217" transform="translate(-241.619 -181.133)" fill="#018837" fill-rule="evenodd"/>
                  <path id="Path_54" data-name="Path 54" d="M308.34,222.72a8.053,8.053,0,0,1,.806,1.831,12.65,12.65,0,0,0,2.439.044,12.49,12.49,0,0,0-1.256-2.094,8.119,8.119,0,0,1-1.989.219" transform="translate(-295.228 -211.325)" fill="#018837" fill-rule="evenodd"/>
                  <path id="Path_55" data-name="Path 55" d="M239.256,197.127a12.5,12.5,0,0,0-2.305.794,12.653,12.653,0,0,0,1.9,1.536,8.112,8.112,0,0,1,1.793-.885,8.217,8.217,0,0,1-1.384-1.445" transform="translate(-236.951 -190.612)" fill="#018837" fill-rule="evenodd"/>
                  <path id="Path_56" data-name="Path 56" d="M313.43,209.815a8.076,8.076,0,0,1-1.792.885,8.117,8.117,0,0,1,1.383,1.445,12.441,12.441,0,0,0,2.305-.794,12.452,12.452,0,0,0-1.9-1.536" transform="translate(-297.92 -200.969)" fill="#018837" fill-rule="evenodd"/>
                  <path id="Path_57" data-name="Path 57" d="M240.641,210.7a8.067,8.067,0,0,1-1.793-.885,12.568,12.568,0,0,0-1.9,1.536,12.494,12.494,0,0,0,2.305.794,8.169,8.169,0,0,1,1.384-1.445" transform="translate(-236.952 -200.969)" fill="#018837" fill-rule="evenodd"/>
                  <path id="Path_58" data-name="Path 58" d="M311.638,198.572a8.125,8.125,0,0,1,1.792.885,12.528,12.528,0,0,0,1.9-1.536,12.423,12.423,0,0,0-2.305-.794,8.155,8.155,0,0,1-1.383,1.445" transform="translate(-297.92 -190.612)" fill="#018837" fill-rule="evenodd"/>
                  <path id="Path_59" data-name="Path 59" d="M243.924,222.5a12.567,12.567,0,0,0-1.255,2.094,12.632,12.632,0,0,0,2.439-.044,8.2,8.2,0,0,1,.8-1.831,8.111,8.111,0,0,1-1.988-.219" transform="translate(-241.619 -211.325)" fill="#018837" fill-rule="evenodd"/>
                  <path id="Path_60" data-name="Path 60" d="M310.33,187.648a12.563,12.563,0,0,0,1.256-2.094,12.626,12.626,0,0,0-2.439.044,8.036,8.036,0,0,1-.805,1.831,8.121,8.121,0,0,1,1.989.218" transform="translate(-295.229 -181.133)" fill="#018837" fill-rule="evenodd"/>
                  <path id="Path_61" data-name="Path 61" d="M255.819,231.066a8.123,8.123,0,0,1-1.941.477,12.49,12.49,0,0,0-.466,2.4,12.593,12.593,0,0,0,2.276-.874,8.1,8.1,0,0,1,.131-2" transform="translate(-250.389 -218.317)" fill="#018837" fill-rule="evenodd"/>
                  <path id="Path_62" data-name="Path 62" d="M302.154,175.792a8.077,8.077,0,0,1,1.942-.475,12.485,12.485,0,0,0,.466-2.4,12.515,12.515,0,0,0-2.276.874,8.092,8.092,0,0,1-.131,2" transform="translate(-290.178 -170.851)" fill="#018837" fill-rule="evenodd"/>
                  <path id="Path_63" data-name="Path 63" d="M265.8,237a12.567,12.567,0,0,0,.381,2.41,12.567,12.567,0,0,0,1.84-1.6,8.175,8.175,0,0,1-.559-1.922A8.211,8.211,0,0,1,265.8,237" transform="translate(-260.505 -222.256)" fill="#018837" fill-rule="evenodd"/>
                  <path id="Path_64" data-name="Path 64" d="M293,166.97a12.644,12.644,0,0,0-.381-2.41,12.435,12.435,0,0,0-1.84,1.6,8.172,8.172,0,0,1,.559,1.92A8.19,8.19,0,0,1,293,166.97" transform="translate(-280.892 -164.026)" fill="#018837" fill-rule="evenodd"/>
                  <path id="Path_65" data-name="Path 65" d="M275.99,176.552a5.609,5.609,0,0,1,.606-1.658,8.092,8.092,0,0,0-1.183-1.614,8.165,8.165,0,0,0-.559,1.921,5.593,5.593,0,0,1,1.136,1.351" transform="translate(-267.892 -171.145)" fill="#73be1e" fill-rule="evenodd"/>
                  <path id="Path_66" data-name="Path 66" d="M284.944,228.536a5.608,5.608,0,0,1-.606,1.658,8.108,8.108,0,0,0,1.183,1.614,8.2,8.2,0,0,0,.559-1.922,5.6,5.6,0,0,1-1.136-1.351" transform="translate(-275.634 -216.252)" fill="#73be1e" fill-rule="evenodd"/>
                  <path id="Path_67" data-name="Path 67" d="M265.88,179.685a5.6,5.6,0,0,1,1.529.88,5.618,5.618,0,0,1,0-1.766,8.172,8.172,0,0,0-1.662-1.111,8.078,8.078,0,0,0,.131,2" transform="translate(-260.45 -174.744)" fill="#73be1e" fill-rule="evenodd"/>
                  <path id="Path_68" data-name="Path 68" d="M295.351,227.161a5.6,5.6,0,0,1-1.527-.879,5.639,5.639,0,0,1,0,1.765,8.2,8.2,0,0,0,1.662,1.112,8.1,8.1,0,0,0-.131-2" transform="translate(-283.375 -214.412)" fill="#73be1e" fill-rule="evenodd"/>
                  <path id="Path_69" data-name="Path 69" d="M258.49,188.106a5.581,5.581,0,0,1-.6-1.66,8.081,8.081,0,0,0-1.941-.475,8.2,8.2,0,0,0,.8,1.831,5.608,5.608,0,0,1,1.738.3" transform="translate(-252.458 -181.505)" fill="#73be1e" fill-rule="evenodd"/>
                  <path id="Path_70" data-name="Path 70" d="M298.884,222.035a5.594,5.594,0,0,1,.6,1.659,8.1,8.1,0,0,0,1.942.477,8.054,8.054,0,0,0-.806-1.831,5.592,5.592,0,0,1-1.737-.3" transform="translate(-287.509 -210.945)" fill="#73be1e" fill-rule="evenodd"/>
                  <path id="Path_71" data-name="Path 71" d="M250.886,197.6a5.579,5.579,0,0,1,1.736-.309,5.6,5.6,0,0,1-1.132-1.354,8.124,8.124,0,0,0-1.988.218,8.2,8.2,0,0,0,1.384,1.445" transform="translate(-247.197 -189.636)" fill="#73be1e" fill-rule="evenodd"/>
                  <path id="Path_72" data-name="Path 72" d="M303.921,214.635a5.617,5.617,0,0,1-1.736.309,5.573,5.573,0,0,1,1.13,1.354,8.106,8.106,0,0,0,1.989-.218,8.117,8.117,0,0,0-1.383-1.445" transform="translate(-290.203 -204.904)" fill="#73be1e" fill-rule="evenodd"/>
                  <path id="Path_73" data-name="Path 73" d="M250.591,205.881a5.617,5.617,0,0,1-1.525-.885,8.108,8.108,0,0,0-1.793.885,8.067,8.067,0,0,0,1.793.885,5.586,5.586,0,0,1,1.525-.885" transform="translate(-245.376 -197.036)" fill="#73be1e" fill-rule="evenodd"/>
                  <path id="Path_74" data-name="Path 74" d="M303.328,205.881a5.57,5.57,0,0,1,1.526.885,8.083,8.083,0,0,0,1.792-.885,8.124,8.124,0,0,0-1.792-.885,5.6,5.6,0,0,1-1.526.885" transform="translate(-291.137 -197.036)" fill="#73be1e" fill-rule="evenodd"/>
                  <path id="Path_75" data-name="Path 75" d="M251.491,216.3a5.583,5.583,0,0,1,1.132-1.355,5.6,5.6,0,0,1-1.736-.309,8.175,8.175,0,0,0-1.384,1.445,8.129,8.129,0,0,0,1.988.219" transform="translate(-247.198 -204.904)" fill="#73be1e" fill-rule="evenodd"/>
                  <path id="Path_76" data-name="Path 76" d="M303.315,195.934a5.576,5.576,0,0,1-1.13,1.354,5.588,5.588,0,0,1,1.736.309,8.157,8.157,0,0,0,1.383-1.445,8.112,8.112,0,0,0-1.989-.217" transform="translate(-290.203 -189.636)" fill="#73be1e" fill-rule="evenodd"/>
                  <path id="Path_77" data-name="Path 77" d="M258.49,222.035a5.6,5.6,0,0,1-1.738.3,8.187,8.187,0,0,0-.8,1.831,8.116,8.116,0,0,0,1.941-.477,5.576,5.576,0,0,1,.6-1.659" transform="translate(-252.458 -210.945)" fill="#73be1e" fill-rule="evenodd"/>
                  <path id="Path_78" data-name="Path 78" d="M298.884,188.106a5.6,5.6,0,0,1,1.737-.3,8.063,8.063,0,0,0,.806-1.831,8.072,8.072,0,0,0-1.942.475,5.6,5.6,0,0,1-.6,1.66" transform="translate(-287.509 -181.505)" fill="#73be1e" fill-rule="evenodd"/>
                  <path id="Path_79" data-name="Path 79" d="M275.99,228.536a5.593,5.593,0,0,1-1.136,1.351,8.185,8.185,0,0,0,.559,1.922,8.141,8.141,0,0,0,1.183-1.614,5.613,5.613,0,0,1-.606-1.658" transform="translate(-267.892 -216.252)" fill="#73be1e" fill-rule="evenodd"/>
                  <path id="Path_80" data-name="Path 80" d="M267.409,226.282a5.615,5.615,0,0,1-1.529.879,8.1,8.1,0,0,0-.131,2,8.208,8.208,0,0,0,1.662-1.113,5.617,5.617,0,0,1,0-1.765" transform="translate(-260.45 -214.412)" fill="#73be1e" fill-rule="evenodd"/>
                  <path id="Path_81" data-name="Path 81" d="M284.944,176.552a5.59,5.59,0,0,1,1.136-1.351,8.167,8.167,0,0,0-.559-1.921,8.06,8.06,0,0,0-1.183,1.614,5.6,5.6,0,0,1,.606,1.658" transform="translate(-275.634 -171.145)" fill="#73be1e" fill-rule="evenodd"/>
                  <path id="Path_82" data-name="Path 82" d="M293.823,180.56a5.592,5.592,0,0,1,1.527-.88,8.086,8.086,0,0,0,.131-2,8.194,8.194,0,0,0-1.662,1.112,5.633,5.633,0,0,1,0,1.765" transform="translate(-283.374 -174.738)" fill="#73be1e" fill-rule="evenodd"/>
                  <path id="Path_83" data-name="Path 83" d="M268.225,192.874a4.76,4.76,0,0,0-1.141-1.366,4.784,4.784,0,0,0,.611,1.672,4.776,4.776,0,0,0-1.538-.892,4.739,4.739,0,0,0,1.145,1.362,4.748,4.748,0,0,0-1.751-.312,4.761,4.761,0,0,0,1.541.888,4.767,4.767,0,0,0-1.752.307,4.772,4.772,0,0,0,1.752.306,4.768,4.768,0,0,0-1.541.888,4.748,4.748,0,0,0,1.751-.312,4.74,4.74,0,0,0-1.145,1.362,4.794,4.794,0,0,0,1.538-.892,4.783,4.783,0,0,0-.611,1.672,4.77,4.77,0,0,0,1.141-1.365,4.8,4.8,0,0,0,0,1.779,4.8,4.8,0,0,0,.606-1.673,4.8,4.8,0,0,0,.606,1.673,4.785,4.785,0,0,0,0-1.779,4.79,4.79,0,0,0,1.141,1.365,4.784,4.784,0,0,0-.612-1.672,4.809,4.809,0,0,0,1.539.892,4.753,4.753,0,0,0-1.145-1.362,4.745,4.745,0,0,0,1.751.312,4.8,4.8,0,0,0-1.542-.889,4.744,4.744,0,0,0,1.752-.305,4.758,4.758,0,0,0-1.752-.307,4.777,4.777,0,0,0,1.542-.888,4.754,4.754,0,0,0-1.752.312,4.739,4.739,0,0,0,1.146-1.362,4.8,4.8,0,0,0-1.539.892,4.789,4.789,0,0,0,.612-1.672,4.78,4.78,0,0,0-1.141,1.366,4.789,4.789,0,0,0,0-1.78,4.786,4.786,0,0,0-.606,1.673,4.783,4.783,0,0,0-.606-1.673,4.8,4.8,0,0,0,0,1.78" transform="translate(-260.126 -185.687)" fill="#fff" fill-rule="evenodd"/>
                  <path id="Path_84" data-name="Path 84" d="M275.675,186.868a4.8,4.8,0,0,1,0-1.78,5.593,5.593,0,0,0-1.136-1.351,5.623,5.623,0,0,0,0,1.766,4.759,4.759,0,0,1,1.141,1.366" transform="translate(-267.576 -179.68)" fill="#ffe001" fill-rule="evenodd"/>
                  <path id="Path_85" data-name="Path 85" d="M287.621,218.848a4.782,4.782,0,0,1,0,1.779,5.6,5.6,0,0,0,1.135,1.351,5.633,5.633,0,0,0,0-1.765,4.79,4.79,0,0,1-1.142-1.365" transform="translate(-278.315 -208.343)" fill="#ffe001" fill-rule="evenodd"/>
                  <path id="Path_86" data-name="Path 86" d="M268.045,189.437a5.6,5.6,0,0,0-1.529-.88,5.593,5.593,0,0,0,.6,1.66,4.774,4.774,0,0,1,1.538.892,4.788,4.788,0,0,1-.611-1.672" transform="translate(-261.086 -183.616)" fill="#ffe001" fill-rule="evenodd"/>
                  <path id="Path_87" data-name="Path 87" d="M291.118,218.85a5.606,5.606,0,0,0,1.527.879,5.594,5.594,0,0,0-.6-1.659,4.8,4.8,0,0,1-1.539-.892,4.79,4.79,0,0,1,.612,1.672" transform="translate(-280.67 -206.98)" fill="#ffe001" fill-rule="evenodd"/>
                  <path id="Path_88" data-name="Path 88" d="M263.211,197.607a4.735,4.735,0,0,1-1.145-1.362,5.606,5.606,0,0,0-1.738-.3,5.592,5.592,0,0,0,1.132,1.354,4.755,4.755,0,0,1,1.751.312" transform="translate(-256.034 -189.645)" fill="#ffe001" fill-rule="evenodd"/>
                  <path id="Path_89" data-name="Path 89" d="M292.652,214.619a4.75,4.75,0,0,1,1.144,1.362,5.592,5.592,0,0,0,1.737.3,5.569,5.569,0,0,0-1.13-1.355,4.744,4.744,0,0,1-1.751-.312" transform="translate(-282.421 -204.891)" fill="#ffe001" fill-rule="evenodd"/>
                  <path id="Path_90" data-name="Path 90" d="M260.313,204.2a4.756,4.756,0,0,1-1.542-.888,5.575,5.575,0,0,0-1.736.309,5.617,5.617,0,0,0,1.525.885,4.767,4.767,0,0,1,1.753-.307" transform="translate(-253.346 -195.662)" fill="#ffe001" fill-rule="evenodd"/>
                  <path id="Path_91" data-name="Path 91" d="M293.792,210.119a4.811,4.811,0,0,1,1.541.889,5.61,5.61,0,0,0,1.736-.309,5.573,5.573,0,0,0-1.526-.885,4.74,4.74,0,0,1-1.751.305" transform="translate(-283.352 -200.969)" fill="#ffe001" fill-rule="evenodd"/>
                  <path id="Path_92" data-name="Path 92" d="M258.561,209.815a5.584,5.584,0,0,0-1.525.885,5.594,5.594,0,0,0,1.736.309,4.769,4.769,0,0,1,1.541-.888,4.771,4.771,0,0,1-1.752-.306" transform="translate(-253.347 -200.969)" fill="#ffe001" fill-rule="evenodd"/>
                  <path id="Path_93" data-name="Path 93" d="M295.543,204.507a5.6,5.6,0,0,0,1.526-.885,5.582,5.582,0,0,0-1.736-.309,4.783,4.783,0,0,1-1.542.888,4.762,4.762,0,0,1,1.752.307" transform="translate(-283.351 -195.662)" fill="#ffe001" fill-rule="evenodd"/>
                  <path id="Path_94" data-name="Path 94" d="M263.211,214.619a4.747,4.747,0,0,1-1.751.312,5.583,5.583,0,0,0-1.132,1.355,5.6,5.6,0,0,0,1.738-.3,4.735,4.735,0,0,1,1.145-1.362" transform="translate(-256.034 -204.891)" fill="#ffe001" fill-rule="evenodd"/>
                  <path id="Path_95" data-name="Path 95" d="M292.646,197.607a4.763,4.763,0,0,1,1.752-.312,5.578,5.578,0,0,0,1.13-1.354,5.6,5.6,0,0,0-1.737.3,4.738,4.738,0,0,1-1.146,1.362" transform="translate(-282.417 -189.645)" fill="#ffe001" fill-rule="evenodd"/>
                  <path id="Path_96" data-name="Path 96" d="M281.037,221.1a5.616,5.616,0,0,0,.606,1.658,5.613,5.613,0,0,0,.606-1.658,4.8,4.8,0,0,1-.606-1.673,4.793,4.793,0,0,1-.606,1.673" transform="translate(-272.94 -208.815)" fill="#ffe001" fill-rule="evenodd"/>
                  <path id="Path_97" data-name="Path 97" d="M275.675,218.848a4.768,4.768,0,0,1-1.141,1.365,5.619,5.619,0,0,0,0,1.765,5.594,5.594,0,0,0,1.136-1.351,4.8,4.8,0,0,1,0-1.779" transform="translate(-267.576 -208.343)" fill="#ffe001" fill-rule="evenodd"/>
                  <path id="Path_98" data-name="Path 98" d="M267.117,218.07a5.579,5.579,0,0,0-.6,1.659,5.612,5.612,0,0,0,1.529-.879,4.791,4.791,0,0,1,.611-1.672,4.787,4.787,0,0,1-1.538.892" transform="translate(-261.086 -206.98)" fill="#ffe001" fill-rule="evenodd"/>
                  <path id="Path_99" data-name="Path 99" d="M282.249,183.724a5.6,5.6,0,0,0-.606-1.658,5.612,5.612,0,0,0-.606,1.658,4.788,4.788,0,0,1,.606,1.673,4.789,4.789,0,0,1,.606-1.673" transform="translate(-272.94 -178.317)" fill="#ffe001" fill-rule="evenodd"/>
                  <path id="Path_100" data-name="Path 100" d="M287.621,186.868a4.781,4.781,0,0,1,1.142-1.366,5.637,5.637,0,0,0,0-1.766,5.585,5.585,0,0,0-1.135,1.351,4.786,4.786,0,0,1,0,1.78" transform="translate(-278.315 -179.68)" fill="#ffe001" fill-rule="evenodd"/>
                  <path id="Path_101" data-name="Path 101" d="M292.045,190.217a5.6,5.6,0,0,0,.6-1.66,5.591,5.591,0,0,0-1.527.88,4.8,4.8,0,0,1-.612,1.672,4.794,4.794,0,0,1,1.539-.892" transform="translate(-280.67 -183.616)" fill="#ffe001" fill-rule="evenodd"/>
                </g>
              </g>
            </g>
          </g>
        </g>
      </g>
      <rect id="Rectangle_198" data-name="Rectangle 198" width="44.936" height="44.936" fill="none"/>
    </g>
  </g>
</svg>
