<svg xmlns="http://www.w3.org/2000/svg" width="62.972" height="63.733" viewBox="0 0 62.972 63.733">
  <g id="reshot-icon-services-PFJZSD8BHQ" transform="translate(-0.521 0.25)">
    <g id="Group_3987" data-name="Group 3987" transform="translate(0.771)">
      <path id="Path_41126" data-name="Path 41126" d="M36.63,63.233H26.321l-.665-8.084A23.716,23.716,0,0,1,19.1,52.22l-5.911,5.064L5.909,49.91l5.171-6.189a24.305,24.305,0,0,1-2.594-6.784L.771,36.285l0-10.413L8.755,25.2a24.285,24.285,0,0,1,2.9-6.654l-5-5.982L13.939,5.19l6.116,5.241a23.686,23.686,0,0,1,6.683-2.617L27.382,0H37.693l.666,8.085a23.79,23.79,0,0,1,6.556,2.928l5.913-5.065,7.281,7.373L52.934,19.51A24.336,24.336,0,0,1,55.529,26.3l7.714.651V37.36l-7.982.674a24.286,24.286,0,0,1-2.9,6.654l5,5.982-7.281,7.374L43.957,52.8a23.733,23.733,0,0,1-6.681,2.618Zm-8.489-1.976h6.669l.618-7.482.735-.142a21.774,21.774,0,0,0,7.376-2.884l.615-.381,5.809,4.976,4.726-4.786L49.9,44.826l.414-.616a22.368,22.368,0,0,0,3.2-7.33l.165-.7,7.588-.64V28.763l-7.391-.624-.139-.739a22.443,22.443,0,0,0-2.851-7.48l-.365-.6,4.919-5.885L50.714,8.646l-5.659,4.848-.625-.431A21.86,21.86,0,0,0,37.2,9.823l-.692-.169-.632-7.678H29.2l-.617,7.482L27.85,9.6a21.766,21.766,0,0,0-7.376,2.884l-.615.381L14.052,7.888,9.326,12.673l4.791,5.733-.413.616a22.354,22.354,0,0,0-3.2,7.33l-.165.7-7.588.64v6.78l7.392.624.139.739a22.363,22.363,0,0,0,2.851,7.478l.366.6L8.576,49.8,13.3,54.585l5.657-4.846.626.431a21.793,21.793,0,0,0,7.231,3.239l.693.168Z" transform="translate(-0.771)" fill="#a3c854" stroke="#a3c854" stroke-width="0.5"/>
    </g>
    <g id="Group_3988" data-name="Group 3988" transform="translate(14.753 14.157)">
      <path id="Path_41127" data-name="Path 41127" d="M31.05,46.118H29.074a17.378,17.378,0,0,1,17.255-17.46v1.976A15.4,15.4,0,0,0,31.05,46.118Z" transform="translate(-29.074 -28.658)" fill="#129048" stroke="#129048" stroke-width="0.5"/>
    </g>
    <g id="Group_3989" data-name="Group 3989" transform="translate(21.602 21.093)">
      <path id="Path_41128" data-name="Path 41128" d="M53.343,63.746a10.525,10.525,0,1,1,10.4-10.524A10.477,10.477,0,0,1,53.343,63.746Zm0-19.072a8.549,8.549,0,1,0,8.428,8.548A8.5,8.5,0,0,0,53.343,44.674Z" transform="translate(-42.939 -42.698)" fill="#129048" stroke="#129048" stroke-width="0.5"/>
    </g>
  </g>
</svg>
