<svg xmlns="http://www.w3.org/2000/svg" width="22.073" height="24.346" viewBox="0 0 22.073 24.346"><defs><style>.a{fill:#178b49;}.b{fill:#fff;}</style></defs><g transform="translate(8376.066)"><path class="a" d="M19.222,24.346c-.051-.018-.1-.039-.153-.054a1.536,1.536,0,0,1-1.131-1.475c-.006-1.616,0-3.232,0-4.849,0-.266.128-.418.343-.424s.368.152.368.426q0,2.353,0,4.706a.845.845,0,0,0,.945.956q1.379,0,2.757,0a.835.835,0,0,0,.926-.926q0-8.378,0-16.756a.841.841,0,0,0-.94-.94Q20.959,5,19.58,5.01a.845.845,0,0,0-.932.948q0,5.1,0,10.2c0,.383-.113.554-.364.551s-.35-.164-.35-.537q0-5.086,0-10.173a1.561,1.561,0,0,1,1.7-1.7c.887,0,1.775.015,2.662,0A1.582,1.582,0,0,1,23.992,6c-.01.14,0,.282,0,.439h1.727V6.15c0-1.7.011-3.391-.007-5.086A.984.984,0,0,1,26.355,0h6.562c.151.123.29.253.2.477s-.267.245-.468.236c-.055,0-.111,0-.166,0-1.917,0-3.834,0-5.751-.005-.244,0-.309.075-.308.311.009,1.727,0,3.454.005,5.181,0,.077.008.153.012.239h10.4a.78.78,0,0,0,.016-.106q0-2.7,0-5.395c0-.182-.08-.229-.246-.227C35.884.716,35.155.723,34.427.7a.547.547,0,0,1-.389-.2C33.906.31,34.049.14,34.2,0h2.71a.966.966,0,0,1,.665,1.05c-.015,1.7-.005,3.407-.005,5.111v.294c.3,0,.571,0,.839,0A1.53,1.53,0,0,1,40,8.06c0,.777,0,1.553,0,2.33q0,5.076,0,10.151a1.612,1.612,0,0,1-.445,1.189,1.648,1.648,0,0,1-1.251.472q-7,0-14,0h-.322c0,.248.009.461,0,.673a1.475,1.475,0,0,1-.788,1.273,3.689,3.689,0,0,1-.5.2ZM24,21.487h14.33a.854.854,0,0,0,.958-.97q0-6.191,0-12.382a.841.841,0,0,0-.954-.965H24Z" transform="translate(-8394)"/><path class="b" d="M159.662,0c-.152.14-.295.31-.163.506a.547.547,0,0,0,.389.2c.728.019,1.457.012,2.186.007.167,0,.247.046.246.227q-.006,2.7,0,5.395a.791.791,0,0,1-.016.106h-10.4c0-.085-.012-.162-.012-.239,0-1.727,0-3.454-.005-5.181,0-.237.064-.313.308-.311,1.917.009,3.834.005,5.751.005.055,0,.111,0,.166,0,.2.009.384-.017.468-.236s-.052-.354-.2-.477ZM157.09,2.774h2.922a1.7,1.7,0,0,0,.261-.011.321.321,0,0,0,.295-.319.324.324,0,0,0-.269-.365,1,1,0,0,0-.236-.018q-2.958,0-5.915,0c-.094,0-.218-.016-.275.035-.1.091-.228.231-.221.343s.152.231.262.314c.057.043.169.02.255.02h2.922m0,2.323h2.946c.079,0,.179.026.233-.012a.742.742,0,0,0,.288-.3.287.287,0,0,0-.213-.37.979.979,0,0,0-.3-.035q-2.934,0-5.868,0c-.1,0-.233-.016-.3.038a.619.619,0,0,0-.228.344.3.3,0,0,0,.285.322,1.513,1.513,0,0,0,.237.008h2.922" transform="translate(-8519.462)"/><path class="a" d="M183.114,33.2h-2.922c-.087,0-.2.024-.255-.02-.11-.083-.255-.2-.262-.314s.12-.252.221-.343c.057-.051.181-.035.275-.035q2.958,0,5.915,0a1,1,0,0,1,.236.018.324.324,0,0,1,.269.365.32.32,0,0,1-.295.319,1.7,1.7,0,0,1-.261.011h-2.922" transform="translate(-8545.486 -30.423)"/><path class="a" d="M182.994,69.836h-2.922a1.52,1.52,0,0,1-.237-.008.3.3,0,0,1-.285-.322.619.619,0,0,1,.228-.344c.065-.054.2-.038.3-.038q2.934,0,5.868,0a.979.979,0,0,1,.3.035.287.287,0,0,1,.213.37.742.742,0,0,1-.288.3c-.054.038-.154.012-.233.012h-2.946" transform="translate(-8545.367 -64.739)"/><path class="a" d="M146.667,138.021H141.7a.833.833,0,0,1-.942-.931q0-1.355,0-2.71a.835.835,0,0,1,.944-.929q1,0,2,0c.284,0,.443.125.449.345s-.16.367-.452.367c-.65,0-1.3.007-1.949,0-.2,0-.282.047-.28.264.01.879.008,1.759,0,2.638,0,.182.054.249.245.249q4.968-.007,9.935,0c.184,0,.251-.058.25-.245-.007-.879-.009-1.759,0-2.638,0-.215-.078-.267-.279-.266q-3.042.009-6.085,0a1.111,1.111,0,0,1-.237-.008.354.354,0,0,1,.014-.7,1.191,1.191,0,0,1,.19,0h6.132a.857.857,0,0,1,.974.978q0,1.331,0,2.662a.839.839,0,0,1-.925.93h-5.015" transform="translate(-8509.035 -124.989)"/><path class="a" d="M157.031,225.065a1.247,1.247,0,1,1,1.271-1.228,1.237,1.237,0,0,1-1.271,1.228m.024-1.778a.532.532,0,1,0,.533.519.52.52,0,0,0-.533-.519" transform="translate(-8523.134 -208.461)"/><path class="a" d="M158.3,280.181a1.247,1.247,0,1,1-1.249-1.251,1.24,1.24,0,0,1,1.249,1.251m-.715,0a.532.532,0,1,0-.52.533.525.525,0,0,0,.52-.533" transform="translate(-8523.132 -261.246)"/><path class="a" d="M274.365,278.924a1.248,1.248,0,1,1-1.264,1.244,1.253,1.253,0,0,1,1.264-1.244m0,1.781a.534.534,0,1,0-.547-.538.54.54,0,0,0,.547.538" transform="translate(-8632.989 -261.24)"/><path class="a" d="M214.473,280.176a1.251,1.251,0,1,1,1.257,1.247,1.244,1.244,0,0,1-1.257-1.247m1.241.531a.533.533,0,1,0-.527-.553.531.531,0,0,0,.527.553" transform="translate(-8578.079 -261.242)"/><path class="a" d="M215.722,222.571a1.247,1.247,0,1,1-1.25,1.252,1.246,1.246,0,0,1,1.25-1.252m0,1.779a.532.532,0,1,0-.538-.541.529.529,0,0,0,.538.541" transform="translate(-8578.078 -208.46)"/><path class="a" d="M274.348,225.067a1.247,1.247,0,1,1,1.26-1.248,1.254,1.254,0,0,1-1.26,1.248m.016-1.779a.532.532,0,1,0,.529.531.536.536,0,0,0-.529-.531" transform="translate(-8632.987 -208.462)"/></g></svg>