<svg xmlns="http://www.w3.org/2000/svg" width="18.139" height="18.139" viewBox="0 0 18.139 18.139">
  <g id="Component_12_1" data-name="Component 12 – 1" transform="translate(0.35 0.35)">
    <path id="Path_698" data-name="Path 698" d="M283.942,303.865a8.72,8.72,0,1,1-8.72-8.72A8.72,8.72,0,0,1,283.942,303.865Z" transform="translate(-266.503 -295.145)" fill="#fff" stroke="#129048" stroke-width="0.7"/>
    <g id="Group_3899" data-name="Group 3899" transform="translate(6.863 4.539)">
      <path id="Path_699" data-name="Path 699" d="M323,318.247a.841.841,0,0,0,.636-.3.98.98,0,0,0,.265-.677.73.73,0,0,0-.2-.522.7.7,0,0,0-.516-.211.851.851,0,0,0-.638.288.961.961,0,0,0-.257.672.747.747,0,0,0,.2.535A.69.69,0,0,0,323,318.247Z" transform="translate(-320.353 -316.535)" fill="#129048"/>
      <path id="Path_700" data-name="Path 700" d="M309.8,338.659a.26.26,0,0,0-.359,0,7.367,7.367,0,0,1-.757.647,20.649,20.649,0,0,1,.664-2.567,9.081,9.081,0,0,0,.431-1.668.56.56,0,0,0-.2-.447.738.738,0,0,0-.482-.15,2.164,2.164,0,0,0-1.037.335,5.32,5.32,0,0,0-1.246,1.066.259.259,0,0,0,.034.38l.285.22a.26.26,0,0,0,.34-.02,7.682,7.682,0,0,1,.665-.608,19.238,19.238,0,0,0-.976,4.012.809.809,0,0,0,.2.572.729.729,0,0,0,.549.225,1.67,1.67,0,0,0,.8-.268,8.51,8.51,0,0,0,1.345-1.105.26.26,0,0,0,0-.375Z" transform="translate(-306.741 -332.237)" fill="#129048"/>
    </g>
  </g>
</svg>
