<svg xmlns="http://www.w3.org/2000/svg" width="30.146" height="30.146" viewBox="0 0 30.146 30.146">
  <g id="Group_3635" data-name="Group 3635" transform="translate(-1845 -777)">
    <g id="Group_525" data-name="Group 525" transform="translate(1845 777)">
      <path id="Path_532" data-name="Path 532" d="M26.26,0H3.886A3.89,3.89,0,0,0,0,3.886V26.26a3.89,3.89,0,0,0,3.886,3.886H26.26a3.89,3.89,0,0,0,3.886-3.886V3.886A3.89,3.89,0,0,0,26.26,0Zm2.708,26.26a2.712,2.712,0,0,1-2.708,2.708H3.886A2.712,2.712,0,0,1,1.178,26.26V3.886A2.712,2.712,0,0,1,3.886,1.178H26.26a2.712,2.712,0,0,1,2.708,2.708Z" fill="#fff"/>
    </g>
    <g id="twitter" transform="translate(1847.563 1247.8)">
      <path id="Path_621" data-name="Path 621" d="M16.055-465.758a5.212,5.212,0,0,0-3.048,1.551,4.608,4.608,0,0,0-.923,1.335,4.733,4.733,0,0,0-.515,2.153l-.028.7-.26-.028c-.264-.033-1.248-.216-1.745-.324-.445-.1-.668.038-.682.418-.009.282.167.409.78.559a12.615,12.615,0,0,0,2.232.324c.483.009.487.009.6-.127s.116-.165.088-.423a7.584,7.584,0,0,1-.032-1.626,4.447,4.447,0,0,1,1.044-2.2,4.235,4.235,0,0,1,3.582-1.382,4.081,4.081,0,0,1,2.362,1.086,3.669,3.669,0,0,0,.427.338c.148.075.6-.019,1.406-.287a3.469,3.469,0,0,1,.65-.188,4.363,4.363,0,0,1-.835.841c-.483.353-.552.418-.585.583a.531.531,0,0,0,.209.5,1.893,1.893,0,0,0,1.016-.061l.52-.108-.195.207c-.111.113-.4.376-.65.578a3.767,3.767,0,0,0-.5.465,3.232,3.232,0,0,0-.046.667,13.026,13.026,0,0,1-8.941,12.612,13.45,13.45,0,0,1-5.893.423,13.49,13.49,0,0,1-3-.865l-.283-.132.278-.033a10.092,10.092,0,0,0,4.362-1.6c.728-.494.812-.578.812-.823a.393.393,0,0,0-.13-.329c-.111-.108-.186-.136-.455-.16a4.745,4.745,0,0,1-2.218-.794A4.992,4.992,0,0,1,4.4-453.024l-.232-.353.478-.028c1.007-.061,1.355-.216,1.355-.606,0-.282-.125-.381-.761-.583A3.763,3.763,0,0,1,3.5-455.68a4.076,4.076,0,0,1-.919-1.387,3.828,3.828,0,0,1-.251-.874s.2.042.427.1a5.312,5.312,0,0,0,.868.146l.45.028.139-.146a.392.392,0,0,0,.144-.343c0-.211-.009-.226-.557-.663a4.515,4.515,0,0,1-1.355-2.162,3.559,3.559,0,0,1-.107-1.119,3.4,3.4,0,0,1,.111-1.119l.107-.39.52.512a14.382,14.382,0,0,0,1.745,1.49c.483.343.673.371.886.127.264-.3.167-.517-.427-.954a14.562,14.562,0,0,1-2.269-2.1c-.325-.362-.357-.385-.534-.385a.523.523,0,0,0-.288.085,3.835,3.835,0,0,0-.534,1.044,5.577,5.577,0,0,0-.009,3.394,5.843,5.843,0,0,0,.585,1.2c.074.113.121.2.107.2a1.42,1.42,0,0,1-.209-.094.521.521,0,0,0-.654.042c-.121.127-.135.169-.135.461a5.56,5.56,0,0,0,.612,2.364,5.149,5.149,0,0,0,1.1,1.41c.4.381.432.423.316.423a.483.483,0,0,0-.38.353,4.039,4.039,0,0,0,.812,1.786,5.341,5.341,0,0,0,2.417,1.786c.139.047.274.094.292.1a6.669,6.669,0,0,1-2.093.935,8.223,8.223,0,0,1-2.663.32c-1.081,0-1.1,0-1.206.113a.55.55,0,0,0-.042.592,4.824,4.824,0,0,0,.557.376,13.636,13.636,0,0,0,5.549,1.866,20.18,20.18,0,0,0,3.016,0,13.235,13.235,0,0,0,5.995-2.129,14.319,14.319,0,0,0,6.217-11.4l.028-.761.158-.122a11.252,11.252,0,0,0,1.851-1.97c.232-.324.274-.4.274-.578a.335.335,0,0,0-.13-.32c-.181-.155-.38-.146-.877.056a2.277,2.277,0,0,1-.432.15,1.42,1.42,0,0,1,.172-.3,4.558,4.558,0,0,0,.631-1.4.352.352,0,0,0-.111-.367c-.19-.2-.394-.188-.868.07a8.409,8.409,0,0,1-1.694.714l-.571.174-.218-.188a5.242,5.242,0,0,0-2.807-1.232A4.228,4.228,0,0,0,16.055-465.758Z" fill="#fff"/>
      <path id="Path_622" data-name="Path 622" d="M137.339-367.494a.532.532,0,0,0-.339.455.394.394,0,0,0,.144.3.444.444,0,1,0,.659-.594A.484.484,0,0,0,137.339-367.494Z" transform="translate(-130.225 -93.673)" fill="#fff"/>
      <path id="Path_623" data-name="Path 623" d="M362.135-223.865a.394.394,0,0,0-.135.3.455.455,0,0,0,.766.329.46.46,0,0,0-.325-.766A.4.4,0,0,0,362.135-223.865Z" transform="translate(-344.785 -230.427)" fill="#fff"/>
      <path id="Path_624" data-name="Path 624" d="M280.178-194.867a1.736,1.736,0,0,0-.306.292,10.835,10.835,0,0,1-2.227,1.926c-.6.39-.645.436-.645.673a.449.449,0,0,0,.432.459A7.687,7.687,0,0,0,280-193.364c.933-.928,1.044-1.16.715-1.462A.4.4,0,0,0,280.178-194.867Z" transform="translate(-263.729 -258.085)" fill="#fff"/>
    </g>
  </g>
</svg>
