<svg xmlns="http://www.w3.org/2000/svg" width="24.299" height="24.299" viewBox="0 0 24.299 24.299"><defs><style>.a{fill:#178b49;}.b{fill:#fff;}.c{fill:none;}</style></defs><g transform="translate(8260)"><path class="a" d="M11.39,0h1.519a1.34,1.34,0,0,0,.182.039,11.912,11.912,0,0,1,5.7,1.939c.151.1.3.2.441.3a2,2,0,0,1,2.514.147,1.956,1.956,0,0,1,.605,1.051,2.007,2.007,0,0,1-.326,1.589,12.165,12.165,0,0,1-1.072,15.457,11.873,11.873,0,0,1-7.136,3.662,12.019,12.019,0,0,1-8.756-2.154,2.006,2.006,0,0,1-2.8-2.8c-.033-.05-.066-.1-.1-.155A11.8,11.8,0,0,1,.181,14.22C.109,13.785.06,13.346,0,12.908V11.39a2.236,2.236,0,0,0,.042-.231A11.993,11.993,0,0,1,2.019,5.443a.475.475,0,0,1,.688-.193.486.486,0,0,1,.107.708c-.163.271-.337.535-.487.813-.174.322-.328.655-.5,1.012,1.554,0,3.056,0,4.559-.006a.245.245,0,0,0,.167-.142A1.973,1.973,0,0,1,8.134,6.3c.15-.026.19-.1.215-.227.057-.287.118-.572.187-.856a11.547,11.547,0,0,1,1.654-4.03c.005-.007-.007-.027-.015-.054-.076.012-.153.022-.23.038a11.135,11.135,0,0,0-4.2,1.79.477.477,0,1,1-.537-.779A11.884,11.884,0,0,1,10.033.189c.45-.077.9-.127,1.357-.189m6.369,15.557h5.06a11.264,11.264,0,0,0,.008-6.806H16.358c.008.145.017.271.023.4.045.995.1,1.99.129,2.985.015.608-.03,1.217-.038,1.826,0,.077.039.2.094.227a2.08,2.08,0,0,1,1.193,1.372m-9.816,0c-.024-.305-.061-.581-.065-.856q-.031-2.168-.044-4.336a.252.252,0,0,0-.176-.281A1.884,1.884,0,0,1,6.575,8.923a.246.246,0,0,0-.287-.194c-1.534.005-3.067,0-4.6,0-.069,0-.138.007-.214.011a11.292,11.292,0,0,0,0,6.811ZM15.4,8.761a.3.3,0,0,0-.052-.019c-1.612,0-3.224-.008-4.836,0-.06,0-.149.093-.176.162a1.993,1.993,0,0,1-.971,1.118c-.18.091-.377.151-.576.23a32.6,32.6,0,0,0,.116,5.3h4.973a2,2,0,0,1,1.5-1.451c.146-.036.142-.118.142-.222,0-1.209.008-2.417-.009-3.625-.007-.5-.072-1-.109-1.494m-.11-.978c-.086-.5-.156-.973-.25-1.444a14.377,14.377,0,0,0-1.216-3.8,3.937,3.937,0,0,0-.935-1.271.98.98,0,0,0-1.465,0,4.8,4.8,0,0,0-.841,1.074A12.863,12.863,0,0,0,9.27,6.3c-.012.057.067.163.131.2a1.946,1.946,0,0,1,.913,1.08c.058.176.146.2.306.2,1.471,0,2.942,0,4.412,0ZM9.008,16.525c.085.489.156.957.247,1.421a13.309,13.309,0,0,0,1.231,3.815,5.531,5.531,0,0,0,.9,1.234.98.98,0,0,0,1.514.018,3.391,3.391,0,0,0,.585-.679,12.363,12.363,0,0,0,1.545-4.344.2.2,0,0,0-.089-.158,2.077,2.077,0,0,1-1.062-1.308Zm5.081,6.652a11.233,11.233,0,0,0,8.366-6.652h-4.69a2.022,2.022,0,0,1-1.547,1.458.3.3,0,0,0-.277.28,14.77,14.77,0,0,1-1.285,3.95c-.165.32-.365.622-.567.964M18.613,3a11,11,0,0,0-4.532-1.886,15.972,15.972,0,0,1,2.166,6.648h6.263l-1.178-2.1A2.012,2.012,0,0,1,18.613,3M8.051,16.528H1.784l1.183,2.1a1.97,1.97,0,0,1,2.251.3,1.956,1.956,0,0,1,.476,2.35,10.245,10.245,0,0,0,4.491,1.852,15.964,15.964,0,0,1-2.134-6.605M21.45,3.9a1.043,1.043,0,1,0-1.041,1.04A1.047,1.047,0,0,0,21.45,3.9M7.4,8.248A1.043,1.043,0,1,0,8.45,7.214,1.048,1.048,0,0,0,7.4,8.248m-3.5,11.115a1.044,1.044,0,1,0,1.029,1.052,1.047,1.047,0,0,0-1.029-1.052m12.951-3.307A1.036,1.036,0,0,0,15.841,15a1.043,1.043,0,1,0-.032,2.087,1.037,1.037,0,0,0,1.049-1.027" transform="translate(-8260)"/><path class="b" d="M307.5,45.969a1.043,1.043,0,1,1-1.033-1.047,1.048,1.048,0,0,1,1.033,1.047" transform="translate(-8546.053 -42.073)"/><path class="b" d="M116.781,114.821a1.043,1.043,0,1,1,1.028,1.053,1.047,1.047,0,0,1-1.028-1.053" transform="translate(-8369.377 -106.573)"/><path class="b" d="M45.979,305.411a1.044,1.044,0,1,1-1.058,1.023,1.047,1.047,0,0,1,1.058-1.023" transform="translate(-8302.073 -286.048)"/><path class="b" d="M235.1,237.608a1.037,1.037,0,0,1-1.049,1.027,1.043,1.043,0,1,1,.032-2.087,1.036,1.036,0,0,1,1.016,1.059" transform="translate(-8478.238 -221.551)"/><path class="a" d="M52.927,55.448a.473.473,0,1,1-.477.459.485.485,0,0,1,.477-.459" transform="translate(-8309.125 -51.933)"/><rect class="c" width="24" height="24" transform="translate(-8260)"/></g></svg>