<svg xmlns="http://www.w3.org/2000/svg" width="43.68" height="33.468" viewBox="0 0 43.68 33.468">
  <g id="reshot-icon-gas-fuel-TDG9WQYFBZ" transform="translate(0 -59.85)">
    <path id="Path_41718" data-name="Path 41718" d="M176.552,238.755l-3.616,2.891a1.088,1.088,0,0,0-.4.747l-.325,3.414a1.088,1.088,0,1,0,2.166.206l.281-2.955,3.941-3.151Z" transform="translate(-157.512 -163.643)" fill="#129048"/>
    <path id="Path_41719" data-name="Path 41719" d="M197.471,240.509a15.029,15.029,0,0,0,.282,2.7l.014-.151,3.941-3.151-2.044-1.152Z" transform="translate(-180.624 -163.643)" fill="#129048"/>
    <path id="Path_41720" data-name="Path 41720" d="M16.366,335.786c-.072-.031-3.257-1.821-3.337-1.88L10,339.288h0l-.932,1.654a1.045,1.045,0,0,0,.4,1.423l1.517.854a1.045,1.045,0,0,0,1.423-.4l.932-1.653h0Z" transform="translate(-8.169 -250.676)" fill="#61626d" opacity="0"/>
    <path id="Path_41721" data-name="Path 41721" d="M10.573,341.955l.961-1.706h0L14.6,334.8c-1.784-1-1.506-.844-1.573-.893L10,339.289h0l-.932,1.654a1.045,1.045,0,0,0,.4,1.423l1.093.616A1.076,1.076,0,0,1,10.573,341.955Z" transform="translate(-8.17 -250.677)" fill="#3f404c" opacity="0"/>
    <path id="Path_41722" data-name="Path 41722" d="M14.217,357.732a1.044,1.044,0,0,1-1.423.4l-4.626-2.606a1.044,1.044,0,0,1-.4-1.423l.854-1.517a1.044,1.044,0,0,1,1.423-.4l4.626,2.606a1.044,1.044,0,0,1,.4,1.423Z" transform="translate(-6.985 -267.274)" fill="#fff"/>
    <path id="Path_41723" data-name="Path 41723" d="M13.871,363.582l-4.785-2.7a1.08,1.08,0,0,1-.529-1.15l-.785,1.393a1.045,1.045,0,0,0,.4,1.423l4.626,2.606a1.044,1.044,0,0,0,1.423-.4l.644-1.144A1.078,1.078,0,0,1,13.871,363.582Z" transform="translate(-6.986 -274.303)" fill="#fff"/>
    <rect id="Rectangle_2160" data-name="Rectangle 2160" width="2.829" height="3.83" transform="translate(4.73 90.247) rotate(-150.608)" fill="#fff"/>
    <rect id="Rectangle_2161" data-name="Rectangle 2161" width="2.829" height="1.901" transform="translate(3.196 87.201) rotate(29.392)" fill="#fff"/>
    <path id="Path_41724" data-name="Path 41724" d="M123.735,261.335c-5.637,10.006-5.318,9.542-5.456,9.464l-6.56-3.7c-1.193,2.117-1.027,1.826-1.07,1.895l6.562,3.7a2.287,2.287,0,0,0,3.112-.869l5.308-9.423Z" transform="translate(-101.209 -184.296)" fill="#fff"/>
    <path id="Path_41725" data-name="Path 41725" d="M220.392,270.19l4.387-7.787-1.9-1.068-3.839,6.815A15.04,15.04,0,0,0,220.392,270.19Z" transform="translate(-200.357 -184.296)" fill="#fff"/>
    <path id="Path_41726" data-name="Path 41726" d="M327.753,68.451a1.306,1.306,0,0,0-1.514-1.057L316.8,69.071a1.306,1.306,0,0,0-.733.4l-4.7,5.1,1.936,1.753,4.383-4.765,9-1.6A1.305,1.305,0,0,0,327.753,68.451Z" transform="translate(-284.811 -6.882)" fill="#129048"/>
    <path id="Path_41727" data-name="Path 41727" d="M316.8,70.563a1.306,1.306,0,0,1,.732-.4c10.212-1.815,9.708-1.822,10.236-1.564a1.3,1.3,0,0,0-1.531-1.2L316.8,69.071a1.306,1.306,0,0,0-.733.4l-4.7,5.1.946.857Z" transform="translate(-284.811 -6.882)" fill="#fff" opacity="0.6"/>
    <path id="Path_41728" data-name="Path 41728" d="M57.328,184.84,50.92,196.215a1.045,1.045,0,0,0,.4,1.423l3.261,1.837a1.045,1.045,0,0,0,1.423-.4L62.409,187.7Z" transform="translate(-46.453 -114.327)" fill="#0fb26b" opacity="0"/>
    <path id="Path_41729" data-name="Path 41729" d="M53.338,197.719l6.468-11.482-2.479-1.4L50.92,196.216a1.045,1.045,0,0,0,.4,1.423l2.032,1.145A1.065,1.065,0,0,1,53.338,197.719Z" transform="translate(-46.453 -114.328)" fill="#129048" opacity="0.1"/>
    <path id="Path_41730" data-name="Path 41730" d="M134.815,106.429l-2.774-2.512a1.086,1.086,0,0,0-1.535.076l-1.144,1.263-9.294-5.236a1.087,1.087,0,0,0-1.481.414l-2.82,5a1.086,1.086,0,0,0,.414,1.481c15.171,8.547,14.248,8.065,14.462,8.065a.554.554,0,0,0,.484-.282c1.58-2.8,2.068-3.4,2.043-4.837l1.722-1.9A1.086,1.086,0,0,0,134.815,106.429Z" transform="translate(-105.763 -36.615)" fill="#01cc79" opacity="0"/>
    <path id="Path_41731" data-name="Path 41731" d="M117.416,107.612a1.156,1.156,0,0,1,.107-.884l3.018-5.357a1.166,1.166,0,0,1,.883-.585l-1.36-.766a1.087,1.087,0,0,0-1.48.414l-2.82,5a1.08,1.08,0,0,0-.1.826c.152.546.473.632,1.754,1.354Z" transform="translate(-105.76 -36.615)" fill="#129048" opacity="0.1"/>
    <path id="Path_41732" data-name="Path 41732" d="M212.058,145.155l-2.774-2.512a1.086,1.086,0,0,0-1.535.076l-1.144,1.263-3.131-1.764a14.93,14.93,0,0,0-3.4,7.174c8.122,4.575,7.6,4.319,7.811,4.319a.554.554,0,0,0,.484-.282c1.58-2.8,2.068-3.4,2.043-4.837l1.722-1.9A1.086,1.086,0,0,0,212.058,145.155Z" transform="translate(-183.006 -75.342)" fill="#10e288" opacity="0"/>
    <path id="Path_41733" data-name="Path 41733" d="M41.391,59.882l-9.437,1.677a2.255,2.255,0,0,0-1.352.882l-.219-.2a.64.64,0,0,0-.858.949l.211.19-.417.453-.229-.207a.64.64,0,1,0-.858.949l.22.2-.417.453-.238-.216a.64.64,0,0,0-.858.949l.23.208-.575.625a1.68,1.68,0,0,0-2.305.179l-.823.909L19.337,65.56a.64.64,0,1,0-.628,1.115l4.574,2.577a.64.64,0,0,0,.788-.128l1.167-1.288a.4.4,0,0,1,.28-.133c.237-.01.063-.1,3.066,2.616a.405.405,0,0,1,.028.572c-1.858,2.052-1.906,2.018-1.9,2.357.026,1.226-.365,1.682-1.892,4.393-15.033-8.484-14.2-7.917-14.27-8.175-.064-.228-.2.114,2.857-5.313A.405.405,0,0,1,13.96,64l2.98,1.679a.64.64,0,1,0,.628-1.115l-2.98-1.679a1.686,1.686,0,0,0-2.294.641L9.474,68.53A1.681,1.681,0,0,0,10,70.75L3.9,81.574a1.686,1.686,0,0,0,.117,1.831l-.563,1a1.729,1.729,0,0,0-.913-.266A1.687,1.687,0,0,0,1.073,85L.218,86.513a1.686,1.686,0,0,0,.728,2.343l-.617,1.1A1.686,1.686,0,0,0,.97,92.246c1.615.91,1.787,1.071,2.342,1.071a1.688,1.688,0,0,0,1.469-.858l.618-1.1a1.687,1.687,0,0,0,2.381-.592l.854-1.517a1.689,1.689,0,0,0-.728-2.343l.562-1c.053.005.106.008.159.008a1.686,1.686,0,0,0,1.006-.334l6.13,3.453a2.924,2.924,0,0,0,3.983-1.113l3.066-5.443a.64.64,0,1,0-1.115-.628L18.631,87.3a1.646,1.646,0,0,1-2.24.626l-6-3.382.44-.781,6,3.381a.748.748,0,0,0,1.02-.284L22.844,78l.781.44-.952,1.689a.64.64,0,1,0,1.115.628l.952-1.689a.639.639,0,0,0,.882-.237c1.823-3.236,2.321-3.836,2.369-5.344l1.569-1.733a1.685,1.685,0,0,0-.08-2.341l.576-.626c.215.194.348.354.638.354a.64.64,0,0,0,.429-1.115l-.2-.181.417-.453.218.2a.64.64,0,1,0,.858-.949l-.21-.19.417-.453.228.206a.641.641,0,1,0,.812-.991l8.409-1.495a1.945,1.945,0,0,0-.681-3.831ZM21.137,77.033l.593.334-.716,1.272-1.106-.623ZM16.5,79.354l-.281,2.955a.448.448,0,0,1-.892-.085c.349-3.667.288-3.56.491-3.721l3.278-2.621.842.474C16.513,79.091,16.531,78.987,16.5,79.354ZM5.014,82.2l6.094-10.818,3.966,2.234-5.047,8.96c-.044.078-1.014,1.8-1.06,1.879a.4.4,0,0,1-.514.145.246.246,0,0,0-.034-.017c-3.378-1.9-3.264-1.841-3.264-1.841A.4.4,0,0,1,5.014,82.2ZM3.126,88.615l1.252-2.222,1.35.76L4.475,89.375Zm-.938-2.991a.406.406,0,0,1,.353-.206.4.4,0,0,1,.2.052l.523.295L2.011,87.987C.988,87.411,1.056,87.634,2.188,85.624Zm1.478,6.208a.406.406,0,0,1-.354.206c-.14,0-.05.031-1.714-.907a.405.405,0,0,1-.154-.551l.617-1.1,2.222,1.252Zm3.853-3.2-.854,1.517a.4.4,0,0,1-.551.154L5.59,90l1.252-2.222.523.295A.405.405,0,0,1,7.519,88.627Zm-2.95-3.595.491-.871,2.222,1.252-.491.871ZM17,85.77l-5.54-3.121,4.733-8.4,1.7.958-2.875,2.3a1.737,1.737,0,0,0-.641,1.186L14.049,82.1a1.728,1.728,0,1,0,3.44.327l.255-2.685,1.085-.867,1.556.876ZM28.534,68.547l-.987-.894.573-.623.988.893Zm1.44-1.566-.988-.893.417-.453.988.893Zm1.283-1.395-.988-.893.417-.453.988.893Zm10.591-3.134c-9.716,1.727-9.112,1.581-9.3,1.744l-.993-.9c.252-.273.357-.432.627-.48,10.113-1.8,9.467-1.687,9.554-1.687A.666.666,0,0,1,41.848,62.453Z" transform="translate(0 0)" fill="#a3c854"/>
    <path id="Path_41734" data-name="Path 41734" d="M83.741,229.565a.64.64,0,0,0,.558-.326l4.45-7.9a.64.64,0,0,0-1.115-.628l-4.45,7.9A.64.64,0,0,0,83.741,229.565Z" transform="translate(-76.011 -146.84)" fill="#129048"/>
  </g>
</svg>
