<svg xmlns="http://www.w3.org/2000/svg" width="60" height="60" viewBox="0 0 60 60">
  <g id="Group_4203" data-name="Group 4203" transform="translate(-854.158 -1189.158)">
    <rect id="Rectangle_313" data-name="Rectangle 313" width="60" height="60" transform="translate(854.158 1189.158)" fill="none"/>
    <g id="fuel-station-_1_" transform="translate(858.958 1705.958)">
      <path id="Path_671" data-name="Path 671" d="M4.729-511.793a48.2,48.2,0,0,0-4.542,4.542c-.167.335-.187.581-.187,2.64,0,2.089.02,2.305.2,2.66a1.319,1.319,0,0,0,.591.591c.384.2.532.2,23.545.2H47.485v13h-3.35c-3.172,0-3.379.01-3.744.2-.7.355-.788.68-.788,2.857v1.872h-1.97c-3.054,0-2.965-.089-3.5,3.744-.2,1.379-.374,2.66-.414,2.827l-.049.325h-.68c-.571,0-.7-.03-.739-.177a5.861,5.861,0,0,0-1.31-2.1,6.384,6.384,0,0,0-.847-.759c-.187-.1-.148-.158.453-.778a5.7,5.7,0,0,0,.818-.985,1.463,1.463,0,0,0-1.941-1.941,4.721,4.721,0,0,0-.877.709,2.715,2.715,0,0,1-.571.493c0-.03-.2-1.054-.443-2.266a11.288,11.288,0,0,0-.837-2.995,5.493,5.493,0,0,0-3.842-2.9c-.443-.079-2.64-.1-6.995-.079l-6.354.03-.66.256a5.505,5.505,0,0,0-2.187,1.468c-.867.906-1.153,1.626-1.685,4.216-.246,1.212-.443,2.236-.443,2.266a2.555,2.555,0,0,1-.562-.493,5.058,5.058,0,0,0-.887-.709,1.463,1.463,0,0,0-1.941,1.941,5.7,5.7,0,0,0,.818.985c.611.63.64.68.453.778A6.9,6.9,0,0,0,.877-477.8a6.866,6.866,0,0,0-.571,1.143c-.256.66-.256.66-.286,4.325-.03,3.547-.03,3.675.167,4.059.315.6.768.8,1.882.8h.887v2.955H2.069a2.523,2.523,0,0,0-1.281.2A1.555,1.555,0,0,0,0-463.038a1.555,1.555,0,0,0,.788,1.281c.384.2.522.2,24.432.2s24.048,0,24.432-.2a1.32,1.32,0,0,0,.591-.591c.2-.384.2-.532.2-22.462,0-20.028-.01-22.107-.158-22.393a46.087,46.087,0,0,0-4.591-4.611C45.337-512,44.894-512,25.2-512H5.074Zm41.2,4.3,1.557,1.557v1.823H2.955v-1.823L4.5-507.488l1.557-1.557H44.381ZM22.58-487.075a2.8,2.8,0,0,1,1.438,1.153,18.336,18.336,0,0,1,.749,3.024l.522,2.62H7.221l.522-2.62c.571-2.818.709-3.2,1.33-3.7.709-.571.6-.561,7.133-.571C20.058-487.174,22.343-487.135,22.58-487.075Zm24.9,12.216v10.344H42.559V-485.2h4.926ZM39.6-472.4v7.881H29.555v-2.955h.887c1.1,0,1.566-.2,1.872-.788.177-.355.2-.571.2-2.758v-2.364h1.409c2.335,0,2.355-.02,2.867-3.694.2-1.409.384-2.709.424-2.887l.049-.315H39.6Zm-11.674-4.758a2.532,2.532,0,0,1,1.458,1.458,10.126,10.126,0,0,1,.167,2.877v2.394H2.955v-2.394c0-2.778.059-3.093.739-3.763.768-.768-.059-.719,12.521-.729C26.432-477.322,27.5-477.3,27.929-477.155ZM8.866-465.993v1.478H5.911v-2.955H8.866Zm11.822,0v1.478H11.822v-2.955h8.866Zm5.911,0v1.478H23.644v-2.955H26.6Z" transform="translate(0 0)" fill="#a3c854" stroke="#fff" stroke-width="1"/>
      <circle id="Ellipse_105" data-name="Ellipse 105" cx="1.552" cy="1.552" r="1.552" transform="translate(6.984 -475.243)" fill="#129048"/>
      <circle id="Ellipse_106" data-name="Ellipse 106" cx="1.552" cy="1.552" r="1.552" transform="translate(20.952 -475.243)" fill="#129048"/>
      <rect id="Rectangle_266" data-name="Rectangle 266" width="2.328" height="17.072" transform="translate(43.844 -483.003)" fill="#129048"/>
    </g>
  </g>
</svg>
