<svg xmlns="http://www.w3.org/2000/svg" width="60" height="60" viewBox="0 0 60 60">
  <g id="Group_4203" data-name="Group 4203" transform="translate(-854.158 -1189.158)">
    <rect id="Rectangle_313" data-name="Rectangle 313" width="60" height="60" transform="translate(854.158 1189.158)" fill="none"/>
    <g id="reshot-icon-car-oil-B5KEN6XZ3P" transform="translate(759.776 1132.509)">
      <g id="Group_4245" data-name="Group 4245" transform="translate(112.129 80.075)">
        <g id="Group_4234" data-name="Group 4234" transform="translate(0 0)" opacity="0">
          <path id="Path_41365" data-name="Path 41365" d="M133.306,163.591c0-1.258.779-1.323,2.036-1.323H149.3c1.258,0,1.2.065,1.2,1.323v22.323c0,1.258.053,1.535-1.2,1.535H134.814c-1.257,0-1.508-.278-1.508-1.535Z" transform="translate(-133.306 -162.268)" fill="#129048"/>
        </g>
        <g id="Group_4236" data-name="Group 4236" transform="translate(5.646 7.667)">
          <path id="Path_41366" data-name="Path 41366" d="M171.143,210.142c0,2-2,3-3.378,3-1.628,0-3.629-1-3.629-3,0-2.8,3.629-6.006,3.629-6.006S171.143,207.344,171.143,210.142Z" transform="translate(-164.136 -204.136)" fill="#129048"/>
        </g>
        <g id="Group_4237" data-name="Group 4237" transform="translate(5.646 7.667)">
          <path id="Path_41367" data-name="Path 41367" d="M165.98,210.142c0-1.86,1.6-3.895,2.674-5.054-.505-.585-.888-.952-.888-.952s-3.629,3.207-3.629,6.006c0,2,2,3,3.629,3a3.489,3.489,0,0,0,.861-.117A3.081,3.081,0,0,1,165.98,210.142Z" transform="translate(-164.137 -204.136)" fill="#129048"/>
        </g>
      </g>
      <g id="Group_4255" data-name="Group 4255" transform="translate(107.382 61.649)">
        <g id="Group_4246" data-name="Group 4246" transform="translate(2.29 4.299)">
          <path id="Path_41370" data-name="Path 41370" d="M125.725,90.041h-4.914a.921.921,0,0,1-.921-.921V86.048a.921.921,0,0,1,.921-.921h4.914a.921.921,0,0,1,.921.921v3.071A.921.921,0,0,1,125.725,90.041ZM121.733,88.2H124.8V86.97h-3.071Z" transform="translate(-119.89 -85.127)" fill="#a3c854"/>
        </g>
        <g id="Group_4247" data-name="Group 4247" transform="translate(9.472 25.171)">
          <path id="Path_41371" data-name="Path 41371" d="M163.655,209.958c-2.237,0-4.55-1.468-4.55-3.924,0-3.124,3.536-6.34,3.94-6.7a.922.922,0,0,1,1.245.022c.149.142,3.665,3.516,3.665,6.674C167.954,208.71,165.389,209.958,163.655,209.958Zm-.024-8.627c-1.089,1.123-2.683,3.114-2.683,4.7,0,1.436,1.583,2.082,2.707,2.082.856,0,2.457-.611,2.457-2.082C166.112,204.441,164.644,202.46,163.631,201.33Z" transform="translate(-159.105 -199.106)" fill="#a3c854"/>
        </g>
        <g id="Group_4248" data-name="Group 4248" transform="translate(25.629 21.496)">
          <rect id="Rectangle_321" data-name="Rectangle 321" width="4.299" height="2.682" fill="#129048"/>
        </g>
        <g id="Group_4249" data-name="Group 4249" transform="translate(25.629 26.41)">
          <rect id="Rectangle_322" data-name="Rectangle 322" width="4.299" height="2.682" fill="#129048"/>
        </g>
        <g id="Group_4250" data-name="Group 4250" transform="translate(25.629 31.323)">
          <rect id="Rectangle_323" data-name="Rectangle 323" width="4.299" height="2.682" fill="#129048"/>
        </g>
        <g id="Group_4251" data-name="Group 4251" transform="translate(25.629 36.237)">
          <rect id="Rectangle_324" data-name="Rectangle 324" width="4.299" height="2.682" fill="#129048"/>
        </g>
        <g id="Group_4252" data-name="Group 4252" transform="translate(0)">
          <path id="Path_41372" data-name="Path 41372" d="M115.507,67.791h-4.9a3.075,3.075,0,1,1,0-6.142h4.9a3.075,3.075,0,1,1,0,6.142Zm-4.9-4.3a1.237,1.237,0,1,0,0,2.457h4.9a1.237,1.237,0,1,0,0-2.457Z" transform="translate(-107.382 -61.649)" fill="#a3c854"/>
        </g>
        <g id="Group_4253" data-name="Group 4253" transform="translate(0.755 0.307)">
          <path id="Path_41373" data-name="Path 41373" d="M143.749,113.69H112.426a.921.921,0,0,1-.921-.921V73.484a.922.922,0,0,1,.17-.533L113,71.086a.921.921,0,0,1,.752-.388h6.006a.922.922,0,0,1,.81.481l.739,1.361h2.485V67.48a.922.922,0,0,1,.347-.721l4.054-3.23a.92.92,0,0,1,.574-.2h14.986a.921.921,0,0,1,.921.921v39.922a.921.921,0,1,1-1.843,0v-39H129.086l-3.455,2.753v5.538a.921.921,0,0,1-.921.921h-3.954a.922.922,0,0,1-.81-.481l-.739-1.361h-4.981l-.878,1.238v38.07h29.481v-2.61a.921.921,0,1,1,1.843,0v3.531A.921.921,0,0,1,143.749,113.69Zm-4.645-41.8h-8.714a2.61,2.61,0,1,1,0-5.22H139.1a2.61,2.61,0,0,1,0,5.22Zm-8.714-3.378a.768.768,0,0,0,0,1.535H139.1a.768.768,0,0,0,0-1.535Z" transform="translate(-111.505 -63.328)" fill="#a3c854"/>
        </g>
        <g id="Group_4254" data-name="Group 4254" transform="translate(3.826 17.504)">
          <path id="Path_41374" data-name="Path 41374" d="M145.187,184.261h-14.3c-2.61,0-2.61-1.946-2.61-3.109V166.834a.921.921,0,1,1,1.843,0v14.318c0,1.267,0,1.267.768,1.267h14.3a1.049,1.049,0,0,0,.229-.02,4.973,4.973,0,0,0,.055-1V159.847c0-.189,0-.361.009-.516,0-.08,0-.168.005-.249l-.13,0H131.23a3.755,3.755,0,0,0-1.086.1,1.5,1.5,0,0,0-.028.3V161.8a.921.921,0,1,1-1.843,0v-2.323c0-2.245,1.924-2.245,2.957-2.245h14.125a1.709,1.709,0,0,1,1.966,2.145c0,.14-.008.294-.008.465V181.4a3.061,3.061,0,0,1-.589,2.319A2.056,2.056,0,0,1,145.187,184.261Z" transform="translate(-128.273 -157.237)" fill="#a3c854"/>
        </g>
      </g>
    </g>
  </g>
</svg>
