<svg xmlns="http://www.w3.org/2000/svg" width="60" height="60" viewBox="0 0 60 60">
  <g id="Group_4203" data-name="Group 4203" transform="translate(-854.158 -1189.158)">
    <rect id="Rectangle_313" data-name="Rectangle 313" width="60" height="60" transform="translate(854.158 1189.158)" fill="none"/>
    <g id="Group_4204" data-name="Group 4204" transform="translate(834.337 1168.943)">
      <g id="Group_4096" data-name="Group 4096" transform="translate(25.436 25.93)">
        <g id="Group_4057" data-name="Group 4057" transform="translate(14.715)">
          <path id="Path_41179" data-name="Path 41179" d="M113.383,29.7A9.661,9.661,0,0,0,102,39.253a9.648,9.648,0,0,0,1.072,4.418h3.367A9.683,9.683,0,0,1,113.383,29.7Z" transform="translate(-101.995 -29.549)" fill="#129048"/>
        </g>
        <g id="Group_4058" data-name="Group 4058" transform="translate(4.805 18.291)">
          <rect id="Rectangle_259" data-name="Rectangle 259" width="39.232" height="27.056" fill="#f4f4f4"/>
        </g>
        <g id="Group_4060" data-name="Group 4060" transform="translate(2.678 14.122)">
          <path id="Path_41181" data-name="Path 41181" d="M45.227,101.636a2.084,2.084,0,0,1,2.084-2.084h-2.9a2.084,2.084,0,0,0-2.084,2.084,2.121,2.121,0,0,0,2.127,2.084h2.9A2.121,2.121,0,0,1,45.227,101.636Z" transform="translate(-42.329 -99.552)" fill="#129048"/>
        </g>
        <g id="Group_4061" data-name="Group 4061" transform="translate(19.873 2.977)">
          <path id="Path_41182" data-name="Path 41182" d="M134.573,51.318c-2,2-4.779,2.48-6.2,1.064s-.941-4.191,1.064-6.2,4.778-2.48,6.2-1.063S136.578,49.314,134.573,51.318Z" transform="translate(-127.562 -44.307)" fill="#129048"/>
        </g>
        <g id="Group_4062" data-name="Group 4062" transform="translate(19.873 2.977)">
          <path id="Path_41183" data-name="Path 41183" d="M130.47,47.139c1.729-1.729,4.027-2.317,5.537-1.538a2.569,2.569,0,0,0-.371-.478c-1.417-1.417-4.191-.941-6.2,1.063s-2.48,4.779-1.064,6.2a2.64,2.64,0,0,0,.659.475C128.108,51.355,128.67,48.939,130.47,47.139Z" transform="translate(-127.561 -44.307)" fill="#129048"/>
        </g>
        <g id="Group_4064" data-name="Group 4064" transform="translate(20.409 3.563)">
          <g id="Group_4063" data-name="Group 4063">
            <path id="Path_41184" data-name="Path 41184" d="M131.076,54.952a.862.862,0,0,1-.026-1.723l.11,0c1.4-.042,2.04-.061,2.3-2.387.347-3.131,2.649-3.735,3.818-3.612a.862.862,0,0,1-.166,1.717c-.286-.023-1.714-.023-1.948,2.086-.423,3.815-2.463,3.875-3.952,3.92l-.109,0Z" transform="translate(-130.219 -47.21)" fill="#bc715c"/>
          </g>
        </g>
        <g id="Group_4065" data-name="Group 4065" transform="translate(8.157 27.135)">
          <rect id="Rectangle_260" data-name="Rectangle 260" width="10.529" height="18.211" transform="translate(0 0)" fill="#129048"/>
        </g>
        <g id="Group_4068" data-name="Group 4068" transform="translate(4.805 18.291)">
          <rect id="Rectangle_263" data-name="Rectangle 263" width="1.808" height="27.056" fill="#f9f9f9"/>
        </g>
        <g id="Group_4069" data-name="Group 4069" transform="translate(15.783 35.205)">
          <path id="Path_41185" data-name="Path 41185" d="M108.368,205.587a.54.54,0,0,1-.54.54h0a.54.54,0,0,1-.539-.54V204.6a.54.54,0,0,1,.539-.54h0a.54.54,0,0,1,.54.54Z" transform="translate(-107.289 -204.056)" fill="#f4f4f4"/>
        </g>
        <g id="Group_4071" data-name="Group 4071" transform="translate(28.052 31.378)">
          <g id="Group_4070" data-name="Group 4070" transform="translate(0 0)">
            <path id="Path_41186" data-name="Path 41186" d="M169.022,187.777a.915.915,0,0,1-.645-1.564l.867-.86a.915.915,0,1,1,1.289,1.3l-.867.86A.911.911,0,0,1,169.022,187.777Z" transform="translate(-168.107 -185.087)" fill="#f4f4f4"/>
          </g>
        </g>
        <g id="Group_4073" data-name="Group 4073" transform="translate(29.149 32.118)">
          <g id="Group_4072" data-name="Group 4072" transform="translate(0)">
            <path id="Path_41187" data-name="Path 41187" d="M174.46,193.179a.915.915,0,0,1-.668-1.54l2.428-2.6a.915.915,0,0,1,1.337,1.25l-2.428,2.6A.915.915,0,0,1,174.46,193.179Z" transform="translate(-173.545 -188.752)" fill="#f4f4f4"/>
          </g>
        </g>
        <g id="Group_4083" data-name="Group 4083" transform="translate(0 45.347)">
          <rect id="Rectangle_264" data-name="Rectangle 264" width="2.139" height="3.253" fill="#ffe2a9"/>
        </g>
        <g id="Group_4084" data-name="Group 4084" transform="translate(8.157 27.135)">
          <rect id="Rectangle_265" data-name="Rectangle 265" width="1.557" height="18.211" transform="translate(0 0)" fill="#129048"/>
        </g>
      </g>
      <g id="Group_4118" data-name="Group 4118" transform="translate(24.521 25.015)">
        <g id="Group_4097" data-name="Group 4097" transform="translate(4.805 18.29)">
          <path id="Path_41206" data-name="Path 41206" d="M88.484,144.564H49.252a.915.915,0,0,1-.915-.915V116.593a.915.915,0,0,1,.915-.915H88.484a.915.915,0,0,1,.915.915v9.168a.915.915,0,1,1-1.83,0v-8.253h-37.4v25.226h37.4V129.981a.915.915,0,0,1,1.83,0v13.667A.915.915,0,0,1,88.484,144.564Z" transform="translate(-48.337 -115.678)" fill="#a3c854"/>
        </g>
        <g id="Group_4098" data-name="Group 4098" transform="translate(0 45.347)">
          <path id="Path_41207" data-name="Path 41207" d="M74.235,254.874H32.351a.915.915,0,1,1,0-1.83H73.32v-1.423H26.351v1.423H28.13a.915.915,0,1,1,0,1.83H25.436a.915.915,0,0,1-.915-.915v-3.253a.915.915,0,0,1,.915-.915h48.8a.915.915,0,0,1,.915.915v3.253A.915.915,0,0,1,74.235,254.874Z" transform="translate(-24.521 -249.791)" fill="#a3c854"/>
        </g>
        <g id="Group_4099" data-name="Group 4099" transform="translate(2.678 14.122)">
          <path id="Path_41208" data-name="Path 41208" d="M80.068,101.015H40.836a3,3,0,1,1-.043-6H80.068a3,3,0,1,1,0,6ZM40.792,96.847a1.17,1.17,0,0,0-1.169,1.169,1.207,1.207,0,0,0,1.212,1.169H80.068a1.169,1.169,0,1,0,0-2.338Z" transform="translate(-37.794 -95.017)" fill="#a3c854"/>
        </g>
        <g id="Group_4100" data-name="Group 4100" transform="translate(19.861 2.965)">
          <path id="Path_41209" data-name="Path 41209" d="M126.864,50.456a3.872,3.872,0,0,1-2.8-1.095c-1.8-1.8-1.334-5.093,1.064-7.49s5.688-2.865,7.489-1.063a4.068,4.068,0,0,1,1.007,3.679,7.24,7.24,0,0,1-2.07,3.811A6.847,6.847,0,0,1,126.864,50.456Zm2.968-8.9a5.122,5.122,0,0,0-3.409,1.611c-1.616,1.617-2.1,3.862-1.064,4.9s3.286.553,4.9-1.064h0a5.4,5.4,0,0,0,1.56-2.826,2.3,2.3,0,0,0-.5-2.076A2.054,2.054,0,0,0,129.832,41.554Z" transform="translate(-122.97 -39.712)" fill="#a3c854"/>
        </g>
        <g id="Group_4101" data-name="Group 4101" transform="translate(21.078 4.41)">
          <path id="Path_41210" data-name="Path 41210" d="M129.915,54.81a.915.915,0,0,1-.028-1.829l.268-.007c1.442-.035,2.039-.049,2.3-2.414a4.127,4.127,0,0,1,1.5-2.987,3.622,3.622,0,0,1,2.632-.661.915.915,0,0,1-.294,1.806,1.833,1.833,0,0,0-1.249.325,2.421,2.421,0,0,0-.771,1.719c-.441,3.952-2.542,4-4.077,4.04l-.256.007Z" transform="translate(-129.001 -46.876)" fill="#a3c854"/>
        </g>
        <g id="Group_4102" data-name="Group 4102" transform="translate(14.695 0)">
          <path id="Path_41211" data-name="Path 41211" d="M116.613,40.967H99.348a.915.915,0,0,1-.814-.5,10.5,10.5,0,0,1-1.173-4.836,10.619,10.619,0,0,1,21.239,0,10.5,10.5,0,0,1-1.172,4.836A.915.915,0,0,1,116.613,40.967Zm-16.688-1.83h16.111a8.661,8.661,0,0,0,.734-3.5,8.789,8.789,0,0,0-17.579,0A8.658,8.658,0,0,0,99.925,39.137Z" transform="translate(-97.361 -25.015)" fill="#a3c854"/>
        </g>
        <g id="Group_4103" data-name="Group 4103" transform="translate(8.157 27.135)">
          <path id="Path_41212" data-name="Path 41212" d="M76.4,179.561H65.868a.915.915,0,0,1-.915-.915V160.435a.915.915,0,0,1,.915-.915H76.4a.915.915,0,0,1,.915.915v18.211A.915.915,0,0,1,76.4,179.561Zm-9.614-1.83h8.7V161.35h-8.7v16.381Z" transform="translate(-64.953 -159.52)" fill="#a3c854"/>
        </g>
        <g id="Group_4104" data-name="Group 4104" transform="translate(18.686 27.135)">
          <path id="Path_41213" data-name="Path 41213" d="M140.571,175.074H118.059a.915.915,0,0,1-.915-.915V160.435a.915.915,0,0,1,.915-.915h22.512a.915.915,0,0,1,.915.915V174.16A.915.915,0,0,1,140.571,175.074Zm-21.6-1.83h20.682V161.35H118.974Z" transform="translate(-117.144 -159.52)" fill="#a3c854"/>
        </g>
        <g id="Group_4105" data-name="Group 4105" transform="translate(21.059 29.569)">
          <path id="Path_41214" data-name="Path 41214" d="M147.588,182.27H129.823a.915.915,0,0,1-.915-.915V172.5a.915.915,0,0,1,.915-.915h17.765a.915.915,0,0,1,.915.915v8.858A.915.915,0,0,1,147.588,182.27Zm-16.85-1.83h15.935v-7.028H130.738Z" transform="translate(-128.908 -171.582)" fill="#a3c854"/>
        </g>
        <g id="Group_4106" data-name="Group 4106" transform="translate(16.698 36.12)">
          <path id="Path_41215" data-name="Path 41215" d="M108.368,205.587a.54.54,0,0,1-.54.54h0a.54.54,0,0,1-.539-.54V204.6a.54.54,0,0,1,.539-.54h0a.54.54,0,0,1,.54.54Z" transform="translate(-107.289 -204.056)" fill="#a3c854"/>
        </g>
        <g id="Group_4107" data-name="Group 4107" transform="translate(28.967 32.293)">
          <path id="Path_41216" data-name="Path 41216" d="M169.022,187.777a.915.915,0,0,1-.645-1.564l.867-.86a.915.915,0,1,1,1.289,1.3l-.867.86A.911.911,0,0,1,169.022,187.777Z" transform="translate(-168.107 -185.087)" fill="#129048"/>
        </g>
        <g id="Group_4108" data-name="Group 4108" transform="translate(30.064 33.033)">
          <path id="Path_41217" data-name="Path 41217" d="M174.46,193.18a.915.915,0,0,1-.668-1.54l2.428-2.6a.915.915,0,1,1,1.337,1.25l-2.428,2.6A.912.912,0,0,1,174.46,193.18Z" transform="translate(-173.545 -188.753)" fill="#129048"/>
        </g>
        <g id="Group_4109" data-name="Group 4109" transform="translate(4.805 18.29)">
          <path id="Path_41218" data-name="Path 41218" d="M51.43,123.29a3.1,3.1,0,0,1-3.093-3.093v-3.6a.915.915,0,0,1,.915-.915h4.357a.915.915,0,0,1,.915.915v3.6A3.1,3.1,0,0,1,51.43,123.29Zm-1.264-5.783v2.69a1.264,1.264,0,0,0,2.528,0v-2.69Z" transform="translate(-48.337 -115.677)" fill="#a3c854"/>
        </g>
        <g id="Group_4110" data-name="Group 4110" transform="translate(9.162 18.29)">
          <path id="Path_41219" data-name="Path 41219" d="M73.029,123.29a3.1,3.1,0,0,1-3.094-3.093v-3.6a.915.915,0,0,1,.915-.915h4.358a.915.915,0,0,1,.915.915v3.6A3.1,3.1,0,0,1,73.029,123.29Zm-1.264-5.783v2.69a1.264,1.264,0,0,0,2.528,0v-2.69Z" transform="translate(-69.935 -115.677)" fill="#a3c854"/>
        </g>
        <g id="Group_4111" data-name="Group 4111" transform="translate(13.519 18.29)">
          <path id="Path_41220" data-name="Path 41220" d="M94.629,123.29a3.1,3.1,0,0,1-3.094-3.093v-3.6a.915.915,0,0,1,.915-.915h4.357a.915.915,0,0,1,.915.915v3.6A3.1,3.1,0,0,1,94.629,123.29Zm-1.264-5.783v2.69a1.264,1.264,0,0,0,2.528,0v-2.69Z" transform="translate(-91.535 -115.677)" fill="#a3c854"/>
        </g>
        <g id="Group_4112" data-name="Group 4112" transform="translate(17.877 18.29)">
          <path id="Path_41221" data-name="Path 41221" d="M116.226,123.29a3.1,3.1,0,0,1-3.093-3.093v-3.6a.915.915,0,0,1,.915-.915h4.357a.915.915,0,0,1,.915.915v3.6A3.1,3.1,0,0,1,116.226,123.29Zm-1.263-5.783v2.69a1.264,1.264,0,0,0,2.528,0v-2.69Z" transform="translate(-113.133 -115.677)" fill="#a3c854"/>
        </g>
        <g id="Group_4113" data-name="Group 4113" transform="translate(22.234 18.29)">
          <path id="Path_41222" data-name="Path 41222" d="M137.826,123.29a3.1,3.1,0,0,1-3.093-3.093v-3.6a.915.915,0,0,1,.915-.915h4.357a.915.915,0,0,1,.915.915v3.6A3.1,3.1,0,0,1,137.826,123.29Zm-1.263-5.783v2.69a1.264,1.264,0,0,0,2.528,0v-2.69Z" transform="translate(-134.733 -115.677)" fill="#a3c854"/>
        </g>
        <g id="Group_4114" data-name="Group 4114" transform="translate(26.592 18.29)">
          <path id="Path_41223" data-name="Path 41223" d="M159.427,123.29a3.1,3.1,0,0,1-3.094-3.093v-3.6a.915.915,0,0,1,.915-.915h4.357a.915.915,0,0,1,.915.915v3.6A3.1,3.1,0,0,1,159.427,123.29Zm-1.264-5.783v2.69a1.264,1.264,0,0,0,2.528,0v-2.69Z" transform="translate(-156.333 -115.677)" fill="#a3c854"/>
        </g>
        <g id="Group_4115" data-name="Group 4115" transform="translate(30.949 18.29)">
          <path id="Path_41224" data-name="Path 41224" d="M181.025,123.29a3.1,3.1,0,0,1-3.093-3.093v-3.6a.915.915,0,0,1,.915-.915H183.2a.915.915,0,0,1,.915.915v3.6A3.1,3.1,0,0,1,181.025,123.29Zm-1.263-5.783v2.69a1.264,1.264,0,0,0,2.528,0v-2.69Z" transform="translate(-177.932 -115.677)" fill="#a3c854"/>
        </g>
        <g id="Group_4116" data-name="Group 4116" transform="translate(35.307 18.29)">
          <path id="Path_41225" data-name="Path 41225" d="M202.627,123.29a3.1,3.1,0,0,1-3.093-3.093v-3.6a.915.915,0,0,1,.915-.915h4.357a.915.915,0,0,1,.915.915v3.6A3.1,3.1,0,0,1,202.627,123.29Zm-1.264-5.783v2.69a1.263,1.263,0,1,0,2.527,0v-2.69Z" transform="translate(-199.534 -115.677)" fill="#a3c854"/>
        </g>
        <g id="Group_4117" data-name="Group 4117" transform="translate(39.664 18.29)">
          <path id="Path_41226" data-name="Path 41226" d="M224.222,123.29a3.1,3.1,0,0,1-3.094-3.093v-3.6a.915.915,0,0,1,.915-.915H226.4a.915.915,0,0,1,.915.915v3.6A3.1,3.1,0,0,1,224.222,123.29Zm-1.264-5.783v2.69a1.264,1.264,0,0,0,2.528,0v-2.69Z" transform="translate(-221.128 -115.677)" fill="#a3c854"/>
        </g>
      </g>
    </g>
  </g>
</svg>
