<svg xmlns="http://www.w3.org/2000/svg" width="60" height="60" viewBox="0 0 60 60">
  <g id="Group_4203" data-name="Group 4203" transform="translate(-854.158 -1189.158)">
    <rect id="Rectangle_313" data-name="Rectangle 313" width="60" height="60" transform="translate(854.158 1189.158)" fill="none"/>
    <g id="reshot-icon-24-hours-6TKZW8QYJM" transform="translate(831.624 1166.623)">
      <g id="Group_4208" data-name="Group 4208" transform="translate(32.8 32.8)">
        <circle id="Ellipse_118" data-name="Ellipse 118" cx="19.92" cy="19.92" r="19.92" transform="translate(0 0)" fill="#fff"/>
      </g>
      <g id="Group_4209" data-name="Group 4209" transform="translate(41.984 45.504)">
        <path id="Path_41349" data-name="Path 41349" d="M99.037,115.006a1.059,1.059,0,0,1-1.074,1.074H91.008a1.053,1.053,0,0,1-.8-.352,1.079,1.079,0,0,1,.059-1.524l5.782-5.235a2.45,2.45,0,0,0,.82-1.875,2.529,2.529,0,0,0-.645-1.7,2.479,2.479,0,0,0-1.875-.82,2.565,2.565,0,0,0-1.7.645l-.606.547a1.063,1.063,0,0,1-1.524-.078,1.081,1.081,0,0,1,.078-1.524l.606-.547a4.613,4.613,0,0,1,3.145-1.211,4.7,4.7,0,0,1,3.477,1.543,4.613,4.613,0,0,1,1.211,3.145,4.7,4.7,0,0,1-1.543,3.477L93.8,113.912h4.161A1.075,1.075,0,0,1,99.037,115.006Z" transform="translate(-89.92 -102.406)" fill="#129048"/>
        <path id="Path_41350" data-name="Path 41350" d="M139.629,112.447a1.076,1.076,0,0,1-1.094,1.074h-.2v1.485a1.074,1.074,0,1,1-2.149,0v-1.485h-6.153a.958.958,0,0,1-.664-.234,1.046,1.046,0,0,1-.176-1.5l7.228-8.986c.019,0,.019-.019.039-.039a.271.271,0,0,0,.059-.078.21.21,0,0,0,.1-.058c.019-.019.059-.039.078-.059a.21.21,0,0,1,.117-.039c.019-.039.039-.059.078-.059.019-.019.059-.019.117-.039a.118.118,0,0,0,.078-.019h.332a.177.177,0,0,0,.1.019c.019.019.078.019.117.039.019,0,.059.019.078.019.039.039.078.059.1.078.039.019.059.039.1.059a.019.019,0,0,1,.019.019c.019,0,.059.019.059.039l.078.078c.019.019.039.059.059.078a.525.525,0,0,1,.078.1.148.148,0,0,0,.039.078.856.856,0,0,1,.039.117c0,.019.019.059.019.078a.213.213,0,0,1,.019.117c0,.039.019.059.019.1v7.951h.2A1.088,1.088,0,0,1,139.629,112.447Zm-3.438-5.9-3.888,4.825h3.888Z" transform="translate(-117.951 -102.406)" fill="#129048"/>
      </g>
      <g id="Group_4210" data-name="Group 4210" transform="translate(27.534 27.534)">
        <path id="Path_41351" data-name="Path 41351" d="M63.852,89.038A25.186,25.186,0,1,1,89.038,63.853,25.214,25.214,0,0,1,63.852,89.038Zm0-48.68A23.494,23.494,0,1,0,87.346,63.853,23.521,23.521,0,0,0,63.852,40.359Z" transform="translate(-38.666 -38.667)" fill="#a3c854"/>
      </g>
      <g id="Group_4211" data-name="Group 4211" transform="translate(31.954 31.954)">
        <path id="Path_41352" data-name="Path 41352" d="M75.109,95.875A20.766,20.766,0,1,1,95.875,75.109,20.79,20.79,0,0,1,75.109,95.875Zm0-39.841A19.075,19.075,0,1,0,94.184,75.109,19.1,19.1,0,0,0,75.109,56.035Z" transform="translate(-54.343 -54.343)" fill="#a3c854"/>
      </g>
      <g id="Group_4216" data-name="Group 4216" transform="translate(32.139 32.139)">
        <g id="Group_4212" data-name="Group 4212" transform="translate(19.735)">
          <path id="Path_41353" data-name="Path 41353" d="M125.846,59.511a.846.846,0,0,1-.846-.846V55.846a.846.846,0,1,1,1.692,0v2.819A.846.846,0,0,1,125.846,59.511Z" transform="translate(-125 -55)" fill="#a3c854"/>
        </g>
        <g id="Group_4213" data-name="Group 4213" transform="translate(19.735 36.651)">
          <path id="Path_41354" data-name="Path 41354" d="M125.846,189.511a.846.846,0,0,1-.846-.846v-2.819a.846.846,0,0,1,1.692,0v2.819A.846.846,0,0,1,125.846,189.511Z" transform="translate(-125 -185)" fill="#a3c854"/>
        </g>
        <g id="Group_4214" data-name="Group 4214" transform="translate(36.651 19.735)">
          <path id="Path_41355" data-name="Path 41355" d="M188.665,126.692h-2.819a.846.846,0,0,1,0-1.692h2.819a.846.846,0,0,1,0,1.692Z" transform="translate(-185 -125)" fill="#a3c854"/>
        </g>
        <g id="Group_4215" data-name="Group 4215" transform="translate(0 19.735)">
          <path id="Path_41356" data-name="Path 41356" d="M58.665,126.692H55.846a.846.846,0,1,1,0-1.692h2.819a.846.846,0,0,1,0,1.692Z" transform="translate(-55 -125)" fill="#a3c854"/>
        </g>
      </g>
    </g>
  </g>
</svg>
