<svg xmlns="http://www.w3.org/2000/svg" xmlns:xlink="http://www.w3.org/1999/xlink" width="60" height="60" viewBox="0 0 60 60">
  <defs>
    <clipPath id="clip-path">
      <rect id="Rectangle_271" data-name="Rectangle 271" width="4.311" height="2.155" fill="#fff"/>
    </clipPath>
  </defs>
  <g id="Group_4203" data-name="Group 4203" transform="translate(-854.158 -1189.158)">
    <rect id="Rectangle_313" data-name="Rectangle 313" width="60" height="60" transform="translate(854.158 1189.158)" fill="none"/>
    <g id="trucks-_1_" transform="translate(842.678 1434.296)">
      <g id="Group_4126" data-name="Group 4126" transform="translate(44.922 -228.109)">
        <path id="Path_41295" data-name="Path 41295" d="M349.62-227.8a1.685,1.685,0,0,0-.581.486c-.284.351-.284.459-.284,5.065v4.7l-.365.2A2.779,2.779,0,0,0,347-215.159a3.068,3.068,0,0,0,.783,1.932l.473.486-.027,1.823-.027,1.823-.432.351-.432.365v1.432c0,1.648.149,1.931,1.135,2.067l.554.081v.594a2.331,2.331,0,0,0,1.729,2.337,7.924,7.924,0,0,0,2.931-.014,2.278,2.278,0,0,0,1.688-2.283v-.675h5.538v.675a2.093,2.093,0,0,0,.81,1.8,3.349,3.349,0,0,0,2.364.635,3.349,3.349,0,0,0,2.364-.635,2.093,2.093,0,0,0,.81-1.8v-.675h.486a1.146,1.146,0,0,0,.878-.392c.378-.392.392-.446.392-1.7s-.013-1.31-.405-1.715c-.392-.378-.405-.446-.419-1.634a15.8,15.8,0,0,0-.108-1.878c-.095-.581-.081-.648.27-.9a2.967,2.967,0,0,0,.932-1.986,3.153,3.153,0,0,0-.257-1.067c-.23-.513-.973-1.283-1.229-1.283-.068,0-.135-2.121-.162-4.714-.041-4.552-.054-4.741-.324-5.106-.54-.729-.311-.716-9.171-.7C353.618-227.923,349.769-227.869,349.62-227.8Zm16.56,5.605c0,4.255-.014,4.39-.257,4.39-.284,0-.351-.135-.486-1.081a2.843,2.843,0,0,0-1.945-2.418,45.216,45.216,0,0,0-5.4-.149c-4.944,0-4.944,0-5.646.324a2.55,2.55,0,0,0-1.04.851,5.528,5.528,0,0,0-.689,2.094c-.054.257-.162.378-.338.378-.27,0-.27-.108-.27-4.39v-4.39H366.18Zm-2.661,2.553c.392.365.405.378.743,2.472l.257,1.526h-6.335c-5.93,0-6.321-.014-6.321-.243,0-.338.5-3.161.608-3.444.243-.594.54-.621,5.754-.635h4.944Zm-13.142,3.877a1.888,1.888,0,0,1-.756,1.135,4.818,4.818,0,0,1-.77.608c-.216,0-.54-.918-.446-1.283a1.316,1.316,0,0,1,1.4-1.013h.662Zm17.059-.284a1.31,1.31,0,0,1,.311,1.607c-.122.23-.27.419-.324.419a5.859,5.859,0,0,1-.756-.608,1.887,1.887,0,0,1-.756-1.135l-.095-.554h.635A1.53,1.53,0,0,1,367.436-216.051Zm-2.094,2.175a2.526,2.526,0,0,1,.986.9c.378.594.392.675.392,2.283v1.661H349.539l.054-1.729c.04-1.621.068-1.769.405-2.283a2.7,2.7,0,0,1,.945-.837c.567-.284.7-.284,7.186-.284S364.762-214.16,365.342-213.876Zm-14.831,6.943v.756l-.9-.041-.918-.041-.041-.527c-.068-.824,0-.891.986-.891h.878Zm13.912,0v.743H351.863v-1.486h12.561Zm3.215-.041-.041.716-.9.041-.918.041v-1.5h1.9Z" transform="translate(-347 227.927)" fill="#a3c854"/>
        <path id="Path_41296" data-name="Path 41296" d="M407.135-117.756a4.49,4.49,0,0,0-.135,1.229c0,1.162.149,1.486.648,1.486.594,0,.7-.216.7-1.486a3.088,3.088,0,0,0-.162-1.324A.771.771,0,0,0,407.135-117.756Z" transform="translate(-398.895 132.861)" fill="#129048"/>
        <path id="Path_41297" data-name="Path 41297" d="M424.216-117.614a2.215,2.215,0,0,0-.216,1.189c0,1,.243,1.486.729,1.486.554,0,.756-.392.756-1.513,0-.81-.054-1.054-.243-1.229A.653.653,0,0,0,424.216-117.614Z" transform="translate(-413.599 132.759)" fill="#129048"/>
        <path id="Path_41298" data-name="Path 41298" d="M442.216-117.749c-.162.149-.216.486-.216,1.27,0,1.148.162,1.486.729,1.486.513,0,.621-.257.621-1.486a3.088,3.088,0,0,0-.162-1.324A.743.743,0,0,0,442.216-117.749Z" transform="translate(-429.168 132.813)" fill="#129048"/>
        <path id="Path_41299" data-name="Path 41299" d="M378.427-108.662c-.2.311-.2.365,0,.675.405.608,1.837.392,1.837-.284,0-.527-.27-.729-.945-.729C378.751-109,378.616-108.946,378.427-108.662Z" transform="translate(-374.051 125.064)" fill="#a3c854"/>
        <path id="Path_41300" data-name="Path 41300" d="M466.188-108.816c-.54.527-.027,1.175.878,1.108.473-.027.621-.108.783-.405.189-.324.189-.378-.041-.635A1.427,1.427,0,0,0,466.188-108.816Z" transform="translate(-449.898 125.096)" fill="#129048"/>
      </g>
      <g id="Group_4125" data-name="Group 4125" transform="translate(15.479 -228.088)">
        <path id="Path_41283" data-name="Path 41283" d="M2.58-227.625a2.04,2.04,0,0,0-.608.54c-.27.365-.284.554-.324,5.011l-.041,4.633L1.054-217A2.852,2.852,0,0,0,0-214.915a2.967,2.967,0,0,0,.932,1.986c.351.257.365.324.27.9a15.8,15.8,0,0,0-.108,1.877c-.014,1.189-.027,1.256-.419,1.634-.392.405-.405.446-.405,1.715s.014,1.31.392,1.7a1.146,1.146,0,0,0,.878.392h.486v.675a2.093,2.093,0,0,0,.81,1.8A3.349,3.349,0,0,0,5.2-201.6a3.349,3.349,0,0,0,2.364-.635,2.093,2.093,0,0,0,.81-1.8v-.675h5.538v.675a2.278,2.278,0,0,0,1.688,2.283,7.924,7.924,0,0,0,2.931.014,2.331,2.331,0,0,0,1.729-2.337v-.594l.554-.081c.986-.135,1.135-.419,1.135-2.067v-1.432l-.432-.365-.432-.351-.027-1.823-.027-1.823.473-.5a2.59,2.59,0,0,0-.473-4.012l-.5-.324v-9.414l-.392-.432-.392-.446-8.428-.027C4.808-227.787,2.836-227.76,2.58-227.625Zm16.6,5.565c0,4.282,0,4.39-.27,4.39-.176,0-.284-.122-.338-.378a5.529,5.529,0,0,0-.689-2.094,2.551,2.551,0,0,0-1.04-.851c-.7-.324-.7-.324-5.646-.324a45.215,45.215,0,0,0-5.4.149,2.843,2.843,0,0,0-1.945,2.418c-.135.945-.2,1.081-.486,1.081-.243,0-.257-.135-.257-4.39v-4.39H19.18Zm-2.85,2.431a1.112,1.112,0,0,1,.486.432c.108.284.608,3.107.608,3.444,0,.23-.392.243-6.321.243H4.768l.257-1.526c.338-2.094.351-2.107.743-2.472l.351-.324h4.917C15.087-219.832,16.019-219.791,16.33-219.629Zm-12.953,4A1.887,1.887,0,0,1,2.62-214.5a5.858,5.858,0,0,1-.756.608c-.23.014-.54-.851-.459-1.3a1.294,1.294,0,0,1,1.432-1h.635Zm17.086-.23a1.234,1.234,0,0,1,.3,1.513c-.122.257-.27.459-.324.459a4.817,4.817,0,0,1-.77-.608,1.887,1.887,0,0,1-.756-1.135l-.095-.554h.662A1.155,1.155,0,0,1,20.463-215.861Zm-2.121,2.121a2.686,2.686,0,0,1,.945.837c.338.513.365.662.405,2.283l.054,1.729H2.566v-1.621a4.276,4.276,0,0,1,.27-2.161,2.659,2.659,0,0,1,1.364-1.2c.189-.081,3.134-.135,6.929-.135C17.6-214.024,17.762-214.024,18.343-213.74ZM3.512-206.8v.756l-.9-.041-.918-.041-.041-.716-.041-.7h1.9Zm13.912,0v.743H4.863v-1.486H17.424Zm3.174,0v.675l-.9.041-.918.041v-1.513l.918.041.9.041Z" transform="translate(0 227.77)" fill="#a3c854"/>
        <path id="Path_41284" data-name="Path 41284" d="M60.162-117.8a5.486,5.486,0,0,0,0,2.647.743.743,0,0,0,.973-.054,3.576,3.576,0,0,0,0-2.539A.743.743,0,0,0,60.162-117.8Z" transform="translate(-51.896 132.791)" fill="#129048"/>
        <path id="Path_41285" data-name="Path 41285" d="M77.121-117.757a3.205,3.205,0,0,0,.014,2.5c.689.621,1.243.054,1.243-1.256,0-1-.243-1.486-.729-1.486A.8.8,0,0,0,77.121-117.757Z" transform="translate(-66.491 132.827)" fill="#129048"/>
        <path id="Path_41286" data-name="Path 41286" d="M95.162-117.851a5.486,5.486,0,0,0,0,2.647.743.743,0,0,0,.973-.054,4.315,4.315,0,0,0,.081-2.5A.771.771,0,0,0,95.162-117.851Z" transform="translate(-82.168 132.84)" fill="#129048"/>
        <path id="Path_41287" data-name="Path 41287" d="M31.262-108.848c-.23.257-.23.311-.041.635.378.7,1.877.5,1.877-.257C33.1-109.131,31.776-109.415,31.262-108.848Z" transform="translate(-26.886 125.174)" fill="#129048"/>
        <path id="Path_41288" data-name="Path 41288" d="M119.188-108.743c-.338.648.014,1.094.878,1.094.486,0,.648-.068.824-.338.2-.311.2-.365,0-.675-.189-.284-.324-.338-.891-.338C119.471-109,119.3-108.946,119.188-108.743Z" transform="translate(-102.979 125.042)" fill="#a3c854"/>
        <g id="Mask_Group_17" data-name="Mask Group 17" transform="translate(3.089 22.941)" clip-path="url(#clip-path)">
          <circle id="Ellipse_109" data-name="Ellipse 109" cx="2.155" cy="2.155" r="2.155" transform="translate(0 -2.155)" fill="#fff"/>
        </g>
      </g>
      <path id="Path_41301" data-name="Path 41301" d="M1.283.764,1.989.442,18.773.467l.5.258.385.87.1,8.983,1.4,15.912H0l.073-2.32L.491,10.847l.328-.191L.957,1.514Z" transform="translate(30.915 -228.406)" fill="#fff"/>
      <path id="Path_41289" data-name="Path 41289" d="M176.4-227.9c-.756.405-.783.567-.783,5.578v4.579l-.473.3A2.564,2.564,0,0,0,174-215.314a2.4,2.4,0,0,0,.729,1.918l.432.473-.054,1.918c-.041,1.5-.095,1.932-.23,1.932-.432,0-.608.567-.608,1.9a10.011,10.011,0,0,0,.081,1.54,1.586,1.586,0,0,0,1.175.608c.3,0,.338.068.405.743a2.486,2.486,0,0,0,1.148,1.986,3.144,3.144,0,0,0,1.715.351c1.931.081,2.823-.284,3.323-1.378a3.373,3.373,0,0,0,.257-1.135v-.567h5.4v.567a3.373,3.373,0,0,0,.257,1.135c.5,1.094,1.391,1.459,3.323,1.378a3.144,3.144,0,0,0,1.715-.351,2.486,2.486,0,0,0,1.148-1.986c.068-.675.108-.743.405-.743a1.586,1.586,0,0,0,1.175-.608,10.007,10.007,0,0,0,.081-1.54c0-1.337-.176-1.9-.608-1.9-.135,0-.189-.432-.23-1.918l-.054-1.932.432-.473a2.4,2.4,0,0,0,.729-1.918A2.564,2.564,0,0,0,195-217.449l-.473-.3v-4.579c0-5.038-.027-5.187-.81-5.592C193.139-228.214,176.958-228.214,176.4-227.9Zm16.749,5.551.027,4.363h-.324c-.3,0-.338-.081-.419-.716a3.105,3.105,0,0,0-1.756-2.674c-.5-.23-.959-.257-5.605-.257s-5.106.027-5.605.257a3.105,3.105,0,0,0-1.756,2.674c-.081.635-.122.716-.419.716h-.324v-4.3c0-2.364.041-4.349.095-4.39s3.674-.081,8.064-.068l7.983.041Zm-2.836,2.418c.446.311.54.567.77,2.04.122.729.243,1.486.284,1.688l.081.378H178.7l.081-.378c.041-.2.162-.959.284-1.688.378-2.418-.054-2.256,6.011-2.256C189.317-220.15,190.06-220.123,190.316-219.934Zm-13.007,4a1.19,1.19,0,0,1-.378.783,5.891,5.891,0,0,0-.689.594l-.405.378-.243-.3a1.477,1.477,0,0,1-.243-.81A1.279,1.279,0,0,1,176.8-216.5h.608Zm17.073-.216a.915.915,0,0,1,.419.864,1.476,1.476,0,0,1-.243.81l-.243.3-.405-.378a5.891,5.891,0,0,0-.689-.594,1.19,1.19,0,0,1-.378-.783l-.095-.567h.608A1.347,1.347,0,0,1,194.382-216.152Zm-2.161,2.08a2.725,2.725,0,0,1,1.364,1.594,11.145,11.145,0,0,1,.135,1.877v1.391H176.431V-210.6a11.145,11.145,0,0,1,.135-1.877,2.758,2.758,0,0,1,1.337-1.594c.459-.243.851-.257,7.145-.27C191.4-214.342,191.735-214.328,192.221-214.072Zm-14.844,6.956v.743h-1.756v-1.486h1.756Zm13.912,0v.743H178.863v-1.486h12.426Zm3.242,0v.743h-1.756v-1.486h1.756Z" transform="translate(-143.869 0)" fill="#a3c854"/>
      <path id="Path_41290" data-name="Path 41290" d="M233.216-117.7a2.214,2.214,0,0,0-.216,1.189c0,1.013.243,1.486.743,1.486s.743-.473.743-1.486-.243-1.486-.743-1.486A.732.732,0,0,0,233.216-117.7Z" transform="translate(-194.9 -95.261)" fill="#129048"/>
      <path id="Path_41291" data-name="Path 41291" d="M251.162-117.773a3.088,3.088,0,0,0-.162,1.324c0,1.256.108,1.486.675,1.486s.675-.23.675-1.486a3.088,3.088,0,0,0-.162-1.324A.943.943,0,0,0,251.162-117.773Z" transform="translate(-210.468 -95.326)" fill="#129048"/>
      <path id="Path_41292" data-name="Path 41292" d="M268.216-117.7a2.214,2.214,0,0,0-.216,1.189c0,1.013.243,1.486.743,1.486s.743-.473.743-1.486-.243-1.486-.743-1.486A.731.731,0,0,0,268.216-117.7Z" transform="translate(-225.172 -95.261)" fill="#129048"/>
      <path id="Path_41293" data-name="Path 41293" d="M205.2-108.838a.743.743,0,0,0,.054.973,1.623,1.623,0,0,0,1.513.054.831.831,0,0,0,.162-.513c0-.5-.243-.675-.945-.675A1.47,1.47,0,0,0,205.2-108.838Z" transform="translate(-170.717 -103.046)" fill="#129048"/>
      <path id="Path_41294" data-name="Path 41294" d="M293.162-108.838a.831.831,0,0,0-.162.513c0,.5.243.675.891.675s1-.257,1-.729c0-.446-.257-.621-.945-.621A1.47,1.47,0,0,0,293.162-108.838Z" transform="translate(-246.796 -103.046)" fill="#129048"/>
      <g id="Mask_Group_18" data-name="Mask Group 18" transform="translate(33.082 -205.147)" clip-path="url(#clip-path)">
        <circle id="Ellipse_110" data-name="Ellipse 110" cx="2.155" cy="2.155" r="2.155" transform="translate(0 -2.155)" fill="#fff"/>
      </g>
      <g id="Mask_Group_19" data-name="Mask Group 19" transform="translate(45.08 -205.147)" clip-path="url(#clip-path)">
        <circle id="Ellipse_111" data-name="Ellipse 111" cx="2.155" cy="2.155" r="2.155" transform="translate(0 -2.155)" fill="#fff"/>
      </g>
      <g id="Mask_Group_20" data-name="Mask Group 20" transform="translate(59.808 -205.147)" clip-path="url(#clip-path)">
        <circle id="Ellipse_112" data-name="Ellipse 112" cx="2.155" cy="2.155" r="2.155" transform="translate(0 -2.155)" fill="#fff"/>
      </g>
    </g>
  </g>
</svg>
