<svg xmlns="http://www.w3.org/2000/svg" width="60" height="60" viewBox="0 0 60 60">
  <g id="Group_4203" data-name="Group 4203" transform="translate(-854.158 -1189.158)">
    <rect id="Rectangle_313" data-name="Rectangle 313" width="60" height="60" transform="translate(854.158 1189.158)" fill="none"/>
    <g id="fuel-pump" transform="translate(858.997 1193.975)">
      <path id="Path_41244" data-name="Path 41244" d="M17.731-511.764a2.435,2.435,0,0,0-1.2,1.21c-.1.256-.128,1.683-.128,7.439V-496l.246.5a2.531,2.531,0,0,0,2.48,1.309h.521v3.326l-1.112.03c-1.043.039-1.141.059-1.476.315a2.218,2.218,0,0,0-.482.492,15.425,15.425,0,0,0-.177,3.011l-.049,2.794-.413.118a4.316,4.316,0,0,0-2.47,2.194l-.266.561-.049,5.067c-.049,5-.049,5.077-.266,5.481a2.119,2.119,0,0,1-3.778.01c-.177-.354-.187-.7-.187-8.245v-7.871h.62a1.625,1.625,0,0,0,1.515-.679c.226-.325.226-.384.226-3.3,0-2.755-.01-2.981-.2-3.276a1.313,1.313,0,0,0-.384-.413c-.177-.1-.2-.236-.226-2.44l-.03-2.342-.315-.679a7.756,7.756,0,0,0-1.712-2.086,14.454,14.454,0,0,0-1.712-1.555,1.517,1.517,0,0,0-1.535.118A5.905,5.905,0,0,0,3.4-501.58c-.216.718-.079,1.013,1.033,2.175,1.279,1.338,1.338,1.5,1.338,3.355,0,1.3-.01,1.348-.236,1.5-.512.344-.551.6-.551,3.709,0,3.158.01,3.227.61,3.65a1.835,1.835,0,0,0,1.063.285l.738.049.049,8.068.049,8.068.276.561A3.974,3.974,0,0,0,9.692-468.4a3.827,3.827,0,0,0,2.627-.01,4.048,4.048,0,0,0,2.027-2.017c.226-.59.226-.61.285-5.677l.049-5.077.3-.423a2.9,2.9,0,0,1,1.21-1.023c.216-.059.216-.059.216.964,0,.9.03,1.063.216,1.348.443.649.659.738,1.909.768l1.122.039v9.967l-.453.236a2.483,2.483,0,0,0-1.22,2.391v.571H1.181l-.335.226a2.527,2.527,0,0,0-.561.561c-.216.325-.226.413-.2,1.643.03,1.407.1,1.584.708,2.037.256.2.423.207,3.139.236a15.355,15.355,0,0,0,3.09-.089.759.759,0,0,0,.039-1.259,17.685,17.685,0,0,0-2.853-.108H1.545v-1.771H48.971v1.771H29.2c-10.873,0-19.846.03-19.935.059a.887.887,0,0,0-.3.344.7.7,0,0,0,.216.905c.187.157,1.24.167,20.23.148l20.033-.03.266-.207c.63-.462.679-.62.679-2.106,0-1.515-.059-1.673-.738-2.145-.305-.207-.413-.216-2.224-.216H45.527v-.738a3.586,3.586,0,0,0-.138-1.073,2.923,2.923,0,0,0-1.141-1.24l-.3-.118v-24.648l.767-.059a2.388,2.388,0,0,0,2.243-1.348c.177-.325.187-.728.216-7.321.03-7.793.039-7.675-.62-8.354-.748-.767.236-.708-11.345-.738L24.854-512l-.236.236a.656.656,0,0,0,.01,1.033c.266.207.3.207,10.381.207H45.124l.276.236.276.236.03,6.8c.03,7.458.039,7.3-.551,7.458-.148.049-6.228.079-13.519.079H18.39l-.256-.236-.256-.236v-6.868c0-3.778.03-6.937.059-7.025.148-.374.541-.443,2.548-.443,1.919,0,1.929,0,2.165-.246a.81.81,0,0,0,.246-.492.81.81,0,0,0-.246-.492c-.236-.246-.236-.246-2.332-.246C18.331-512,18.193-511.99,17.731-511.764ZM7.36-501.108a12.4,12.4,0,0,1,1.417,1.653c.177.344.2.64.226,2.48l.03,2.1H7.271l-.03-1.555L7.2-497.989l-.364-.738a5.544,5.544,0,0,0-1.2-1.564l-.846-.836.61-.61a4.422,4.422,0,0,1,.679-.62C6.11-502.357,6.691-501.8,7.36-501.108Zm35.117,15.92v9H21.125v-18.006H42.477ZM8.334-490.894v2.509H6.465V-493.4H8.334Zm11.3,5.727-.03,4.113-.856.03-.866.029v-8.275h1.771Zm22.749,13v2.45l-1.1.059c-.61.039-5.392.069-10.627.069H21.125v-5.018H42.379Zm1.427,4.3c.216.207.246.325.246.886v.64H19.433l.039-.649c.039-.571.079-.689.315-.886l.266-.236H43.569Z" transform="translate(-0.077 512)" fill="#a3c854"/>
      <path id="Path_41245" data-name="Path 41245" d="M315.708-229.7c-.659.413-.708.59-.708,2.952s.049,2.548.708,2.952c.305.187.5.2,4.073.2,3.729,0,3.749,0,4.074-.226.708-.482.738-.561.767-2.666.039-2.175-.02-2.529-.521-3.011l-.354-.344-3.857-.03C316.181-229.9,316.023-229.9,315.708-229.7Zm7.36,2.952v1.673h-6.592v-3.345h6.592Z" transform="translate(-284.013 257.643)" fill="#129048"/>
      <path id="Path_41246" data-name="Path 41246" d="M199.984-478.638a1.8,1.8,0,0,0-.472.315c-.521.482-.512.423-.512,5.264v4.516l.226.325a1.924,1.924,0,0,0,.561.531c.344.207.423.207,11.365.207h11.02l.364-.226a1.655,1.655,0,0,0,.561-.649c.2-.4.207-.561.207-4.743,0-3.995-.02-4.349-.187-4.723a1.842,1.842,0,0,0-.512-.64l-.335-.236-11.02-.02c-1.638,0-3.106,0-4.644,0C202.473-478.712,200.105-478.684,199.984-478.638Zm9.495,5.549v2.531h-5.694l-.062-2.531v-.836h5.756Z" transform="translate(-179.427 481.994)" fill="none" stroke="#129048" stroke-width="1.5"/>
      <rect id="Rectangle_268" data-name="Rectangle 268" width="7.364" height="1.227" rx="0.614" transform="translate(34.857 6.15)" fill="#a3c854"/>
      <rect id="Rectangle_269" data-name="Rectangle 269" width="4.419" height="1.227" rx="0.614" transform="translate(37.803 9.095)" fill="#a3c854"/>
    </g>
  </g>
</svg>
