<svg xmlns="http://www.w3.org/2000/svg" width="60" height="60" viewBox="0 0 60 60">
  <g id="Group_4203" data-name="Group 4203" transform="translate(-854.158 -1189.158)">
    <rect id="Rectangle_313" data-name="Rectangle 313" width="60" height="60" transform="translate(854.158 1189.158)" fill="none"/>
    <g id="smart-home" transform="translate(858.819 1705.791)">
      <path id="Path_41256" data-name="Path 41256" d="M24.641-511.692a4.8,4.8,0,0,0-.847.384c-.2.128-2.285,2.206-4.639,4.629l-4.275,4.393-.049-2.492a24.427,24.427,0,0,0-.138-2.669c-.207-.433-.463-.463-3.8-.463-3.428,0-3.585.02-3.822.542a65.665,65.665,0,0,0-.118,6.747v6.491l-2.906,2.984C.618-487.63.5-487.453.5-486.044a2.539,2.539,0,0,0,.325,1.5A3.381,3.381,0,0,0,2.509-482.9a2.618,2.618,0,0,0,1.389.256A3.244,3.244,0,0,0,6.41-483.69l.542-.512v2.669c0,2.876.03,3.083.5,3.329a.94.94,0,0,0,.926.02c.532-.236.542-.345.552-4.383v-3.723l8.3-8.471c4.56-4.659,8.362-8.471,8.431-8.471s3.861,3.812,8.431,8.471l8.3,8.471v9.475l.01,9.485H8.921v-2.019c0-2.177-.049-2.433-.5-2.669a.974.974,0,0,0-1.349.4,10.358,10.358,0,0,0-.118,2.256v2.009l-.867.039a3.139,3.139,0,0,0-1.428.305,2.747,2.747,0,0,0-1.6,2.63,2.75,2.75,0,0,0,1.605,2.63l.561.276H46.1l.561-.276a2.75,2.75,0,0,0,1.605-2.63,2.747,2.747,0,0,0-1.6-2.63,3.139,3.139,0,0,0-1.428-.305l-.867-.039V-484.2l.542.512a3.244,3.244,0,0,0,2.512,1.044,2.54,2.54,0,0,0,1.5-.325,3.324,3.324,0,0,0,1.635-1.684,2.728,2.728,0,0,0,.266-1.4c0-1.546.768-.66-11.81-13.592C32.9-505.94,27.734-511.18,27.537-511.308A3.679,3.679,0,0,0,24.641-511.692Zm1.586,1.911c.384.138,22.27,22.624,22.506,23.136a1.286,1.286,0,0,1-.02,1.29,1.451,1.451,0,0,1-1.94.611c-.167-.089-4.619-4.58-9.879-9.968-12-12.282-10.716-11.031-11.228-11.031s.749-1.231-11.327,11.13c-5.22,5.338-9.623,9.781-9.79,9.869a1.457,1.457,0,0,1-1.95-1.95c.246-.453,22.161-22.969,22.467-23.077A1.873,1.873,0,0,1,26.227-509.781Zm-13.376,6.717v2.886l-1.97,2.009-1.96,2.019v-9.79h3.94Zm32.956,37.822a1.069,1.069,0,0,1,.542.867,1.069,1.069,0,0,1-.542.867c-.374.168-39.91.168-40.284,0a.982.982,0,0,1-.039-1.714C5.819-465.409,45.414-465.429,45.808-465.242Z" transform="translate(-0.262 0)" fill="#a3c854" stroke="#a3c854" stroke-width="0.3"/>
      <path id="Path_41258" data-name="Path 41258" d="M66.693-148.737a.987.987,0,0,0,.483,1.832,1.042,1.042,0,0,0,.985-.975A.992.992,0,0,0,66.693-148.737Z" transform="translate(-59.269 -327.221)" fill="#129048"/>
      <g id="oil" transform="translate(17.953 -492.82)">
        <path id="Path_41249" data-name="Path 41249" d="M283.024-510.114c-.275.35-.735.941-1.023,1.309a6.986,6.986,0,0,0-1.418,2.356,2.961,2.961,0,0,0,0,1.388,3.025,3.025,0,0,0,2.957,2.3,2.933,2.933,0,0,0,2.05-.8,3.081,3.081,0,0,0,.876-1.418,2.3,2.3,0,0,0,.079-.8,1.95,1.95,0,0,0-.1-.807,9.741,9.741,0,0,0-1.861-2.833c-.543-.69-1-1.271-1.023-1.291S283.4-510.6,283.024-510.114Z" transform="translate(-271.084 510.716)" fill="none" stroke="#129048" stroke-width="1.8"/>
        <path id="Path_41250" data-name="Path 41250" d="M58.881-450.338c-1.106,1.408-2.147,2.758-2.311,2.995a8.428,8.428,0,0,0-1.412,2.772A4.931,4.931,0,0,0,55-443.2a5.893,5.893,0,0,0,3.692,5.423,5.849,5.849,0,0,0,4.932-.237,5.9,5.9,0,0,0,3.18-5.457,5.312,5.312,0,0,0-.522-2.1l-.144-.313-.512-.021a3.673,3.673,0,0,1-1.487-.326,4.329,4.329,0,0,1-1.714-1.425,4.044,4.044,0,0,1-.7-2.655,4.441,4.441,0,0,1,.254-1.041l.052-.117-.5-.639c-.271-.35-.529-.673-.57-.714l-.072-.076Z" transform="translate(-55 456.295)" fill="none" stroke="#129048" stroke-width="1.8"/>
      </g>
    </g>
  </g>
</svg>
