<svg id="Group_3851" data-name="Group 3851" xmlns="http://www.w3.org/2000/svg" width="25.326" height="18.302" viewBox="0 0 25.326 18.302">
  <g id="youtube-5" transform="translate(0 0)">
    <g id="Group_540" data-name="Group 540" transform="translate(12.256 0)">
      <g id="Group_539" data-name="Group 539">
        <path id="Path_539" data-name="Path 539" d="M248.31,71h-.037a.5.5,0,0,0-.495.493h0a.5.5,0,0,0,.493.495h.037a.5.5,0,0,0,.495-.493h0A.5.5,0,0,0,248.31,71Z" transform="translate(-247.778 -71.001)" fill="#fff"/>
      </g>
    </g>
    <g id="Group_542" data-name="Group 542" transform="translate(0 0.018)">
      <g id="Group_541" data-name="Group 541">
        <path id="Path_540" data-name="Path 540" d="M24.8,74.411a3.569,3.569,0,0,0-2.5-2.538,46.306,46.306,0,0,0-7.469-.513.495.495,0,0,0-.017.989,43.115,43.115,0,0,1,7.226.479,2.577,2.577,0,0,1,1.8,1.835,32.43,32.43,0,0,1,.492,5.827,32.432,32.432,0,0,1-.492,5.827,2.577,2.577,0,0,1-1.8,1.835c-1.813.494-9.3.5-9.378.5s-7.566-.006-9.379-.5a2.577,2.577,0,0,1-1.8-1.835,34.738,34.738,0,0,1,0-11.654,2.577,2.577,0,0,1,1.8-1.835,44.353,44.353,0,0,1,7.44-.482.495.495,0,1,0-.015-.989,47.635,47.635,0,0,0-7.684.516,3.568,3.568,0,0,0-2.5,2.538,35.468,35.468,0,0,0,0,12.158,3.569,3.569,0,0,0,2.5,2.538c1.939.528,9.325.534,9.638.534s7.7-.006,9.638-.534a3.568,3.568,0,0,0,2.5-2.538,32.6,32.6,0,0,0,.525-6.079A32.606,32.606,0,0,0,24.8,74.411Z" transform="translate(0 -71.357)" fill="#fff"/>
      </g>
    </g>
    <g id="Group_544" data-name="Group 544" transform="translate(2.374 7.841)">
      <g id="Group_543" data-name="Group 543">
        <path id="Path_541" data-name="Path 541" d="M48.495,229.521a.5.5,0,0,0-.495.495v4.031a.495.495,0,1,0,.989,0v-4.031A.5.5,0,0,0,48.495,229.521Z" transform="translate(-48 -229.521)" fill="#fff"/>
      </g>
    </g>
    <g id="Group_546" data-name="Group 546" transform="translate(2.374 5.591)">
      <g id="Group_545" data-name="Group 545">
        <path id="Path_542" data-name="Path 542" d="M48.495,184.021a.5.5,0,0,0-.495.495v.006a.495.495,0,1,0,.989,0v-.006A.5.5,0,0,0,48.495,184.021Z" transform="translate(-48 -184.021)" fill="#fff"/>
      </g>
    </g>
    <g id="Group_548" data-name="Group 548" transform="translate(9.798 5.17)">
      <g id="Group_547" data-name="Group 547">
        <path id="Path_543" data-name="Path 543" d="M204.961,179.149l-6.134-3.562a.495.495,0,0,0-.743.428v7.123a.495.495,0,0,0,.743.428L204.961,180a.495.495,0,0,0,0-.856Zm-5.887,3.13v-5.4l4.654,2.7Z" transform="translate(-198.084 -175.52)" fill="#fff"/>
      </g>
    </g>
  </g>
</svg>
