<svg xmlns="http://www.w3.org/2000/svg" width="108" height="108" viewBox="0 0 108 108"><defs><style>.a{fill:#ffe041;}.b{fill:#178b49;}.c,.d{fill:#fff;}.d{stroke:#418950;stroke-width:1.5px;}.e{stroke:none;}.f{fill:none;}</style></defs><g transform="translate(0.005 -28)"><g transform="translate(0 28)"><circle class="a" cx="54" cy="54" r="54" transform="translate(-0.005)"/></g><g transform="translate(12.234 567.549)"><path class="b" d="M119.834-511.8a1.2,1.2,0,0,0-.661,1.158,1.171,1.171,0,0,0,.217.755c.434.548.6.579,3.3.579h2.48v4.951l-.589.062a22.6,22.6,0,0,0-13.487,6.036l-.858.816v.568a1.181,1.181,0,0,0,.827,1.292c.61.2,1.023.021,2.015-.868a19.784,19.784,0,0,1,13.436-5.209,19.676,19.676,0,0,1,14.325,6.015,19.578,19.578,0,0,1,5.643,13.984,19.7,19.7,0,0,1-5.8,14.015,20,20,0,0,1-27.74.527c-.878-.8-1.251-.951-1.86-.754a1.184,1.184,0,0,0-.868,1.116c-.062.661.134.951,1.344,1.995a22.608,22.608,0,0,0,7.875,4.527,22.674,22.674,0,0,0,23.11-5.488,22.765,22.765,0,0,0,6.356-12.32,31.976,31.976,0,0,0,.145-6.149,22.774,22.774,0,0,0-4.827-11.72c-.269-.331-.537-.672-.6-.744-.083-.114.238-.486,1.313-1.561l1.416-1.416.92.9c.9.879.94.9,1.416.9a1.268,1.268,0,0,0,1.24-.682,1.32,1.32,0,0,0-.145-1.447c-.372-.506-4.847-4.94-5.126-5.085a2.083,2.083,0,0,0-.951-.134,1.39,1.39,0,0,0-.961.93c-.165.62.01,1,.9,1.891l.806.806-1.4,1.4a19.67,19.67,0,0,1-1.478,1.4,4.684,4.684,0,0,1-.827-.61,24.354,24.354,0,0,0-6.377-3.628,24.858,24.858,0,0,0-5.808-1.292l-.7-.072v-4.94h2.563c2.346,0,2.584-.021,2.884-.207a1.326,1.326,0,0,0,0-2.274c-.32-.2-.568-.207-6.739-.207C120.434-512,120.144-511.99,119.834-511.8Z" transform="translate(-84.505)"/><path class="b" d="M256.141-381.717c-.61.393-.641.527-.641,2.387s.052,2.046.651,2.439a1.532,1.532,0,0,0,1.375,0c.548-.382.61-.61.61-2.418,0-1.86-.062-2.108-.62-2.439A1.47,1.47,0,0,0,256.141-381.717Z" transform="translate(-214.786 -116.651)"/><path class="b" d="M237.561-330.9c-.145.093-1.86,1.778-3.824,3.731l-3.576,3.555-.5-.227a5.335,5.335,0,0,0-2.635-.207,4.7,4.7,0,0,0-3.194,2.491,4.034,4.034,0,0,0-.444,2.656,4.619,4.619,0,0,0,3.493,3.907,4.666,4.666,0,0,0,5.5-2.956,5.023,5.023,0,0,0-.083-3.349l-.2-.413,3.669-3.679c3.979-3.989,3.989-4.01,3.721-4.837A1.393,1.393,0,0,0,237.561-330.9Zm-8.434,9.8a1.87,1.87,0,0,1,.775,2.026,1.973,1.973,0,0,1-3.431.837,2.391,2.391,0,0,1-.486-1.251,2.387,2.387,0,0,1,.548-1.313,1.646,1.646,0,0,1,1.581-.62A1.436,1.436,0,0,1,229.127-321.1Z" transform="translate(-185.943 -162.233)"/><path class="c" d="M16.943-315.634a1.33,1.33,0,0,0-.362,2.408c.258.145.961.165,6.873.165,6.5,0,6.584,0,6.883-.217a1.246,1.246,0,0,0,.4-1.716c-.444-.744-.052-.7-7.131-.723C19.9-315.727,17.129-315.7,16.943-315.634Z" transform="translate(0 -175.995)"/><path class="c" d="M46.672-231.793A1.616,1.616,0,0,0,46-230.677a1.611,1.611,0,0,0,.6,1.106c.269.2.465.207,6.77.238,5.922.021,6.522.01,6.863-.145a1.322,1.322,0,0,0,.031-2.367c-.258-.134-1.251-.155-6.79-.155C47.189-232,46.972-231.99,46.672-231.793Z" transform="translate(-26.938 -251.061)"/><path class="b" d="M381.7-231.8a1.3,1.3,0,0,0,.083,2.315,4.572,4.572,0,0,0,1.881.176,7.281,7.281,0,0,0,1.736-.114,1.523,1.523,0,0,0,.806-.951.961.961,0,0,0-.1-.827c-.351-.723-.568-.8-2.46-.8C382.235-232,381.966-231.969,381.7-231.8Z" transform="translate(-327.341 -251.061)"/><path class="c" d="M16.889-148.835a1.326,1.326,0,0,0-.548,1.871c.4.672.145.651,7.286.651s6.852.021,7.276-.651a1.251,1.251,0,0,0-.548-1.829c-.424-.2-.6-.207-6.79-.207C17.964-149,17.178-148.979,16.889-148.835Z" transform="translate(-0.173 -325.483)"/><path class="b" d="M345.03-143.745a1.246,1.246,0,0,0-.8,1.354c.041.475.093.548,1.292,1.736s1.261,1.251,1.736,1.292a1.064,1.064,0,0,0,.868-.2,1.414,1.414,0,0,0,.558-1.364,10.472,10.472,0,0,0-2.832-2.853A.873.873,0,0,0,345.03-143.745Z" transform="translate(-294.342 -330.087)"/><path class="b" d="M255.755-106.793c-.6.362-.7.63-.744,2.046-.041,1.664.031,2.108.413,2.553a1.226,1.226,0,0,0,1.922-.01l.341-.362v-1.767c0-1.633-.021-1.778-.217-2.067a1.6,1.6,0,0,0-1.147-.6A1.369,1.369,0,0,0,255.755-106.793Z" transform="translate(-214.338 -363.142)"/><g transform="translate(36.764 -487.479)"><g class="d" transform="translate(0 0)"><ellipse class="e" cx="5.527" cy="5.527" rx="5.527" ry="5.527"/><ellipse class="f" cx="5.527" cy="5.527" rx="4.777" ry="4.777"/></g></g></g></g></svg>