<svg xmlns="http://www.w3.org/2000/svg" width="108" height="108" viewBox="0 0 108 108"><defs><style>.a{fill:#ffe041;}.b{fill:#129048;}.c{fill:#fff;}.d{fill:none;}</style></defs><g transform="translate(0.005 -28)"><g transform="translate(0 28)"><circle class="a" cx="54" cy="54" r="54" transform="translate(-0.005)"/></g><g transform="translate(-2270.792 -13137.451)"><path class="b" d="M18,52.9c-1-.167-2.017-.259-2.993-.513C7.388,50.4,2.473,45.6.573,37.966A18.677,18.677,0,0,1,3.632,22.393Q10.923,11.7,18.091.922C18.974-.4,19.808-.2,20.538.909c2.587,3.946,5.255,7.839,7.893,11.752.086.128.177.253.3.434l1.051-1.555c.539-.8,1.073-1.6,1.618-2.4a1.047,1.047,0,0,1,1.887-.022c2.3,3.4,4.624,6.771,6.857,10.207a9.057,9.057,0,0,1-1.264,11.305,1.255,1.255,0,0,0-.394,1.129,18.621,18.621,0,0,1-3.547,13.111,18.884,18.884,0,0,1-13.909,7.944,2.347,2.347,0,0,0-.342.086Zm1.31-50.024c-.135.192-.246.344-.352.5C14.43,10.1,9.929,16.851,5.354,23.548A17.35,17.35,0,0,0,2.384,36.637,17.155,17.155,0,0,0,21.45,50.671C28.874,49.578,33.7,45.28,35.915,38.1a15.668,15.668,0,0,0,.567-5.659c-.213.083-.387.145-.556.216A9.2,9.2,0,0,1,24.743,19.024c.819-1.213,1.625-2.435,2.464-3.635a.641.641,0,0,0-.007-.859q-3.8-5.6-7.569-11.22c-.094-.139-.2-.271-.316-.431M32.37,11.464c-.084.1-.121.134-.15.176-1.965,2.913-3.942,5.816-5.887,8.743a6.742,6.742,0,0,0-1.063,4.59,7.125,7.125,0,1,0,12.96-4.818q-1.488-2.206-2.973-4.414c-.951-1.411-1.9-2.821-2.887-4.277" transform="translate(2304 13193)"/><path class="c" d="M189.721,82.986c.983,1.456,1.936,2.866,2.887,4.277q1.487,2.206,2.973,4.414a7.126,7.126,0,1,1-12.96,4.818,6.742,6.742,0,0,1,1.063-4.589c1.944-2.926,3.922-5.83,5.887-8.743.028-.042.066-.078.15-.176M183.889,95.3a5.968,5.968,0,0,0,2.488,4.755,1.039,1.039,0,1,0,1.218-1.678,3.545,3.545,0,0,1-1.251-4.353,1.044,1.044,0,0,0-.584-1.4,1,1,0,0,0-1.324.651c-.228.661-.368,1.351-.547,2.029m6.875,4.9a1.029,1.029,0,0,0-1.067-1.019,1.015,1.015,0,0,0-.993,1.037,1.035,1.035,0,0,0,1.011,1.028,1.051,1.051,0,0,0,1.048-1.046" transform="translate(2146.649 13121.478)"/><path class="b" d="M31.595,189.908a14.008,14.008,0,0,1,2.693-8.017.958.958,0,0,1,1.144-.479,1.321,1.321,0,0,1,.742.742,1.475,1.475,0,0,1-.279,1.033,12.362,12.362,0,0,0-2.051,5.025,12.092,12.092,0,0,0,7.9,13.446c.162.059.326.109.485.175a1.01,1.01,0,0,1,.658,1.28.98.98,0,0,1-1.314.665,21.718,21.718,0,0,1-2.96-1.326,14.27,14.27,0,0,1-7.014-12.543" transform="translate(2276.77 13036.7)"/><path class="b" d="M123,337.377a1.026,1.026,0,0,1-.027-2.052,1.026,1.026,0,1,1,.027,2.052" transform="translate(2198.886 12903.999)"/><path class="c" d="M192.1,154.994c.178-.678.319-1.368.547-2.029a1,1,0,0,1,1.324-.651,1.044,1.044,0,0,1,.584,1.4,3.545,3.545,0,0,0,1.251,4.353,1.039,1.039,0,1,1-1.218,1.678,5.968,5.968,0,0,1-2.488-4.755" transform="translate(2138.433 13061.785)"/><path class="c" d="M229.025,201.27a1.051,1.051,0,0,1-1.048,1.046,1.035,1.035,0,0,1-1.011-1.028,1.015,1.015,0,0,1,.993-1.037,1.029,1.029,0,0,1,1.067,1.019" transform="translate(2108.389 13020.412)"/><rect class="d" width="41.574" height="52.902" transform="translate(2304 13193)"/></g></g></svg>