<svg xmlns="http://www.w3.org/2000/svg" width="108" height="108" viewBox="0 0 108 108"><defs><style>.a{fill:#ffe041;}.b{fill:#018837;}.c{fill:#fff;}</style></defs><g transform="translate(0.005 -28)"><g transform="translate(0 28)"><circle class="a" cx="54" cy="54" r="54" transform="translate(-0.005)"/></g><g transform="translate(844.34 -3399.451)"><path class="b" d="M3.066,37.381c-.767.074-.9-.012-1.21-.8a25.9,25.9,0,0,1,17.285-34.6A25.48,25.48,0,0,1,36.135,3.173c.138.058.281.1.371.135a13.477,13.477,0,0,1,.61-1.643A3.144,3.144,0,0,1,38.856.208,3.175,3.175,0,0,0,39.237,0H40.58c.279.1.566.181.836.3a3.531,3.531,0,0,1,2.06,2.825q.5,2.763,1.08,5.511a1.879,1.879,0,0,0,.448.83A24.736,24.736,0,0,1,51.353,22.2c1.6,9.613-1.214,17.769-8.465,24.306a25.018,25.018,0,0,1-13.437,6.138A26.022,26.022,0,0,1,3.742,40.365c-.3-.514-.265-.764.177-1.228a.868.868,0,0,1,1.165.439c.515.791,1.032,1.585,1.611,2.329a22.464,22.464,0,0,0,6.065,5.516c.166.119.324.252.5.356a24.134,24.134,0,0,0,15.57,3.359,23.519,23.519,0,0,0,13.535-6.225,24.22,24.22,0,0,0,6.274-26.678,19.837,19.837,0,0,0-2.776-5.148l-.8-1.162c-.42,1.852-1.7,2.421-3.443,2.462.18.241.289.385.4.531a19.874,19.874,0,0,1,3.847,14.673c-.08.644-.257.8-.927.876a.927.927,0,0,1-.609-1.1,18.45,18.45,0,0,0-4-14.114,1.173,1.173,0,0,0-1.337-.523c-.77.17-.944.048-1.3-.572.117-.7.3-.863,1-.943,1.176-.135,2.353-.274,3.526-.43,1.023-.136,1.433-.639,1.248-1.612q-.773-4.07-1.6-8.129a1.729,1.729,0,0,0-1.588-1.457,1.857,1.857,0,0,0-2.015,2.428c.3,1.2.568,2.407.93,3.587a1.623,1.623,0,0,1-1.648,2.215c-1.236.024-2.47.127-3.7.216a1.841,1.841,0,0,0-1.774,2.178,5.847,5.847,0,0,0,.683,1.156c.5.528,1.195.415,1.842.356.715-.066.851,0,1.152.637a.864.864,0,0,1-.878.891c-.274.027-.548.056-.822.073a3.418,3.418,0,0,1-3.573-3.239,3.562,3.562,0,0,1,1.159-2.769c-.148-.054-.242-.094-.339-.123a18.577,18.577,0,1,0,2.081,34.8A18.251,18.251,0,0,0,43.453,33.133c.243-.659.4-.774,1.041-.749.573.342.656.6.412,1.291A20.132,20.132,0,1,1,33.394,8.283a1.418,1.418,0,0,0,.531.175c1.248-.059,2.495-.145,3.8-.225-.225-.871-.455-1.677-.635-2.495a.887.887,0,0,0-.539-.678A23.459,23.459,0,0,0,27.9,2.712,23.833,23.833,0,0,0,10.09,8.5,23.758,23.758,0,0,0,1.673,24.744,23.647,23.647,0,0,0,3.351,36.11a.95.95,0,0,1-.285,1.271" transform="translate(-816.238 3455)"/><path class="c" d="M58.373,34.745A19.835,19.835,0,0,0,55.6,29.6l-.8-1.162c-.42,1.852-1.7,2.421-3.443,2.462.18.241.289.385.4.531A19.875,19.875,0,0,1,55.6,46.1c-.08.644-.257.8-.927.876L54.23,48.9c.573.342.656.6.412,1.291A20.132,20.132,0,1,1,43.13,24.795a1.42,1.42,0,0,0,.531.175c1.248-.059,2.495-.145,3.8-.225-.225-.871-.455-1.678-.635-2.495a.887.887,0,0,0-.539-.678,23.459,23.459,0,0,0-8.653-2.347,23.833,23.833,0,0,0-17.812,5.785,24.3,24.3,0,0,0-6.738,27.613.95.95,0,0,1-.285,1.271l.853,1.757a.868.868,0,0,1,1.165.439c.515.791,1.032,1.585,1.611,2.329A22.464,22.464,0,0,0,22.5,63.933c.166.119.324.252.5.356a24.133,24.133,0,0,0,15.57,3.359A23.518,23.518,0,0,0,52.1,61.423a24.22,24.22,0,0,0,6.274-26.678" transform="translate(-825.974 3438.488)"/><path class="c" d="M243.6,21.01q-.773-4.07-1.6-8.129a1.729,1.729,0,0,0-1.588-1.457,1.857,1.857,0,0,0-2.015,2.428c.3,1.2.568,2.407.93,3.587a1.623,1.623,0,0,1-1.648,2.215c-1.236.024-2.47.127-3.7.216A1.841,1.841,0,0,0,232.2,22.05a5.855,5.855,0,0,0,.683,1.155c.5.528,1.195.415,1.842.356.715-.066.851,0,1.152.637l1.955-.2c.117-.7.3-.863,1-.943,1.176-.135,2.353-.274,3.526-.43,1.023-.136,1.433-.639,1.248-1.612" transform="translate(-1016.381 3445.16)"/><path class="b" d="M127.251,149.349c1.789,0,3.56,0,5.331,0,.659,0,1,.311.986.9s-.349.907-.991.907q-3.173,0-6.346,0c-.895,0-1.137-.244-1.139-1.119a3.239,3.239,0,0,0,0-.413,3.973,3.973,0,0,1,1.787-3.86c.97-.739,1.95-1.467,2.9-2.234a3.893,3.893,0,0,0,1.622-2.309,1.983,1.983,0,0,0-1.44-2.254,1.935,1.935,0,0,0-2.483,1.158,2.348,2.348,0,0,0-.077.455.973.973,0,0,1-1.166.987c-.567-.024-.844-.36-.871-1.054a3.425,3.425,0,0,1,2.856-3.366,4.334,4.334,0,0,1,4.049.952,3.726,3.726,0,0,1,.422,5.092,16.921,16.921,0,0,1-2.493,2.359c-.7.6-1.484,1.111-2.21,1.686a1.981,1.981,0,0,0-.734,2.112" transform="translate(-924.037 3336.897)"/><path class="b" d="M190.054,146.092h2.813c0-.812,0-1.6,0-2.388,0-.674.326-.958,1.055-.944.709.013.993.278.995.94,0,.787,0,1.575,0,2.4.714.071,1.638-.232,1.643.951a.859.859,0,0,1-.523.919,4.874,4.874,0,0,1-1.12.088c0,.751,0,1.485,0,2.219,0,.656-.3.92-1.013.922s-1.03-.268-1.036-.909c-.007-.737,0-1.473,0-2.263H190c-.619,0-1.239.015-1.858-.008a.7.7,0,0,1-.685-1,1.458,1.458,0,0,1,.1-.237q2.3-4.545,4.608-9.088a.965.965,0,0,1,1.317-.556c.6.23.752.6.466,1.169q-1.819,3.635-3.645,7.267c-.076.152-.146.307-.244.515" transform="translate(-977.788 3336.856)"/><path class="b" d="M183.7,67.412c0,.481.013.962,0,1.443a.778.778,0,1,1-1.549,0q-.023-1.468,0-2.937a.756.756,0,0,1,.776-.839.764.764,0,0,1,.774.843c.018.5,0,1,0,1.494" transform="translate(-973.249 3398.903)"/><path class="b" d="M182.159,294.835c0-.481-.013-.962,0-1.442.018-.54.3-.842.765-.847a.745.745,0,0,1,.784.826c.018.978.017,1.957,0,2.935a.78.78,0,0,1-.764.858c-.461.007-.762-.332-.79-.889,0-.034,0-.069,0-.1q0-.669,0-1.339" transform="translate(-973.262 3202.816)"/><path class="b" d="M59.711,189.971c.514,0,1.029-.011,1.543,0a.732.732,0,0,1,.785.712.746.746,0,0,1-.74.819q-1.568.041-3.137,0a.766.766,0,0,1,.057-1.532c.5-.014.995,0,1.492,0" transform="translate(-865.746 3291.242)"/><path class="b" d="M287.138,191.514c-.48,0-.961.011-1.44,0a.787.787,0,0,1-.864-.81c.015-.455.328-.731.868-.735q1.44-.011,2.881,0c.547,0,.848.275.86.74s-.309.789-.864.805c-.48.014-.96,0-1.44,0" transform="translate(-1061.775 3291.249)"/><path class="b" d="M125.415,283.281a5.689,5.689,0,0,1-.238.6c-.25.447-.5.9-.778,1.324a.732.732,0,0,1-1.033.244.716.716,0,0,1-.3-.98,8.492,8.492,0,0,1,.916-1.535.974.974,0,0,1,.836-.25c.244.063.416.4.6.6" transform="translate(-922.249 3211.333)"/><path class="b" d="M236.52,282.212a1.844,1.844,0,0,1,.508.4,13.254,13.254,0,0,1,.8,1.371.774.774,0,0,1-.251,1.077.757.757,0,0,1-1.066-.286c-.292-.461-.572-.933-.816-1.42-.274-.547.086-1.136.826-1.141" transform="translate(-1019.336 3211.723)"/><path class="b" d="M82.638,132.106c.016.728-.563,1.107-1.117.834a15.4,15.4,0,0,1-1.471-.849.719.719,0,0,1-.261-1,.693.693,0,0,1,.963-.351,12.269,12.269,0,0,1,1.6.928c.163.108.234.353.284.434" transform="translate(-884.934 3342.361)"/><path class="b" d="M275.693,133.65c-.308-.283-.647-.449-.7-.682a1,1,0,0,1,.246-.85,6.063,6.063,0,0,1,1.552-.9.976.976,0,0,1,.86.2c.162.161.228.716.107.815-.625.509-1.324.927-2.064,1.422" transform="translate(-1053.278 3341.915)"/><path class="b" d="M125.87,89.938c-.25.291-.4.621-.635.695a.92.92,0,0,1-.821-.179,7.3,7.3,0,0,1-.974-1.683.933.933,0,0,1,.273-.828.853.853,0,0,1,.823-.024c.482.607.867,1.291,1.334,2.02" transform="translate(-922.627 3379.293)"/><path class="b" d="M82.682,244.24a2.334,2.334,0,0,1-.447.506,12.746,12.746,0,0,1-1.28.751.779.779,0,0,1-1.113-.249.788.788,0,0,1,.343-1.091c.453-.274.908-.547,1.381-.782.544-.27,1.123.1,1.115.864" transform="translate(-884.976 3245.278)"/><path class="b" d="M277.4,244.574c.018.67-.508,1.087-1,.86a12.255,12.255,0,0,1-1.643-.934.677.677,0,0,1-.193-.958.687.687,0,0,1,.959-.334,14.38,14.38,0,0,1,1.593.924c.161.107.231.353.285.442" transform="translate(-1052.821 3245.419)"/></g></g></svg>