<svg xmlns="http://www.w3.org/2000/svg" width="108" height="108" viewBox="0 0 108 108"><defs><style>.a{fill:#ffe041;}.b{fill:#018837;}.c{fill:#dd4a39;}.d{fill:#fff;}.e{fill:#fd6044;}</style></defs><g transform="translate(0.005 -28)"><g transform="translate(0 28)"><circle class="a" cx="54" cy="54" r="54" transform="translate(-0.005)"/></g><g transform="translate(897.456 -3398.451)"><path class="b" d="M19.649,52.9a4.544,4.544,0,0,1-1.871-1.749Q10.862,41.688,3.925,32.237a19.788,19.788,0,0,1-3.783-9.53,20.259,20.259,0,0,1,13.2-21.491A20.262,20.262,0,0,1,40.165,16.435a19.764,19.764,0,0,1-3.638,15.92Q29.5,41.968,22.455,51.567A3.512,3.512,0,0,1,20.786,52.9Zm7.143-10.011,0,0a1.479,1.479,0,0,0,.18-.176q4.161-5.674,8.317-11.353A18.3,18.3,0,0,0,38.741,17.5a18.031,18.031,0,0,0-5.9-11.031,35.361,35.361,0,0,0-3.061-2.247,2.812,2.812,0,0,0-.249-.175A18.267,18.267,0,0,0,14.589,2.472,18.65,18.65,0,0,0,1.647,21.6a17.939,17.939,0,0,0,3.312,9.327c3.531,4.892,7.118,9.744,10.682,14.613q1.934,2.642,3.872,5.282c.512.7,1,.692,1.514,0,.257-.344.509-.692.761-1.04L26.574,43.2l.218-.305" transform="translate(-863.738 3455)"/><path class="c" d="M192.526,311.048l.218-.305-.218.305" transform="translate(-1029.691 3187.147)"/><path class="d" d="M37.463,38.244,38.51,37.2c.569.381.767.338,1.494-.211a15.167,15.167,0,0,1,12.705-2.949,15.58,15.58,0,0,1-6.294,30.519A15.614,15.614,0,0,1,34.237,46.513a15.182,15.182,0,0,1,3.175-6.978.916.916,0,0,0,.051-1.291M61.848,49.306c0-2.134-.01-4.269.007-6.4a1.076,1.076,0,0,0-.582-1.051q-5.567-3.2-11.124-6.416a1.07,1.07,0,0,0-1.194.006q-5.536,3.213-11.088,6.4a1.106,1.106,0,0,0-.612,1.081q.02,6.377,0,12.755a1.1,1.1,0,0,0,.629,1.071q5.529,3.173,11.04,6.379a1.154,1.154,0,0,0,1.289-.011q5.508-3.2,11.031-6.373a1.107,1.107,0,0,0,.611-1.084c-.019-2.117-.008-4.234-.008-6.352" transform="translate(-893.025 3425.964)"/><path class="b" d="M27.42,28.674a.916.916,0,0,1-.051,1.291A15.584,15.584,0,0,0,27.2,49.244a15.139,15.139,0,0,0,9.168,5.742,15.58,15.58,0,0,0,6.294-30.519A15.167,15.167,0,0,0,29.96,27.417c-.727.549-.925.592-1.494.211a.837.837,0,0,1,.209-1.22,16.331,16.331,0,0,1,8.115-3.62c6.724-.933,12.194,1.334,16.435,6.615a1.166,1.166,0,0,0,.109.106V29.5a.137.137,0,0,0,.043.087,17.152,17.152,0,0,1,.161,20c-.058.084-.108.173-.161.26a.131.131,0,0,0-.044.087v-.008a18.293,18.293,0,0,1-4.811,4.392,16.715,16.715,0,0,1-10.786,2.453A17.015,17.015,0,0,1,22.724,43.252a16.7,16.7,0,0,1,3.414-14.285c.435-.555.64-.586,1.281-.293" transform="translate(-882.981 3435.533)"/><path class="e" d="M247.045,72.789A.137.137,0,0,1,247,72.7l.07.047-.027.04" transform="translate(-1076.647 3392.333)"/><path class="e" d="M247,220.234a.131.131,0,0,1,.044-.087.349.349,0,0,1,0,.076c0,.006-.03.007-.047.011" transform="translate(-1076.644 3265.239)"/><path class="b" d="M82.327,59.12c0,2.117-.011,4.235.008,6.352a1.107,1.107,0,0,1-.611,1.084Q76.2,69.728,70.692,72.928a1.154,1.154,0,0,1-1.289.011q-5.51-3.206-11.04-6.379a1.1,1.1,0,0,1-.629-1.071q.02-6.377,0-12.755a1.106,1.106,0,0,1,.612-1.081q5.552-3.184,11.088-6.4a1.07,1.07,0,0,1,1.194-.006q5.555,3.22,11.124,6.416a1.076,1.076,0,0,1,.582,1.051c-.017,2.134-.007,4.269-.007,6.4m-3.925,7.5c.671-.38,1.335-.771,2.015-1.133a.592.592,0,0,0,.34-.612c-.009-3.523-.006-7.047-.008-10.57,0-.125-.027-.25-.051-.45l-2.4,1.425c-2.407,1.38-4.817,2.755-7.214,4.154a.722.722,0,0,0-.232.544c-.014,3.524-.01,7.049-.009,10.574,0,.126.014.252.025.443L78.4,66.617m-9.216,4.349a1.541,1.541,0,0,0,.035-.2c0-3.631.007-7.261-.013-10.892a.764.764,0,0,0-.355-.527q-4.513-2.631-9.046-5.229c-.137-.079-.284-.142-.487-.243v.551c0,3.459.006,6.917-.008,10.376a.713.713,0,0,0,.417.721c2.577,1.47,5.142,2.96,7.71,4.443.574.332,1.149.661,1.747,1M60.164,52.444a2.109,2.109,0,0,0,.194.151q4.717,2.73,9.441,5.446a.653.653,0,0,0,.54-.037c1.152-.644,2.292-1.312,3.434-1.975.122-.071.236-.158.4-.267-3.262-1.88-6.455-3.723-9.657-5.551a.6.6,0,0,0-.5.021c-1.269.714-2.527,1.449-3.848,2.212m5.747-3.32a.9.9,0,0,0,.112.105q4.74,2.739,9.488,5.464a.694.694,0,0,0,.577-.015c1.17-.647,2.325-1.321,3.483-1.991a3.965,3.965,0,0,0,.338-.249c-3.242-1.869-6.434-3.713-9.634-5.541a.6.6,0,0,0-.5.017c-1.286.72-2.559,1.461-3.859,2.21" transform="translate(-913.504 3416.15)"/><path class="b" d="M169.482,150.184c.638.132.822.356.824,1.018,0,.856-.054,1.717.016,2.568a1.58,1.58,0,0,1-.954,1.819l-4.468,2.549c-.927.529-1.493.206-1.5-.859,0-1,.009-2,0-3a1.086,1.086,0,0,1,.606-1.046c1.641-.933,3.274-1.882,4.913-2.819a4.692,4.692,0,0,1,.565-.234m-.754,2.165c-1.228.707-2.37,1.36-3.5,2.027a.449.449,0,0,0-.193.313c-.02.492-.009.985-.009,1.545,1.213-.7,2.368-1.359,3.514-2.034a.457.457,0,0,0,.183-.326c.02-.476.009-.954.009-1.525" transform="translate(-1004.584 3325.545)"/></g></g></svg>