<svg xmlns="http://www.w3.org/2000/svg" width="108" height="108" viewBox="0 0 108 108"><defs><style>.a{fill:#ffe041;}.b{fill:#018837;}.c{fill:#fff;stroke:rgba(0,0,0,0);stroke-miterlimit:10;}.d{fill:#ebcd6d;}</style></defs><g transform="translate(0.005 -28)"><g transform="translate(0 28)"><circle class="a" cx="54" cy="54" r="54" transform="translate(-0.005)"/></g><g transform="translate(835.995 -3330.451)"><path class="b" d="M52.913,37.5a2.222,2.222,0,0,0-.167.294,2.906,2.906,0,1,1-5.392-2.156c.032-.078.066-.155.092-.215-.221-.4-.515-.427-.922-.336-1.359.3-2.728.553-4.093.827a1.558,1.558,0,0,1-1.5-.48c-.638-.649-1.281-1.294-1.934-1.953l-1.817,2.486,5.08,5.07a4.149,4.149,0,0,1,3.444-.485A4.009,4.009,0,0,1,48,42.275a4.132,4.132,0,1,1-6.973,0l-5.1-5.1-2.47,1.748c.632.63,1.269,1.281,1.923,1.913a1.7,1.7,0,0,1,.514,1.728c-.29,1.308-.508,2.632-.795,3.94-.089.406-.07.7.353.915a2.953,2.953,0,0,1,2.072-.261,2.9,2.9,0,1,1-3.356,1.74.476.476,0,0,0-.14-.65,1.671,1.671,0,0,1-.508-1.779q.428-2.043.809-4.1a.689.689,0,0,0-.151-.523c-.652-.686-1.321-1.357-2.011-2a.66.66,0,0,0-.562-.119,14.536,14.536,0,0,1-10.294,0,.661.661,0,0,0-.561.121c-.691.647-1.359,1.318-2.012,2a.689.689,0,0,0-.15.524c.248,1.352.506,2.7.8,4.045a1.723,1.723,0,0,1-.534,1.865.416.416,0,0,0-.121.566A2.763,2.763,0,0,1,18.15,52a2.724,2.724,0,0,1-2.984.733,2.806,2.806,0,0,1-1.992-2.514,2.915,2.915,0,0,1,3.9-2.964c.144.053.284.115.411.167.4-.219.428-.511.337-.919-.3-1.358-.553-2.728-.828-4.092a1.552,1.552,0,0,1,.476-1.5c.674-.661,1.344-1.326,2.006-1.98l-2.538-1.793L11.881,42.2a4.161,4.161,0,0,1-1.176,5.724,4.13,4.13,0,1,1-.059-6.905l5.081-5.083-1.791-2.454c-.575.577-1.184,1.154-1.752,1.768a1.849,1.849,0,0,1-1.941.612c-1.288-.3-2.6-.506-3.888-.8a.685.685,0,0,0-.873.357A3.02,3.02,0,0,1,5.717,37.6a2.9,2.9,0,1,1-1.765-3.472c.329.131.514.119.736-.147A1.635,1.635,0,0,1,6.427,33.5c1.363.283,2.728.556,4.1.809a.69.69,0,0,0,.525-.146c.737-.7,1.449-1.423,2.2-2.17a14.1,14.1,0,0,1,.01-11.112c-.755-.745-1.508-1.5-2.281-2.234a.592.592,0,0,0-.452-.079c-1.351.255-2.7.509-4.045.8a1.722,1.722,0,0,1-1.865-.535.415.415,0,0,0-.566-.121A2.759,2.759,0,0,1,.9,18.131a2.722,2.722,0,0,1-.735-2.983,2.807,2.807,0,0,1,2.514-1.993,2.913,2.913,0,0,1,2.966,3.9c-.052.144-.115.283-.167.411.219.4.511.429.919.338,1.358-.3,2.728-.553,4.093-.828a1.555,1.555,0,0,1,1.5.476c.64.649,1.283,1.294,1.937,1.953l1.809-2.475-5.08-5.076a4.143,4.143,0,0,1-3.529.452A4.014,4.014,0,0,1,4.9,10.573a4.132,4.132,0,1,1,7,.031L17.011,15.7l2.455-1.735c-.631-.629-1.266-1.279-1.919-1.91a1.7,1.7,0,0,1-.52-1.725q.455-2.037.812-4.095a2.194,2.194,0,0,0-.181-.8l-.14.187a9.664,9.664,0,0,1-2.108.08,2.8,2.8,0,0,1-2.25-2.776A2.914,2.914,0,0,1,15.356.1a.652.652,0,0,0,.156-.1h1.033c.017.027.03.073.052.078a2.839,2.839,0,0,1,2.138,3.957.415.415,0,0,0,.121.565,1.72,1.72,0,0,1,.535,1.861c-.29,1.34-.55,2.688-.794,4.037a.747.747,0,0,0,.172.562c.637.674,1.313,1.31,1.955,1.98a.516.516,0,0,0,.626.131c.916-.278,1.84-.537,2.773-.753.643-.149.878.01,1.12.593-.062.674-.211.826-.92.938a12.665,12.665,0,1,0,4.206,24.978l.181-.042.231-.046a1.666,1.666,0,0,0,.306-.021c4.73-1.205,8.025-4.058,9.444-8.742a12.087,12.087,0,0,0-2.968-12.4,11.814,11.814,0,0,0-6.68-3.612L28.712,14l-.18-.037-1.11-.439-.123-.5c.277-.633.49-.787,1.143-.644,1.052.23,2.1.5,3.135.788a.52.52,0,0,0,.627-.121c.642-.67,1.319-1.306,1.956-1.98a.747.747,0,0,0,.17-.563c-.244-1.35-.5-2.7-.794-4.038a1.714,1.714,0,0,1,.539-1.86.413.413,0,0,0,.116-.565A2.866,2.866,0,0,1,35.884.169,2.142,2.142,0,0,0,36.176,0h1.136c.035.031.065.083.1.09a2.832,2.832,0,0,1,2.348,2.685,2.923,2.923,0,0,1-2.042,2.9,3.028,3.028,0,0,1-2.277-.214c-.409.223-.43.518-.34.925.286,1.291.494,2.6.787,3.888a1.76,1.76,0,0,1-.545,1.815c-.645.614-1.264,1.255-1.88,1.87L35.923,15.7l5.1-5.1A4.135,4.135,0,1,1,48,10.612a4.013,4.013,0,0,1-2.251,1.709,4.138,4.138,0,0,1-3.488-.466l-5.073,5.074L39,19.4c.655-.66,1.3-1.3,1.937-1.953a1.554,1.554,0,0,1,1.5-.475c1.364.275,2.733.526,4.091.827.408.091.7.062.92-.337-.038-.095-.083-.2-.126-.315a2.9,2.9,0,1,1,5.5-1.813.639.639,0,0,0,.1.155v1.24c-.035.032-.085.058-.1.1C52,18.781,50.539,19.4,48.532,18.6c-.66,1.019-1.614.912-2.645.664-1.151-.276-2.321-.477-3.487-.685a.693.693,0,0,0-.524.15q-1.011.958-1.969,1.972a.6.6,0,0,0-.1.514,14.085,14.085,0,0,1,0,10.465.6.6,0,0,0,.094.514q.956,1.014,1.969,1.972a.689.689,0,0,0,.523.151q2.051-.379,4.093-.808a1.675,1.675,0,0,1,1.78.5.476.476,0,0,0,.648.147,2.88,2.88,0,0,1,3.889,1.9,1.2,1.2,0,0,0,.105.2ZM49.47,35.617a1.323,1.323,0,0,0,.138,2.483,1.306,1.306,0,0,0,1.525-.519A1.33,1.33,0,0,0,51.069,36a1.3,1.3,0,0,0-1.6-.385M36.47,48.7a1.318,1.318,0,0,0-.963,1.336,1.368,1.368,0,0,0,2.425.757A1.339,1.339,0,0,0,36.47,48.7M15.714,51.248a1.267,1.267,0,0,0,1.438-.457,1.382,1.382,0,0,0,.06-1.536A1.323,1.323,0,0,0,15.7,48.7a1.348,1.348,0,0,0-.988,1.341,1.3,1.3,0,0,0,1,1.211m0-49.611a1.3,1.3,0,0,0-1,1.211A1.345,1.345,0,0,0,15.7,4.187a1.329,1.329,0,0,0,1.513-.556,1.377,1.377,0,0,0-.061-1.537,1.27,1.27,0,0,0-1.439-.457M36.47,4.179a1.324,1.324,0,0,0,1.525-.544,1.346,1.346,0,0,0-.062-1.544,1.263,1.263,0,0,0-1.451-.45A1.278,1.278,0,0,0,35.5,2.9a1.311,1.311,0,0,0,.966,1.281M49.607,14.786a1.207,1.207,0,0,0-.937,1.193,1.2,1.2,0,0,0,.8,1.288,1.294,1.294,0,0,0,1.6-.386,1.332,1.332,0,0,0,.06-1.578,1.307,1.307,0,0,0-1.525-.517M2.375,17.259a1.288,1.288,0,0,0,1.6-.363,1.352,1.352,0,0,0,.08-1.577A1.263,1.263,0,0,0,2.6,14.776a1.29,1.29,0,0,0-1.023,1.133,1.3,1.3,0,0,0,.8,1.351m0,18.368a1.31,1.31,0,0,0-.016,2.405A1.305,1.305,0,0,0,4,37.652a1.366,1.366,0,0,0,.012-1.625,1.293,1.293,0,0,0-1.634-.4M7.66,42.057a2.532,2.532,0,0,0-1.846,2.384,2.559,2.559,0,0,0,1.829,2.51c.115.031.229.07.346.093a2.564,2.564,0,0,0,2.635-1.23,2.6,2.6,0,0,0-.193-2.9,2.515,2.515,0,0,0-2.771-.852M7.644,5.933A2.562,2.562,0,0,0,5.815,8.444a2.532,2.532,0,0,0,1.846,2.384,2.519,2.519,0,0,0,2.8-.893,2.589,2.589,0,0,0,.079-2.993,2.541,2.541,0,0,0-2.9-1.008M43.819,42.052a2.487,2.487,0,0,0-1.864,2.364A2.515,2.515,0,0,0,43.8,46.962c.132.034.263.08.4.1a2.584,2.584,0,0,0,2.312-4.214,2.5,2.5,0,0,0-2.692-.8m0-31.218a2.91,2.91,0,0,0,.5.112,2.47,2.47,0,0,0,2.5-1.386,2.394,2.394,0,0,0-.257-2.753A2.426,2.426,0,0,0,43.8,5.924a2.516,2.516,0,0,0-1.847,2.546,2.486,2.486,0,0,0,1.864,2.364" transform="translate(-808.456 3386.001)"/><path class="c" d="M.974,18.273A12.669,12.669,0,0,1,10.657.938c.709-.112.858-.264.92-.938l.293.02L13.631.006l.123.5,1.11.439.18.037.334.064a11.813,11.813,0,0,1,6.68,3.612,12.087,12.087,0,0,1,2.967,12.4c-1.418,4.684-4.713,7.537-9.444,8.742a1.562,1.562,0,0,1-.306.021l-.231.046-.181.042a11.987,11.987,0,0,1-2.125.188A12.8,12.8,0,0,1,.974,18.273ZM11.361,2.782a10.712,10.712,0,0,0-9.316,12.2A10.89,10.89,0,0,0,19.317,22.04c.5-.366.545-.639.263-1.247l1.382-1.48.7.1a2.7,2.7,0,0,0,.462-.463,10.539,10.539,0,0,0,1.362-7.519,11.049,11.049,0,0,0-2.331-4.918.589.589,0,0,1,.009-.067.437.437,0,0,0-.009.067c-.062-.058-.128-.112-.185-.174a10.681,10.681,0,0,0-8.085-3.653A12.866,12.866,0,0,0,11.361,2.782Z" transform="translate(-794.788 3399.011)"/><path class="d" d="M206.949,101.2l-.18-.037.18.037" transform="translate(-986.693 3298.797)"/><path class="d" d="M206.764,281.833l.181-.043-.181.043" transform="translate(-986.689 3143.094)"/><path class="b" d="M132.062,130.4a.92.92,0,0,1-.111-1.251,9.174,9.174,0,0,0-6.327-13.681,9.374,9.374,0,0,0-10.914,7.408,9.336,9.336,0,0,0,14.713,9.055.923.923,0,0,1,1.257-.051c.283.609.237.881-.262,1.248a10.891,10.891,0,0,1-17.272-7.055,10.88,10.88,0,0,1,18.926-8.643c.058.062.123.116.185.173a11.042,11.042,0,0,1,2.331,4.917,10.537,10.537,0,0,1-1.361,7.519,2.676,2.676,0,0,1-.462.462l-.7-.1" transform="translate(-905.888 3287.921)"/><path class="b" d="M3.77,10.9a1.268,1.268,0,0,1-.155-.143C2.471,9.3,1.32,7.837.106,6.438A.4.4,0,0,1,0,6.151c0-.284,0-.568,0-.852,0-.224.085-.311.3-.314.4-.006.806,0,1.207-.026A2.248,2.248,0,0,0,2.794,4.5a1.436,1.436,0,0,0,.492-.74A.679.679,0,0,0,3.3,3.686H.313C.07,3.686,0,3.612,0,3.35c0-.213,0-.426,0-.639S.077,2.4.288,2.4H3.2a1.237,1.237,0,0,0-.494-.553,2.332,2.332,0,0,0-1.15-.311C1.147,1.522.734,1.53.321,1.528.078,1.526,0,1.446,0,1.184,0,.889,0,.595,0,.3,0,.088.083,0,.278,0h5.9c.189,0,.271.086.274.292q0,.351,0,.7c0,.205-.082.288-.275.289-.5,0-1,0-1.506,0H4.558a4.206,4.206,0,0,1,.217.407c.08.2.143.4.205.607.022.074.046.107.126.106.36-.005.72,0,1.08,0,.206,0,.282.081.283.3s0,.468,0,.7c0,.191-.085.278-.263.279-.36,0-.72,0-1.08,0-.071,0-.1.016-.116.1a2.9,2.9,0,0,1-.9,1.7A3.269,3.269,0,0,1,2.6,6.26c-.154.036-.31.062-.478.1.029.037.053.068.079.1,1.114,1.3,2.157,2.658,3.2,4.021.125.163.1.3-.082.429Z" transform="translate(-785.235 3407.001)"/></g></g></svg>