<svg xmlns="http://www.w3.org/2000/svg" width="108" height="108" viewBox="0 0 108 108"><defs><style>.a{fill:#ffe041;}.b{fill:#fff;}.c{fill:#018837;}</style></defs><g transform="translate(0.005 -28)"><g transform="translate(0 28)"><circle class="a" cx="54" cy="54" r="54" transform="translate(-0.005)"/></g><g transform="translate(865.207 -3330.451)"><path class="b" d="M17.5,36a19.818,19.818,0,0,1-7.59-1.493,19.471,19.471,0,0,1-6.2-4.072A18.918,18.918,0,0,1-.467,24.4,18.613,18.613,0,0,1-.467,9.6,18.918,18.918,0,0,1,3.711,3.565a19.471,19.471,0,0,1,6.2-4.072,20.039,20.039,0,0,1,15.181,0,19.471,19.471,0,0,1,6.2,4.072A18.917,18.917,0,0,1,35.468,9.6a18.612,18.612,0,0,1,0,14.791,18.917,18.917,0,0,1-4.179,6.039,19.471,19.471,0,0,1-6.2,4.072A19.82,19.82,0,0,1,17.5,36ZM18,3.6A13.075,13.075,0,0,0,8.525,7.671a14.269,14.269,0,0,0,0,19.657,13.062,13.062,0,0,0,18.951,0,14.269,14.269,0,0,0,0-19.657A13.075,13.075,0,0,0,18,3.6Z" transform="translate(-828 3395)"/><path class="c" d="M54.871,28.091c-.174,1.2-.3,2.4-.529,3.587A26.411,26.411,0,0,1,34,52.3,26.044,26.044,0,0,1,11.8,46.98a3.877,3.877,0,1,1,4.761-6.12,19.407,19.407,0,0,0,8.659,3.981,18.643,18.643,0,1,0-15.16-21.422c-.1.614-.161,1.233-.254,1.949.4,0,.73-.014,1.059,0a1.053,1.053,0,0,1,.939,1.657c-1.306,2.3-2.615,4.589-3.965,6.858a2.108,2.108,0,0,1-3.7-.005C2.8,31.625,1.5,29.346.2,27.068a1.065,1.065,0,0,1,.976-1.7c.266-.01.532,0,.821,0,.119-1.011.181-1.99.356-2.948C4.166,12.517,9.715,5.568,19.051,1.84a25.263,25.263,0,0,1,19.955.448,1.843,1.843,0,0,1,.831.816.879.879,0,0,1-.3,1.058,1.121,1.121,0,0,1-1.2.155c-1.308-.467-2.6-1.009-3.938-1.36A24.276,24.276,0,0,0,4.182,26.04c-.022,1.012-.188,1.239-1.207,1.542l3.017,5.232,3.02-5.222c-.127-.034-.217-.065-.31-.082a1.084,1.084,0,0,1-1.041-1.246A19.688,19.688,0,0,1,9.69,17.527,20.423,20.423,0,0,1,24.354,6.111,20.781,20.781,0,1,1,32.33,46.9a20.329,20.329,0,0,1-16.651-4.028,2.4,2.4,0,0,0-1.627-.7,1.717,1.717,0,0,0-1.542,1.214,1.677,1.677,0,0,0,.574,1.872,22.236,22.236,0,0,0,6.337,3.736c8.773,3.263,16.944,2.108,24.292-3.7a23.014,23.014,0,0,0,8.8-15.823A23.747,23.747,0,0,0,46.156,9.914c-.084-.093-.175-.18-.255-.275A1.072,1.072,0,0,1,45.945,8.1a1.06,1.06,0,0,1,1.532.091,26.243,26.243,0,0,1,7.3,16.269,2.926,2.926,0,0,0,.09.414Z" transform="translate(-838.647 3386)"/><path class="c" d="M113.834,84.673A14.359,14.359,0,1,1,99.462,99a14.395,14.395,0,0,1,14.372-14.324M101.608,99.046a12.211,12.211,0,1,0,12.176-12.228,12.226,12.226,0,0,0-12.176,12.228" transform="translate(-923.868 3313.451)"/><path class="c" d="M295.194,33.819a1.059,1.059,0,1,1-1.068-1.034,1.051,1.051,0,0,1,1.068,1.034" transform="translate(-1089.76 3357.91)"/><path class="c" d="M3.77,10.9a1.268,1.268,0,0,1-.155-.143C2.471,9.3,1.32,7.837.106,6.438A.4.4,0,0,1,0,6.151c0-.284,0-.568,0-.852,0-.224.085-.311.3-.314.4-.006.806,0,1.207-.026A2.248,2.248,0,0,0,2.794,4.5a1.436,1.436,0,0,0,.492-.74A.679.679,0,0,0,3.3,3.686H.313C.07,3.686,0,3.612,0,3.35c0-.213,0-.426,0-.639S.077,2.4.288,2.4H3.2a1.237,1.237,0,0,0-.494-.553,2.332,2.332,0,0,0-1.15-.311C1.147,1.522.734,1.53.321,1.528.078,1.526,0,1.446,0,1.184,0,.889,0,.595,0,.3,0,.088.083,0,.278,0h5.9c.189,0,.271.086.274.292q0,.351,0,.7c0,.205-.082.288-.275.289-.5,0-1,0-1.506,0H4.558a4.206,4.206,0,0,1,.217.407c.08.2.143.4.205.607.022.074.046.107.126.106.36-.005.72,0,1.08,0,.206,0,.282.081.283.3s0,.468,0,.7c0,.191-.085.278-.263.279-.36,0-.72,0-1.08,0-.071,0-.1.016-.116.1a2.9,2.9,0,0,1-.9,1.7A3.269,3.269,0,0,1,2.6,6.26c-.154.036-.31.062-.478.1.029.037.053.068.079.1,1.114,1.3,2.157,2.658,3.2,4.021.125.163.1.3-.082.429Z" transform="translate(-813.283 3407.031)"/></g></g></svg>