<svg xmlns="http://www.w3.org/2000/svg" width="108" height="108" viewBox="0 0 108 108"><defs><style>.a{fill:#ffe041;}.b{fill:#018837;}.c{fill:#fff;}</style></defs><g transform="translate(0.005 -28)"><g transform="translate(0 28)"><circle class="a" cx="54" cy="54" r="54" transform="translate(-0.005)"/></g><g transform="translate(833.495 -3330.451)"><path class="b" d="M22.4,0c.747.133,1.5.248,2.242.4A20.483,20.483,0,0,1,35.782,6.648a19.832,19.832,0,0,1,5.276,10.973,20.271,20.271,0,0,1-5.952,17.75c-.168.171-.36.318-.545.479l6.021,8.517c.109.154.219.308.327.464a1.677,1.677,0,0,1,.141,1.935,1.753,1.753,0,0,1-1.814.826c-1.421-.124-2.842-.233-4.305-.352-.357,1.337-.705,2.662-1.069,3.982a3.366,3.366,0,0,1-.348.907,1.646,1.646,0,0,1-2.723.1c-.493-.617-.924-1.283-1.381-1.929q-3.1-4.38-6.188-8.766a.684.684,0,0,0-.667-.335q-1.907.042-3.816,0a.685.685,0,0,0-.67.33q-3.677,5.234-7.377,10.452a1.709,1.709,0,0,1-3.182-.458q-.5-1.891-1.017-3.78c-.044-.163-.093-.325-.144-.5-1.416.112-2.8.2-4.189.338a1.81,1.81,0,0,1-1.918-.812,1.759,1.759,0,0,1,.222-2.063c2.081-2.929,4.15-5.866,6.177-8.733-.959-1.145-1.976-2.206-2.818-3.392A20.079,20.079,0,0,1,.072,19.061a20.13,20.13,0,0,1,4.716-11.6A20.264,20.264,0,0,1,16.091.526C16.91.338,17.75.243,18.579.1A2.2,2.2,0,0,0,18.89,0ZM15.411,42.572l1.153-1.582c-1.271-.417-2.473-.82-3.683-1.2a.486.486,0,0,0-.409.166c-.332.437-.63.9-.94,1.353-.086.106-.177.207-.256.318-.507.714-.98,1.456-1.534,2.132a1.131,1.131,0,0,1-.864.36c-.214-.025-.476-.375-.551-.629a1.041,1.041,0,0,1,.237-.7c.507-.775,1.043-1.53,1.569-2.293l1.059-1.441L7.858,36.923l-.976,1.453c-.067.077-.142.15-.2.233Q4.208,42.1,1.74,45.6a4.263,4.263,0,0,0-.222.418c.238,0,.4.01.558,0,1.526-.116,3.051-.246,4.577-.351.716-.049.915.106,1.1.793.4,1.474.8,2.95,1.2,4.425.042.155.1.3.187.557.17-.216.277-.341.372-.475q.777-1.093,1.549-2.189,2.177-3.1,4.352-6.2m19-4.2-.983-1.448-3.333,2.142L31.157,40.5c.1.158.194.321.3.474.46.66.937,1.308,1.382,1.978a.765.765,0,1,1-1.225.916,4.045,4.045,0,0,1-.306-.411l-1.654-2.283c-.257-.384-.524-.761-.766-1.154-.166-.269-.337-.288-.637-.189-1.073.355-2.161.663-3.243.992a2.685,2.685,0,0,0-.3.141l1.179,1.607a.836.836,0,0,0,.065.139q2.962,4.191,5.927,8.38a3.983,3.983,0,0,0,.291.317c.075-.223.134-.374.176-.529.4-1.475.793-2.951,1.2-4.425.188-.689.381-.838,1.1-.79,1.132.075,2.262.18,3.394.267.554.043,1.109.074,1.787.118-.159-.259-.237-.4-.33-.536q-.635-.909-1.278-1.812-1.9-2.665-3.8-5.329M38.2,28.1a.724.724,0,0,0,.086-.128,19.114,19.114,0,0,0,1.1-10.922A19.131,19.131,0,0,0,26.007,2.331a18.866,18.866,0,0,0-7.3-.671,17.344,17.344,0,0,0-5.5,1.436,18.057,18.057,0,0,0-7.32,5.469A18.688,18.688,0,0,0,1.745,23.224,18.158,18.158,0,0,0,7.177,34.15a18.675,18.675,0,0,0,17,5.248,18.163,18.163,0,0,0,8.635-4.045A18.514,18.514,0,0,0,38.2,28.1" transform="translate(-800.147 3386.001)"/><path class="c" d="M49.925,27.544A19.131,19.131,0,0,0,36.542,12.825a18.865,18.865,0,0,0-7.3-.671,17.341,17.341,0,0,0-5.5,1.436,18.057,18.057,0,0,0-7.32,5.469,18.688,18.688,0,0,0-4.141,14.659,18.158,18.158,0,0,0,5.431,10.926,18.675,18.675,0,0,0,17,5.248,18.163,18.163,0,0,0,8.635-4.045,18.517,18.517,0,0,0,5.393-7.254.721.721,0,0,0,.086-.128,19.113,19.113,0,0,0,1.1-10.922M42.11,43.5a16.539,16.539,0,0,1-21.095.643c-.606-.462-.65-.835-.167-1.421L19.6,41.476c-.568.472-.955.441-1.388-.117A15.969,15.969,0,0,1,14.7,30.46a16.172,16.172,0,0,1,7.706-13.282c.243-.159.485-.319.727-.479a34.518,34.518,0,0,1,3.777-1.461A16.152,16.152,0,0,1,41.439,18.22c.527.4.532.79.068,1.355.28.3.568.591.837.9a4.449,4.449,0,0,1,.332.5c.51-.664.987-.669,1.492-.015a16.362,16.362,0,0,1,3.5,10.862,15.835,15.835,0,0,1-1.658,6.549c-.137.276-.262.558-.393.838h0a18.513,18.513,0,0,1-3.511,4.3" transform="translate(-810.682 3375.506)"/><path class="b" d="M77.487,99.387a1.03,1.03,0,0,1,1.18.235,14.442,14.442,0,0,0,6.478,2.886A14.738,14.738,0,0,0,96.463,100a14.034,14.034,0,0,0,3.726-3.816A14.675,14.675,0,0,0,102.617,85.7a14.9,14.9,0,0,0-2.95-7.041,3.542,3.542,0,0,1-.352-1.023c.51-.664.987-.669,1.492-.015a16.361,16.361,0,0,1,3.5,10.862,15.835,15.835,0,0,1-1.658,6.549c-.137.276-.262.558-.393.838a18.518,18.518,0,0,1-3.511,4.3,16.539,16.539,0,0,1-21.095.643c-.606-.462-.65-.835-.167-1.421" transform="translate(-867.321 3318.847)"/><path class="b" d="M40.153,36.174a14.948,14.948,0,0,0-3.481,21.482c.28.374.514.738.271,1.218-.568.472-.955.441-1.388-.117a15.968,15.968,0,0,1-3.514-10.9,16.171,16.171,0,0,1,7.706-13.282c.243-.159.485-.319.727-.479a34.491,34.491,0,0,1,3.777-1.461,16.152,16.152,0,0,1,14.527,2.981c.527.4.532.79.068,1.355a.975.975,0,0,1-1.1-.19c-.381-.292-.771-.577-1.177-.833a14.736,14.736,0,0,0-9.481-2.279,14.423,14.423,0,0,0-6.94,2.5" transform="translate(-828.022 3358.109)"/><path class="b" d="M86.235,76.813c.559.019,1.124-.007,1.677.065,1.634.214,3.264.466,4.895.7.136.02.27.05.405.076A1.443,1.443,0,0,1,94.4,78.676a1.4,1.4,0,0,1-.4,1.509c-.826.827-1.668,1.639-2.5,2.456-.467.457-.92.93-1.412,1.359a.948.948,0,0,0-.355,1.017c.324,1.649.6,3.307.894,4.962.019.205.047.41.054.616A1.455,1.455,0,0,1,88.492,92a36.8,36.8,0,0,1-3.77-2.011,2.571,2.571,0,0,0-3.2,0c-1.111.736-2.359,1.265-3.538,1.9a1.6,1.6,0,0,1-1.838.009,1.626,1.626,0,0,1-.532-1.768c.306-1.761.6-3.524.918-5.282a.691.691,0,0,0-.232-.714q-2.011-1.931-4-3.89a1.425,1.425,0,0,1,.055-2.281,3.1,3.1,0,0,1,1.154-.382c.793-.149,1.6-.248,2.393-.367.935-.129,1.874-.237,2.8-.4a.9.9,0,0,0,.555-.424q1.228-2.406,2.4-4.84a1.526,1.526,0,0,1,2.919-.006c.387.822.807,1.629,1.2,2.446a.867.867,0,0,1-.286,1.292.9.9,0,0,1-1.108-.6c-.126-.281-.27-.554-.407-.83l-.865-1.742c-.928,1.879-1.815,3.655-2.68,5.442a1.239,1.239,0,0,1-1.069.75c-.954.116-1.9.28-2.851.424l-3.016.419-.064.153a3.8,3.8,0,0,1,.412.306c1.308,1.269,2.6,2.551,3.922,3.81a1.189,1.189,0,0,1,.381,1.156q-.288,1.623-.566,3.248c-.154.9-.3,1.8-.465,2.765,1.767-.928,3.465-1.79,5.13-2.711a1.594,1.594,0,0,1,1.725-.008c1.679.927,3.39,1.8,5.139,2.714-.045-.31-.078-.563-.121-.814a2.575,2.575,0,0,0-.086-.295c-.265-1.589-.522-3.18-.8-4.766a1.348,1.348,0,0,1,.41-1.341c1.322-1.251,2.614-2.534,3.917-3.806.113-.111.216-.233.371-.4l-6.039-.87c-.372-.053-.72-.158-.844-.563a.775.775,0,0,1,.312-.908" transform="translate(-862.623 3324.653)"/></g></g></svg>