<svg xmlns="http://www.w3.org/2000/svg" width="108" height="108" viewBox="0 0 108 108"><defs><style>.a{fill:#ffe041;}.b{fill:#018837;}.c{fill:#fff;}</style></defs><g transform="translate(0.005 -28)"><g transform="translate(0 28)"><circle class="a" cx="54" cy="54" r="54" transform="translate(-0.005)"/></g><g transform="translate(1210.078 -3399)"><path class="b" d="M7.707,52.9a9.515,9.515,0,0,1-1.159-.609,3.178,3.178,0,0,1-.828-4.427,26.608,26.608,0,0,0,2.632-4.884.826.826,0,0,0-.259-1.118A23.565,23.565,0,0,1,.515,28.818,23.941,23.941,0,0,1,47.122,17.905a38.352,38.352,0,0,1,.685,4.059c.1.676-.038.837-.666,1.089a.852.852,0,0,1-.856-.856c-.029-.256-.03-.516-.063-.771A22.31,22.31,0,0,0,38.276,6.793a22.066,22.066,0,0,0-8.615-4.479,21.76,21.76,0,0,0-8.84-.539,20.073,20.073,0,0,0-6.189,1.855,2.215,2.215,0,0,0-.29.095A22.491,22.491,0,0,0,6.586,9.852,21.7,21.7,0,0,0,1.694,21.637a22.331,22.331,0,0,0,8,19.579c.687.569.74.694.393,1.5-.6,1.387-1.214,2.768-1.885,4.121-.349.7-.869,1.323-1.246,2.016a1.653,1.653,0,0,0,1.585,2.465,5.178,5.178,0,0,0,.7-.17,37.1,37.1,0,0,0,9.019-4.939,1.519,1.519,0,0,1,1.249-.315c.848.141,1.7.275,2.55.38a.851.851,0,0,1,.874.831c-.191.613-.433.787-1.054.712-.766-.093-1.528-.222-2.3-.3a1.01,1.01,0,0,0-.646.142,39.616,39.616,0,0,1-8.962,4.861c-.339.133-.681.256-1.022.383Z" transform="translate(-1180 3455)"/><path class="b" d="M192.928,215.947a.945.945,0,0,1,.983-.857,22.355,22.355,0,0,0,7-1.826,22.582,22.582,0,0,0,8.356-6.4,22.243,22.243,0,0,0,4.689-10.076c.122-.64.184-1.292.26-1.94a.9.9,0,0,1,.857-.924c.644.26.754.41.688,1.081a24.026,24.026,0,0,1-13.684,19.454,23.038,23.038,0,0,1-7.446,2.107c-.154.016-.308.034-.461.057-.733.111-.936,0-1.239-.676" transform="translate(-1347.963 3286.17)"/><path class="c" d="M56.867,32.629c-.029-.256-.03-.516-.063-.771a22.31,22.31,0,0,0-7.944-14.634,22.066,22.066,0,0,0-8.615-4.479,21.76,21.76,0,0,0-8.84-.539,20.073,20.073,0,0,0-6.189,1.855,2.215,2.215,0,0,0-.29.095,22.491,22.491,0,0,0-7.756,6.126,21.7,21.7,0,0,0-4.893,11.785,22.331,22.331,0,0,0,8,19.579c.687.569.74.694.393,1.5-.6,1.387-1.214,2.768-1.885,4.121-.349.7-.869,1.323-1.246,2.016a1.653,1.653,0,0,0,1.585,2.465,5.178,5.178,0,0,0,.7-.17,37.1,37.1,0,0,0,9.019-4.939,1.519,1.519,0,0,1,1.249-.315c.848.141,1.7.275,2.55.38a.851.851,0,0,1,.874.832l2.039.013a.945.945,0,0,1,.983-.857,22.354,22.354,0,0,0,7-1.826,22.581,22.581,0,0,0,8.356-6.4A22.243,22.243,0,0,0,56.571,38.39c.122-.64.184-1.292.26-1.94a.9.9,0,0,1,.857-.924q.017-1.02.033-2.04a.852.852,0,0,1-.856-.856M38.183,54.038c-1.179.216-2.385.291-3.578.432a23.392,23.392,0,0,1-4.913-.684,1.758,1.758,0,0,0-1.537.333c-1.629,1.117-3.29,2.186-4.943,3.269a.832.832,0,0,1-1.092.035c-.388-.332-.289-.712-.128-1.126.49-1.265.969-2.534,1.428-3.81a1.352,1.352,0,0,0-.6-1.905,19.84,19.84,0,0,1-7.266-9.967,19.423,19.423,0,0,1-.714-9.522,19.674,19.674,0,0,1,6.948-12.078A19.16,19.16,0,0,1,32,14.572a19.469,19.469,0,0,1,16.066,5.137,19.365,19.365,0,0,1,6.288,12.1A19.96,19.96,0,0,1,38.183,54.038" transform="translate(-1190.583 3444.569)"/><path class="b" d="M50.682,70.8a23.383,23.383,0,0,1-4.913-.684,1.758,1.758,0,0,0-1.537.333c-1.629,1.117-3.29,2.186-4.943,3.269a.832.832,0,0,1-1.092.036c-.388-.332-.289-.712-.128-1.126.49-1.265.969-2.534,1.428-3.811a1.352,1.352,0,0,0-.6-1.905,19.839,19.839,0,0,1-7.266-9.967,19.422,19.422,0,0,1-.714-9.522A19.674,19.674,0,0,1,37.861,35.34,19.161,19.161,0,0,1,48.074,30.9,20.026,20.026,0,0,1,70.428,48.132,19.96,19.96,0,0,1,54.26,70.363c-1.179.216-2.385.291-3.578.432m-7.531-36.9A16.572,16.572,0,0,0,37.564,37.7a18.444,18.444,0,0,0-4.488,18.69,18.383,18.383,0,0,0,6.712,9.244,2.857,2.857,0,0,1,1.158,3.735q-.307.919-.611,1.839l.091.066,1.59-1.111c.469-.348.943-.69,1.406-1.047a3.018,3.018,0,0,1,2.58-.55,25.749,25.749,0,0,0,3.149.527,17.424,17.424,0,0,0,10.822-2.521c6.565-4.114,9.6-10.1,8.968-17.82a17.386,17.386,0,0,0-4.56-10.293,18.393,18.393,0,0,0-17.02-5.9,15.134,15.134,0,0,0-4.208,1.328" transform="translate(-1206.659 3428.244)"/><path class="b" d="M110.159,107.863a2.12,2.12,0,0,1,.876-2.2c.591-.553,1.144-1.145,1.723-1.71a.828.828,0,0,1,1.239-.088c1.624,1.19,3.247,2.382,4.857,3.59a1.667,1.667,0,0,1,.145,2.578,11.733,11.733,0,0,1-5.325,3.122,11.168,11.168,0,0,1-5.71.216A7.6,7.6,0,0,1,104.5,111.5c-2.2-2.127-4.385-4.283-6.512-6.488a8.523,8.523,0,0,1-2.382-7.086,12.428,12.428,0,0,1,3.35-7.53,1.725,1.725,0,0,1,2.947.163q1.662,2.238,3.317,4.482c.507.688.491.916-.1,1.51s-1.177,1.161-1.749,1.757a1.9,1.9,0,0,1-2.036.713,2.668,2.668,0,0,0,.819,2.132c.45.474.922.928,1.385,1.391q2.191,2.192,4.384,4.382a2.815,2.815,0,0,0,2.235.934m-2.212,3.857a4.607,4.607,0,0,0,.73.23,10.46,10.46,0,0,0,6.982-1.307c.844-.5,1.6-1.142,2.494-1.791l-4.119-3-.551-.439c-.563.567-1.1,1.092-1.615,1.641a.642.642,0,0,0-.124.463c.046.375.141.744.217,1.115-.315.24-.6.613-.949.7a4.128,4.128,0,0,1-3.874-1.015c-.664-.6-1.282-1.248-1.913-1.882-1.47-1.475-2.968-2.923-4.391-4.442a4.1,4.1,0,0,1-.951-3.893,1.088,1.088,0,0,1,1.683-.715c.1.06.2.125.245.154l1.89-1.952-2.771-3.686-.624-.88a3.336,3.336,0,0,1-.316.545A10.9,10.9,0,0,0,97.1,98.818a6.444,6.444,0,0,0,1.774,4.855q3.3,3.45,6.77,6.735a10.932,10.932,0,0,0,2.3,1.31" transform="translate(-1263.19 3376.952)"/></g></g></svg>