<svg xmlns="http://www.w3.org/2000/svg" width="108" height="108" viewBox="0 0 108 108"><defs><style>.a{fill:#ffe041;}.b{fill:#018837;}.c{fill:#fff;}</style></defs><g transform="translate(0.005 -28)"><g transform="translate(0 28)"><circle class="a" cx="54" cy="54" r="54" transform="translate(-0.005)"/></g><g transform="translate(-2477.281 -404.777)"><path class="b" d="M65.008,53.728a3.805,3.805,0,0,1-2.579-1.883A3.492,3.492,0,0,1,64.1,47.018c.226-.1.406-.163.405-.488-.014-3.857-.009-7.714-.011-11.571a1.9,1.9,0,0,0-.027-.218H58.291c0,.453,0,.91,0,1.367-.007.916-.376,1.291-1.29,1.292q-3.59.006-7.181,0H49.2v1.1c0,1.6.007,3.2-.006,4.8a.546.546,0,0,0,.378.614,3.46,3.46,0,0,1,2.017,3.937A3.5,3.5,0,1,1,46.739,43.9c.162-.075.374-.282.376-.43.025-2,.017-3.993.017-6.031h-4.34v.536q0,3.151,0,6.3c0,1.048-.343,1.388-1.4,1.389q-3.048,0-6.1,0a2.287,2.287,0,0,1-.711-.086,1,1,0,0,1,.006-1.886,2.334,2.334,0,0,1,.711-.088c1.787-.007,3.575,0,5.393,0V37.4c-.462,0-.905,0-1.349,0-.938-.007-1.305-.376-1.306-1.328q0-3.564,0-7.129v-.563a.539.539,0,0,0-.158-.064c-1.963,0-3.926-.013-5.889.005a.6.6,0,0,0-.429.307,3.543,3.543,0,0,1-3.406,2.149A3.5,3.5,0,1,1,31.488,25.8a.646.646,0,0,0,.722.45c1.756-.018,3.513-.008,5.269-.008h.531V21.9h-.535q-3.151,0-6.3,0c-1.058,0-1.4-.34-1.4-1.386q0-6.148.008-12.295a.649.649,0,0,0-.455-.721,3.463,3.463,0,0,1-1.934-3.936,3.5,3.5,0,0,1,6.842.05,3.485,3.485,0,0,1-1.988,3.913c-.252.112-.417.2-.415.534.015,3.823.01,7.645.01,11.468,0,.083.011.166.018.276h6.182c0-.39,0-.794,0-1.2,0-1.132.321-1.458,1.435-1.458H47.09a3.587,3.587,0,0,0,.04-.368c0-1.86,0-3.72.008-5.579a.517.517,0,0,0-.37-.567A3.463,3.463,0,0,1,44.741,6.7a3.5,3.5,0,1,1,4.81,3.957.615.615,0,0,0-.338.408c-.019,1.98-.01,3.96-.005,5.94,0,.03.024.06.047.116h4.283v-.54q0-3.177,0-6.354c0-.986.358-1.345,1.338-1.346q3.1,0,6.2,0c.052,0,.1,0,.155,0A1.074,1.074,0,0,1,62.418,9.9a1.06,1.06,0,0,1-1.173,1.038c-1.67.011-3.341,0-5.011,0h-.6v6.2c.467,0,.927,0,1.387,0,.872.01,1.262.393,1.264,1.266q.007,3.59,0,7.181v.6c.146.015.276.039.406.039,1.842,0,3.685,0,5.527.007a.516.516,0,0,0,.578-.355,3.454,3.454,0,0,1,3.922-2.044,3.5,3.5,0,1,1-3.937,4.825c-.066-.144-.229-.347-.349-.348-2.028-.021-4.057-.015-6.117-.015v4.339h1.762c1.722,0,3.444,0,5.166,0,.941,0,1.308.373,1.308,1.324q0,6.147-.007,12.295a.72.72,0,0,0,.491.8,3.449,3.449,0,0,1,1.982,3.344,3.487,3.487,0,0,1-2.451,3.131c-.179.056-.355.121-.532.182ZM56.2,19.251H40.145V35.308H56.2ZM32.248,4.321a1.443,1.443,0,1,0-1.429,1.457,1.455,1.455,0,0,0,1.429-1.457M65.537,51.657a1.443,1.443,0,1,0-1.456-1.43,1.455,1.455,0,0,0,1.456,1.43M49.607,7.436a1.443,1.443,0,1,0-1.446,1.44,1.453,1.453,0,0,0,1.446-1.44m-21.269,18.4a1.443,1.443,0,1,0,1.428,1.459,1.453,1.453,0,0,0-1.428-1.459m41.11,1.454A1.443,1.443,0,1,0,68,28.718a1.452,1.452,0,0,0,1.453-1.432M49.607,47.121a1.443,1.443,0,1,0-1.447,1.438,1.457,1.457,0,0,0,1.447-1.438" transform="translate(2483.11 460)"/><path class="b" d="M362.411,48.049a3.809,3.809,0,0,1-1.976,2.628,3.5,3.5,0,1,1,1.766-4.3l.209.634Zm-3.5-1.96a1.443,1.443,0,1,0,1.433,1.453,1.455,1.455,0,0,0-1.433-1.453" transform="translate(2195.317 422.383)"/><path class="b" d="M7.845,315.735a3.544,3.544,0,0,1-3.528,3.5,3.509,3.509,0,0,1,.012-7.019,3.544,3.544,0,0,1,3.516,3.516M5.779,315.7a1.443,1.443,0,1,0-1.419,1.467A1.455,1.455,0,0,0,5.779,315.7" transform="translate(2504 188.905)"/><path class="b" d="M328.952,65.169a1.026,1.026,0,1,1,1.028-1.011,1.025,1.025,0,0,1-1.028,1.011" transform="translate(2219.204 405.77)"/><path class="b" d="M67.856,333.473a1.027,1.027,0,1,1,1.01-1.027,1.029,1.029,0,0,1-1.01,1.027" transform="translate(2446.525 172.191)"/><path class="c" d="M159.288,159.255H143.233V143.2h16.055Zm-3.283-7.981c0-1.171,0-2.342,0-3.513,0-.916-.375-1.289-1.291-1.291q-3.461-.006-6.922,0c-.916,0-1.289.375-1.291,1.29q-.006,3.461,0,6.922c0,.916.375,1.289,1.29,1.291q3.461.006,6.922,0c.916,0,1.287-.375,1.291-1.291,0-1.136,0-2.273,0-3.409" transform="translate(2380.023 336.053)"/><path class="b" d="M177.966,173.265c0,1.137,0,2.273,0,3.409,0,.916-.375,1.289-1.291,1.291q-3.461.006-6.922,0c-.916,0-1.289-.375-1.29-1.291q-.006-3.461,0-6.922c0-.916.375-1.289,1.291-1.29q3.461-.006,6.922,0c.916,0,1.287.375,1.291,1.291,0,1.171,0,2.342,0,3.513m-7.417,2.6h5.309v-5.309h-5.309Z" transform="translate(2358.062 314.062)"/><rect class="c" width="5.309" height="5.309" transform="translate(2528.611 484.616)"/></g></g></svg>