<svg xmlns="http://www.w3.org/2000/svg" width="108" height="108" viewBox="0 0 108 108"><defs><style>.a{fill:#ffe041;}.b{fill:#018837;}.c{fill:#fff;}</style></defs><g transform="translate(0.005 -28)"><g transform="translate(0 28)"><circle class="a" cx="54" cy="54" r="54" transform="translate(-0.005)"/></g><g transform="translate(-2737.223 -404.451)"><path class="b" d="M3.535,9.564c.475.417.381.859.111,1.358a17.643,17.643,0,1,0,19.541-8.87A17.4,17.4,0,0,0,10.976,3.636c-.52.27-.977.382-1.392-.145-.2-.591.052-.94.571-1.221A19.238,19.238,0,0,1,28.493,36.092a.66.66,0,0,0-.4.688c.019,1.405-.009,2.811.016,4.216a.837.837,0,1,1-1.591,0c.024-1.282.008-2.565.008-3.945A20.181,20.181,0,0,1,20,38.491c0,1.607-.017,3.158.015,4.709a1.313,1.313,0,0,0,.338.818c1.888,1.924,3.8,3.823,5.709,5.729.126.126.258.245.464.439,0-1.582.014-3.055-.007-4.528-.008-.591.189-.978.8-1.1.607.117.8.5.795,1.095-.019,2.024-.011,4.048,0,6.072,0,.446,0,.878-.485,1.1-.5.226-.8-.1-1.116-.411-2.411-2.413-4.824-4.823-7.446-7.444a1.99,1.99,0,0,1-.274.566q-3.425,3.453-6.871,6.885c-.3.3-.589.61-1.067.423s-.529-.609-.528-1.067c.007-4.985,0-9.971.016-14.956a.78.78,0,0,0-.463-.772C3.1,32.027-.189,26.055.009,18.207a17.733,17.733,0,0,1,2.3-8.133c.336-.613.553-.7,1.227-.51m8.409,27.579V50.18c1.468-1.473,2.87-2.877,4.27-4.284.726-.73,1.733-1.347,2.093-2.228a8.877,8.877,0,0,0,.113-3.109c.005-.686,0-1.371,0-2-1.153-.176-2.236-.288-3.293-.519s-2.115-.588-3.184-.893" transform="translate(2772 461)"/><path class="b" d="M33.862,31.16a.942.942,0,0,1-.25,1.289,16.431,16.431,0,0,0-1.189,1.183.909.909,0,0,1-1.24.256c-.389-.574-.384-.844.077-1.331.411-.435.85-.843,1.265-1.275a.888.888,0,0,1,1.337-.122" transform="translate(2745.743 434.735)"/><path class="b" d="M58.276,59.661a.928.928,0,0,1-.395,1.208,13.877,13.877,0,1,1,3.32-3.523c-.406.632-.606.7-1.3.479a.967.967,0,0,1-.03-1.323c.31-.453.559-.947.83-1.414a3.283,3.283,0,0,0-2.167-.7,1.513,1.513,0,0,1-1.5-.8,2.2,2.2,0,0,1,.028-2.631,2.3,2.3,0,0,0,.327-2.167.536.536,0,0,0-.256-.34c-.58-.259-1.166-.508-1.767-.713a.859.859,0,0,0-.582.088c-1.548.758-1.546.763-1.92,2.431-.02.091-.045.182-.064.273-.458,2.255-.65,2.425-2.95,2.842a2.112,2.112,0,0,0-1.033.454A13.478,13.478,0,0,0,47.456,55.4a1.086,1.086,0,0,0-.205.611A2.365,2.365,0,0,0,48,57.978a5.985,5.985,0,0,1,.665.761,1.987,1.987,0,0,1,.228,2.4c-.136.252-.277.5-.445.8.264.025.428.049.593.056A12.2,12.2,0,0,0,56.9,59.628c.616-.448.814-.441,1.377.033m2.971-6.107A12.166,12.166,0,0,0,50.511,37.569a8.3,8.3,0,0,1,.038,1.112,2.387,2.387,0,0,1-.26,1.177c-.94,1.221-1.914,2.452-3.709,2.343a.757.757,0,0,0-.857.549.72.72,0,0,0,.313.984c.248.164.451.4.693.572a4.2,4.2,0,0,1,1.43,2.657,2.046,2.046,0,0,1-.167,1.247,3.234,3.234,0,0,1-2.842,2.22,2.907,2.907,0,0,0-.66.129,2.359,2.359,0,0,1-2.049-.275,1.211,1.211,0,0,0-1.664.108,2.763,2.763,0,0,1-3.132.5c-.04-.018-.1.009-.149.015a12.05,12.05,0,0,0,9.279,10.718c.205-.343.4-.708.631-1.043a.67.67,0,0,0-.069-.991c-.28-.275-.52-.59-.775-.89a3.443,3.443,0,0,1-.018-4.682,11.363,11.363,0,0,0,.76-.9,3.035,3.035,0,0,1,2.3-1.328c.26-.028.515-.11.775-.126.46-.027.641-.285.718-.709.134-.736.31-1.464.459-2.2a2.281,2.281,0,0,1,1.183-1.618c2.271-1.272,2.09-1.394,4.618-.322a1.672,1.672,0,0,1,.556.256,3.347,3.347,0,0,1,.922,1.141,3.4,3.4,0,0,1-.421,3.505.563.563,0,0,0-.17.286c-.018.318-.113.787.35.783a4.755,4.755,0,0,1,2.653.764M37.4,49.1a2.145,2.145,0,0,0,2.743-.153,2.25,2.25,0,0,1,2.817-.175,1.919,1.919,0,0,0,.992.273,9.262,9.262,0,0,0,1.594-.315,1.836,1.836,0,0,0,1.034-1.683,3.023,3.023,0,0,0-1.12-1.759,2.918,2.918,0,0,1-.884-.772,2.336,2.336,0,0,1-.527-1.293c.126-1.4.68-2.585,2.542-2.607a2.341,2.341,0,0,0,2.264-3.062A12.192,12.192,0,0,0,37.4,49.1" transform="translate(2741.571 430.512)"/><path class="c" d="M122.937,126.53c-.563-.473-.76-.48-1.377-.033a12.2,12.2,0,0,1-7.854,2.369c-.164-.006-.328-.03-.593-.056.168-.3.309-.553.445-.8a1.987,1.987,0,0,0-.228-2.4,5.982,5.982,0,0,0-.665-.761,2.366,2.366,0,0,1-.752-1.971,1.088,1.088,0,0,1,.205-.611,13.476,13.476,0,0,1,1.354-1.574,2.112,2.112,0,0,1,1.033-.454c2.3-.417,2.492-.588,2.95-2.842.019-.092.043-.182.064-.273.374-1.668.371-1.673,1.92-2.431a.859.859,0,0,1,.582-.088c.6.2,1.187.453,1.767.713a.535.535,0,0,1,.255.34,2.3,2.3,0,0,1-.327,2.167,2.2,2.2,0,0,0-.029,2.631,1.513,1.513,0,0,0,1.5.8,3.284,3.284,0,0,1,2.167.7c-.271.467-.521.961-.83,1.414a.967.967,0,0,0,.03,1.323l-1.622,1.836" transform="translate(2676.91 363.643)"/><path class="c" d="M70.766,63.091a4.756,4.756,0,0,0-2.653-.764c-.463,0-.368-.465-.35-.783a.564.564,0,0,1,.17-.286,3.4,3.4,0,0,0,.421-3.505,3.346,3.346,0,0,0-.922-1.141,1.669,1.669,0,0,0-.556-.256c-2.528-1.072-2.347-.95-4.618.322A2.281,2.281,0,0,0,61.077,58.3c-.148.733-.324,1.461-.459,2.2-.077.424-.259.681-.719.709-.26.015-.515.1-.775.126a3.036,3.036,0,0,0-2.3,1.328,11.4,11.4,0,0,1-.76.9,3.443,3.443,0,0,0,.018,4.682c.255.3.5.615.775.89a.67.67,0,0,1,.069.99c-.234.335-.426.7-.631,1.043a12.05,12.05,0,0,1-9.279-10.718c.05-.006.11-.033.15-.015a2.763,2.763,0,0,0,3.131-.5,1.211,1.211,0,0,1,1.664-.108,2.359,2.359,0,0,0,2.049.275,2.91,2.91,0,0,1,.66-.129,3.234,3.234,0,0,0,2.842-2.22,2.046,2.046,0,0,0,.167-1.247,4.2,4.2,0,0,0-1.43-2.657c-.242-.176-.445-.407-.693-.572a.72.72,0,0,1-.313-.984.757.757,0,0,1,.857-.549c1.795.109,2.769-1.122,3.709-2.343a2.386,2.386,0,0,0,.26-1.177,8.3,8.3,0,0,0-.038-1.112A12.167,12.167,0,0,1,70.766,63.091" transform="translate(2732.052 420.974)"/><path class="c" d="M46.386,58.542A12.192,12.192,0,0,1,57.841,47a2.341,2.341,0,0,1-2.264,3.062c-1.862.021-2.416,1.208-2.542,2.607a2.336,2.336,0,0,0,.527,1.293,2.919,2.919,0,0,0,.884.772,3.023,3.023,0,0,1,1.12,1.759,1.836,1.836,0,0,1-1.034,1.683,9.263,9.263,0,0,1-1.594.315,1.919,1.919,0,0,1-.992-.273,2.25,2.25,0,0,0-2.817.175,2.145,2.145,0,0,1-2.743.153" transform="translate(2732.586 421.069)"/></g></g></svg>