<svg xmlns="http://www.w3.org/2000/svg" width="54" height="54" viewBox="0 0 54 54"><defs><style>.a{fill:#f6faed;}.b{fill:none;}.c{fill:#ffe600;}.d{fill:#178b49;}</style></defs><circle class="a" cx="27" cy="27" r="27"/><g transform="translate(19.211 18.814)"><g transform="translate(-0.578 -0.182)"><rect class="b" width="16" height="16" transform="translate(0.367 0.367)"/></g><g transform="translate(0.686 2.277)"><path class="c" d="M-21706.564,10457.078l-6.1,4.275-6.455-4.275Z" transform="translate(21720.102 -10455.857)"/><path class="d" d="M16.013,7H2.667A.667.667,0,0,0,2,7.667V17.676a.667.667,0,0,0,.667.667H16.013a.667.667,0,0,0,.667-.667V7.667A.667.667,0,0,0,16.013,7Zm-.667,10.009H3.335V10.236l5.839,3.436a.3.3,0,0,0,.334,0l5.839-3.536ZM9.507,12.138a.3.3,0,0,1-.334,0l-5.839-3.8H15.345Z" transform="translate(-2 -7)"/></g></g></svg>