<svg xmlns="http://www.w3.org/2000/svg" width="140" height="140" viewBox="0 0 140 140"><defs><style>.a{fill:#ffe041;}.b{fill:#018837;}.c{fill:#fff;}</style></defs><circle class="a" cx="70" cy="70" r="70"/><g transform="translate(-8348.949 -896.451)"><path class="b" d="M31.174,52.9a4.117,4.117,0,0,1-2.144-1.957A13.713,13.713,0,0,1,26.9,46.237c-.159-.766.082-1.324.713-1.476a1.036,1.036,0,0,1,1.278.958c.31,1.81,1.382,3.235,2.289,4.747a.591.591,0,0,0,.874.266,7.909,7.909,0,0,0,.883-.6c.515-.395,1.026-.8,1.52-1.217a.726.726,0,0,0,.238-.436c.076-.8.113-1.613.177-2.419a4.358,4.358,0,0,1,.816-2.09,1.13,1.13,0,0,0,.161-.65c-.061-1.133-.206-2.263-.218-3.395-.012-1.057.473-1.492,1.529-1.606.116-.013.236-.141.324-.242.334-.38.657-.77.982-1.158.083-.1.208-.2.227-.313a1.363,1.363,0,0,1,.9-1.055,5.094,5.094,0,0,0,2.379-2.031,7.982,7.982,0,0,1,3.9-2.847c.316-.128.449-.262.367-.643a1.606,1.606,0,0,1,1.351-2.011c.348-.074.707-.112,1.046-.216a10.51,10.51,0,0,0,1.019-.438c-.173-.29-.358-.571-.512-.868A10.891,10.891,0,0,1,48.2,24.57a2,2,0,0,1,1.934-2.648A12.319,12.319,0,0,1,51.782,22c.427.031.851.108,1.278.128A1.694,1.694,0,0,1,54.818,24.4c-.066.314-.118.631-.188,1.007,1.49-.083,2.329.546,2.371,2.043a.775.775,0,0,0,.784-.594,1.529,1.529,0,0,0,.109-.606A3.5,3.5,0,0,1,58.9,23.581a1.3,1.3,0,0,0,.159-.89c-.04-.4-.243-.793-.287-1.2A3.228,3.228,0,0,1,61.4,17.959a2.4,2.4,0,0,0,.426-.169L60.5,16.31a12.747,12.747,0,0,0-2.109.155,13.461,13.461,0,0,0-1.838.783,1.1,1.1,0,0,0-.819,1.348c.138,1.115-.4,1.633-1.521,1.65A10.58,10.58,0,0,1,50.5,19.46c-.579-.206-.723-.778-.972-1.27a1.508,1.508,0,0,0-.635-.651c-.3-.144-.579-.01-.557.411a.46.46,0,0,1,0,.052c-.131,2.024-1.379,2.912-3.359,2.381a2.83,2.83,0,0,1-.818-.3,2.6,2.6,0,0,0-1.622-.363,3.087,3.087,0,0,1-2.158-.524.526.526,0,0,0-.239-.075c-.744-.114-1.489-.224-2.178-.327-.736,1.062-1.414,2.162-2.218,3.161A14.446,14.446,0,0,1,33.595,24.1c-1.371,1.112-2.308,1.09-3.7-.038a16.177,16.177,0,0,1-4.6-6.2c-.06-.137-.119-.275-.2-.458-.134.113-.238.194-.334.282a1.936,1.936,0,0,1-2.052.457,5.806,5.806,0,0,0-.741-.22c-.234-.046-.535-.141-.7-.042a3.432,3.432,0,0,0-.962.847c-.067.088.185.458.335.666.38.53.831,1.014,1.167,1.569a2.3,2.3,0,0,1,.106,2.228,2.094,2.094,0,0,1-2.495,1.34,6.822,6.822,0,0,1-.86-.17c-.386-.118-.63-.025-.756.372a.777.777,0,0,0,.358,1.012c.2.088.432.111.641.186a5.1,5.1,0,0,1,.949.385,1.347,1.347,0,0,1,.541,1.752,1.444,1.444,0,0,0-.164.681.832.832,0,0,0,.371.553.7.7,0,0,0,.6-.1,3.666,3.666,0,0,0,.721-.732,2.3,2.3,0,0,1,2.619-.849,2.615,2.615,0,0,1,2.006,2.129,2.812,2.812,0,0,1-.634,2.517,3.874,3.874,0,0,0-.791,3.273c.048.462.1.923.159,1.383.089.722-.232,1.23-.834,1.315a1.012,1.012,0,0,1-1.2-.987,36.651,36.651,0,0,1-.2-3.809,3.5,3.5,0,0,1,.553-1.413c.213-.409.547-.755.755-1.167a1.3,1.3,0,0,0,.117-.826.56.56,0,0,0-.991-.2,11.838,11.838,0,0,1-1.152,1.1,2.3,2.3,0,0,1-2.612.27,2.665,2.665,0,0,1-1.569-2.318c-.02-.307,0-.616,0-.978-.079-.029-.2-.079-.325-.118A2.911,2.911,0,0,1,16.4,23.073a2.288,2.288,0,0,1,2.174-.8c.34.052.674.139,1.014.191.124.019.343.023.368-.033A.846.846,0,0,0,20,21.948a.894.894,0,0,0-.213-.348c-.206-.254-.422-.5-.635-.748-1.084-1.261-1.268-2.167-.65-3.214a3.288,3.288,0,0,1,3.716-1.777,1.829,1.829,0,0,1,.448.115c.562.291.907.075,1.213-.423a3.96,3.96,0,0,0,.747-1.869,6.638,6.638,0,0,1,1.448-3.6,15.381,15.381,0,0,1-1.448-2.4c-.37-.965.179-1.795.929-2.54a3.977,3.977,0,0,0-.6-.486A2.107,2.107,0,0,1,24.162,1.3,3.749,3.749,0,0,1,26.318,0h1.447c.614.252,1.247.465,1.838.764a4.06,4.06,0,0,1,1.888,1.7,3.958,3.958,0,0,0,.307.414.707.707,0,0,0,.969.25,4.951,4.951,0,0,1,1.74-.374A2.234,2.234,0,0,1,36.683,4.3,2.93,2.93,0,0,1,36.1,7.332c-.12.144-.257.275-.474.505a15.073,15.073,0,0,0,1.072,1.35,7.274,7.274,0,0,1,2.091,7.131c-.033.146-.062.293-.107.512.776.105,1.506.2,2.233.306.184.027.43.043.528.162.371.454.86.371,1.331.352a3.747,3.747,0,0,1,2.173.5,4.974,4.974,0,0,0,1.261.357c.064-.512.095-.887.16-1.256a1.931,1.931,0,0,1,1.9-1.771,2.786,2.786,0,0,1,3.168,1.829.919.919,0,0,0,.489.44c.533.174,1.088.282,1.6.408.068-.084.108-.109.108-.135a2.484,2.484,0,0,1,1.731-2.485c.444-.181.856-.44,1.284-.661a4.589,4.589,0,0,1,2.183-.525,2.823,2.823,0,0,0,1.051-.271,1.6,1.6,0,0,1,1.441.014,2.143,2.143,0,0,1,.639.512A4.311,4.311,0,0,0,63.7,16.164c.57.223.641.936.4,1.537a3.727,3.727,0,0,0-.266,1.124,1.217,1.217,0,0,1-1.561,1.235,1.133,1.133,0,0,0-1.389,1.517c.033.116.069.231.111.343a2.833,2.833,0,0,1-.6,3.111,1.606,1.606,0,0,0-.448,1.16,3.566,3.566,0,0,1-.685,2.229,2.738,2.738,0,0,1-2.123,1.113A2.107,2.107,0,0,1,54.869,27.5c-.782-.037-1.665-.109-1.98-.955a11.961,11.961,0,0,1-.374-2.347l-2.283-.284-.114.172c.236.406.44.835.713,1.215a4.168,4.168,0,0,1,.909,2.628,1.512,1.512,0,0,1-1.482,1.542,3.205,3.205,0,0,0-.71.241l-1.141.409c.009.086.023.234.041.382a1.486,1.486,0,0,1-.981,1.727c-.6.266-1.2.523-1.784.808a5.406,5.406,0,0,0-2.353,2.107A5.092,5.092,0,0,1,41.123,37.1a2.1,2.1,0,0,0-.559.594c-.193.236-.317.584-.561.713a1.8,1.8,0,0,0-.845,1.033,1.7,1.7,0,0,1-1.527,1.09c.107.954.2,1.892.323,2.826a1.827,1.827,0,0,1-.525,1.784,2.272,2.272,0,0,0-.571,1.668c-.042.756-.059,1.515-.126,2.269-.076.859-.333,1.591-1.362,1.728a.921.921,0,0,0-.51.326A5.592,5.592,0,0,1,32.208,52.9ZM26.6,14.5a7.219,7.219,0,0,0,.091.818,13.182,13.182,0,0,0,4.632,7.249.645.645,0,0,0,.947-.026,14.069,14.069,0,0,0,3.481-4.24,7.9,7.9,0,0,0,1.19-3.746A5.171,5.171,0,1,0,26.6,14.5m6.354-7.186c.5-.453.872-.762,1.213-1.1a2.173,2.173,0,0,0,.588-.727c.175-.511-.138-.794-.673-.653a9.036,9.036,0,0,0-.918.333,2.208,2.208,0,0,1-2.4-.425,4.419,4.419,0,0,1-.913-1.04A3.278,3.278,0,0,0,27.97,2.268,4.24,4.24,0,0,0,26.315,2.2c-.209.017-.4.283-.651.479A3.489,3.489,0,0,1,27.39,4.288,1.806,1.806,0,0,1,27.176,6.4c-.721.9-.717.9.133,1.723.132.128.271.25.411.38a7.077,7.077,0,0,1,5.237-1.19" transform="translate(8382 940)"/><path class="b" d="M84.663,294.269a1.006,1.006,0,0,1,1.025-1.043,1.041,1.041,0,0,1,1.028,1,1.058,1.058,0,0,1-1.041,1.053,1.027,1.027,0,0,1-1.012-1.015" transform="translate(8322.507 687.17)"/><path class="c" d="M95.068,72.7a5.171,5.171,0,1,1,10.341.056,7.9,7.9,0,0,1-1.19,3.746,14.068,14.068,0,0,1-3.481,4.239.644.644,0,0,1-.947.026,13.181,13.181,0,0,1-4.632-7.249,7.185,7.185,0,0,1-.091-.818m2.087-.071a3.1,3.1,0,1,0,3.109-3.064,3.1,3.1,0,0,0-3.109,3.064" transform="translate(8313.535 881.803)"/><path class="c" d="M110.214,85.563a3.1,3.1,0,0,1,6.194.034,3.1,3.1,0,1,1-6.194-.034m4.125.018a1.045,1.045,0,0,0-1.071-1.014,1.023,1.023,0,0,0-.986,1.038,1.033,1.033,0,0,0,1.01,1.02,1.053,1.053,0,0,0,1.046-1.044" transform="translate(8300.477 868.867)"/><path class="b" d="M127.285,98.521a1.053,1.053,0,0,1-1.046,1.044,1.033,1.033,0,0,1-1.01-1.02,1.023,1.023,0,0,1,.986-1.038,1.045,1.045,0,0,1,1.071,1.014" transform="translate(8287.529 855.927)"/></g></svg>