<svg xmlns="http://www.w3.org/2000/svg" width="140" height="140" viewBox="0 0 140 140"><defs><style>.a{fill:#ffe041;}.b{fill:#129048;}.c{fill:#fff;}.d{fill:none;}</style></defs><circle class="a" cx="70" cy="70" r="70"/><g transform="translate(43.511 43.549)"><path class="b" d="M26.082,0H26.5a1.257,1.257,0,0,0,.226.1Q38.142,2.638,49.562,5.173a1.824,1.824,0,0,1,1.544,2.278c-.35,2-.718,4-1.074,6-.347,1.949-.689,3.9-1.044,5.909.829,0,1.618,0,2.408,0,1.37,0,1.932.9,1.329,2.13-.744,1.514-1.484,3.031-2.245,4.537a.841.841,0,0,0-.013.858c.789,1.569,1.552,3.151,2.312,4.734A1.306,1.306,0,0,1,51.5,33.644c-1.517.005-3.035.013-4.552-.007-.376,0-.526.087-.6.488-.7,4.021-1.43,8.037-2.137,12.057A1.907,1.907,0,0,1,42.817,47.8c-5.3,1.674-10.6,3.358-15.908,5.006a2.394,2.394,0,0,1-1.355-.015c-5.131-1.641-10.25-3.319-15.373-4.983a1.919,1.919,0,0,1-1.4-1.619c-.71-4.037-1.441-8.07-2.147-12.107-.06-.345-.18-.452-.525-.448-1.466.017-2.932-.026-4.4.02A1.626,1.626,0,0,1,0,32.706v-.725c.871-1.766,1.746-3.53,2.606-5.3a.55.55,0,0,0,0-.424C1.746,24.5.872,22.758,0,21.01v-.725a1.677,1.677,0,0,1,1.781-.933c.727.047,1.46.01,2.209.01-.034-.256-.051-.427-.081-.6Q2.9,13.119,1.888,7.472A1.836,1.836,0,0,1,3.457,5.166c2.033-.458,4.064-.925,6.1-1.386,1.36-.308,2.72-.622,4.083-.916a.757.757,0,0,1,.946.577.775.775,0,0,1-.574.91c-.114.038-.232.064-.35.091-3.225.73-6.448,1.468-9.677,2.177-.506.111-.624.309-.531.811.492,2.642.95,5.29,1.421,7.936.235,1.32.475,2.64.715,3.971H7.133c-.015-.141-.021-.258-.041-.372-.573-3.24-1.154-6.479-1.719-9.72A1.2,1.2,0,0,1,6.434,7.667q9.674-2.192,19.351-4.375A1.941,1.941,0,0,1,26.6,3.26q9.991,2.2,19.976,4.425A1.194,1.194,0,0,1,47.622,9.23c-.287,1.7-.6,3.394-.9,5.09-.294,1.661-.589,3.322-.888,5.009h1.556c.039-.165.077-.3.1-.433.683-3.833,1.354-7.668,2.057-11.5.1-.548-.118-.675-.581-.777Q37.9,4.179,26.824,1.722a2.674,2.674,0,0,0-1.112,0C23.088,2.3,20.47,2.9,17.849,3.493c-.679.153-1.1-.044-1.195-.542-.1-.514.188-.829.873-.982,1.093-.243,2.185-.486,3.276-.738Q23.444.622,26.082,0M41.711,33.645h-.623c-1.087,0-2.173.007-3.26-.005A.76.76,0,0,1,37,32.9a.785.785,0,0,1,.827-.8c.138-.008.276,0,.414,0H51.266c-.113-.249-.186-.42-.267-.586-.663-1.363-1.3-2.738-2-4.081a1.91,1.91,0,0,1,.019-1.95c.7-1.323,1.339-2.68,2-4.025.079-.16.137-.33.205-.5H1.748c.1.217.173.388.256.555C2.7,22.912,3.384,24.32,4.09,25.719A1.543,1.543,0,0,1,4.1,27.2c-.569,1.14-1.122,2.289-1.679,3.435-.224.46-.442.922-.7,1.458H33.647c.172,0,.346-.01.517.006a.765.765,0,0,1,.746.772.751.751,0,0,1-.743.768c-.171.014-.345.006-.517.006H11.3c.014.134.016.2.028.269.566,3.171,1.138,6.341,1.689,9.515a.61.61,0,0,0,.476.566c4.144,1.339,8.284,2.694,12.429,4.031a1.238,1.238,0,0,0,.69,0c1.106-.328,2.2-.688,3.3-1.035,3.185-1.005,6.371-2.006,9.551-3.026a.757.757,0,0,0,.469-.429c.6-3.268,1.18-6.541,1.776-9.9M8.732,19.318H44.26l1.8-10.124c-.13-.039-.224-.073-.321-.095Q36.264,6.987,26.784,4.887a2.52,2.52,0,0,0-1.058.008q-7.283,1.629-14.558,3.29c-1.406.319-2.81.644-4.244.972L8.732,19.318M43.3,33.669c-.023.1-.041.164-.052.231-.613,3.424-1.232,6.848-1.834,10.275a1.327,1.327,0,0,1-.988,1.131c-4.563,1.44-9.124,2.887-13.692,4.311a1.686,1.686,0,0,1-.957,0q-6.637-2.131-13.261-4.3a1.271,1.271,0,0,1-.93-1.064q-.51-2.927-1.037-5.851-.421-2.359-.847-4.717H8.188a2.156,2.156,0,0,0,0,.34q1.047,5.9,2.1,11.8a.639.639,0,0,0,.506.559c5.027,1.626,10.049,3.27,15.077,4.894a1.39,1.39,0,0,0,.793,0c5.141-1.613,10.274-3.248,15.416-4.857a.849.849,0,0,0,.666-.779c.528-3.055,1.078-6.106,1.619-9.158.164-.926.322-1.853.488-2.813Z"/><path class="c" d="M166.787,265.441a13.127,13.127,0,0,1-1.191-.584.827.827,0,0,0-.985,0,6.975,6.975,0,0,1-.915.475,1.112,1.112,0,0,1-1.215-.144,1.021,1.021,0,0,1-.432-1.139,1.974,1.974,0,0,0-.8-2.518,1.029,1.029,0,0,1-.345-1.213,1.012,1.012,0,0,1,.961-.814,2.164,2.164,0,0,0,2.216-1.623,1.1,1.1,0,0,1,2.02-.008,2.367,2.367,0,0,0,2.261,1.657,1.1,1.1,0,0,1,.611,1.946,2.19,2.19,0,0,0-.831,2.618c.207.683-.426,1.335-1.359,1.348m-.288-1.894a2.069,2.069,0,0,1,.842-2.641,2.049,2.049,0,0,1-2.248-1.6,1.991,1.991,0,0,1-2.2,1.566,5.155,5.155,0,0,1,.888,1.211,4.975,4.975,0,0,1,.032,1.478,2,2,0,0,1,2.689-.019" transform="translate(-138.603 -221.651)"/><path class="b" d="M76.715,161.562a4.172,4.172,0,1,1-4.18,4.16,4.176,4.176,0,0,1,4.18-4.16m-.02,1.553a2.62,2.62,0,0,0,0,5.24,2.62,2.62,0,1,0,0-5.24" transform="translate(-62.506 -139.222)"/><path class="b" d="M276.244,166.566c.563.641,1.109,1.26,1.651,1.883.39.449.41.919.06,1.231s-.819.244-1.216-.2c-.7-.781-1.388-1.57-2.2-2.485,0,.668,0,1.187,0,1.706a2.6,2.6,0,0,1-.054.614.69.69,0,0,1-.769.549.7.7,0,0,1-.714-.679,3.053,3.053,0,0,1-.013-.361q0-3.127,0-6.255c0-.814.227-1.034,1.046-1.037.517,0,1.034-.008,1.551,0a2.615,2.615,0,0,1,2.58,2.045,2.535,2.535,0,0,1-1.623,2.848c-.092.039-.181.083-.3.139m-1.664-3.478v1.961a10.3,10.3,0,0,0,1.146-.008.976.976,0,0,0-.1-1.95c-.338-.018-.678,0-1.046,0" transform="translate(-235.244 -139.193)"/><path class="b" d="M230.311,168.6c.614,0,1.213,0,1.812,0,.624.006.967.273.983.746.016.491-.347.8-.986.8-.81.009-1.62.011-2.429,0-.713-.01-.967-.262-.97-.974q-.01-3.178,0-6.357c0-.708.267-.969.969-.976q1.24-.013,2.481,0c.6.007.949.321.935.8-.013.461-.35.738-.928.745-.616.007-1.231,0-1.876,0v1.834c.545,0,1.089,0,1.633,0,.6,0,.96.291.963.765s-.357.776-.951.785c-.517.008-1.033.009-1.55.015-.015,0-.029.015-.085.046Z" transform="translate(-197.091 -139.461)"/><path class="b" d="M187.973,163.31v1.766c.516,0,1.025-.005,1.534,0,.611.008.95.293.948.782s-.327.76-.952.767c-.5.005-.993,0-1.558,0,0,.883,0,1.722,0,2.56a.787.787,0,0,1-.494.825c-.544.217-1.047-.168-1.056-.82-.013-.948,0-1.9,0-2.845,0-1.19,0-2.379,0-3.569,0-.754.269-1.017,1.035-1.021s1.552-.008,2.327,0c.566.007.912.3.923.762.012.488-.331.781-.936.787-.581.005-1.163,0-1.77,0" transform="translate(-160.618 -139.389)"/><path class="b" d="M145.784,163.316c-.011.224-.023.36-.024.5,0,.4,0,.791,0,1.271.589,0,1.151-.013,1.712,0a.751.751,0,0,1,.789.677.711.711,0,0,1-.5.813,1.7,1.7,0,0,1-.561.054c-.461.007-.922,0-1.446,0,0,.8,0,1.532,0,2.268a2.569,2.569,0,0,1-.053.614.757.757,0,0,1-1.475-.082,2.965,2.965,0,0,1-.022-.464q0-3.052,0-6.1c0-.87.234-1.1,1.1-1.1.741,0,1.483-.006,2.224,0,.6.006.953.3.951.785s-.346.759-.96.764c-.565,0-1.13,0-1.741,0" transform="translate(-124.267 -139.394)"/><path class="c" d="M166.764,63.331c-.295-.145-.78-.355-1.236-.617a.734.734,0,0,0-.849,0,9.071,9.071,0,0,1-.959.5A1.12,1.12,0,0,1,162.5,63.1a1.042,1.042,0,0,1-.447-1.181,1.932,1.932,0,0,0-.784-2.473,1.167,1.167,0,0,1,.625-2.051,2.128,2.128,0,0,0,2.179-1.594,1.106,1.106,0,0,1,2.045-.007,2.316,2.316,0,0,0,2.224,1.629,1.107,1.107,0,0,1,.616,1.97,2.16,2.16,0,0,0-.815,2.573c.21.713-.425,1.373-1.382,1.368m-3.084-1.924a4.923,4.923,0,0,1,1.4-.459,5.216,5.216,0,0,1,1.429.441,1.911,1.911,0,0,1,.838-2.509,4.849,4.849,0,0,1-1.42-.451,5.236,5.236,0,0,1-.908-1.238,1.989,1.989,0,0,1-2.175,1.648,1.946,1.946,0,0,1,.835,2.567" transform="translate(-138.605 -47.49)"/><path class="c" d="M179.258,276.6a2,2,0,0,0-2.689.019,4.975,4.975,0,0,0-.032-1.478,5.154,5.154,0,0,0-.888-1.211,1.991,1.991,0,0,0,2.2-1.566,2.049,2.049,0,0,0,2.248,1.6,2.069,2.069,0,0,0-.842,2.641" transform="translate(-151.363 -234.705)"/><path class="c" d="M176.148,74.379a1.946,1.946,0,0,0-.835-2.567,1.99,1.99,0,0,0,2.175-1.648A5.236,5.236,0,0,0,178.4,71.4a4.849,4.849,0,0,0,1.42.451,1.911,1.911,0,0,0-.838,2.509,5.215,5.215,0,0,0-1.429-.441,4.922,4.922,0,0,0-1.4.459" transform="translate(-151.073 -60.463)"/><rect class="d" width="52.977" height="52.902"/></g></svg>