<svg xmlns="http://www.w3.org/2000/svg" width="140" height="140" viewBox="0 0 140 140"><defs><style>.a{fill:#ffe041;}.b{fill:#129048;}.c{fill:#fff;}.d{fill:none;}</style></defs><circle class="a" cx="70" cy="70" r="70"/><g transform="translate(48.379 43.549)"><path class="b" d="M38.435,14.427h-.688c-2.233,0-4.467.006-6.7,0a3.805,3.805,0,0,1-4.015-4.031q-.005-3.632,0-7.265v-.7h-.624q-10.05,0-20.1,0A3.589,3.589,0,0,0,2.4,6.358q0,20.077,0,40.154a3.6,3.6,0,0,0,3.934,3.963q5.546.005,11.092,0c.169,0,.338-.006.507,0a1.234,1.234,0,0,1,1.293,1.208,1.217,1.217,0,0,1-1.293,1.2c-1.107.022-2.215.007-3.322.007-2.759,0-5.518,0-8.277,0A6.038,6.038,0,0,1,0,46.557q0-20.1,0-40.21A6.032,6.032,0,0,1,6.328.01Q17.392,0,28.456,0A1.886,1.886,0,0,1,29.977.68q5.161,5.771,10.356,11.511a1.921,1.921,0,0,1,.528,1.37q-.012,9.292-.009,18.584a2.2,2.2,0,0,1-.094.72,1.109,1.109,0,0,1-1.116.786,1.091,1.091,0,0,1-1.109-.791,2.964,2.964,0,0,1-.095-.888q-.008-8.391,0-16.782v-.763m-9-10.737c0,2.476-.027,4.76.014,7.043a1.31,1.31,0,0,0,1.473,1.3c1.875.01,3.751,0,5.626,0a2.041,2.041,0,0,0,.336-.065L29.44,3.69" transform="translate(0 -0.001)"/><path class="c" d="M167.111,230.651a30.869,30.869,0,0,1,2.8,1.984,9.742,9.742,0,0,1,3.353,7.183c.037.9-.424,1.47-1.162,1.492-.708.021-1.175-.5-1.227-1.378a7.713,7.713,0,0,0-15.408-.3c-.007.169,0,.339-.024.506a1.223,1.223,0,0,1-1.266,1.171,1.17,1.17,0,0,1-1.123-1.3,14.527,14.527,0,0,1,.479-2.929,9.836,9.836,0,0,1,5.363-6.119c.131-.063.255-.139.388-.212a5.313,5.313,0,1,1,7.823-.1m-3.97-.663a2.9,2.9,0,1,0-2.893-2.9,2.873,2.873,0,0,0,2.893,2.9" transform="translate(-130.028 -188.423)"/><path class="b" d="M53.78,159.926h12.1c.206,0,.414-.006.618.014a1.184,1.184,0,0,1,1.094,1.153,1.206,1.206,0,0,1-1.041,1.21,3.948,3.948,0,0,1-.562.016H41.566A3.9,3.9,0,0,1,41,162.3a1.2,1.2,0,0,1-1.037-1.213,1.181,1.181,0,0,1,1.1-1.15c.2-.019.412-.013.618-.013h12.1" transform="translate(-33.955 -135.868)"/><path class="b" d="M48.419,114.393q-3.515,0-7.03,0a1.214,1.214,0,0,1-1.354-1,1.169,1.169,0,0,1,.948-1.367,4.339,4.339,0,0,1,.673-.027q6.749,0,13.5,0h.225c.9.011,1.455.48,1.439,1.214s-.561,1.175-1.425,1.178c-1.144,0-2.287,0-3.431,0H48.419" transform="translate(-33.995 -95.151)"/><path class="b" d="M48.413,210.245q-3.516,0-7.031,0a1.21,1.21,0,0,1-1.351-1,1.169,1.169,0,0,1,.954-1.363,4.423,4.423,0,0,1,.673-.026h13.5c.094,0,.188,0,.281,0,.847.016,1.4.5,1.379,1.218a1.23,1.23,0,0,1-1.374,1.173q-3.516.008-7.031,0" transform="translate(-33.993 -176.583)"/><path class="b" d="M48.46,255.78H55.1c.187,0,.376,0,.562.01a1.187,1.187,0,0,1,.021,2.37c-.485.034-.974.013-1.462.013q-6.328,0-12.656,0a2.97,2.97,0,0,1-.671-.042,1.189,1.189,0,0,1-.9-1.258,1.163,1.163,0,0,1,1.216-1.083c2.419-.013,4.837-.005,7.256-.005Z" transform="translate(-33.969 -217.302)"/><path class="c" d="M203.785,243.6a2.9,2.9,0,1,1,2.926-2.862,2.886,2.886,0,0,1-2.926,2.862" transform="translate(-170.672 -202.033)"/><rect class="d" width="43.242" height="52.902" transform="translate(0 0)"/></g></svg>