<svg xmlns="http://www.w3.org/2000/svg" width="140" height="140" viewBox="0 0 140 140"><defs><style>.a{fill:#ffe041;}.b{fill:#129048;}.c{fill:#fff;}.d{fill:none;}</style></defs><circle class="a" cx="70" cy="70" r="70"/><g transform="translate(40.563 43.549)"><path class="b" d="M351.556,171.239a21.652,21.652,0,0,1-.692,2.593,9.894,9.894,0,0,1-8.734,6.645,10.316,10.316,0,0,1-9.889-15.362,9.9,9.9,0,0,1,9.548-5.226,10.315,10.315,0,0,1,9.64,8.727c.028.186.084.369.127.553Zm-2.3-.987a8.047,8.047,0,1,0-8.095,8,8.074,8.074,0,0,0,8.095-8" transform="translate(-292.682 -141.46)"/><path class="b" d="M36.935,220.268h6.351c1.341,0,2.683-.021,4.024.005a4.593,4.593,0,1,1,.008,9.186c-2.05.033-4.1.007-6.151.007-3.487,0-6.975-.022-10.462.008a9.368,9.368,0,0,1-5.69-1.808c-4.115-2.937-8.263-5.829-12.382-8.762a4.858,4.858,0,0,0-3-.949c-2.663.035-5.327.012-7.99.011C.414,217.968,0,217.547,0,216.3q0-7.531,0-15.062c0-1.247.414-1.668,1.643-1.668,5.059,0,10.118.008,15.177,0a10.606,10.606,0,0,1,7.837,3.252c3.719,3.733,7.43,7.475,11.188,11.169A5.1,5.1,0,0,1,37,220.021a1.479,1.479,0,0,0-.069.248m-27.018-4.6a6.919,6.919,0,0,1,4.3,1.538c4.052,2.892,8.137,5.74,12.192,8.628a7.017,7.017,0,0,0,4.241,1.339c5.4-.023,10.806-.009,16.209-.009.23,0,.461.007.689-.013a2.3,2.3,0,0,0,1.978-3.092,2.347,2.347,0,0,0-2.358-1.493q-7.242-.009-14.484-.013a4.65,4.65,0,0,1-3.087-1.065c-2.023-1.73-4.006-3.507-5.991-5.281a1.375,1.375,0,0,1-.38-.682,1.022,1.022,0,0,1,.517-1.173,1.127,1.127,0,0,1,1.424.2c1.036.911,2.059,1.837,3.092,2.75.9.8,1.78,1.636,2.732,2.373a2.573,2.573,0,1,0,3.366-3.89Q28.634,210.044,22.9,204.32a8.132,8.132,0,0,0-6-2.451c-2.146.007-4.292,0-6.438,0H9.916Zm-7.577-.048H7.56V201.9H2.339Z" transform="translate(0 -176.575)"/><path class="b" d="M202,0A10.347,10.347,0,1,1,191.644,10.34,10.381,10.381,0,0,1,202,0m8.039,10.324a8.047,8.047,0,1,0-8.024,8.07,8.073,8.073,0,0,0,8.024-8.07" transform="translate(-169.565 -0.001)"/><path class="c" d="M367.426,187.743a8.047,8.047,0,1,1-8-8.095,8.074,8.074,0,0,1,8,8.095m-2.3-.066a5.746,5.746,0,0,0-3.538-5.258,7.909,7.909,0,0,0-2.174-.448,1.1,1.1,0,0,0-1.177,1.088,1.17,1.17,0,0,0,1.048,1.171c.226.037.459.042.684.083a3.429,3.429,0,0,1,2.827,3,3.367,3.367,0,0,1-1.994,3.49,7.881,7.881,0,0,1-1.554.36,1.181,1.181,0,0,0-1.011,1.148,1.167,1.167,0,0,0,1.1,1.122,2.933,2.933,0,0,0,.516-.005,5.831,5.831,0,0,0,5.271-5.75" transform="translate(-310.854 -158.952)"/><path class="c" d="M227.7,27.986a8.047,8.047,0,1,1-8.07-8.024,8.073,8.073,0,0,1,8.07,8.024m-2.3.009a5.747,5.747,0,0,0-3.534-5.261,7.906,7.906,0,0,0-2.173-.45,1.1,1.1,0,0,0-1.181,1.084,1.169,1.169,0,0,0,1.044,1.175c.245.041.5.047.74.094a3.425,3.425,0,0,1,2.774,2.984,3.365,3.365,0,0,1-1.99,3.492,7.849,7.849,0,0,1-1.553.36,1.156,1.156,0,0,0-1,1.031,1.046,1.046,0,0,0,.7,1.134,2.185,2.185,0,0,0,.9.1,5.818,5.818,0,0,0,5.276-5.741" transform="translate(-187.226 -17.662)"/><path class="a" d="M418.161,205.486a5.831,5.831,0,0,1-5.271,5.75,2.931,2.931,0,0,1-.516.005,1.167,1.167,0,0,1-1.1-1.122,1.181,1.181,0,0,1,1.011-1.148,7.881,7.881,0,0,0,1.554-.36,3.367,3.367,0,0,0,1.994-3.49,3.429,3.429,0,0,0-2.827-3c-.226-.041-.457-.046-.684-.083a1.17,1.17,0,0,1-1.048-1.171,1.1,1.1,0,0,1,1.177-1.088,7.908,7.908,0,0,1,2.174.448,5.746,5.746,0,0,1,3.538,5.258" transform="translate(-363.889 -176.76)"/><path class="b" d="M174.028,300.627a1.141,1.141,0,1,1-1.134-1.147,1.179,1.179,0,0,1,1.134,1.147" transform="translate(-151.96 -264.976)"/><path class="a" d="M278.433,45.8a5.818,5.818,0,0,1-5.276,5.741,2.185,2.185,0,0,1-.9-.1,1.046,1.046,0,0,1-.7-1.134,1.156,1.156,0,0,1,1-1.031,7.849,7.849,0,0,0,1.553-.36,3.365,3.365,0,0,0,1.99-3.492,3.425,3.425,0,0,0-2.774-2.984c-.244-.048-.495-.054-.74-.094a1.169,1.169,0,0,1-1.044-1.175,1.1,1.1,0,0,1,1.181-1.084,7.906,7.906,0,0,1,2.173.45,5.747,5.747,0,0,1,3.534,5.261" transform="translate(-240.259 -35.466)"/><rect class="d" width="58.873" height="52.901" transform="translate(0 0)"/></g></svg>