<svg xmlns="http://www.w3.org/2000/svg" width="140" height="140" viewBox="0 0 140 140"><defs><style>.a{fill:#ffe041;}.b{fill:#129048;}.c{fill:#fff;}.d{fill:none;}</style></defs><circle class="a" cx="70" cy="70" r="70"/><g transform="translate(47.947 43.549)"><path class="b" d="M109.819,0a1.241,1.241,0,0,1,.616,1.2c-.022,1.877.011,3.754-.027,5.63a1.4,1.4,0,0,1-.415.921.879.879,0,0,1-.839.044,1.178,1.178,0,0,1-.468-.825c-.044-1.652-.022-3.305-.022-4.958a7.5,7.5,0,0,0,0-.774A1.264,1.264,0,0,1,109.2,0Z" transform="translate(-93.651)"/><path class="b" d="M199.221,0a1.364,1.364,0,0,1,.544,1.241c-.024,1.842-.008,3.685-.01,5.527,0,.748-.312,1.162-.866,1.167s-.893-.425-.894-1.152c0-1.86.012-3.719-.009-5.578A1.237,1.237,0,0,1,198.6,0Z" transform="translate(-170.653)"/><path class="b" d="M154.6,0a1.286,1.286,0,0,1,.582,1.223c-.019,1.531-.006,3.062-.007,4.593a3.268,3.268,0,0,1-.016.412.851.851,0,0,1-.895.811.807.807,0,0,1-.835-.811c-.023-1.805-.032-3.612.017-5.416.007-.275.348-.541.534-.811Z" transform="translate(-132.231)"/><path class="b" d="M243.9,0a1.146,1.146,0,0,1,.625,1.19c-.031.462,0,.928-.01,1.391a.878.878,0,0,1-.884.936.868.868,0,0,1-.87-.943c-.011-.464.023-.929-.009-1.391A1.115,1.115,0,0,1,243.388,0Z" transform="translate(-209.24)"/><path class="b" d="M64.949,0a1.117,1.117,0,0,1,.632,1.182c-.032.479,0,.962-.012,1.442a.874.874,0,1,1-1.749.008A8.732,8.732,0,0,1,63.843.885c.055-.319.384-.592.589-.885h.517" transform="translate(-54.981)"/><path class="b" d="M4.417,45.23c4.6-5.707,10.425-8.758,17.637-8.759s13.04,3.051,17.644,8.758v-.661q0-5.606,0-11.211a3.784,3.784,0,0,1,.019-.567.862.862,0,0,1,1.668-.146,2.443,2.443,0,0,1,.073.713c0,4.7,0,9.4.014,14.1a2.47,2.47,0,0,0,.254,1.074A22.042,22.042,0,1,1,.4,62.542,21.664,21.664,0,0,1,2.362,48.583a2.766,2.766,0,0,0,.279-1.171c.019-4.684.011-9.368.015-14.052a2.474,2.474,0,0,1,.071-.713.789.789,0,0,1,.914-.583.789.789,0,0,1,.754.722,3.675,3.675,0,0,1,.021.567q0,5.58,0,11.159v.718m17.655-7.023A20.282,20.282,0,1,0,42.325,58.54,20.278,20.278,0,0,0,22.072,38.207" transform="translate(0 -27.631)"/><path class="b" d="M65.706,40.989c0,.549.009,1.1,0,1.647a.878.878,0,1,1-1.752.024q-.021-1.723,0-3.448a.876.876,0,1,1,1.75.027c.013.583,0,1.166,0,1.75" transform="translate(-55.114 -33.016)"/><path class="b" d="M244.569,41c0,.549.011,1.1,0,1.647a.865.865,0,0,1-.873.939.851.851,0,0,1-.879-.927q-.017-1.7,0-3.4a.879.879,0,1,1,1.752-.012c.014.583,0,1.166,0,1.749" transform="translate(-209.286 -33.018)"/><path class="b" d="M86.849,91.227A15.978,15.978,0,0,0,78.4,94.349c-.1.07-.194.144-.3.206a.883.883,0,0,1-1.236-.2.826.826,0,0,1,.223-1.223,27.755,27.755,0,0,1,3.271-1.954,18.474,18.474,0,0,1,25.7,12.115,18.078,18.078,0,0,1-1.274,12.818c-.19.4-.431.708-.923.694-.709-.02-1.047-.675-.7-1.4a15.884,15.884,0,0,0,1.542-4.952,16.423,16.423,0,0,0-6.335-15.743c-2.919-2.349-6.516-3.5-11.529-3.486" transform="translate(-66.107 -77.1)"/><path class="b" d="M43.976,186.839c-8.69.185-16.756-6.641-18.083-15.819a18.3,18.3,0,0,1,1.541-10.568c.051-.109.1-.219.155-.326.3-.59.766-.8,1.245-.565.5.245.588.712.359,1.327a32.314,32.314,0,0,0-1.352,3.884,16.738,16.738,0,0,0,26.195,17.094c.07-.049.136-.106.209-.151a.892.892,0,0,1,1.241.19.827.827,0,0,1-.211,1.226,28.678,28.678,0,0,1-2.624,1.635,18.936,18.936,0,0,1-8.676,2.073" transform="translate(-22.143 -137.453)"/><path class="c" d="M80.956,155.888c.216-1.307.445-2.7.675-4.09.079-.475.172-.948.239-1.425A2.953,2.953,0,0,0,81,147.736c-1.216-1.219-2.435-2.437-3.614-3.691a1.662,1.662,0,0,1-.415-.994c-.021-.538.377-.835,1.041-.935,1.633-.246,3.265-.5,4.9-.731a2.812,2.812,0,0,0,2.3-1.683c.753-1.6,1.522-3.2,2.274-4.8.187-.4.421-.729.9-.737.5-.008.746.335.941.752.736,1.573,1.5,3.134,2.227,4.71a2.891,2.891,0,0,0,2.413,1.766c1.62.215,3.232.483,4.848.726a1.061,1.061,0,0,1,.987.7,1.116,1.116,0,0,1-.347,1.213c-1.175,1.188-2.328,2.4-3.523,3.563a3.157,3.157,0,0,0-.957,3.046c.311,1.674.562,3.359.842,5.039a1.142,1.142,0,0,1-.414,1.244c-.407.286-.777.107-1.154-.1-1.476-.815-2.961-1.611-4.434-2.431a2.727,2.727,0,0,0-2.843.009c-1.517.846-3.044,1.674-4.574,2.5-.767.413-1.472-.048-1.441-1.012" transform="translate(-66.342 -115.642)"/><rect class="d" width="44.107" height="52.902" transform="translate(0)"/></g></svg>