<svg xmlns="http://www.w3.org/2000/svg" width="140" height="140" viewBox="0 0 140 140"><defs><style>.a{fill:#ffe041;}.b{fill:#129048;}.c{fill:#fff;}.d{fill:none;}</style></defs><circle class="a" cx="70" cy="70" r="70"/><g transform="translate(-2239 -13149)"><path class="b" d="M1.3,52.9a1.923,1.923,0,0,1-1.3-2.1c.045-1.563.011-3.129.013-4.693A4.377,4.377,0,0,1,.039,45.6a.692.692,0,0,1,.716-.672.7.7,0,0,1,.78.659,3.864,3.864,0,0,1,.032.565q0,2.3,0,4.591v.582H5.842v-.56q0-3.043,0-6.086a3.053,3.053,0,0,1,.016-.463.749.749,0,0,1,.811-.7.727.727,0,0,1,.71.745c.025.429.01.859.01,1.289,0,1.907,0,3.814,0,5.762H39.152v-.556q0-3.043,0-6.086a2.691,2.691,0,0,1,.02-.514.721.721,0,0,1,.7-.639.7.7,0,0,1,.768.551,2.325,2.325,0,0,1,.054.612c0,2.2,0,4.4,0,6.635h4.21A1.636,1.636,0,0,0,44.971,51c0-2.08.036-4.162-.025-6.241a8.566,8.566,0,0,0-5.727-7.772c-1.654-.572-3.332-1.073-5.009-1.574a.716.716,0,0,0-.6.194c-1.14,1.263-2.254,2.55-3.376,3.83a3.639,3.639,0,0,1-4.27,1.144,9.249,9.249,0,0,0-2.737-.823,8.662,8.662,0,0,0-2.73.857,3.236,3.236,0,0,1-3.151-.19,5.182,5.182,0,0,1-.9-.837Q14.7,37.621,12.98,35.629a.6.6,0,0,0-.75-.2c-1.631.534-3.283,1-4.9,1.57a8.471,8.471,0,0,0-5.106,4.861c-.055.126-.1.257-.154.382a.787.787,0,0,1-1.026.525.783.783,0,0,1-.409-1.078,10.307,10.307,0,0,1,3.025-4.351,11.448,11.448,0,0,1,4.176-2.163c2.739-.842,5.47-1.712,8.212-2.546a4.837,4.837,0,0,1,1.256-.15c.48-.014.512-.376.61-.692.109-.353-.08-.468-.4-.547q-2.877-.7-5.746-1.431a4.557,4.557,0,0,1-3.641-4.627c-.011-.877.014-1.754-.013-2.63a2.108,2.108,0,0,0-.239-.633,5.453,5.453,0,0,1-.566-1.5,31.375,31.375,0,0,1,0-3.814,5.257,5.257,0,0,1,.51-1.419,2.612,2.612,0,0,0,.295-.814,14.144,14.144,0,0,1,1.568-6.86A13.257,13.257,0,0,1,19.65.3a18.888,18.888,0,0,1,8.183.3A13.456,13.456,0,0,1,36.672,8.22a.782.782,0,0,1-.314,1.146c-.435.2-.846.026-1.1-.537A12.1,12.1,0,0,0,30.31,3.313a11.706,11.706,0,0,0-5.778-1.666,20.794,20.794,0,0,0-6.141.48,12.2,12.2,0,0,0-8.529,9.733c-.144,1.1-.121,2.227-.2,3.339-.028.382.126.541.466.664a13.942,13.942,0,0,0,6.351.677,27.211,27.211,0,0,0,11.354-4.335c.7-.433,1.369-.919,2.044-1.393s1.113-.366,1.449.4a6.869,6.869,0,0,0,4.92,3.983q0-1.308,0-2.616c0-.137-.022-.275-.016-.412a.718.718,0,0,1,.67-.775.7.7,0,0,1,.829.656c.079.681.111,1.37.122,2.056a.668.668,0,0,0,.369.654,2.029,2.029,0,0,1,1.041,1.786c.022,1.306.019,2.613,0,3.92a2.039,2.039,0,0,1-1.036,1.791.687.687,0,0,0-.373.7c.021.721.012,1.444.005,2.166A4.555,4.555,0,0,1,34.2,29.848c-1.708.457-3.419.9-5.135,1.325-.381.094-.547.252-.43.629.11.356.173.749.732.654a1.928,1.928,0,0,1,.856.084c3.051.939,6.109,1.857,9.141,2.851a10.2,10.2,0,0,1,7.162,10c.012,1.805-.029,3.611.014,5.416a1.928,1.928,0,0,1-1.3,2.1ZM12.783,18.1c-.842,7.385,5.626,12.582,11.39,11.78a.632.632,0,0,0-.1-.116,2.19,2.19,0,0,1-.965-2.467,2.234,2.234,0,0,1,1.977-1.712c.761-.132,1.523-.257,2.285-.387a1.989,1.989,0,0,1,1.977.6,1.085,1.085,0,0,0,1.287.362,1.43,1.43,0,0,1,.353-.069,1.009,1.009,0,0,0,.872-.531,8.7,8.7,0,0,0,1.705-3.932c.2-1.716.171-3.457.261-5.186a.649.649,0,0,0-.4-.684,7.711,7.711,0,0,1-2.818-2.585c-.137-.21-.265-.425-.4-.642-5.318,3.5-10.864,6.139-17.424,5.565M19.488,30.94a3.23,3.23,0,0,1-.759,2.53l4.543,4.3,4.546-4.309a3.273,3.273,0,0,1-.773-2.519,12.35,12.35,0,0,1-7.556,0m-5.2,3.85c1.266,1.432,2.455,2.828,3.713,4.16a1.473,1.473,0,0,0,1.151.392,23.465,23.465,0,0,0,2.582-.781c-.038-.1-.041-.138-.063-.158-1.492-1.419-2.981-2.84-4.486-4.245a.608.608,0,0,0-.495-.111c-.774.217-1.538.471-2.4.743m1.827-5.472c-.034-.1-.036-.138-.056-.154a12.314,12.314,0,0,1-4.4-6.266.39.39,0,0,0-.27-.232c-.559-.022-1.12-.011-1.65-.011,0,1.134-.081,2.2.023,3.252a2.483,2.483,0,0,0,1.747,2.18c1.5.486,3.04.821,4.6,1.231m8.647,9.223c.751.241,1.442.487,2.147.684a1.717,1.717,0,0,0,1.8-.47c1.186-1.283,2.334-2.6,3.549-3.962-.812-.253-1.547-.464-2.268-.716a.655.655,0,0,0-.77.18c-1.372,1.323-2.762,2.627-4.145,3.939-.1.091-.179.2-.315.345M35.357,16.663v4.431c.554,0,1.117.02,1.677-.007a.623.623,0,0,0,.666-.592c.024-1.241.009-2.482.009-3.773-.8.474-1.511-.012-2.353-.058m-26.533.381c0,1.154,0,2.25,0,3.345a.6.6,0,0,0,.577.668c.606.036,1.215.01,1.766.01,0-1.02.011-1.994-.013-2.967a.528.528,0,0,0-.288-.381c-.655-.241-1.325-.442-2.045-.674m27.433,7.949a4.286,4.286,0,0,1-3.482,2.367,1.11,1.11,0,0,0-.515.19c-.571.514-1.118,1.056-1.786,1.7,1.457-.41,2.815-.7,4.105-1.18a2.811,2.811,0,0,0,1.677-3.073M25.436,28.571c.8-.143,1.7-.28,2.58-.473a.635.635,0,0,0,.5-.785.661.661,0,0,0-.769-.6q-1.318.185-2.623.459a.649.649,0,0,0-.516.82c.068.4.346.565.829.576m9.572-5.91-1.115,2.71a2.734,2.734,0,0,0,1.115-2.71" transform="translate(2286 13192.999)"/><path class="b" d="M76.267,338.861c-.894,0-1.787.008-2.681,0a1.387,1.387,0,0,1-1.542-1.519q-.015-1.134,0-2.268a1.385,1.385,0,0,1,1.5-1.507q2.758-.009,5.516,0a1.4,1.4,0,0,1,1.526,1.5q.028,1.159,0,2.32a1.378,1.378,0,0,1-1.488,1.477c-.945.014-1.89,0-2.836,0m-2.634-1.587h5.383v-2.139H73.633Z" transform="translate(2223.271 12902.537)"/><path class="c" d="M98.435,102.567c6.56.574,12.106-2.062,17.424-5.565.135.217.264.432.4.642a7.711,7.711,0,0,0,2.818,2.585.649.649,0,0,1,.4.684c-.09,1.729-.062,3.47-.261,5.186a8.7,8.7,0,0,1-1.705,3.932,1.009,1.009,0,0,1-.872.531,1.425,1.425,0,0,0-.353.069A1.085,1.085,0,0,1,115,110.27a1.988,1.988,0,0,0-1.977-.6c-.761.13-1.524.254-2.285.387a2.234,2.234,0,0,0-1.977,1.712,2.19,2.19,0,0,0,.965,2.467.626.626,0,0,1,.1.116c-5.764.8-12.231-4.395-11.39-11.78" transform="translate(2200.348 13108.53)"/><rect class="d" width="46.541" height="52.902" transform="translate(2286 13193)"/></g></svg>