<svg xmlns="http://www.w3.org/2000/svg" width="108" height="108" viewBox="0 0 108 108"><defs><style>.a{fill:#ffe041;}.b{fill:#129048;}.c{fill:#fff;}.d{fill:none;}</style></defs><g transform="translate(0.001)"><circle class="a" cx="54" cy="54" r="54" transform="translate(-0.001)"/><g transform="translate(30.978 31)"><path class="b" d="M5.391,0A3.114,3.114,0,0,1,7.639,1.747c.047.1.295.155.45.155q4.625.013,9.251.007c.12,0,.24,0,.359,0a.919.919,0,0,1,.987,1.1c-.026.328-.084.652-.127.979-.041.307-.081.615-.129.981h.518q3.009,0,6.017,0c1.017,0,1.392.548,1.01,1.478-.619,1.507-1.237,3.014-1.87,4.514a.56.56,0,0,0,.085.643c1.094,1.424,2.169,2.862,3.26,4.288a1.013,1.013,0,0,1,.22,1.154.986.986,0,0,1-1.022.49q-5.231-.011-10.463,0c-.919,0-1.232-.37-1.109-1.289.075-.561.144-1.123.222-1.727H9.68l.724,4.7c.779,0,1.524-.009,2.269,0,1.271.02,2.55-.033,3.809.1a5.549,5.549,0,0,1,3.838,2.265c.589.754,1.156,1.527,1.725,2.3a2.992,2.992,0,0,0,2.943,1.333c0-.241,0-.476,0-.71,0-1.148.238-1.382,1.4-1.382,2.275,0,4.554-.075,6.825.019a23.526,23.526,0,0,0,8.176-1.044c1.052-.334,2.139-.562,3.209-.838.754-.194,1.015-.087,1.4.576V40.609a1.287,1.287,0,0,1-1.282.625c-.792-.025-1.586,0-2.379.005q-8.081.025-16.161.048c-.886,0-1.189-.3-1.191-1.183,0-.354,0-.708,0-1.058a5.269,5.269,0,0,0-4.54,1.292A5.737,5.737,0,0,1,17.231,42c-.884.121-1.789.088-2.685.121-.169.006-.338,0-.521,0,.035.288.067.495.084.7a2.773,2.773,0,0,1-1.882,3.014c-.153.051-.3.105-.457.158h-.719a1.037,1.037,0,0,0-.163-.069,2.756,2.756,0,0,1-2.245-2.474c-.042-.311-.094-.623-.1-.935s-.122-.409-.434-.4c-.942.019-1.884.017-2.826,0a3.049,3.049,0,0,1-2.993-2.428A3.117,3.117,0,0,1,2.761,37.3,3.128,3.128,0,0,1,1.5,35.471,3.184,3.184,0,0,1,1.8,33.229,3.343,3.343,0,0,1,0,31V29.918a3.52,3.52,0,0,1,1.141-1.843.633.633,0,0,0-.039-.125,2.969,2.969,0,0,1-.195-3.3,2.993,2.993,0,0,1,2.915-1.567c.486.014.974,0,1.464,0a1.666,1.666,0,0,0,0-.194Q3.743,13.132,2.2,3.371A2.892,2.892,0,0,1,4.215.133C4.339.095,4.46.045,4.582,0ZM11,23.087h.508c.943,0,1.886-.008,2.829.005a.9.9,0,0,1,.909.868.912.912,0,0,1-.865.918c-.134.012-.269.006-.4.006H4.189c-.24,0-.48-.01-.718.007a1.247,1.247,0,0,0-.244,2.444,2.883,2.883,0,0,0,.4.066.9.9,0,0,1-.019,1.786c-.163.017-.329.005-.494.009A1.255,1.255,0,1,0,3.1,31.7c.4.012.808,0,1.213,0,.624.007,1.026.347,1.039.874.012.507-.347.856-.953.927a1.23,1.23,0,0,0-1.183,1.317,1.254,1.254,0,0,0,1.276,1.191c.284.013.57-.009.853.012a.884.884,0,0,1,.218,1.718,2.36,2.36,0,0,1-.439.078A1.235,1.235,0,0,0,4.029,39a1.214,1.214,0,0,0,.963,1.282,2.619,2.619,0,0,0,.579.046c3.443,0,6.886-.005,10.329.005a4.427,4.427,0,0,0,3.194-1.2,6.744,6.744,0,0,1,5.272-1.93c.2.012.4,0,.583,0V27.026A4.979,4.979,0,0,1,20.269,24.5c-.42-.618-.885-1.206-1.348-1.794a4.219,4.219,0,0,0-3.456-1.695c-1.347,0-2.694,0-4.042,0h-.743L11,23.087M36.546,24.96H26.811v14.5h9.735c0-1.08,0-2.126,0-3.171a.9.9,0,1,1,1.791-.008c.012.823,0,1.646,0,2.47v.673h5.839v-16.2l-5.8,1.495a.957.957,0,0,0-.034.144c0,.853,0,1.706-.007,2.559a6.926,6.926,0,0,1-.034.985.847.847,0,0,1-.922.736.863.863,0,0,1-.832-.837c-.013-.179-.007-.359-.007-.539,0-.925,0-1.85,0-2.8M15.555,12.684l1.22-8.952H8.049a1.48,1.48,0,0,0,0,.2c.432,2.821.87,5.641,1.291,8.464.047.312.227.291.442.291q1.907,0,3.814,0h1.958m8.331-5.9H18.176l-1.217,8.906h8.078c-.926-1.225-1.8-2.4-2.7-3.559a1.086,1.086,0,0,1-.158-1.208c.308-.7.588-1.406.878-2.11.271-.66.539-1.32.828-2.029M9.176,23.065c-.2-1.318-.4-2.589-.593-3.859Q7.617,12.953,6.65,6.7c-.206-1.33-.4-2.663-.639-3.987a1,1,0,0,0-1.193-.882,1.081,1.081,0,0,0-.843,1.284c.156,1,.324,2.008.482,3.013q1.008,6.382,2.013,12.765c.218,1.385.439,2.77.66,4.171Zm1.118,19.085c.066.468.1.913.2,1.341a.918.918,0,0,0,1.016.688.938.938,0,0,0,.817-.966c-.011-.352-.074-.7-.115-1.064Z"/><path class="c" d="M74.673,40.108H72.715q-1.907,0-3.814,0c-.214,0-.4.021-.442-.291-.421-2.823-.86-5.643-1.291-8.464a1.479,1.479,0,0,1,0-.2h8.727l-1.22,8.952" transform="translate(-59.118 -27.424)"/><path class="c" d="M148.5,56.663c-.289.708-.557,1.369-.828,2.029-.29.7-.57,1.414-.878,2.11a1.086,1.086,0,0,0,.158,1.208c.894,1.16,1.772,2.334,2.7,3.559H141.57l1.217-8.906Z" transform="translate(-124.611 -49.875)"/><path class="b" d="M305.137,262.331a.874.874,0,0,1,.885-.874.885.885,0,1,1-.023,1.77.87.87,0,0,1-.862-.9" transform="translate(-268.584 -230.137)"/><rect class="d" width="46" height="46" transform="translate(0.021)"/></g></g></svg>