<svg xmlns="http://www.w3.org/2000/svg" xmlns:xlink="http://www.w3.org/1999/xlink" width="96" height="96" viewBox="0 0 96 96"><defs><style>.a{fill:url(#a);}.b{fill:#018837;}.c{fill:#fff;}</style><linearGradient id="a" x2="1" y2="1" gradientUnits="objectBoundingBox"><stop offset="0" stop-color="#ffe041"/><stop offset="1" stop-color="#fff088"/></linearGradient></defs><g transform="translate(-94 -56)"><g transform="translate(-188 -4088)"><circle class="a" cx="48" cy="48" r="48" transform="translate(282 4144)"/></g><g transform="translate(-144 -3731)"><g transform="translate(261.232 4322.742)"><path class="b" d="M8.64-511.9a4.871,4.871,0,0,0-3.633,4.554v.417l-1.063.028a3.245,3.245,0,0,0-1.594.294,3.624,3.624,0,0,0-1.594,1.584A2.43,2.43,0,0,0,.5-503.683a2.43,2.43,0,0,0,.256,1.338,3.624,3.624,0,0,0,1.594,1.584,3.244,3.244,0,0,0,1.594.294l1.063.028v9.449l-1.063.028a3.244,3.244,0,0,0-1.594.294,3.624,3.624,0,0,0-1.594,1.584A2.43,2.43,0,0,0,.5-487.745a2.43,2.43,0,0,0,.256,1.338,3.624,3.624,0,0,0,1.594,1.584,3.244,3.244,0,0,0,1.594.294l1.063.028v9.449l-1.063.028a3.244,3.244,0,0,0-1.594.294,3.624,3.624,0,0,0-1.594,1.584A2.43,2.43,0,0,0,.5-471.807a2.429,2.429,0,0,0,.256,1.338,3.624,3.624,0,0,0,1.594,1.584,3.245,3.245,0,0,0,1.594.294l1.063.028v.417a4.858,4.858,0,0,0,3.776,4.582c.712.152,35.756.152,36.467,0a4.9,4.9,0,0,0,3.671-3.671c.152-.712.152-40.31,0-41.021a4.9,4.9,0,0,0-3.671-3.671C44.481-512.089,9.313-512.06,8.64-511.9Zm31.771,2.078a2.854,2.854,0,0,1,1.347,1.385c.2.427.2.55.247,8.6.028,4.487.085,8.235.133,8.329a1.149,1.149,0,0,0,.816.446,1.03,1.03,0,0,0,.844-.541c.085-.2.1-2.381.085-8.472l-.028-8.206-.209-.56a5.772,5.772,0,0,0-.465-.939l-.247-.37,1.034.038c1.537.057,2.315.484,2.846,1.575l.266.541v40.509l-.2.436a2.815,2.815,0,0,1-1.347,1.385,3.144,3.144,0,0,1-1.565.3l-1.034.028.247-.37a5.772,5.772,0,0,0,.465-.939l.209-.56.028-8.206c.019-6.091,0-8.273-.085-8.472a1.03,1.03,0,0,0-.844-.541,1.149,1.149,0,0,0-.816.446c-.047.095-.1,3.842-.133,8.329-.047,8.045-.047,8.168-.247,8.6a2.854,2.854,0,0,1-1.347,1.385l-.541.266H9.038l-.541-.266a2.765,2.765,0,0,1-1.565-2.343l-.057-.55,1.081-.028a3.142,3.142,0,0,0,1.622-.3,3.384,3.384,0,0,0,1.565-1.565,2.379,2.379,0,0,0,.266-1.347,2.378,2.378,0,0,0-.266-1.347,3.384,3.384,0,0,0-1.565-1.565,3.21,3.21,0,0,0-1.6-.3L6.9-475.052V-484.5l1.072-.028a3.211,3.211,0,0,0,1.6-.3,3.384,3.384,0,0,0,1.565-1.565,2.378,2.378,0,0,0,.266-1.347,2.378,2.378,0,0,0-.266-1.347,3.384,3.384,0,0,0-1.565-1.565,3.211,3.211,0,0,0-1.6-.3L6.9-490.99v-9.449l1.072-.028a3.21,3.21,0,0,0,1.6-.3,3.384,3.384,0,0,0,1.565-1.565,2.378,2.378,0,0,0,.266-1.347,2.379,2.379,0,0,0-.266-1.347A3.384,3.384,0,0,0,9.579-506.6a3.211,3.211,0,0,0-1.6-.3L6.9-506.928v-.351a3.1,3.1,0,0,1,1.148-2.3,4.159,4.159,0,0,1,.8-.389c.446-.152,1.442-.161,15.748-.142l15.274.019ZM8.905-504.793a1.284,1.284,0,0,1-.114,2.267c-.285.152-.626.171-2.837.171-2.808,0-2.969-.028-3.387-.655a1.277,1.277,0,0,1,.465-1.812c.294-.18.484-.19,2.931-.19C8.526-505.011,8.592-505.011,8.905-504.793Zm0,15.938a1.284,1.284,0,0,1-.114,2.267c-.285.152-.626.171-2.837.171-2.808,0-2.969-.028-3.387-.655a1.277,1.277,0,0,1,.465-1.812c.294-.18.484-.19,2.931-.19C8.526-489.073,8.592-489.073,8.905-488.855Zm0,15.938a1.284,1.284,0,0,1-.114,2.267c-.285.152-.626.171-2.837.171-2.808,0-2.969-.028-3.387-.655a1.277,1.277,0,0,1,.465-1.812c.294-.18.484-.19,2.931-.19C8.526-473.136,8.592-473.136,8.905-472.917Z"/><path class="b" d="M145.1-367.741a4.885,4.885,0,0,0-3.4,3.6,15.014,15.014,0,0,0,0,3.453,5.013,5.013,0,0,0,.882,1.907,1.846,1.846,0,0,1,.323.493c-.019.009-.323.142-.693.285a11.286,11.286,0,0,0-6.726,7.713,7.433,7.433,0,0,0-.247,3.055c.247.6-.37.569,11.1.569s10.853.028,11.1-.569c.275-.664-.1-2.979-.749-4.592A11.294,11.294,0,0,0,150.467-358c-.36-.142-.674-.275-.693-.285a1.847,1.847,0,0,1,.323-.493,5.013,5.013,0,0,0,.882-1.907,15.014,15.014,0,0,0,0-3.453,4.893,4.893,0,0,0-3.681-3.681A5.076,5.076,0,0,0,145.1-367.741Zm2.448,1.992a2.861,2.861,0,0,1,1.328,1.328c.256.522.266.6.266,2.011s-.009,1.489-.266,2.011a2.9,2.9,0,0,1-1.328,1.328,3.208,3.208,0,0,1-2.41,0,2.9,2.9,0,0,1-1.328-1.328,3.3,3.3,0,0,1-.294-1.793,5.534,5.534,0,0,1,.114-1.755,2.892,2.892,0,0,1,1.831-1.935A3.355,3.355,0,0,1,147.545-365.749Zm-2.154,10.786v1.85l.266.294a.737.737,0,0,0,.683.3.737.737,0,0,0,.683-.3l.266-.294v-1.85c0-2.125-.1-1.954,1.044-1.708a9.34,9.34,0,0,1,6.821,6.157,9.458,9.458,0,0,1,.351,1.414l.066.541H137.109l.066-.541a9.589,9.589,0,0,1,3.169-5.588,9.354,9.354,0,0,1,4.791-2.116l.256-.009Z" transform="translate(-121.886 -130.459)"/><path class="b" d="M438.675-265.742a.951.951,0,0,0,.465,1.765,1,1,0,0,0,.949-.939A.955.955,0,0,0,438.675-265.742Z" transform="translate(-396.186 -222.819)"/><path class="b" d="M179.028-107.686a.945.945,0,0,0-.18,1.689c.4.209,12.864.209,13.263,0a.915.915,0,0,0,.142-1.48l-.247-.228-6.413-.019C182.064-107.733,179.1-107.714,179.028-107.686Z" transform="translate(-161.025 -365.953)"/></g><path class="c" d="M-24248.664,6483.906h18.559s-.475-8.379-9.391-8.379S-24248.664,6483.906-24248.664,6483.906Z" transform="translate(24525 -2640.222)"/></g></g></svg>