<svg xmlns="http://www.w3.org/2000/svg" xmlns:xlink="http://www.w3.org/1999/xlink" width="96" height="96" viewBox="0 0 96 96"><defs><style>.a{fill:url(#a);}.b{fill:#fff;}.c{fill:#018837;}</style><linearGradient id="a" x2="1" y2="1" gradientUnits="objectBoundingBox"><stop offset="0" stop-color="#ffe041"/><stop offset="1" stop-color="#fff088"/></linearGradient></defs><g transform="translate(-94 -56)"><g transform="translate(-188 -4088)"><circle class="a" cx="48" cy="48" r="48" transform="translate(282 4144)"/></g><g transform="translate(124.801 599.835)"><circle class="b" cx="9" cy="9" r="9" transform="translate(8.199 -503.835)"/><path class="c" d="M15.684-511.808a16.989,16.989,0,0,0-8.83,3.519,19.286,19.286,0,0,0-3.885,4.33,22.814,22.814,0,0,0-1.5,3.081,20.329,20.329,0,0,0-.837,3.264,20.387,20.387,0,0,0,0,4.971,16.507,16.507,0,0,0,1.55,4.873,15.526,15.526,0,0,0,3.2,4.454,15.524,15.524,0,0,0,4.454,3.2,16.507,16.507,0,0,0,4.873,1.55,20.39,20.39,0,0,0,4.971,0,20.333,20.333,0,0,0,3.264-.837,22.814,22.814,0,0,0,3.081-1.5,18.1,18.1,0,0,0,5.389-5.39,22.814,22.814,0,0,0,1.5-3.081,17.711,17.711,0,0,0,.994-4.964c.052-1.007,0-1.249-.32-1.616a1.237,1.237,0,0,0-2.132.569,4.27,4.27,0,0,0-.072.8,14.4,14.4,0,0,1-.425,2.969,14.262,14.262,0,0,1-10.262,10.262,14.557,14.557,0,0,1-7.038-.007A14.248,14.248,0,0,1,3.1-493.285a17.387,17.387,0,0,1,0-3.689,14.256,14.256,0,0,1,10.557-11.917,14.229,14.229,0,0,1,3-.432c.935-.007,1.413-.222,1.655-.746a1.223,1.223,0,0,0-.628-1.681A5.035,5.035,0,0,0,15.684-511.808Z"/><path class="c" d="M145.429-447.553a1.7,1.7,0,0,0-.36.137c-.092.046-3.591,3.506-7.783,7.692l-7.62,7.6-1.9-2.06c-3.512-3.826-3.7-4.016-4.009-4.153a1.2,1.2,0,0,0-1.576.549,1.363,1.363,0,0,0-.013,1.151c.111.216,1.995,2.289,5.553,6.122,1.19,1.282,1.439,1.478,1.91,1.478.549,0,.445.1,8.974-8.418,8.817-8.8,8.418-8.372,8.346-9.013A1.291,1.291,0,0,0,145.429-447.553Z" transform="translate(-113.623 -60.076)"/></g></g></svg>