<svg xmlns="http://www.w3.org/2000/svg" xmlns:xlink="http://www.w3.org/1999/xlink" width="96" height="96" viewBox="0 0 96 96"><defs><style>.a{fill:url(#a);}.b{fill:#018837;}.c{fill:#fff;}</style><linearGradient id="a" x2="1" y2="1" gradientUnits="objectBoundingBox"><stop offset="0" stop-color="#ffe041"/><stop offset="1" stop-color="#fff088"/></linearGradient></defs><g transform="translate(-94 -56)"><g transform="translate(-188 -4088)"><circle class="a" cx="48" cy="48" r="48" transform="translate(282 4144)"/></g><g transform="translate(45.664 573.651)"><path class="b" d="M83.814-495.626a5.182,5.182,0,0,0-2.169,1.277,5.712,5.712,0,0,0-.793,1.222l-.352.738v46.138l.407.837a4.231,4.231,0,0,0,2.158,2.1l.738.352H105.27l.738-.352a4.231,4.231,0,0,0,2.158-2.1l.407-.837.033-9.5.033-9.5-.275-.275a.821.821,0,0,0-1.222,0l-.275.264v9.159c0,6.87-.033,9.269-.132,9.611a3.27,3.27,0,0,1-1.7,1.7c-.65.187-20.355.187-21,0a3.27,3.27,0,0,1-1.7-1.7c-.2-.661-.2-45,0-45.664a3.27,3.27,0,0,1,1.7-1.7c.65-.187,20.355-.187,21,0a3.27,3.27,0,0,1,1.7,1.7,41.051,41.051,0,0,1,.132,5.207v4.756l.275.264a.821.821,0,0,0,1.222,0l.275-.275-.033-5.1-.033-5.1-.407-.837a4.231,4.231,0,0,0-2.158-2.1l-.738-.352-10.513-.022C88.635-495.725,84.067-495.681,83.814-495.626Z"/><path class="b" d="M160.275-463.725a.858.858,0,0,0-.275.605.858.858,0,0,0,.275.606l.264.275h9.49l.264-.275a.858.858,0,0,0,.275-.606.858.858,0,0,0-.275-.605l-.264-.275h-9.49Z" transform="translate(-70.748 -28.224)"/><path class="b" d="M144.275-351.725l-.275.264v11.251l.275.264.264.275h34.149l.264-.275.275-.264v-11.251l-.275-.264-.264-.275H144.539Zm33.192,5.89v4.4H145.761v-8.807h31.705Z" transform="translate(-56.509 -127.894)"/><path class="c" d="M189.164-314.825c-.374.4-.319.87.154,1.4l.4.44-.4.44c-.484.539-.539,1.046-.143,1.409s.87.319,1.4-.154l.44-.4.44.4c.539.484,1.046.539,1.409.143s.319-.87-.154-1.4l-.4-.44.4-.44c.484-.539.539-1.046.143-1.409s-.87-.319-1.4.154l-.44.4-.44-.4C190.034-315.166,189.527-315.221,189.164-314.825Z" transform="translate(-96.477 -160.743)"/><path class="c" d="M253.164-314.825c-.374.4-.319.87.154,1.4l.4.44-.4.44c-.484.539-.539,1.046-.143,1.409s.87.319,1.4-.154l.44-.4.44.4c.539.484,1.046.539,1.409.143s.319-.87-.154-1.4l-.4-.44.4-.44c.484-.539.539-1.046.143-1.409s-.87-.319-1.4.154l-.44.4-.44-.4C254.034-315.166,253.527-315.221,253.164-314.825Z" transform="translate(-153.432 -160.743)"/><path class="c" d="M317.164-314.825c-.374.4-.319.87.154,1.4l.4.44-.4.44c-.484.539-.539,1.046-.143,1.409s.87.319,1.4-.154l.44-.4.44.4c.539.484,1.046.539,1.409.143s.319-.87-.154-1.4l-.4-.44.4-.44c.484-.539.539-1.046.143-1.409s-.87-.319-1.4.154l-.44.4-.44-.4C318.034-315.166,317.527-315.221,317.164-314.825Z" transform="translate(-210.386 -160.743)"/><path class="c" d="M381.164-314.825c-.374.4-.319.87.154,1.4l.4.44-.4.44c-.484.539-.539,1.046-.143,1.409s.87.319,1.4-.154l.44-.4.44.4c.539.484,1.046.539,1.409.143s.319-.87-.154-1.4l-.4-.44.4-.44c.484-.539.539-1.046.143-1.409s-.87-.319-1.4.154l-.44.4-.44-.4C382.034-315.166,381.527-315.221,381.164-314.825Z" transform="translate(-267.34 -160.743)"/><path class="b" d="M192.275-63.725a.858.858,0,0,0-.275.605.858.858,0,0,0,.275.605c.253.264.341.275,1.486.275s1.233-.011,1.486-.275a.858.858,0,0,0,.275-.605.858.858,0,0,0-.275-.605c-.253-.264-.341-.275-1.486-.275S192.528-63.989,192.275-63.725Z" transform="translate(-99.225 -384.189)"/></g></g></svg>