<svg xmlns="http://www.w3.org/2000/svg" xmlns:xlink="http://www.w3.org/1999/xlink" width="96" height="96" viewBox="0 0 96 96"><defs><style>.a{fill:url(#a);}.b{fill:#018837;}.c{fill:#fff;}</style><linearGradient id="a" x2="1" y2="1" gradientUnits="objectBoundingBox"><stop offset="0" stop-color="#ffe041"/><stop offset="1" stop-color="#fff088"/></linearGradient></defs><g transform="translate(-94 -56)"><g transform="translate(-188 -4088)"><circle class="a" cx="48" cy="48" r="48" transform="translate(282 4144)"/></g><g transform="translate(69.068 551.959)"><path class="b" d="M82.892-471.892a20.542,20.542,0,0,0-7.29,2.2,15.28,15.28,0,0,0-3.776,2.736l-1.116,1.062-6.009.033-6.009.033-.547.274a3.852,3.852,0,0,0-1.7,1.7l-.274.547-.033,18.225c-.022,15.871,0,18.29.142,18.772a3.5,3.5,0,0,0,1.7,2.014l.711.394h20.25l.69-.372a3.186,3.186,0,0,0,1.532-1.587l.3-.558-.044-9.391-.044-9.391.372.055a21.987,21.987,0,0,0,10.169-.777c6.874-2.266,11.187-7.848,10.541-13.638C101.576-467.316,92.677-472.921,82.892-471.892Zm4.51,1.751a18.89,18.89,0,0,1,7.465,2.43,16.349,16.349,0,0,1,2.747,2.178,10.552,10.552,0,0,1,2.222,3.163,7.718,7.718,0,0,1,.876,3.93,7.653,7.653,0,0,1-.974,4.1c-3.043,6.283-12.358,9.38-20.447,6.808l-.865-.274-1.018.635c-1.6,1.018-5,2.638-5.166,2.485a2.694,2.694,0,0,1,.12-.69c.208-.81.668-3.306.843-4.5l.12-.9-.679-.744A11.431,11.431,0,0,1,70-456.119a10.539,10.539,0,0,1-.044-4.455,13.123,13.123,0,0,1,1.664-3.525c2.353-3.295,6.8-5.593,11.756-6.086A27.632,27.632,0,0,1,87.4-470.14Zm-17.929,6.064a7.176,7.176,0,0,1-.372.8,13.547,13.547,0,0,0-1,2.944l-.077.471H57.87v-1.412c0-1.489.077-1.872.471-2.3.5-.547.547-.547,6.02-.558C67.174-464.131,69.473-464.109,69.473-464.076Zm-1.445,6.951a12.323,12.323,0,0,0,3,6.414,1.605,1.605,0,0,1,.416.679c0,.4-.547,3.218-.93,4.816-.438,1.806-.46,2.091-.175,2.441.3.372.788.328,2.419-.219a27.281,27.281,0,0,0,4.882-2.255c1.051-.624,1.051-.624,1.532-.493l.482.142v12.117H57.87v-24.628H67.9Zm11.624,27.791c0,2.3-.011,2.4-.252,2.758a2.714,2.714,0,0,1-.613.613l-.372.252-9.72-.022c-9.621-.033-9.72-.033-10.015-.263-.744-.547-.755-.58-.788-3.284l-.033-2.452H79.652Z" transform="translate(0 0)"/><path class="c" d="M238.307-387.693a.956.956,0,0,0-.307.675.956.956,0,0,0,.307.675l.294.307h17.938l.294-.307a.956.956,0,0,0,.307-.675.956.956,0,0,0-.307-.675l-.294-.307H238.6Z" transform="translate(-163.363 -74.86)"/><path class="c" d="M238.307-347.693a.956.956,0,0,0-.307.675.956.956,0,0,0,.307.675l.294.307h17.938l.294-.307a.957.957,0,0,0,.307-.675.957.957,0,0,0-.307-.675l-.294-.307H238.6Z" transform="translate(-163.363 -110.501)"/><path class="c" d="M238.307-311.693a.956.956,0,0,0-.307.675.956.956,0,0,0,.307.675l.294.307h10.085l.294-.307a.957.957,0,0,0,.307-.675.957.957,0,0,0-.307-.675l-.294-.307H238.6Z" transform="translate(-162.628 -142.579)"/><path class="b" d="M152.353-90.681a.864.864,0,0,0,.037,1.239l.294.344h1.84c1.779,0,1.853-.012,2.159-.294a.889.889,0,0,0,.037-1.337c-.27-.258-.4-.27-2.2-.27H152.6Z" transform="translate(-85.602 -340.083)"/></g></g></svg>