<svg xmlns="http://www.w3.org/2000/svg" width="108" height="108" viewBox="0 0 108 108"><defs><style>.a{fill:#ffe041;}.b{fill:#129048;}.c{fill:#fff;}.d{fill:none;}</style></defs><g transform="translate(0 0.279)"><circle class="a" cx="54" cy="54" r="54" transform="translate(0 -0.279)"/><g transform="translate(35.048 31)"><path class="b" d="M20.113,0c.868.144,1.749.233,2.6.442A16.313,16.313,0,0,1,34.6,10.554c2.6,6.5,1.465,12.524-3.077,17.872a.5.5,0,0,0-.037.7q3.12,5.4,6.22,10.811a1.319,1.319,0,0,1,.194.706c-.033.412-.4.607-.882.5-1.564-.335-3.125-.684-4.687-1.027-.277-.061-.554-.118-.863-.183-.049.116-.1.218-.136.327q-.8,2.52-1.6,5.042c-.1.32-.235.582-.609.63a.729.729,0,0,1-.776-.478c-.308-.564-.644-1.113-.958-1.674a.7.7,0,0,1,.171-1.019c.364-.222.726-.092,1,.361.082.135.163.271.289.481l1.4-4.39c.23-.723.418-.838,1.144-.681,1.472.318,2.942.64,4.523.985l-5.644-9.807a17.233,17.233,0,0,1-7.2,3.844c.091.166.165.309.245.448q1.712,2.975,3.424,5.949a2.885,2.885,0,0,1,.221.439.6.6,0,0,1-.28.773.619.619,0,0,1-.819-.1,1.964,1.964,0,0,1-.272-.409c-1.24-2.151-2.483-4.3-3.709-6.458a.532.532,0,0,0-.64-.307,15.207,15.207,0,0,1-4.606,0,.5.5,0,0,0-.6.3Q12.829,39.8,9.6,45.39a1.773,1.773,0,0,1-.307.437c-.383.348-.931.145-1.109-.411-.519-1.623-1.029-3.248-1.543-4.872-.058-.183-.121-.364-.193-.578L1.7,41.005a4.173,4.173,0,0,1-.875.181.982.982,0,0,1-.7-.24.808.808,0,0,1-.073-.728C1.082,38.376,2.14,36.552,3.2,34.73a.644.644,0,0,1,.931-.241.679.679,0,0,1,.183.982c-.679,1.2-1.371,2.386-2.056,3.579-.08.139-.148.285-.262.505.977-.214,1.878-.41,2.779-.608.6-.132,1.2-.273,1.795-.4s.853.021,1.042.614q.633,1.986,1.26,3.974c.043.136.091.271.171.507l5.805-10.084a17.171,17.171,0,0,1-7.215-3.838L6.209,32.19c-.09.155-.173.315-.272.464a.642.642,0,0,1-.929.223.623.623,0,0,1-.231-.891c.542-.965,1.089-1.927,1.661-2.875a.486.486,0,0,0-.078-.686A16.567,16.567,0,0,1,2,16.156,16.693,16.693,0,0,1,7.879,4.117c.389-.343.8-.36,1.069-.054.294.328.231.707-.2,1.084a15.691,15.691,0,0,0,5.206,26.736A15.668,15.668,0,1,0,21.711,1.6a15.511,15.511,0,0,0-10.13,1.6c-.335.177-.659.31-.989.008A.688.688,0,0,1,10.83,2.07a16.666,16.666,0,0,1,5.094-1.8C16.509.167,17.1.089,17.687,0Z" transform="translate(0 0.001)"/><path class="b" d="M54.478,50.975A12.376,12.376,0,0,1,79.027,48.7a12.69,12.69,0,0,1-.008,4.551c-.1.544-.4.8-.834.711-.4-.079-.584-.433-.493-.953A11.008,11.008,0,1,0,76.4,56.5c.089-.156.17-.317.265-.468a.672.672,0,1,1,1.167.662,12.026,12.026,0,0,1-2.805,3.583,12.353,12.353,0,0,1-20.233-6.818c-.17-.816-.212-1.658-.313-2.488" transform="translate(-47.94 -33.926)"/><path class="b" d="M110.214,81.347a2.879,2.879,0,0,1-.341.478q-1.386,1.377-2.8,2.728a.563.563,0,0,0-.19.585c.242,1.308.473,2.619.662,3.936a.681.681,0,0,1-1.024.755c-1.166-.576-2.311-1.194-3.453-1.816a.675.675,0,0,0-.74-.013c-1.113.612-2.246,1.19-3.366,1.79a.785.785,0,0,1-.882.055.759.759,0,0,1-.261-.877c.232-1.28.431-2.566.67-3.844a.565.565,0,0,0-.2-.582c-.938-.9-1.866-1.817-2.8-2.723a.73.73,0,0,1-.293-.787.749.749,0,0,1,.71-.52c1.288-.18,2.574-.375,3.864-.54a.6.6,0,0,0,.527-.4c.554-1.16,1.128-2.31,1.688-3.467.144-.3.309-.546.685-.553.4-.008.573.249.725.563.56,1.157,1.136,2.306,1.688,3.467a.6.6,0,0,0,.533.386c1.29.166,2.577.357,3.864.545a.758.758,0,0,1,.733.83M99.35,88.056c.986-.522,1.913-1,2.826-1.5a.959.959,0,0,1,1.013-.009c.6.334,1.212.648,1.819.969.317.168.634.333,1.018.534-.187-1.068-.345-2.04-.532-3.007a1.144,1.144,0,0,1,.371-1.2c.583-.513,1.117-1.082,1.682-1.616a6.233,6.233,0,0,1,.55-.42,21.711,21.711,0,0,0-3.04-.548,1.153,1.153,0,0,1-1.039-.766c-.4-.893-.856-1.762-1.32-2.706-.106.191-.181.314-.244.442-.4.8-.8,1.6-1.179,2.416a.953.953,0,0,1-.817.6c-1.029.132-2.055.293-2.991.429.659.706,1.3,1.454,2.01,2.133a1.253,1.253,0,0,1,.4,1.281c-.192.964-.344,1.936-.525,2.977" transform="translate(-83.744 -66.488)"/><path class="c" d="M116.244,104.387c.181-1.041.332-2.013.525-2.977a1.253,1.253,0,0,0-.4-1.281c-.708-.68-1.352-1.427-2.01-2.133.936-.136,1.962-.3,2.991-.429a.953.953,0,0,0,.817-.6c.378-.812.783-1.612,1.179-2.416.063-.128.138-.251.244-.442.464.944.918,1.813,1.32,2.706a1.153,1.153,0,0,0,1.039.766,21.709,21.709,0,0,1,3.04.548,6.234,6.234,0,0,0-.55.42c-.565.535-1.1,1.1-1.682,1.616a1.144,1.144,0,0,0-.371,1.2c.187.966.345,1.939.532,3.007-.384-.2-.7-.367-1.018-.534-.607-.321-1.219-.635-1.819-.969a.959.959,0,0,0-1.013.009c-.914.5-1.84.981-2.826,1.5" transform="translate(-100.637 -82.818)"/><rect class="d" width="37.905" height="46"/></g></g></svg>